G75*
%MOIN*%
%OFA0B0*%
%FSLAX25Y25*%
%IPPOS*%
%LPD*%
%AMOC8*
5,1,8,0,0,1.08239X$1,22.5*
%
%ADD10C,0.00000*%
%ADD11C,0.00600*%
%ADD12OC8,0.06300*%
%ADD13C,0.02578*%
%ADD14C,0.01200*%
%ADD15C,0.01600*%
D10*
X0028000Y0067173D02*
X0028002Y0067352D01*
X0028009Y0067530D01*
X0028020Y0067709D01*
X0028035Y0067887D01*
X0028055Y0068065D01*
X0028079Y0068242D01*
X0028107Y0068418D01*
X0028140Y0068594D01*
X0028177Y0068769D01*
X0028218Y0068943D01*
X0028264Y0069115D01*
X0028314Y0069287D01*
X0028368Y0069458D01*
X0028426Y0069627D01*
X0028488Y0069794D01*
X0028554Y0069960D01*
X0028625Y0070124D01*
X0028699Y0070287D01*
X0028778Y0070448D01*
X0028860Y0070606D01*
X0028946Y0070763D01*
X0029036Y0070917D01*
X0029130Y0071069D01*
X0029227Y0071219D01*
X0029329Y0071367D01*
X0029433Y0071511D01*
X0029541Y0071654D01*
X0029653Y0071793D01*
X0029768Y0071930D01*
X0029887Y0072064D01*
X0030008Y0072195D01*
X0030133Y0072323D01*
X0030261Y0072448D01*
X0030392Y0072569D01*
X0030526Y0072688D01*
X0030663Y0072803D01*
X0030802Y0072915D01*
X0030945Y0073023D01*
X0031089Y0073127D01*
X0031237Y0073229D01*
X0031387Y0073326D01*
X0031539Y0073420D01*
X0031693Y0073510D01*
X0031850Y0073596D01*
X0032008Y0073678D01*
X0032169Y0073757D01*
X0032332Y0073831D01*
X0032496Y0073902D01*
X0032662Y0073968D01*
X0032829Y0074030D01*
X0032998Y0074088D01*
X0033169Y0074142D01*
X0033341Y0074192D01*
X0033513Y0074238D01*
X0033687Y0074279D01*
X0033862Y0074316D01*
X0034038Y0074349D01*
X0034214Y0074377D01*
X0034391Y0074401D01*
X0034569Y0074421D01*
X0034747Y0074436D01*
X0034926Y0074447D01*
X0035104Y0074454D01*
X0035283Y0074456D01*
X0035462Y0074454D01*
X0035640Y0074447D01*
X0035819Y0074436D01*
X0035997Y0074421D01*
X0036175Y0074401D01*
X0036352Y0074377D01*
X0036528Y0074349D01*
X0036704Y0074316D01*
X0036879Y0074279D01*
X0037053Y0074238D01*
X0037225Y0074192D01*
X0037397Y0074142D01*
X0037568Y0074088D01*
X0037737Y0074030D01*
X0037904Y0073968D01*
X0038070Y0073902D01*
X0038234Y0073831D01*
X0038397Y0073757D01*
X0038558Y0073678D01*
X0038716Y0073596D01*
X0038873Y0073510D01*
X0039027Y0073420D01*
X0039179Y0073326D01*
X0039329Y0073229D01*
X0039477Y0073127D01*
X0039621Y0073023D01*
X0039764Y0072915D01*
X0039903Y0072803D01*
X0040040Y0072688D01*
X0040174Y0072569D01*
X0040305Y0072448D01*
X0040433Y0072323D01*
X0040558Y0072195D01*
X0040679Y0072064D01*
X0040798Y0071930D01*
X0040913Y0071793D01*
X0041025Y0071654D01*
X0041133Y0071511D01*
X0041237Y0071367D01*
X0041339Y0071219D01*
X0041436Y0071069D01*
X0041530Y0070917D01*
X0041620Y0070763D01*
X0041706Y0070606D01*
X0041788Y0070448D01*
X0041867Y0070287D01*
X0041941Y0070124D01*
X0042012Y0069960D01*
X0042078Y0069794D01*
X0042140Y0069627D01*
X0042198Y0069458D01*
X0042252Y0069287D01*
X0042302Y0069115D01*
X0042348Y0068943D01*
X0042389Y0068769D01*
X0042426Y0068594D01*
X0042459Y0068418D01*
X0042487Y0068242D01*
X0042511Y0068065D01*
X0042531Y0067887D01*
X0042546Y0067709D01*
X0042557Y0067530D01*
X0042564Y0067352D01*
X0042566Y0067173D01*
X0042564Y0066994D01*
X0042557Y0066816D01*
X0042546Y0066637D01*
X0042531Y0066459D01*
X0042511Y0066281D01*
X0042487Y0066104D01*
X0042459Y0065928D01*
X0042426Y0065752D01*
X0042389Y0065577D01*
X0042348Y0065403D01*
X0042302Y0065231D01*
X0042252Y0065059D01*
X0042198Y0064888D01*
X0042140Y0064719D01*
X0042078Y0064552D01*
X0042012Y0064386D01*
X0041941Y0064222D01*
X0041867Y0064059D01*
X0041788Y0063898D01*
X0041706Y0063740D01*
X0041620Y0063583D01*
X0041530Y0063429D01*
X0041436Y0063277D01*
X0041339Y0063127D01*
X0041237Y0062979D01*
X0041133Y0062835D01*
X0041025Y0062692D01*
X0040913Y0062553D01*
X0040798Y0062416D01*
X0040679Y0062282D01*
X0040558Y0062151D01*
X0040433Y0062023D01*
X0040305Y0061898D01*
X0040174Y0061777D01*
X0040040Y0061658D01*
X0039903Y0061543D01*
X0039764Y0061431D01*
X0039621Y0061323D01*
X0039477Y0061219D01*
X0039329Y0061117D01*
X0039179Y0061020D01*
X0039027Y0060926D01*
X0038873Y0060836D01*
X0038716Y0060750D01*
X0038558Y0060668D01*
X0038397Y0060589D01*
X0038234Y0060515D01*
X0038070Y0060444D01*
X0037904Y0060378D01*
X0037737Y0060316D01*
X0037568Y0060258D01*
X0037397Y0060204D01*
X0037225Y0060154D01*
X0037053Y0060108D01*
X0036879Y0060067D01*
X0036704Y0060030D01*
X0036528Y0059997D01*
X0036352Y0059969D01*
X0036175Y0059945D01*
X0035997Y0059925D01*
X0035819Y0059910D01*
X0035640Y0059899D01*
X0035462Y0059892D01*
X0035283Y0059890D01*
X0035104Y0059892D01*
X0034926Y0059899D01*
X0034747Y0059910D01*
X0034569Y0059925D01*
X0034391Y0059945D01*
X0034214Y0059969D01*
X0034038Y0059997D01*
X0033862Y0060030D01*
X0033687Y0060067D01*
X0033513Y0060108D01*
X0033341Y0060154D01*
X0033169Y0060204D01*
X0032998Y0060258D01*
X0032829Y0060316D01*
X0032662Y0060378D01*
X0032496Y0060444D01*
X0032332Y0060515D01*
X0032169Y0060589D01*
X0032008Y0060668D01*
X0031850Y0060750D01*
X0031693Y0060836D01*
X0031539Y0060926D01*
X0031387Y0061020D01*
X0031237Y0061117D01*
X0031089Y0061219D01*
X0030945Y0061323D01*
X0030802Y0061431D01*
X0030663Y0061543D01*
X0030526Y0061658D01*
X0030392Y0061777D01*
X0030261Y0061898D01*
X0030133Y0062023D01*
X0030008Y0062151D01*
X0029887Y0062282D01*
X0029768Y0062416D01*
X0029653Y0062553D01*
X0029541Y0062692D01*
X0029433Y0062835D01*
X0029329Y0062979D01*
X0029227Y0063127D01*
X0029130Y0063277D01*
X0029036Y0063429D01*
X0028946Y0063583D01*
X0028860Y0063740D01*
X0028778Y0063898D01*
X0028699Y0064059D01*
X0028625Y0064222D01*
X0028554Y0064386D01*
X0028488Y0064552D01*
X0028426Y0064719D01*
X0028368Y0064888D01*
X0028314Y0065059D01*
X0028264Y0065231D01*
X0028218Y0065403D01*
X0028177Y0065577D01*
X0028140Y0065752D01*
X0028107Y0065928D01*
X0028079Y0066104D01*
X0028055Y0066281D01*
X0028035Y0066459D01*
X0028020Y0066637D01*
X0028009Y0066816D01*
X0028002Y0066994D01*
X0028000Y0067173D01*
X0105000Y0067173D02*
X0105002Y0067352D01*
X0105009Y0067530D01*
X0105020Y0067709D01*
X0105035Y0067887D01*
X0105055Y0068065D01*
X0105079Y0068242D01*
X0105107Y0068418D01*
X0105140Y0068594D01*
X0105177Y0068769D01*
X0105218Y0068943D01*
X0105264Y0069115D01*
X0105314Y0069287D01*
X0105368Y0069458D01*
X0105426Y0069627D01*
X0105488Y0069794D01*
X0105554Y0069960D01*
X0105625Y0070124D01*
X0105699Y0070287D01*
X0105778Y0070448D01*
X0105860Y0070606D01*
X0105946Y0070763D01*
X0106036Y0070917D01*
X0106130Y0071069D01*
X0106227Y0071219D01*
X0106329Y0071367D01*
X0106433Y0071511D01*
X0106541Y0071654D01*
X0106653Y0071793D01*
X0106768Y0071930D01*
X0106887Y0072064D01*
X0107008Y0072195D01*
X0107133Y0072323D01*
X0107261Y0072448D01*
X0107392Y0072569D01*
X0107526Y0072688D01*
X0107663Y0072803D01*
X0107802Y0072915D01*
X0107945Y0073023D01*
X0108089Y0073127D01*
X0108237Y0073229D01*
X0108387Y0073326D01*
X0108539Y0073420D01*
X0108693Y0073510D01*
X0108850Y0073596D01*
X0109008Y0073678D01*
X0109169Y0073757D01*
X0109332Y0073831D01*
X0109496Y0073902D01*
X0109662Y0073968D01*
X0109829Y0074030D01*
X0109998Y0074088D01*
X0110169Y0074142D01*
X0110341Y0074192D01*
X0110513Y0074238D01*
X0110687Y0074279D01*
X0110862Y0074316D01*
X0111038Y0074349D01*
X0111214Y0074377D01*
X0111391Y0074401D01*
X0111569Y0074421D01*
X0111747Y0074436D01*
X0111926Y0074447D01*
X0112104Y0074454D01*
X0112283Y0074456D01*
X0112462Y0074454D01*
X0112640Y0074447D01*
X0112819Y0074436D01*
X0112997Y0074421D01*
X0113175Y0074401D01*
X0113352Y0074377D01*
X0113528Y0074349D01*
X0113704Y0074316D01*
X0113879Y0074279D01*
X0114053Y0074238D01*
X0114225Y0074192D01*
X0114397Y0074142D01*
X0114568Y0074088D01*
X0114737Y0074030D01*
X0114904Y0073968D01*
X0115070Y0073902D01*
X0115234Y0073831D01*
X0115397Y0073757D01*
X0115558Y0073678D01*
X0115716Y0073596D01*
X0115873Y0073510D01*
X0116027Y0073420D01*
X0116179Y0073326D01*
X0116329Y0073229D01*
X0116477Y0073127D01*
X0116621Y0073023D01*
X0116764Y0072915D01*
X0116903Y0072803D01*
X0117040Y0072688D01*
X0117174Y0072569D01*
X0117305Y0072448D01*
X0117433Y0072323D01*
X0117558Y0072195D01*
X0117679Y0072064D01*
X0117798Y0071930D01*
X0117913Y0071793D01*
X0118025Y0071654D01*
X0118133Y0071511D01*
X0118237Y0071367D01*
X0118339Y0071219D01*
X0118436Y0071069D01*
X0118530Y0070917D01*
X0118620Y0070763D01*
X0118706Y0070606D01*
X0118788Y0070448D01*
X0118867Y0070287D01*
X0118941Y0070124D01*
X0119012Y0069960D01*
X0119078Y0069794D01*
X0119140Y0069627D01*
X0119198Y0069458D01*
X0119252Y0069287D01*
X0119302Y0069115D01*
X0119348Y0068943D01*
X0119389Y0068769D01*
X0119426Y0068594D01*
X0119459Y0068418D01*
X0119487Y0068242D01*
X0119511Y0068065D01*
X0119531Y0067887D01*
X0119546Y0067709D01*
X0119557Y0067530D01*
X0119564Y0067352D01*
X0119566Y0067173D01*
X0119564Y0066994D01*
X0119557Y0066816D01*
X0119546Y0066637D01*
X0119531Y0066459D01*
X0119511Y0066281D01*
X0119487Y0066104D01*
X0119459Y0065928D01*
X0119426Y0065752D01*
X0119389Y0065577D01*
X0119348Y0065403D01*
X0119302Y0065231D01*
X0119252Y0065059D01*
X0119198Y0064888D01*
X0119140Y0064719D01*
X0119078Y0064552D01*
X0119012Y0064386D01*
X0118941Y0064222D01*
X0118867Y0064059D01*
X0118788Y0063898D01*
X0118706Y0063740D01*
X0118620Y0063583D01*
X0118530Y0063429D01*
X0118436Y0063277D01*
X0118339Y0063127D01*
X0118237Y0062979D01*
X0118133Y0062835D01*
X0118025Y0062692D01*
X0117913Y0062553D01*
X0117798Y0062416D01*
X0117679Y0062282D01*
X0117558Y0062151D01*
X0117433Y0062023D01*
X0117305Y0061898D01*
X0117174Y0061777D01*
X0117040Y0061658D01*
X0116903Y0061543D01*
X0116764Y0061431D01*
X0116621Y0061323D01*
X0116477Y0061219D01*
X0116329Y0061117D01*
X0116179Y0061020D01*
X0116027Y0060926D01*
X0115873Y0060836D01*
X0115716Y0060750D01*
X0115558Y0060668D01*
X0115397Y0060589D01*
X0115234Y0060515D01*
X0115070Y0060444D01*
X0114904Y0060378D01*
X0114737Y0060316D01*
X0114568Y0060258D01*
X0114397Y0060204D01*
X0114225Y0060154D01*
X0114053Y0060108D01*
X0113879Y0060067D01*
X0113704Y0060030D01*
X0113528Y0059997D01*
X0113352Y0059969D01*
X0113175Y0059945D01*
X0112997Y0059925D01*
X0112819Y0059910D01*
X0112640Y0059899D01*
X0112462Y0059892D01*
X0112283Y0059890D01*
X0112104Y0059892D01*
X0111926Y0059899D01*
X0111747Y0059910D01*
X0111569Y0059925D01*
X0111391Y0059945D01*
X0111214Y0059969D01*
X0111038Y0059997D01*
X0110862Y0060030D01*
X0110687Y0060067D01*
X0110513Y0060108D01*
X0110341Y0060154D01*
X0110169Y0060204D01*
X0109998Y0060258D01*
X0109829Y0060316D01*
X0109662Y0060378D01*
X0109496Y0060444D01*
X0109332Y0060515D01*
X0109169Y0060589D01*
X0109008Y0060668D01*
X0108850Y0060750D01*
X0108693Y0060836D01*
X0108539Y0060926D01*
X0108387Y0061020D01*
X0108237Y0061117D01*
X0108089Y0061219D01*
X0107945Y0061323D01*
X0107802Y0061431D01*
X0107663Y0061543D01*
X0107526Y0061658D01*
X0107392Y0061777D01*
X0107261Y0061898D01*
X0107133Y0062023D01*
X0107008Y0062151D01*
X0106887Y0062282D01*
X0106768Y0062416D01*
X0106653Y0062553D01*
X0106541Y0062692D01*
X0106433Y0062835D01*
X0106329Y0062979D01*
X0106227Y0063127D01*
X0106130Y0063277D01*
X0106036Y0063429D01*
X0105946Y0063583D01*
X0105860Y0063740D01*
X0105778Y0063898D01*
X0105699Y0064059D01*
X0105625Y0064222D01*
X0105554Y0064386D01*
X0105488Y0064552D01*
X0105426Y0064719D01*
X0105368Y0064888D01*
X0105314Y0065059D01*
X0105264Y0065231D01*
X0105218Y0065403D01*
X0105177Y0065577D01*
X0105140Y0065752D01*
X0105107Y0065928D01*
X0105079Y0066104D01*
X0105055Y0066281D01*
X0105035Y0066459D01*
X0105020Y0066637D01*
X0105009Y0066816D01*
X0105002Y0066994D01*
X0105000Y0067173D01*
D11*
X0104409Y0037646D02*
X0043157Y0037646D01*
X0042681Y0037652D01*
X0042206Y0037669D01*
X0041731Y0037698D01*
X0041257Y0037738D01*
X0040784Y0037790D01*
X0040313Y0037853D01*
X0039843Y0037927D01*
X0039375Y0038013D01*
X0038909Y0038110D01*
X0038446Y0038218D01*
X0037986Y0038337D01*
X0037528Y0038468D01*
X0037074Y0038609D01*
X0036623Y0038762D01*
X0036177Y0038925D01*
X0035734Y0039099D01*
X0035296Y0039284D01*
X0034862Y0039479D01*
X0034433Y0039685D01*
X0034009Y0039901D01*
X0033590Y0040127D01*
X0033177Y0040363D01*
X0032770Y0040609D01*
X0032369Y0040865D01*
X0031975Y0041131D01*
X0031586Y0041406D01*
X0031205Y0041690D01*
X0030831Y0041983D01*
X0030463Y0042285D01*
X0030103Y0042597D01*
X0029751Y0042916D01*
X0029407Y0043244D01*
X0029070Y0043581D01*
X0028742Y0043925D01*
X0028423Y0044277D01*
X0028111Y0044637D01*
X0027809Y0045005D01*
X0027516Y0045379D01*
X0027232Y0045760D01*
X0026957Y0046149D01*
X0026691Y0046543D01*
X0026435Y0046944D01*
X0026189Y0047351D01*
X0025953Y0047764D01*
X0025727Y0048183D01*
X0025511Y0048607D01*
X0025305Y0049036D01*
X0025110Y0049470D01*
X0024925Y0049908D01*
X0024751Y0050351D01*
X0024588Y0050797D01*
X0024435Y0051248D01*
X0024294Y0051702D01*
X0024163Y0052160D01*
X0024044Y0052620D01*
X0023936Y0053083D01*
X0023839Y0053549D01*
X0023753Y0054017D01*
X0023679Y0054487D01*
X0023616Y0054958D01*
X0023564Y0055431D01*
X0023524Y0055905D01*
X0023495Y0056380D01*
X0023478Y0056855D01*
X0023472Y0057331D01*
X0023472Y0077016D01*
X0023478Y0077492D01*
X0023495Y0077967D01*
X0023524Y0078442D01*
X0023564Y0078916D01*
X0023616Y0079389D01*
X0023679Y0079860D01*
X0023753Y0080330D01*
X0023839Y0080798D01*
X0023936Y0081264D01*
X0024044Y0081727D01*
X0024163Y0082187D01*
X0024294Y0082645D01*
X0024435Y0083099D01*
X0024588Y0083550D01*
X0024751Y0083996D01*
X0024925Y0084439D01*
X0025110Y0084877D01*
X0025305Y0085311D01*
X0025511Y0085740D01*
X0025727Y0086164D01*
X0025953Y0086583D01*
X0026189Y0086996D01*
X0026435Y0087403D01*
X0026691Y0087804D01*
X0026957Y0088198D01*
X0027232Y0088587D01*
X0027516Y0088968D01*
X0027809Y0089342D01*
X0028111Y0089710D01*
X0028423Y0090070D01*
X0028742Y0090422D01*
X0029070Y0090766D01*
X0029407Y0091103D01*
X0029751Y0091431D01*
X0030103Y0091750D01*
X0030463Y0092062D01*
X0030831Y0092364D01*
X0031205Y0092657D01*
X0031586Y0092941D01*
X0031975Y0093216D01*
X0032369Y0093482D01*
X0032770Y0093738D01*
X0033177Y0093984D01*
X0033590Y0094220D01*
X0034009Y0094446D01*
X0034433Y0094662D01*
X0034862Y0094868D01*
X0035296Y0095063D01*
X0035734Y0095248D01*
X0036177Y0095422D01*
X0036623Y0095585D01*
X0037074Y0095738D01*
X0037528Y0095879D01*
X0037986Y0096010D01*
X0038446Y0096129D01*
X0038909Y0096237D01*
X0039375Y0096334D01*
X0039843Y0096420D01*
X0040313Y0096494D01*
X0040784Y0096557D01*
X0041257Y0096609D01*
X0041731Y0096649D01*
X0042206Y0096678D01*
X0042681Y0096695D01*
X0043157Y0096701D01*
X0104409Y0096701D01*
X0104885Y0096695D01*
X0105360Y0096678D01*
X0105835Y0096649D01*
X0106309Y0096609D01*
X0106782Y0096557D01*
X0107253Y0096494D01*
X0107723Y0096420D01*
X0108191Y0096334D01*
X0108657Y0096237D01*
X0109120Y0096129D01*
X0109580Y0096010D01*
X0110038Y0095879D01*
X0110492Y0095738D01*
X0110943Y0095585D01*
X0111389Y0095422D01*
X0111832Y0095248D01*
X0112270Y0095063D01*
X0112704Y0094868D01*
X0113133Y0094662D01*
X0113557Y0094446D01*
X0113976Y0094220D01*
X0114389Y0093984D01*
X0114796Y0093738D01*
X0115197Y0093482D01*
X0115591Y0093216D01*
X0115980Y0092941D01*
X0116361Y0092657D01*
X0116735Y0092364D01*
X0117103Y0092062D01*
X0117463Y0091750D01*
X0117815Y0091431D01*
X0118159Y0091103D01*
X0118496Y0090766D01*
X0118824Y0090422D01*
X0119143Y0090070D01*
X0119455Y0089710D01*
X0119757Y0089342D01*
X0120050Y0088968D01*
X0120334Y0088587D01*
X0120609Y0088198D01*
X0120875Y0087804D01*
X0121131Y0087403D01*
X0121377Y0086996D01*
X0121613Y0086583D01*
X0121839Y0086164D01*
X0122055Y0085740D01*
X0122261Y0085311D01*
X0122456Y0084877D01*
X0122641Y0084439D01*
X0122815Y0083996D01*
X0122978Y0083550D01*
X0123131Y0083099D01*
X0123272Y0082645D01*
X0123403Y0082187D01*
X0123522Y0081727D01*
X0123630Y0081264D01*
X0123727Y0080798D01*
X0123813Y0080330D01*
X0123887Y0079860D01*
X0123950Y0079389D01*
X0124002Y0078916D01*
X0124042Y0078442D01*
X0124071Y0077967D01*
X0124088Y0077492D01*
X0124094Y0077016D01*
X0124094Y0057331D01*
X0124088Y0056855D01*
X0124071Y0056380D01*
X0124042Y0055905D01*
X0124002Y0055431D01*
X0123950Y0054958D01*
X0123887Y0054487D01*
X0123813Y0054017D01*
X0123727Y0053549D01*
X0123630Y0053083D01*
X0123522Y0052620D01*
X0123403Y0052160D01*
X0123272Y0051702D01*
X0123131Y0051248D01*
X0122978Y0050797D01*
X0122815Y0050351D01*
X0122641Y0049908D01*
X0122456Y0049470D01*
X0122261Y0049036D01*
X0122055Y0048607D01*
X0121839Y0048183D01*
X0121613Y0047764D01*
X0121377Y0047351D01*
X0121131Y0046944D01*
X0120875Y0046543D01*
X0120609Y0046149D01*
X0120334Y0045760D01*
X0120050Y0045379D01*
X0119757Y0045005D01*
X0119455Y0044637D01*
X0119143Y0044277D01*
X0118824Y0043925D01*
X0118496Y0043581D01*
X0118159Y0043244D01*
X0117815Y0042916D01*
X0117463Y0042597D01*
X0117103Y0042285D01*
X0116735Y0041983D01*
X0116361Y0041690D01*
X0115980Y0041406D01*
X0115591Y0041131D01*
X0115197Y0040865D01*
X0114796Y0040609D01*
X0114389Y0040363D01*
X0113976Y0040127D01*
X0113557Y0039901D01*
X0113133Y0039685D01*
X0112704Y0039479D01*
X0112270Y0039284D01*
X0111832Y0039099D01*
X0111389Y0038925D01*
X0110943Y0038762D01*
X0110492Y0038609D01*
X0110038Y0038468D01*
X0109580Y0038337D01*
X0109120Y0038218D01*
X0108657Y0038110D01*
X0108191Y0038013D01*
X0107723Y0037927D01*
X0107253Y0037853D01*
X0106782Y0037790D01*
X0106309Y0037738D01*
X0105835Y0037698D01*
X0105360Y0037669D01*
X0104885Y0037652D01*
X0104409Y0037646D01*
D12*
X0093780Y0090008D03*
X0083780Y0090008D03*
X0073783Y0090008D03*
X0063780Y0090008D03*
X0053780Y0090008D03*
D13*
X0101976Y0080835D03*
X0100480Y0050126D03*
X0079969Y0046740D03*
X0046740Y0050126D03*
D14*
X0072953Y0080835D02*
X0063780Y0090008D01*
X0072953Y0080835D02*
X0101976Y0080835D01*
D15*
X0104665Y0080805D02*
X0121468Y0080805D01*
X0121103Y0082404D02*
X0104210Y0082404D01*
X0104256Y0082358D02*
X0103500Y0083114D01*
X0102511Y0083524D01*
X0101441Y0083524D01*
X0100453Y0083114D01*
X0100174Y0082835D01*
X0073781Y0082835D01*
X0068330Y0088286D01*
X0068330Y0091893D01*
X0065664Y0094558D01*
X0061895Y0094558D01*
X0059230Y0091893D01*
X0059230Y0088123D01*
X0061895Y0085458D01*
X0065501Y0085458D01*
X0072124Y0078835D01*
X0100174Y0078835D01*
X0100453Y0078555D01*
X0101441Y0078146D01*
X0102511Y0078146D01*
X0103500Y0078555D01*
X0104256Y0079311D01*
X0104665Y0080300D01*
X0104665Y0081370D01*
X0104256Y0082358D01*
X0104151Y0079207D02*
X0121833Y0079207D01*
X0121884Y0078985D02*
X0121994Y0077016D01*
X0121994Y0057331D01*
X0121884Y0055362D01*
X0121008Y0051523D01*
X0119299Y0047975D01*
X0116844Y0044896D01*
X0113765Y0042441D01*
X0110217Y0040732D01*
X0106378Y0039856D01*
X0104409Y0039746D01*
X0043157Y0039746D01*
X0041189Y0039856D01*
X0037350Y0040732D01*
X0033802Y0042441D01*
X0030723Y0044896D01*
X0028268Y0047975D01*
X0026559Y0051523D01*
X0025683Y0055362D01*
X0025572Y0057331D01*
X0025572Y0077016D01*
X0025683Y0078985D01*
X0026559Y0082824D01*
X0028268Y0086372D01*
X0030723Y0089450D01*
X0033802Y0091905D01*
X0037350Y0093614D01*
X0041189Y0094490D01*
X0043157Y0094601D01*
X0051372Y0094601D01*
X0048830Y0092058D01*
X0048830Y0090008D01*
X0053779Y0090008D01*
X0053779Y0090008D01*
X0048830Y0090008D01*
X0048830Y0087958D01*
X0051729Y0085058D01*
X0053779Y0085058D01*
X0053779Y0090008D01*
X0053780Y0090008D01*
X0058730Y0090008D01*
X0058730Y0092058D01*
X0056187Y0094601D01*
X0104409Y0094601D01*
X0106378Y0094490D01*
X0110217Y0093614D01*
X0113765Y0091905D01*
X0116844Y0089450D01*
X0119299Y0086372D01*
X0121008Y0082824D01*
X0121884Y0078985D01*
X0121961Y0077608D02*
X0025606Y0077608D01*
X0025734Y0079207D02*
X0071752Y0079207D01*
X0070153Y0080805D02*
X0026099Y0080805D01*
X0026463Y0082404D02*
X0068555Y0082404D01*
X0066956Y0084002D02*
X0027127Y0084002D01*
X0027897Y0085601D02*
X0051186Y0085601D01*
X0049588Y0087200D02*
X0028928Y0087200D01*
X0030203Y0088798D02*
X0048830Y0088798D01*
X0048830Y0090397D02*
X0031910Y0090397D01*
X0033988Y0091995D02*
X0048830Y0091995D01*
X0050365Y0093594D02*
X0037307Y0093594D01*
X0053780Y0090008D02*
X0053780Y0085058D01*
X0055830Y0085058D01*
X0058730Y0087958D01*
X0058730Y0090008D01*
X0053780Y0090008D01*
X0053780Y0090008D01*
X0053779Y0088798D02*
X0053780Y0088798D01*
X0053779Y0087200D02*
X0053780Y0087200D01*
X0053779Y0085601D02*
X0053780Y0085601D01*
X0056373Y0085601D02*
X0061752Y0085601D01*
X0060153Y0087200D02*
X0057972Y0087200D01*
X0058730Y0088798D02*
X0059230Y0088798D01*
X0059230Y0090397D02*
X0058730Y0090397D01*
X0058730Y0091995D02*
X0059332Y0091995D01*
X0060931Y0093594D02*
X0057194Y0093594D01*
X0066628Y0093594D02*
X0070934Y0093594D01*
X0071899Y0094558D02*
X0069233Y0091893D01*
X0069233Y0088123D01*
X0071899Y0085458D01*
X0075668Y0085458D01*
X0078333Y0088123D01*
X0078333Y0091893D01*
X0075668Y0094558D01*
X0071899Y0094558D01*
X0069336Y0091995D02*
X0068227Y0091995D01*
X0068330Y0090397D02*
X0069233Y0090397D01*
X0069233Y0088798D02*
X0068330Y0088798D01*
X0069416Y0087200D02*
X0070157Y0087200D01*
X0071015Y0085601D02*
X0071756Y0085601D01*
X0072613Y0084002D02*
X0120440Y0084002D01*
X0119670Y0085601D02*
X0095807Y0085601D01*
X0095664Y0085458D02*
X0098330Y0088123D01*
X0098330Y0091893D01*
X0095664Y0094558D01*
X0091895Y0094558D01*
X0089230Y0091893D01*
X0089230Y0088123D01*
X0091895Y0085458D01*
X0095664Y0085458D01*
X0097406Y0087200D02*
X0118639Y0087200D01*
X0117364Y0088798D02*
X0098330Y0088798D01*
X0098330Y0090397D02*
X0115657Y0090397D01*
X0113579Y0091995D02*
X0098227Y0091995D01*
X0096628Y0093594D02*
X0110260Y0093594D01*
X0090931Y0093594D02*
X0086628Y0093594D01*
X0085664Y0094558D02*
X0081895Y0094558D01*
X0079230Y0091893D01*
X0079230Y0088123D01*
X0081895Y0085458D01*
X0085664Y0085458D01*
X0088330Y0088123D01*
X0088330Y0091893D01*
X0085664Y0094558D01*
X0088227Y0091995D02*
X0089332Y0091995D01*
X0089230Y0090397D02*
X0088330Y0090397D01*
X0088330Y0088798D02*
X0089230Y0088798D01*
X0090153Y0087200D02*
X0087406Y0087200D01*
X0085807Y0085601D02*
X0091752Y0085601D01*
X0081752Y0085601D02*
X0075811Y0085601D01*
X0077410Y0087200D02*
X0080153Y0087200D01*
X0079230Y0088798D02*
X0078333Y0088798D01*
X0078333Y0090397D02*
X0079230Y0090397D01*
X0079332Y0091995D02*
X0078231Y0091995D01*
X0076632Y0093594D02*
X0080931Y0093594D01*
X0107138Y0074874D02*
X0110477Y0076257D01*
X0114090Y0076257D01*
X0117429Y0074874D01*
X0119984Y0072319D01*
X0121367Y0068980D01*
X0121367Y0065366D01*
X0119984Y0062028D01*
X0117429Y0059473D01*
X0114090Y0058090D01*
X0110477Y0058090D01*
X0107138Y0059473D01*
X0104583Y0062028D01*
X0103200Y0065366D01*
X0103200Y0068980D01*
X0104583Y0072319D01*
X0107138Y0074874D01*
X0106676Y0074411D02*
X0040891Y0074411D01*
X0040429Y0074874D02*
X0037090Y0076257D01*
X0033477Y0076257D01*
X0030138Y0074874D01*
X0027583Y0072319D01*
X0026200Y0068980D01*
X0026200Y0065366D01*
X0027583Y0062028D01*
X0030138Y0059473D01*
X0033477Y0058090D01*
X0037090Y0058090D01*
X0040429Y0059473D01*
X0042984Y0062028D01*
X0044367Y0065366D01*
X0044367Y0068980D01*
X0042984Y0072319D01*
X0040429Y0074874D01*
X0042490Y0072813D02*
X0105077Y0072813D01*
X0104126Y0071214D02*
X0043441Y0071214D01*
X0044104Y0069616D02*
X0103463Y0069616D01*
X0103200Y0068017D02*
X0044367Y0068017D01*
X0044367Y0066419D02*
X0103200Y0066419D01*
X0103426Y0064820D02*
X0044141Y0064820D01*
X0043479Y0063222D02*
X0104088Y0063222D01*
X0104987Y0061623D02*
X0042580Y0061623D01*
X0040981Y0060025D02*
X0106586Y0060025D01*
X0109664Y0058426D02*
X0037903Y0058426D01*
X0032664Y0058426D02*
X0025572Y0058426D01*
X0025601Y0056828D02*
X0121966Y0056828D01*
X0121854Y0055229D02*
X0025713Y0055229D01*
X0026078Y0053631D02*
X0121489Y0053631D01*
X0121124Y0052032D02*
X0026443Y0052032D01*
X0027084Y0050434D02*
X0120483Y0050434D01*
X0119713Y0048835D02*
X0027853Y0048835D01*
X0028856Y0047237D02*
X0118710Y0047237D01*
X0117436Y0045638D02*
X0030131Y0045638D01*
X0031797Y0044040D02*
X0115770Y0044040D01*
X0113765Y0042441D02*
X0033801Y0042441D01*
X0037121Y0040843D02*
X0110446Y0040843D01*
X0114903Y0058426D02*
X0121994Y0058426D01*
X0121994Y0060025D02*
X0117981Y0060025D01*
X0119580Y0061623D02*
X0121994Y0061623D01*
X0121994Y0063222D02*
X0120479Y0063222D01*
X0121141Y0064820D02*
X0121994Y0064820D01*
X0121994Y0066419D02*
X0121367Y0066419D01*
X0121367Y0068017D02*
X0121994Y0068017D01*
X0121994Y0069616D02*
X0121104Y0069616D01*
X0120441Y0071214D02*
X0121994Y0071214D01*
X0121994Y0072813D02*
X0119490Y0072813D01*
X0117891Y0074411D02*
X0121994Y0074411D01*
X0121994Y0076010D02*
X0114686Y0076010D01*
X0109881Y0076010D02*
X0037686Y0076010D01*
X0032881Y0076010D02*
X0025572Y0076010D01*
X0025572Y0074411D02*
X0029676Y0074411D01*
X0028077Y0072813D02*
X0025572Y0072813D01*
X0025572Y0071214D02*
X0027126Y0071214D01*
X0026463Y0069616D02*
X0025572Y0069616D01*
X0025572Y0068017D02*
X0026200Y0068017D01*
X0026200Y0066419D02*
X0025572Y0066419D01*
X0025572Y0064820D02*
X0026426Y0064820D01*
X0027088Y0063222D02*
X0025572Y0063222D01*
X0025572Y0061623D02*
X0027987Y0061623D01*
X0029586Y0060025D02*
X0025572Y0060025D01*
M02*
