G75*
%MOIN*%
%OFA0B0*%
%FSLAX25Y25*%
%IPPOS*%
%LPD*%
%AMOC8*
5,1,8,0,0,1.08239X$1,22.5*
%
%ADD10R,0.08200X0.07000*%
%ADD11R,0.06299X0.07087*%
%ADD12R,0.05906X0.05906*%
%ADD13R,0.06299X0.07098*%
%ADD14R,0.07098X0.06299*%
%ADD15R,0.07874X0.01811*%
%ADD16R,0.07874X0.06299*%
%ADD17R,0.06299X0.07874*%
%ADD18R,0.12795X0.13504*%
D10*
X0095200Y0301637D03*
X0112400Y0301637D03*
D11*
X0107812Y0319137D03*
X0096788Y0319137D03*
X0071312Y0304637D03*
X0060288Y0304637D03*
X0071288Y0453637D03*
X0082312Y0453637D03*
X0053312Y0454137D03*
X0042288Y0454137D03*
X0171780Y0451106D03*
X0182804Y0451106D03*
X0195788Y0451098D03*
X0206812Y0451098D03*
X0123312Y0070637D03*
X0112288Y0070637D03*
X0114288Y0043637D03*
X0125312Y0043637D03*
X0052312Y0042137D03*
X0041288Y0042137D03*
D12*
X0039910Y0012137D03*
X0053690Y0012137D03*
X0114410Y0012637D03*
X0128190Y0012637D03*
X0239800Y0155247D03*
X0239800Y0169027D03*
X0239800Y0212747D03*
X0239800Y0226527D03*
X0239300Y0267747D03*
X0239300Y0281527D03*
X0240300Y0331247D03*
X0240300Y0345027D03*
X0240800Y0110027D03*
X0240800Y0096247D03*
X0240300Y0054027D03*
X0240300Y0040247D03*
X0111190Y0359137D03*
X0097410Y0359137D03*
D13*
X0097702Y0349637D03*
X0108898Y0349637D03*
X0114702Y0028137D03*
X0125898Y0028137D03*
X0052398Y0027137D03*
X0041202Y0027137D03*
D14*
X0189300Y0100539D03*
X0189300Y0111735D03*
X0202800Y0157539D03*
X0202800Y0168735D03*
X0203800Y0216539D03*
X0203800Y0227735D03*
X0203300Y0270039D03*
X0203300Y0281235D03*
X0200300Y0332539D03*
X0200300Y0343735D03*
X0199300Y0052235D03*
X0199300Y0041039D03*
D15*
X0204371Y0420846D03*
X0204371Y0423405D03*
X0204371Y0425964D03*
X0204371Y0428523D03*
X0204371Y0431082D03*
X0204371Y0433641D03*
X0204371Y0436200D03*
X0204371Y0438759D03*
X0172245Y0438759D03*
X0172245Y0436200D03*
X0172245Y0433641D03*
X0172245Y0431082D03*
X0172245Y0428523D03*
X0172245Y0425964D03*
X0172245Y0423405D03*
X0172245Y0420846D03*
X0078387Y0420846D03*
X0078387Y0423405D03*
X0078387Y0425964D03*
X0078387Y0428523D03*
X0078387Y0431082D03*
X0078387Y0433641D03*
X0078387Y0436200D03*
X0078387Y0438759D03*
X0046261Y0438759D03*
X0046261Y0436200D03*
X0046261Y0433641D03*
X0046261Y0431082D03*
X0046261Y0428523D03*
X0046261Y0425964D03*
X0046261Y0423405D03*
X0046261Y0420846D03*
D16*
X0180300Y0336649D03*
X0180300Y0325625D03*
X0182800Y0280649D03*
X0182800Y0269625D03*
X0182800Y0228149D03*
X0182800Y0217125D03*
X0182800Y0183649D03*
X0182800Y0172625D03*
X0187300Y0142149D03*
X0187300Y0131125D03*
X0187800Y0077649D03*
X0187800Y0066625D03*
D17*
X0158312Y0050137D03*
X0147288Y0050137D03*
X0081812Y0049637D03*
X0070788Y0049637D03*
D18*
X0058190Y0269861D03*
X0095001Y0269861D03*
M02*
