G75*
%MOIN*%
%OFA0B0*%
%FSLAX25Y25*%
%IPPOS*%
%LPD*%
%AMOC8*
5,1,8,0,0,1.08239X$1,22.5*
%
%ADD10C,0.13300*%
%ADD11C,0.12611*%
%ADD12R,0.09068X0.09068*%
%ADD13OC8,0.09300*%
%ADD14C,0.06800*%
%ADD15OC8,0.06800*%
%ADD16C,0.06737*%
%ADD17R,0.06737X0.06737*%
%ADD18C,0.09400*%
%ADD19C,0.03778*%
D10*
X0021685Y0022322D03*
X0021685Y0356968D03*
X0013185Y0390968D03*
X0011685Y0473468D03*
X0113685Y0390968D03*
X0140185Y0390468D03*
X0179165Y0356968D03*
X0239185Y0390968D03*
X0241185Y0473468D03*
X0138685Y0473968D03*
X0114185Y0472968D03*
X0230346Y0022322D03*
D11*
X0242504Y0067653D03*
X0242504Y0125653D03*
X0241504Y0183653D03*
X0242004Y0242153D03*
X0242004Y0295653D03*
X0242004Y0360153D03*
X0204996Y0360153D03*
X0204756Y0317598D03*
X0204996Y0295653D03*
X0204996Y0242153D03*
X0204496Y0183653D03*
X0205496Y0125653D03*
X0204756Y0089251D03*
X0205496Y0067653D03*
X0083504Y0358153D03*
X0046496Y0358153D03*
X0011843Y0317598D03*
X0011843Y0089251D03*
D12*
X0065000Y0338310D03*
X0065000Y0359964D03*
X0223500Y0361964D03*
X0223500Y0340310D03*
X0223500Y0297464D03*
X0223500Y0275810D03*
X0223500Y0243964D03*
X0223500Y0222310D03*
X0223000Y0185464D03*
X0223000Y0163810D03*
X0224000Y0127464D03*
X0224000Y0105810D03*
X0224000Y0069464D03*
X0224000Y0047810D03*
D13*
X0101000Y0050137D03*
X0061000Y0069137D03*
X0046000Y0068637D03*
X0031500Y0068637D03*
X0016000Y0068137D03*
X0016500Y0049137D03*
X0128000Y0365137D03*
D14*
X0134500Y0349637D02*
X0134500Y0343637D01*
X0134000Y0319137D02*
X0134000Y0313137D01*
X0136000Y0287637D02*
X0136000Y0281637D01*
X0137000Y0254137D02*
X0137000Y0248137D01*
X0135000Y0219137D02*
X0135000Y0213137D01*
X0134500Y0186637D02*
X0134500Y0180637D01*
X0154500Y0180637D02*
X0154500Y0186637D01*
X0155000Y0213137D02*
X0155000Y0219137D01*
X0157000Y0248137D02*
X0157000Y0254137D01*
X0156000Y0281637D02*
X0156000Y0287637D01*
X0154000Y0313137D02*
X0154000Y0319137D01*
X0154500Y0343637D02*
X0154500Y0349637D01*
X0152000Y0406637D02*
X0146000Y0406637D01*
X0146000Y0416637D02*
X0152000Y0416637D01*
X0152000Y0426637D02*
X0146000Y0426637D01*
X0146000Y0436637D02*
X0152000Y0436637D01*
X0152000Y0446637D02*
X0146000Y0446637D01*
X0146000Y0456637D02*
X0152000Y0456637D01*
X0105500Y0457137D02*
X0099500Y0457137D01*
X0099500Y0447137D02*
X0105500Y0447137D01*
X0105500Y0437137D02*
X0099500Y0437137D01*
X0099500Y0427137D02*
X0105500Y0427137D01*
X0105500Y0417137D02*
X0099500Y0417137D01*
X0099500Y0407137D02*
X0105500Y0407137D01*
X0023500Y0406637D02*
X0017500Y0406637D01*
X0017500Y0416637D02*
X0023500Y0416637D01*
X0023500Y0426637D02*
X0017500Y0426637D01*
X0017500Y0436637D02*
X0023500Y0436637D01*
X0023500Y0446637D02*
X0017500Y0446637D01*
X0017500Y0456637D02*
X0023500Y0456637D01*
X0224000Y0456137D02*
X0230000Y0456137D01*
X0230000Y0446137D02*
X0224000Y0446137D01*
X0224000Y0436137D02*
X0230000Y0436137D01*
X0230000Y0426137D02*
X0224000Y0426137D01*
X0224000Y0416137D02*
X0230000Y0416137D01*
X0230000Y0406137D02*
X0224000Y0406137D01*
X0088000Y0024637D02*
X0088000Y0018637D01*
X0078000Y0018637D02*
X0078000Y0024637D01*
D15*
X0149000Y0026637D03*
X0149000Y0016637D03*
X0159000Y0016637D03*
X0159000Y0026637D03*
X0169000Y0026637D03*
X0169000Y0016637D03*
X0179000Y0016637D03*
X0179000Y0026637D03*
X0189000Y0026637D03*
X0189000Y0016637D03*
D16*
X0150000Y0097137D03*
X0130000Y0097137D03*
X0120000Y0097137D03*
X0110000Y0097137D03*
X0069500Y0115637D03*
X0049500Y0115637D03*
X0039500Y0115637D03*
X0029500Y0115637D03*
D17*
X0059500Y0115637D03*
X0140000Y0097137D03*
D18*
X0166000Y0101137D03*
X0114000Y0153137D03*
X0085500Y0119637D03*
X0033500Y0171637D03*
D19*
X0061000Y0096137D03*
X0112000Y0036137D03*
X0138000Y0012137D03*
X0120000Y0111637D03*
X0068000Y0429137D03*
X0083000Y0443637D03*
X0193500Y0427637D03*
X0206000Y0439637D03*
M02*
