%
M48
M72
T01C0.01378
T02C0.03937
T03C0.04000
T04C0.05200
T05C0.05512
T06C0.08600
T07C0.11811
T08C0.12500
%
T01
X61000Y96137
X112000Y36137
X138000Y12137
X120000Y111637
X68000Y429137
X83000Y443637
X193500Y427637
X206000Y439637
T02
X69500Y115637
X59500Y115637
X49500Y115637
X39500Y115637
X29500Y115637
X110000Y97137
X120000Y97137
X130000Y97137
X140000Y97137
X150000Y97137
T03
X149000Y26637
X149000Y16637
X159000Y16637
X159000Y26637
X169000Y26637
X169000Y16637
X179000Y16637
X179000Y26637
X189000Y26637
X189000Y16637
X154500Y183637
X155000Y216137
X157000Y251137
X156000Y284637
X154000Y316137
X154500Y346637
X134500Y346637
X134000Y316137
X136000Y284637
X137000Y251137
X135000Y216137
X134500Y183637
X88000Y21637
X78000Y21637
X102500Y407137
X102500Y417137
X102500Y427137
X102500Y437137
X102500Y447137
X102500Y457137
X149000Y456637
X149000Y446637
X149000Y436637
X149000Y426637
X149000Y416637
X149000Y406637
X227000Y406137
X227000Y416137
X227000Y426137
X227000Y436137
X227000Y446137
X227000Y456137
X20500Y456637
X20500Y446637
X20500Y436637
X20500Y426637
X20500Y416637
X20500Y406637
T04
X128000Y365137
X61000Y69137
X46000Y68637
X31500Y68637
X16000Y68137
X16500Y49137
X101000Y50137
T05
X224000Y47810
X224000Y69464
X224000Y105810
X224000Y127464
X223000Y163810
X223000Y185464
X223500Y222310
X223500Y243964
X223500Y275810
X223500Y297464
X223500Y340310
X223500Y361964
X65000Y359964
X65000Y338310
T06
X33500Y171637
X85500Y119637
X114000Y153137
X166000Y101137
T07
X204756Y89251
X205496Y67653
X205496Y125653
X204496Y183653
X204996Y242153
X204996Y295653
X204756Y317598
X204996Y360153
X242004Y360153
X242004Y295653
X242004Y242153
X241504Y183653
X242504Y125653
X242504Y67653
X83504Y358153
X46496Y358153
X11843Y317598
X11843Y89251
T08
X21685Y22322
X21685Y356968
X13185Y390968
X11685Y473468
X113685Y390968
X140185Y390468
X179165Y356968
X239185Y390968
X241185Y473468
X138685Y473968
X114185Y472968
X230346Y22322
M30
