G75*
%MOIN*%
%OFA0B0*%
%FSLAX25Y25*%
%IPPOS*%
%LPD*%
%AMOC8*
5,1,8,0,0,1.08239X$1,22.5*
%
%ADD10C,0.13300*%
%ADD11C,0.12611*%
%ADD12R,0.09068X0.09068*%
%ADD13R,0.09000X0.07800*%
%ADD14R,0.07099X0.07887*%
%ADD15R,0.06706X0.06706*%
%ADD16R,0.07099X0.07898*%
%ADD17OC8,0.09300*%
%ADD18R,0.07898X0.07099*%
%ADD19C,0.06800*%
%ADD20OC8,0.06800*%
%ADD21R,0.08674X0.02611*%
%ADD22C,0.06737*%
%ADD23R,0.06737X0.06737*%
%ADD24C,0.09400*%
%ADD25R,0.08674X0.07099*%
%ADD26R,0.07099X0.08674*%
%ADD27R,0.13595X0.14304*%
%ADD28C,0.04762*%
%ADD29C,0.03778*%
D10*
X0020985Y0022322D03*
X0020985Y0356968D03*
X0013111Y0388464D03*
X0013111Y0471141D03*
X0111536Y0471141D03*
X0139095Y0471141D03*
X0139095Y0388464D03*
X0111536Y0388464D03*
X0178465Y0356968D03*
X0237520Y0388464D03*
X0237520Y0471141D03*
X0229646Y0022322D03*
D11*
X0241804Y0067653D03*
X0241804Y0125653D03*
X0240804Y0183653D03*
X0241304Y0242153D03*
X0241304Y0295653D03*
X0241304Y0360153D03*
X0204296Y0360153D03*
X0204056Y0317598D03*
X0204296Y0295653D03*
X0204296Y0242153D03*
X0203796Y0183653D03*
X0204796Y0125653D03*
X0204056Y0089251D03*
X0204796Y0067653D03*
X0082804Y0358153D03*
X0045796Y0358153D03*
X0011143Y0317598D03*
X0011143Y0089251D03*
D12*
X0064300Y0338310D03*
X0064300Y0359964D03*
X0222800Y0361964D03*
X0222800Y0340310D03*
X0222800Y0297464D03*
X0222800Y0275810D03*
X0222800Y0243964D03*
X0222800Y0222310D03*
X0222300Y0185464D03*
X0222300Y0163810D03*
X0223300Y0127464D03*
X0223300Y0105810D03*
X0223300Y0069464D03*
X0223300Y0047810D03*
D13*
X0112400Y0301637D03*
X0095200Y0301637D03*
D14*
X0096788Y0319137D03*
X0107812Y0319137D03*
X0071312Y0304637D03*
X0060288Y0304637D03*
X0071288Y0453637D03*
X0082312Y0453637D03*
X0053312Y0454137D03*
X0042288Y0454137D03*
X0171780Y0451106D03*
X0182804Y0451106D03*
X0195788Y0451098D03*
X0206812Y0451098D03*
X0123312Y0070637D03*
X0112288Y0070637D03*
X0114288Y0043637D03*
X0125312Y0043637D03*
X0052312Y0042137D03*
X0041288Y0042137D03*
D15*
X0039910Y0012137D03*
X0053690Y0012137D03*
X0114410Y0012637D03*
X0128190Y0012637D03*
X0239800Y0155247D03*
X0239800Y0169027D03*
X0239800Y0212747D03*
X0239800Y0226527D03*
X0239300Y0267747D03*
X0239300Y0281527D03*
X0240300Y0331247D03*
X0240300Y0345027D03*
X0240800Y0110027D03*
X0240800Y0096247D03*
X0240300Y0054027D03*
X0240300Y0040247D03*
X0111190Y0359137D03*
X0097410Y0359137D03*
D16*
X0097702Y0349637D03*
X0108898Y0349637D03*
X0114702Y0028137D03*
X0125898Y0028137D03*
X0052398Y0027137D03*
X0041202Y0027137D03*
D17*
X0045300Y0068637D03*
X0030800Y0068637D03*
X0015300Y0068137D03*
X0015800Y0049137D03*
X0060300Y0069137D03*
X0100300Y0050137D03*
X0127300Y0365137D03*
D18*
X0200300Y0343735D03*
X0200300Y0332539D03*
X0203300Y0281235D03*
X0203300Y0270039D03*
X0203800Y0227735D03*
X0203800Y0216539D03*
X0202800Y0168735D03*
X0202800Y0157539D03*
X0189300Y0111735D03*
X0189300Y0100539D03*
X0199300Y0052235D03*
X0199300Y0041039D03*
D19*
X0153800Y0180637D02*
X0153800Y0186637D01*
X0154300Y0213137D02*
X0154300Y0219137D01*
X0156300Y0248137D02*
X0156300Y0254137D01*
X0155300Y0281637D02*
X0155300Y0287637D01*
X0153300Y0313137D02*
X0153300Y0319137D01*
X0153800Y0343637D02*
X0153800Y0349637D01*
X0133800Y0349637D02*
X0133800Y0343637D01*
X0133300Y0319137D02*
X0133300Y0313137D01*
X0135300Y0287637D02*
X0135300Y0281637D01*
X0136300Y0254137D02*
X0136300Y0248137D01*
X0134300Y0219137D02*
X0134300Y0213137D01*
X0133800Y0186637D02*
X0133800Y0180637D01*
X0087300Y0024637D02*
X0087300Y0018637D01*
X0077300Y0018637D02*
X0077300Y0024637D01*
X0100662Y0404802D02*
X0106662Y0404802D01*
X0106662Y0414802D02*
X0100662Y0414802D01*
X0100662Y0424802D02*
X0106662Y0424802D01*
X0106662Y0434802D02*
X0100662Y0434802D01*
X0100662Y0444802D02*
X0106662Y0444802D01*
X0106662Y0454802D02*
X0100662Y0454802D01*
X0147906Y0454802D02*
X0153906Y0454802D01*
X0153906Y0444802D02*
X0147906Y0444802D01*
X0147906Y0434802D02*
X0153906Y0434802D01*
X0153906Y0424802D02*
X0147906Y0424802D01*
X0147906Y0414802D02*
X0153906Y0414802D01*
X0153906Y0404802D02*
X0147906Y0404802D01*
X0222709Y0404802D02*
X0228709Y0404802D01*
X0228709Y0414802D02*
X0222709Y0414802D01*
X0222709Y0424802D02*
X0228709Y0424802D01*
X0228709Y0434802D02*
X0222709Y0434802D01*
X0222709Y0444802D02*
X0228709Y0444802D01*
X0228709Y0454802D02*
X0222709Y0454802D01*
X0023985Y0454802D02*
X0017985Y0454802D01*
X0017985Y0444802D02*
X0023985Y0444802D01*
X0023985Y0434802D02*
X0017985Y0434802D01*
X0017985Y0424802D02*
X0023985Y0424802D01*
X0023985Y0414802D02*
X0017985Y0414802D01*
X0017985Y0404802D02*
X0023985Y0404802D01*
D20*
X0148300Y0026637D03*
X0148300Y0016637D03*
X0158300Y0016637D03*
X0158300Y0026637D03*
X0168300Y0026637D03*
X0168300Y0016637D03*
X0178300Y0016637D03*
X0178300Y0026637D03*
X0188300Y0026637D03*
X0188300Y0016637D03*
D21*
X0172245Y0420846D03*
X0172245Y0423405D03*
X0172245Y0425964D03*
X0172245Y0428523D03*
X0172245Y0431082D03*
X0172245Y0433641D03*
X0172245Y0436200D03*
X0172245Y0438759D03*
X0204371Y0438759D03*
X0204371Y0436200D03*
X0204371Y0433641D03*
X0204371Y0431082D03*
X0204371Y0428523D03*
X0204371Y0425964D03*
X0204371Y0423405D03*
X0204371Y0420846D03*
X0078387Y0420846D03*
X0078387Y0423405D03*
X0078387Y0425964D03*
X0078387Y0428523D03*
X0078387Y0431082D03*
X0078387Y0433641D03*
X0078387Y0436200D03*
X0078387Y0438759D03*
X0046261Y0438759D03*
X0046261Y0436200D03*
X0046261Y0433641D03*
X0046261Y0431082D03*
X0046261Y0428523D03*
X0046261Y0425964D03*
X0046261Y0423405D03*
X0046261Y0420846D03*
D22*
X0048800Y0115637D03*
X0038800Y0115637D03*
X0028800Y0115637D03*
X0068800Y0115637D03*
X0109300Y0097137D03*
X0119300Y0097137D03*
X0129300Y0097137D03*
X0149300Y0097137D03*
D23*
X0139300Y0097137D03*
X0058800Y0115637D03*
D24*
X0084800Y0119637D03*
X0113300Y0153137D03*
X0165300Y0101137D03*
X0032800Y0171637D03*
D25*
X0180300Y0325625D03*
X0180300Y0336649D03*
X0182800Y0280649D03*
X0182800Y0269625D03*
X0182800Y0228149D03*
X0182800Y0217125D03*
X0182800Y0183649D03*
X0182800Y0172625D03*
X0187300Y0142149D03*
X0187300Y0131125D03*
X0187800Y0077649D03*
X0187800Y0066625D03*
D26*
X0158312Y0050137D03*
X0147288Y0050137D03*
X0081812Y0049637D03*
X0070788Y0049637D03*
D27*
X0058190Y0269861D03*
X0095001Y0269861D03*
D28*
X0119300Y0111637D03*
X0111300Y0036137D03*
X0137300Y0012137D03*
X0060300Y0096137D03*
D29*
X0071800Y0434637D03*
X0082300Y0443637D03*
X0197363Y0433310D03*
X0205792Y0443574D03*
M02*
