G75*
%MOIN*%
%OFA0B0*%
%FSLAX25Y25*%
%IPPOS*%
%LPD*%
%AMOC8*
5,1,8,0,0,1.08239X$1,22.5*
%
%ADD10C,0.00000*%
%ADD11R,0.08268X0.08268*%
%ADD12R,0.08200X0.07000*%
%ADD13R,0.06299X0.07087*%
%ADD14R,0.05906X0.05906*%
%ADD15R,0.06299X0.07098*%
%ADD16OC8,0.08500*%
%ADD17R,0.07098X0.06299*%
%ADD18C,0.06000*%
%ADD19OC8,0.06000*%
%ADD20R,0.07874X0.01811*%
%ADD21C,0.05937*%
%ADD22R,0.05937X0.05937*%
%ADD23R,0.07874X0.06299*%
%ADD24R,0.06299X0.07874*%
%ADD25R,0.12795X0.13504*%
%ADD26C,0.04000*%
%ADD27C,0.03150*%
%ADD28C,0.05000*%
%ADD29C,0.03962*%
%ADD30C,0.01600*%
%ADD31C,0.02978*%
D10*
X0001300Y0002637D02*
X0001300Y0482637D01*
X0251300Y0482952D01*
X0251300Y0002637D01*
X0001300Y0002637D01*
X0014735Y0022322D02*
X0014737Y0022480D01*
X0014743Y0022637D01*
X0014753Y0022795D01*
X0014767Y0022952D01*
X0014785Y0023108D01*
X0014806Y0023265D01*
X0014832Y0023420D01*
X0014862Y0023575D01*
X0014895Y0023729D01*
X0014933Y0023882D01*
X0014974Y0024035D01*
X0015019Y0024186D01*
X0015068Y0024336D01*
X0015121Y0024484D01*
X0015177Y0024632D01*
X0015238Y0024777D01*
X0015301Y0024922D01*
X0015369Y0025064D01*
X0015440Y0025205D01*
X0015514Y0025344D01*
X0015592Y0025481D01*
X0015674Y0025616D01*
X0015758Y0025749D01*
X0015847Y0025880D01*
X0015938Y0026008D01*
X0016033Y0026135D01*
X0016130Y0026258D01*
X0016231Y0026380D01*
X0016335Y0026498D01*
X0016442Y0026614D01*
X0016552Y0026727D01*
X0016664Y0026838D01*
X0016780Y0026945D01*
X0016898Y0027050D01*
X0017018Y0027152D01*
X0017141Y0027250D01*
X0017267Y0027346D01*
X0017395Y0027438D01*
X0017525Y0027527D01*
X0017657Y0027613D01*
X0017792Y0027695D01*
X0017929Y0027774D01*
X0018067Y0027849D01*
X0018207Y0027921D01*
X0018350Y0027989D01*
X0018493Y0028054D01*
X0018639Y0028115D01*
X0018786Y0028172D01*
X0018934Y0028226D01*
X0019084Y0028276D01*
X0019234Y0028322D01*
X0019386Y0028364D01*
X0019539Y0028403D01*
X0019693Y0028437D01*
X0019848Y0028468D01*
X0020003Y0028494D01*
X0020159Y0028517D01*
X0020316Y0028536D01*
X0020473Y0028551D01*
X0020630Y0028562D01*
X0020788Y0028569D01*
X0020946Y0028572D01*
X0021103Y0028571D01*
X0021261Y0028566D01*
X0021418Y0028557D01*
X0021576Y0028544D01*
X0021732Y0028527D01*
X0021889Y0028506D01*
X0022044Y0028482D01*
X0022199Y0028453D01*
X0022354Y0028420D01*
X0022507Y0028384D01*
X0022660Y0028343D01*
X0022811Y0028299D01*
X0022961Y0028251D01*
X0023110Y0028200D01*
X0023258Y0028144D01*
X0023404Y0028085D01*
X0023549Y0028022D01*
X0023692Y0027955D01*
X0023833Y0027885D01*
X0023972Y0027812D01*
X0024110Y0027735D01*
X0024246Y0027654D01*
X0024379Y0027570D01*
X0024510Y0027483D01*
X0024639Y0027392D01*
X0024766Y0027298D01*
X0024891Y0027201D01*
X0025012Y0027101D01*
X0025132Y0026998D01*
X0025248Y0026892D01*
X0025362Y0026783D01*
X0025474Y0026671D01*
X0025582Y0026557D01*
X0025687Y0026439D01*
X0025790Y0026319D01*
X0025889Y0026197D01*
X0025985Y0026072D01*
X0026078Y0025944D01*
X0026168Y0025815D01*
X0026254Y0025683D01*
X0026338Y0025549D01*
X0026417Y0025413D01*
X0026494Y0025275D01*
X0026566Y0025135D01*
X0026635Y0024993D01*
X0026701Y0024850D01*
X0026763Y0024705D01*
X0026821Y0024558D01*
X0026876Y0024410D01*
X0026927Y0024261D01*
X0026974Y0024110D01*
X0027017Y0023959D01*
X0027056Y0023806D01*
X0027092Y0023652D01*
X0027123Y0023498D01*
X0027151Y0023343D01*
X0027175Y0023187D01*
X0027195Y0023030D01*
X0027211Y0022873D01*
X0027223Y0022716D01*
X0027231Y0022559D01*
X0027235Y0022401D01*
X0027235Y0022243D01*
X0027231Y0022085D01*
X0027223Y0021928D01*
X0027211Y0021771D01*
X0027195Y0021614D01*
X0027175Y0021457D01*
X0027151Y0021301D01*
X0027123Y0021146D01*
X0027092Y0020992D01*
X0027056Y0020838D01*
X0027017Y0020685D01*
X0026974Y0020534D01*
X0026927Y0020383D01*
X0026876Y0020234D01*
X0026821Y0020086D01*
X0026763Y0019939D01*
X0026701Y0019794D01*
X0026635Y0019651D01*
X0026566Y0019509D01*
X0026494Y0019369D01*
X0026417Y0019231D01*
X0026338Y0019095D01*
X0026254Y0018961D01*
X0026168Y0018829D01*
X0026078Y0018700D01*
X0025985Y0018572D01*
X0025889Y0018447D01*
X0025790Y0018325D01*
X0025687Y0018205D01*
X0025582Y0018087D01*
X0025474Y0017973D01*
X0025362Y0017861D01*
X0025248Y0017752D01*
X0025132Y0017646D01*
X0025012Y0017543D01*
X0024891Y0017443D01*
X0024766Y0017346D01*
X0024639Y0017252D01*
X0024510Y0017161D01*
X0024379Y0017074D01*
X0024246Y0016990D01*
X0024110Y0016909D01*
X0023972Y0016832D01*
X0023833Y0016759D01*
X0023692Y0016689D01*
X0023549Y0016622D01*
X0023404Y0016559D01*
X0023258Y0016500D01*
X0023110Y0016444D01*
X0022961Y0016393D01*
X0022811Y0016345D01*
X0022660Y0016301D01*
X0022507Y0016260D01*
X0022354Y0016224D01*
X0022199Y0016191D01*
X0022044Y0016162D01*
X0021889Y0016138D01*
X0021732Y0016117D01*
X0021576Y0016100D01*
X0021418Y0016087D01*
X0021261Y0016078D01*
X0021103Y0016073D01*
X0020946Y0016072D01*
X0020788Y0016075D01*
X0020630Y0016082D01*
X0020473Y0016093D01*
X0020316Y0016108D01*
X0020159Y0016127D01*
X0020003Y0016150D01*
X0019848Y0016176D01*
X0019693Y0016207D01*
X0019539Y0016241D01*
X0019386Y0016280D01*
X0019234Y0016322D01*
X0019084Y0016368D01*
X0018934Y0016418D01*
X0018786Y0016472D01*
X0018639Y0016529D01*
X0018493Y0016590D01*
X0018350Y0016655D01*
X0018207Y0016723D01*
X0018067Y0016795D01*
X0017929Y0016870D01*
X0017792Y0016949D01*
X0017657Y0017031D01*
X0017525Y0017117D01*
X0017395Y0017206D01*
X0017267Y0017298D01*
X0017141Y0017394D01*
X0017018Y0017492D01*
X0016898Y0017594D01*
X0016780Y0017699D01*
X0016664Y0017806D01*
X0016552Y0017917D01*
X0016442Y0018030D01*
X0016335Y0018146D01*
X0016231Y0018264D01*
X0016130Y0018386D01*
X0016033Y0018509D01*
X0015938Y0018636D01*
X0015847Y0018764D01*
X0015758Y0018895D01*
X0015674Y0019028D01*
X0015592Y0019163D01*
X0015514Y0019300D01*
X0015440Y0019439D01*
X0015369Y0019580D01*
X0015301Y0019722D01*
X0015238Y0019867D01*
X0015177Y0020012D01*
X0015121Y0020160D01*
X0015068Y0020308D01*
X0015019Y0020458D01*
X0014974Y0020609D01*
X0014933Y0020762D01*
X0014895Y0020915D01*
X0014862Y0021069D01*
X0014832Y0021224D01*
X0014806Y0021379D01*
X0014785Y0021536D01*
X0014767Y0021692D01*
X0014753Y0021849D01*
X0014743Y0022007D01*
X0014737Y0022164D01*
X0014735Y0022322D01*
X0005237Y0089251D02*
X0005239Y0089404D01*
X0005245Y0089558D01*
X0005255Y0089711D01*
X0005269Y0089863D01*
X0005287Y0090016D01*
X0005309Y0090167D01*
X0005334Y0090318D01*
X0005364Y0090469D01*
X0005398Y0090619D01*
X0005435Y0090767D01*
X0005476Y0090915D01*
X0005521Y0091061D01*
X0005570Y0091207D01*
X0005623Y0091351D01*
X0005679Y0091493D01*
X0005739Y0091634D01*
X0005803Y0091774D01*
X0005870Y0091912D01*
X0005941Y0092048D01*
X0006016Y0092182D01*
X0006093Y0092314D01*
X0006175Y0092444D01*
X0006259Y0092572D01*
X0006347Y0092698D01*
X0006438Y0092821D01*
X0006532Y0092942D01*
X0006630Y0093060D01*
X0006730Y0093176D01*
X0006834Y0093289D01*
X0006940Y0093400D01*
X0007049Y0093508D01*
X0007161Y0093613D01*
X0007275Y0093714D01*
X0007393Y0093813D01*
X0007512Y0093909D01*
X0007634Y0094002D01*
X0007759Y0094091D01*
X0007886Y0094178D01*
X0008015Y0094260D01*
X0008146Y0094340D01*
X0008279Y0094416D01*
X0008414Y0094489D01*
X0008551Y0094558D01*
X0008690Y0094623D01*
X0008830Y0094685D01*
X0008972Y0094743D01*
X0009115Y0094798D01*
X0009260Y0094849D01*
X0009406Y0094896D01*
X0009553Y0094939D01*
X0009701Y0094978D01*
X0009850Y0095014D01*
X0010000Y0095045D01*
X0010151Y0095073D01*
X0010302Y0095097D01*
X0010455Y0095117D01*
X0010607Y0095133D01*
X0010760Y0095145D01*
X0010913Y0095153D01*
X0011066Y0095157D01*
X0011220Y0095157D01*
X0011373Y0095153D01*
X0011526Y0095145D01*
X0011679Y0095133D01*
X0011831Y0095117D01*
X0011984Y0095097D01*
X0012135Y0095073D01*
X0012286Y0095045D01*
X0012436Y0095014D01*
X0012585Y0094978D01*
X0012733Y0094939D01*
X0012880Y0094896D01*
X0013026Y0094849D01*
X0013171Y0094798D01*
X0013314Y0094743D01*
X0013456Y0094685D01*
X0013596Y0094623D01*
X0013735Y0094558D01*
X0013872Y0094489D01*
X0014007Y0094416D01*
X0014140Y0094340D01*
X0014271Y0094260D01*
X0014400Y0094178D01*
X0014527Y0094091D01*
X0014652Y0094002D01*
X0014774Y0093909D01*
X0014893Y0093813D01*
X0015011Y0093714D01*
X0015125Y0093613D01*
X0015237Y0093508D01*
X0015346Y0093400D01*
X0015452Y0093289D01*
X0015556Y0093176D01*
X0015656Y0093060D01*
X0015754Y0092942D01*
X0015848Y0092821D01*
X0015939Y0092698D01*
X0016027Y0092572D01*
X0016111Y0092444D01*
X0016193Y0092314D01*
X0016270Y0092182D01*
X0016345Y0092048D01*
X0016416Y0091912D01*
X0016483Y0091774D01*
X0016547Y0091634D01*
X0016607Y0091493D01*
X0016663Y0091351D01*
X0016716Y0091207D01*
X0016765Y0091061D01*
X0016810Y0090915D01*
X0016851Y0090767D01*
X0016888Y0090619D01*
X0016922Y0090469D01*
X0016952Y0090318D01*
X0016977Y0090167D01*
X0016999Y0090016D01*
X0017017Y0089863D01*
X0017031Y0089711D01*
X0017041Y0089558D01*
X0017047Y0089404D01*
X0017049Y0089251D01*
X0017047Y0089098D01*
X0017041Y0088944D01*
X0017031Y0088791D01*
X0017017Y0088639D01*
X0016999Y0088486D01*
X0016977Y0088335D01*
X0016952Y0088184D01*
X0016922Y0088033D01*
X0016888Y0087883D01*
X0016851Y0087735D01*
X0016810Y0087587D01*
X0016765Y0087441D01*
X0016716Y0087295D01*
X0016663Y0087151D01*
X0016607Y0087009D01*
X0016547Y0086868D01*
X0016483Y0086728D01*
X0016416Y0086590D01*
X0016345Y0086454D01*
X0016270Y0086320D01*
X0016193Y0086188D01*
X0016111Y0086058D01*
X0016027Y0085930D01*
X0015939Y0085804D01*
X0015848Y0085681D01*
X0015754Y0085560D01*
X0015656Y0085442D01*
X0015556Y0085326D01*
X0015452Y0085213D01*
X0015346Y0085102D01*
X0015237Y0084994D01*
X0015125Y0084889D01*
X0015011Y0084788D01*
X0014893Y0084689D01*
X0014774Y0084593D01*
X0014652Y0084500D01*
X0014527Y0084411D01*
X0014400Y0084324D01*
X0014271Y0084242D01*
X0014140Y0084162D01*
X0014007Y0084086D01*
X0013872Y0084013D01*
X0013735Y0083944D01*
X0013596Y0083879D01*
X0013456Y0083817D01*
X0013314Y0083759D01*
X0013171Y0083704D01*
X0013026Y0083653D01*
X0012880Y0083606D01*
X0012733Y0083563D01*
X0012585Y0083524D01*
X0012436Y0083488D01*
X0012286Y0083457D01*
X0012135Y0083429D01*
X0011984Y0083405D01*
X0011831Y0083385D01*
X0011679Y0083369D01*
X0011526Y0083357D01*
X0011373Y0083349D01*
X0011220Y0083345D01*
X0011066Y0083345D01*
X0010913Y0083349D01*
X0010760Y0083357D01*
X0010607Y0083369D01*
X0010455Y0083385D01*
X0010302Y0083405D01*
X0010151Y0083429D01*
X0010000Y0083457D01*
X0009850Y0083488D01*
X0009701Y0083524D01*
X0009553Y0083563D01*
X0009406Y0083606D01*
X0009260Y0083653D01*
X0009115Y0083704D01*
X0008972Y0083759D01*
X0008830Y0083817D01*
X0008690Y0083879D01*
X0008551Y0083944D01*
X0008414Y0084013D01*
X0008279Y0084086D01*
X0008146Y0084162D01*
X0008015Y0084242D01*
X0007886Y0084324D01*
X0007759Y0084411D01*
X0007634Y0084500D01*
X0007512Y0084593D01*
X0007393Y0084689D01*
X0007275Y0084788D01*
X0007161Y0084889D01*
X0007049Y0084994D01*
X0006940Y0085102D01*
X0006834Y0085213D01*
X0006730Y0085326D01*
X0006630Y0085442D01*
X0006532Y0085560D01*
X0006438Y0085681D01*
X0006347Y0085804D01*
X0006259Y0085930D01*
X0006175Y0086058D01*
X0006093Y0086188D01*
X0006016Y0086320D01*
X0005941Y0086454D01*
X0005870Y0086590D01*
X0005803Y0086728D01*
X0005739Y0086868D01*
X0005679Y0087009D01*
X0005623Y0087151D01*
X0005570Y0087295D01*
X0005521Y0087441D01*
X0005476Y0087587D01*
X0005435Y0087735D01*
X0005398Y0087883D01*
X0005364Y0088033D01*
X0005334Y0088184D01*
X0005309Y0088335D01*
X0005287Y0088486D01*
X0005269Y0088639D01*
X0005255Y0088791D01*
X0005245Y0088944D01*
X0005239Y0089098D01*
X0005237Y0089251D01*
X0028500Y0171637D02*
X0028502Y0171768D01*
X0028508Y0171898D01*
X0028518Y0172028D01*
X0028532Y0172158D01*
X0028549Y0172287D01*
X0028571Y0172416D01*
X0028597Y0172544D01*
X0028626Y0172671D01*
X0028659Y0172797D01*
X0028697Y0172922D01*
X0028737Y0173046D01*
X0028782Y0173169D01*
X0028830Y0173290D01*
X0028882Y0173410D01*
X0028938Y0173528D01*
X0028997Y0173644D01*
X0029060Y0173759D01*
X0029126Y0173871D01*
X0029195Y0173982D01*
X0029268Y0174090D01*
X0029344Y0174196D01*
X0029424Y0174300D01*
X0029506Y0174401D01*
X0029591Y0174500D01*
X0029680Y0174596D01*
X0029771Y0174689D01*
X0029865Y0174780D01*
X0029962Y0174867D01*
X0030061Y0174952D01*
X0030163Y0175033D01*
X0030267Y0175112D01*
X0030374Y0175187D01*
X0030483Y0175259D01*
X0030594Y0175328D01*
X0030707Y0175393D01*
X0030822Y0175455D01*
X0030939Y0175513D01*
X0031057Y0175568D01*
X0031177Y0175619D01*
X0031299Y0175666D01*
X0031422Y0175710D01*
X0031546Y0175750D01*
X0031671Y0175786D01*
X0031798Y0175819D01*
X0031925Y0175847D01*
X0032053Y0175872D01*
X0032182Y0175892D01*
X0032312Y0175909D01*
X0032441Y0175922D01*
X0032572Y0175931D01*
X0032702Y0175936D01*
X0032833Y0175937D01*
X0032963Y0175934D01*
X0033093Y0175927D01*
X0033224Y0175916D01*
X0033353Y0175901D01*
X0033482Y0175883D01*
X0033611Y0175860D01*
X0033739Y0175833D01*
X0033866Y0175803D01*
X0033992Y0175769D01*
X0034116Y0175731D01*
X0034240Y0175689D01*
X0034362Y0175643D01*
X0034483Y0175594D01*
X0034602Y0175541D01*
X0034720Y0175484D01*
X0034836Y0175424D01*
X0034950Y0175361D01*
X0035062Y0175294D01*
X0035172Y0175224D01*
X0035280Y0175150D01*
X0035385Y0175073D01*
X0035488Y0174993D01*
X0035589Y0174910D01*
X0035687Y0174824D01*
X0035782Y0174735D01*
X0035875Y0174643D01*
X0035965Y0174548D01*
X0036052Y0174451D01*
X0036136Y0174351D01*
X0036216Y0174248D01*
X0036294Y0174143D01*
X0036369Y0174036D01*
X0036440Y0173927D01*
X0036507Y0173815D01*
X0036572Y0173702D01*
X0036633Y0173586D01*
X0036690Y0173469D01*
X0036744Y0173350D01*
X0036794Y0173230D01*
X0036841Y0173108D01*
X0036883Y0172984D01*
X0036922Y0172860D01*
X0036958Y0172734D01*
X0036989Y0172607D01*
X0037017Y0172480D01*
X0037040Y0172352D01*
X0037060Y0172223D01*
X0037076Y0172093D01*
X0037088Y0171963D01*
X0037096Y0171833D01*
X0037100Y0171702D01*
X0037100Y0171572D01*
X0037096Y0171441D01*
X0037088Y0171311D01*
X0037076Y0171181D01*
X0037060Y0171051D01*
X0037040Y0170922D01*
X0037017Y0170794D01*
X0036989Y0170667D01*
X0036958Y0170540D01*
X0036922Y0170414D01*
X0036883Y0170290D01*
X0036841Y0170166D01*
X0036794Y0170044D01*
X0036744Y0169924D01*
X0036690Y0169805D01*
X0036633Y0169688D01*
X0036572Y0169572D01*
X0036507Y0169459D01*
X0036440Y0169347D01*
X0036369Y0169238D01*
X0036294Y0169131D01*
X0036216Y0169026D01*
X0036136Y0168923D01*
X0036052Y0168823D01*
X0035965Y0168726D01*
X0035875Y0168631D01*
X0035782Y0168539D01*
X0035687Y0168450D01*
X0035589Y0168364D01*
X0035488Y0168281D01*
X0035385Y0168201D01*
X0035280Y0168124D01*
X0035172Y0168050D01*
X0035062Y0167980D01*
X0034950Y0167913D01*
X0034836Y0167850D01*
X0034720Y0167790D01*
X0034602Y0167733D01*
X0034483Y0167680D01*
X0034362Y0167631D01*
X0034240Y0167585D01*
X0034116Y0167543D01*
X0033992Y0167505D01*
X0033866Y0167471D01*
X0033739Y0167441D01*
X0033611Y0167414D01*
X0033482Y0167391D01*
X0033353Y0167373D01*
X0033224Y0167358D01*
X0033093Y0167347D01*
X0032963Y0167340D01*
X0032833Y0167337D01*
X0032702Y0167338D01*
X0032572Y0167343D01*
X0032441Y0167352D01*
X0032312Y0167365D01*
X0032182Y0167382D01*
X0032053Y0167402D01*
X0031925Y0167427D01*
X0031798Y0167455D01*
X0031671Y0167488D01*
X0031546Y0167524D01*
X0031422Y0167564D01*
X0031299Y0167608D01*
X0031177Y0167655D01*
X0031057Y0167706D01*
X0030939Y0167761D01*
X0030822Y0167819D01*
X0030707Y0167881D01*
X0030594Y0167946D01*
X0030483Y0168015D01*
X0030374Y0168087D01*
X0030267Y0168162D01*
X0030163Y0168241D01*
X0030061Y0168322D01*
X0029962Y0168407D01*
X0029865Y0168494D01*
X0029771Y0168585D01*
X0029680Y0168678D01*
X0029591Y0168774D01*
X0029506Y0168873D01*
X0029424Y0168974D01*
X0029344Y0169078D01*
X0029268Y0169184D01*
X0029195Y0169292D01*
X0029126Y0169403D01*
X0029060Y0169515D01*
X0028997Y0169630D01*
X0028938Y0169746D01*
X0028882Y0169864D01*
X0028830Y0169984D01*
X0028782Y0170105D01*
X0028737Y0170228D01*
X0028697Y0170352D01*
X0028659Y0170477D01*
X0028626Y0170603D01*
X0028597Y0170730D01*
X0028571Y0170858D01*
X0028549Y0170987D01*
X0028532Y0171116D01*
X0028518Y0171246D01*
X0028508Y0171376D01*
X0028502Y0171506D01*
X0028500Y0171637D01*
X0080500Y0119637D02*
X0080502Y0119768D01*
X0080508Y0119898D01*
X0080518Y0120028D01*
X0080532Y0120158D01*
X0080549Y0120287D01*
X0080571Y0120416D01*
X0080597Y0120544D01*
X0080626Y0120671D01*
X0080659Y0120797D01*
X0080697Y0120922D01*
X0080737Y0121046D01*
X0080782Y0121169D01*
X0080830Y0121290D01*
X0080882Y0121410D01*
X0080938Y0121528D01*
X0080997Y0121644D01*
X0081060Y0121759D01*
X0081126Y0121871D01*
X0081195Y0121982D01*
X0081268Y0122090D01*
X0081344Y0122196D01*
X0081424Y0122300D01*
X0081506Y0122401D01*
X0081591Y0122500D01*
X0081680Y0122596D01*
X0081771Y0122689D01*
X0081865Y0122780D01*
X0081962Y0122867D01*
X0082061Y0122952D01*
X0082163Y0123033D01*
X0082267Y0123112D01*
X0082374Y0123187D01*
X0082483Y0123259D01*
X0082594Y0123328D01*
X0082707Y0123393D01*
X0082822Y0123455D01*
X0082939Y0123513D01*
X0083057Y0123568D01*
X0083177Y0123619D01*
X0083299Y0123666D01*
X0083422Y0123710D01*
X0083546Y0123750D01*
X0083671Y0123786D01*
X0083798Y0123819D01*
X0083925Y0123847D01*
X0084053Y0123872D01*
X0084182Y0123892D01*
X0084312Y0123909D01*
X0084441Y0123922D01*
X0084572Y0123931D01*
X0084702Y0123936D01*
X0084833Y0123937D01*
X0084963Y0123934D01*
X0085093Y0123927D01*
X0085224Y0123916D01*
X0085353Y0123901D01*
X0085482Y0123883D01*
X0085611Y0123860D01*
X0085739Y0123833D01*
X0085866Y0123803D01*
X0085992Y0123769D01*
X0086116Y0123731D01*
X0086240Y0123689D01*
X0086362Y0123643D01*
X0086483Y0123594D01*
X0086602Y0123541D01*
X0086720Y0123484D01*
X0086836Y0123424D01*
X0086950Y0123361D01*
X0087062Y0123294D01*
X0087172Y0123224D01*
X0087280Y0123150D01*
X0087385Y0123073D01*
X0087488Y0122993D01*
X0087589Y0122910D01*
X0087687Y0122824D01*
X0087782Y0122735D01*
X0087875Y0122643D01*
X0087965Y0122548D01*
X0088052Y0122451D01*
X0088136Y0122351D01*
X0088216Y0122248D01*
X0088294Y0122143D01*
X0088369Y0122036D01*
X0088440Y0121927D01*
X0088507Y0121815D01*
X0088572Y0121702D01*
X0088633Y0121586D01*
X0088690Y0121469D01*
X0088744Y0121350D01*
X0088794Y0121230D01*
X0088841Y0121108D01*
X0088883Y0120984D01*
X0088922Y0120860D01*
X0088958Y0120734D01*
X0088989Y0120607D01*
X0089017Y0120480D01*
X0089040Y0120352D01*
X0089060Y0120223D01*
X0089076Y0120093D01*
X0089088Y0119963D01*
X0089096Y0119833D01*
X0089100Y0119702D01*
X0089100Y0119572D01*
X0089096Y0119441D01*
X0089088Y0119311D01*
X0089076Y0119181D01*
X0089060Y0119051D01*
X0089040Y0118922D01*
X0089017Y0118794D01*
X0088989Y0118667D01*
X0088958Y0118540D01*
X0088922Y0118414D01*
X0088883Y0118290D01*
X0088841Y0118166D01*
X0088794Y0118044D01*
X0088744Y0117924D01*
X0088690Y0117805D01*
X0088633Y0117688D01*
X0088572Y0117572D01*
X0088507Y0117459D01*
X0088440Y0117347D01*
X0088369Y0117238D01*
X0088294Y0117131D01*
X0088216Y0117026D01*
X0088136Y0116923D01*
X0088052Y0116823D01*
X0087965Y0116726D01*
X0087875Y0116631D01*
X0087782Y0116539D01*
X0087687Y0116450D01*
X0087589Y0116364D01*
X0087488Y0116281D01*
X0087385Y0116201D01*
X0087280Y0116124D01*
X0087172Y0116050D01*
X0087062Y0115980D01*
X0086950Y0115913D01*
X0086836Y0115850D01*
X0086720Y0115790D01*
X0086602Y0115733D01*
X0086483Y0115680D01*
X0086362Y0115631D01*
X0086240Y0115585D01*
X0086116Y0115543D01*
X0085992Y0115505D01*
X0085866Y0115471D01*
X0085739Y0115441D01*
X0085611Y0115414D01*
X0085482Y0115391D01*
X0085353Y0115373D01*
X0085224Y0115358D01*
X0085093Y0115347D01*
X0084963Y0115340D01*
X0084833Y0115337D01*
X0084702Y0115338D01*
X0084572Y0115343D01*
X0084441Y0115352D01*
X0084312Y0115365D01*
X0084182Y0115382D01*
X0084053Y0115402D01*
X0083925Y0115427D01*
X0083798Y0115455D01*
X0083671Y0115488D01*
X0083546Y0115524D01*
X0083422Y0115564D01*
X0083299Y0115608D01*
X0083177Y0115655D01*
X0083057Y0115706D01*
X0082939Y0115761D01*
X0082822Y0115819D01*
X0082707Y0115881D01*
X0082594Y0115946D01*
X0082483Y0116015D01*
X0082374Y0116087D01*
X0082267Y0116162D01*
X0082163Y0116241D01*
X0082061Y0116322D01*
X0081962Y0116407D01*
X0081865Y0116494D01*
X0081771Y0116585D01*
X0081680Y0116678D01*
X0081591Y0116774D01*
X0081506Y0116873D01*
X0081424Y0116974D01*
X0081344Y0117078D01*
X0081268Y0117184D01*
X0081195Y0117292D01*
X0081126Y0117403D01*
X0081060Y0117515D01*
X0080997Y0117630D01*
X0080938Y0117746D01*
X0080882Y0117864D01*
X0080830Y0117984D01*
X0080782Y0118105D01*
X0080737Y0118228D01*
X0080697Y0118352D01*
X0080659Y0118477D01*
X0080626Y0118603D01*
X0080597Y0118730D01*
X0080571Y0118858D01*
X0080549Y0118987D01*
X0080532Y0119116D01*
X0080518Y0119246D01*
X0080508Y0119376D01*
X0080502Y0119506D01*
X0080500Y0119637D01*
X0109000Y0153137D02*
X0109002Y0153268D01*
X0109008Y0153398D01*
X0109018Y0153528D01*
X0109032Y0153658D01*
X0109049Y0153787D01*
X0109071Y0153916D01*
X0109097Y0154044D01*
X0109126Y0154171D01*
X0109159Y0154297D01*
X0109197Y0154422D01*
X0109237Y0154546D01*
X0109282Y0154669D01*
X0109330Y0154790D01*
X0109382Y0154910D01*
X0109438Y0155028D01*
X0109497Y0155144D01*
X0109560Y0155259D01*
X0109626Y0155371D01*
X0109695Y0155482D01*
X0109768Y0155590D01*
X0109844Y0155696D01*
X0109924Y0155800D01*
X0110006Y0155901D01*
X0110091Y0156000D01*
X0110180Y0156096D01*
X0110271Y0156189D01*
X0110365Y0156280D01*
X0110462Y0156367D01*
X0110561Y0156452D01*
X0110663Y0156533D01*
X0110767Y0156612D01*
X0110874Y0156687D01*
X0110983Y0156759D01*
X0111094Y0156828D01*
X0111207Y0156893D01*
X0111322Y0156955D01*
X0111439Y0157013D01*
X0111557Y0157068D01*
X0111677Y0157119D01*
X0111799Y0157166D01*
X0111922Y0157210D01*
X0112046Y0157250D01*
X0112171Y0157286D01*
X0112298Y0157319D01*
X0112425Y0157347D01*
X0112553Y0157372D01*
X0112682Y0157392D01*
X0112812Y0157409D01*
X0112941Y0157422D01*
X0113072Y0157431D01*
X0113202Y0157436D01*
X0113333Y0157437D01*
X0113463Y0157434D01*
X0113593Y0157427D01*
X0113724Y0157416D01*
X0113853Y0157401D01*
X0113982Y0157383D01*
X0114111Y0157360D01*
X0114239Y0157333D01*
X0114366Y0157303D01*
X0114492Y0157269D01*
X0114616Y0157231D01*
X0114740Y0157189D01*
X0114862Y0157143D01*
X0114983Y0157094D01*
X0115102Y0157041D01*
X0115220Y0156984D01*
X0115336Y0156924D01*
X0115450Y0156861D01*
X0115562Y0156794D01*
X0115672Y0156724D01*
X0115780Y0156650D01*
X0115885Y0156573D01*
X0115988Y0156493D01*
X0116089Y0156410D01*
X0116187Y0156324D01*
X0116282Y0156235D01*
X0116375Y0156143D01*
X0116465Y0156048D01*
X0116552Y0155951D01*
X0116636Y0155851D01*
X0116716Y0155748D01*
X0116794Y0155643D01*
X0116869Y0155536D01*
X0116940Y0155427D01*
X0117007Y0155315D01*
X0117072Y0155202D01*
X0117133Y0155086D01*
X0117190Y0154969D01*
X0117244Y0154850D01*
X0117294Y0154730D01*
X0117341Y0154608D01*
X0117383Y0154484D01*
X0117422Y0154360D01*
X0117458Y0154234D01*
X0117489Y0154107D01*
X0117517Y0153980D01*
X0117540Y0153852D01*
X0117560Y0153723D01*
X0117576Y0153593D01*
X0117588Y0153463D01*
X0117596Y0153333D01*
X0117600Y0153202D01*
X0117600Y0153072D01*
X0117596Y0152941D01*
X0117588Y0152811D01*
X0117576Y0152681D01*
X0117560Y0152551D01*
X0117540Y0152422D01*
X0117517Y0152294D01*
X0117489Y0152167D01*
X0117458Y0152040D01*
X0117422Y0151914D01*
X0117383Y0151790D01*
X0117341Y0151666D01*
X0117294Y0151544D01*
X0117244Y0151424D01*
X0117190Y0151305D01*
X0117133Y0151188D01*
X0117072Y0151072D01*
X0117007Y0150959D01*
X0116940Y0150847D01*
X0116869Y0150738D01*
X0116794Y0150631D01*
X0116716Y0150526D01*
X0116636Y0150423D01*
X0116552Y0150323D01*
X0116465Y0150226D01*
X0116375Y0150131D01*
X0116282Y0150039D01*
X0116187Y0149950D01*
X0116089Y0149864D01*
X0115988Y0149781D01*
X0115885Y0149701D01*
X0115780Y0149624D01*
X0115672Y0149550D01*
X0115562Y0149480D01*
X0115450Y0149413D01*
X0115336Y0149350D01*
X0115220Y0149290D01*
X0115102Y0149233D01*
X0114983Y0149180D01*
X0114862Y0149131D01*
X0114740Y0149085D01*
X0114616Y0149043D01*
X0114492Y0149005D01*
X0114366Y0148971D01*
X0114239Y0148941D01*
X0114111Y0148914D01*
X0113982Y0148891D01*
X0113853Y0148873D01*
X0113724Y0148858D01*
X0113593Y0148847D01*
X0113463Y0148840D01*
X0113333Y0148837D01*
X0113202Y0148838D01*
X0113072Y0148843D01*
X0112941Y0148852D01*
X0112812Y0148865D01*
X0112682Y0148882D01*
X0112553Y0148902D01*
X0112425Y0148927D01*
X0112298Y0148955D01*
X0112171Y0148988D01*
X0112046Y0149024D01*
X0111922Y0149064D01*
X0111799Y0149108D01*
X0111677Y0149155D01*
X0111557Y0149206D01*
X0111439Y0149261D01*
X0111322Y0149319D01*
X0111207Y0149381D01*
X0111094Y0149446D01*
X0110983Y0149515D01*
X0110874Y0149587D01*
X0110767Y0149662D01*
X0110663Y0149741D01*
X0110561Y0149822D01*
X0110462Y0149907D01*
X0110365Y0149994D01*
X0110271Y0150085D01*
X0110180Y0150178D01*
X0110091Y0150274D01*
X0110006Y0150373D01*
X0109924Y0150474D01*
X0109844Y0150578D01*
X0109768Y0150684D01*
X0109695Y0150792D01*
X0109626Y0150903D01*
X0109560Y0151015D01*
X0109497Y0151130D01*
X0109438Y0151246D01*
X0109382Y0151364D01*
X0109330Y0151484D01*
X0109282Y0151605D01*
X0109237Y0151728D01*
X0109197Y0151852D01*
X0109159Y0151977D01*
X0109126Y0152103D01*
X0109097Y0152230D01*
X0109071Y0152358D01*
X0109049Y0152487D01*
X0109032Y0152616D01*
X0109018Y0152746D01*
X0109008Y0152876D01*
X0109002Y0153006D01*
X0109000Y0153137D01*
X0161000Y0101137D02*
X0161002Y0101268D01*
X0161008Y0101398D01*
X0161018Y0101528D01*
X0161032Y0101658D01*
X0161049Y0101787D01*
X0161071Y0101916D01*
X0161097Y0102044D01*
X0161126Y0102171D01*
X0161159Y0102297D01*
X0161197Y0102422D01*
X0161237Y0102546D01*
X0161282Y0102669D01*
X0161330Y0102790D01*
X0161382Y0102910D01*
X0161438Y0103028D01*
X0161497Y0103144D01*
X0161560Y0103259D01*
X0161626Y0103371D01*
X0161695Y0103482D01*
X0161768Y0103590D01*
X0161844Y0103696D01*
X0161924Y0103800D01*
X0162006Y0103901D01*
X0162091Y0104000D01*
X0162180Y0104096D01*
X0162271Y0104189D01*
X0162365Y0104280D01*
X0162462Y0104367D01*
X0162561Y0104452D01*
X0162663Y0104533D01*
X0162767Y0104612D01*
X0162874Y0104687D01*
X0162983Y0104759D01*
X0163094Y0104828D01*
X0163207Y0104893D01*
X0163322Y0104955D01*
X0163439Y0105013D01*
X0163557Y0105068D01*
X0163677Y0105119D01*
X0163799Y0105166D01*
X0163922Y0105210D01*
X0164046Y0105250D01*
X0164171Y0105286D01*
X0164298Y0105319D01*
X0164425Y0105347D01*
X0164553Y0105372D01*
X0164682Y0105392D01*
X0164812Y0105409D01*
X0164941Y0105422D01*
X0165072Y0105431D01*
X0165202Y0105436D01*
X0165333Y0105437D01*
X0165463Y0105434D01*
X0165593Y0105427D01*
X0165724Y0105416D01*
X0165853Y0105401D01*
X0165982Y0105383D01*
X0166111Y0105360D01*
X0166239Y0105333D01*
X0166366Y0105303D01*
X0166492Y0105269D01*
X0166616Y0105231D01*
X0166740Y0105189D01*
X0166862Y0105143D01*
X0166983Y0105094D01*
X0167102Y0105041D01*
X0167220Y0104984D01*
X0167336Y0104924D01*
X0167450Y0104861D01*
X0167562Y0104794D01*
X0167672Y0104724D01*
X0167780Y0104650D01*
X0167885Y0104573D01*
X0167988Y0104493D01*
X0168089Y0104410D01*
X0168187Y0104324D01*
X0168282Y0104235D01*
X0168375Y0104143D01*
X0168465Y0104048D01*
X0168552Y0103951D01*
X0168636Y0103851D01*
X0168716Y0103748D01*
X0168794Y0103643D01*
X0168869Y0103536D01*
X0168940Y0103427D01*
X0169007Y0103315D01*
X0169072Y0103202D01*
X0169133Y0103086D01*
X0169190Y0102969D01*
X0169244Y0102850D01*
X0169294Y0102730D01*
X0169341Y0102608D01*
X0169383Y0102484D01*
X0169422Y0102360D01*
X0169458Y0102234D01*
X0169489Y0102107D01*
X0169517Y0101980D01*
X0169540Y0101852D01*
X0169560Y0101723D01*
X0169576Y0101593D01*
X0169588Y0101463D01*
X0169596Y0101333D01*
X0169600Y0101202D01*
X0169600Y0101072D01*
X0169596Y0100941D01*
X0169588Y0100811D01*
X0169576Y0100681D01*
X0169560Y0100551D01*
X0169540Y0100422D01*
X0169517Y0100294D01*
X0169489Y0100167D01*
X0169458Y0100040D01*
X0169422Y0099914D01*
X0169383Y0099790D01*
X0169341Y0099666D01*
X0169294Y0099544D01*
X0169244Y0099424D01*
X0169190Y0099305D01*
X0169133Y0099188D01*
X0169072Y0099072D01*
X0169007Y0098959D01*
X0168940Y0098847D01*
X0168869Y0098738D01*
X0168794Y0098631D01*
X0168716Y0098526D01*
X0168636Y0098423D01*
X0168552Y0098323D01*
X0168465Y0098226D01*
X0168375Y0098131D01*
X0168282Y0098039D01*
X0168187Y0097950D01*
X0168089Y0097864D01*
X0167988Y0097781D01*
X0167885Y0097701D01*
X0167780Y0097624D01*
X0167672Y0097550D01*
X0167562Y0097480D01*
X0167450Y0097413D01*
X0167336Y0097350D01*
X0167220Y0097290D01*
X0167102Y0097233D01*
X0166983Y0097180D01*
X0166862Y0097131D01*
X0166740Y0097085D01*
X0166616Y0097043D01*
X0166492Y0097005D01*
X0166366Y0096971D01*
X0166239Y0096941D01*
X0166111Y0096914D01*
X0165982Y0096891D01*
X0165853Y0096873D01*
X0165724Y0096858D01*
X0165593Y0096847D01*
X0165463Y0096840D01*
X0165333Y0096837D01*
X0165202Y0096838D01*
X0165072Y0096843D01*
X0164941Y0096852D01*
X0164812Y0096865D01*
X0164682Y0096882D01*
X0164553Y0096902D01*
X0164425Y0096927D01*
X0164298Y0096955D01*
X0164171Y0096988D01*
X0164046Y0097024D01*
X0163922Y0097064D01*
X0163799Y0097108D01*
X0163677Y0097155D01*
X0163557Y0097206D01*
X0163439Y0097261D01*
X0163322Y0097319D01*
X0163207Y0097381D01*
X0163094Y0097446D01*
X0162983Y0097515D01*
X0162874Y0097587D01*
X0162767Y0097662D01*
X0162663Y0097741D01*
X0162561Y0097822D01*
X0162462Y0097907D01*
X0162365Y0097994D01*
X0162271Y0098085D01*
X0162180Y0098178D01*
X0162091Y0098274D01*
X0162006Y0098373D01*
X0161924Y0098474D01*
X0161844Y0098578D01*
X0161768Y0098684D01*
X0161695Y0098792D01*
X0161626Y0098903D01*
X0161560Y0099015D01*
X0161497Y0099130D01*
X0161438Y0099246D01*
X0161382Y0099364D01*
X0161330Y0099484D01*
X0161282Y0099605D01*
X0161237Y0099728D01*
X0161197Y0099852D01*
X0161159Y0099977D01*
X0161126Y0100103D01*
X0161097Y0100230D01*
X0161071Y0100358D01*
X0161049Y0100487D01*
X0161032Y0100616D01*
X0161018Y0100746D01*
X0161008Y0100876D01*
X0161002Y0101006D01*
X0161000Y0101137D01*
X0198150Y0089251D02*
X0198152Y0089404D01*
X0198158Y0089558D01*
X0198168Y0089711D01*
X0198182Y0089863D01*
X0198200Y0090016D01*
X0198222Y0090167D01*
X0198247Y0090318D01*
X0198277Y0090469D01*
X0198311Y0090619D01*
X0198348Y0090767D01*
X0198389Y0090915D01*
X0198434Y0091061D01*
X0198483Y0091207D01*
X0198536Y0091351D01*
X0198592Y0091493D01*
X0198652Y0091634D01*
X0198716Y0091774D01*
X0198783Y0091912D01*
X0198854Y0092048D01*
X0198929Y0092182D01*
X0199006Y0092314D01*
X0199088Y0092444D01*
X0199172Y0092572D01*
X0199260Y0092698D01*
X0199351Y0092821D01*
X0199445Y0092942D01*
X0199543Y0093060D01*
X0199643Y0093176D01*
X0199747Y0093289D01*
X0199853Y0093400D01*
X0199962Y0093508D01*
X0200074Y0093613D01*
X0200188Y0093714D01*
X0200306Y0093813D01*
X0200425Y0093909D01*
X0200547Y0094002D01*
X0200672Y0094091D01*
X0200799Y0094178D01*
X0200928Y0094260D01*
X0201059Y0094340D01*
X0201192Y0094416D01*
X0201327Y0094489D01*
X0201464Y0094558D01*
X0201603Y0094623D01*
X0201743Y0094685D01*
X0201885Y0094743D01*
X0202028Y0094798D01*
X0202173Y0094849D01*
X0202319Y0094896D01*
X0202466Y0094939D01*
X0202614Y0094978D01*
X0202763Y0095014D01*
X0202913Y0095045D01*
X0203064Y0095073D01*
X0203215Y0095097D01*
X0203368Y0095117D01*
X0203520Y0095133D01*
X0203673Y0095145D01*
X0203826Y0095153D01*
X0203979Y0095157D01*
X0204133Y0095157D01*
X0204286Y0095153D01*
X0204439Y0095145D01*
X0204592Y0095133D01*
X0204744Y0095117D01*
X0204897Y0095097D01*
X0205048Y0095073D01*
X0205199Y0095045D01*
X0205349Y0095014D01*
X0205498Y0094978D01*
X0205646Y0094939D01*
X0205793Y0094896D01*
X0205939Y0094849D01*
X0206084Y0094798D01*
X0206227Y0094743D01*
X0206369Y0094685D01*
X0206509Y0094623D01*
X0206648Y0094558D01*
X0206785Y0094489D01*
X0206920Y0094416D01*
X0207053Y0094340D01*
X0207184Y0094260D01*
X0207313Y0094178D01*
X0207440Y0094091D01*
X0207565Y0094002D01*
X0207687Y0093909D01*
X0207806Y0093813D01*
X0207924Y0093714D01*
X0208038Y0093613D01*
X0208150Y0093508D01*
X0208259Y0093400D01*
X0208365Y0093289D01*
X0208469Y0093176D01*
X0208569Y0093060D01*
X0208667Y0092942D01*
X0208761Y0092821D01*
X0208852Y0092698D01*
X0208940Y0092572D01*
X0209024Y0092444D01*
X0209106Y0092314D01*
X0209183Y0092182D01*
X0209258Y0092048D01*
X0209329Y0091912D01*
X0209396Y0091774D01*
X0209460Y0091634D01*
X0209520Y0091493D01*
X0209576Y0091351D01*
X0209629Y0091207D01*
X0209678Y0091061D01*
X0209723Y0090915D01*
X0209764Y0090767D01*
X0209801Y0090619D01*
X0209835Y0090469D01*
X0209865Y0090318D01*
X0209890Y0090167D01*
X0209912Y0090016D01*
X0209930Y0089863D01*
X0209944Y0089711D01*
X0209954Y0089558D01*
X0209960Y0089404D01*
X0209962Y0089251D01*
X0209960Y0089098D01*
X0209954Y0088944D01*
X0209944Y0088791D01*
X0209930Y0088639D01*
X0209912Y0088486D01*
X0209890Y0088335D01*
X0209865Y0088184D01*
X0209835Y0088033D01*
X0209801Y0087883D01*
X0209764Y0087735D01*
X0209723Y0087587D01*
X0209678Y0087441D01*
X0209629Y0087295D01*
X0209576Y0087151D01*
X0209520Y0087009D01*
X0209460Y0086868D01*
X0209396Y0086728D01*
X0209329Y0086590D01*
X0209258Y0086454D01*
X0209183Y0086320D01*
X0209106Y0086188D01*
X0209024Y0086058D01*
X0208940Y0085930D01*
X0208852Y0085804D01*
X0208761Y0085681D01*
X0208667Y0085560D01*
X0208569Y0085442D01*
X0208469Y0085326D01*
X0208365Y0085213D01*
X0208259Y0085102D01*
X0208150Y0084994D01*
X0208038Y0084889D01*
X0207924Y0084788D01*
X0207806Y0084689D01*
X0207687Y0084593D01*
X0207565Y0084500D01*
X0207440Y0084411D01*
X0207313Y0084324D01*
X0207184Y0084242D01*
X0207053Y0084162D01*
X0206920Y0084086D01*
X0206785Y0084013D01*
X0206648Y0083944D01*
X0206509Y0083879D01*
X0206369Y0083817D01*
X0206227Y0083759D01*
X0206084Y0083704D01*
X0205939Y0083653D01*
X0205793Y0083606D01*
X0205646Y0083563D01*
X0205498Y0083524D01*
X0205349Y0083488D01*
X0205199Y0083457D01*
X0205048Y0083429D01*
X0204897Y0083405D01*
X0204744Y0083385D01*
X0204592Y0083369D01*
X0204439Y0083357D01*
X0204286Y0083349D01*
X0204133Y0083345D01*
X0203979Y0083345D01*
X0203826Y0083349D01*
X0203673Y0083357D01*
X0203520Y0083369D01*
X0203368Y0083385D01*
X0203215Y0083405D01*
X0203064Y0083429D01*
X0202913Y0083457D01*
X0202763Y0083488D01*
X0202614Y0083524D01*
X0202466Y0083563D01*
X0202319Y0083606D01*
X0202173Y0083653D01*
X0202028Y0083704D01*
X0201885Y0083759D01*
X0201743Y0083817D01*
X0201603Y0083879D01*
X0201464Y0083944D01*
X0201327Y0084013D01*
X0201192Y0084086D01*
X0201059Y0084162D01*
X0200928Y0084242D01*
X0200799Y0084324D01*
X0200672Y0084411D01*
X0200547Y0084500D01*
X0200425Y0084593D01*
X0200306Y0084689D01*
X0200188Y0084788D01*
X0200074Y0084889D01*
X0199962Y0084994D01*
X0199853Y0085102D01*
X0199747Y0085213D01*
X0199643Y0085326D01*
X0199543Y0085442D01*
X0199445Y0085560D01*
X0199351Y0085681D01*
X0199260Y0085804D01*
X0199172Y0085930D01*
X0199088Y0086058D01*
X0199006Y0086188D01*
X0198929Y0086320D01*
X0198854Y0086454D01*
X0198783Y0086590D01*
X0198716Y0086728D01*
X0198652Y0086868D01*
X0198592Y0087009D01*
X0198536Y0087151D01*
X0198483Y0087295D01*
X0198434Y0087441D01*
X0198389Y0087587D01*
X0198348Y0087735D01*
X0198311Y0087883D01*
X0198277Y0088033D01*
X0198247Y0088184D01*
X0198222Y0088335D01*
X0198200Y0088486D01*
X0198182Y0088639D01*
X0198168Y0088791D01*
X0198158Y0088944D01*
X0198152Y0089098D01*
X0198150Y0089251D01*
X0198890Y0067653D02*
X0198892Y0067806D01*
X0198898Y0067960D01*
X0198908Y0068113D01*
X0198922Y0068265D01*
X0198940Y0068418D01*
X0198962Y0068569D01*
X0198987Y0068720D01*
X0199017Y0068871D01*
X0199051Y0069021D01*
X0199088Y0069169D01*
X0199129Y0069317D01*
X0199174Y0069463D01*
X0199223Y0069609D01*
X0199276Y0069753D01*
X0199332Y0069895D01*
X0199392Y0070036D01*
X0199456Y0070176D01*
X0199523Y0070314D01*
X0199594Y0070450D01*
X0199669Y0070584D01*
X0199746Y0070716D01*
X0199828Y0070846D01*
X0199912Y0070974D01*
X0200000Y0071100D01*
X0200091Y0071223D01*
X0200185Y0071344D01*
X0200283Y0071462D01*
X0200383Y0071578D01*
X0200487Y0071691D01*
X0200593Y0071802D01*
X0200702Y0071910D01*
X0200814Y0072015D01*
X0200928Y0072116D01*
X0201046Y0072215D01*
X0201165Y0072311D01*
X0201287Y0072404D01*
X0201412Y0072493D01*
X0201539Y0072580D01*
X0201668Y0072662D01*
X0201799Y0072742D01*
X0201932Y0072818D01*
X0202067Y0072891D01*
X0202204Y0072960D01*
X0202343Y0073025D01*
X0202483Y0073087D01*
X0202625Y0073145D01*
X0202768Y0073200D01*
X0202913Y0073251D01*
X0203059Y0073298D01*
X0203206Y0073341D01*
X0203354Y0073380D01*
X0203503Y0073416D01*
X0203653Y0073447D01*
X0203804Y0073475D01*
X0203955Y0073499D01*
X0204108Y0073519D01*
X0204260Y0073535D01*
X0204413Y0073547D01*
X0204566Y0073555D01*
X0204719Y0073559D01*
X0204873Y0073559D01*
X0205026Y0073555D01*
X0205179Y0073547D01*
X0205332Y0073535D01*
X0205484Y0073519D01*
X0205637Y0073499D01*
X0205788Y0073475D01*
X0205939Y0073447D01*
X0206089Y0073416D01*
X0206238Y0073380D01*
X0206386Y0073341D01*
X0206533Y0073298D01*
X0206679Y0073251D01*
X0206824Y0073200D01*
X0206967Y0073145D01*
X0207109Y0073087D01*
X0207249Y0073025D01*
X0207388Y0072960D01*
X0207525Y0072891D01*
X0207660Y0072818D01*
X0207793Y0072742D01*
X0207924Y0072662D01*
X0208053Y0072580D01*
X0208180Y0072493D01*
X0208305Y0072404D01*
X0208427Y0072311D01*
X0208546Y0072215D01*
X0208664Y0072116D01*
X0208778Y0072015D01*
X0208890Y0071910D01*
X0208999Y0071802D01*
X0209105Y0071691D01*
X0209209Y0071578D01*
X0209309Y0071462D01*
X0209407Y0071344D01*
X0209501Y0071223D01*
X0209592Y0071100D01*
X0209680Y0070974D01*
X0209764Y0070846D01*
X0209846Y0070716D01*
X0209923Y0070584D01*
X0209998Y0070450D01*
X0210069Y0070314D01*
X0210136Y0070176D01*
X0210200Y0070036D01*
X0210260Y0069895D01*
X0210316Y0069753D01*
X0210369Y0069609D01*
X0210418Y0069463D01*
X0210463Y0069317D01*
X0210504Y0069169D01*
X0210541Y0069021D01*
X0210575Y0068871D01*
X0210605Y0068720D01*
X0210630Y0068569D01*
X0210652Y0068418D01*
X0210670Y0068265D01*
X0210684Y0068113D01*
X0210694Y0067960D01*
X0210700Y0067806D01*
X0210702Y0067653D01*
X0210700Y0067500D01*
X0210694Y0067346D01*
X0210684Y0067193D01*
X0210670Y0067041D01*
X0210652Y0066888D01*
X0210630Y0066737D01*
X0210605Y0066586D01*
X0210575Y0066435D01*
X0210541Y0066285D01*
X0210504Y0066137D01*
X0210463Y0065989D01*
X0210418Y0065843D01*
X0210369Y0065697D01*
X0210316Y0065553D01*
X0210260Y0065411D01*
X0210200Y0065270D01*
X0210136Y0065130D01*
X0210069Y0064992D01*
X0209998Y0064856D01*
X0209923Y0064722D01*
X0209846Y0064590D01*
X0209764Y0064460D01*
X0209680Y0064332D01*
X0209592Y0064206D01*
X0209501Y0064083D01*
X0209407Y0063962D01*
X0209309Y0063844D01*
X0209209Y0063728D01*
X0209105Y0063615D01*
X0208999Y0063504D01*
X0208890Y0063396D01*
X0208778Y0063291D01*
X0208664Y0063190D01*
X0208546Y0063091D01*
X0208427Y0062995D01*
X0208305Y0062902D01*
X0208180Y0062813D01*
X0208053Y0062726D01*
X0207924Y0062644D01*
X0207793Y0062564D01*
X0207660Y0062488D01*
X0207525Y0062415D01*
X0207388Y0062346D01*
X0207249Y0062281D01*
X0207109Y0062219D01*
X0206967Y0062161D01*
X0206824Y0062106D01*
X0206679Y0062055D01*
X0206533Y0062008D01*
X0206386Y0061965D01*
X0206238Y0061926D01*
X0206089Y0061890D01*
X0205939Y0061859D01*
X0205788Y0061831D01*
X0205637Y0061807D01*
X0205484Y0061787D01*
X0205332Y0061771D01*
X0205179Y0061759D01*
X0205026Y0061751D01*
X0204873Y0061747D01*
X0204719Y0061747D01*
X0204566Y0061751D01*
X0204413Y0061759D01*
X0204260Y0061771D01*
X0204108Y0061787D01*
X0203955Y0061807D01*
X0203804Y0061831D01*
X0203653Y0061859D01*
X0203503Y0061890D01*
X0203354Y0061926D01*
X0203206Y0061965D01*
X0203059Y0062008D01*
X0202913Y0062055D01*
X0202768Y0062106D01*
X0202625Y0062161D01*
X0202483Y0062219D01*
X0202343Y0062281D01*
X0202204Y0062346D01*
X0202067Y0062415D01*
X0201932Y0062488D01*
X0201799Y0062564D01*
X0201668Y0062644D01*
X0201539Y0062726D01*
X0201412Y0062813D01*
X0201287Y0062902D01*
X0201165Y0062995D01*
X0201046Y0063091D01*
X0200928Y0063190D01*
X0200814Y0063291D01*
X0200702Y0063396D01*
X0200593Y0063504D01*
X0200487Y0063615D01*
X0200383Y0063728D01*
X0200283Y0063844D01*
X0200185Y0063962D01*
X0200091Y0064083D01*
X0200000Y0064206D01*
X0199912Y0064332D01*
X0199828Y0064460D01*
X0199746Y0064590D01*
X0199669Y0064722D01*
X0199594Y0064856D01*
X0199523Y0064992D01*
X0199456Y0065130D01*
X0199392Y0065270D01*
X0199332Y0065411D01*
X0199276Y0065553D01*
X0199223Y0065697D01*
X0199174Y0065843D01*
X0199129Y0065989D01*
X0199088Y0066137D01*
X0199051Y0066285D01*
X0199017Y0066435D01*
X0198987Y0066586D01*
X0198962Y0066737D01*
X0198940Y0066888D01*
X0198922Y0067041D01*
X0198908Y0067193D01*
X0198898Y0067346D01*
X0198892Y0067500D01*
X0198890Y0067653D01*
X0223396Y0022322D02*
X0223398Y0022480D01*
X0223404Y0022637D01*
X0223414Y0022795D01*
X0223428Y0022952D01*
X0223446Y0023108D01*
X0223467Y0023265D01*
X0223493Y0023420D01*
X0223523Y0023575D01*
X0223556Y0023729D01*
X0223594Y0023882D01*
X0223635Y0024035D01*
X0223680Y0024186D01*
X0223729Y0024336D01*
X0223782Y0024484D01*
X0223838Y0024632D01*
X0223899Y0024777D01*
X0223962Y0024922D01*
X0224030Y0025064D01*
X0224101Y0025205D01*
X0224175Y0025344D01*
X0224253Y0025481D01*
X0224335Y0025616D01*
X0224419Y0025749D01*
X0224508Y0025880D01*
X0224599Y0026008D01*
X0224694Y0026135D01*
X0224791Y0026258D01*
X0224892Y0026380D01*
X0224996Y0026498D01*
X0225103Y0026614D01*
X0225213Y0026727D01*
X0225325Y0026838D01*
X0225441Y0026945D01*
X0225559Y0027050D01*
X0225679Y0027152D01*
X0225802Y0027250D01*
X0225928Y0027346D01*
X0226056Y0027438D01*
X0226186Y0027527D01*
X0226318Y0027613D01*
X0226453Y0027695D01*
X0226590Y0027774D01*
X0226728Y0027849D01*
X0226868Y0027921D01*
X0227011Y0027989D01*
X0227154Y0028054D01*
X0227300Y0028115D01*
X0227447Y0028172D01*
X0227595Y0028226D01*
X0227745Y0028276D01*
X0227895Y0028322D01*
X0228047Y0028364D01*
X0228200Y0028403D01*
X0228354Y0028437D01*
X0228509Y0028468D01*
X0228664Y0028494D01*
X0228820Y0028517D01*
X0228977Y0028536D01*
X0229134Y0028551D01*
X0229291Y0028562D01*
X0229449Y0028569D01*
X0229607Y0028572D01*
X0229764Y0028571D01*
X0229922Y0028566D01*
X0230079Y0028557D01*
X0230237Y0028544D01*
X0230393Y0028527D01*
X0230550Y0028506D01*
X0230705Y0028482D01*
X0230860Y0028453D01*
X0231015Y0028420D01*
X0231168Y0028384D01*
X0231321Y0028343D01*
X0231472Y0028299D01*
X0231622Y0028251D01*
X0231771Y0028200D01*
X0231919Y0028144D01*
X0232065Y0028085D01*
X0232210Y0028022D01*
X0232353Y0027955D01*
X0232494Y0027885D01*
X0232633Y0027812D01*
X0232771Y0027735D01*
X0232907Y0027654D01*
X0233040Y0027570D01*
X0233171Y0027483D01*
X0233300Y0027392D01*
X0233427Y0027298D01*
X0233552Y0027201D01*
X0233673Y0027101D01*
X0233793Y0026998D01*
X0233909Y0026892D01*
X0234023Y0026783D01*
X0234135Y0026671D01*
X0234243Y0026557D01*
X0234348Y0026439D01*
X0234451Y0026319D01*
X0234550Y0026197D01*
X0234646Y0026072D01*
X0234739Y0025944D01*
X0234829Y0025815D01*
X0234915Y0025683D01*
X0234999Y0025549D01*
X0235078Y0025413D01*
X0235155Y0025275D01*
X0235227Y0025135D01*
X0235296Y0024993D01*
X0235362Y0024850D01*
X0235424Y0024705D01*
X0235482Y0024558D01*
X0235537Y0024410D01*
X0235588Y0024261D01*
X0235635Y0024110D01*
X0235678Y0023959D01*
X0235717Y0023806D01*
X0235753Y0023652D01*
X0235784Y0023498D01*
X0235812Y0023343D01*
X0235836Y0023187D01*
X0235856Y0023030D01*
X0235872Y0022873D01*
X0235884Y0022716D01*
X0235892Y0022559D01*
X0235896Y0022401D01*
X0235896Y0022243D01*
X0235892Y0022085D01*
X0235884Y0021928D01*
X0235872Y0021771D01*
X0235856Y0021614D01*
X0235836Y0021457D01*
X0235812Y0021301D01*
X0235784Y0021146D01*
X0235753Y0020992D01*
X0235717Y0020838D01*
X0235678Y0020685D01*
X0235635Y0020534D01*
X0235588Y0020383D01*
X0235537Y0020234D01*
X0235482Y0020086D01*
X0235424Y0019939D01*
X0235362Y0019794D01*
X0235296Y0019651D01*
X0235227Y0019509D01*
X0235155Y0019369D01*
X0235078Y0019231D01*
X0234999Y0019095D01*
X0234915Y0018961D01*
X0234829Y0018829D01*
X0234739Y0018700D01*
X0234646Y0018572D01*
X0234550Y0018447D01*
X0234451Y0018325D01*
X0234348Y0018205D01*
X0234243Y0018087D01*
X0234135Y0017973D01*
X0234023Y0017861D01*
X0233909Y0017752D01*
X0233793Y0017646D01*
X0233673Y0017543D01*
X0233552Y0017443D01*
X0233427Y0017346D01*
X0233300Y0017252D01*
X0233171Y0017161D01*
X0233040Y0017074D01*
X0232907Y0016990D01*
X0232771Y0016909D01*
X0232633Y0016832D01*
X0232494Y0016759D01*
X0232353Y0016689D01*
X0232210Y0016622D01*
X0232065Y0016559D01*
X0231919Y0016500D01*
X0231771Y0016444D01*
X0231622Y0016393D01*
X0231472Y0016345D01*
X0231321Y0016301D01*
X0231168Y0016260D01*
X0231015Y0016224D01*
X0230860Y0016191D01*
X0230705Y0016162D01*
X0230550Y0016138D01*
X0230393Y0016117D01*
X0230237Y0016100D01*
X0230079Y0016087D01*
X0229922Y0016078D01*
X0229764Y0016073D01*
X0229607Y0016072D01*
X0229449Y0016075D01*
X0229291Y0016082D01*
X0229134Y0016093D01*
X0228977Y0016108D01*
X0228820Y0016127D01*
X0228664Y0016150D01*
X0228509Y0016176D01*
X0228354Y0016207D01*
X0228200Y0016241D01*
X0228047Y0016280D01*
X0227895Y0016322D01*
X0227745Y0016368D01*
X0227595Y0016418D01*
X0227447Y0016472D01*
X0227300Y0016529D01*
X0227154Y0016590D01*
X0227011Y0016655D01*
X0226868Y0016723D01*
X0226728Y0016795D01*
X0226590Y0016870D01*
X0226453Y0016949D01*
X0226318Y0017031D01*
X0226186Y0017117D01*
X0226056Y0017206D01*
X0225928Y0017298D01*
X0225802Y0017394D01*
X0225679Y0017492D01*
X0225559Y0017594D01*
X0225441Y0017699D01*
X0225325Y0017806D01*
X0225213Y0017917D01*
X0225103Y0018030D01*
X0224996Y0018146D01*
X0224892Y0018264D01*
X0224791Y0018386D01*
X0224694Y0018509D01*
X0224599Y0018636D01*
X0224508Y0018764D01*
X0224419Y0018895D01*
X0224335Y0019028D01*
X0224253Y0019163D01*
X0224175Y0019300D01*
X0224101Y0019439D01*
X0224030Y0019580D01*
X0223962Y0019722D01*
X0223899Y0019867D01*
X0223838Y0020012D01*
X0223782Y0020160D01*
X0223729Y0020308D01*
X0223680Y0020458D01*
X0223635Y0020609D01*
X0223594Y0020762D01*
X0223556Y0020915D01*
X0223523Y0021069D01*
X0223493Y0021224D01*
X0223467Y0021379D01*
X0223446Y0021536D01*
X0223428Y0021692D01*
X0223414Y0021849D01*
X0223404Y0022007D01*
X0223398Y0022164D01*
X0223396Y0022322D01*
X0235898Y0067653D02*
X0235900Y0067806D01*
X0235906Y0067960D01*
X0235916Y0068113D01*
X0235930Y0068265D01*
X0235948Y0068418D01*
X0235970Y0068569D01*
X0235995Y0068720D01*
X0236025Y0068871D01*
X0236059Y0069021D01*
X0236096Y0069169D01*
X0236137Y0069317D01*
X0236182Y0069463D01*
X0236231Y0069609D01*
X0236284Y0069753D01*
X0236340Y0069895D01*
X0236400Y0070036D01*
X0236464Y0070176D01*
X0236531Y0070314D01*
X0236602Y0070450D01*
X0236677Y0070584D01*
X0236754Y0070716D01*
X0236836Y0070846D01*
X0236920Y0070974D01*
X0237008Y0071100D01*
X0237099Y0071223D01*
X0237193Y0071344D01*
X0237291Y0071462D01*
X0237391Y0071578D01*
X0237495Y0071691D01*
X0237601Y0071802D01*
X0237710Y0071910D01*
X0237822Y0072015D01*
X0237936Y0072116D01*
X0238054Y0072215D01*
X0238173Y0072311D01*
X0238295Y0072404D01*
X0238420Y0072493D01*
X0238547Y0072580D01*
X0238676Y0072662D01*
X0238807Y0072742D01*
X0238940Y0072818D01*
X0239075Y0072891D01*
X0239212Y0072960D01*
X0239351Y0073025D01*
X0239491Y0073087D01*
X0239633Y0073145D01*
X0239776Y0073200D01*
X0239921Y0073251D01*
X0240067Y0073298D01*
X0240214Y0073341D01*
X0240362Y0073380D01*
X0240511Y0073416D01*
X0240661Y0073447D01*
X0240812Y0073475D01*
X0240963Y0073499D01*
X0241116Y0073519D01*
X0241268Y0073535D01*
X0241421Y0073547D01*
X0241574Y0073555D01*
X0241727Y0073559D01*
X0241881Y0073559D01*
X0242034Y0073555D01*
X0242187Y0073547D01*
X0242340Y0073535D01*
X0242492Y0073519D01*
X0242645Y0073499D01*
X0242796Y0073475D01*
X0242947Y0073447D01*
X0243097Y0073416D01*
X0243246Y0073380D01*
X0243394Y0073341D01*
X0243541Y0073298D01*
X0243687Y0073251D01*
X0243832Y0073200D01*
X0243975Y0073145D01*
X0244117Y0073087D01*
X0244257Y0073025D01*
X0244396Y0072960D01*
X0244533Y0072891D01*
X0244668Y0072818D01*
X0244801Y0072742D01*
X0244932Y0072662D01*
X0245061Y0072580D01*
X0245188Y0072493D01*
X0245313Y0072404D01*
X0245435Y0072311D01*
X0245554Y0072215D01*
X0245672Y0072116D01*
X0245786Y0072015D01*
X0245898Y0071910D01*
X0246007Y0071802D01*
X0246113Y0071691D01*
X0246217Y0071578D01*
X0246317Y0071462D01*
X0246415Y0071344D01*
X0246509Y0071223D01*
X0246600Y0071100D01*
X0246688Y0070974D01*
X0246772Y0070846D01*
X0246854Y0070716D01*
X0246931Y0070584D01*
X0247006Y0070450D01*
X0247077Y0070314D01*
X0247144Y0070176D01*
X0247208Y0070036D01*
X0247268Y0069895D01*
X0247324Y0069753D01*
X0247377Y0069609D01*
X0247426Y0069463D01*
X0247471Y0069317D01*
X0247512Y0069169D01*
X0247549Y0069021D01*
X0247583Y0068871D01*
X0247613Y0068720D01*
X0247638Y0068569D01*
X0247660Y0068418D01*
X0247678Y0068265D01*
X0247692Y0068113D01*
X0247702Y0067960D01*
X0247708Y0067806D01*
X0247710Y0067653D01*
X0247708Y0067500D01*
X0247702Y0067346D01*
X0247692Y0067193D01*
X0247678Y0067041D01*
X0247660Y0066888D01*
X0247638Y0066737D01*
X0247613Y0066586D01*
X0247583Y0066435D01*
X0247549Y0066285D01*
X0247512Y0066137D01*
X0247471Y0065989D01*
X0247426Y0065843D01*
X0247377Y0065697D01*
X0247324Y0065553D01*
X0247268Y0065411D01*
X0247208Y0065270D01*
X0247144Y0065130D01*
X0247077Y0064992D01*
X0247006Y0064856D01*
X0246931Y0064722D01*
X0246854Y0064590D01*
X0246772Y0064460D01*
X0246688Y0064332D01*
X0246600Y0064206D01*
X0246509Y0064083D01*
X0246415Y0063962D01*
X0246317Y0063844D01*
X0246217Y0063728D01*
X0246113Y0063615D01*
X0246007Y0063504D01*
X0245898Y0063396D01*
X0245786Y0063291D01*
X0245672Y0063190D01*
X0245554Y0063091D01*
X0245435Y0062995D01*
X0245313Y0062902D01*
X0245188Y0062813D01*
X0245061Y0062726D01*
X0244932Y0062644D01*
X0244801Y0062564D01*
X0244668Y0062488D01*
X0244533Y0062415D01*
X0244396Y0062346D01*
X0244257Y0062281D01*
X0244117Y0062219D01*
X0243975Y0062161D01*
X0243832Y0062106D01*
X0243687Y0062055D01*
X0243541Y0062008D01*
X0243394Y0061965D01*
X0243246Y0061926D01*
X0243097Y0061890D01*
X0242947Y0061859D01*
X0242796Y0061831D01*
X0242645Y0061807D01*
X0242492Y0061787D01*
X0242340Y0061771D01*
X0242187Y0061759D01*
X0242034Y0061751D01*
X0241881Y0061747D01*
X0241727Y0061747D01*
X0241574Y0061751D01*
X0241421Y0061759D01*
X0241268Y0061771D01*
X0241116Y0061787D01*
X0240963Y0061807D01*
X0240812Y0061831D01*
X0240661Y0061859D01*
X0240511Y0061890D01*
X0240362Y0061926D01*
X0240214Y0061965D01*
X0240067Y0062008D01*
X0239921Y0062055D01*
X0239776Y0062106D01*
X0239633Y0062161D01*
X0239491Y0062219D01*
X0239351Y0062281D01*
X0239212Y0062346D01*
X0239075Y0062415D01*
X0238940Y0062488D01*
X0238807Y0062564D01*
X0238676Y0062644D01*
X0238547Y0062726D01*
X0238420Y0062813D01*
X0238295Y0062902D01*
X0238173Y0062995D01*
X0238054Y0063091D01*
X0237936Y0063190D01*
X0237822Y0063291D01*
X0237710Y0063396D01*
X0237601Y0063504D01*
X0237495Y0063615D01*
X0237391Y0063728D01*
X0237291Y0063844D01*
X0237193Y0063962D01*
X0237099Y0064083D01*
X0237008Y0064206D01*
X0236920Y0064332D01*
X0236836Y0064460D01*
X0236754Y0064590D01*
X0236677Y0064722D01*
X0236602Y0064856D01*
X0236531Y0064992D01*
X0236464Y0065130D01*
X0236400Y0065270D01*
X0236340Y0065411D01*
X0236284Y0065553D01*
X0236231Y0065697D01*
X0236182Y0065843D01*
X0236137Y0065989D01*
X0236096Y0066137D01*
X0236059Y0066285D01*
X0236025Y0066435D01*
X0235995Y0066586D01*
X0235970Y0066737D01*
X0235948Y0066888D01*
X0235930Y0067041D01*
X0235916Y0067193D01*
X0235906Y0067346D01*
X0235900Y0067500D01*
X0235898Y0067653D01*
X0235898Y0125653D02*
X0235900Y0125806D01*
X0235906Y0125960D01*
X0235916Y0126113D01*
X0235930Y0126265D01*
X0235948Y0126418D01*
X0235970Y0126569D01*
X0235995Y0126720D01*
X0236025Y0126871D01*
X0236059Y0127021D01*
X0236096Y0127169D01*
X0236137Y0127317D01*
X0236182Y0127463D01*
X0236231Y0127609D01*
X0236284Y0127753D01*
X0236340Y0127895D01*
X0236400Y0128036D01*
X0236464Y0128176D01*
X0236531Y0128314D01*
X0236602Y0128450D01*
X0236677Y0128584D01*
X0236754Y0128716D01*
X0236836Y0128846D01*
X0236920Y0128974D01*
X0237008Y0129100D01*
X0237099Y0129223D01*
X0237193Y0129344D01*
X0237291Y0129462D01*
X0237391Y0129578D01*
X0237495Y0129691D01*
X0237601Y0129802D01*
X0237710Y0129910D01*
X0237822Y0130015D01*
X0237936Y0130116D01*
X0238054Y0130215D01*
X0238173Y0130311D01*
X0238295Y0130404D01*
X0238420Y0130493D01*
X0238547Y0130580D01*
X0238676Y0130662D01*
X0238807Y0130742D01*
X0238940Y0130818D01*
X0239075Y0130891D01*
X0239212Y0130960D01*
X0239351Y0131025D01*
X0239491Y0131087D01*
X0239633Y0131145D01*
X0239776Y0131200D01*
X0239921Y0131251D01*
X0240067Y0131298D01*
X0240214Y0131341D01*
X0240362Y0131380D01*
X0240511Y0131416D01*
X0240661Y0131447D01*
X0240812Y0131475D01*
X0240963Y0131499D01*
X0241116Y0131519D01*
X0241268Y0131535D01*
X0241421Y0131547D01*
X0241574Y0131555D01*
X0241727Y0131559D01*
X0241881Y0131559D01*
X0242034Y0131555D01*
X0242187Y0131547D01*
X0242340Y0131535D01*
X0242492Y0131519D01*
X0242645Y0131499D01*
X0242796Y0131475D01*
X0242947Y0131447D01*
X0243097Y0131416D01*
X0243246Y0131380D01*
X0243394Y0131341D01*
X0243541Y0131298D01*
X0243687Y0131251D01*
X0243832Y0131200D01*
X0243975Y0131145D01*
X0244117Y0131087D01*
X0244257Y0131025D01*
X0244396Y0130960D01*
X0244533Y0130891D01*
X0244668Y0130818D01*
X0244801Y0130742D01*
X0244932Y0130662D01*
X0245061Y0130580D01*
X0245188Y0130493D01*
X0245313Y0130404D01*
X0245435Y0130311D01*
X0245554Y0130215D01*
X0245672Y0130116D01*
X0245786Y0130015D01*
X0245898Y0129910D01*
X0246007Y0129802D01*
X0246113Y0129691D01*
X0246217Y0129578D01*
X0246317Y0129462D01*
X0246415Y0129344D01*
X0246509Y0129223D01*
X0246600Y0129100D01*
X0246688Y0128974D01*
X0246772Y0128846D01*
X0246854Y0128716D01*
X0246931Y0128584D01*
X0247006Y0128450D01*
X0247077Y0128314D01*
X0247144Y0128176D01*
X0247208Y0128036D01*
X0247268Y0127895D01*
X0247324Y0127753D01*
X0247377Y0127609D01*
X0247426Y0127463D01*
X0247471Y0127317D01*
X0247512Y0127169D01*
X0247549Y0127021D01*
X0247583Y0126871D01*
X0247613Y0126720D01*
X0247638Y0126569D01*
X0247660Y0126418D01*
X0247678Y0126265D01*
X0247692Y0126113D01*
X0247702Y0125960D01*
X0247708Y0125806D01*
X0247710Y0125653D01*
X0247708Y0125500D01*
X0247702Y0125346D01*
X0247692Y0125193D01*
X0247678Y0125041D01*
X0247660Y0124888D01*
X0247638Y0124737D01*
X0247613Y0124586D01*
X0247583Y0124435D01*
X0247549Y0124285D01*
X0247512Y0124137D01*
X0247471Y0123989D01*
X0247426Y0123843D01*
X0247377Y0123697D01*
X0247324Y0123553D01*
X0247268Y0123411D01*
X0247208Y0123270D01*
X0247144Y0123130D01*
X0247077Y0122992D01*
X0247006Y0122856D01*
X0246931Y0122722D01*
X0246854Y0122590D01*
X0246772Y0122460D01*
X0246688Y0122332D01*
X0246600Y0122206D01*
X0246509Y0122083D01*
X0246415Y0121962D01*
X0246317Y0121844D01*
X0246217Y0121728D01*
X0246113Y0121615D01*
X0246007Y0121504D01*
X0245898Y0121396D01*
X0245786Y0121291D01*
X0245672Y0121190D01*
X0245554Y0121091D01*
X0245435Y0120995D01*
X0245313Y0120902D01*
X0245188Y0120813D01*
X0245061Y0120726D01*
X0244932Y0120644D01*
X0244801Y0120564D01*
X0244668Y0120488D01*
X0244533Y0120415D01*
X0244396Y0120346D01*
X0244257Y0120281D01*
X0244117Y0120219D01*
X0243975Y0120161D01*
X0243832Y0120106D01*
X0243687Y0120055D01*
X0243541Y0120008D01*
X0243394Y0119965D01*
X0243246Y0119926D01*
X0243097Y0119890D01*
X0242947Y0119859D01*
X0242796Y0119831D01*
X0242645Y0119807D01*
X0242492Y0119787D01*
X0242340Y0119771D01*
X0242187Y0119759D01*
X0242034Y0119751D01*
X0241881Y0119747D01*
X0241727Y0119747D01*
X0241574Y0119751D01*
X0241421Y0119759D01*
X0241268Y0119771D01*
X0241116Y0119787D01*
X0240963Y0119807D01*
X0240812Y0119831D01*
X0240661Y0119859D01*
X0240511Y0119890D01*
X0240362Y0119926D01*
X0240214Y0119965D01*
X0240067Y0120008D01*
X0239921Y0120055D01*
X0239776Y0120106D01*
X0239633Y0120161D01*
X0239491Y0120219D01*
X0239351Y0120281D01*
X0239212Y0120346D01*
X0239075Y0120415D01*
X0238940Y0120488D01*
X0238807Y0120564D01*
X0238676Y0120644D01*
X0238547Y0120726D01*
X0238420Y0120813D01*
X0238295Y0120902D01*
X0238173Y0120995D01*
X0238054Y0121091D01*
X0237936Y0121190D01*
X0237822Y0121291D01*
X0237710Y0121396D01*
X0237601Y0121504D01*
X0237495Y0121615D01*
X0237391Y0121728D01*
X0237291Y0121844D01*
X0237193Y0121962D01*
X0237099Y0122083D01*
X0237008Y0122206D01*
X0236920Y0122332D01*
X0236836Y0122460D01*
X0236754Y0122590D01*
X0236677Y0122722D01*
X0236602Y0122856D01*
X0236531Y0122992D01*
X0236464Y0123130D01*
X0236400Y0123270D01*
X0236340Y0123411D01*
X0236284Y0123553D01*
X0236231Y0123697D01*
X0236182Y0123843D01*
X0236137Y0123989D01*
X0236096Y0124137D01*
X0236059Y0124285D01*
X0236025Y0124435D01*
X0235995Y0124586D01*
X0235970Y0124737D01*
X0235948Y0124888D01*
X0235930Y0125041D01*
X0235916Y0125193D01*
X0235906Y0125346D01*
X0235900Y0125500D01*
X0235898Y0125653D01*
X0198890Y0125653D02*
X0198892Y0125806D01*
X0198898Y0125960D01*
X0198908Y0126113D01*
X0198922Y0126265D01*
X0198940Y0126418D01*
X0198962Y0126569D01*
X0198987Y0126720D01*
X0199017Y0126871D01*
X0199051Y0127021D01*
X0199088Y0127169D01*
X0199129Y0127317D01*
X0199174Y0127463D01*
X0199223Y0127609D01*
X0199276Y0127753D01*
X0199332Y0127895D01*
X0199392Y0128036D01*
X0199456Y0128176D01*
X0199523Y0128314D01*
X0199594Y0128450D01*
X0199669Y0128584D01*
X0199746Y0128716D01*
X0199828Y0128846D01*
X0199912Y0128974D01*
X0200000Y0129100D01*
X0200091Y0129223D01*
X0200185Y0129344D01*
X0200283Y0129462D01*
X0200383Y0129578D01*
X0200487Y0129691D01*
X0200593Y0129802D01*
X0200702Y0129910D01*
X0200814Y0130015D01*
X0200928Y0130116D01*
X0201046Y0130215D01*
X0201165Y0130311D01*
X0201287Y0130404D01*
X0201412Y0130493D01*
X0201539Y0130580D01*
X0201668Y0130662D01*
X0201799Y0130742D01*
X0201932Y0130818D01*
X0202067Y0130891D01*
X0202204Y0130960D01*
X0202343Y0131025D01*
X0202483Y0131087D01*
X0202625Y0131145D01*
X0202768Y0131200D01*
X0202913Y0131251D01*
X0203059Y0131298D01*
X0203206Y0131341D01*
X0203354Y0131380D01*
X0203503Y0131416D01*
X0203653Y0131447D01*
X0203804Y0131475D01*
X0203955Y0131499D01*
X0204108Y0131519D01*
X0204260Y0131535D01*
X0204413Y0131547D01*
X0204566Y0131555D01*
X0204719Y0131559D01*
X0204873Y0131559D01*
X0205026Y0131555D01*
X0205179Y0131547D01*
X0205332Y0131535D01*
X0205484Y0131519D01*
X0205637Y0131499D01*
X0205788Y0131475D01*
X0205939Y0131447D01*
X0206089Y0131416D01*
X0206238Y0131380D01*
X0206386Y0131341D01*
X0206533Y0131298D01*
X0206679Y0131251D01*
X0206824Y0131200D01*
X0206967Y0131145D01*
X0207109Y0131087D01*
X0207249Y0131025D01*
X0207388Y0130960D01*
X0207525Y0130891D01*
X0207660Y0130818D01*
X0207793Y0130742D01*
X0207924Y0130662D01*
X0208053Y0130580D01*
X0208180Y0130493D01*
X0208305Y0130404D01*
X0208427Y0130311D01*
X0208546Y0130215D01*
X0208664Y0130116D01*
X0208778Y0130015D01*
X0208890Y0129910D01*
X0208999Y0129802D01*
X0209105Y0129691D01*
X0209209Y0129578D01*
X0209309Y0129462D01*
X0209407Y0129344D01*
X0209501Y0129223D01*
X0209592Y0129100D01*
X0209680Y0128974D01*
X0209764Y0128846D01*
X0209846Y0128716D01*
X0209923Y0128584D01*
X0209998Y0128450D01*
X0210069Y0128314D01*
X0210136Y0128176D01*
X0210200Y0128036D01*
X0210260Y0127895D01*
X0210316Y0127753D01*
X0210369Y0127609D01*
X0210418Y0127463D01*
X0210463Y0127317D01*
X0210504Y0127169D01*
X0210541Y0127021D01*
X0210575Y0126871D01*
X0210605Y0126720D01*
X0210630Y0126569D01*
X0210652Y0126418D01*
X0210670Y0126265D01*
X0210684Y0126113D01*
X0210694Y0125960D01*
X0210700Y0125806D01*
X0210702Y0125653D01*
X0210700Y0125500D01*
X0210694Y0125346D01*
X0210684Y0125193D01*
X0210670Y0125041D01*
X0210652Y0124888D01*
X0210630Y0124737D01*
X0210605Y0124586D01*
X0210575Y0124435D01*
X0210541Y0124285D01*
X0210504Y0124137D01*
X0210463Y0123989D01*
X0210418Y0123843D01*
X0210369Y0123697D01*
X0210316Y0123553D01*
X0210260Y0123411D01*
X0210200Y0123270D01*
X0210136Y0123130D01*
X0210069Y0122992D01*
X0209998Y0122856D01*
X0209923Y0122722D01*
X0209846Y0122590D01*
X0209764Y0122460D01*
X0209680Y0122332D01*
X0209592Y0122206D01*
X0209501Y0122083D01*
X0209407Y0121962D01*
X0209309Y0121844D01*
X0209209Y0121728D01*
X0209105Y0121615D01*
X0208999Y0121504D01*
X0208890Y0121396D01*
X0208778Y0121291D01*
X0208664Y0121190D01*
X0208546Y0121091D01*
X0208427Y0120995D01*
X0208305Y0120902D01*
X0208180Y0120813D01*
X0208053Y0120726D01*
X0207924Y0120644D01*
X0207793Y0120564D01*
X0207660Y0120488D01*
X0207525Y0120415D01*
X0207388Y0120346D01*
X0207249Y0120281D01*
X0207109Y0120219D01*
X0206967Y0120161D01*
X0206824Y0120106D01*
X0206679Y0120055D01*
X0206533Y0120008D01*
X0206386Y0119965D01*
X0206238Y0119926D01*
X0206089Y0119890D01*
X0205939Y0119859D01*
X0205788Y0119831D01*
X0205637Y0119807D01*
X0205484Y0119787D01*
X0205332Y0119771D01*
X0205179Y0119759D01*
X0205026Y0119751D01*
X0204873Y0119747D01*
X0204719Y0119747D01*
X0204566Y0119751D01*
X0204413Y0119759D01*
X0204260Y0119771D01*
X0204108Y0119787D01*
X0203955Y0119807D01*
X0203804Y0119831D01*
X0203653Y0119859D01*
X0203503Y0119890D01*
X0203354Y0119926D01*
X0203206Y0119965D01*
X0203059Y0120008D01*
X0202913Y0120055D01*
X0202768Y0120106D01*
X0202625Y0120161D01*
X0202483Y0120219D01*
X0202343Y0120281D01*
X0202204Y0120346D01*
X0202067Y0120415D01*
X0201932Y0120488D01*
X0201799Y0120564D01*
X0201668Y0120644D01*
X0201539Y0120726D01*
X0201412Y0120813D01*
X0201287Y0120902D01*
X0201165Y0120995D01*
X0201046Y0121091D01*
X0200928Y0121190D01*
X0200814Y0121291D01*
X0200702Y0121396D01*
X0200593Y0121504D01*
X0200487Y0121615D01*
X0200383Y0121728D01*
X0200283Y0121844D01*
X0200185Y0121962D01*
X0200091Y0122083D01*
X0200000Y0122206D01*
X0199912Y0122332D01*
X0199828Y0122460D01*
X0199746Y0122590D01*
X0199669Y0122722D01*
X0199594Y0122856D01*
X0199523Y0122992D01*
X0199456Y0123130D01*
X0199392Y0123270D01*
X0199332Y0123411D01*
X0199276Y0123553D01*
X0199223Y0123697D01*
X0199174Y0123843D01*
X0199129Y0123989D01*
X0199088Y0124137D01*
X0199051Y0124285D01*
X0199017Y0124435D01*
X0198987Y0124586D01*
X0198962Y0124737D01*
X0198940Y0124888D01*
X0198922Y0125041D01*
X0198908Y0125193D01*
X0198898Y0125346D01*
X0198892Y0125500D01*
X0198890Y0125653D01*
X0197890Y0183653D02*
X0197892Y0183806D01*
X0197898Y0183960D01*
X0197908Y0184113D01*
X0197922Y0184265D01*
X0197940Y0184418D01*
X0197962Y0184569D01*
X0197987Y0184720D01*
X0198017Y0184871D01*
X0198051Y0185021D01*
X0198088Y0185169D01*
X0198129Y0185317D01*
X0198174Y0185463D01*
X0198223Y0185609D01*
X0198276Y0185753D01*
X0198332Y0185895D01*
X0198392Y0186036D01*
X0198456Y0186176D01*
X0198523Y0186314D01*
X0198594Y0186450D01*
X0198669Y0186584D01*
X0198746Y0186716D01*
X0198828Y0186846D01*
X0198912Y0186974D01*
X0199000Y0187100D01*
X0199091Y0187223D01*
X0199185Y0187344D01*
X0199283Y0187462D01*
X0199383Y0187578D01*
X0199487Y0187691D01*
X0199593Y0187802D01*
X0199702Y0187910D01*
X0199814Y0188015D01*
X0199928Y0188116D01*
X0200046Y0188215D01*
X0200165Y0188311D01*
X0200287Y0188404D01*
X0200412Y0188493D01*
X0200539Y0188580D01*
X0200668Y0188662D01*
X0200799Y0188742D01*
X0200932Y0188818D01*
X0201067Y0188891D01*
X0201204Y0188960D01*
X0201343Y0189025D01*
X0201483Y0189087D01*
X0201625Y0189145D01*
X0201768Y0189200D01*
X0201913Y0189251D01*
X0202059Y0189298D01*
X0202206Y0189341D01*
X0202354Y0189380D01*
X0202503Y0189416D01*
X0202653Y0189447D01*
X0202804Y0189475D01*
X0202955Y0189499D01*
X0203108Y0189519D01*
X0203260Y0189535D01*
X0203413Y0189547D01*
X0203566Y0189555D01*
X0203719Y0189559D01*
X0203873Y0189559D01*
X0204026Y0189555D01*
X0204179Y0189547D01*
X0204332Y0189535D01*
X0204484Y0189519D01*
X0204637Y0189499D01*
X0204788Y0189475D01*
X0204939Y0189447D01*
X0205089Y0189416D01*
X0205238Y0189380D01*
X0205386Y0189341D01*
X0205533Y0189298D01*
X0205679Y0189251D01*
X0205824Y0189200D01*
X0205967Y0189145D01*
X0206109Y0189087D01*
X0206249Y0189025D01*
X0206388Y0188960D01*
X0206525Y0188891D01*
X0206660Y0188818D01*
X0206793Y0188742D01*
X0206924Y0188662D01*
X0207053Y0188580D01*
X0207180Y0188493D01*
X0207305Y0188404D01*
X0207427Y0188311D01*
X0207546Y0188215D01*
X0207664Y0188116D01*
X0207778Y0188015D01*
X0207890Y0187910D01*
X0207999Y0187802D01*
X0208105Y0187691D01*
X0208209Y0187578D01*
X0208309Y0187462D01*
X0208407Y0187344D01*
X0208501Y0187223D01*
X0208592Y0187100D01*
X0208680Y0186974D01*
X0208764Y0186846D01*
X0208846Y0186716D01*
X0208923Y0186584D01*
X0208998Y0186450D01*
X0209069Y0186314D01*
X0209136Y0186176D01*
X0209200Y0186036D01*
X0209260Y0185895D01*
X0209316Y0185753D01*
X0209369Y0185609D01*
X0209418Y0185463D01*
X0209463Y0185317D01*
X0209504Y0185169D01*
X0209541Y0185021D01*
X0209575Y0184871D01*
X0209605Y0184720D01*
X0209630Y0184569D01*
X0209652Y0184418D01*
X0209670Y0184265D01*
X0209684Y0184113D01*
X0209694Y0183960D01*
X0209700Y0183806D01*
X0209702Y0183653D01*
X0209700Y0183500D01*
X0209694Y0183346D01*
X0209684Y0183193D01*
X0209670Y0183041D01*
X0209652Y0182888D01*
X0209630Y0182737D01*
X0209605Y0182586D01*
X0209575Y0182435D01*
X0209541Y0182285D01*
X0209504Y0182137D01*
X0209463Y0181989D01*
X0209418Y0181843D01*
X0209369Y0181697D01*
X0209316Y0181553D01*
X0209260Y0181411D01*
X0209200Y0181270D01*
X0209136Y0181130D01*
X0209069Y0180992D01*
X0208998Y0180856D01*
X0208923Y0180722D01*
X0208846Y0180590D01*
X0208764Y0180460D01*
X0208680Y0180332D01*
X0208592Y0180206D01*
X0208501Y0180083D01*
X0208407Y0179962D01*
X0208309Y0179844D01*
X0208209Y0179728D01*
X0208105Y0179615D01*
X0207999Y0179504D01*
X0207890Y0179396D01*
X0207778Y0179291D01*
X0207664Y0179190D01*
X0207546Y0179091D01*
X0207427Y0178995D01*
X0207305Y0178902D01*
X0207180Y0178813D01*
X0207053Y0178726D01*
X0206924Y0178644D01*
X0206793Y0178564D01*
X0206660Y0178488D01*
X0206525Y0178415D01*
X0206388Y0178346D01*
X0206249Y0178281D01*
X0206109Y0178219D01*
X0205967Y0178161D01*
X0205824Y0178106D01*
X0205679Y0178055D01*
X0205533Y0178008D01*
X0205386Y0177965D01*
X0205238Y0177926D01*
X0205089Y0177890D01*
X0204939Y0177859D01*
X0204788Y0177831D01*
X0204637Y0177807D01*
X0204484Y0177787D01*
X0204332Y0177771D01*
X0204179Y0177759D01*
X0204026Y0177751D01*
X0203873Y0177747D01*
X0203719Y0177747D01*
X0203566Y0177751D01*
X0203413Y0177759D01*
X0203260Y0177771D01*
X0203108Y0177787D01*
X0202955Y0177807D01*
X0202804Y0177831D01*
X0202653Y0177859D01*
X0202503Y0177890D01*
X0202354Y0177926D01*
X0202206Y0177965D01*
X0202059Y0178008D01*
X0201913Y0178055D01*
X0201768Y0178106D01*
X0201625Y0178161D01*
X0201483Y0178219D01*
X0201343Y0178281D01*
X0201204Y0178346D01*
X0201067Y0178415D01*
X0200932Y0178488D01*
X0200799Y0178564D01*
X0200668Y0178644D01*
X0200539Y0178726D01*
X0200412Y0178813D01*
X0200287Y0178902D01*
X0200165Y0178995D01*
X0200046Y0179091D01*
X0199928Y0179190D01*
X0199814Y0179291D01*
X0199702Y0179396D01*
X0199593Y0179504D01*
X0199487Y0179615D01*
X0199383Y0179728D01*
X0199283Y0179844D01*
X0199185Y0179962D01*
X0199091Y0180083D01*
X0199000Y0180206D01*
X0198912Y0180332D01*
X0198828Y0180460D01*
X0198746Y0180590D01*
X0198669Y0180722D01*
X0198594Y0180856D01*
X0198523Y0180992D01*
X0198456Y0181130D01*
X0198392Y0181270D01*
X0198332Y0181411D01*
X0198276Y0181553D01*
X0198223Y0181697D01*
X0198174Y0181843D01*
X0198129Y0181989D01*
X0198088Y0182137D01*
X0198051Y0182285D01*
X0198017Y0182435D01*
X0197987Y0182586D01*
X0197962Y0182737D01*
X0197940Y0182888D01*
X0197922Y0183041D01*
X0197908Y0183193D01*
X0197898Y0183346D01*
X0197892Y0183500D01*
X0197890Y0183653D01*
X0198390Y0242153D02*
X0198392Y0242306D01*
X0198398Y0242460D01*
X0198408Y0242613D01*
X0198422Y0242765D01*
X0198440Y0242918D01*
X0198462Y0243069D01*
X0198487Y0243220D01*
X0198517Y0243371D01*
X0198551Y0243521D01*
X0198588Y0243669D01*
X0198629Y0243817D01*
X0198674Y0243963D01*
X0198723Y0244109D01*
X0198776Y0244253D01*
X0198832Y0244395D01*
X0198892Y0244536D01*
X0198956Y0244676D01*
X0199023Y0244814D01*
X0199094Y0244950D01*
X0199169Y0245084D01*
X0199246Y0245216D01*
X0199328Y0245346D01*
X0199412Y0245474D01*
X0199500Y0245600D01*
X0199591Y0245723D01*
X0199685Y0245844D01*
X0199783Y0245962D01*
X0199883Y0246078D01*
X0199987Y0246191D01*
X0200093Y0246302D01*
X0200202Y0246410D01*
X0200314Y0246515D01*
X0200428Y0246616D01*
X0200546Y0246715D01*
X0200665Y0246811D01*
X0200787Y0246904D01*
X0200912Y0246993D01*
X0201039Y0247080D01*
X0201168Y0247162D01*
X0201299Y0247242D01*
X0201432Y0247318D01*
X0201567Y0247391D01*
X0201704Y0247460D01*
X0201843Y0247525D01*
X0201983Y0247587D01*
X0202125Y0247645D01*
X0202268Y0247700D01*
X0202413Y0247751D01*
X0202559Y0247798D01*
X0202706Y0247841D01*
X0202854Y0247880D01*
X0203003Y0247916D01*
X0203153Y0247947D01*
X0203304Y0247975D01*
X0203455Y0247999D01*
X0203608Y0248019D01*
X0203760Y0248035D01*
X0203913Y0248047D01*
X0204066Y0248055D01*
X0204219Y0248059D01*
X0204373Y0248059D01*
X0204526Y0248055D01*
X0204679Y0248047D01*
X0204832Y0248035D01*
X0204984Y0248019D01*
X0205137Y0247999D01*
X0205288Y0247975D01*
X0205439Y0247947D01*
X0205589Y0247916D01*
X0205738Y0247880D01*
X0205886Y0247841D01*
X0206033Y0247798D01*
X0206179Y0247751D01*
X0206324Y0247700D01*
X0206467Y0247645D01*
X0206609Y0247587D01*
X0206749Y0247525D01*
X0206888Y0247460D01*
X0207025Y0247391D01*
X0207160Y0247318D01*
X0207293Y0247242D01*
X0207424Y0247162D01*
X0207553Y0247080D01*
X0207680Y0246993D01*
X0207805Y0246904D01*
X0207927Y0246811D01*
X0208046Y0246715D01*
X0208164Y0246616D01*
X0208278Y0246515D01*
X0208390Y0246410D01*
X0208499Y0246302D01*
X0208605Y0246191D01*
X0208709Y0246078D01*
X0208809Y0245962D01*
X0208907Y0245844D01*
X0209001Y0245723D01*
X0209092Y0245600D01*
X0209180Y0245474D01*
X0209264Y0245346D01*
X0209346Y0245216D01*
X0209423Y0245084D01*
X0209498Y0244950D01*
X0209569Y0244814D01*
X0209636Y0244676D01*
X0209700Y0244536D01*
X0209760Y0244395D01*
X0209816Y0244253D01*
X0209869Y0244109D01*
X0209918Y0243963D01*
X0209963Y0243817D01*
X0210004Y0243669D01*
X0210041Y0243521D01*
X0210075Y0243371D01*
X0210105Y0243220D01*
X0210130Y0243069D01*
X0210152Y0242918D01*
X0210170Y0242765D01*
X0210184Y0242613D01*
X0210194Y0242460D01*
X0210200Y0242306D01*
X0210202Y0242153D01*
X0210200Y0242000D01*
X0210194Y0241846D01*
X0210184Y0241693D01*
X0210170Y0241541D01*
X0210152Y0241388D01*
X0210130Y0241237D01*
X0210105Y0241086D01*
X0210075Y0240935D01*
X0210041Y0240785D01*
X0210004Y0240637D01*
X0209963Y0240489D01*
X0209918Y0240343D01*
X0209869Y0240197D01*
X0209816Y0240053D01*
X0209760Y0239911D01*
X0209700Y0239770D01*
X0209636Y0239630D01*
X0209569Y0239492D01*
X0209498Y0239356D01*
X0209423Y0239222D01*
X0209346Y0239090D01*
X0209264Y0238960D01*
X0209180Y0238832D01*
X0209092Y0238706D01*
X0209001Y0238583D01*
X0208907Y0238462D01*
X0208809Y0238344D01*
X0208709Y0238228D01*
X0208605Y0238115D01*
X0208499Y0238004D01*
X0208390Y0237896D01*
X0208278Y0237791D01*
X0208164Y0237690D01*
X0208046Y0237591D01*
X0207927Y0237495D01*
X0207805Y0237402D01*
X0207680Y0237313D01*
X0207553Y0237226D01*
X0207424Y0237144D01*
X0207293Y0237064D01*
X0207160Y0236988D01*
X0207025Y0236915D01*
X0206888Y0236846D01*
X0206749Y0236781D01*
X0206609Y0236719D01*
X0206467Y0236661D01*
X0206324Y0236606D01*
X0206179Y0236555D01*
X0206033Y0236508D01*
X0205886Y0236465D01*
X0205738Y0236426D01*
X0205589Y0236390D01*
X0205439Y0236359D01*
X0205288Y0236331D01*
X0205137Y0236307D01*
X0204984Y0236287D01*
X0204832Y0236271D01*
X0204679Y0236259D01*
X0204526Y0236251D01*
X0204373Y0236247D01*
X0204219Y0236247D01*
X0204066Y0236251D01*
X0203913Y0236259D01*
X0203760Y0236271D01*
X0203608Y0236287D01*
X0203455Y0236307D01*
X0203304Y0236331D01*
X0203153Y0236359D01*
X0203003Y0236390D01*
X0202854Y0236426D01*
X0202706Y0236465D01*
X0202559Y0236508D01*
X0202413Y0236555D01*
X0202268Y0236606D01*
X0202125Y0236661D01*
X0201983Y0236719D01*
X0201843Y0236781D01*
X0201704Y0236846D01*
X0201567Y0236915D01*
X0201432Y0236988D01*
X0201299Y0237064D01*
X0201168Y0237144D01*
X0201039Y0237226D01*
X0200912Y0237313D01*
X0200787Y0237402D01*
X0200665Y0237495D01*
X0200546Y0237591D01*
X0200428Y0237690D01*
X0200314Y0237791D01*
X0200202Y0237896D01*
X0200093Y0238004D01*
X0199987Y0238115D01*
X0199883Y0238228D01*
X0199783Y0238344D01*
X0199685Y0238462D01*
X0199591Y0238583D01*
X0199500Y0238706D01*
X0199412Y0238832D01*
X0199328Y0238960D01*
X0199246Y0239090D01*
X0199169Y0239222D01*
X0199094Y0239356D01*
X0199023Y0239492D01*
X0198956Y0239630D01*
X0198892Y0239770D01*
X0198832Y0239911D01*
X0198776Y0240053D01*
X0198723Y0240197D01*
X0198674Y0240343D01*
X0198629Y0240489D01*
X0198588Y0240637D01*
X0198551Y0240785D01*
X0198517Y0240935D01*
X0198487Y0241086D01*
X0198462Y0241237D01*
X0198440Y0241388D01*
X0198422Y0241541D01*
X0198408Y0241693D01*
X0198398Y0241846D01*
X0198392Y0242000D01*
X0198390Y0242153D01*
X0198390Y0295653D02*
X0198392Y0295806D01*
X0198398Y0295960D01*
X0198408Y0296113D01*
X0198422Y0296265D01*
X0198440Y0296418D01*
X0198462Y0296569D01*
X0198487Y0296720D01*
X0198517Y0296871D01*
X0198551Y0297021D01*
X0198588Y0297169D01*
X0198629Y0297317D01*
X0198674Y0297463D01*
X0198723Y0297609D01*
X0198776Y0297753D01*
X0198832Y0297895D01*
X0198892Y0298036D01*
X0198956Y0298176D01*
X0199023Y0298314D01*
X0199094Y0298450D01*
X0199169Y0298584D01*
X0199246Y0298716D01*
X0199328Y0298846D01*
X0199412Y0298974D01*
X0199500Y0299100D01*
X0199591Y0299223D01*
X0199685Y0299344D01*
X0199783Y0299462D01*
X0199883Y0299578D01*
X0199987Y0299691D01*
X0200093Y0299802D01*
X0200202Y0299910D01*
X0200314Y0300015D01*
X0200428Y0300116D01*
X0200546Y0300215D01*
X0200665Y0300311D01*
X0200787Y0300404D01*
X0200912Y0300493D01*
X0201039Y0300580D01*
X0201168Y0300662D01*
X0201299Y0300742D01*
X0201432Y0300818D01*
X0201567Y0300891D01*
X0201704Y0300960D01*
X0201843Y0301025D01*
X0201983Y0301087D01*
X0202125Y0301145D01*
X0202268Y0301200D01*
X0202413Y0301251D01*
X0202559Y0301298D01*
X0202706Y0301341D01*
X0202854Y0301380D01*
X0203003Y0301416D01*
X0203153Y0301447D01*
X0203304Y0301475D01*
X0203455Y0301499D01*
X0203608Y0301519D01*
X0203760Y0301535D01*
X0203913Y0301547D01*
X0204066Y0301555D01*
X0204219Y0301559D01*
X0204373Y0301559D01*
X0204526Y0301555D01*
X0204679Y0301547D01*
X0204832Y0301535D01*
X0204984Y0301519D01*
X0205137Y0301499D01*
X0205288Y0301475D01*
X0205439Y0301447D01*
X0205589Y0301416D01*
X0205738Y0301380D01*
X0205886Y0301341D01*
X0206033Y0301298D01*
X0206179Y0301251D01*
X0206324Y0301200D01*
X0206467Y0301145D01*
X0206609Y0301087D01*
X0206749Y0301025D01*
X0206888Y0300960D01*
X0207025Y0300891D01*
X0207160Y0300818D01*
X0207293Y0300742D01*
X0207424Y0300662D01*
X0207553Y0300580D01*
X0207680Y0300493D01*
X0207805Y0300404D01*
X0207927Y0300311D01*
X0208046Y0300215D01*
X0208164Y0300116D01*
X0208278Y0300015D01*
X0208390Y0299910D01*
X0208499Y0299802D01*
X0208605Y0299691D01*
X0208709Y0299578D01*
X0208809Y0299462D01*
X0208907Y0299344D01*
X0209001Y0299223D01*
X0209092Y0299100D01*
X0209180Y0298974D01*
X0209264Y0298846D01*
X0209346Y0298716D01*
X0209423Y0298584D01*
X0209498Y0298450D01*
X0209569Y0298314D01*
X0209636Y0298176D01*
X0209700Y0298036D01*
X0209760Y0297895D01*
X0209816Y0297753D01*
X0209869Y0297609D01*
X0209918Y0297463D01*
X0209963Y0297317D01*
X0210004Y0297169D01*
X0210041Y0297021D01*
X0210075Y0296871D01*
X0210105Y0296720D01*
X0210130Y0296569D01*
X0210152Y0296418D01*
X0210170Y0296265D01*
X0210184Y0296113D01*
X0210194Y0295960D01*
X0210200Y0295806D01*
X0210202Y0295653D01*
X0210200Y0295500D01*
X0210194Y0295346D01*
X0210184Y0295193D01*
X0210170Y0295041D01*
X0210152Y0294888D01*
X0210130Y0294737D01*
X0210105Y0294586D01*
X0210075Y0294435D01*
X0210041Y0294285D01*
X0210004Y0294137D01*
X0209963Y0293989D01*
X0209918Y0293843D01*
X0209869Y0293697D01*
X0209816Y0293553D01*
X0209760Y0293411D01*
X0209700Y0293270D01*
X0209636Y0293130D01*
X0209569Y0292992D01*
X0209498Y0292856D01*
X0209423Y0292722D01*
X0209346Y0292590D01*
X0209264Y0292460D01*
X0209180Y0292332D01*
X0209092Y0292206D01*
X0209001Y0292083D01*
X0208907Y0291962D01*
X0208809Y0291844D01*
X0208709Y0291728D01*
X0208605Y0291615D01*
X0208499Y0291504D01*
X0208390Y0291396D01*
X0208278Y0291291D01*
X0208164Y0291190D01*
X0208046Y0291091D01*
X0207927Y0290995D01*
X0207805Y0290902D01*
X0207680Y0290813D01*
X0207553Y0290726D01*
X0207424Y0290644D01*
X0207293Y0290564D01*
X0207160Y0290488D01*
X0207025Y0290415D01*
X0206888Y0290346D01*
X0206749Y0290281D01*
X0206609Y0290219D01*
X0206467Y0290161D01*
X0206324Y0290106D01*
X0206179Y0290055D01*
X0206033Y0290008D01*
X0205886Y0289965D01*
X0205738Y0289926D01*
X0205589Y0289890D01*
X0205439Y0289859D01*
X0205288Y0289831D01*
X0205137Y0289807D01*
X0204984Y0289787D01*
X0204832Y0289771D01*
X0204679Y0289759D01*
X0204526Y0289751D01*
X0204373Y0289747D01*
X0204219Y0289747D01*
X0204066Y0289751D01*
X0203913Y0289759D01*
X0203760Y0289771D01*
X0203608Y0289787D01*
X0203455Y0289807D01*
X0203304Y0289831D01*
X0203153Y0289859D01*
X0203003Y0289890D01*
X0202854Y0289926D01*
X0202706Y0289965D01*
X0202559Y0290008D01*
X0202413Y0290055D01*
X0202268Y0290106D01*
X0202125Y0290161D01*
X0201983Y0290219D01*
X0201843Y0290281D01*
X0201704Y0290346D01*
X0201567Y0290415D01*
X0201432Y0290488D01*
X0201299Y0290564D01*
X0201168Y0290644D01*
X0201039Y0290726D01*
X0200912Y0290813D01*
X0200787Y0290902D01*
X0200665Y0290995D01*
X0200546Y0291091D01*
X0200428Y0291190D01*
X0200314Y0291291D01*
X0200202Y0291396D01*
X0200093Y0291504D01*
X0199987Y0291615D01*
X0199883Y0291728D01*
X0199783Y0291844D01*
X0199685Y0291962D01*
X0199591Y0292083D01*
X0199500Y0292206D01*
X0199412Y0292332D01*
X0199328Y0292460D01*
X0199246Y0292590D01*
X0199169Y0292722D01*
X0199094Y0292856D01*
X0199023Y0292992D01*
X0198956Y0293130D01*
X0198892Y0293270D01*
X0198832Y0293411D01*
X0198776Y0293553D01*
X0198723Y0293697D01*
X0198674Y0293843D01*
X0198629Y0293989D01*
X0198588Y0294137D01*
X0198551Y0294285D01*
X0198517Y0294435D01*
X0198487Y0294586D01*
X0198462Y0294737D01*
X0198440Y0294888D01*
X0198422Y0295041D01*
X0198408Y0295193D01*
X0198398Y0295346D01*
X0198392Y0295500D01*
X0198390Y0295653D01*
X0198150Y0317598D02*
X0198152Y0317751D01*
X0198158Y0317905D01*
X0198168Y0318058D01*
X0198182Y0318210D01*
X0198200Y0318363D01*
X0198222Y0318514D01*
X0198247Y0318665D01*
X0198277Y0318816D01*
X0198311Y0318966D01*
X0198348Y0319114D01*
X0198389Y0319262D01*
X0198434Y0319408D01*
X0198483Y0319554D01*
X0198536Y0319698D01*
X0198592Y0319840D01*
X0198652Y0319981D01*
X0198716Y0320121D01*
X0198783Y0320259D01*
X0198854Y0320395D01*
X0198929Y0320529D01*
X0199006Y0320661D01*
X0199088Y0320791D01*
X0199172Y0320919D01*
X0199260Y0321045D01*
X0199351Y0321168D01*
X0199445Y0321289D01*
X0199543Y0321407D01*
X0199643Y0321523D01*
X0199747Y0321636D01*
X0199853Y0321747D01*
X0199962Y0321855D01*
X0200074Y0321960D01*
X0200188Y0322061D01*
X0200306Y0322160D01*
X0200425Y0322256D01*
X0200547Y0322349D01*
X0200672Y0322438D01*
X0200799Y0322525D01*
X0200928Y0322607D01*
X0201059Y0322687D01*
X0201192Y0322763D01*
X0201327Y0322836D01*
X0201464Y0322905D01*
X0201603Y0322970D01*
X0201743Y0323032D01*
X0201885Y0323090D01*
X0202028Y0323145D01*
X0202173Y0323196D01*
X0202319Y0323243D01*
X0202466Y0323286D01*
X0202614Y0323325D01*
X0202763Y0323361D01*
X0202913Y0323392D01*
X0203064Y0323420D01*
X0203215Y0323444D01*
X0203368Y0323464D01*
X0203520Y0323480D01*
X0203673Y0323492D01*
X0203826Y0323500D01*
X0203979Y0323504D01*
X0204133Y0323504D01*
X0204286Y0323500D01*
X0204439Y0323492D01*
X0204592Y0323480D01*
X0204744Y0323464D01*
X0204897Y0323444D01*
X0205048Y0323420D01*
X0205199Y0323392D01*
X0205349Y0323361D01*
X0205498Y0323325D01*
X0205646Y0323286D01*
X0205793Y0323243D01*
X0205939Y0323196D01*
X0206084Y0323145D01*
X0206227Y0323090D01*
X0206369Y0323032D01*
X0206509Y0322970D01*
X0206648Y0322905D01*
X0206785Y0322836D01*
X0206920Y0322763D01*
X0207053Y0322687D01*
X0207184Y0322607D01*
X0207313Y0322525D01*
X0207440Y0322438D01*
X0207565Y0322349D01*
X0207687Y0322256D01*
X0207806Y0322160D01*
X0207924Y0322061D01*
X0208038Y0321960D01*
X0208150Y0321855D01*
X0208259Y0321747D01*
X0208365Y0321636D01*
X0208469Y0321523D01*
X0208569Y0321407D01*
X0208667Y0321289D01*
X0208761Y0321168D01*
X0208852Y0321045D01*
X0208940Y0320919D01*
X0209024Y0320791D01*
X0209106Y0320661D01*
X0209183Y0320529D01*
X0209258Y0320395D01*
X0209329Y0320259D01*
X0209396Y0320121D01*
X0209460Y0319981D01*
X0209520Y0319840D01*
X0209576Y0319698D01*
X0209629Y0319554D01*
X0209678Y0319408D01*
X0209723Y0319262D01*
X0209764Y0319114D01*
X0209801Y0318966D01*
X0209835Y0318816D01*
X0209865Y0318665D01*
X0209890Y0318514D01*
X0209912Y0318363D01*
X0209930Y0318210D01*
X0209944Y0318058D01*
X0209954Y0317905D01*
X0209960Y0317751D01*
X0209962Y0317598D01*
X0209960Y0317445D01*
X0209954Y0317291D01*
X0209944Y0317138D01*
X0209930Y0316986D01*
X0209912Y0316833D01*
X0209890Y0316682D01*
X0209865Y0316531D01*
X0209835Y0316380D01*
X0209801Y0316230D01*
X0209764Y0316082D01*
X0209723Y0315934D01*
X0209678Y0315788D01*
X0209629Y0315642D01*
X0209576Y0315498D01*
X0209520Y0315356D01*
X0209460Y0315215D01*
X0209396Y0315075D01*
X0209329Y0314937D01*
X0209258Y0314801D01*
X0209183Y0314667D01*
X0209106Y0314535D01*
X0209024Y0314405D01*
X0208940Y0314277D01*
X0208852Y0314151D01*
X0208761Y0314028D01*
X0208667Y0313907D01*
X0208569Y0313789D01*
X0208469Y0313673D01*
X0208365Y0313560D01*
X0208259Y0313449D01*
X0208150Y0313341D01*
X0208038Y0313236D01*
X0207924Y0313135D01*
X0207806Y0313036D01*
X0207687Y0312940D01*
X0207565Y0312847D01*
X0207440Y0312758D01*
X0207313Y0312671D01*
X0207184Y0312589D01*
X0207053Y0312509D01*
X0206920Y0312433D01*
X0206785Y0312360D01*
X0206648Y0312291D01*
X0206509Y0312226D01*
X0206369Y0312164D01*
X0206227Y0312106D01*
X0206084Y0312051D01*
X0205939Y0312000D01*
X0205793Y0311953D01*
X0205646Y0311910D01*
X0205498Y0311871D01*
X0205349Y0311835D01*
X0205199Y0311804D01*
X0205048Y0311776D01*
X0204897Y0311752D01*
X0204744Y0311732D01*
X0204592Y0311716D01*
X0204439Y0311704D01*
X0204286Y0311696D01*
X0204133Y0311692D01*
X0203979Y0311692D01*
X0203826Y0311696D01*
X0203673Y0311704D01*
X0203520Y0311716D01*
X0203368Y0311732D01*
X0203215Y0311752D01*
X0203064Y0311776D01*
X0202913Y0311804D01*
X0202763Y0311835D01*
X0202614Y0311871D01*
X0202466Y0311910D01*
X0202319Y0311953D01*
X0202173Y0312000D01*
X0202028Y0312051D01*
X0201885Y0312106D01*
X0201743Y0312164D01*
X0201603Y0312226D01*
X0201464Y0312291D01*
X0201327Y0312360D01*
X0201192Y0312433D01*
X0201059Y0312509D01*
X0200928Y0312589D01*
X0200799Y0312671D01*
X0200672Y0312758D01*
X0200547Y0312847D01*
X0200425Y0312940D01*
X0200306Y0313036D01*
X0200188Y0313135D01*
X0200074Y0313236D01*
X0199962Y0313341D01*
X0199853Y0313449D01*
X0199747Y0313560D01*
X0199643Y0313673D01*
X0199543Y0313789D01*
X0199445Y0313907D01*
X0199351Y0314028D01*
X0199260Y0314151D01*
X0199172Y0314277D01*
X0199088Y0314405D01*
X0199006Y0314535D01*
X0198929Y0314667D01*
X0198854Y0314801D01*
X0198783Y0314937D01*
X0198716Y0315075D01*
X0198652Y0315215D01*
X0198592Y0315356D01*
X0198536Y0315498D01*
X0198483Y0315642D01*
X0198434Y0315788D01*
X0198389Y0315934D01*
X0198348Y0316082D01*
X0198311Y0316230D01*
X0198277Y0316380D01*
X0198247Y0316531D01*
X0198222Y0316682D01*
X0198200Y0316833D01*
X0198182Y0316986D01*
X0198168Y0317138D01*
X0198158Y0317291D01*
X0198152Y0317445D01*
X0198150Y0317598D01*
X0172215Y0356968D02*
X0172217Y0357126D01*
X0172223Y0357283D01*
X0172233Y0357441D01*
X0172247Y0357598D01*
X0172265Y0357754D01*
X0172286Y0357911D01*
X0172312Y0358066D01*
X0172342Y0358221D01*
X0172375Y0358375D01*
X0172413Y0358528D01*
X0172454Y0358681D01*
X0172499Y0358832D01*
X0172548Y0358982D01*
X0172601Y0359130D01*
X0172657Y0359278D01*
X0172718Y0359423D01*
X0172781Y0359568D01*
X0172849Y0359710D01*
X0172920Y0359851D01*
X0172994Y0359990D01*
X0173072Y0360127D01*
X0173154Y0360262D01*
X0173238Y0360395D01*
X0173327Y0360526D01*
X0173418Y0360654D01*
X0173513Y0360781D01*
X0173610Y0360904D01*
X0173711Y0361026D01*
X0173815Y0361144D01*
X0173922Y0361260D01*
X0174032Y0361373D01*
X0174144Y0361484D01*
X0174260Y0361591D01*
X0174378Y0361696D01*
X0174498Y0361798D01*
X0174621Y0361896D01*
X0174747Y0361992D01*
X0174875Y0362084D01*
X0175005Y0362173D01*
X0175137Y0362259D01*
X0175272Y0362341D01*
X0175409Y0362420D01*
X0175547Y0362495D01*
X0175687Y0362567D01*
X0175830Y0362635D01*
X0175973Y0362700D01*
X0176119Y0362761D01*
X0176266Y0362818D01*
X0176414Y0362872D01*
X0176564Y0362922D01*
X0176714Y0362968D01*
X0176866Y0363010D01*
X0177019Y0363049D01*
X0177173Y0363083D01*
X0177328Y0363114D01*
X0177483Y0363140D01*
X0177639Y0363163D01*
X0177796Y0363182D01*
X0177953Y0363197D01*
X0178110Y0363208D01*
X0178268Y0363215D01*
X0178426Y0363218D01*
X0178583Y0363217D01*
X0178741Y0363212D01*
X0178898Y0363203D01*
X0179056Y0363190D01*
X0179212Y0363173D01*
X0179369Y0363152D01*
X0179524Y0363128D01*
X0179679Y0363099D01*
X0179834Y0363066D01*
X0179987Y0363030D01*
X0180140Y0362989D01*
X0180291Y0362945D01*
X0180441Y0362897D01*
X0180590Y0362846D01*
X0180738Y0362790D01*
X0180884Y0362731D01*
X0181029Y0362668D01*
X0181172Y0362601D01*
X0181313Y0362531D01*
X0181452Y0362458D01*
X0181590Y0362381D01*
X0181726Y0362300D01*
X0181859Y0362216D01*
X0181990Y0362129D01*
X0182119Y0362038D01*
X0182246Y0361944D01*
X0182371Y0361847D01*
X0182492Y0361747D01*
X0182612Y0361644D01*
X0182728Y0361538D01*
X0182842Y0361429D01*
X0182954Y0361317D01*
X0183062Y0361203D01*
X0183167Y0361085D01*
X0183270Y0360965D01*
X0183369Y0360843D01*
X0183465Y0360718D01*
X0183558Y0360590D01*
X0183648Y0360461D01*
X0183734Y0360329D01*
X0183818Y0360195D01*
X0183897Y0360059D01*
X0183974Y0359921D01*
X0184046Y0359781D01*
X0184115Y0359639D01*
X0184181Y0359496D01*
X0184243Y0359351D01*
X0184301Y0359204D01*
X0184356Y0359056D01*
X0184407Y0358907D01*
X0184454Y0358756D01*
X0184497Y0358605D01*
X0184536Y0358452D01*
X0184572Y0358298D01*
X0184603Y0358144D01*
X0184631Y0357989D01*
X0184655Y0357833D01*
X0184675Y0357676D01*
X0184691Y0357519D01*
X0184703Y0357362D01*
X0184711Y0357205D01*
X0184715Y0357047D01*
X0184715Y0356889D01*
X0184711Y0356731D01*
X0184703Y0356574D01*
X0184691Y0356417D01*
X0184675Y0356260D01*
X0184655Y0356103D01*
X0184631Y0355947D01*
X0184603Y0355792D01*
X0184572Y0355638D01*
X0184536Y0355484D01*
X0184497Y0355331D01*
X0184454Y0355180D01*
X0184407Y0355029D01*
X0184356Y0354880D01*
X0184301Y0354732D01*
X0184243Y0354585D01*
X0184181Y0354440D01*
X0184115Y0354297D01*
X0184046Y0354155D01*
X0183974Y0354015D01*
X0183897Y0353877D01*
X0183818Y0353741D01*
X0183734Y0353607D01*
X0183648Y0353475D01*
X0183558Y0353346D01*
X0183465Y0353218D01*
X0183369Y0353093D01*
X0183270Y0352971D01*
X0183167Y0352851D01*
X0183062Y0352733D01*
X0182954Y0352619D01*
X0182842Y0352507D01*
X0182728Y0352398D01*
X0182612Y0352292D01*
X0182492Y0352189D01*
X0182371Y0352089D01*
X0182246Y0351992D01*
X0182119Y0351898D01*
X0181990Y0351807D01*
X0181859Y0351720D01*
X0181726Y0351636D01*
X0181590Y0351555D01*
X0181452Y0351478D01*
X0181313Y0351405D01*
X0181172Y0351335D01*
X0181029Y0351268D01*
X0180884Y0351205D01*
X0180738Y0351146D01*
X0180590Y0351090D01*
X0180441Y0351039D01*
X0180291Y0350991D01*
X0180140Y0350947D01*
X0179987Y0350906D01*
X0179834Y0350870D01*
X0179679Y0350837D01*
X0179524Y0350808D01*
X0179369Y0350784D01*
X0179212Y0350763D01*
X0179056Y0350746D01*
X0178898Y0350733D01*
X0178741Y0350724D01*
X0178583Y0350719D01*
X0178426Y0350718D01*
X0178268Y0350721D01*
X0178110Y0350728D01*
X0177953Y0350739D01*
X0177796Y0350754D01*
X0177639Y0350773D01*
X0177483Y0350796D01*
X0177328Y0350822D01*
X0177173Y0350853D01*
X0177019Y0350887D01*
X0176866Y0350926D01*
X0176714Y0350968D01*
X0176564Y0351014D01*
X0176414Y0351064D01*
X0176266Y0351118D01*
X0176119Y0351175D01*
X0175973Y0351236D01*
X0175830Y0351301D01*
X0175687Y0351369D01*
X0175547Y0351441D01*
X0175409Y0351516D01*
X0175272Y0351595D01*
X0175137Y0351677D01*
X0175005Y0351763D01*
X0174875Y0351852D01*
X0174747Y0351944D01*
X0174621Y0352040D01*
X0174498Y0352138D01*
X0174378Y0352240D01*
X0174260Y0352345D01*
X0174144Y0352452D01*
X0174032Y0352563D01*
X0173922Y0352676D01*
X0173815Y0352792D01*
X0173711Y0352910D01*
X0173610Y0353032D01*
X0173513Y0353155D01*
X0173418Y0353282D01*
X0173327Y0353410D01*
X0173238Y0353541D01*
X0173154Y0353674D01*
X0173072Y0353809D01*
X0172994Y0353946D01*
X0172920Y0354085D01*
X0172849Y0354226D01*
X0172781Y0354368D01*
X0172718Y0354513D01*
X0172657Y0354658D01*
X0172601Y0354806D01*
X0172548Y0354954D01*
X0172499Y0355104D01*
X0172454Y0355255D01*
X0172413Y0355408D01*
X0172375Y0355561D01*
X0172342Y0355715D01*
X0172312Y0355870D01*
X0172286Y0356025D01*
X0172265Y0356182D01*
X0172247Y0356338D01*
X0172233Y0356495D01*
X0172223Y0356653D01*
X0172217Y0356810D01*
X0172215Y0356968D01*
X0198390Y0360153D02*
X0198392Y0360306D01*
X0198398Y0360460D01*
X0198408Y0360613D01*
X0198422Y0360765D01*
X0198440Y0360918D01*
X0198462Y0361069D01*
X0198487Y0361220D01*
X0198517Y0361371D01*
X0198551Y0361521D01*
X0198588Y0361669D01*
X0198629Y0361817D01*
X0198674Y0361963D01*
X0198723Y0362109D01*
X0198776Y0362253D01*
X0198832Y0362395D01*
X0198892Y0362536D01*
X0198956Y0362676D01*
X0199023Y0362814D01*
X0199094Y0362950D01*
X0199169Y0363084D01*
X0199246Y0363216D01*
X0199328Y0363346D01*
X0199412Y0363474D01*
X0199500Y0363600D01*
X0199591Y0363723D01*
X0199685Y0363844D01*
X0199783Y0363962D01*
X0199883Y0364078D01*
X0199987Y0364191D01*
X0200093Y0364302D01*
X0200202Y0364410D01*
X0200314Y0364515D01*
X0200428Y0364616D01*
X0200546Y0364715D01*
X0200665Y0364811D01*
X0200787Y0364904D01*
X0200912Y0364993D01*
X0201039Y0365080D01*
X0201168Y0365162D01*
X0201299Y0365242D01*
X0201432Y0365318D01*
X0201567Y0365391D01*
X0201704Y0365460D01*
X0201843Y0365525D01*
X0201983Y0365587D01*
X0202125Y0365645D01*
X0202268Y0365700D01*
X0202413Y0365751D01*
X0202559Y0365798D01*
X0202706Y0365841D01*
X0202854Y0365880D01*
X0203003Y0365916D01*
X0203153Y0365947D01*
X0203304Y0365975D01*
X0203455Y0365999D01*
X0203608Y0366019D01*
X0203760Y0366035D01*
X0203913Y0366047D01*
X0204066Y0366055D01*
X0204219Y0366059D01*
X0204373Y0366059D01*
X0204526Y0366055D01*
X0204679Y0366047D01*
X0204832Y0366035D01*
X0204984Y0366019D01*
X0205137Y0365999D01*
X0205288Y0365975D01*
X0205439Y0365947D01*
X0205589Y0365916D01*
X0205738Y0365880D01*
X0205886Y0365841D01*
X0206033Y0365798D01*
X0206179Y0365751D01*
X0206324Y0365700D01*
X0206467Y0365645D01*
X0206609Y0365587D01*
X0206749Y0365525D01*
X0206888Y0365460D01*
X0207025Y0365391D01*
X0207160Y0365318D01*
X0207293Y0365242D01*
X0207424Y0365162D01*
X0207553Y0365080D01*
X0207680Y0364993D01*
X0207805Y0364904D01*
X0207927Y0364811D01*
X0208046Y0364715D01*
X0208164Y0364616D01*
X0208278Y0364515D01*
X0208390Y0364410D01*
X0208499Y0364302D01*
X0208605Y0364191D01*
X0208709Y0364078D01*
X0208809Y0363962D01*
X0208907Y0363844D01*
X0209001Y0363723D01*
X0209092Y0363600D01*
X0209180Y0363474D01*
X0209264Y0363346D01*
X0209346Y0363216D01*
X0209423Y0363084D01*
X0209498Y0362950D01*
X0209569Y0362814D01*
X0209636Y0362676D01*
X0209700Y0362536D01*
X0209760Y0362395D01*
X0209816Y0362253D01*
X0209869Y0362109D01*
X0209918Y0361963D01*
X0209963Y0361817D01*
X0210004Y0361669D01*
X0210041Y0361521D01*
X0210075Y0361371D01*
X0210105Y0361220D01*
X0210130Y0361069D01*
X0210152Y0360918D01*
X0210170Y0360765D01*
X0210184Y0360613D01*
X0210194Y0360460D01*
X0210200Y0360306D01*
X0210202Y0360153D01*
X0210200Y0360000D01*
X0210194Y0359846D01*
X0210184Y0359693D01*
X0210170Y0359541D01*
X0210152Y0359388D01*
X0210130Y0359237D01*
X0210105Y0359086D01*
X0210075Y0358935D01*
X0210041Y0358785D01*
X0210004Y0358637D01*
X0209963Y0358489D01*
X0209918Y0358343D01*
X0209869Y0358197D01*
X0209816Y0358053D01*
X0209760Y0357911D01*
X0209700Y0357770D01*
X0209636Y0357630D01*
X0209569Y0357492D01*
X0209498Y0357356D01*
X0209423Y0357222D01*
X0209346Y0357090D01*
X0209264Y0356960D01*
X0209180Y0356832D01*
X0209092Y0356706D01*
X0209001Y0356583D01*
X0208907Y0356462D01*
X0208809Y0356344D01*
X0208709Y0356228D01*
X0208605Y0356115D01*
X0208499Y0356004D01*
X0208390Y0355896D01*
X0208278Y0355791D01*
X0208164Y0355690D01*
X0208046Y0355591D01*
X0207927Y0355495D01*
X0207805Y0355402D01*
X0207680Y0355313D01*
X0207553Y0355226D01*
X0207424Y0355144D01*
X0207293Y0355064D01*
X0207160Y0354988D01*
X0207025Y0354915D01*
X0206888Y0354846D01*
X0206749Y0354781D01*
X0206609Y0354719D01*
X0206467Y0354661D01*
X0206324Y0354606D01*
X0206179Y0354555D01*
X0206033Y0354508D01*
X0205886Y0354465D01*
X0205738Y0354426D01*
X0205589Y0354390D01*
X0205439Y0354359D01*
X0205288Y0354331D01*
X0205137Y0354307D01*
X0204984Y0354287D01*
X0204832Y0354271D01*
X0204679Y0354259D01*
X0204526Y0354251D01*
X0204373Y0354247D01*
X0204219Y0354247D01*
X0204066Y0354251D01*
X0203913Y0354259D01*
X0203760Y0354271D01*
X0203608Y0354287D01*
X0203455Y0354307D01*
X0203304Y0354331D01*
X0203153Y0354359D01*
X0203003Y0354390D01*
X0202854Y0354426D01*
X0202706Y0354465D01*
X0202559Y0354508D01*
X0202413Y0354555D01*
X0202268Y0354606D01*
X0202125Y0354661D01*
X0201983Y0354719D01*
X0201843Y0354781D01*
X0201704Y0354846D01*
X0201567Y0354915D01*
X0201432Y0354988D01*
X0201299Y0355064D01*
X0201168Y0355144D01*
X0201039Y0355226D01*
X0200912Y0355313D01*
X0200787Y0355402D01*
X0200665Y0355495D01*
X0200546Y0355591D01*
X0200428Y0355690D01*
X0200314Y0355791D01*
X0200202Y0355896D01*
X0200093Y0356004D01*
X0199987Y0356115D01*
X0199883Y0356228D01*
X0199783Y0356344D01*
X0199685Y0356462D01*
X0199591Y0356583D01*
X0199500Y0356706D01*
X0199412Y0356832D01*
X0199328Y0356960D01*
X0199246Y0357090D01*
X0199169Y0357222D01*
X0199094Y0357356D01*
X0199023Y0357492D01*
X0198956Y0357630D01*
X0198892Y0357770D01*
X0198832Y0357911D01*
X0198776Y0358053D01*
X0198723Y0358197D01*
X0198674Y0358343D01*
X0198629Y0358489D01*
X0198588Y0358637D01*
X0198551Y0358785D01*
X0198517Y0358935D01*
X0198487Y0359086D01*
X0198462Y0359237D01*
X0198440Y0359388D01*
X0198422Y0359541D01*
X0198408Y0359693D01*
X0198398Y0359846D01*
X0198392Y0360000D01*
X0198390Y0360153D01*
X0231270Y0388464D02*
X0231272Y0388622D01*
X0231278Y0388779D01*
X0231288Y0388937D01*
X0231302Y0389094D01*
X0231320Y0389250D01*
X0231341Y0389407D01*
X0231367Y0389562D01*
X0231397Y0389717D01*
X0231430Y0389871D01*
X0231468Y0390024D01*
X0231509Y0390177D01*
X0231554Y0390328D01*
X0231603Y0390478D01*
X0231656Y0390626D01*
X0231712Y0390774D01*
X0231773Y0390919D01*
X0231836Y0391064D01*
X0231904Y0391206D01*
X0231975Y0391347D01*
X0232049Y0391486D01*
X0232127Y0391623D01*
X0232209Y0391758D01*
X0232293Y0391891D01*
X0232382Y0392022D01*
X0232473Y0392150D01*
X0232568Y0392277D01*
X0232665Y0392400D01*
X0232766Y0392522D01*
X0232870Y0392640D01*
X0232977Y0392756D01*
X0233087Y0392869D01*
X0233199Y0392980D01*
X0233315Y0393087D01*
X0233433Y0393192D01*
X0233553Y0393294D01*
X0233676Y0393392D01*
X0233802Y0393488D01*
X0233930Y0393580D01*
X0234060Y0393669D01*
X0234192Y0393755D01*
X0234327Y0393837D01*
X0234464Y0393916D01*
X0234602Y0393991D01*
X0234742Y0394063D01*
X0234885Y0394131D01*
X0235028Y0394196D01*
X0235174Y0394257D01*
X0235321Y0394314D01*
X0235469Y0394368D01*
X0235619Y0394418D01*
X0235769Y0394464D01*
X0235921Y0394506D01*
X0236074Y0394545D01*
X0236228Y0394579D01*
X0236383Y0394610D01*
X0236538Y0394636D01*
X0236694Y0394659D01*
X0236851Y0394678D01*
X0237008Y0394693D01*
X0237165Y0394704D01*
X0237323Y0394711D01*
X0237481Y0394714D01*
X0237638Y0394713D01*
X0237796Y0394708D01*
X0237953Y0394699D01*
X0238111Y0394686D01*
X0238267Y0394669D01*
X0238424Y0394648D01*
X0238579Y0394624D01*
X0238734Y0394595D01*
X0238889Y0394562D01*
X0239042Y0394526D01*
X0239195Y0394485D01*
X0239346Y0394441D01*
X0239496Y0394393D01*
X0239645Y0394342D01*
X0239793Y0394286D01*
X0239939Y0394227D01*
X0240084Y0394164D01*
X0240227Y0394097D01*
X0240368Y0394027D01*
X0240507Y0393954D01*
X0240645Y0393877D01*
X0240781Y0393796D01*
X0240914Y0393712D01*
X0241045Y0393625D01*
X0241174Y0393534D01*
X0241301Y0393440D01*
X0241426Y0393343D01*
X0241547Y0393243D01*
X0241667Y0393140D01*
X0241783Y0393034D01*
X0241897Y0392925D01*
X0242009Y0392813D01*
X0242117Y0392699D01*
X0242222Y0392581D01*
X0242325Y0392461D01*
X0242424Y0392339D01*
X0242520Y0392214D01*
X0242613Y0392086D01*
X0242703Y0391957D01*
X0242789Y0391825D01*
X0242873Y0391691D01*
X0242952Y0391555D01*
X0243029Y0391417D01*
X0243101Y0391277D01*
X0243170Y0391135D01*
X0243236Y0390992D01*
X0243298Y0390847D01*
X0243356Y0390700D01*
X0243411Y0390552D01*
X0243462Y0390403D01*
X0243509Y0390252D01*
X0243552Y0390101D01*
X0243591Y0389948D01*
X0243627Y0389794D01*
X0243658Y0389640D01*
X0243686Y0389485D01*
X0243710Y0389329D01*
X0243730Y0389172D01*
X0243746Y0389015D01*
X0243758Y0388858D01*
X0243766Y0388701D01*
X0243770Y0388543D01*
X0243770Y0388385D01*
X0243766Y0388227D01*
X0243758Y0388070D01*
X0243746Y0387913D01*
X0243730Y0387756D01*
X0243710Y0387599D01*
X0243686Y0387443D01*
X0243658Y0387288D01*
X0243627Y0387134D01*
X0243591Y0386980D01*
X0243552Y0386827D01*
X0243509Y0386676D01*
X0243462Y0386525D01*
X0243411Y0386376D01*
X0243356Y0386228D01*
X0243298Y0386081D01*
X0243236Y0385936D01*
X0243170Y0385793D01*
X0243101Y0385651D01*
X0243029Y0385511D01*
X0242952Y0385373D01*
X0242873Y0385237D01*
X0242789Y0385103D01*
X0242703Y0384971D01*
X0242613Y0384842D01*
X0242520Y0384714D01*
X0242424Y0384589D01*
X0242325Y0384467D01*
X0242222Y0384347D01*
X0242117Y0384229D01*
X0242009Y0384115D01*
X0241897Y0384003D01*
X0241783Y0383894D01*
X0241667Y0383788D01*
X0241547Y0383685D01*
X0241426Y0383585D01*
X0241301Y0383488D01*
X0241174Y0383394D01*
X0241045Y0383303D01*
X0240914Y0383216D01*
X0240781Y0383132D01*
X0240645Y0383051D01*
X0240507Y0382974D01*
X0240368Y0382901D01*
X0240227Y0382831D01*
X0240084Y0382764D01*
X0239939Y0382701D01*
X0239793Y0382642D01*
X0239645Y0382586D01*
X0239496Y0382535D01*
X0239346Y0382487D01*
X0239195Y0382443D01*
X0239042Y0382402D01*
X0238889Y0382366D01*
X0238734Y0382333D01*
X0238579Y0382304D01*
X0238424Y0382280D01*
X0238267Y0382259D01*
X0238111Y0382242D01*
X0237953Y0382229D01*
X0237796Y0382220D01*
X0237638Y0382215D01*
X0237481Y0382214D01*
X0237323Y0382217D01*
X0237165Y0382224D01*
X0237008Y0382235D01*
X0236851Y0382250D01*
X0236694Y0382269D01*
X0236538Y0382292D01*
X0236383Y0382318D01*
X0236228Y0382349D01*
X0236074Y0382383D01*
X0235921Y0382422D01*
X0235769Y0382464D01*
X0235619Y0382510D01*
X0235469Y0382560D01*
X0235321Y0382614D01*
X0235174Y0382671D01*
X0235028Y0382732D01*
X0234885Y0382797D01*
X0234742Y0382865D01*
X0234602Y0382937D01*
X0234464Y0383012D01*
X0234327Y0383091D01*
X0234192Y0383173D01*
X0234060Y0383259D01*
X0233930Y0383348D01*
X0233802Y0383440D01*
X0233676Y0383536D01*
X0233553Y0383634D01*
X0233433Y0383736D01*
X0233315Y0383841D01*
X0233199Y0383948D01*
X0233087Y0384059D01*
X0232977Y0384172D01*
X0232870Y0384288D01*
X0232766Y0384406D01*
X0232665Y0384528D01*
X0232568Y0384651D01*
X0232473Y0384778D01*
X0232382Y0384906D01*
X0232293Y0385037D01*
X0232209Y0385170D01*
X0232127Y0385305D01*
X0232049Y0385442D01*
X0231975Y0385581D01*
X0231904Y0385722D01*
X0231836Y0385864D01*
X0231773Y0386009D01*
X0231712Y0386154D01*
X0231656Y0386302D01*
X0231603Y0386450D01*
X0231554Y0386600D01*
X0231509Y0386751D01*
X0231468Y0386904D01*
X0231430Y0387057D01*
X0231397Y0387211D01*
X0231367Y0387366D01*
X0231341Y0387521D01*
X0231320Y0387678D01*
X0231302Y0387834D01*
X0231288Y0387991D01*
X0231278Y0388149D01*
X0231272Y0388306D01*
X0231270Y0388464D01*
X0235398Y0360153D02*
X0235400Y0360306D01*
X0235406Y0360460D01*
X0235416Y0360613D01*
X0235430Y0360765D01*
X0235448Y0360918D01*
X0235470Y0361069D01*
X0235495Y0361220D01*
X0235525Y0361371D01*
X0235559Y0361521D01*
X0235596Y0361669D01*
X0235637Y0361817D01*
X0235682Y0361963D01*
X0235731Y0362109D01*
X0235784Y0362253D01*
X0235840Y0362395D01*
X0235900Y0362536D01*
X0235964Y0362676D01*
X0236031Y0362814D01*
X0236102Y0362950D01*
X0236177Y0363084D01*
X0236254Y0363216D01*
X0236336Y0363346D01*
X0236420Y0363474D01*
X0236508Y0363600D01*
X0236599Y0363723D01*
X0236693Y0363844D01*
X0236791Y0363962D01*
X0236891Y0364078D01*
X0236995Y0364191D01*
X0237101Y0364302D01*
X0237210Y0364410D01*
X0237322Y0364515D01*
X0237436Y0364616D01*
X0237554Y0364715D01*
X0237673Y0364811D01*
X0237795Y0364904D01*
X0237920Y0364993D01*
X0238047Y0365080D01*
X0238176Y0365162D01*
X0238307Y0365242D01*
X0238440Y0365318D01*
X0238575Y0365391D01*
X0238712Y0365460D01*
X0238851Y0365525D01*
X0238991Y0365587D01*
X0239133Y0365645D01*
X0239276Y0365700D01*
X0239421Y0365751D01*
X0239567Y0365798D01*
X0239714Y0365841D01*
X0239862Y0365880D01*
X0240011Y0365916D01*
X0240161Y0365947D01*
X0240312Y0365975D01*
X0240463Y0365999D01*
X0240616Y0366019D01*
X0240768Y0366035D01*
X0240921Y0366047D01*
X0241074Y0366055D01*
X0241227Y0366059D01*
X0241381Y0366059D01*
X0241534Y0366055D01*
X0241687Y0366047D01*
X0241840Y0366035D01*
X0241992Y0366019D01*
X0242145Y0365999D01*
X0242296Y0365975D01*
X0242447Y0365947D01*
X0242597Y0365916D01*
X0242746Y0365880D01*
X0242894Y0365841D01*
X0243041Y0365798D01*
X0243187Y0365751D01*
X0243332Y0365700D01*
X0243475Y0365645D01*
X0243617Y0365587D01*
X0243757Y0365525D01*
X0243896Y0365460D01*
X0244033Y0365391D01*
X0244168Y0365318D01*
X0244301Y0365242D01*
X0244432Y0365162D01*
X0244561Y0365080D01*
X0244688Y0364993D01*
X0244813Y0364904D01*
X0244935Y0364811D01*
X0245054Y0364715D01*
X0245172Y0364616D01*
X0245286Y0364515D01*
X0245398Y0364410D01*
X0245507Y0364302D01*
X0245613Y0364191D01*
X0245717Y0364078D01*
X0245817Y0363962D01*
X0245915Y0363844D01*
X0246009Y0363723D01*
X0246100Y0363600D01*
X0246188Y0363474D01*
X0246272Y0363346D01*
X0246354Y0363216D01*
X0246431Y0363084D01*
X0246506Y0362950D01*
X0246577Y0362814D01*
X0246644Y0362676D01*
X0246708Y0362536D01*
X0246768Y0362395D01*
X0246824Y0362253D01*
X0246877Y0362109D01*
X0246926Y0361963D01*
X0246971Y0361817D01*
X0247012Y0361669D01*
X0247049Y0361521D01*
X0247083Y0361371D01*
X0247113Y0361220D01*
X0247138Y0361069D01*
X0247160Y0360918D01*
X0247178Y0360765D01*
X0247192Y0360613D01*
X0247202Y0360460D01*
X0247208Y0360306D01*
X0247210Y0360153D01*
X0247208Y0360000D01*
X0247202Y0359846D01*
X0247192Y0359693D01*
X0247178Y0359541D01*
X0247160Y0359388D01*
X0247138Y0359237D01*
X0247113Y0359086D01*
X0247083Y0358935D01*
X0247049Y0358785D01*
X0247012Y0358637D01*
X0246971Y0358489D01*
X0246926Y0358343D01*
X0246877Y0358197D01*
X0246824Y0358053D01*
X0246768Y0357911D01*
X0246708Y0357770D01*
X0246644Y0357630D01*
X0246577Y0357492D01*
X0246506Y0357356D01*
X0246431Y0357222D01*
X0246354Y0357090D01*
X0246272Y0356960D01*
X0246188Y0356832D01*
X0246100Y0356706D01*
X0246009Y0356583D01*
X0245915Y0356462D01*
X0245817Y0356344D01*
X0245717Y0356228D01*
X0245613Y0356115D01*
X0245507Y0356004D01*
X0245398Y0355896D01*
X0245286Y0355791D01*
X0245172Y0355690D01*
X0245054Y0355591D01*
X0244935Y0355495D01*
X0244813Y0355402D01*
X0244688Y0355313D01*
X0244561Y0355226D01*
X0244432Y0355144D01*
X0244301Y0355064D01*
X0244168Y0354988D01*
X0244033Y0354915D01*
X0243896Y0354846D01*
X0243757Y0354781D01*
X0243617Y0354719D01*
X0243475Y0354661D01*
X0243332Y0354606D01*
X0243187Y0354555D01*
X0243041Y0354508D01*
X0242894Y0354465D01*
X0242746Y0354426D01*
X0242597Y0354390D01*
X0242447Y0354359D01*
X0242296Y0354331D01*
X0242145Y0354307D01*
X0241992Y0354287D01*
X0241840Y0354271D01*
X0241687Y0354259D01*
X0241534Y0354251D01*
X0241381Y0354247D01*
X0241227Y0354247D01*
X0241074Y0354251D01*
X0240921Y0354259D01*
X0240768Y0354271D01*
X0240616Y0354287D01*
X0240463Y0354307D01*
X0240312Y0354331D01*
X0240161Y0354359D01*
X0240011Y0354390D01*
X0239862Y0354426D01*
X0239714Y0354465D01*
X0239567Y0354508D01*
X0239421Y0354555D01*
X0239276Y0354606D01*
X0239133Y0354661D01*
X0238991Y0354719D01*
X0238851Y0354781D01*
X0238712Y0354846D01*
X0238575Y0354915D01*
X0238440Y0354988D01*
X0238307Y0355064D01*
X0238176Y0355144D01*
X0238047Y0355226D01*
X0237920Y0355313D01*
X0237795Y0355402D01*
X0237673Y0355495D01*
X0237554Y0355591D01*
X0237436Y0355690D01*
X0237322Y0355791D01*
X0237210Y0355896D01*
X0237101Y0356004D01*
X0236995Y0356115D01*
X0236891Y0356228D01*
X0236791Y0356344D01*
X0236693Y0356462D01*
X0236599Y0356583D01*
X0236508Y0356706D01*
X0236420Y0356832D01*
X0236336Y0356960D01*
X0236254Y0357090D01*
X0236177Y0357222D01*
X0236102Y0357356D01*
X0236031Y0357492D01*
X0235964Y0357630D01*
X0235900Y0357770D01*
X0235840Y0357911D01*
X0235784Y0358053D01*
X0235731Y0358197D01*
X0235682Y0358343D01*
X0235637Y0358489D01*
X0235596Y0358637D01*
X0235559Y0358785D01*
X0235525Y0358935D01*
X0235495Y0359086D01*
X0235470Y0359237D01*
X0235448Y0359388D01*
X0235430Y0359541D01*
X0235416Y0359693D01*
X0235406Y0359846D01*
X0235400Y0360000D01*
X0235398Y0360153D01*
X0235398Y0295653D02*
X0235400Y0295806D01*
X0235406Y0295960D01*
X0235416Y0296113D01*
X0235430Y0296265D01*
X0235448Y0296418D01*
X0235470Y0296569D01*
X0235495Y0296720D01*
X0235525Y0296871D01*
X0235559Y0297021D01*
X0235596Y0297169D01*
X0235637Y0297317D01*
X0235682Y0297463D01*
X0235731Y0297609D01*
X0235784Y0297753D01*
X0235840Y0297895D01*
X0235900Y0298036D01*
X0235964Y0298176D01*
X0236031Y0298314D01*
X0236102Y0298450D01*
X0236177Y0298584D01*
X0236254Y0298716D01*
X0236336Y0298846D01*
X0236420Y0298974D01*
X0236508Y0299100D01*
X0236599Y0299223D01*
X0236693Y0299344D01*
X0236791Y0299462D01*
X0236891Y0299578D01*
X0236995Y0299691D01*
X0237101Y0299802D01*
X0237210Y0299910D01*
X0237322Y0300015D01*
X0237436Y0300116D01*
X0237554Y0300215D01*
X0237673Y0300311D01*
X0237795Y0300404D01*
X0237920Y0300493D01*
X0238047Y0300580D01*
X0238176Y0300662D01*
X0238307Y0300742D01*
X0238440Y0300818D01*
X0238575Y0300891D01*
X0238712Y0300960D01*
X0238851Y0301025D01*
X0238991Y0301087D01*
X0239133Y0301145D01*
X0239276Y0301200D01*
X0239421Y0301251D01*
X0239567Y0301298D01*
X0239714Y0301341D01*
X0239862Y0301380D01*
X0240011Y0301416D01*
X0240161Y0301447D01*
X0240312Y0301475D01*
X0240463Y0301499D01*
X0240616Y0301519D01*
X0240768Y0301535D01*
X0240921Y0301547D01*
X0241074Y0301555D01*
X0241227Y0301559D01*
X0241381Y0301559D01*
X0241534Y0301555D01*
X0241687Y0301547D01*
X0241840Y0301535D01*
X0241992Y0301519D01*
X0242145Y0301499D01*
X0242296Y0301475D01*
X0242447Y0301447D01*
X0242597Y0301416D01*
X0242746Y0301380D01*
X0242894Y0301341D01*
X0243041Y0301298D01*
X0243187Y0301251D01*
X0243332Y0301200D01*
X0243475Y0301145D01*
X0243617Y0301087D01*
X0243757Y0301025D01*
X0243896Y0300960D01*
X0244033Y0300891D01*
X0244168Y0300818D01*
X0244301Y0300742D01*
X0244432Y0300662D01*
X0244561Y0300580D01*
X0244688Y0300493D01*
X0244813Y0300404D01*
X0244935Y0300311D01*
X0245054Y0300215D01*
X0245172Y0300116D01*
X0245286Y0300015D01*
X0245398Y0299910D01*
X0245507Y0299802D01*
X0245613Y0299691D01*
X0245717Y0299578D01*
X0245817Y0299462D01*
X0245915Y0299344D01*
X0246009Y0299223D01*
X0246100Y0299100D01*
X0246188Y0298974D01*
X0246272Y0298846D01*
X0246354Y0298716D01*
X0246431Y0298584D01*
X0246506Y0298450D01*
X0246577Y0298314D01*
X0246644Y0298176D01*
X0246708Y0298036D01*
X0246768Y0297895D01*
X0246824Y0297753D01*
X0246877Y0297609D01*
X0246926Y0297463D01*
X0246971Y0297317D01*
X0247012Y0297169D01*
X0247049Y0297021D01*
X0247083Y0296871D01*
X0247113Y0296720D01*
X0247138Y0296569D01*
X0247160Y0296418D01*
X0247178Y0296265D01*
X0247192Y0296113D01*
X0247202Y0295960D01*
X0247208Y0295806D01*
X0247210Y0295653D01*
X0247208Y0295500D01*
X0247202Y0295346D01*
X0247192Y0295193D01*
X0247178Y0295041D01*
X0247160Y0294888D01*
X0247138Y0294737D01*
X0247113Y0294586D01*
X0247083Y0294435D01*
X0247049Y0294285D01*
X0247012Y0294137D01*
X0246971Y0293989D01*
X0246926Y0293843D01*
X0246877Y0293697D01*
X0246824Y0293553D01*
X0246768Y0293411D01*
X0246708Y0293270D01*
X0246644Y0293130D01*
X0246577Y0292992D01*
X0246506Y0292856D01*
X0246431Y0292722D01*
X0246354Y0292590D01*
X0246272Y0292460D01*
X0246188Y0292332D01*
X0246100Y0292206D01*
X0246009Y0292083D01*
X0245915Y0291962D01*
X0245817Y0291844D01*
X0245717Y0291728D01*
X0245613Y0291615D01*
X0245507Y0291504D01*
X0245398Y0291396D01*
X0245286Y0291291D01*
X0245172Y0291190D01*
X0245054Y0291091D01*
X0244935Y0290995D01*
X0244813Y0290902D01*
X0244688Y0290813D01*
X0244561Y0290726D01*
X0244432Y0290644D01*
X0244301Y0290564D01*
X0244168Y0290488D01*
X0244033Y0290415D01*
X0243896Y0290346D01*
X0243757Y0290281D01*
X0243617Y0290219D01*
X0243475Y0290161D01*
X0243332Y0290106D01*
X0243187Y0290055D01*
X0243041Y0290008D01*
X0242894Y0289965D01*
X0242746Y0289926D01*
X0242597Y0289890D01*
X0242447Y0289859D01*
X0242296Y0289831D01*
X0242145Y0289807D01*
X0241992Y0289787D01*
X0241840Y0289771D01*
X0241687Y0289759D01*
X0241534Y0289751D01*
X0241381Y0289747D01*
X0241227Y0289747D01*
X0241074Y0289751D01*
X0240921Y0289759D01*
X0240768Y0289771D01*
X0240616Y0289787D01*
X0240463Y0289807D01*
X0240312Y0289831D01*
X0240161Y0289859D01*
X0240011Y0289890D01*
X0239862Y0289926D01*
X0239714Y0289965D01*
X0239567Y0290008D01*
X0239421Y0290055D01*
X0239276Y0290106D01*
X0239133Y0290161D01*
X0238991Y0290219D01*
X0238851Y0290281D01*
X0238712Y0290346D01*
X0238575Y0290415D01*
X0238440Y0290488D01*
X0238307Y0290564D01*
X0238176Y0290644D01*
X0238047Y0290726D01*
X0237920Y0290813D01*
X0237795Y0290902D01*
X0237673Y0290995D01*
X0237554Y0291091D01*
X0237436Y0291190D01*
X0237322Y0291291D01*
X0237210Y0291396D01*
X0237101Y0291504D01*
X0236995Y0291615D01*
X0236891Y0291728D01*
X0236791Y0291844D01*
X0236693Y0291962D01*
X0236599Y0292083D01*
X0236508Y0292206D01*
X0236420Y0292332D01*
X0236336Y0292460D01*
X0236254Y0292590D01*
X0236177Y0292722D01*
X0236102Y0292856D01*
X0236031Y0292992D01*
X0235964Y0293130D01*
X0235900Y0293270D01*
X0235840Y0293411D01*
X0235784Y0293553D01*
X0235731Y0293697D01*
X0235682Y0293843D01*
X0235637Y0293989D01*
X0235596Y0294137D01*
X0235559Y0294285D01*
X0235525Y0294435D01*
X0235495Y0294586D01*
X0235470Y0294737D01*
X0235448Y0294888D01*
X0235430Y0295041D01*
X0235416Y0295193D01*
X0235406Y0295346D01*
X0235400Y0295500D01*
X0235398Y0295653D01*
X0235398Y0242153D02*
X0235400Y0242306D01*
X0235406Y0242460D01*
X0235416Y0242613D01*
X0235430Y0242765D01*
X0235448Y0242918D01*
X0235470Y0243069D01*
X0235495Y0243220D01*
X0235525Y0243371D01*
X0235559Y0243521D01*
X0235596Y0243669D01*
X0235637Y0243817D01*
X0235682Y0243963D01*
X0235731Y0244109D01*
X0235784Y0244253D01*
X0235840Y0244395D01*
X0235900Y0244536D01*
X0235964Y0244676D01*
X0236031Y0244814D01*
X0236102Y0244950D01*
X0236177Y0245084D01*
X0236254Y0245216D01*
X0236336Y0245346D01*
X0236420Y0245474D01*
X0236508Y0245600D01*
X0236599Y0245723D01*
X0236693Y0245844D01*
X0236791Y0245962D01*
X0236891Y0246078D01*
X0236995Y0246191D01*
X0237101Y0246302D01*
X0237210Y0246410D01*
X0237322Y0246515D01*
X0237436Y0246616D01*
X0237554Y0246715D01*
X0237673Y0246811D01*
X0237795Y0246904D01*
X0237920Y0246993D01*
X0238047Y0247080D01*
X0238176Y0247162D01*
X0238307Y0247242D01*
X0238440Y0247318D01*
X0238575Y0247391D01*
X0238712Y0247460D01*
X0238851Y0247525D01*
X0238991Y0247587D01*
X0239133Y0247645D01*
X0239276Y0247700D01*
X0239421Y0247751D01*
X0239567Y0247798D01*
X0239714Y0247841D01*
X0239862Y0247880D01*
X0240011Y0247916D01*
X0240161Y0247947D01*
X0240312Y0247975D01*
X0240463Y0247999D01*
X0240616Y0248019D01*
X0240768Y0248035D01*
X0240921Y0248047D01*
X0241074Y0248055D01*
X0241227Y0248059D01*
X0241381Y0248059D01*
X0241534Y0248055D01*
X0241687Y0248047D01*
X0241840Y0248035D01*
X0241992Y0248019D01*
X0242145Y0247999D01*
X0242296Y0247975D01*
X0242447Y0247947D01*
X0242597Y0247916D01*
X0242746Y0247880D01*
X0242894Y0247841D01*
X0243041Y0247798D01*
X0243187Y0247751D01*
X0243332Y0247700D01*
X0243475Y0247645D01*
X0243617Y0247587D01*
X0243757Y0247525D01*
X0243896Y0247460D01*
X0244033Y0247391D01*
X0244168Y0247318D01*
X0244301Y0247242D01*
X0244432Y0247162D01*
X0244561Y0247080D01*
X0244688Y0246993D01*
X0244813Y0246904D01*
X0244935Y0246811D01*
X0245054Y0246715D01*
X0245172Y0246616D01*
X0245286Y0246515D01*
X0245398Y0246410D01*
X0245507Y0246302D01*
X0245613Y0246191D01*
X0245717Y0246078D01*
X0245817Y0245962D01*
X0245915Y0245844D01*
X0246009Y0245723D01*
X0246100Y0245600D01*
X0246188Y0245474D01*
X0246272Y0245346D01*
X0246354Y0245216D01*
X0246431Y0245084D01*
X0246506Y0244950D01*
X0246577Y0244814D01*
X0246644Y0244676D01*
X0246708Y0244536D01*
X0246768Y0244395D01*
X0246824Y0244253D01*
X0246877Y0244109D01*
X0246926Y0243963D01*
X0246971Y0243817D01*
X0247012Y0243669D01*
X0247049Y0243521D01*
X0247083Y0243371D01*
X0247113Y0243220D01*
X0247138Y0243069D01*
X0247160Y0242918D01*
X0247178Y0242765D01*
X0247192Y0242613D01*
X0247202Y0242460D01*
X0247208Y0242306D01*
X0247210Y0242153D01*
X0247208Y0242000D01*
X0247202Y0241846D01*
X0247192Y0241693D01*
X0247178Y0241541D01*
X0247160Y0241388D01*
X0247138Y0241237D01*
X0247113Y0241086D01*
X0247083Y0240935D01*
X0247049Y0240785D01*
X0247012Y0240637D01*
X0246971Y0240489D01*
X0246926Y0240343D01*
X0246877Y0240197D01*
X0246824Y0240053D01*
X0246768Y0239911D01*
X0246708Y0239770D01*
X0246644Y0239630D01*
X0246577Y0239492D01*
X0246506Y0239356D01*
X0246431Y0239222D01*
X0246354Y0239090D01*
X0246272Y0238960D01*
X0246188Y0238832D01*
X0246100Y0238706D01*
X0246009Y0238583D01*
X0245915Y0238462D01*
X0245817Y0238344D01*
X0245717Y0238228D01*
X0245613Y0238115D01*
X0245507Y0238004D01*
X0245398Y0237896D01*
X0245286Y0237791D01*
X0245172Y0237690D01*
X0245054Y0237591D01*
X0244935Y0237495D01*
X0244813Y0237402D01*
X0244688Y0237313D01*
X0244561Y0237226D01*
X0244432Y0237144D01*
X0244301Y0237064D01*
X0244168Y0236988D01*
X0244033Y0236915D01*
X0243896Y0236846D01*
X0243757Y0236781D01*
X0243617Y0236719D01*
X0243475Y0236661D01*
X0243332Y0236606D01*
X0243187Y0236555D01*
X0243041Y0236508D01*
X0242894Y0236465D01*
X0242746Y0236426D01*
X0242597Y0236390D01*
X0242447Y0236359D01*
X0242296Y0236331D01*
X0242145Y0236307D01*
X0241992Y0236287D01*
X0241840Y0236271D01*
X0241687Y0236259D01*
X0241534Y0236251D01*
X0241381Y0236247D01*
X0241227Y0236247D01*
X0241074Y0236251D01*
X0240921Y0236259D01*
X0240768Y0236271D01*
X0240616Y0236287D01*
X0240463Y0236307D01*
X0240312Y0236331D01*
X0240161Y0236359D01*
X0240011Y0236390D01*
X0239862Y0236426D01*
X0239714Y0236465D01*
X0239567Y0236508D01*
X0239421Y0236555D01*
X0239276Y0236606D01*
X0239133Y0236661D01*
X0238991Y0236719D01*
X0238851Y0236781D01*
X0238712Y0236846D01*
X0238575Y0236915D01*
X0238440Y0236988D01*
X0238307Y0237064D01*
X0238176Y0237144D01*
X0238047Y0237226D01*
X0237920Y0237313D01*
X0237795Y0237402D01*
X0237673Y0237495D01*
X0237554Y0237591D01*
X0237436Y0237690D01*
X0237322Y0237791D01*
X0237210Y0237896D01*
X0237101Y0238004D01*
X0236995Y0238115D01*
X0236891Y0238228D01*
X0236791Y0238344D01*
X0236693Y0238462D01*
X0236599Y0238583D01*
X0236508Y0238706D01*
X0236420Y0238832D01*
X0236336Y0238960D01*
X0236254Y0239090D01*
X0236177Y0239222D01*
X0236102Y0239356D01*
X0236031Y0239492D01*
X0235964Y0239630D01*
X0235900Y0239770D01*
X0235840Y0239911D01*
X0235784Y0240053D01*
X0235731Y0240197D01*
X0235682Y0240343D01*
X0235637Y0240489D01*
X0235596Y0240637D01*
X0235559Y0240785D01*
X0235525Y0240935D01*
X0235495Y0241086D01*
X0235470Y0241237D01*
X0235448Y0241388D01*
X0235430Y0241541D01*
X0235416Y0241693D01*
X0235406Y0241846D01*
X0235400Y0242000D01*
X0235398Y0242153D01*
X0234898Y0183653D02*
X0234900Y0183806D01*
X0234906Y0183960D01*
X0234916Y0184113D01*
X0234930Y0184265D01*
X0234948Y0184418D01*
X0234970Y0184569D01*
X0234995Y0184720D01*
X0235025Y0184871D01*
X0235059Y0185021D01*
X0235096Y0185169D01*
X0235137Y0185317D01*
X0235182Y0185463D01*
X0235231Y0185609D01*
X0235284Y0185753D01*
X0235340Y0185895D01*
X0235400Y0186036D01*
X0235464Y0186176D01*
X0235531Y0186314D01*
X0235602Y0186450D01*
X0235677Y0186584D01*
X0235754Y0186716D01*
X0235836Y0186846D01*
X0235920Y0186974D01*
X0236008Y0187100D01*
X0236099Y0187223D01*
X0236193Y0187344D01*
X0236291Y0187462D01*
X0236391Y0187578D01*
X0236495Y0187691D01*
X0236601Y0187802D01*
X0236710Y0187910D01*
X0236822Y0188015D01*
X0236936Y0188116D01*
X0237054Y0188215D01*
X0237173Y0188311D01*
X0237295Y0188404D01*
X0237420Y0188493D01*
X0237547Y0188580D01*
X0237676Y0188662D01*
X0237807Y0188742D01*
X0237940Y0188818D01*
X0238075Y0188891D01*
X0238212Y0188960D01*
X0238351Y0189025D01*
X0238491Y0189087D01*
X0238633Y0189145D01*
X0238776Y0189200D01*
X0238921Y0189251D01*
X0239067Y0189298D01*
X0239214Y0189341D01*
X0239362Y0189380D01*
X0239511Y0189416D01*
X0239661Y0189447D01*
X0239812Y0189475D01*
X0239963Y0189499D01*
X0240116Y0189519D01*
X0240268Y0189535D01*
X0240421Y0189547D01*
X0240574Y0189555D01*
X0240727Y0189559D01*
X0240881Y0189559D01*
X0241034Y0189555D01*
X0241187Y0189547D01*
X0241340Y0189535D01*
X0241492Y0189519D01*
X0241645Y0189499D01*
X0241796Y0189475D01*
X0241947Y0189447D01*
X0242097Y0189416D01*
X0242246Y0189380D01*
X0242394Y0189341D01*
X0242541Y0189298D01*
X0242687Y0189251D01*
X0242832Y0189200D01*
X0242975Y0189145D01*
X0243117Y0189087D01*
X0243257Y0189025D01*
X0243396Y0188960D01*
X0243533Y0188891D01*
X0243668Y0188818D01*
X0243801Y0188742D01*
X0243932Y0188662D01*
X0244061Y0188580D01*
X0244188Y0188493D01*
X0244313Y0188404D01*
X0244435Y0188311D01*
X0244554Y0188215D01*
X0244672Y0188116D01*
X0244786Y0188015D01*
X0244898Y0187910D01*
X0245007Y0187802D01*
X0245113Y0187691D01*
X0245217Y0187578D01*
X0245317Y0187462D01*
X0245415Y0187344D01*
X0245509Y0187223D01*
X0245600Y0187100D01*
X0245688Y0186974D01*
X0245772Y0186846D01*
X0245854Y0186716D01*
X0245931Y0186584D01*
X0246006Y0186450D01*
X0246077Y0186314D01*
X0246144Y0186176D01*
X0246208Y0186036D01*
X0246268Y0185895D01*
X0246324Y0185753D01*
X0246377Y0185609D01*
X0246426Y0185463D01*
X0246471Y0185317D01*
X0246512Y0185169D01*
X0246549Y0185021D01*
X0246583Y0184871D01*
X0246613Y0184720D01*
X0246638Y0184569D01*
X0246660Y0184418D01*
X0246678Y0184265D01*
X0246692Y0184113D01*
X0246702Y0183960D01*
X0246708Y0183806D01*
X0246710Y0183653D01*
X0246708Y0183500D01*
X0246702Y0183346D01*
X0246692Y0183193D01*
X0246678Y0183041D01*
X0246660Y0182888D01*
X0246638Y0182737D01*
X0246613Y0182586D01*
X0246583Y0182435D01*
X0246549Y0182285D01*
X0246512Y0182137D01*
X0246471Y0181989D01*
X0246426Y0181843D01*
X0246377Y0181697D01*
X0246324Y0181553D01*
X0246268Y0181411D01*
X0246208Y0181270D01*
X0246144Y0181130D01*
X0246077Y0180992D01*
X0246006Y0180856D01*
X0245931Y0180722D01*
X0245854Y0180590D01*
X0245772Y0180460D01*
X0245688Y0180332D01*
X0245600Y0180206D01*
X0245509Y0180083D01*
X0245415Y0179962D01*
X0245317Y0179844D01*
X0245217Y0179728D01*
X0245113Y0179615D01*
X0245007Y0179504D01*
X0244898Y0179396D01*
X0244786Y0179291D01*
X0244672Y0179190D01*
X0244554Y0179091D01*
X0244435Y0178995D01*
X0244313Y0178902D01*
X0244188Y0178813D01*
X0244061Y0178726D01*
X0243932Y0178644D01*
X0243801Y0178564D01*
X0243668Y0178488D01*
X0243533Y0178415D01*
X0243396Y0178346D01*
X0243257Y0178281D01*
X0243117Y0178219D01*
X0242975Y0178161D01*
X0242832Y0178106D01*
X0242687Y0178055D01*
X0242541Y0178008D01*
X0242394Y0177965D01*
X0242246Y0177926D01*
X0242097Y0177890D01*
X0241947Y0177859D01*
X0241796Y0177831D01*
X0241645Y0177807D01*
X0241492Y0177787D01*
X0241340Y0177771D01*
X0241187Y0177759D01*
X0241034Y0177751D01*
X0240881Y0177747D01*
X0240727Y0177747D01*
X0240574Y0177751D01*
X0240421Y0177759D01*
X0240268Y0177771D01*
X0240116Y0177787D01*
X0239963Y0177807D01*
X0239812Y0177831D01*
X0239661Y0177859D01*
X0239511Y0177890D01*
X0239362Y0177926D01*
X0239214Y0177965D01*
X0239067Y0178008D01*
X0238921Y0178055D01*
X0238776Y0178106D01*
X0238633Y0178161D01*
X0238491Y0178219D01*
X0238351Y0178281D01*
X0238212Y0178346D01*
X0238075Y0178415D01*
X0237940Y0178488D01*
X0237807Y0178564D01*
X0237676Y0178644D01*
X0237547Y0178726D01*
X0237420Y0178813D01*
X0237295Y0178902D01*
X0237173Y0178995D01*
X0237054Y0179091D01*
X0236936Y0179190D01*
X0236822Y0179291D01*
X0236710Y0179396D01*
X0236601Y0179504D01*
X0236495Y0179615D01*
X0236391Y0179728D01*
X0236291Y0179844D01*
X0236193Y0179962D01*
X0236099Y0180083D01*
X0236008Y0180206D01*
X0235920Y0180332D01*
X0235836Y0180460D01*
X0235754Y0180590D01*
X0235677Y0180722D01*
X0235602Y0180856D01*
X0235531Y0180992D01*
X0235464Y0181130D01*
X0235400Y0181270D01*
X0235340Y0181411D01*
X0235284Y0181553D01*
X0235231Y0181697D01*
X0235182Y0181843D01*
X0235137Y0181989D01*
X0235096Y0182137D01*
X0235059Y0182285D01*
X0235025Y0182435D01*
X0234995Y0182586D01*
X0234970Y0182737D01*
X0234948Y0182888D01*
X0234930Y0183041D01*
X0234916Y0183193D01*
X0234906Y0183346D01*
X0234900Y0183500D01*
X0234898Y0183653D01*
X0132845Y0388464D02*
X0132847Y0388622D01*
X0132853Y0388779D01*
X0132863Y0388937D01*
X0132877Y0389094D01*
X0132895Y0389250D01*
X0132916Y0389407D01*
X0132942Y0389562D01*
X0132972Y0389717D01*
X0133005Y0389871D01*
X0133043Y0390024D01*
X0133084Y0390177D01*
X0133129Y0390328D01*
X0133178Y0390478D01*
X0133231Y0390626D01*
X0133287Y0390774D01*
X0133348Y0390919D01*
X0133411Y0391064D01*
X0133479Y0391206D01*
X0133550Y0391347D01*
X0133624Y0391486D01*
X0133702Y0391623D01*
X0133784Y0391758D01*
X0133868Y0391891D01*
X0133957Y0392022D01*
X0134048Y0392150D01*
X0134143Y0392277D01*
X0134240Y0392400D01*
X0134341Y0392522D01*
X0134445Y0392640D01*
X0134552Y0392756D01*
X0134662Y0392869D01*
X0134774Y0392980D01*
X0134890Y0393087D01*
X0135008Y0393192D01*
X0135128Y0393294D01*
X0135251Y0393392D01*
X0135377Y0393488D01*
X0135505Y0393580D01*
X0135635Y0393669D01*
X0135767Y0393755D01*
X0135902Y0393837D01*
X0136039Y0393916D01*
X0136177Y0393991D01*
X0136317Y0394063D01*
X0136460Y0394131D01*
X0136603Y0394196D01*
X0136749Y0394257D01*
X0136896Y0394314D01*
X0137044Y0394368D01*
X0137194Y0394418D01*
X0137344Y0394464D01*
X0137496Y0394506D01*
X0137649Y0394545D01*
X0137803Y0394579D01*
X0137958Y0394610D01*
X0138113Y0394636D01*
X0138269Y0394659D01*
X0138426Y0394678D01*
X0138583Y0394693D01*
X0138740Y0394704D01*
X0138898Y0394711D01*
X0139056Y0394714D01*
X0139213Y0394713D01*
X0139371Y0394708D01*
X0139528Y0394699D01*
X0139686Y0394686D01*
X0139842Y0394669D01*
X0139999Y0394648D01*
X0140154Y0394624D01*
X0140309Y0394595D01*
X0140464Y0394562D01*
X0140617Y0394526D01*
X0140770Y0394485D01*
X0140921Y0394441D01*
X0141071Y0394393D01*
X0141220Y0394342D01*
X0141368Y0394286D01*
X0141514Y0394227D01*
X0141659Y0394164D01*
X0141802Y0394097D01*
X0141943Y0394027D01*
X0142082Y0393954D01*
X0142220Y0393877D01*
X0142356Y0393796D01*
X0142489Y0393712D01*
X0142620Y0393625D01*
X0142749Y0393534D01*
X0142876Y0393440D01*
X0143001Y0393343D01*
X0143122Y0393243D01*
X0143242Y0393140D01*
X0143358Y0393034D01*
X0143472Y0392925D01*
X0143584Y0392813D01*
X0143692Y0392699D01*
X0143797Y0392581D01*
X0143900Y0392461D01*
X0143999Y0392339D01*
X0144095Y0392214D01*
X0144188Y0392086D01*
X0144278Y0391957D01*
X0144364Y0391825D01*
X0144448Y0391691D01*
X0144527Y0391555D01*
X0144604Y0391417D01*
X0144676Y0391277D01*
X0144745Y0391135D01*
X0144811Y0390992D01*
X0144873Y0390847D01*
X0144931Y0390700D01*
X0144986Y0390552D01*
X0145037Y0390403D01*
X0145084Y0390252D01*
X0145127Y0390101D01*
X0145166Y0389948D01*
X0145202Y0389794D01*
X0145233Y0389640D01*
X0145261Y0389485D01*
X0145285Y0389329D01*
X0145305Y0389172D01*
X0145321Y0389015D01*
X0145333Y0388858D01*
X0145341Y0388701D01*
X0145345Y0388543D01*
X0145345Y0388385D01*
X0145341Y0388227D01*
X0145333Y0388070D01*
X0145321Y0387913D01*
X0145305Y0387756D01*
X0145285Y0387599D01*
X0145261Y0387443D01*
X0145233Y0387288D01*
X0145202Y0387134D01*
X0145166Y0386980D01*
X0145127Y0386827D01*
X0145084Y0386676D01*
X0145037Y0386525D01*
X0144986Y0386376D01*
X0144931Y0386228D01*
X0144873Y0386081D01*
X0144811Y0385936D01*
X0144745Y0385793D01*
X0144676Y0385651D01*
X0144604Y0385511D01*
X0144527Y0385373D01*
X0144448Y0385237D01*
X0144364Y0385103D01*
X0144278Y0384971D01*
X0144188Y0384842D01*
X0144095Y0384714D01*
X0143999Y0384589D01*
X0143900Y0384467D01*
X0143797Y0384347D01*
X0143692Y0384229D01*
X0143584Y0384115D01*
X0143472Y0384003D01*
X0143358Y0383894D01*
X0143242Y0383788D01*
X0143122Y0383685D01*
X0143001Y0383585D01*
X0142876Y0383488D01*
X0142749Y0383394D01*
X0142620Y0383303D01*
X0142489Y0383216D01*
X0142356Y0383132D01*
X0142220Y0383051D01*
X0142082Y0382974D01*
X0141943Y0382901D01*
X0141802Y0382831D01*
X0141659Y0382764D01*
X0141514Y0382701D01*
X0141368Y0382642D01*
X0141220Y0382586D01*
X0141071Y0382535D01*
X0140921Y0382487D01*
X0140770Y0382443D01*
X0140617Y0382402D01*
X0140464Y0382366D01*
X0140309Y0382333D01*
X0140154Y0382304D01*
X0139999Y0382280D01*
X0139842Y0382259D01*
X0139686Y0382242D01*
X0139528Y0382229D01*
X0139371Y0382220D01*
X0139213Y0382215D01*
X0139056Y0382214D01*
X0138898Y0382217D01*
X0138740Y0382224D01*
X0138583Y0382235D01*
X0138426Y0382250D01*
X0138269Y0382269D01*
X0138113Y0382292D01*
X0137958Y0382318D01*
X0137803Y0382349D01*
X0137649Y0382383D01*
X0137496Y0382422D01*
X0137344Y0382464D01*
X0137194Y0382510D01*
X0137044Y0382560D01*
X0136896Y0382614D01*
X0136749Y0382671D01*
X0136603Y0382732D01*
X0136460Y0382797D01*
X0136317Y0382865D01*
X0136177Y0382937D01*
X0136039Y0383012D01*
X0135902Y0383091D01*
X0135767Y0383173D01*
X0135635Y0383259D01*
X0135505Y0383348D01*
X0135377Y0383440D01*
X0135251Y0383536D01*
X0135128Y0383634D01*
X0135008Y0383736D01*
X0134890Y0383841D01*
X0134774Y0383948D01*
X0134662Y0384059D01*
X0134552Y0384172D01*
X0134445Y0384288D01*
X0134341Y0384406D01*
X0134240Y0384528D01*
X0134143Y0384651D01*
X0134048Y0384778D01*
X0133957Y0384906D01*
X0133868Y0385037D01*
X0133784Y0385170D01*
X0133702Y0385305D01*
X0133624Y0385442D01*
X0133550Y0385581D01*
X0133479Y0385722D01*
X0133411Y0385864D01*
X0133348Y0386009D01*
X0133287Y0386154D01*
X0133231Y0386302D01*
X0133178Y0386450D01*
X0133129Y0386600D01*
X0133084Y0386751D01*
X0133043Y0386904D01*
X0133005Y0387057D01*
X0132972Y0387211D01*
X0132942Y0387366D01*
X0132916Y0387521D01*
X0132895Y0387678D01*
X0132877Y0387834D01*
X0132863Y0387991D01*
X0132853Y0388149D01*
X0132847Y0388306D01*
X0132845Y0388464D01*
X0105286Y0388464D02*
X0105288Y0388622D01*
X0105294Y0388779D01*
X0105304Y0388937D01*
X0105318Y0389094D01*
X0105336Y0389250D01*
X0105357Y0389407D01*
X0105383Y0389562D01*
X0105413Y0389717D01*
X0105446Y0389871D01*
X0105484Y0390024D01*
X0105525Y0390177D01*
X0105570Y0390328D01*
X0105619Y0390478D01*
X0105672Y0390626D01*
X0105728Y0390774D01*
X0105789Y0390919D01*
X0105852Y0391064D01*
X0105920Y0391206D01*
X0105991Y0391347D01*
X0106065Y0391486D01*
X0106143Y0391623D01*
X0106225Y0391758D01*
X0106309Y0391891D01*
X0106398Y0392022D01*
X0106489Y0392150D01*
X0106584Y0392277D01*
X0106681Y0392400D01*
X0106782Y0392522D01*
X0106886Y0392640D01*
X0106993Y0392756D01*
X0107103Y0392869D01*
X0107215Y0392980D01*
X0107331Y0393087D01*
X0107449Y0393192D01*
X0107569Y0393294D01*
X0107692Y0393392D01*
X0107818Y0393488D01*
X0107946Y0393580D01*
X0108076Y0393669D01*
X0108208Y0393755D01*
X0108343Y0393837D01*
X0108480Y0393916D01*
X0108618Y0393991D01*
X0108758Y0394063D01*
X0108901Y0394131D01*
X0109044Y0394196D01*
X0109190Y0394257D01*
X0109337Y0394314D01*
X0109485Y0394368D01*
X0109635Y0394418D01*
X0109785Y0394464D01*
X0109937Y0394506D01*
X0110090Y0394545D01*
X0110244Y0394579D01*
X0110399Y0394610D01*
X0110554Y0394636D01*
X0110710Y0394659D01*
X0110867Y0394678D01*
X0111024Y0394693D01*
X0111181Y0394704D01*
X0111339Y0394711D01*
X0111497Y0394714D01*
X0111654Y0394713D01*
X0111812Y0394708D01*
X0111969Y0394699D01*
X0112127Y0394686D01*
X0112283Y0394669D01*
X0112440Y0394648D01*
X0112595Y0394624D01*
X0112750Y0394595D01*
X0112905Y0394562D01*
X0113058Y0394526D01*
X0113211Y0394485D01*
X0113362Y0394441D01*
X0113512Y0394393D01*
X0113661Y0394342D01*
X0113809Y0394286D01*
X0113955Y0394227D01*
X0114100Y0394164D01*
X0114243Y0394097D01*
X0114384Y0394027D01*
X0114523Y0393954D01*
X0114661Y0393877D01*
X0114797Y0393796D01*
X0114930Y0393712D01*
X0115061Y0393625D01*
X0115190Y0393534D01*
X0115317Y0393440D01*
X0115442Y0393343D01*
X0115563Y0393243D01*
X0115683Y0393140D01*
X0115799Y0393034D01*
X0115913Y0392925D01*
X0116025Y0392813D01*
X0116133Y0392699D01*
X0116238Y0392581D01*
X0116341Y0392461D01*
X0116440Y0392339D01*
X0116536Y0392214D01*
X0116629Y0392086D01*
X0116719Y0391957D01*
X0116805Y0391825D01*
X0116889Y0391691D01*
X0116968Y0391555D01*
X0117045Y0391417D01*
X0117117Y0391277D01*
X0117186Y0391135D01*
X0117252Y0390992D01*
X0117314Y0390847D01*
X0117372Y0390700D01*
X0117427Y0390552D01*
X0117478Y0390403D01*
X0117525Y0390252D01*
X0117568Y0390101D01*
X0117607Y0389948D01*
X0117643Y0389794D01*
X0117674Y0389640D01*
X0117702Y0389485D01*
X0117726Y0389329D01*
X0117746Y0389172D01*
X0117762Y0389015D01*
X0117774Y0388858D01*
X0117782Y0388701D01*
X0117786Y0388543D01*
X0117786Y0388385D01*
X0117782Y0388227D01*
X0117774Y0388070D01*
X0117762Y0387913D01*
X0117746Y0387756D01*
X0117726Y0387599D01*
X0117702Y0387443D01*
X0117674Y0387288D01*
X0117643Y0387134D01*
X0117607Y0386980D01*
X0117568Y0386827D01*
X0117525Y0386676D01*
X0117478Y0386525D01*
X0117427Y0386376D01*
X0117372Y0386228D01*
X0117314Y0386081D01*
X0117252Y0385936D01*
X0117186Y0385793D01*
X0117117Y0385651D01*
X0117045Y0385511D01*
X0116968Y0385373D01*
X0116889Y0385237D01*
X0116805Y0385103D01*
X0116719Y0384971D01*
X0116629Y0384842D01*
X0116536Y0384714D01*
X0116440Y0384589D01*
X0116341Y0384467D01*
X0116238Y0384347D01*
X0116133Y0384229D01*
X0116025Y0384115D01*
X0115913Y0384003D01*
X0115799Y0383894D01*
X0115683Y0383788D01*
X0115563Y0383685D01*
X0115442Y0383585D01*
X0115317Y0383488D01*
X0115190Y0383394D01*
X0115061Y0383303D01*
X0114930Y0383216D01*
X0114797Y0383132D01*
X0114661Y0383051D01*
X0114523Y0382974D01*
X0114384Y0382901D01*
X0114243Y0382831D01*
X0114100Y0382764D01*
X0113955Y0382701D01*
X0113809Y0382642D01*
X0113661Y0382586D01*
X0113512Y0382535D01*
X0113362Y0382487D01*
X0113211Y0382443D01*
X0113058Y0382402D01*
X0112905Y0382366D01*
X0112750Y0382333D01*
X0112595Y0382304D01*
X0112440Y0382280D01*
X0112283Y0382259D01*
X0112127Y0382242D01*
X0111969Y0382229D01*
X0111812Y0382220D01*
X0111654Y0382215D01*
X0111497Y0382214D01*
X0111339Y0382217D01*
X0111181Y0382224D01*
X0111024Y0382235D01*
X0110867Y0382250D01*
X0110710Y0382269D01*
X0110554Y0382292D01*
X0110399Y0382318D01*
X0110244Y0382349D01*
X0110090Y0382383D01*
X0109937Y0382422D01*
X0109785Y0382464D01*
X0109635Y0382510D01*
X0109485Y0382560D01*
X0109337Y0382614D01*
X0109190Y0382671D01*
X0109044Y0382732D01*
X0108901Y0382797D01*
X0108758Y0382865D01*
X0108618Y0382937D01*
X0108480Y0383012D01*
X0108343Y0383091D01*
X0108208Y0383173D01*
X0108076Y0383259D01*
X0107946Y0383348D01*
X0107818Y0383440D01*
X0107692Y0383536D01*
X0107569Y0383634D01*
X0107449Y0383736D01*
X0107331Y0383841D01*
X0107215Y0383948D01*
X0107103Y0384059D01*
X0106993Y0384172D01*
X0106886Y0384288D01*
X0106782Y0384406D01*
X0106681Y0384528D01*
X0106584Y0384651D01*
X0106489Y0384778D01*
X0106398Y0384906D01*
X0106309Y0385037D01*
X0106225Y0385170D01*
X0106143Y0385305D01*
X0106065Y0385442D01*
X0105991Y0385581D01*
X0105920Y0385722D01*
X0105852Y0385864D01*
X0105789Y0386009D01*
X0105728Y0386154D01*
X0105672Y0386302D01*
X0105619Y0386450D01*
X0105570Y0386600D01*
X0105525Y0386751D01*
X0105484Y0386904D01*
X0105446Y0387057D01*
X0105413Y0387211D01*
X0105383Y0387366D01*
X0105357Y0387521D01*
X0105336Y0387678D01*
X0105318Y0387834D01*
X0105304Y0387991D01*
X0105294Y0388149D01*
X0105288Y0388306D01*
X0105286Y0388464D01*
X0076898Y0358153D02*
X0076900Y0358306D01*
X0076906Y0358460D01*
X0076916Y0358613D01*
X0076930Y0358765D01*
X0076948Y0358918D01*
X0076970Y0359069D01*
X0076995Y0359220D01*
X0077025Y0359371D01*
X0077059Y0359521D01*
X0077096Y0359669D01*
X0077137Y0359817D01*
X0077182Y0359963D01*
X0077231Y0360109D01*
X0077284Y0360253D01*
X0077340Y0360395D01*
X0077400Y0360536D01*
X0077464Y0360676D01*
X0077531Y0360814D01*
X0077602Y0360950D01*
X0077677Y0361084D01*
X0077754Y0361216D01*
X0077836Y0361346D01*
X0077920Y0361474D01*
X0078008Y0361600D01*
X0078099Y0361723D01*
X0078193Y0361844D01*
X0078291Y0361962D01*
X0078391Y0362078D01*
X0078495Y0362191D01*
X0078601Y0362302D01*
X0078710Y0362410D01*
X0078822Y0362515D01*
X0078936Y0362616D01*
X0079054Y0362715D01*
X0079173Y0362811D01*
X0079295Y0362904D01*
X0079420Y0362993D01*
X0079547Y0363080D01*
X0079676Y0363162D01*
X0079807Y0363242D01*
X0079940Y0363318D01*
X0080075Y0363391D01*
X0080212Y0363460D01*
X0080351Y0363525D01*
X0080491Y0363587D01*
X0080633Y0363645D01*
X0080776Y0363700D01*
X0080921Y0363751D01*
X0081067Y0363798D01*
X0081214Y0363841D01*
X0081362Y0363880D01*
X0081511Y0363916D01*
X0081661Y0363947D01*
X0081812Y0363975D01*
X0081963Y0363999D01*
X0082116Y0364019D01*
X0082268Y0364035D01*
X0082421Y0364047D01*
X0082574Y0364055D01*
X0082727Y0364059D01*
X0082881Y0364059D01*
X0083034Y0364055D01*
X0083187Y0364047D01*
X0083340Y0364035D01*
X0083492Y0364019D01*
X0083645Y0363999D01*
X0083796Y0363975D01*
X0083947Y0363947D01*
X0084097Y0363916D01*
X0084246Y0363880D01*
X0084394Y0363841D01*
X0084541Y0363798D01*
X0084687Y0363751D01*
X0084832Y0363700D01*
X0084975Y0363645D01*
X0085117Y0363587D01*
X0085257Y0363525D01*
X0085396Y0363460D01*
X0085533Y0363391D01*
X0085668Y0363318D01*
X0085801Y0363242D01*
X0085932Y0363162D01*
X0086061Y0363080D01*
X0086188Y0362993D01*
X0086313Y0362904D01*
X0086435Y0362811D01*
X0086554Y0362715D01*
X0086672Y0362616D01*
X0086786Y0362515D01*
X0086898Y0362410D01*
X0087007Y0362302D01*
X0087113Y0362191D01*
X0087217Y0362078D01*
X0087317Y0361962D01*
X0087415Y0361844D01*
X0087509Y0361723D01*
X0087600Y0361600D01*
X0087688Y0361474D01*
X0087772Y0361346D01*
X0087854Y0361216D01*
X0087931Y0361084D01*
X0088006Y0360950D01*
X0088077Y0360814D01*
X0088144Y0360676D01*
X0088208Y0360536D01*
X0088268Y0360395D01*
X0088324Y0360253D01*
X0088377Y0360109D01*
X0088426Y0359963D01*
X0088471Y0359817D01*
X0088512Y0359669D01*
X0088549Y0359521D01*
X0088583Y0359371D01*
X0088613Y0359220D01*
X0088638Y0359069D01*
X0088660Y0358918D01*
X0088678Y0358765D01*
X0088692Y0358613D01*
X0088702Y0358460D01*
X0088708Y0358306D01*
X0088710Y0358153D01*
X0088708Y0358000D01*
X0088702Y0357846D01*
X0088692Y0357693D01*
X0088678Y0357541D01*
X0088660Y0357388D01*
X0088638Y0357237D01*
X0088613Y0357086D01*
X0088583Y0356935D01*
X0088549Y0356785D01*
X0088512Y0356637D01*
X0088471Y0356489D01*
X0088426Y0356343D01*
X0088377Y0356197D01*
X0088324Y0356053D01*
X0088268Y0355911D01*
X0088208Y0355770D01*
X0088144Y0355630D01*
X0088077Y0355492D01*
X0088006Y0355356D01*
X0087931Y0355222D01*
X0087854Y0355090D01*
X0087772Y0354960D01*
X0087688Y0354832D01*
X0087600Y0354706D01*
X0087509Y0354583D01*
X0087415Y0354462D01*
X0087317Y0354344D01*
X0087217Y0354228D01*
X0087113Y0354115D01*
X0087007Y0354004D01*
X0086898Y0353896D01*
X0086786Y0353791D01*
X0086672Y0353690D01*
X0086554Y0353591D01*
X0086435Y0353495D01*
X0086313Y0353402D01*
X0086188Y0353313D01*
X0086061Y0353226D01*
X0085932Y0353144D01*
X0085801Y0353064D01*
X0085668Y0352988D01*
X0085533Y0352915D01*
X0085396Y0352846D01*
X0085257Y0352781D01*
X0085117Y0352719D01*
X0084975Y0352661D01*
X0084832Y0352606D01*
X0084687Y0352555D01*
X0084541Y0352508D01*
X0084394Y0352465D01*
X0084246Y0352426D01*
X0084097Y0352390D01*
X0083947Y0352359D01*
X0083796Y0352331D01*
X0083645Y0352307D01*
X0083492Y0352287D01*
X0083340Y0352271D01*
X0083187Y0352259D01*
X0083034Y0352251D01*
X0082881Y0352247D01*
X0082727Y0352247D01*
X0082574Y0352251D01*
X0082421Y0352259D01*
X0082268Y0352271D01*
X0082116Y0352287D01*
X0081963Y0352307D01*
X0081812Y0352331D01*
X0081661Y0352359D01*
X0081511Y0352390D01*
X0081362Y0352426D01*
X0081214Y0352465D01*
X0081067Y0352508D01*
X0080921Y0352555D01*
X0080776Y0352606D01*
X0080633Y0352661D01*
X0080491Y0352719D01*
X0080351Y0352781D01*
X0080212Y0352846D01*
X0080075Y0352915D01*
X0079940Y0352988D01*
X0079807Y0353064D01*
X0079676Y0353144D01*
X0079547Y0353226D01*
X0079420Y0353313D01*
X0079295Y0353402D01*
X0079173Y0353495D01*
X0079054Y0353591D01*
X0078936Y0353690D01*
X0078822Y0353791D01*
X0078710Y0353896D01*
X0078601Y0354004D01*
X0078495Y0354115D01*
X0078391Y0354228D01*
X0078291Y0354344D01*
X0078193Y0354462D01*
X0078099Y0354583D01*
X0078008Y0354706D01*
X0077920Y0354832D01*
X0077836Y0354960D01*
X0077754Y0355090D01*
X0077677Y0355222D01*
X0077602Y0355356D01*
X0077531Y0355492D01*
X0077464Y0355630D01*
X0077400Y0355770D01*
X0077340Y0355911D01*
X0077284Y0356053D01*
X0077231Y0356197D01*
X0077182Y0356343D01*
X0077137Y0356489D01*
X0077096Y0356637D01*
X0077059Y0356785D01*
X0077025Y0356935D01*
X0076995Y0357086D01*
X0076970Y0357237D01*
X0076948Y0357388D01*
X0076930Y0357541D01*
X0076916Y0357693D01*
X0076906Y0357846D01*
X0076900Y0358000D01*
X0076898Y0358153D01*
X0039890Y0358153D02*
X0039892Y0358306D01*
X0039898Y0358460D01*
X0039908Y0358613D01*
X0039922Y0358765D01*
X0039940Y0358918D01*
X0039962Y0359069D01*
X0039987Y0359220D01*
X0040017Y0359371D01*
X0040051Y0359521D01*
X0040088Y0359669D01*
X0040129Y0359817D01*
X0040174Y0359963D01*
X0040223Y0360109D01*
X0040276Y0360253D01*
X0040332Y0360395D01*
X0040392Y0360536D01*
X0040456Y0360676D01*
X0040523Y0360814D01*
X0040594Y0360950D01*
X0040669Y0361084D01*
X0040746Y0361216D01*
X0040828Y0361346D01*
X0040912Y0361474D01*
X0041000Y0361600D01*
X0041091Y0361723D01*
X0041185Y0361844D01*
X0041283Y0361962D01*
X0041383Y0362078D01*
X0041487Y0362191D01*
X0041593Y0362302D01*
X0041702Y0362410D01*
X0041814Y0362515D01*
X0041928Y0362616D01*
X0042046Y0362715D01*
X0042165Y0362811D01*
X0042287Y0362904D01*
X0042412Y0362993D01*
X0042539Y0363080D01*
X0042668Y0363162D01*
X0042799Y0363242D01*
X0042932Y0363318D01*
X0043067Y0363391D01*
X0043204Y0363460D01*
X0043343Y0363525D01*
X0043483Y0363587D01*
X0043625Y0363645D01*
X0043768Y0363700D01*
X0043913Y0363751D01*
X0044059Y0363798D01*
X0044206Y0363841D01*
X0044354Y0363880D01*
X0044503Y0363916D01*
X0044653Y0363947D01*
X0044804Y0363975D01*
X0044955Y0363999D01*
X0045108Y0364019D01*
X0045260Y0364035D01*
X0045413Y0364047D01*
X0045566Y0364055D01*
X0045719Y0364059D01*
X0045873Y0364059D01*
X0046026Y0364055D01*
X0046179Y0364047D01*
X0046332Y0364035D01*
X0046484Y0364019D01*
X0046637Y0363999D01*
X0046788Y0363975D01*
X0046939Y0363947D01*
X0047089Y0363916D01*
X0047238Y0363880D01*
X0047386Y0363841D01*
X0047533Y0363798D01*
X0047679Y0363751D01*
X0047824Y0363700D01*
X0047967Y0363645D01*
X0048109Y0363587D01*
X0048249Y0363525D01*
X0048388Y0363460D01*
X0048525Y0363391D01*
X0048660Y0363318D01*
X0048793Y0363242D01*
X0048924Y0363162D01*
X0049053Y0363080D01*
X0049180Y0362993D01*
X0049305Y0362904D01*
X0049427Y0362811D01*
X0049546Y0362715D01*
X0049664Y0362616D01*
X0049778Y0362515D01*
X0049890Y0362410D01*
X0049999Y0362302D01*
X0050105Y0362191D01*
X0050209Y0362078D01*
X0050309Y0361962D01*
X0050407Y0361844D01*
X0050501Y0361723D01*
X0050592Y0361600D01*
X0050680Y0361474D01*
X0050764Y0361346D01*
X0050846Y0361216D01*
X0050923Y0361084D01*
X0050998Y0360950D01*
X0051069Y0360814D01*
X0051136Y0360676D01*
X0051200Y0360536D01*
X0051260Y0360395D01*
X0051316Y0360253D01*
X0051369Y0360109D01*
X0051418Y0359963D01*
X0051463Y0359817D01*
X0051504Y0359669D01*
X0051541Y0359521D01*
X0051575Y0359371D01*
X0051605Y0359220D01*
X0051630Y0359069D01*
X0051652Y0358918D01*
X0051670Y0358765D01*
X0051684Y0358613D01*
X0051694Y0358460D01*
X0051700Y0358306D01*
X0051702Y0358153D01*
X0051700Y0358000D01*
X0051694Y0357846D01*
X0051684Y0357693D01*
X0051670Y0357541D01*
X0051652Y0357388D01*
X0051630Y0357237D01*
X0051605Y0357086D01*
X0051575Y0356935D01*
X0051541Y0356785D01*
X0051504Y0356637D01*
X0051463Y0356489D01*
X0051418Y0356343D01*
X0051369Y0356197D01*
X0051316Y0356053D01*
X0051260Y0355911D01*
X0051200Y0355770D01*
X0051136Y0355630D01*
X0051069Y0355492D01*
X0050998Y0355356D01*
X0050923Y0355222D01*
X0050846Y0355090D01*
X0050764Y0354960D01*
X0050680Y0354832D01*
X0050592Y0354706D01*
X0050501Y0354583D01*
X0050407Y0354462D01*
X0050309Y0354344D01*
X0050209Y0354228D01*
X0050105Y0354115D01*
X0049999Y0354004D01*
X0049890Y0353896D01*
X0049778Y0353791D01*
X0049664Y0353690D01*
X0049546Y0353591D01*
X0049427Y0353495D01*
X0049305Y0353402D01*
X0049180Y0353313D01*
X0049053Y0353226D01*
X0048924Y0353144D01*
X0048793Y0353064D01*
X0048660Y0352988D01*
X0048525Y0352915D01*
X0048388Y0352846D01*
X0048249Y0352781D01*
X0048109Y0352719D01*
X0047967Y0352661D01*
X0047824Y0352606D01*
X0047679Y0352555D01*
X0047533Y0352508D01*
X0047386Y0352465D01*
X0047238Y0352426D01*
X0047089Y0352390D01*
X0046939Y0352359D01*
X0046788Y0352331D01*
X0046637Y0352307D01*
X0046484Y0352287D01*
X0046332Y0352271D01*
X0046179Y0352259D01*
X0046026Y0352251D01*
X0045873Y0352247D01*
X0045719Y0352247D01*
X0045566Y0352251D01*
X0045413Y0352259D01*
X0045260Y0352271D01*
X0045108Y0352287D01*
X0044955Y0352307D01*
X0044804Y0352331D01*
X0044653Y0352359D01*
X0044503Y0352390D01*
X0044354Y0352426D01*
X0044206Y0352465D01*
X0044059Y0352508D01*
X0043913Y0352555D01*
X0043768Y0352606D01*
X0043625Y0352661D01*
X0043483Y0352719D01*
X0043343Y0352781D01*
X0043204Y0352846D01*
X0043067Y0352915D01*
X0042932Y0352988D01*
X0042799Y0353064D01*
X0042668Y0353144D01*
X0042539Y0353226D01*
X0042412Y0353313D01*
X0042287Y0353402D01*
X0042165Y0353495D01*
X0042046Y0353591D01*
X0041928Y0353690D01*
X0041814Y0353791D01*
X0041702Y0353896D01*
X0041593Y0354004D01*
X0041487Y0354115D01*
X0041383Y0354228D01*
X0041283Y0354344D01*
X0041185Y0354462D01*
X0041091Y0354583D01*
X0041000Y0354706D01*
X0040912Y0354832D01*
X0040828Y0354960D01*
X0040746Y0355090D01*
X0040669Y0355222D01*
X0040594Y0355356D01*
X0040523Y0355492D01*
X0040456Y0355630D01*
X0040392Y0355770D01*
X0040332Y0355911D01*
X0040276Y0356053D01*
X0040223Y0356197D01*
X0040174Y0356343D01*
X0040129Y0356489D01*
X0040088Y0356637D01*
X0040051Y0356785D01*
X0040017Y0356935D01*
X0039987Y0357086D01*
X0039962Y0357237D01*
X0039940Y0357388D01*
X0039922Y0357541D01*
X0039908Y0357693D01*
X0039898Y0357846D01*
X0039892Y0358000D01*
X0039890Y0358153D01*
X0014735Y0356968D02*
X0014737Y0357126D01*
X0014743Y0357283D01*
X0014753Y0357441D01*
X0014767Y0357598D01*
X0014785Y0357754D01*
X0014806Y0357911D01*
X0014832Y0358066D01*
X0014862Y0358221D01*
X0014895Y0358375D01*
X0014933Y0358528D01*
X0014974Y0358681D01*
X0015019Y0358832D01*
X0015068Y0358982D01*
X0015121Y0359130D01*
X0015177Y0359278D01*
X0015238Y0359423D01*
X0015301Y0359568D01*
X0015369Y0359710D01*
X0015440Y0359851D01*
X0015514Y0359990D01*
X0015592Y0360127D01*
X0015674Y0360262D01*
X0015758Y0360395D01*
X0015847Y0360526D01*
X0015938Y0360654D01*
X0016033Y0360781D01*
X0016130Y0360904D01*
X0016231Y0361026D01*
X0016335Y0361144D01*
X0016442Y0361260D01*
X0016552Y0361373D01*
X0016664Y0361484D01*
X0016780Y0361591D01*
X0016898Y0361696D01*
X0017018Y0361798D01*
X0017141Y0361896D01*
X0017267Y0361992D01*
X0017395Y0362084D01*
X0017525Y0362173D01*
X0017657Y0362259D01*
X0017792Y0362341D01*
X0017929Y0362420D01*
X0018067Y0362495D01*
X0018207Y0362567D01*
X0018350Y0362635D01*
X0018493Y0362700D01*
X0018639Y0362761D01*
X0018786Y0362818D01*
X0018934Y0362872D01*
X0019084Y0362922D01*
X0019234Y0362968D01*
X0019386Y0363010D01*
X0019539Y0363049D01*
X0019693Y0363083D01*
X0019848Y0363114D01*
X0020003Y0363140D01*
X0020159Y0363163D01*
X0020316Y0363182D01*
X0020473Y0363197D01*
X0020630Y0363208D01*
X0020788Y0363215D01*
X0020946Y0363218D01*
X0021103Y0363217D01*
X0021261Y0363212D01*
X0021418Y0363203D01*
X0021576Y0363190D01*
X0021732Y0363173D01*
X0021889Y0363152D01*
X0022044Y0363128D01*
X0022199Y0363099D01*
X0022354Y0363066D01*
X0022507Y0363030D01*
X0022660Y0362989D01*
X0022811Y0362945D01*
X0022961Y0362897D01*
X0023110Y0362846D01*
X0023258Y0362790D01*
X0023404Y0362731D01*
X0023549Y0362668D01*
X0023692Y0362601D01*
X0023833Y0362531D01*
X0023972Y0362458D01*
X0024110Y0362381D01*
X0024246Y0362300D01*
X0024379Y0362216D01*
X0024510Y0362129D01*
X0024639Y0362038D01*
X0024766Y0361944D01*
X0024891Y0361847D01*
X0025012Y0361747D01*
X0025132Y0361644D01*
X0025248Y0361538D01*
X0025362Y0361429D01*
X0025474Y0361317D01*
X0025582Y0361203D01*
X0025687Y0361085D01*
X0025790Y0360965D01*
X0025889Y0360843D01*
X0025985Y0360718D01*
X0026078Y0360590D01*
X0026168Y0360461D01*
X0026254Y0360329D01*
X0026338Y0360195D01*
X0026417Y0360059D01*
X0026494Y0359921D01*
X0026566Y0359781D01*
X0026635Y0359639D01*
X0026701Y0359496D01*
X0026763Y0359351D01*
X0026821Y0359204D01*
X0026876Y0359056D01*
X0026927Y0358907D01*
X0026974Y0358756D01*
X0027017Y0358605D01*
X0027056Y0358452D01*
X0027092Y0358298D01*
X0027123Y0358144D01*
X0027151Y0357989D01*
X0027175Y0357833D01*
X0027195Y0357676D01*
X0027211Y0357519D01*
X0027223Y0357362D01*
X0027231Y0357205D01*
X0027235Y0357047D01*
X0027235Y0356889D01*
X0027231Y0356731D01*
X0027223Y0356574D01*
X0027211Y0356417D01*
X0027195Y0356260D01*
X0027175Y0356103D01*
X0027151Y0355947D01*
X0027123Y0355792D01*
X0027092Y0355638D01*
X0027056Y0355484D01*
X0027017Y0355331D01*
X0026974Y0355180D01*
X0026927Y0355029D01*
X0026876Y0354880D01*
X0026821Y0354732D01*
X0026763Y0354585D01*
X0026701Y0354440D01*
X0026635Y0354297D01*
X0026566Y0354155D01*
X0026494Y0354015D01*
X0026417Y0353877D01*
X0026338Y0353741D01*
X0026254Y0353607D01*
X0026168Y0353475D01*
X0026078Y0353346D01*
X0025985Y0353218D01*
X0025889Y0353093D01*
X0025790Y0352971D01*
X0025687Y0352851D01*
X0025582Y0352733D01*
X0025474Y0352619D01*
X0025362Y0352507D01*
X0025248Y0352398D01*
X0025132Y0352292D01*
X0025012Y0352189D01*
X0024891Y0352089D01*
X0024766Y0351992D01*
X0024639Y0351898D01*
X0024510Y0351807D01*
X0024379Y0351720D01*
X0024246Y0351636D01*
X0024110Y0351555D01*
X0023972Y0351478D01*
X0023833Y0351405D01*
X0023692Y0351335D01*
X0023549Y0351268D01*
X0023404Y0351205D01*
X0023258Y0351146D01*
X0023110Y0351090D01*
X0022961Y0351039D01*
X0022811Y0350991D01*
X0022660Y0350947D01*
X0022507Y0350906D01*
X0022354Y0350870D01*
X0022199Y0350837D01*
X0022044Y0350808D01*
X0021889Y0350784D01*
X0021732Y0350763D01*
X0021576Y0350746D01*
X0021418Y0350733D01*
X0021261Y0350724D01*
X0021103Y0350719D01*
X0020946Y0350718D01*
X0020788Y0350721D01*
X0020630Y0350728D01*
X0020473Y0350739D01*
X0020316Y0350754D01*
X0020159Y0350773D01*
X0020003Y0350796D01*
X0019848Y0350822D01*
X0019693Y0350853D01*
X0019539Y0350887D01*
X0019386Y0350926D01*
X0019234Y0350968D01*
X0019084Y0351014D01*
X0018934Y0351064D01*
X0018786Y0351118D01*
X0018639Y0351175D01*
X0018493Y0351236D01*
X0018350Y0351301D01*
X0018207Y0351369D01*
X0018067Y0351441D01*
X0017929Y0351516D01*
X0017792Y0351595D01*
X0017657Y0351677D01*
X0017525Y0351763D01*
X0017395Y0351852D01*
X0017267Y0351944D01*
X0017141Y0352040D01*
X0017018Y0352138D01*
X0016898Y0352240D01*
X0016780Y0352345D01*
X0016664Y0352452D01*
X0016552Y0352563D01*
X0016442Y0352676D01*
X0016335Y0352792D01*
X0016231Y0352910D01*
X0016130Y0353032D01*
X0016033Y0353155D01*
X0015938Y0353282D01*
X0015847Y0353410D01*
X0015758Y0353541D01*
X0015674Y0353674D01*
X0015592Y0353809D01*
X0015514Y0353946D01*
X0015440Y0354085D01*
X0015369Y0354226D01*
X0015301Y0354368D01*
X0015238Y0354513D01*
X0015177Y0354658D01*
X0015121Y0354806D01*
X0015068Y0354954D01*
X0015019Y0355104D01*
X0014974Y0355255D01*
X0014933Y0355408D01*
X0014895Y0355561D01*
X0014862Y0355715D01*
X0014832Y0355870D01*
X0014806Y0356025D01*
X0014785Y0356182D01*
X0014767Y0356338D01*
X0014753Y0356495D01*
X0014743Y0356653D01*
X0014737Y0356810D01*
X0014735Y0356968D01*
X0006861Y0388464D02*
X0006863Y0388622D01*
X0006869Y0388779D01*
X0006879Y0388937D01*
X0006893Y0389094D01*
X0006911Y0389250D01*
X0006932Y0389407D01*
X0006958Y0389562D01*
X0006988Y0389717D01*
X0007021Y0389871D01*
X0007059Y0390024D01*
X0007100Y0390177D01*
X0007145Y0390328D01*
X0007194Y0390478D01*
X0007247Y0390626D01*
X0007303Y0390774D01*
X0007364Y0390919D01*
X0007427Y0391064D01*
X0007495Y0391206D01*
X0007566Y0391347D01*
X0007640Y0391486D01*
X0007718Y0391623D01*
X0007800Y0391758D01*
X0007884Y0391891D01*
X0007973Y0392022D01*
X0008064Y0392150D01*
X0008159Y0392277D01*
X0008256Y0392400D01*
X0008357Y0392522D01*
X0008461Y0392640D01*
X0008568Y0392756D01*
X0008678Y0392869D01*
X0008790Y0392980D01*
X0008906Y0393087D01*
X0009024Y0393192D01*
X0009144Y0393294D01*
X0009267Y0393392D01*
X0009393Y0393488D01*
X0009521Y0393580D01*
X0009651Y0393669D01*
X0009783Y0393755D01*
X0009918Y0393837D01*
X0010055Y0393916D01*
X0010193Y0393991D01*
X0010333Y0394063D01*
X0010476Y0394131D01*
X0010619Y0394196D01*
X0010765Y0394257D01*
X0010912Y0394314D01*
X0011060Y0394368D01*
X0011210Y0394418D01*
X0011360Y0394464D01*
X0011512Y0394506D01*
X0011665Y0394545D01*
X0011819Y0394579D01*
X0011974Y0394610D01*
X0012129Y0394636D01*
X0012285Y0394659D01*
X0012442Y0394678D01*
X0012599Y0394693D01*
X0012756Y0394704D01*
X0012914Y0394711D01*
X0013072Y0394714D01*
X0013229Y0394713D01*
X0013387Y0394708D01*
X0013544Y0394699D01*
X0013702Y0394686D01*
X0013858Y0394669D01*
X0014015Y0394648D01*
X0014170Y0394624D01*
X0014325Y0394595D01*
X0014480Y0394562D01*
X0014633Y0394526D01*
X0014786Y0394485D01*
X0014937Y0394441D01*
X0015087Y0394393D01*
X0015236Y0394342D01*
X0015384Y0394286D01*
X0015530Y0394227D01*
X0015675Y0394164D01*
X0015818Y0394097D01*
X0015959Y0394027D01*
X0016098Y0393954D01*
X0016236Y0393877D01*
X0016372Y0393796D01*
X0016505Y0393712D01*
X0016636Y0393625D01*
X0016765Y0393534D01*
X0016892Y0393440D01*
X0017017Y0393343D01*
X0017138Y0393243D01*
X0017258Y0393140D01*
X0017374Y0393034D01*
X0017488Y0392925D01*
X0017600Y0392813D01*
X0017708Y0392699D01*
X0017813Y0392581D01*
X0017916Y0392461D01*
X0018015Y0392339D01*
X0018111Y0392214D01*
X0018204Y0392086D01*
X0018294Y0391957D01*
X0018380Y0391825D01*
X0018464Y0391691D01*
X0018543Y0391555D01*
X0018620Y0391417D01*
X0018692Y0391277D01*
X0018761Y0391135D01*
X0018827Y0390992D01*
X0018889Y0390847D01*
X0018947Y0390700D01*
X0019002Y0390552D01*
X0019053Y0390403D01*
X0019100Y0390252D01*
X0019143Y0390101D01*
X0019182Y0389948D01*
X0019218Y0389794D01*
X0019249Y0389640D01*
X0019277Y0389485D01*
X0019301Y0389329D01*
X0019321Y0389172D01*
X0019337Y0389015D01*
X0019349Y0388858D01*
X0019357Y0388701D01*
X0019361Y0388543D01*
X0019361Y0388385D01*
X0019357Y0388227D01*
X0019349Y0388070D01*
X0019337Y0387913D01*
X0019321Y0387756D01*
X0019301Y0387599D01*
X0019277Y0387443D01*
X0019249Y0387288D01*
X0019218Y0387134D01*
X0019182Y0386980D01*
X0019143Y0386827D01*
X0019100Y0386676D01*
X0019053Y0386525D01*
X0019002Y0386376D01*
X0018947Y0386228D01*
X0018889Y0386081D01*
X0018827Y0385936D01*
X0018761Y0385793D01*
X0018692Y0385651D01*
X0018620Y0385511D01*
X0018543Y0385373D01*
X0018464Y0385237D01*
X0018380Y0385103D01*
X0018294Y0384971D01*
X0018204Y0384842D01*
X0018111Y0384714D01*
X0018015Y0384589D01*
X0017916Y0384467D01*
X0017813Y0384347D01*
X0017708Y0384229D01*
X0017600Y0384115D01*
X0017488Y0384003D01*
X0017374Y0383894D01*
X0017258Y0383788D01*
X0017138Y0383685D01*
X0017017Y0383585D01*
X0016892Y0383488D01*
X0016765Y0383394D01*
X0016636Y0383303D01*
X0016505Y0383216D01*
X0016372Y0383132D01*
X0016236Y0383051D01*
X0016098Y0382974D01*
X0015959Y0382901D01*
X0015818Y0382831D01*
X0015675Y0382764D01*
X0015530Y0382701D01*
X0015384Y0382642D01*
X0015236Y0382586D01*
X0015087Y0382535D01*
X0014937Y0382487D01*
X0014786Y0382443D01*
X0014633Y0382402D01*
X0014480Y0382366D01*
X0014325Y0382333D01*
X0014170Y0382304D01*
X0014015Y0382280D01*
X0013858Y0382259D01*
X0013702Y0382242D01*
X0013544Y0382229D01*
X0013387Y0382220D01*
X0013229Y0382215D01*
X0013072Y0382214D01*
X0012914Y0382217D01*
X0012756Y0382224D01*
X0012599Y0382235D01*
X0012442Y0382250D01*
X0012285Y0382269D01*
X0012129Y0382292D01*
X0011974Y0382318D01*
X0011819Y0382349D01*
X0011665Y0382383D01*
X0011512Y0382422D01*
X0011360Y0382464D01*
X0011210Y0382510D01*
X0011060Y0382560D01*
X0010912Y0382614D01*
X0010765Y0382671D01*
X0010619Y0382732D01*
X0010476Y0382797D01*
X0010333Y0382865D01*
X0010193Y0382937D01*
X0010055Y0383012D01*
X0009918Y0383091D01*
X0009783Y0383173D01*
X0009651Y0383259D01*
X0009521Y0383348D01*
X0009393Y0383440D01*
X0009267Y0383536D01*
X0009144Y0383634D01*
X0009024Y0383736D01*
X0008906Y0383841D01*
X0008790Y0383948D01*
X0008678Y0384059D01*
X0008568Y0384172D01*
X0008461Y0384288D01*
X0008357Y0384406D01*
X0008256Y0384528D01*
X0008159Y0384651D01*
X0008064Y0384778D01*
X0007973Y0384906D01*
X0007884Y0385037D01*
X0007800Y0385170D01*
X0007718Y0385305D01*
X0007640Y0385442D01*
X0007566Y0385581D01*
X0007495Y0385722D01*
X0007427Y0385864D01*
X0007364Y0386009D01*
X0007303Y0386154D01*
X0007247Y0386302D01*
X0007194Y0386450D01*
X0007145Y0386600D01*
X0007100Y0386751D01*
X0007059Y0386904D01*
X0007021Y0387057D01*
X0006988Y0387211D01*
X0006958Y0387366D01*
X0006932Y0387521D01*
X0006911Y0387678D01*
X0006893Y0387834D01*
X0006879Y0387991D01*
X0006869Y0388149D01*
X0006863Y0388306D01*
X0006861Y0388464D01*
X0005237Y0317598D02*
X0005239Y0317751D01*
X0005245Y0317905D01*
X0005255Y0318058D01*
X0005269Y0318210D01*
X0005287Y0318363D01*
X0005309Y0318514D01*
X0005334Y0318665D01*
X0005364Y0318816D01*
X0005398Y0318966D01*
X0005435Y0319114D01*
X0005476Y0319262D01*
X0005521Y0319408D01*
X0005570Y0319554D01*
X0005623Y0319698D01*
X0005679Y0319840D01*
X0005739Y0319981D01*
X0005803Y0320121D01*
X0005870Y0320259D01*
X0005941Y0320395D01*
X0006016Y0320529D01*
X0006093Y0320661D01*
X0006175Y0320791D01*
X0006259Y0320919D01*
X0006347Y0321045D01*
X0006438Y0321168D01*
X0006532Y0321289D01*
X0006630Y0321407D01*
X0006730Y0321523D01*
X0006834Y0321636D01*
X0006940Y0321747D01*
X0007049Y0321855D01*
X0007161Y0321960D01*
X0007275Y0322061D01*
X0007393Y0322160D01*
X0007512Y0322256D01*
X0007634Y0322349D01*
X0007759Y0322438D01*
X0007886Y0322525D01*
X0008015Y0322607D01*
X0008146Y0322687D01*
X0008279Y0322763D01*
X0008414Y0322836D01*
X0008551Y0322905D01*
X0008690Y0322970D01*
X0008830Y0323032D01*
X0008972Y0323090D01*
X0009115Y0323145D01*
X0009260Y0323196D01*
X0009406Y0323243D01*
X0009553Y0323286D01*
X0009701Y0323325D01*
X0009850Y0323361D01*
X0010000Y0323392D01*
X0010151Y0323420D01*
X0010302Y0323444D01*
X0010455Y0323464D01*
X0010607Y0323480D01*
X0010760Y0323492D01*
X0010913Y0323500D01*
X0011066Y0323504D01*
X0011220Y0323504D01*
X0011373Y0323500D01*
X0011526Y0323492D01*
X0011679Y0323480D01*
X0011831Y0323464D01*
X0011984Y0323444D01*
X0012135Y0323420D01*
X0012286Y0323392D01*
X0012436Y0323361D01*
X0012585Y0323325D01*
X0012733Y0323286D01*
X0012880Y0323243D01*
X0013026Y0323196D01*
X0013171Y0323145D01*
X0013314Y0323090D01*
X0013456Y0323032D01*
X0013596Y0322970D01*
X0013735Y0322905D01*
X0013872Y0322836D01*
X0014007Y0322763D01*
X0014140Y0322687D01*
X0014271Y0322607D01*
X0014400Y0322525D01*
X0014527Y0322438D01*
X0014652Y0322349D01*
X0014774Y0322256D01*
X0014893Y0322160D01*
X0015011Y0322061D01*
X0015125Y0321960D01*
X0015237Y0321855D01*
X0015346Y0321747D01*
X0015452Y0321636D01*
X0015556Y0321523D01*
X0015656Y0321407D01*
X0015754Y0321289D01*
X0015848Y0321168D01*
X0015939Y0321045D01*
X0016027Y0320919D01*
X0016111Y0320791D01*
X0016193Y0320661D01*
X0016270Y0320529D01*
X0016345Y0320395D01*
X0016416Y0320259D01*
X0016483Y0320121D01*
X0016547Y0319981D01*
X0016607Y0319840D01*
X0016663Y0319698D01*
X0016716Y0319554D01*
X0016765Y0319408D01*
X0016810Y0319262D01*
X0016851Y0319114D01*
X0016888Y0318966D01*
X0016922Y0318816D01*
X0016952Y0318665D01*
X0016977Y0318514D01*
X0016999Y0318363D01*
X0017017Y0318210D01*
X0017031Y0318058D01*
X0017041Y0317905D01*
X0017047Y0317751D01*
X0017049Y0317598D01*
X0017047Y0317445D01*
X0017041Y0317291D01*
X0017031Y0317138D01*
X0017017Y0316986D01*
X0016999Y0316833D01*
X0016977Y0316682D01*
X0016952Y0316531D01*
X0016922Y0316380D01*
X0016888Y0316230D01*
X0016851Y0316082D01*
X0016810Y0315934D01*
X0016765Y0315788D01*
X0016716Y0315642D01*
X0016663Y0315498D01*
X0016607Y0315356D01*
X0016547Y0315215D01*
X0016483Y0315075D01*
X0016416Y0314937D01*
X0016345Y0314801D01*
X0016270Y0314667D01*
X0016193Y0314535D01*
X0016111Y0314405D01*
X0016027Y0314277D01*
X0015939Y0314151D01*
X0015848Y0314028D01*
X0015754Y0313907D01*
X0015656Y0313789D01*
X0015556Y0313673D01*
X0015452Y0313560D01*
X0015346Y0313449D01*
X0015237Y0313341D01*
X0015125Y0313236D01*
X0015011Y0313135D01*
X0014893Y0313036D01*
X0014774Y0312940D01*
X0014652Y0312847D01*
X0014527Y0312758D01*
X0014400Y0312671D01*
X0014271Y0312589D01*
X0014140Y0312509D01*
X0014007Y0312433D01*
X0013872Y0312360D01*
X0013735Y0312291D01*
X0013596Y0312226D01*
X0013456Y0312164D01*
X0013314Y0312106D01*
X0013171Y0312051D01*
X0013026Y0312000D01*
X0012880Y0311953D01*
X0012733Y0311910D01*
X0012585Y0311871D01*
X0012436Y0311835D01*
X0012286Y0311804D01*
X0012135Y0311776D01*
X0011984Y0311752D01*
X0011831Y0311732D01*
X0011679Y0311716D01*
X0011526Y0311704D01*
X0011373Y0311696D01*
X0011220Y0311692D01*
X0011066Y0311692D01*
X0010913Y0311696D01*
X0010760Y0311704D01*
X0010607Y0311716D01*
X0010455Y0311732D01*
X0010302Y0311752D01*
X0010151Y0311776D01*
X0010000Y0311804D01*
X0009850Y0311835D01*
X0009701Y0311871D01*
X0009553Y0311910D01*
X0009406Y0311953D01*
X0009260Y0312000D01*
X0009115Y0312051D01*
X0008972Y0312106D01*
X0008830Y0312164D01*
X0008690Y0312226D01*
X0008551Y0312291D01*
X0008414Y0312360D01*
X0008279Y0312433D01*
X0008146Y0312509D01*
X0008015Y0312589D01*
X0007886Y0312671D01*
X0007759Y0312758D01*
X0007634Y0312847D01*
X0007512Y0312940D01*
X0007393Y0313036D01*
X0007275Y0313135D01*
X0007161Y0313236D01*
X0007049Y0313341D01*
X0006940Y0313449D01*
X0006834Y0313560D01*
X0006730Y0313673D01*
X0006630Y0313789D01*
X0006532Y0313907D01*
X0006438Y0314028D01*
X0006347Y0314151D01*
X0006259Y0314277D01*
X0006175Y0314405D01*
X0006093Y0314535D01*
X0006016Y0314667D01*
X0005941Y0314801D01*
X0005870Y0314937D01*
X0005803Y0315075D01*
X0005739Y0315215D01*
X0005679Y0315356D01*
X0005623Y0315498D01*
X0005570Y0315642D01*
X0005521Y0315788D01*
X0005476Y0315934D01*
X0005435Y0316082D01*
X0005398Y0316230D01*
X0005364Y0316380D01*
X0005334Y0316531D01*
X0005309Y0316682D01*
X0005287Y0316833D01*
X0005269Y0316986D01*
X0005255Y0317138D01*
X0005245Y0317291D01*
X0005239Y0317445D01*
X0005237Y0317598D01*
X0006861Y0471141D02*
X0006863Y0471299D01*
X0006869Y0471456D01*
X0006879Y0471614D01*
X0006893Y0471771D01*
X0006911Y0471927D01*
X0006932Y0472084D01*
X0006958Y0472239D01*
X0006988Y0472394D01*
X0007021Y0472548D01*
X0007059Y0472701D01*
X0007100Y0472854D01*
X0007145Y0473005D01*
X0007194Y0473155D01*
X0007247Y0473303D01*
X0007303Y0473451D01*
X0007364Y0473596D01*
X0007427Y0473741D01*
X0007495Y0473883D01*
X0007566Y0474024D01*
X0007640Y0474163D01*
X0007718Y0474300D01*
X0007800Y0474435D01*
X0007884Y0474568D01*
X0007973Y0474699D01*
X0008064Y0474827D01*
X0008159Y0474954D01*
X0008256Y0475077D01*
X0008357Y0475199D01*
X0008461Y0475317D01*
X0008568Y0475433D01*
X0008678Y0475546D01*
X0008790Y0475657D01*
X0008906Y0475764D01*
X0009024Y0475869D01*
X0009144Y0475971D01*
X0009267Y0476069D01*
X0009393Y0476165D01*
X0009521Y0476257D01*
X0009651Y0476346D01*
X0009783Y0476432D01*
X0009918Y0476514D01*
X0010055Y0476593D01*
X0010193Y0476668D01*
X0010333Y0476740D01*
X0010476Y0476808D01*
X0010619Y0476873D01*
X0010765Y0476934D01*
X0010912Y0476991D01*
X0011060Y0477045D01*
X0011210Y0477095D01*
X0011360Y0477141D01*
X0011512Y0477183D01*
X0011665Y0477222D01*
X0011819Y0477256D01*
X0011974Y0477287D01*
X0012129Y0477313D01*
X0012285Y0477336D01*
X0012442Y0477355D01*
X0012599Y0477370D01*
X0012756Y0477381D01*
X0012914Y0477388D01*
X0013072Y0477391D01*
X0013229Y0477390D01*
X0013387Y0477385D01*
X0013544Y0477376D01*
X0013702Y0477363D01*
X0013858Y0477346D01*
X0014015Y0477325D01*
X0014170Y0477301D01*
X0014325Y0477272D01*
X0014480Y0477239D01*
X0014633Y0477203D01*
X0014786Y0477162D01*
X0014937Y0477118D01*
X0015087Y0477070D01*
X0015236Y0477019D01*
X0015384Y0476963D01*
X0015530Y0476904D01*
X0015675Y0476841D01*
X0015818Y0476774D01*
X0015959Y0476704D01*
X0016098Y0476631D01*
X0016236Y0476554D01*
X0016372Y0476473D01*
X0016505Y0476389D01*
X0016636Y0476302D01*
X0016765Y0476211D01*
X0016892Y0476117D01*
X0017017Y0476020D01*
X0017138Y0475920D01*
X0017258Y0475817D01*
X0017374Y0475711D01*
X0017488Y0475602D01*
X0017600Y0475490D01*
X0017708Y0475376D01*
X0017813Y0475258D01*
X0017916Y0475138D01*
X0018015Y0475016D01*
X0018111Y0474891D01*
X0018204Y0474763D01*
X0018294Y0474634D01*
X0018380Y0474502D01*
X0018464Y0474368D01*
X0018543Y0474232D01*
X0018620Y0474094D01*
X0018692Y0473954D01*
X0018761Y0473812D01*
X0018827Y0473669D01*
X0018889Y0473524D01*
X0018947Y0473377D01*
X0019002Y0473229D01*
X0019053Y0473080D01*
X0019100Y0472929D01*
X0019143Y0472778D01*
X0019182Y0472625D01*
X0019218Y0472471D01*
X0019249Y0472317D01*
X0019277Y0472162D01*
X0019301Y0472006D01*
X0019321Y0471849D01*
X0019337Y0471692D01*
X0019349Y0471535D01*
X0019357Y0471378D01*
X0019361Y0471220D01*
X0019361Y0471062D01*
X0019357Y0470904D01*
X0019349Y0470747D01*
X0019337Y0470590D01*
X0019321Y0470433D01*
X0019301Y0470276D01*
X0019277Y0470120D01*
X0019249Y0469965D01*
X0019218Y0469811D01*
X0019182Y0469657D01*
X0019143Y0469504D01*
X0019100Y0469353D01*
X0019053Y0469202D01*
X0019002Y0469053D01*
X0018947Y0468905D01*
X0018889Y0468758D01*
X0018827Y0468613D01*
X0018761Y0468470D01*
X0018692Y0468328D01*
X0018620Y0468188D01*
X0018543Y0468050D01*
X0018464Y0467914D01*
X0018380Y0467780D01*
X0018294Y0467648D01*
X0018204Y0467519D01*
X0018111Y0467391D01*
X0018015Y0467266D01*
X0017916Y0467144D01*
X0017813Y0467024D01*
X0017708Y0466906D01*
X0017600Y0466792D01*
X0017488Y0466680D01*
X0017374Y0466571D01*
X0017258Y0466465D01*
X0017138Y0466362D01*
X0017017Y0466262D01*
X0016892Y0466165D01*
X0016765Y0466071D01*
X0016636Y0465980D01*
X0016505Y0465893D01*
X0016372Y0465809D01*
X0016236Y0465728D01*
X0016098Y0465651D01*
X0015959Y0465578D01*
X0015818Y0465508D01*
X0015675Y0465441D01*
X0015530Y0465378D01*
X0015384Y0465319D01*
X0015236Y0465263D01*
X0015087Y0465212D01*
X0014937Y0465164D01*
X0014786Y0465120D01*
X0014633Y0465079D01*
X0014480Y0465043D01*
X0014325Y0465010D01*
X0014170Y0464981D01*
X0014015Y0464957D01*
X0013858Y0464936D01*
X0013702Y0464919D01*
X0013544Y0464906D01*
X0013387Y0464897D01*
X0013229Y0464892D01*
X0013072Y0464891D01*
X0012914Y0464894D01*
X0012756Y0464901D01*
X0012599Y0464912D01*
X0012442Y0464927D01*
X0012285Y0464946D01*
X0012129Y0464969D01*
X0011974Y0464995D01*
X0011819Y0465026D01*
X0011665Y0465060D01*
X0011512Y0465099D01*
X0011360Y0465141D01*
X0011210Y0465187D01*
X0011060Y0465237D01*
X0010912Y0465291D01*
X0010765Y0465348D01*
X0010619Y0465409D01*
X0010476Y0465474D01*
X0010333Y0465542D01*
X0010193Y0465614D01*
X0010055Y0465689D01*
X0009918Y0465768D01*
X0009783Y0465850D01*
X0009651Y0465936D01*
X0009521Y0466025D01*
X0009393Y0466117D01*
X0009267Y0466213D01*
X0009144Y0466311D01*
X0009024Y0466413D01*
X0008906Y0466518D01*
X0008790Y0466625D01*
X0008678Y0466736D01*
X0008568Y0466849D01*
X0008461Y0466965D01*
X0008357Y0467083D01*
X0008256Y0467205D01*
X0008159Y0467328D01*
X0008064Y0467455D01*
X0007973Y0467583D01*
X0007884Y0467714D01*
X0007800Y0467847D01*
X0007718Y0467982D01*
X0007640Y0468119D01*
X0007566Y0468258D01*
X0007495Y0468399D01*
X0007427Y0468541D01*
X0007364Y0468686D01*
X0007303Y0468831D01*
X0007247Y0468979D01*
X0007194Y0469127D01*
X0007145Y0469277D01*
X0007100Y0469428D01*
X0007059Y0469581D01*
X0007021Y0469734D01*
X0006988Y0469888D01*
X0006958Y0470043D01*
X0006932Y0470198D01*
X0006911Y0470355D01*
X0006893Y0470511D01*
X0006879Y0470668D01*
X0006869Y0470826D01*
X0006863Y0470983D01*
X0006861Y0471141D01*
X0105286Y0471141D02*
X0105288Y0471299D01*
X0105294Y0471456D01*
X0105304Y0471614D01*
X0105318Y0471771D01*
X0105336Y0471927D01*
X0105357Y0472084D01*
X0105383Y0472239D01*
X0105413Y0472394D01*
X0105446Y0472548D01*
X0105484Y0472701D01*
X0105525Y0472854D01*
X0105570Y0473005D01*
X0105619Y0473155D01*
X0105672Y0473303D01*
X0105728Y0473451D01*
X0105789Y0473596D01*
X0105852Y0473741D01*
X0105920Y0473883D01*
X0105991Y0474024D01*
X0106065Y0474163D01*
X0106143Y0474300D01*
X0106225Y0474435D01*
X0106309Y0474568D01*
X0106398Y0474699D01*
X0106489Y0474827D01*
X0106584Y0474954D01*
X0106681Y0475077D01*
X0106782Y0475199D01*
X0106886Y0475317D01*
X0106993Y0475433D01*
X0107103Y0475546D01*
X0107215Y0475657D01*
X0107331Y0475764D01*
X0107449Y0475869D01*
X0107569Y0475971D01*
X0107692Y0476069D01*
X0107818Y0476165D01*
X0107946Y0476257D01*
X0108076Y0476346D01*
X0108208Y0476432D01*
X0108343Y0476514D01*
X0108480Y0476593D01*
X0108618Y0476668D01*
X0108758Y0476740D01*
X0108901Y0476808D01*
X0109044Y0476873D01*
X0109190Y0476934D01*
X0109337Y0476991D01*
X0109485Y0477045D01*
X0109635Y0477095D01*
X0109785Y0477141D01*
X0109937Y0477183D01*
X0110090Y0477222D01*
X0110244Y0477256D01*
X0110399Y0477287D01*
X0110554Y0477313D01*
X0110710Y0477336D01*
X0110867Y0477355D01*
X0111024Y0477370D01*
X0111181Y0477381D01*
X0111339Y0477388D01*
X0111497Y0477391D01*
X0111654Y0477390D01*
X0111812Y0477385D01*
X0111969Y0477376D01*
X0112127Y0477363D01*
X0112283Y0477346D01*
X0112440Y0477325D01*
X0112595Y0477301D01*
X0112750Y0477272D01*
X0112905Y0477239D01*
X0113058Y0477203D01*
X0113211Y0477162D01*
X0113362Y0477118D01*
X0113512Y0477070D01*
X0113661Y0477019D01*
X0113809Y0476963D01*
X0113955Y0476904D01*
X0114100Y0476841D01*
X0114243Y0476774D01*
X0114384Y0476704D01*
X0114523Y0476631D01*
X0114661Y0476554D01*
X0114797Y0476473D01*
X0114930Y0476389D01*
X0115061Y0476302D01*
X0115190Y0476211D01*
X0115317Y0476117D01*
X0115442Y0476020D01*
X0115563Y0475920D01*
X0115683Y0475817D01*
X0115799Y0475711D01*
X0115913Y0475602D01*
X0116025Y0475490D01*
X0116133Y0475376D01*
X0116238Y0475258D01*
X0116341Y0475138D01*
X0116440Y0475016D01*
X0116536Y0474891D01*
X0116629Y0474763D01*
X0116719Y0474634D01*
X0116805Y0474502D01*
X0116889Y0474368D01*
X0116968Y0474232D01*
X0117045Y0474094D01*
X0117117Y0473954D01*
X0117186Y0473812D01*
X0117252Y0473669D01*
X0117314Y0473524D01*
X0117372Y0473377D01*
X0117427Y0473229D01*
X0117478Y0473080D01*
X0117525Y0472929D01*
X0117568Y0472778D01*
X0117607Y0472625D01*
X0117643Y0472471D01*
X0117674Y0472317D01*
X0117702Y0472162D01*
X0117726Y0472006D01*
X0117746Y0471849D01*
X0117762Y0471692D01*
X0117774Y0471535D01*
X0117782Y0471378D01*
X0117786Y0471220D01*
X0117786Y0471062D01*
X0117782Y0470904D01*
X0117774Y0470747D01*
X0117762Y0470590D01*
X0117746Y0470433D01*
X0117726Y0470276D01*
X0117702Y0470120D01*
X0117674Y0469965D01*
X0117643Y0469811D01*
X0117607Y0469657D01*
X0117568Y0469504D01*
X0117525Y0469353D01*
X0117478Y0469202D01*
X0117427Y0469053D01*
X0117372Y0468905D01*
X0117314Y0468758D01*
X0117252Y0468613D01*
X0117186Y0468470D01*
X0117117Y0468328D01*
X0117045Y0468188D01*
X0116968Y0468050D01*
X0116889Y0467914D01*
X0116805Y0467780D01*
X0116719Y0467648D01*
X0116629Y0467519D01*
X0116536Y0467391D01*
X0116440Y0467266D01*
X0116341Y0467144D01*
X0116238Y0467024D01*
X0116133Y0466906D01*
X0116025Y0466792D01*
X0115913Y0466680D01*
X0115799Y0466571D01*
X0115683Y0466465D01*
X0115563Y0466362D01*
X0115442Y0466262D01*
X0115317Y0466165D01*
X0115190Y0466071D01*
X0115061Y0465980D01*
X0114930Y0465893D01*
X0114797Y0465809D01*
X0114661Y0465728D01*
X0114523Y0465651D01*
X0114384Y0465578D01*
X0114243Y0465508D01*
X0114100Y0465441D01*
X0113955Y0465378D01*
X0113809Y0465319D01*
X0113661Y0465263D01*
X0113512Y0465212D01*
X0113362Y0465164D01*
X0113211Y0465120D01*
X0113058Y0465079D01*
X0112905Y0465043D01*
X0112750Y0465010D01*
X0112595Y0464981D01*
X0112440Y0464957D01*
X0112283Y0464936D01*
X0112127Y0464919D01*
X0111969Y0464906D01*
X0111812Y0464897D01*
X0111654Y0464892D01*
X0111497Y0464891D01*
X0111339Y0464894D01*
X0111181Y0464901D01*
X0111024Y0464912D01*
X0110867Y0464927D01*
X0110710Y0464946D01*
X0110554Y0464969D01*
X0110399Y0464995D01*
X0110244Y0465026D01*
X0110090Y0465060D01*
X0109937Y0465099D01*
X0109785Y0465141D01*
X0109635Y0465187D01*
X0109485Y0465237D01*
X0109337Y0465291D01*
X0109190Y0465348D01*
X0109044Y0465409D01*
X0108901Y0465474D01*
X0108758Y0465542D01*
X0108618Y0465614D01*
X0108480Y0465689D01*
X0108343Y0465768D01*
X0108208Y0465850D01*
X0108076Y0465936D01*
X0107946Y0466025D01*
X0107818Y0466117D01*
X0107692Y0466213D01*
X0107569Y0466311D01*
X0107449Y0466413D01*
X0107331Y0466518D01*
X0107215Y0466625D01*
X0107103Y0466736D01*
X0106993Y0466849D01*
X0106886Y0466965D01*
X0106782Y0467083D01*
X0106681Y0467205D01*
X0106584Y0467328D01*
X0106489Y0467455D01*
X0106398Y0467583D01*
X0106309Y0467714D01*
X0106225Y0467847D01*
X0106143Y0467982D01*
X0106065Y0468119D01*
X0105991Y0468258D01*
X0105920Y0468399D01*
X0105852Y0468541D01*
X0105789Y0468686D01*
X0105728Y0468831D01*
X0105672Y0468979D01*
X0105619Y0469127D01*
X0105570Y0469277D01*
X0105525Y0469428D01*
X0105484Y0469581D01*
X0105446Y0469734D01*
X0105413Y0469888D01*
X0105383Y0470043D01*
X0105357Y0470198D01*
X0105336Y0470355D01*
X0105318Y0470511D01*
X0105304Y0470668D01*
X0105294Y0470826D01*
X0105288Y0470983D01*
X0105286Y0471141D01*
X0132845Y0471141D02*
X0132847Y0471299D01*
X0132853Y0471456D01*
X0132863Y0471614D01*
X0132877Y0471771D01*
X0132895Y0471927D01*
X0132916Y0472084D01*
X0132942Y0472239D01*
X0132972Y0472394D01*
X0133005Y0472548D01*
X0133043Y0472701D01*
X0133084Y0472854D01*
X0133129Y0473005D01*
X0133178Y0473155D01*
X0133231Y0473303D01*
X0133287Y0473451D01*
X0133348Y0473596D01*
X0133411Y0473741D01*
X0133479Y0473883D01*
X0133550Y0474024D01*
X0133624Y0474163D01*
X0133702Y0474300D01*
X0133784Y0474435D01*
X0133868Y0474568D01*
X0133957Y0474699D01*
X0134048Y0474827D01*
X0134143Y0474954D01*
X0134240Y0475077D01*
X0134341Y0475199D01*
X0134445Y0475317D01*
X0134552Y0475433D01*
X0134662Y0475546D01*
X0134774Y0475657D01*
X0134890Y0475764D01*
X0135008Y0475869D01*
X0135128Y0475971D01*
X0135251Y0476069D01*
X0135377Y0476165D01*
X0135505Y0476257D01*
X0135635Y0476346D01*
X0135767Y0476432D01*
X0135902Y0476514D01*
X0136039Y0476593D01*
X0136177Y0476668D01*
X0136317Y0476740D01*
X0136460Y0476808D01*
X0136603Y0476873D01*
X0136749Y0476934D01*
X0136896Y0476991D01*
X0137044Y0477045D01*
X0137194Y0477095D01*
X0137344Y0477141D01*
X0137496Y0477183D01*
X0137649Y0477222D01*
X0137803Y0477256D01*
X0137958Y0477287D01*
X0138113Y0477313D01*
X0138269Y0477336D01*
X0138426Y0477355D01*
X0138583Y0477370D01*
X0138740Y0477381D01*
X0138898Y0477388D01*
X0139056Y0477391D01*
X0139213Y0477390D01*
X0139371Y0477385D01*
X0139528Y0477376D01*
X0139686Y0477363D01*
X0139842Y0477346D01*
X0139999Y0477325D01*
X0140154Y0477301D01*
X0140309Y0477272D01*
X0140464Y0477239D01*
X0140617Y0477203D01*
X0140770Y0477162D01*
X0140921Y0477118D01*
X0141071Y0477070D01*
X0141220Y0477019D01*
X0141368Y0476963D01*
X0141514Y0476904D01*
X0141659Y0476841D01*
X0141802Y0476774D01*
X0141943Y0476704D01*
X0142082Y0476631D01*
X0142220Y0476554D01*
X0142356Y0476473D01*
X0142489Y0476389D01*
X0142620Y0476302D01*
X0142749Y0476211D01*
X0142876Y0476117D01*
X0143001Y0476020D01*
X0143122Y0475920D01*
X0143242Y0475817D01*
X0143358Y0475711D01*
X0143472Y0475602D01*
X0143584Y0475490D01*
X0143692Y0475376D01*
X0143797Y0475258D01*
X0143900Y0475138D01*
X0143999Y0475016D01*
X0144095Y0474891D01*
X0144188Y0474763D01*
X0144278Y0474634D01*
X0144364Y0474502D01*
X0144448Y0474368D01*
X0144527Y0474232D01*
X0144604Y0474094D01*
X0144676Y0473954D01*
X0144745Y0473812D01*
X0144811Y0473669D01*
X0144873Y0473524D01*
X0144931Y0473377D01*
X0144986Y0473229D01*
X0145037Y0473080D01*
X0145084Y0472929D01*
X0145127Y0472778D01*
X0145166Y0472625D01*
X0145202Y0472471D01*
X0145233Y0472317D01*
X0145261Y0472162D01*
X0145285Y0472006D01*
X0145305Y0471849D01*
X0145321Y0471692D01*
X0145333Y0471535D01*
X0145341Y0471378D01*
X0145345Y0471220D01*
X0145345Y0471062D01*
X0145341Y0470904D01*
X0145333Y0470747D01*
X0145321Y0470590D01*
X0145305Y0470433D01*
X0145285Y0470276D01*
X0145261Y0470120D01*
X0145233Y0469965D01*
X0145202Y0469811D01*
X0145166Y0469657D01*
X0145127Y0469504D01*
X0145084Y0469353D01*
X0145037Y0469202D01*
X0144986Y0469053D01*
X0144931Y0468905D01*
X0144873Y0468758D01*
X0144811Y0468613D01*
X0144745Y0468470D01*
X0144676Y0468328D01*
X0144604Y0468188D01*
X0144527Y0468050D01*
X0144448Y0467914D01*
X0144364Y0467780D01*
X0144278Y0467648D01*
X0144188Y0467519D01*
X0144095Y0467391D01*
X0143999Y0467266D01*
X0143900Y0467144D01*
X0143797Y0467024D01*
X0143692Y0466906D01*
X0143584Y0466792D01*
X0143472Y0466680D01*
X0143358Y0466571D01*
X0143242Y0466465D01*
X0143122Y0466362D01*
X0143001Y0466262D01*
X0142876Y0466165D01*
X0142749Y0466071D01*
X0142620Y0465980D01*
X0142489Y0465893D01*
X0142356Y0465809D01*
X0142220Y0465728D01*
X0142082Y0465651D01*
X0141943Y0465578D01*
X0141802Y0465508D01*
X0141659Y0465441D01*
X0141514Y0465378D01*
X0141368Y0465319D01*
X0141220Y0465263D01*
X0141071Y0465212D01*
X0140921Y0465164D01*
X0140770Y0465120D01*
X0140617Y0465079D01*
X0140464Y0465043D01*
X0140309Y0465010D01*
X0140154Y0464981D01*
X0139999Y0464957D01*
X0139842Y0464936D01*
X0139686Y0464919D01*
X0139528Y0464906D01*
X0139371Y0464897D01*
X0139213Y0464892D01*
X0139056Y0464891D01*
X0138898Y0464894D01*
X0138740Y0464901D01*
X0138583Y0464912D01*
X0138426Y0464927D01*
X0138269Y0464946D01*
X0138113Y0464969D01*
X0137958Y0464995D01*
X0137803Y0465026D01*
X0137649Y0465060D01*
X0137496Y0465099D01*
X0137344Y0465141D01*
X0137194Y0465187D01*
X0137044Y0465237D01*
X0136896Y0465291D01*
X0136749Y0465348D01*
X0136603Y0465409D01*
X0136460Y0465474D01*
X0136317Y0465542D01*
X0136177Y0465614D01*
X0136039Y0465689D01*
X0135902Y0465768D01*
X0135767Y0465850D01*
X0135635Y0465936D01*
X0135505Y0466025D01*
X0135377Y0466117D01*
X0135251Y0466213D01*
X0135128Y0466311D01*
X0135008Y0466413D01*
X0134890Y0466518D01*
X0134774Y0466625D01*
X0134662Y0466736D01*
X0134552Y0466849D01*
X0134445Y0466965D01*
X0134341Y0467083D01*
X0134240Y0467205D01*
X0134143Y0467328D01*
X0134048Y0467455D01*
X0133957Y0467583D01*
X0133868Y0467714D01*
X0133784Y0467847D01*
X0133702Y0467982D01*
X0133624Y0468119D01*
X0133550Y0468258D01*
X0133479Y0468399D01*
X0133411Y0468541D01*
X0133348Y0468686D01*
X0133287Y0468831D01*
X0133231Y0468979D01*
X0133178Y0469127D01*
X0133129Y0469277D01*
X0133084Y0469428D01*
X0133043Y0469581D01*
X0133005Y0469734D01*
X0132972Y0469888D01*
X0132942Y0470043D01*
X0132916Y0470198D01*
X0132895Y0470355D01*
X0132877Y0470511D01*
X0132863Y0470668D01*
X0132853Y0470826D01*
X0132847Y0470983D01*
X0132845Y0471141D01*
X0231270Y0471141D02*
X0231272Y0471299D01*
X0231278Y0471456D01*
X0231288Y0471614D01*
X0231302Y0471771D01*
X0231320Y0471927D01*
X0231341Y0472084D01*
X0231367Y0472239D01*
X0231397Y0472394D01*
X0231430Y0472548D01*
X0231468Y0472701D01*
X0231509Y0472854D01*
X0231554Y0473005D01*
X0231603Y0473155D01*
X0231656Y0473303D01*
X0231712Y0473451D01*
X0231773Y0473596D01*
X0231836Y0473741D01*
X0231904Y0473883D01*
X0231975Y0474024D01*
X0232049Y0474163D01*
X0232127Y0474300D01*
X0232209Y0474435D01*
X0232293Y0474568D01*
X0232382Y0474699D01*
X0232473Y0474827D01*
X0232568Y0474954D01*
X0232665Y0475077D01*
X0232766Y0475199D01*
X0232870Y0475317D01*
X0232977Y0475433D01*
X0233087Y0475546D01*
X0233199Y0475657D01*
X0233315Y0475764D01*
X0233433Y0475869D01*
X0233553Y0475971D01*
X0233676Y0476069D01*
X0233802Y0476165D01*
X0233930Y0476257D01*
X0234060Y0476346D01*
X0234192Y0476432D01*
X0234327Y0476514D01*
X0234464Y0476593D01*
X0234602Y0476668D01*
X0234742Y0476740D01*
X0234885Y0476808D01*
X0235028Y0476873D01*
X0235174Y0476934D01*
X0235321Y0476991D01*
X0235469Y0477045D01*
X0235619Y0477095D01*
X0235769Y0477141D01*
X0235921Y0477183D01*
X0236074Y0477222D01*
X0236228Y0477256D01*
X0236383Y0477287D01*
X0236538Y0477313D01*
X0236694Y0477336D01*
X0236851Y0477355D01*
X0237008Y0477370D01*
X0237165Y0477381D01*
X0237323Y0477388D01*
X0237481Y0477391D01*
X0237638Y0477390D01*
X0237796Y0477385D01*
X0237953Y0477376D01*
X0238111Y0477363D01*
X0238267Y0477346D01*
X0238424Y0477325D01*
X0238579Y0477301D01*
X0238734Y0477272D01*
X0238889Y0477239D01*
X0239042Y0477203D01*
X0239195Y0477162D01*
X0239346Y0477118D01*
X0239496Y0477070D01*
X0239645Y0477019D01*
X0239793Y0476963D01*
X0239939Y0476904D01*
X0240084Y0476841D01*
X0240227Y0476774D01*
X0240368Y0476704D01*
X0240507Y0476631D01*
X0240645Y0476554D01*
X0240781Y0476473D01*
X0240914Y0476389D01*
X0241045Y0476302D01*
X0241174Y0476211D01*
X0241301Y0476117D01*
X0241426Y0476020D01*
X0241547Y0475920D01*
X0241667Y0475817D01*
X0241783Y0475711D01*
X0241897Y0475602D01*
X0242009Y0475490D01*
X0242117Y0475376D01*
X0242222Y0475258D01*
X0242325Y0475138D01*
X0242424Y0475016D01*
X0242520Y0474891D01*
X0242613Y0474763D01*
X0242703Y0474634D01*
X0242789Y0474502D01*
X0242873Y0474368D01*
X0242952Y0474232D01*
X0243029Y0474094D01*
X0243101Y0473954D01*
X0243170Y0473812D01*
X0243236Y0473669D01*
X0243298Y0473524D01*
X0243356Y0473377D01*
X0243411Y0473229D01*
X0243462Y0473080D01*
X0243509Y0472929D01*
X0243552Y0472778D01*
X0243591Y0472625D01*
X0243627Y0472471D01*
X0243658Y0472317D01*
X0243686Y0472162D01*
X0243710Y0472006D01*
X0243730Y0471849D01*
X0243746Y0471692D01*
X0243758Y0471535D01*
X0243766Y0471378D01*
X0243770Y0471220D01*
X0243770Y0471062D01*
X0243766Y0470904D01*
X0243758Y0470747D01*
X0243746Y0470590D01*
X0243730Y0470433D01*
X0243710Y0470276D01*
X0243686Y0470120D01*
X0243658Y0469965D01*
X0243627Y0469811D01*
X0243591Y0469657D01*
X0243552Y0469504D01*
X0243509Y0469353D01*
X0243462Y0469202D01*
X0243411Y0469053D01*
X0243356Y0468905D01*
X0243298Y0468758D01*
X0243236Y0468613D01*
X0243170Y0468470D01*
X0243101Y0468328D01*
X0243029Y0468188D01*
X0242952Y0468050D01*
X0242873Y0467914D01*
X0242789Y0467780D01*
X0242703Y0467648D01*
X0242613Y0467519D01*
X0242520Y0467391D01*
X0242424Y0467266D01*
X0242325Y0467144D01*
X0242222Y0467024D01*
X0242117Y0466906D01*
X0242009Y0466792D01*
X0241897Y0466680D01*
X0241783Y0466571D01*
X0241667Y0466465D01*
X0241547Y0466362D01*
X0241426Y0466262D01*
X0241301Y0466165D01*
X0241174Y0466071D01*
X0241045Y0465980D01*
X0240914Y0465893D01*
X0240781Y0465809D01*
X0240645Y0465728D01*
X0240507Y0465651D01*
X0240368Y0465578D01*
X0240227Y0465508D01*
X0240084Y0465441D01*
X0239939Y0465378D01*
X0239793Y0465319D01*
X0239645Y0465263D01*
X0239496Y0465212D01*
X0239346Y0465164D01*
X0239195Y0465120D01*
X0239042Y0465079D01*
X0238889Y0465043D01*
X0238734Y0465010D01*
X0238579Y0464981D01*
X0238424Y0464957D01*
X0238267Y0464936D01*
X0238111Y0464919D01*
X0237953Y0464906D01*
X0237796Y0464897D01*
X0237638Y0464892D01*
X0237481Y0464891D01*
X0237323Y0464894D01*
X0237165Y0464901D01*
X0237008Y0464912D01*
X0236851Y0464927D01*
X0236694Y0464946D01*
X0236538Y0464969D01*
X0236383Y0464995D01*
X0236228Y0465026D01*
X0236074Y0465060D01*
X0235921Y0465099D01*
X0235769Y0465141D01*
X0235619Y0465187D01*
X0235469Y0465237D01*
X0235321Y0465291D01*
X0235174Y0465348D01*
X0235028Y0465409D01*
X0234885Y0465474D01*
X0234742Y0465542D01*
X0234602Y0465614D01*
X0234464Y0465689D01*
X0234327Y0465768D01*
X0234192Y0465850D01*
X0234060Y0465936D01*
X0233930Y0466025D01*
X0233802Y0466117D01*
X0233676Y0466213D01*
X0233553Y0466311D01*
X0233433Y0466413D01*
X0233315Y0466518D01*
X0233199Y0466625D01*
X0233087Y0466736D01*
X0232977Y0466849D01*
X0232870Y0466965D01*
X0232766Y0467083D01*
X0232665Y0467205D01*
X0232568Y0467328D01*
X0232473Y0467455D01*
X0232382Y0467583D01*
X0232293Y0467714D01*
X0232209Y0467847D01*
X0232127Y0467982D01*
X0232049Y0468119D01*
X0231975Y0468258D01*
X0231904Y0468399D01*
X0231836Y0468541D01*
X0231773Y0468686D01*
X0231712Y0468831D01*
X0231656Y0468979D01*
X0231603Y0469127D01*
X0231554Y0469277D01*
X0231509Y0469428D01*
X0231468Y0469581D01*
X0231430Y0469734D01*
X0231397Y0469888D01*
X0231367Y0470043D01*
X0231341Y0470198D01*
X0231320Y0470355D01*
X0231302Y0470511D01*
X0231288Y0470668D01*
X0231278Y0470826D01*
X0231272Y0470983D01*
X0231270Y0471141D01*
D11*
X0222800Y0361964D03*
X0222800Y0340310D03*
X0222800Y0297464D03*
X0222800Y0275810D03*
X0222800Y0243964D03*
X0222800Y0222310D03*
X0222300Y0185464D03*
X0222300Y0163810D03*
X0223300Y0127464D03*
X0223300Y0105810D03*
X0223300Y0069464D03*
X0223300Y0047810D03*
X0064300Y0338310D03*
X0064300Y0359964D03*
D12*
X0095200Y0301637D03*
X0112400Y0301637D03*
D13*
X0107812Y0319137D03*
X0096788Y0319137D03*
X0071312Y0304637D03*
X0060288Y0304637D03*
X0071288Y0453637D03*
X0082312Y0453637D03*
X0053312Y0454137D03*
X0042288Y0454137D03*
X0171780Y0451106D03*
X0182804Y0451106D03*
X0195788Y0451098D03*
X0206812Y0451098D03*
X0123312Y0070637D03*
X0112288Y0070637D03*
X0114288Y0043637D03*
X0125312Y0043637D03*
X0052312Y0042137D03*
X0041288Y0042137D03*
D14*
X0039910Y0012137D03*
X0053690Y0012137D03*
X0114410Y0012637D03*
X0128190Y0012637D03*
X0239800Y0155247D03*
X0239800Y0169027D03*
X0239800Y0212747D03*
X0239800Y0226527D03*
X0239300Y0267747D03*
X0239300Y0281527D03*
X0240300Y0331247D03*
X0240300Y0345027D03*
X0240800Y0110027D03*
X0240800Y0096247D03*
X0240300Y0054027D03*
X0240300Y0040247D03*
X0111190Y0359137D03*
X0097410Y0359137D03*
D15*
X0097702Y0349637D03*
X0108898Y0349637D03*
X0114702Y0028137D03*
X0125898Y0028137D03*
X0052398Y0027137D03*
X0041202Y0027137D03*
D16*
X0045300Y0068637D03*
X0030800Y0068637D03*
X0015300Y0068137D03*
X0015800Y0049137D03*
X0060300Y0069137D03*
X0100300Y0050137D03*
X0127300Y0365137D03*
D17*
X0200300Y0343735D03*
X0200300Y0332539D03*
X0203300Y0281235D03*
X0203300Y0270039D03*
X0203800Y0227735D03*
X0203800Y0216539D03*
X0202800Y0168735D03*
X0202800Y0157539D03*
X0189300Y0111735D03*
X0189300Y0100539D03*
X0199300Y0052235D03*
X0199300Y0041039D03*
D18*
X0153800Y0180637D02*
X0153800Y0186637D01*
X0154300Y0213137D02*
X0154300Y0219137D01*
X0156300Y0248137D02*
X0156300Y0254137D01*
X0155300Y0281637D02*
X0155300Y0287637D01*
X0153300Y0313137D02*
X0153300Y0319137D01*
X0153800Y0343637D02*
X0153800Y0349637D01*
X0133800Y0349637D02*
X0133800Y0343637D01*
X0133300Y0319137D02*
X0133300Y0313137D01*
X0135300Y0287637D02*
X0135300Y0281637D01*
X0136300Y0254137D02*
X0136300Y0248137D01*
X0134300Y0219137D02*
X0134300Y0213137D01*
X0133800Y0186637D02*
X0133800Y0180637D01*
X0087300Y0024637D02*
X0087300Y0018637D01*
X0077300Y0018637D02*
X0077300Y0024637D01*
X0100662Y0404802D02*
X0106662Y0404802D01*
X0106662Y0414802D02*
X0100662Y0414802D01*
X0100662Y0424802D02*
X0106662Y0424802D01*
X0106662Y0434802D02*
X0100662Y0434802D01*
X0100662Y0444802D02*
X0106662Y0444802D01*
X0106662Y0454802D02*
X0100662Y0454802D01*
X0147906Y0454802D02*
X0153906Y0454802D01*
X0153906Y0444802D02*
X0147906Y0444802D01*
X0147906Y0434802D02*
X0153906Y0434802D01*
X0153906Y0424802D02*
X0147906Y0424802D01*
X0147906Y0414802D02*
X0153906Y0414802D01*
X0153906Y0404802D02*
X0147906Y0404802D01*
X0222709Y0404802D02*
X0228709Y0404802D01*
X0228709Y0414802D02*
X0222709Y0414802D01*
X0222709Y0424802D02*
X0228709Y0424802D01*
X0228709Y0434802D02*
X0222709Y0434802D01*
X0222709Y0444802D02*
X0228709Y0444802D01*
X0228709Y0454802D02*
X0222709Y0454802D01*
X0023985Y0454802D02*
X0017985Y0454802D01*
X0017985Y0444802D02*
X0023985Y0444802D01*
X0023985Y0434802D02*
X0017985Y0434802D01*
X0017985Y0424802D02*
X0023985Y0424802D01*
X0023985Y0414802D02*
X0017985Y0414802D01*
X0017985Y0404802D02*
X0023985Y0404802D01*
D19*
X0148300Y0026637D03*
X0148300Y0016637D03*
X0158300Y0016637D03*
X0158300Y0026637D03*
X0168300Y0026637D03*
X0168300Y0016637D03*
X0178300Y0016637D03*
X0178300Y0026637D03*
X0188300Y0026637D03*
X0188300Y0016637D03*
D20*
X0172245Y0420846D03*
X0172245Y0423405D03*
X0172245Y0425964D03*
X0172245Y0428523D03*
X0172245Y0431082D03*
X0172245Y0433641D03*
X0172245Y0436200D03*
X0172245Y0438759D03*
X0204371Y0438759D03*
X0204371Y0436200D03*
X0204371Y0433641D03*
X0204371Y0431082D03*
X0204371Y0428523D03*
X0204371Y0425964D03*
X0204371Y0423405D03*
X0204371Y0420846D03*
X0078387Y0420846D03*
X0078387Y0423405D03*
X0078387Y0425964D03*
X0078387Y0428523D03*
X0078387Y0431082D03*
X0078387Y0433641D03*
X0078387Y0436200D03*
X0078387Y0438759D03*
X0046261Y0438759D03*
X0046261Y0436200D03*
X0046261Y0433641D03*
X0046261Y0431082D03*
X0046261Y0428523D03*
X0046261Y0425964D03*
X0046261Y0423405D03*
X0046261Y0420846D03*
D21*
X0048800Y0115637D03*
X0038800Y0115637D03*
X0028800Y0115637D03*
X0068800Y0115637D03*
X0109300Y0097137D03*
X0119300Y0097137D03*
X0129300Y0097137D03*
X0149300Y0097137D03*
D22*
X0139300Y0097137D03*
X0058800Y0115637D03*
D23*
X0180300Y0325625D03*
X0180300Y0336649D03*
X0182800Y0280649D03*
X0182800Y0269625D03*
X0182800Y0228149D03*
X0182800Y0217125D03*
X0182800Y0183649D03*
X0182800Y0172625D03*
X0187300Y0142149D03*
X0187300Y0131125D03*
X0187800Y0077649D03*
X0187800Y0066625D03*
D24*
X0158312Y0050137D03*
X0147288Y0050137D03*
X0081812Y0049637D03*
X0070788Y0049637D03*
D25*
X0058190Y0269861D03*
X0095001Y0269861D03*
D26*
X0073198Y0306287D02*
X0073198Y0349999D01*
X0066261Y0358936D01*
X0066261Y0360905D02*
X0066261Y0370184D01*
X0104662Y0370184D01*
X0111036Y0363310D01*
X0111190Y0359137D01*
X0113505Y0355842D01*
X0116473Y0353873D01*
X0116473Y0325472D01*
X0109568Y0319566D01*
X0154843Y0337283D02*
X0154843Y0349094D01*
X0154843Y0337283D02*
X0178465Y0337283D01*
X0180434Y0325472D02*
X0193182Y0325972D01*
X0196182Y0327440D01*
X0200119Y0331377D01*
X0202087Y0333346D02*
X0221772Y0333346D01*
X0221772Y0339251D01*
X0231646Y0345157D02*
X0228178Y0349125D01*
X0209587Y0349125D01*
X0202087Y0345157D01*
X0231646Y0345157D02*
X0239489Y0345157D01*
X0239489Y0283665D02*
X0204056Y0283665D01*
X0221772Y0274291D02*
X0222800Y0275810D01*
X0233146Y0231046D02*
X0210678Y0231015D01*
X0204056Y0229015D01*
X0233146Y0231046D02*
X0239489Y0227046D01*
X0233989Y0172460D02*
X0211056Y0172460D01*
X0202800Y0168735D01*
X0216776Y0113873D02*
X0189300Y0111735D01*
X0175600Y0105403D02*
X0175600Y0090239D01*
X0187800Y0077649D01*
X0175600Y0105403D02*
X0153800Y0127203D01*
X0153800Y0183637D01*
X0119300Y0111637D02*
X0119300Y0097137D01*
X0114288Y0043637D02*
X0114288Y0039125D01*
X0111300Y0036137D01*
X0128190Y0012637D02*
X0128690Y0012137D01*
X0137300Y0012137D01*
X0082009Y0047913D02*
X0078072Y0043976D01*
X0078072Y0028228D01*
X0052481Y0028228D01*
X0042639Y0043976D02*
X0046139Y0050413D01*
X0070198Y0050413D01*
X0069198Y0114842D01*
X0060300Y0096137D02*
X0060300Y0069137D01*
X0078072Y0028228D02*
X0078072Y0022322D01*
X0216776Y0113873D02*
X0229178Y0115373D01*
X0235646Y0110905D01*
X0239489Y0110905D01*
X0239800Y0169027D02*
X0233989Y0172460D01*
D27*
X0239800Y0155247D02*
X0239489Y0154212D01*
X0223741Y0128621D02*
X0223300Y0127464D01*
X0239489Y0110905D02*
X0240800Y0110027D01*
X0240800Y0096247D02*
X0239489Y0095157D01*
X0223741Y0069566D02*
X0223300Y0069464D01*
X0200119Y0042007D02*
X0199300Y0041039D01*
X0198150Y0042007D01*
X0188308Y0065629D02*
X0187800Y0066625D01*
X0189300Y0100539D02*
X0190276Y0101062D01*
X0191776Y0102499D01*
X0189300Y0100539D02*
X0188308Y0101062D01*
X0186339Y0130590D02*
X0187300Y0131125D01*
X0187300Y0142149D02*
X0186339Y0144369D01*
X0198150Y0158149D02*
X0202087Y0158149D01*
X0202800Y0157539D01*
X0204056Y0158149D01*
X0204056Y0157586D01*
X0184371Y0171928D02*
X0182800Y0172625D01*
X0182800Y0183649D02*
X0182402Y0185708D01*
X0182800Y0217125D02*
X0184371Y0217204D01*
X0182800Y0228149D02*
X0182402Y0229015D01*
X0203800Y0227735D02*
X0204056Y0229015D01*
X0204056Y0217204D02*
X0203800Y0216539D01*
X0202087Y0217204D01*
X0221772Y0221141D02*
X0222800Y0222310D01*
X0222800Y0243964D02*
X0223741Y0244763D01*
X0239489Y0227046D02*
X0239800Y0226527D01*
X0239800Y0212747D02*
X0239489Y0211298D01*
X0223741Y0185708D02*
X0222300Y0185464D01*
X0239489Y0266417D02*
X0239300Y0267747D01*
X0239300Y0281527D02*
X0239489Y0283665D01*
X0223741Y0297913D02*
X0222800Y0297464D01*
X0239489Y0329409D02*
X0240300Y0331247D01*
X0240300Y0345027D02*
X0239489Y0345157D01*
X0222800Y0340310D02*
X0221772Y0339251D01*
X0202087Y0333346D02*
X0200300Y0332539D01*
X0200119Y0331377D01*
X0200300Y0343735D02*
X0202087Y0345157D01*
X0180300Y0336649D02*
X0178465Y0337283D01*
X0180300Y0325625D02*
X0180434Y0325472D01*
X0156812Y0284133D02*
X0155300Y0284637D01*
X0153300Y0316137D02*
X0154843Y0319566D01*
X0153800Y0346637D02*
X0154843Y0349094D01*
X0135158Y0319566D02*
X0133300Y0316137D01*
X0133190Y0321535D01*
X0133800Y0346637D02*
X0133190Y0351062D01*
X0133190Y0349094D02*
X0133800Y0346637D01*
X0129253Y0364842D02*
X0127300Y0365137D01*
X0109568Y0319566D02*
X0107812Y0319137D01*
X0109568Y0317598D01*
X0109568Y0303818D02*
X0111536Y0301850D01*
X0112400Y0301637D01*
X0096706Y0300932D02*
X0095788Y0301850D01*
X0095200Y0301637D01*
X0095788Y0299881D01*
X0095788Y0317598D02*
X0096788Y0319137D01*
X0097757Y0319566D01*
X0097757Y0356968D02*
X0097257Y0358842D01*
X0097410Y0359137D01*
X0073198Y0306287D02*
X0071312Y0304637D01*
X0060355Y0305787D02*
X0060288Y0304637D01*
X0059894Y0304243D01*
X0064292Y0337283D02*
X0064300Y0338310D01*
X0066261Y0358936D02*
X0064300Y0359964D01*
X0066261Y0360905D01*
X0135158Y0286102D02*
X0135300Y0284637D01*
X0135158Y0284133D01*
X0135158Y0252637D02*
X0136300Y0251137D01*
X0135158Y0250669D01*
X0135158Y0217204D02*
X0134300Y0216137D01*
X0154300Y0216137D02*
X0154843Y0215235D01*
X0156812Y0250669D02*
X0156300Y0251137D01*
X0182800Y0269625D02*
X0184371Y0269385D01*
X0182402Y0280196D02*
X0182800Y0280649D01*
X0203300Y0281235D02*
X0204056Y0283665D01*
X0203300Y0270039D02*
X0204056Y0269354D01*
X0203300Y0270039D02*
X0202087Y0269385D01*
X0225709Y0404802D02*
X0225800Y0405637D01*
X0225709Y0424802D02*
X0225800Y0425637D01*
X0225709Y0434802D02*
X0225800Y0435145D01*
X0206812Y0451098D02*
X0205300Y0451554D01*
X0195788Y0451098D02*
X0195800Y0449633D01*
X0182804Y0451106D02*
X0182300Y0449125D01*
X0171780Y0451106D02*
X0170800Y0448649D01*
X0129253Y0131090D02*
X0062324Y0131090D01*
X0059824Y0129621D01*
X0050513Y0116810D01*
X0048800Y0115637D01*
X0038800Y0115637D02*
X0038702Y0114842D01*
X0030828Y0106968D01*
X0030828Y0069566D01*
X0030800Y0068637D01*
X0022954Y0075472D02*
X0017048Y0069566D01*
X0015300Y0068137D01*
X0022954Y0075472D02*
X0022954Y0110905D01*
X0026891Y0114842D01*
X0028800Y0115637D01*
X0015800Y0049137D02*
X0017048Y0047913D01*
X0017048Y0043976D01*
X0040670Y0043976D01*
X0041288Y0042137D01*
X0042639Y0043976D01*
X0046576Y0038070D02*
X0046576Y0018385D01*
X0052481Y0012480D01*
X0053690Y0012137D01*
X0054450Y0012480D01*
X0085946Y0012480D01*
X0085946Y0020354D01*
X0087300Y0021637D01*
X0087914Y0022322D01*
X0088914Y0041476D01*
X0113505Y0041476D01*
X0114288Y0043637D01*
X0123347Y0043976D02*
X0125312Y0043637D01*
X0125316Y0043976D01*
X0145001Y0043976D01*
X0145001Y0049881D01*
X0147288Y0050137D01*
X0146969Y0051850D01*
X0146969Y0095157D01*
X0148938Y0097125D01*
X0149300Y0097137D01*
X0129300Y0097137D02*
X0129253Y0099094D01*
X0129253Y0131090D01*
X0129300Y0097137D02*
X0129253Y0097125D01*
X0129253Y0077440D01*
X0123347Y0071535D01*
X0123312Y0070637D01*
X0112288Y0070637D02*
X0111536Y0069566D01*
X0088914Y0055444D01*
X0088914Y0041476D01*
X0082009Y0047913D02*
X0081812Y0049637D01*
X0070788Y0049637D02*
X0070198Y0049881D01*
X0070198Y0050413D01*
X0070788Y0049637D01*
X0078072Y0022322D02*
X0077300Y0021637D01*
X0100300Y0050137D02*
X0101694Y0049881D01*
X0123347Y0049881D01*
X0123347Y0043976D01*
X0114702Y0028137D02*
X0113505Y0026259D01*
X0113505Y0014448D01*
X0114410Y0012637D01*
X0069198Y0114842D02*
X0068800Y0115637D01*
X0052312Y0042137D02*
X0050513Y0042007D01*
X0046576Y0038070D01*
X0052481Y0028228D02*
X0052398Y0027137D01*
X0041202Y0027137D02*
X0040670Y0026259D01*
X0040670Y0012480D01*
X0039910Y0012137D01*
D28*
X0125898Y0028137D02*
X0127398Y0026637D01*
X0148300Y0026637D01*
X0158300Y0026637D01*
X0168300Y0026637D01*
X0168800Y0026637D02*
X0178300Y0026637D01*
X0188300Y0026637D01*
X0188300Y0016637D02*
X0198800Y0016637D01*
X0219800Y0037637D01*
X0237690Y0037637D01*
X0240300Y0040247D01*
X0240300Y0054027D02*
X0230989Y0056818D01*
X0213619Y0056818D01*
X0199300Y0052235D01*
X0200119Y0042007D02*
X0211619Y0047444D01*
X0223772Y0047444D01*
X0223300Y0047810D01*
X0223741Y0069566D02*
X0223741Y0079409D01*
X0239489Y0095157D01*
X0223272Y0102499D02*
X0223300Y0105810D01*
X0223272Y0102499D02*
X0191776Y0102499D01*
X0188308Y0101062D02*
X0181871Y0104999D01*
X0181871Y0128621D01*
X0186339Y0130590D01*
X0186339Y0144369D02*
X0167780Y0163428D01*
X0167780Y0191798D01*
X0154843Y0215235D01*
X0167249Y0215361D02*
X0167249Y0240231D01*
X0156812Y0250669D01*
X0170249Y0251669D02*
X0170249Y0271696D01*
X0156812Y0284133D01*
X0154843Y0307755D02*
X0154843Y0319566D01*
X0154843Y0307755D02*
X0182402Y0280196D01*
X0184371Y0269385D02*
X0202087Y0269385D01*
X0204056Y0269354D02*
X0221772Y0269354D01*
X0221772Y0274291D01*
X0239489Y0266417D02*
X0223741Y0250669D01*
X0223741Y0244763D01*
X0221772Y0221141D02*
X0221772Y0217204D01*
X0204056Y0217204D01*
X0202087Y0217204D02*
X0184371Y0217204D01*
X0182402Y0229015D02*
X0170249Y0251669D01*
X0167249Y0215361D02*
X0182402Y0185708D01*
X0184371Y0171928D02*
X0198150Y0158149D01*
X0204056Y0157586D02*
X0221772Y0157586D01*
X0222300Y0163810D01*
X0239489Y0154212D02*
X0223741Y0138464D01*
X0223741Y0128621D01*
X0223741Y0185708D02*
X0223741Y0195550D01*
X0239489Y0211298D01*
X0223741Y0297913D02*
X0223741Y0313661D01*
X0239489Y0329409D01*
X0135158Y0319566D02*
X0135158Y0286102D01*
X0135158Y0284133D02*
X0135158Y0260511D01*
X0095788Y0299881D01*
X0095788Y0301850D02*
X0095788Y0317598D01*
X0097757Y0319566D02*
X0097757Y0330688D01*
X0108568Y0342999D01*
X0108898Y0349637D01*
X0097702Y0349637D02*
X0097757Y0356968D01*
X0109568Y0317598D02*
X0109568Y0303818D01*
X0095001Y0269861D02*
X0095296Y0269566D01*
X0095296Y0207361D01*
X0119020Y0183637D01*
X0133800Y0183637D01*
X0134300Y0184137D01*
X0134300Y0216137D01*
X0135158Y0217204D02*
X0135158Y0250669D01*
X0135158Y0252637D02*
X0135158Y0260511D01*
X0133190Y0321535D02*
X0133190Y0349094D01*
X0133190Y0351062D02*
X0133190Y0360905D01*
X0129253Y0364842D01*
X0064292Y0337283D02*
X0063800Y0314153D01*
X0060355Y0305787D01*
X0060288Y0304637D02*
X0060288Y0271960D01*
X0058190Y0269861D01*
X0158312Y0050137D02*
X0158702Y0027039D01*
X0158300Y0026637D01*
X0168800Y0026637D01*
X0188713Y0042444D02*
X0198150Y0042007D01*
X0188713Y0042444D02*
X0188713Y0058724D01*
X0188308Y0065629D01*
D29*
X0137300Y0012137D03*
X0111300Y0036137D03*
X0119300Y0111637D03*
X0060300Y0096137D03*
D30*
X0028769Y0405161D02*
X0020985Y0404802D01*
X0020985Y0414802D02*
X0023769Y0414700D01*
X0028753Y0415192D01*
X0039461Y0425806D01*
X0046261Y0425964D01*
X0046261Y0423405D02*
X0051402Y0423239D01*
X0053800Y0424137D01*
X0053800Y0440137D01*
X0042800Y0445637D01*
X0042300Y0453625D01*
X0042288Y0454137D01*
X0042288Y0460125D01*
X0044800Y0462637D01*
X0068300Y0462637D01*
X0070800Y0460137D01*
X0070800Y0454125D01*
X0071288Y0453637D01*
X0071288Y0459625D01*
X0076300Y0463653D01*
X0105800Y0463653D01*
X0111776Y0459153D01*
X0111776Y0450137D01*
X0107300Y0447137D01*
X0103662Y0444802D01*
X0103662Y0434802D02*
X0093800Y0434637D01*
X0089800Y0429637D01*
X0084454Y0425806D01*
X0078387Y0425964D01*
X0078387Y0428523D02*
X0072020Y0428357D01*
X0072300Y0418137D01*
X0082300Y0409637D01*
X0083300Y0408637D01*
X0100300Y0408637D01*
X0103662Y0404802D01*
X0103662Y0414802D02*
X0084843Y0420680D01*
X0078387Y0420846D01*
X0078387Y0423405D02*
X0086902Y0423239D01*
X0091800Y0426637D01*
X0101300Y0426637D01*
X0103662Y0424802D01*
X0086800Y0441637D02*
X0095666Y0454448D01*
X0103662Y0454802D01*
X0086800Y0441637D02*
X0085257Y0438594D01*
X0078387Y0438759D01*
X0064343Y0438594D01*
X0064300Y0438637D01*
X0057800Y0443137D01*
X0053300Y0446137D01*
X0053300Y0454125D01*
X0053312Y0454137D01*
X0046261Y0438759D02*
X0038843Y0439094D01*
X0033300Y0450637D01*
X0030300Y0456137D01*
X0020985Y0454802D01*
X0020985Y0444802D02*
X0028792Y0444669D01*
X0029300Y0444653D01*
X0029800Y0444137D01*
X0036902Y0436535D01*
X0046261Y0436200D01*
X0046261Y0433641D02*
X0038461Y0433476D01*
X0026800Y0436637D01*
X0020985Y0434802D01*
X0020985Y0424802D02*
X0038020Y0430917D01*
X0046261Y0431082D01*
X0046261Y0420846D02*
X0040843Y0420680D01*
X0028769Y0405161D01*
X0071800Y0434637D02*
X0073721Y0436035D01*
X0078387Y0436200D01*
X0082300Y0443637D02*
X0082300Y0453625D01*
X0082312Y0453637D01*
X0150906Y0454802D02*
X0151300Y0454409D01*
X0159272Y0454409D01*
X0162225Y0451456D01*
X0162225Y0444566D01*
X0168032Y0438759D01*
X0172245Y0438759D01*
X0172245Y0436200D02*
X0166355Y0435940D01*
X0150906Y0444802D01*
X0150906Y0434802D02*
X0166820Y0433373D01*
X0172245Y0433641D01*
X0172245Y0431082D02*
X0166269Y0430814D01*
X0150906Y0424802D01*
X0150906Y0414802D02*
X0166217Y0425696D01*
X0172245Y0425964D01*
X0172245Y0423405D02*
X0177674Y0423629D01*
X0179745Y0426480D01*
X0179745Y0440098D01*
X0170800Y0444613D01*
X0170800Y0448649D01*
X0171780Y0451106D02*
X0171780Y0457125D01*
X0173300Y0460121D01*
X0195800Y0460121D01*
X0195800Y0449633D01*
X0199135Y0435932D02*
X0197729Y0433543D01*
X0197363Y0433310D01*
X0199135Y0435932D02*
X0204371Y0436200D01*
X0204371Y0438759D02*
X0187296Y0438491D01*
X0182300Y0442503D01*
X0182300Y0449125D01*
X0195800Y0460121D02*
X0200800Y0464137D01*
X0230300Y0464137D01*
X0235300Y0459137D01*
X0235300Y0449637D01*
X0231800Y0446137D01*
X0225709Y0444802D01*
X0225800Y0435145D02*
X0218800Y0435145D01*
X0218300Y0435137D01*
X0215347Y0435082D01*
X0209438Y0426188D01*
X0204371Y0425964D01*
X0204371Y0428523D02*
X0198497Y0428255D01*
X0196237Y0426487D01*
X0196237Y0416011D01*
X0205627Y0405637D01*
X0225800Y0405637D01*
X0225709Y0414802D02*
X0210564Y0420578D01*
X0204371Y0420846D01*
X0204371Y0423405D02*
X0210879Y0423629D01*
X0218300Y0425637D01*
X0225800Y0425637D01*
X0209233Y0438983D02*
X0215776Y0444543D01*
X0217745Y0451669D01*
X0220245Y0454169D01*
X0225709Y0454802D01*
X0209233Y0438983D02*
X0204371Y0438759D01*
X0205792Y0443574D02*
X0205300Y0451554D01*
X0172245Y0420846D02*
X0166343Y0420578D01*
X0160276Y0404669D01*
X0150906Y0404802D01*
D31*
X0197363Y0433310D03*
X0205792Y0443574D03*
X0082300Y0443637D03*
X0071800Y0434637D03*
M02*
