%
M48
M72
T01C0.01378
T02C0.02362
T03C0.03937
T04C0.04000
T05C0.05200
T06C0.05512
T07C0.08600
T08C0.11811
T09C0.12500
%
T01
X71800Y434637
X82300Y443637
X197363Y433310
X205792Y443574
T02
X119300Y111637
X111300Y36137
X137300Y12137
X60300Y96137
T03
X58800Y115637
X48800Y115637
X38800Y115637
X28800Y115637
X68800Y115637
X109300Y97137
X119300Y97137
X129300Y97137
X139300Y97137
X149300Y97137
T04
X148300Y26637
X148300Y16637
X158300Y16637
X158300Y26637
X168300Y26637
X168300Y16637
X178300Y16637
X178300Y26637
X188300Y26637
X188300Y16637
X153800Y183637
X154300Y216137
X156300Y251137
X155300Y284637
X153300Y316137
X153800Y346637
X133800Y346637
X133300Y316137
X135300Y284637
X136300Y251137
X134300Y216137
X133800Y183637
X87300Y21637
X77300Y21637
X103662Y404802
X103662Y414802
X103662Y424802
X103662Y434802
X103662Y444802
X103662Y454802
X150906Y454802
X150906Y444802
X150906Y434802
X150906Y424802
X150906Y414802
X150906Y404802
X225709Y404802
X225709Y414802
X225709Y424802
X225709Y434802
X225709Y444802
X225709Y454802
X20985Y454802
X20985Y444802
X20985Y434802
X20985Y424802
X20985Y414802
X20985Y404802
T05
X127300Y365137
X60300Y69137
X45300Y68637
X30800Y68637
X15300Y68137
X15800Y49137
X100300Y50137
T06
X223300Y47810
X223300Y69464
X223300Y105810
X223300Y127464
X222300Y163810
X222300Y185464
X222800Y222310
X222800Y243964
X222800Y275810
X222800Y297464
X222800Y340310
X222800Y361964
X64300Y359964
X64300Y338310
T07
X32800Y171637
X84800Y119637
X113300Y153137
X165300Y101137
T08
X204056Y89251
X204796Y67653
X204796Y125653
X203796Y183653
X204296Y242153
X204296Y295653
X204056Y317598
X204296Y360153
X241304Y360153
X241304Y295653
X241304Y242153
X240804Y183653
X241804Y125653
X241804Y67653
X82804Y358153
X45796Y358153
X11143Y317598
X11143Y89251
T09
X20985Y22322
X20985Y356968
X13111Y388464
X13111Y471141
X111536Y471141
X139095Y471141
X139095Y388464
X111536Y388464
X178465Y356968
X237520Y388464
X237520Y471141
X229646Y22322
M30
