G75*
%MOIN*%
%OFA0B0*%
%FSLAX25Y25*%
%IPPOS*%
%LPD*%
%AMOC8*
5,1,8,0,0,1.08239X$1,22.5*
%
%ADD10R,0.08268X0.08268*%
%ADD11OC8,0.08500*%
%ADD12C,0.06000*%
%ADD13OC8,0.06000*%
%ADD14C,0.05937*%
%ADD15R,0.05937X0.05937*%
%ADD16C,0.01200*%
%ADD17C,0.03962*%
%ADD18C,0.04000*%
%ADD19C,0.02978*%
%ADD20C,0.01969*%
%ADD21C,0.03150*%
%ADD22C,0.01600*%
D10*
X0064300Y0338310D03*
X0064300Y0359964D03*
X0222800Y0361964D03*
X0222800Y0340310D03*
X0222800Y0297464D03*
X0222800Y0275810D03*
X0222800Y0243964D03*
X0222800Y0222310D03*
X0222300Y0185464D03*
X0222300Y0163810D03*
X0223300Y0127464D03*
X0223300Y0105810D03*
X0223300Y0069464D03*
X0223300Y0047810D03*
D11*
X0100300Y0050137D03*
X0060300Y0069137D03*
X0045300Y0068637D03*
X0030800Y0068637D03*
X0015300Y0068137D03*
X0015800Y0049137D03*
X0127300Y0365137D03*
D12*
X0133800Y0349637D02*
X0133800Y0343637D01*
X0133300Y0319137D02*
X0133300Y0313137D01*
X0135300Y0287637D02*
X0135300Y0281637D01*
X0136300Y0254137D02*
X0136300Y0248137D01*
X0134300Y0219137D02*
X0134300Y0213137D01*
X0133800Y0186637D02*
X0133800Y0180637D01*
X0153800Y0180637D02*
X0153800Y0186637D01*
X0154300Y0213137D02*
X0154300Y0219137D01*
X0156300Y0248137D02*
X0156300Y0254137D01*
X0155300Y0281637D02*
X0155300Y0287637D01*
X0153300Y0313137D02*
X0153300Y0319137D01*
X0153800Y0343637D02*
X0153800Y0349637D01*
X0153906Y0404802D02*
X0147906Y0404802D01*
X0147906Y0414802D02*
X0153906Y0414802D01*
X0153906Y0424802D02*
X0147906Y0424802D01*
X0147906Y0434802D02*
X0153906Y0434802D01*
X0153906Y0444802D02*
X0147906Y0444802D01*
X0147906Y0454802D02*
X0153906Y0454802D01*
X0106662Y0454802D02*
X0100662Y0454802D01*
X0100662Y0444802D02*
X0106662Y0444802D01*
X0106662Y0434802D02*
X0100662Y0434802D01*
X0100662Y0424802D02*
X0106662Y0424802D01*
X0106662Y0414802D02*
X0100662Y0414802D01*
X0100662Y0404802D02*
X0106662Y0404802D01*
X0023985Y0404802D02*
X0017985Y0404802D01*
X0017985Y0414802D02*
X0023985Y0414802D01*
X0023985Y0424802D02*
X0017985Y0424802D01*
X0017985Y0434802D02*
X0023985Y0434802D01*
X0023985Y0444802D02*
X0017985Y0444802D01*
X0017985Y0454802D02*
X0023985Y0454802D01*
X0222709Y0454802D02*
X0228709Y0454802D01*
X0228709Y0444802D02*
X0222709Y0444802D01*
X0222709Y0434802D02*
X0228709Y0434802D01*
X0228709Y0424802D02*
X0222709Y0424802D01*
X0222709Y0414802D02*
X0228709Y0414802D01*
X0228709Y0404802D02*
X0222709Y0404802D01*
X0087300Y0024637D02*
X0087300Y0018637D01*
X0077300Y0018637D02*
X0077300Y0024637D01*
D13*
X0148300Y0026637D03*
X0148300Y0016637D03*
X0158300Y0016637D03*
X0158300Y0026637D03*
X0168300Y0026637D03*
X0168300Y0016637D03*
X0178300Y0016637D03*
X0178300Y0026637D03*
X0188300Y0026637D03*
X0188300Y0016637D03*
D14*
X0149300Y0097137D03*
X0129300Y0097137D03*
X0119300Y0097137D03*
X0109300Y0097137D03*
X0068800Y0115637D03*
X0048800Y0115637D03*
X0038800Y0115637D03*
X0028800Y0115637D03*
D15*
X0058800Y0115637D03*
X0139300Y0097137D03*
D16*
X0006504Y0079799D02*
X0006306Y0007237D01*
X0245802Y0007237D01*
X0245871Y0057870D01*
X0245859Y0057863D01*
X0243187Y0057147D01*
X0240421Y0057147D01*
X0237749Y0057863D01*
X0235353Y0059246D01*
X0233397Y0061202D01*
X0232014Y0063598D01*
X0231298Y0066270D01*
X0231298Y0069036D01*
X0232014Y0071708D01*
X0233397Y0074103D01*
X0235353Y0076059D01*
X0237749Y0077442D01*
X0240421Y0078158D01*
X0243187Y0078158D01*
X0245859Y0077442D01*
X0245897Y0077420D01*
X0245950Y0115916D01*
X0245859Y0115863D01*
X0243187Y0115147D01*
X0240421Y0115147D01*
X0237749Y0115863D01*
X0235353Y0117246D01*
X0233397Y0119202D01*
X0232014Y0121598D01*
X0231298Y0124270D01*
X0231298Y0127036D01*
X0232014Y0129708D01*
X0233397Y0132103D01*
X0235353Y0134059D01*
X0237749Y0135442D01*
X0240421Y0136158D01*
X0243187Y0136158D01*
X0245859Y0135442D01*
X0245977Y0135374D01*
X0246030Y0174539D01*
X0244859Y0173863D01*
X0242187Y0173147D01*
X0239421Y0173147D01*
X0236749Y0173863D01*
X0234353Y0175246D01*
X0232397Y0177202D01*
X0231014Y0179598D01*
X0230298Y0182270D01*
X0230298Y0185036D01*
X0231014Y0187708D01*
X0232397Y0190103D01*
X0234353Y0192059D01*
X0236749Y0193442D01*
X0239421Y0194158D01*
X0242187Y0194158D01*
X0244859Y0193442D01*
X0246055Y0192752D01*
X0246110Y0232797D01*
X0245359Y0232363D01*
X0242687Y0231647D01*
X0239921Y0231647D01*
X0237249Y0232363D01*
X0234853Y0233746D01*
X0232897Y0235702D01*
X0231514Y0238098D01*
X0230798Y0240770D01*
X0230798Y0243536D01*
X0231514Y0246208D01*
X0232897Y0248603D01*
X0234853Y0250559D01*
X0237249Y0251942D01*
X0239921Y0252658D01*
X0242687Y0252658D01*
X0245359Y0251942D01*
X0246135Y0251494D01*
X0246183Y0286339D01*
X0245359Y0285863D01*
X0242687Y0285147D01*
X0239921Y0285147D01*
X0237249Y0285863D01*
X0234853Y0287246D01*
X0232897Y0289202D01*
X0231514Y0291598D01*
X0230798Y0294270D01*
X0230798Y0297036D01*
X0231514Y0299708D01*
X0232897Y0302103D01*
X0234853Y0304059D01*
X0237249Y0305442D01*
X0239921Y0306158D01*
X0242687Y0306158D01*
X0245359Y0305442D01*
X0246208Y0304952D01*
X0246271Y0350890D01*
X0245359Y0350363D01*
X0242687Y0349647D01*
X0239921Y0349647D01*
X0237249Y0350363D01*
X0234853Y0351746D01*
X0232897Y0353702D01*
X0231514Y0356098D01*
X0230798Y0358770D01*
X0230798Y0361536D01*
X0231514Y0364208D01*
X0232897Y0366603D01*
X0234853Y0368559D01*
X0237249Y0369942D01*
X0239921Y0370658D01*
X0242687Y0370658D01*
X0245359Y0369942D01*
X0246296Y0369401D01*
X0246300Y0372137D01*
X0007300Y0371137D01*
X0007181Y0327412D01*
X0009759Y0328103D01*
X0012526Y0328103D01*
X0015197Y0327387D01*
X0017593Y0326004D01*
X0019549Y0324048D01*
X0020932Y0321653D01*
X0021648Y0318981D01*
X0021648Y0316215D01*
X0020932Y0313543D01*
X0019549Y0311147D01*
X0017593Y0309191D01*
X0015197Y0307808D01*
X0012526Y0307092D01*
X0009759Y0307092D01*
X0007127Y0307798D01*
X0006556Y0098734D01*
X0007088Y0099041D01*
X0009759Y0099757D01*
X0012526Y0099757D01*
X0015197Y0099041D01*
X0017593Y0097658D01*
X0019549Y0095702D01*
X0020932Y0093306D01*
X0021648Y0090634D01*
X0021648Y0087868D01*
X0020932Y0085196D01*
X0019549Y0082801D01*
X0017593Y0080845D01*
X0015197Y0079462D01*
X0012526Y0078746D01*
X0009759Y0078746D01*
X0007088Y0079462D01*
X0006504Y0079799D01*
X0006503Y0079342D02*
X0007535Y0079342D01*
X0006499Y0078143D02*
X0049100Y0078143D01*
X0048190Y0076945D02*
X0006496Y0076945D01*
X0006493Y0075746D02*
X0047281Y0075746D01*
X0046371Y0074548D02*
X0006490Y0074548D01*
X0006486Y0073349D02*
X0012239Y0073349D01*
X0012877Y0073987D02*
X0009450Y0070560D01*
X0009450Y0065714D01*
X0012877Y0062287D01*
X0017723Y0062287D01*
X0021150Y0065714D01*
X0021150Y0070560D01*
X0017723Y0073987D01*
X0012877Y0073987D01*
X0011041Y0072151D02*
X0006483Y0072151D01*
X0006480Y0070952D02*
X0009842Y0070952D01*
X0009450Y0069754D02*
X0006477Y0069754D01*
X0006473Y0068555D02*
X0009450Y0068555D01*
X0009450Y0067357D02*
X0006470Y0067357D01*
X0006467Y0066158D02*
X0009450Y0066158D01*
X0010204Y0064960D02*
X0006463Y0064960D01*
X0006460Y0063761D02*
X0011403Y0063761D01*
X0012601Y0062563D02*
X0006457Y0062563D01*
X0006454Y0061364D02*
X0196296Y0061364D01*
X0196390Y0061202D02*
X0198346Y0059246D01*
X0200741Y0057863D01*
X0203413Y0057147D01*
X0206179Y0057147D01*
X0208851Y0057863D01*
X0211247Y0059246D01*
X0213203Y0061202D01*
X0214586Y0063598D01*
X0215302Y0066270D01*
X0215302Y0069036D01*
X0214586Y0071708D01*
X0213203Y0074103D01*
X0211247Y0076059D01*
X0208851Y0077442D01*
X0206179Y0078158D01*
X0203413Y0078158D01*
X0200741Y0077442D01*
X0198346Y0076059D01*
X0196390Y0074103D01*
X0195006Y0071708D01*
X0194291Y0069036D01*
X0194291Y0066270D01*
X0195006Y0063598D01*
X0196390Y0061202D01*
X0197426Y0060166D02*
X0006450Y0060166D01*
X0006447Y0058967D02*
X0198829Y0058967D01*
X0201094Y0057769D02*
X0006444Y0057769D01*
X0006441Y0056570D02*
X0245869Y0056570D01*
X0245867Y0055372D02*
X0103339Y0055372D01*
X0102723Y0055987D02*
X0097877Y0055987D01*
X0094450Y0052560D01*
X0094450Y0047714D01*
X0097877Y0044287D01*
X0102723Y0044287D01*
X0106150Y0047714D01*
X0106150Y0052560D01*
X0102723Y0055987D01*
X0104537Y0054173D02*
X0245866Y0054173D01*
X0245864Y0052974D02*
X0228666Y0052974D01*
X0229034Y0052607D02*
X0228097Y0053544D01*
X0218503Y0053544D01*
X0217566Y0052607D01*
X0217566Y0043014D01*
X0218503Y0042076D01*
X0228097Y0042076D01*
X0229034Y0043014D01*
X0229034Y0052607D01*
X0229034Y0051776D02*
X0245862Y0051776D01*
X0245861Y0050577D02*
X0229034Y0050577D01*
X0229034Y0049379D02*
X0245859Y0049379D01*
X0245857Y0048180D02*
X0229034Y0048180D01*
X0229034Y0046982D02*
X0245856Y0046982D01*
X0245854Y0045783D02*
X0229034Y0045783D01*
X0229034Y0044585D02*
X0245853Y0044585D01*
X0245851Y0043386D02*
X0229034Y0043386D01*
X0228208Y0042188D02*
X0245849Y0042188D01*
X0245848Y0040989D02*
X0006398Y0040989D01*
X0006395Y0039791D02*
X0245846Y0039791D01*
X0245844Y0038592D02*
X0113909Y0038592D01*
X0114082Y0038420D02*
X0113583Y0038919D01*
X0112996Y0039311D01*
X0112345Y0039580D01*
X0111653Y0039718D01*
X0111300Y0039718D01*
X0111300Y0036137D01*
X0111300Y0032556D01*
X0111653Y0032556D01*
X0112345Y0032694D01*
X0112996Y0032963D01*
X0113583Y0033355D01*
X0114082Y0033854D01*
X0114474Y0034441D01*
X0114743Y0035092D01*
X0114881Y0035784D01*
X0114881Y0036137D01*
X0114881Y0036490D01*
X0114743Y0037182D01*
X0114474Y0037833D01*
X0114082Y0038420D01*
X0114656Y0037394D02*
X0245843Y0037394D01*
X0245841Y0036195D02*
X0114881Y0036195D01*
X0114881Y0036137D02*
X0111300Y0036137D01*
X0111300Y0036137D01*
X0111300Y0036137D01*
X0114881Y0036137D01*
X0114704Y0034997D02*
X0245839Y0034997D01*
X0245838Y0033798D02*
X0114026Y0033798D01*
X0111873Y0032600D02*
X0226082Y0032600D01*
X0225459Y0032433D02*
X0222984Y0031004D01*
X0220964Y0028984D01*
X0219536Y0026510D01*
X0218796Y0023750D01*
X0218796Y0020894D01*
X0219536Y0018134D01*
X0220964Y0015660D01*
X0222984Y0013640D01*
X0225459Y0012211D01*
X0228218Y0011472D01*
X0231075Y0011472D01*
X0233834Y0012211D01*
X0236309Y0013640D01*
X0238329Y0015660D01*
X0239757Y0018134D01*
X0240496Y0020894D01*
X0240496Y0023750D01*
X0239757Y0026510D01*
X0238329Y0028984D01*
X0236309Y0031004D01*
X0233834Y0032433D01*
X0231075Y0033172D01*
X0228218Y0033172D01*
X0225459Y0032433D01*
X0223672Y0031401D02*
X0026959Y0031401D01*
X0027647Y0031004D02*
X0025173Y0032433D01*
X0022413Y0033172D01*
X0019557Y0033172D01*
X0016797Y0032433D01*
X0014323Y0031004D01*
X0012303Y0028984D01*
X0010874Y0026510D01*
X0010135Y0023750D01*
X0010135Y0020894D01*
X0010874Y0018134D01*
X0012303Y0015660D01*
X0014323Y0013640D01*
X0016797Y0012211D01*
X0019557Y0011472D01*
X0022413Y0011472D01*
X0025173Y0012211D01*
X0027647Y0013640D01*
X0029667Y0015660D01*
X0031096Y0018134D01*
X0031835Y0020894D01*
X0031835Y0023750D01*
X0031096Y0026510D01*
X0029667Y0028984D01*
X0027647Y0031004D01*
X0028449Y0030203D02*
X0145360Y0030203D01*
X0146395Y0031237D02*
X0143700Y0028542D01*
X0143700Y0024732D01*
X0146395Y0022037D01*
X0150205Y0022037D01*
X0152900Y0024732D01*
X0152900Y0028542D01*
X0150205Y0031237D01*
X0146395Y0031237D01*
X0144162Y0029004D02*
X0088745Y0029004D01*
X0089066Y0028900D02*
X0088377Y0029124D01*
X0087700Y0029231D01*
X0087700Y0022037D01*
X0091900Y0022037D01*
X0091900Y0024999D01*
X0091787Y0025714D01*
X0091563Y0026403D01*
X0091234Y0027048D01*
X0090809Y0027634D01*
X0090297Y0028146D01*
X0089711Y0028571D01*
X0089066Y0028900D01*
X0087700Y0029004D02*
X0086900Y0029004D01*
X0086900Y0029231D02*
X0086900Y0022037D01*
X0086900Y0021237D01*
X0087700Y0021237D01*
X0087700Y0022037D01*
X0086900Y0022037D01*
X0082700Y0022037D01*
X0082700Y0024999D01*
X0082813Y0025714D01*
X0083037Y0026403D01*
X0083366Y0027048D01*
X0083791Y0027634D01*
X0084303Y0028146D01*
X0084889Y0028571D01*
X0085534Y0028900D01*
X0086223Y0029124D01*
X0086900Y0029231D01*
X0085855Y0029004D02*
X0078777Y0029004D01*
X0078215Y0029237D02*
X0079906Y0028537D01*
X0081200Y0027243D01*
X0081900Y0025552D01*
X0081900Y0017722D01*
X0081200Y0016031D01*
X0079906Y0014737D01*
X0078215Y0014037D01*
X0076385Y0014037D01*
X0074694Y0014737D01*
X0073400Y0016031D01*
X0072700Y0017722D01*
X0072700Y0025552D01*
X0073400Y0027243D01*
X0074694Y0028537D01*
X0076385Y0029237D01*
X0078215Y0029237D01*
X0075823Y0029004D02*
X0029647Y0029004D01*
X0030348Y0027806D02*
X0073963Y0027806D01*
X0073137Y0026607D02*
X0031039Y0026607D01*
X0031391Y0025409D02*
X0072700Y0025409D01*
X0072700Y0024210D02*
X0031712Y0024210D01*
X0031835Y0023012D02*
X0072700Y0023012D01*
X0072700Y0021813D02*
X0031835Y0021813D01*
X0031760Y0020615D02*
X0072700Y0020615D01*
X0072700Y0019416D02*
X0031439Y0019416D01*
X0031118Y0018218D02*
X0072700Y0018218D01*
X0072991Y0017019D02*
X0030452Y0017019D01*
X0029760Y0015821D02*
X0073611Y0015821D01*
X0074972Y0014622D02*
X0028629Y0014622D01*
X0027272Y0013424D02*
X0133957Y0013424D01*
X0133857Y0013182D02*
X0134126Y0013833D01*
X0134518Y0014420D01*
X0135017Y0014919D01*
X0135604Y0015311D01*
X0136255Y0015580D01*
X0136947Y0015718D01*
X0137300Y0015718D01*
X0137653Y0015718D01*
X0138345Y0015580D01*
X0138996Y0015311D01*
X0139583Y0014919D01*
X0140082Y0014420D01*
X0140474Y0013833D01*
X0140743Y0013182D01*
X0140881Y0012490D01*
X0140881Y0012137D01*
X0137300Y0012137D01*
X0137300Y0008556D01*
X0137653Y0008556D01*
X0138345Y0008694D01*
X0138996Y0008963D01*
X0139583Y0009355D01*
X0140082Y0009854D01*
X0140474Y0010441D01*
X0140743Y0011092D01*
X0140881Y0011784D01*
X0140881Y0012137D01*
X0137300Y0012137D01*
X0137300Y0012137D01*
X0137300Y0012137D01*
X0137300Y0008556D01*
X0136947Y0008556D01*
X0136255Y0008694D01*
X0135604Y0008963D01*
X0135017Y0009355D01*
X0134518Y0009854D01*
X0134126Y0010441D01*
X0133857Y0011092D01*
X0133719Y0011784D01*
X0133719Y0012137D01*
X0137300Y0012137D01*
X0137300Y0012137D01*
X0137300Y0015718D01*
X0137300Y0012137D01*
X0137300Y0012137D01*
X0133719Y0012137D01*
X0133719Y0012490D01*
X0133857Y0013182D01*
X0133719Y0012225D02*
X0025197Y0012225D01*
X0016773Y0012225D02*
X0006319Y0012225D01*
X0006316Y0011027D02*
X0133884Y0011027D01*
X0134544Y0009828D02*
X0006313Y0009828D01*
X0006310Y0008630D02*
X0136577Y0008630D01*
X0137300Y0008630D02*
X0137300Y0008630D01*
X0138023Y0008630D02*
X0245803Y0008630D01*
X0245805Y0009828D02*
X0140056Y0009828D01*
X0140716Y0011027D02*
X0245807Y0011027D01*
X0245808Y0012225D02*
X0233858Y0012225D01*
X0235934Y0013424D02*
X0245810Y0013424D01*
X0245812Y0014622D02*
X0237291Y0014622D01*
X0238421Y0015821D02*
X0245813Y0015821D01*
X0245815Y0017019D02*
X0239113Y0017019D01*
X0239779Y0018218D02*
X0245817Y0018218D01*
X0245818Y0019416D02*
X0240101Y0019416D01*
X0240422Y0020615D02*
X0245820Y0020615D01*
X0245821Y0021813D02*
X0240496Y0021813D01*
X0240496Y0023012D02*
X0245823Y0023012D01*
X0245825Y0024210D02*
X0240373Y0024210D01*
X0240052Y0025409D02*
X0245826Y0025409D01*
X0245828Y0026607D02*
X0239701Y0026607D01*
X0239009Y0027806D02*
X0245830Y0027806D01*
X0245831Y0029004D02*
X0238308Y0029004D01*
X0237110Y0030203D02*
X0245833Y0030203D01*
X0245835Y0031401D02*
X0235621Y0031401D01*
X0233211Y0032600D02*
X0245836Y0032600D01*
X0245871Y0057769D02*
X0245506Y0057769D01*
X0238102Y0057769D02*
X0208498Y0057769D01*
X0210763Y0058967D02*
X0235837Y0058967D01*
X0234434Y0060166D02*
X0212166Y0060166D01*
X0213296Y0061364D02*
X0233304Y0061364D01*
X0232612Y0062563D02*
X0213988Y0062563D01*
X0214629Y0063761D02*
X0218839Y0063761D01*
X0218955Y0063730D02*
X0222700Y0063730D01*
X0222700Y0068864D01*
X0217566Y0068864D01*
X0217566Y0065119D01*
X0217675Y0064712D01*
X0217886Y0064347D01*
X0218184Y0064050D01*
X0218549Y0063839D01*
X0218955Y0063730D01*
X0217609Y0064960D02*
X0214951Y0064960D01*
X0215272Y0066158D02*
X0217566Y0066158D01*
X0217566Y0067357D02*
X0215302Y0067357D01*
X0215302Y0068555D02*
X0217566Y0068555D01*
X0217566Y0070064D02*
X0222700Y0070064D01*
X0222700Y0075198D01*
X0218955Y0075198D01*
X0218549Y0075089D01*
X0218184Y0074878D01*
X0217886Y0074580D01*
X0217675Y0074215D01*
X0217566Y0073808D01*
X0217566Y0070064D01*
X0217566Y0070952D02*
X0214788Y0070952D01*
X0215109Y0069754D02*
X0222700Y0069754D01*
X0222700Y0070064D02*
X0222700Y0068864D01*
X0223900Y0068864D01*
X0223900Y0070064D01*
X0222700Y0070064D01*
X0222700Y0070952D02*
X0223900Y0070952D01*
X0223900Y0070064D02*
X0223900Y0075198D01*
X0227645Y0075198D01*
X0228051Y0075089D01*
X0228416Y0074878D01*
X0228714Y0074580D01*
X0228925Y0074215D01*
X0229034Y0073808D01*
X0229034Y0070064D01*
X0223900Y0070064D01*
X0223900Y0069754D02*
X0231491Y0069754D01*
X0231298Y0068555D02*
X0229034Y0068555D01*
X0229034Y0068864D02*
X0223900Y0068864D01*
X0223900Y0063730D01*
X0227645Y0063730D01*
X0228051Y0063839D01*
X0228416Y0064050D01*
X0228714Y0064347D01*
X0228925Y0064712D01*
X0229034Y0065119D01*
X0229034Y0068864D01*
X0229034Y0067357D02*
X0231298Y0067357D01*
X0231328Y0066158D02*
X0229034Y0066158D01*
X0228991Y0064960D02*
X0231649Y0064960D01*
X0231971Y0063761D02*
X0227761Y0063761D01*
X0229034Y0070952D02*
X0231812Y0070952D01*
X0232270Y0072151D02*
X0229034Y0072151D01*
X0229034Y0073349D02*
X0232962Y0073349D01*
X0233842Y0074548D02*
X0228733Y0074548D01*
X0223900Y0074548D02*
X0222700Y0074548D01*
X0222700Y0073349D02*
X0223900Y0073349D01*
X0223900Y0072151D02*
X0222700Y0072151D01*
X0222700Y0068555D02*
X0223900Y0068555D01*
X0223900Y0067357D02*
X0222700Y0067357D01*
X0222700Y0066158D02*
X0223900Y0066158D01*
X0223900Y0064960D02*
X0222700Y0064960D01*
X0222700Y0063761D02*
X0223900Y0063761D01*
X0217566Y0072151D02*
X0214330Y0072151D01*
X0213638Y0073349D02*
X0217566Y0073349D01*
X0217867Y0074548D02*
X0212758Y0074548D01*
X0211560Y0075746D02*
X0235040Y0075746D01*
X0236887Y0076945D02*
X0209713Y0076945D01*
X0208111Y0079462D02*
X0210506Y0080845D01*
X0212462Y0082801D01*
X0213845Y0085196D01*
X0214561Y0087868D01*
X0214561Y0090634D01*
X0213845Y0093306D01*
X0212462Y0095702D01*
X0210506Y0097658D01*
X0208111Y0099041D01*
X0205439Y0099757D01*
X0202673Y0099757D01*
X0200001Y0099041D01*
X0197605Y0097658D01*
X0195649Y0095702D01*
X0194266Y0093306D01*
X0193550Y0090634D01*
X0193550Y0087868D01*
X0194266Y0085196D01*
X0195649Y0082801D01*
X0197605Y0080845D01*
X0200001Y0079462D01*
X0202673Y0078746D01*
X0205439Y0078746D01*
X0208111Y0079462D01*
X0207664Y0079342D02*
X0245900Y0079342D01*
X0245902Y0080540D02*
X0209979Y0080540D01*
X0211401Y0081739D02*
X0245903Y0081739D01*
X0245905Y0082937D02*
X0212541Y0082937D01*
X0213233Y0084136D02*
X0245907Y0084136D01*
X0245908Y0085334D02*
X0213882Y0085334D01*
X0214204Y0086533D02*
X0245910Y0086533D01*
X0245911Y0087731D02*
X0214525Y0087731D01*
X0214561Y0088930D02*
X0245913Y0088930D01*
X0245915Y0090128D02*
X0214561Y0090128D01*
X0214376Y0091327D02*
X0245916Y0091327D01*
X0245918Y0092525D02*
X0214055Y0092525D01*
X0213604Y0093724D02*
X0245920Y0093724D01*
X0245921Y0094922D02*
X0212912Y0094922D01*
X0212043Y0096121D02*
X0245923Y0096121D01*
X0245925Y0097319D02*
X0210845Y0097319D01*
X0209016Y0098518D02*
X0245926Y0098518D01*
X0245928Y0099716D02*
X0205589Y0099716D01*
X0202523Y0099716D02*
X0174200Y0099716D01*
X0174200Y0099367D02*
X0172845Y0096096D01*
X0170341Y0093592D01*
X0167070Y0092237D01*
X0163530Y0092237D01*
X0160259Y0093592D01*
X0157755Y0096096D01*
X0156400Y0099367D01*
X0156400Y0102907D01*
X0157755Y0106178D01*
X0160259Y0108682D01*
X0163530Y0110037D01*
X0167070Y0110037D01*
X0170341Y0108682D01*
X0172845Y0106178D01*
X0174200Y0102907D01*
X0174200Y0099367D01*
X0173848Y0098518D02*
X0199095Y0098518D01*
X0197267Y0097319D02*
X0173352Y0097319D01*
X0172856Y0096121D02*
X0196069Y0096121D01*
X0195199Y0094922D02*
X0171672Y0094922D01*
X0170473Y0093724D02*
X0194508Y0093724D01*
X0194057Y0092525D02*
X0167766Y0092525D01*
X0162834Y0092525D02*
X0107222Y0092525D01*
X0107625Y0092886D02*
X0108391Y0092569D01*
X0110209Y0092569D01*
X0111888Y0093264D01*
X0113173Y0094549D01*
X0113868Y0096228D01*
X0113868Y0098046D01*
X0113173Y0099725D01*
X0111888Y0101010D01*
X0110209Y0101705D01*
X0108391Y0101705D01*
X0106712Y0101010D01*
X0105427Y0099725D01*
X0105241Y0099275D01*
X0087200Y0083115D01*
X0054859Y0083115D01*
X0054644Y0083171D01*
X0054233Y0083115D01*
X0053818Y0083115D01*
X0053613Y0083030D01*
X0053393Y0083000D01*
X0053035Y0082790D01*
X0052651Y0082632D01*
X0052494Y0082475D01*
X0052303Y0082363D01*
X0052052Y0082032D01*
X0051758Y0081739D01*
X0018487Y0081739D01*
X0019628Y0082937D02*
X0053286Y0082937D01*
X0051758Y0081739D02*
X0051673Y0081533D01*
X0046325Y0074487D01*
X0042877Y0074487D01*
X0039450Y0071060D01*
X0039450Y0066214D01*
X0042877Y0062787D01*
X0047723Y0062787D01*
X0051150Y0066214D01*
X0051150Y0070342D01*
X0056026Y0076765D01*
X0088327Y0076765D01*
X0088870Y0076735D01*
X0088955Y0076765D01*
X0089046Y0076765D01*
X0089548Y0076974D01*
X0090062Y0077154D01*
X0090129Y0077214D01*
X0090213Y0077249D01*
X0090597Y0077634D01*
X0107625Y0092886D01*
X0105884Y0091327D02*
X0193736Y0091327D01*
X0193550Y0090128D02*
X0104546Y0090128D01*
X0103208Y0088930D02*
X0193550Y0088930D01*
X0193587Y0087731D02*
X0101870Y0087731D01*
X0100532Y0086533D02*
X0193908Y0086533D01*
X0194229Y0085334D02*
X0099194Y0085334D01*
X0097856Y0084136D02*
X0194879Y0084136D01*
X0195571Y0082937D02*
X0096518Y0082937D01*
X0095180Y0081739D02*
X0196711Y0081739D01*
X0198133Y0080540D02*
X0093842Y0080540D01*
X0092504Y0079342D02*
X0200448Y0079342D01*
X0199879Y0076945D02*
X0089479Y0076945D01*
X0091166Y0078143D02*
X0203357Y0078143D01*
X0206235Y0078143D02*
X0240365Y0078143D01*
X0243243Y0078143D02*
X0245898Y0078143D01*
X0245929Y0100915D02*
X0228935Y0100915D01*
X0229034Y0101014D02*
X0228097Y0100076D01*
X0218503Y0100076D01*
X0217566Y0101014D01*
X0217566Y0110607D01*
X0218503Y0111544D01*
X0228097Y0111544D01*
X0229034Y0110607D01*
X0229034Y0101014D01*
X0229034Y0102113D02*
X0245931Y0102113D01*
X0245933Y0103312D02*
X0229034Y0103312D01*
X0229034Y0104510D02*
X0245934Y0104510D01*
X0245936Y0105709D02*
X0229034Y0105709D01*
X0229034Y0106907D02*
X0245938Y0106907D01*
X0245939Y0108106D02*
X0229034Y0108106D01*
X0229034Y0109305D02*
X0245941Y0109305D01*
X0245943Y0110503D02*
X0229034Y0110503D01*
X0234906Y0117694D02*
X0211694Y0117694D01*
X0211247Y0117246D02*
X0213203Y0119202D01*
X0214586Y0121598D01*
X0215302Y0124270D01*
X0215302Y0127036D01*
X0214586Y0129708D01*
X0213203Y0132103D01*
X0211247Y0134059D01*
X0208851Y0135442D01*
X0206179Y0136158D01*
X0203413Y0136158D01*
X0200741Y0135442D01*
X0198346Y0134059D01*
X0196390Y0132103D01*
X0195006Y0129708D01*
X0194291Y0127036D01*
X0194291Y0124270D01*
X0195006Y0121598D01*
X0196390Y0119202D01*
X0198346Y0117246D01*
X0200741Y0115863D01*
X0203413Y0115147D01*
X0206179Y0115147D01*
X0208851Y0115863D01*
X0211247Y0117246D01*
X0209946Y0116496D02*
X0236654Y0116496D01*
X0239862Y0115297D02*
X0206738Y0115297D01*
X0202854Y0115297D02*
X0120731Y0115297D01*
X0119839Y0116189D02*
X0118516Y0116737D01*
X0105084Y0116737D01*
X0103761Y0116189D01*
X0102748Y0115176D01*
X0087309Y0099737D01*
X0059584Y0099737D01*
X0058261Y0099189D01*
X0057248Y0098176D01*
X0056700Y0096853D01*
X0056700Y0095421D01*
X0057248Y0094098D01*
X0058261Y0093085D01*
X0059584Y0092537D01*
X0089516Y0092537D01*
X0090839Y0093085D01*
X0107291Y0109537D01*
X0116309Y0109537D01*
X0117261Y0108585D01*
X0118584Y0108037D01*
X0120016Y0108037D01*
X0121339Y0108585D01*
X0122352Y0109598D01*
X0122900Y0110921D01*
X0122900Y0112353D01*
X0122352Y0113676D01*
X0119839Y0116189D01*
X0119099Y0116496D02*
X0199646Y0116496D01*
X0197898Y0117694D02*
X0093628Y0117694D01*
X0093700Y0117867D02*
X0092345Y0114596D01*
X0089841Y0112092D01*
X0086570Y0110737D01*
X0083030Y0110737D01*
X0079759Y0112092D01*
X0077255Y0114596D01*
X0075900Y0117867D01*
X0075900Y0121407D01*
X0077255Y0124678D01*
X0079759Y0127182D01*
X0083030Y0128537D01*
X0086570Y0128537D01*
X0089841Y0127182D01*
X0092345Y0124678D01*
X0093700Y0121407D01*
X0093700Y0117867D01*
X0093700Y0118893D02*
X0196699Y0118893D01*
X0195876Y0120091D02*
X0093700Y0120091D01*
X0093700Y0121290D02*
X0195184Y0121290D01*
X0194768Y0122488D02*
X0093252Y0122488D01*
X0092756Y0123687D02*
X0194447Y0123687D01*
X0194291Y0124885D02*
X0092138Y0124885D01*
X0090940Y0126084D02*
X0194291Y0126084D01*
X0194357Y0127282D02*
X0089600Y0127282D01*
X0086706Y0128481D02*
X0194678Y0128481D01*
X0194999Y0129679D02*
X0006640Y0129679D01*
X0006637Y0128481D02*
X0082894Y0128481D01*
X0080000Y0127282D02*
X0006634Y0127282D01*
X0006630Y0126084D02*
X0078660Y0126084D01*
X0077462Y0124885D02*
X0006627Y0124885D01*
X0006624Y0123687D02*
X0076844Y0123687D01*
X0076348Y0122488D02*
X0006621Y0122488D01*
X0006617Y0121290D02*
X0075900Y0121290D01*
X0075900Y0120091D02*
X0069985Y0120091D01*
X0069709Y0120205D02*
X0067891Y0120205D01*
X0066212Y0119510D01*
X0064927Y0118225D01*
X0064231Y0116546D01*
X0064231Y0114728D01*
X0064927Y0113049D01*
X0066212Y0111764D01*
X0067891Y0111069D01*
X0069709Y0111069D01*
X0071388Y0111764D01*
X0072673Y0113049D01*
X0073368Y0114728D01*
X0073368Y0116546D01*
X0072673Y0118225D01*
X0071388Y0119510D01*
X0069709Y0120205D01*
X0067615Y0120091D02*
X0062395Y0120091D01*
X0062386Y0120096D02*
X0061979Y0120205D01*
X0059184Y0120205D01*
X0059184Y0116021D01*
X0063368Y0116021D01*
X0063368Y0118816D01*
X0063259Y0119223D01*
X0063049Y0119588D01*
X0062751Y0119886D01*
X0062386Y0120096D01*
X0063348Y0118893D02*
X0065595Y0118893D01*
X0064707Y0117694D02*
X0063368Y0117694D01*
X0063368Y0116496D02*
X0064231Y0116496D01*
X0064231Y0115297D02*
X0059184Y0115297D01*
X0059184Y0115253D02*
X0059184Y0116021D01*
X0058416Y0116021D01*
X0058416Y0115253D01*
X0059184Y0115253D01*
X0059184Y0111069D01*
X0061979Y0111069D01*
X0062386Y0111178D01*
X0062751Y0111388D01*
X0063049Y0111686D01*
X0063259Y0112051D01*
X0063368Y0112458D01*
X0063368Y0115253D01*
X0059184Y0115253D01*
X0058416Y0115253D02*
X0058416Y0111069D01*
X0055621Y0111069D01*
X0055214Y0111178D01*
X0054849Y0111388D01*
X0054551Y0111686D01*
X0054341Y0112051D01*
X0054231Y0112458D01*
X0054231Y0115253D01*
X0058416Y0115253D01*
X0058416Y0115297D02*
X0053368Y0115297D01*
X0053368Y0114728D02*
X0052673Y0113049D01*
X0051388Y0111764D01*
X0049709Y0111069D01*
X0047891Y0111069D01*
X0046212Y0111764D01*
X0044927Y0113049D01*
X0044231Y0114728D01*
X0044231Y0116546D01*
X0044927Y0118225D01*
X0046212Y0119510D01*
X0047891Y0120205D01*
X0049709Y0120205D01*
X0051388Y0119510D01*
X0052673Y0118225D01*
X0053368Y0116546D01*
X0053368Y0114728D01*
X0053108Y0114099D02*
X0054231Y0114099D01*
X0054231Y0112900D02*
X0052524Y0112900D01*
X0051237Y0111702D02*
X0054542Y0111702D01*
X0054231Y0116021D02*
X0058416Y0116021D01*
X0058416Y0120205D01*
X0055621Y0120205D01*
X0055214Y0120096D01*
X0054849Y0119886D01*
X0054551Y0119588D01*
X0054341Y0119223D01*
X0054231Y0118816D01*
X0054231Y0116021D01*
X0054231Y0116496D02*
X0053368Y0116496D01*
X0052893Y0117694D02*
X0054231Y0117694D01*
X0054252Y0118893D02*
X0052005Y0118893D01*
X0049985Y0120091D02*
X0055205Y0120091D01*
X0058416Y0120091D02*
X0059184Y0120091D01*
X0059184Y0118893D02*
X0058416Y0118893D01*
X0058416Y0117694D02*
X0059184Y0117694D01*
X0059184Y0116496D02*
X0058416Y0116496D01*
X0058416Y0114099D02*
X0059184Y0114099D01*
X0059184Y0112900D02*
X0058416Y0112900D01*
X0058416Y0111702D02*
X0059184Y0111702D01*
X0063058Y0111702D02*
X0066363Y0111702D01*
X0065076Y0112900D02*
X0063368Y0112900D01*
X0063368Y0114099D02*
X0064492Y0114099D01*
X0071237Y0111702D02*
X0080701Y0111702D01*
X0078950Y0112900D02*
X0072524Y0112900D01*
X0073108Y0114099D02*
X0077752Y0114099D01*
X0076964Y0115297D02*
X0073368Y0115297D01*
X0073368Y0116496D02*
X0076468Y0116496D01*
X0075971Y0117694D02*
X0072893Y0117694D01*
X0072005Y0118893D02*
X0075900Y0118893D01*
X0088899Y0111702D02*
X0099273Y0111702D01*
X0100472Y0112900D02*
X0090650Y0112900D01*
X0091848Y0114099D02*
X0101670Y0114099D01*
X0102869Y0115297D02*
X0092636Y0115297D01*
X0093132Y0116496D02*
X0104501Y0116496D01*
X0107059Y0109305D02*
X0116541Y0109305D01*
X0118417Y0108106D02*
X0105860Y0108106D01*
X0104662Y0106907D02*
X0158484Y0106907D01*
X0157560Y0105709D02*
X0103463Y0105709D01*
X0102265Y0104510D02*
X0157064Y0104510D01*
X0156568Y0103312D02*
X0101066Y0103312D01*
X0099868Y0102113D02*
X0156400Y0102113D01*
X0156400Y0100915D02*
X0151983Y0100915D01*
X0151888Y0101010D02*
X0150209Y0101705D01*
X0148391Y0101705D01*
X0146712Y0101010D01*
X0145427Y0099725D01*
X0144731Y0098046D01*
X0144731Y0096228D01*
X0145427Y0094549D01*
X0146712Y0093264D01*
X0148391Y0092569D01*
X0150209Y0092569D01*
X0151888Y0093264D01*
X0153173Y0094549D01*
X0153868Y0096228D01*
X0153868Y0098046D01*
X0153173Y0099725D01*
X0151888Y0101010D01*
X0153176Y0099716D02*
X0156400Y0099716D01*
X0156752Y0098518D02*
X0153673Y0098518D01*
X0153868Y0097319D02*
X0157248Y0097319D01*
X0157744Y0096121D02*
X0153824Y0096121D01*
X0153328Y0094922D02*
X0158928Y0094922D01*
X0160127Y0093724D02*
X0152348Y0093724D01*
X0146617Y0100915D02*
X0143649Y0100915D01*
X0143549Y0101088D02*
X0143251Y0101386D01*
X0142886Y0101596D01*
X0142479Y0101705D01*
X0139684Y0101705D01*
X0139684Y0097521D01*
X0143868Y0097521D01*
X0143868Y0100316D01*
X0143759Y0100723D01*
X0143549Y0101088D01*
X0143868Y0099716D02*
X0145424Y0099716D01*
X0144927Y0098518D02*
X0143868Y0098518D01*
X0144731Y0097319D02*
X0139684Y0097319D01*
X0139684Y0097521D02*
X0139684Y0096753D01*
X0139684Y0092569D01*
X0142479Y0092569D01*
X0142886Y0092678D01*
X0143251Y0092888D01*
X0143549Y0093186D01*
X0143759Y0093551D01*
X0143868Y0093958D01*
X0143868Y0096753D01*
X0139684Y0096753D01*
X0138916Y0096753D01*
X0138916Y0092569D01*
X0136121Y0092569D01*
X0135714Y0092678D01*
X0135349Y0092888D01*
X0135051Y0093186D01*
X0134841Y0093551D01*
X0134731Y0093958D01*
X0134731Y0096753D01*
X0138916Y0096753D01*
X0138916Y0097521D01*
X0134731Y0097521D01*
X0134731Y0100316D01*
X0134841Y0100723D01*
X0135051Y0101088D01*
X0135349Y0101386D01*
X0135714Y0101596D01*
X0136121Y0101705D01*
X0138916Y0101705D01*
X0138916Y0097521D01*
X0139684Y0097521D01*
X0138916Y0097319D02*
X0133868Y0097319D01*
X0133868Y0098046D02*
X0133173Y0099725D01*
X0131888Y0101010D01*
X0130209Y0101705D01*
X0128391Y0101705D01*
X0126712Y0101010D01*
X0125427Y0099725D01*
X0124731Y0098046D01*
X0124731Y0096228D01*
X0125427Y0094549D01*
X0126712Y0093264D01*
X0128391Y0092569D01*
X0130209Y0092569D01*
X0131888Y0093264D01*
X0133173Y0094549D01*
X0133868Y0096228D01*
X0133868Y0098046D01*
X0133673Y0098518D02*
X0134731Y0098518D01*
X0134731Y0099716D02*
X0133176Y0099716D01*
X0131983Y0100915D02*
X0134951Y0100915D01*
X0138916Y0100915D02*
X0139684Y0100915D01*
X0139684Y0099716D02*
X0138916Y0099716D01*
X0138916Y0098518D02*
X0139684Y0098518D01*
X0139684Y0096121D02*
X0138916Y0096121D01*
X0138916Y0094922D02*
X0139684Y0094922D01*
X0139684Y0093724D02*
X0138916Y0093724D01*
X0134794Y0093724D02*
X0132348Y0093724D01*
X0133328Y0094922D02*
X0134731Y0094922D01*
X0134731Y0096121D02*
X0133824Y0096121D01*
X0126617Y0100915D02*
X0121983Y0100915D01*
X0121888Y0101010D02*
X0120209Y0101705D01*
X0118391Y0101705D01*
X0116712Y0101010D01*
X0115427Y0099725D01*
X0114731Y0098046D01*
X0114731Y0096228D01*
X0115427Y0094549D01*
X0116712Y0093264D01*
X0118391Y0092569D01*
X0120209Y0092569D01*
X0121888Y0093264D01*
X0123173Y0094549D01*
X0123868Y0096228D01*
X0123868Y0098046D01*
X0123173Y0099725D01*
X0121888Y0101010D01*
X0123176Y0099716D02*
X0125424Y0099716D01*
X0124927Y0098518D02*
X0123673Y0098518D01*
X0123868Y0097319D02*
X0124731Y0097319D01*
X0124776Y0096121D02*
X0123824Y0096121D01*
X0123328Y0094922D02*
X0125272Y0094922D01*
X0126252Y0093724D02*
X0122348Y0093724D01*
X0116252Y0093724D02*
X0112348Y0093724D01*
X0113328Y0094922D02*
X0115272Y0094922D01*
X0114776Y0096121D02*
X0113824Y0096121D01*
X0113868Y0097319D02*
X0114731Y0097319D01*
X0114927Y0098518D02*
X0113673Y0098518D01*
X0113176Y0099716D02*
X0115424Y0099716D01*
X0116617Y0100915D02*
X0111983Y0100915D01*
X0106617Y0100915D02*
X0098669Y0100915D01*
X0097471Y0099716D02*
X0105424Y0099716D01*
X0104396Y0098518D02*
X0096272Y0098518D01*
X0095074Y0097319D02*
X0103058Y0097319D01*
X0101720Y0096121D02*
X0093875Y0096121D01*
X0092677Y0094922D02*
X0100382Y0094922D01*
X0099044Y0093724D02*
X0091478Y0093724D01*
X0095030Y0090128D02*
X0021648Y0090128D01*
X0021648Y0088930D02*
X0093692Y0088930D01*
X0092354Y0087731D02*
X0021611Y0087731D01*
X0021290Y0086533D02*
X0091016Y0086533D01*
X0089678Y0085334D02*
X0020969Y0085334D01*
X0020320Y0084136D02*
X0088340Y0084136D01*
X0088487Y0100915D02*
X0006562Y0100915D01*
X0006565Y0102113D02*
X0089685Y0102113D01*
X0090884Y0103312D02*
X0006568Y0103312D01*
X0006571Y0104510D02*
X0092082Y0104510D01*
X0093281Y0105709D02*
X0006575Y0105709D01*
X0006578Y0106907D02*
X0094479Y0106907D01*
X0095678Y0108106D02*
X0006581Y0108106D01*
X0006585Y0109305D02*
X0096876Y0109305D01*
X0098075Y0110503D02*
X0006588Y0110503D01*
X0006591Y0111702D02*
X0026363Y0111702D01*
X0026212Y0111764D02*
X0027891Y0111069D01*
X0029709Y0111069D01*
X0031388Y0111764D01*
X0032673Y0113049D01*
X0033368Y0114728D01*
X0033368Y0116546D01*
X0032673Y0118225D01*
X0031388Y0119510D01*
X0029709Y0120205D01*
X0027891Y0120205D01*
X0026212Y0119510D01*
X0024927Y0118225D01*
X0024231Y0116546D01*
X0024231Y0114728D01*
X0024927Y0113049D01*
X0026212Y0111764D01*
X0025076Y0112900D02*
X0006594Y0112900D01*
X0006598Y0114099D02*
X0024492Y0114099D01*
X0024231Y0115297D02*
X0006601Y0115297D01*
X0006604Y0116496D02*
X0024231Y0116496D01*
X0024707Y0117694D02*
X0006608Y0117694D01*
X0006611Y0118893D02*
X0025595Y0118893D01*
X0027615Y0120091D02*
X0006614Y0120091D01*
X0006644Y0130878D02*
X0195682Y0130878D01*
X0196374Y0132076D02*
X0006647Y0132076D01*
X0006650Y0133275D02*
X0197561Y0133275D01*
X0199063Y0134473D02*
X0006653Y0134473D01*
X0006657Y0135672D02*
X0201597Y0135672D01*
X0207995Y0135672D02*
X0238605Y0135672D01*
X0236070Y0134473D02*
X0210530Y0134473D01*
X0212031Y0133275D02*
X0234569Y0133275D01*
X0233382Y0132076D02*
X0228962Y0132076D01*
X0228925Y0132215D02*
X0228714Y0132580D01*
X0228416Y0132878D01*
X0228051Y0133089D01*
X0227645Y0133198D01*
X0223900Y0133198D01*
X0223900Y0128064D01*
X0222700Y0128064D01*
X0222700Y0133198D01*
X0218955Y0133198D01*
X0218549Y0133089D01*
X0218184Y0132878D01*
X0217886Y0132580D01*
X0217675Y0132215D01*
X0217566Y0131808D01*
X0217566Y0128064D01*
X0222700Y0128064D01*
X0222700Y0126864D01*
X0217566Y0126864D01*
X0217566Y0123119D01*
X0217675Y0122712D01*
X0217886Y0122347D01*
X0218184Y0122050D01*
X0218549Y0121839D01*
X0218955Y0121730D01*
X0222700Y0121730D01*
X0222700Y0126864D01*
X0223900Y0126864D01*
X0223900Y0128064D01*
X0229034Y0128064D01*
X0229034Y0131808D01*
X0228925Y0132215D01*
X0229034Y0130878D02*
X0232690Y0130878D01*
X0232007Y0129679D02*
X0229034Y0129679D01*
X0229034Y0128481D02*
X0231686Y0128481D01*
X0231364Y0127282D02*
X0223900Y0127282D01*
X0223900Y0126864D02*
X0229034Y0126864D01*
X0229034Y0123119D01*
X0228925Y0122712D01*
X0228714Y0122347D01*
X0228416Y0122050D01*
X0228051Y0121839D01*
X0227645Y0121730D01*
X0223900Y0121730D01*
X0223900Y0126864D01*
X0223900Y0126084D02*
X0222700Y0126084D01*
X0222700Y0127282D02*
X0215236Y0127282D01*
X0215302Y0126084D02*
X0217566Y0126084D01*
X0217566Y0124885D02*
X0215302Y0124885D01*
X0215145Y0123687D02*
X0217566Y0123687D01*
X0217805Y0122488D02*
X0214824Y0122488D01*
X0214408Y0121290D02*
X0232192Y0121290D01*
X0231776Y0122488D02*
X0228795Y0122488D01*
X0229034Y0123687D02*
X0231455Y0123687D01*
X0231298Y0124885D02*
X0229034Y0124885D01*
X0229034Y0126084D02*
X0231298Y0126084D01*
X0232884Y0120091D02*
X0213716Y0120091D01*
X0212893Y0118893D02*
X0233707Y0118893D01*
X0223900Y0122488D02*
X0222700Y0122488D01*
X0222700Y0123687D02*
X0223900Y0123687D01*
X0223900Y0124885D02*
X0222700Y0124885D01*
X0222700Y0128481D02*
X0223900Y0128481D01*
X0223900Y0129679D02*
X0222700Y0129679D01*
X0222700Y0130878D02*
X0223900Y0130878D01*
X0223900Y0132076D02*
X0222700Y0132076D01*
X0217638Y0132076D02*
X0213218Y0132076D01*
X0213910Y0130878D02*
X0217566Y0130878D01*
X0217566Y0129679D02*
X0214593Y0129679D01*
X0214914Y0128481D02*
X0217566Y0128481D01*
X0217566Y0110503D02*
X0122727Y0110503D01*
X0122900Y0111702D02*
X0245944Y0111702D01*
X0245946Y0112900D02*
X0122673Y0112900D01*
X0121930Y0114099D02*
X0245947Y0114099D01*
X0245949Y0115297D02*
X0243746Y0115297D01*
X0245003Y0135672D02*
X0245977Y0135672D01*
X0245979Y0136870D02*
X0006660Y0136870D01*
X0006663Y0138069D02*
X0245980Y0138069D01*
X0245982Y0139267D02*
X0006666Y0139267D01*
X0006670Y0140466D02*
X0245984Y0140466D01*
X0245985Y0141664D02*
X0006673Y0141664D01*
X0006676Y0142863D02*
X0245987Y0142863D01*
X0245988Y0144061D02*
X0006680Y0144061D01*
X0006683Y0145260D02*
X0109060Y0145260D01*
X0108259Y0145592D02*
X0111530Y0144237D01*
X0115070Y0144237D01*
X0118341Y0145592D01*
X0120845Y0148096D01*
X0122200Y0151367D01*
X0122200Y0154907D01*
X0120845Y0158178D01*
X0118341Y0160682D01*
X0115070Y0162037D01*
X0111530Y0162037D01*
X0108259Y0160682D01*
X0105755Y0158178D01*
X0104400Y0154907D01*
X0104400Y0151367D01*
X0105755Y0148096D01*
X0108259Y0145592D01*
X0107392Y0146458D02*
X0006686Y0146458D01*
X0006689Y0147657D02*
X0106194Y0147657D01*
X0105440Y0148855D02*
X0006693Y0148855D01*
X0006696Y0150054D02*
X0104944Y0150054D01*
X0104447Y0151252D02*
X0006699Y0151252D01*
X0006702Y0152451D02*
X0104400Y0152451D01*
X0104400Y0153649D02*
X0006706Y0153649D01*
X0006709Y0154848D02*
X0104400Y0154848D01*
X0104872Y0156046D02*
X0006712Y0156046D01*
X0006716Y0157245D02*
X0105368Y0157245D01*
X0106020Y0158443D02*
X0006719Y0158443D01*
X0006722Y0159642D02*
X0107218Y0159642D01*
X0108641Y0160841D02*
X0006725Y0160841D01*
X0006729Y0162039D02*
X0216566Y0162039D01*
X0216566Y0160841D02*
X0117959Y0160841D01*
X0119381Y0159642D02*
X0216566Y0159642D01*
X0216566Y0159014D02*
X0217503Y0158076D01*
X0227097Y0158076D01*
X0228034Y0159014D01*
X0228034Y0168607D01*
X0227097Y0169544D01*
X0217503Y0169544D01*
X0216566Y0168607D01*
X0216566Y0159014D01*
X0217136Y0158443D02*
X0120580Y0158443D01*
X0121232Y0157245D02*
X0246006Y0157245D01*
X0246008Y0158443D02*
X0227464Y0158443D01*
X0228034Y0159642D02*
X0246010Y0159642D01*
X0246011Y0160841D02*
X0228034Y0160841D01*
X0228034Y0162039D02*
X0246013Y0162039D01*
X0246015Y0163238D02*
X0228034Y0163238D01*
X0228034Y0164436D02*
X0246016Y0164436D01*
X0246018Y0165635D02*
X0228034Y0165635D01*
X0228034Y0166833D02*
X0246020Y0166833D01*
X0246021Y0168032D02*
X0228034Y0168032D01*
X0227411Y0169230D02*
X0246023Y0169230D01*
X0246024Y0170429D02*
X0041700Y0170429D01*
X0041700Y0169867D02*
X0040345Y0166596D01*
X0037841Y0164092D01*
X0034570Y0162737D01*
X0031030Y0162737D01*
X0027759Y0164092D01*
X0025255Y0166596D01*
X0023900Y0169867D01*
X0023900Y0173407D01*
X0025255Y0176678D01*
X0027759Y0179182D01*
X0031030Y0180537D01*
X0034570Y0180537D01*
X0037841Y0179182D01*
X0040345Y0176678D01*
X0041700Y0173407D01*
X0041700Y0169867D01*
X0041436Y0169230D02*
X0217189Y0169230D01*
X0216566Y0168032D02*
X0040940Y0168032D01*
X0040443Y0166833D02*
X0216566Y0166833D01*
X0216566Y0165635D02*
X0039384Y0165635D01*
X0038186Y0164436D02*
X0216566Y0164436D01*
X0216566Y0163238D02*
X0035779Y0163238D01*
X0041700Y0171627D02*
X0246026Y0171627D01*
X0246028Y0172826D02*
X0041700Y0172826D01*
X0041445Y0174024D02*
X0199462Y0174024D01*
X0199741Y0173863D02*
X0197346Y0175246D01*
X0195390Y0177202D01*
X0194006Y0179598D01*
X0193291Y0182270D01*
X0193291Y0185036D01*
X0194006Y0187708D01*
X0195390Y0190103D01*
X0197346Y0192059D01*
X0199741Y0193442D01*
X0202413Y0194158D01*
X0205179Y0194158D01*
X0207851Y0193442D01*
X0210247Y0192059D01*
X0212203Y0190103D01*
X0213586Y0187708D01*
X0214302Y0185036D01*
X0214302Y0182270D01*
X0213586Y0179598D01*
X0212203Y0177202D01*
X0210247Y0175246D01*
X0207851Y0173863D01*
X0205179Y0173147D01*
X0202413Y0173147D01*
X0199741Y0173863D01*
X0197386Y0175223D02*
X0040948Y0175223D01*
X0040452Y0176421D02*
X0131958Y0176421D01*
X0131194Y0176737D02*
X0132885Y0176037D01*
X0134715Y0176037D01*
X0136406Y0176737D01*
X0137700Y0178031D01*
X0138400Y0179722D01*
X0138400Y0187552D01*
X0137700Y0189243D01*
X0136406Y0190537D01*
X0134715Y0191237D01*
X0132885Y0191237D01*
X0131194Y0190537D01*
X0129900Y0189243D01*
X0129200Y0187552D01*
X0129200Y0179722D01*
X0129900Y0178031D01*
X0131194Y0176737D01*
X0130312Y0177620D02*
X0039404Y0177620D01*
X0038205Y0178818D02*
X0129574Y0178818D01*
X0129200Y0180017D02*
X0035826Y0180017D01*
X0029774Y0180017D02*
X0006778Y0180017D01*
X0006781Y0181215D02*
X0129200Y0181215D01*
X0129200Y0182414D02*
X0006784Y0182414D01*
X0006788Y0183612D02*
X0129200Y0183612D01*
X0129200Y0184811D02*
X0006791Y0184811D01*
X0006794Y0186009D02*
X0129200Y0186009D01*
X0129200Y0187208D02*
X0006797Y0187208D01*
X0006801Y0188406D02*
X0129554Y0188406D01*
X0130262Y0189605D02*
X0006804Y0189605D01*
X0006807Y0190803D02*
X0131838Y0190803D01*
X0135762Y0190803D02*
X0151838Y0190803D01*
X0151194Y0190537D02*
X0152885Y0191237D01*
X0154715Y0191237D01*
X0156406Y0190537D01*
X0157700Y0189243D01*
X0158400Y0187552D01*
X0158400Y0179722D01*
X0157700Y0178031D01*
X0156406Y0176737D01*
X0154715Y0176037D01*
X0152885Y0176037D01*
X0151194Y0176737D01*
X0149900Y0178031D01*
X0149200Y0179722D01*
X0149200Y0187552D01*
X0149900Y0189243D01*
X0151194Y0190537D01*
X0150262Y0189605D02*
X0137338Y0189605D01*
X0138046Y0188406D02*
X0149554Y0188406D01*
X0149200Y0187208D02*
X0138400Y0187208D01*
X0138400Y0186009D02*
X0149200Y0186009D01*
X0149200Y0184811D02*
X0138400Y0184811D01*
X0138400Y0183612D02*
X0149200Y0183612D01*
X0149200Y0182414D02*
X0138400Y0182414D01*
X0138400Y0181215D02*
X0149200Y0181215D01*
X0149200Y0180017D02*
X0138400Y0180017D01*
X0138026Y0178818D02*
X0149574Y0178818D01*
X0150312Y0177620D02*
X0137288Y0177620D01*
X0135642Y0176421D02*
X0151958Y0176421D01*
X0155642Y0176421D02*
X0196171Y0176421D01*
X0195149Y0177620D02*
X0157288Y0177620D01*
X0158026Y0178818D02*
X0194457Y0178818D01*
X0193894Y0180017D02*
X0158400Y0180017D01*
X0158400Y0181215D02*
X0193573Y0181215D01*
X0193291Y0182414D02*
X0158400Y0182414D01*
X0158400Y0183612D02*
X0193291Y0183612D01*
X0193291Y0184811D02*
X0158400Y0184811D01*
X0158400Y0186009D02*
X0193551Y0186009D01*
X0193873Y0187208D02*
X0158400Y0187208D01*
X0158046Y0188406D02*
X0194410Y0188406D01*
X0195102Y0189605D02*
X0157338Y0189605D01*
X0155762Y0190803D02*
X0196090Y0190803D01*
X0197288Y0192002D02*
X0006811Y0192002D01*
X0006814Y0193200D02*
X0199322Y0193200D01*
X0208270Y0193200D02*
X0236330Y0193200D01*
X0234296Y0192002D02*
X0210304Y0192002D01*
X0211503Y0190803D02*
X0217109Y0190803D01*
X0217184Y0190878D02*
X0216886Y0190580D01*
X0216675Y0190215D01*
X0216566Y0189808D01*
X0216566Y0186064D01*
X0221700Y0186064D01*
X0221700Y0191198D01*
X0217955Y0191198D01*
X0217549Y0191089D01*
X0217184Y0190878D01*
X0216566Y0189605D02*
X0212490Y0189605D01*
X0213182Y0188406D02*
X0216566Y0188406D01*
X0216566Y0187208D02*
X0213720Y0187208D01*
X0214041Y0186009D02*
X0221700Y0186009D01*
X0221700Y0186064D02*
X0221700Y0184864D01*
X0216566Y0184864D01*
X0216566Y0181119D01*
X0216675Y0180712D01*
X0216886Y0180347D01*
X0217184Y0180050D01*
X0217549Y0179839D01*
X0217955Y0179730D01*
X0221700Y0179730D01*
X0221700Y0184864D01*
X0222900Y0184864D01*
X0222900Y0186064D01*
X0221700Y0186064D01*
X0221700Y0187208D02*
X0222900Y0187208D01*
X0222900Y0186064D02*
X0222900Y0191198D01*
X0226645Y0191198D01*
X0227051Y0191089D01*
X0227416Y0190878D01*
X0227714Y0190580D01*
X0227925Y0190215D01*
X0228034Y0189808D01*
X0228034Y0186064D01*
X0222900Y0186064D01*
X0222900Y0186009D02*
X0230559Y0186009D01*
X0230298Y0184811D02*
X0228034Y0184811D01*
X0228034Y0184864D02*
X0222900Y0184864D01*
X0222900Y0179730D01*
X0226645Y0179730D01*
X0227051Y0179839D01*
X0227416Y0180050D01*
X0227714Y0180347D01*
X0227925Y0180712D01*
X0228034Y0181119D01*
X0228034Y0184864D01*
X0228034Y0183612D02*
X0230298Y0183612D01*
X0230298Y0182414D02*
X0228034Y0182414D01*
X0228034Y0181215D02*
X0230581Y0181215D01*
X0230902Y0180017D02*
X0227359Y0180017D01*
X0231464Y0178818D02*
X0213136Y0178818D01*
X0213698Y0180017D02*
X0217241Y0180017D01*
X0216566Y0181215D02*
X0214019Y0181215D01*
X0214302Y0182414D02*
X0216566Y0182414D01*
X0216566Y0183612D02*
X0214302Y0183612D01*
X0214302Y0184811D02*
X0216566Y0184811D01*
X0221700Y0184811D02*
X0222900Y0184811D01*
X0222900Y0183612D02*
X0221700Y0183612D01*
X0221700Y0182414D02*
X0222900Y0182414D01*
X0222900Y0181215D02*
X0221700Y0181215D01*
X0221700Y0180017D02*
X0222900Y0180017D01*
X0222900Y0188406D02*
X0221700Y0188406D01*
X0221700Y0189605D02*
X0222900Y0189605D01*
X0222900Y0190803D02*
X0221700Y0190803D01*
X0227491Y0190803D02*
X0233097Y0190803D01*
X0232110Y0189605D02*
X0228034Y0189605D01*
X0228034Y0188406D02*
X0231418Y0188406D01*
X0230880Y0187208D02*
X0228034Y0187208D01*
X0232156Y0177620D02*
X0212444Y0177620D01*
X0211421Y0176421D02*
X0233178Y0176421D01*
X0234394Y0175223D02*
X0210206Y0175223D01*
X0208130Y0174024D02*
X0236470Y0174024D01*
X0245138Y0174024D02*
X0246029Y0174024D01*
X0246005Y0156046D02*
X0121728Y0156046D01*
X0122200Y0154848D02*
X0246003Y0154848D01*
X0246002Y0153649D02*
X0122200Y0153649D01*
X0122200Y0152451D02*
X0246000Y0152451D01*
X0245998Y0151252D02*
X0122153Y0151252D01*
X0121656Y0150054D02*
X0245997Y0150054D01*
X0245995Y0148855D02*
X0121160Y0148855D01*
X0120406Y0147657D02*
X0245993Y0147657D01*
X0245992Y0146458D02*
X0119208Y0146458D01*
X0117540Y0145260D02*
X0245990Y0145260D01*
X0246056Y0193200D02*
X0245278Y0193200D01*
X0246057Y0194399D02*
X0006817Y0194399D01*
X0006820Y0195597D02*
X0246059Y0195597D01*
X0246060Y0196796D02*
X0006824Y0196796D01*
X0006827Y0197994D02*
X0246062Y0197994D01*
X0246064Y0199193D02*
X0006830Y0199193D01*
X0006833Y0200391D02*
X0246065Y0200391D01*
X0246067Y0201590D02*
X0006837Y0201590D01*
X0006840Y0202788D02*
X0246069Y0202788D01*
X0246070Y0203987D02*
X0006843Y0203987D01*
X0006847Y0205185D02*
X0246072Y0205185D01*
X0246074Y0206384D02*
X0006850Y0206384D01*
X0006853Y0207582D02*
X0246075Y0207582D01*
X0246077Y0208781D02*
X0155804Y0208781D01*
X0155215Y0208537D02*
X0156906Y0209237D01*
X0158200Y0210531D01*
X0158900Y0212222D01*
X0158900Y0220052D01*
X0158200Y0221743D01*
X0156906Y0223037D01*
X0155215Y0223737D01*
X0153385Y0223737D01*
X0151694Y0223037D01*
X0150400Y0221743D01*
X0149700Y0220052D01*
X0149700Y0212222D01*
X0150400Y0210531D01*
X0151694Y0209237D01*
X0153385Y0208537D01*
X0155215Y0208537D01*
X0152796Y0208781D02*
X0135804Y0208781D01*
X0135215Y0208537D02*
X0136906Y0209237D01*
X0138200Y0210531D01*
X0138900Y0212222D01*
X0138900Y0220052D01*
X0138200Y0221743D01*
X0136906Y0223037D01*
X0135215Y0223737D01*
X0133385Y0223737D01*
X0131694Y0223037D01*
X0130400Y0221743D01*
X0129700Y0220052D01*
X0129700Y0212222D01*
X0130400Y0210531D01*
X0131694Y0209237D01*
X0133385Y0208537D01*
X0135215Y0208537D01*
X0132796Y0208781D02*
X0006856Y0208781D01*
X0006860Y0209979D02*
X0130952Y0209979D01*
X0130132Y0211178D02*
X0006863Y0211178D01*
X0006866Y0212376D02*
X0129700Y0212376D01*
X0129700Y0213575D02*
X0006869Y0213575D01*
X0006873Y0214774D02*
X0129700Y0214774D01*
X0129700Y0215972D02*
X0006876Y0215972D01*
X0006879Y0217171D02*
X0129700Y0217171D01*
X0129700Y0218369D02*
X0006883Y0218369D01*
X0006886Y0219568D02*
X0129700Y0219568D01*
X0129996Y0220766D02*
X0006889Y0220766D01*
X0006892Y0221965D02*
X0130622Y0221965D01*
X0131999Y0223163D02*
X0006896Y0223163D01*
X0006899Y0224362D02*
X0217066Y0224362D01*
X0217066Y0225560D02*
X0006902Y0225560D01*
X0006906Y0226759D02*
X0217066Y0226759D01*
X0217066Y0227107D02*
X0217066Y0217514D01*
X0218003Y0216576D01*
X0227597Y0216576D01*
X0228534Y0217514D01*
X0228534Y0227107D01*
X0227597Y0228044D01*
X0218003Y0228044D01*
X0217066Y0227107D01*
X0217916Y0227957D02*
X0006909Y0227957D01*
X0006912Y0229156D02*
X0246105Y0229156D01*
X0246106Y0230354D02*
X0006915Y0230354D01*
X0006919Y0231553D02*
X0246108Y0231553D01*
X0246110Y0232751D02*
X0246031Y0232751D01*
X0246103Y0227957D02*
X0227684Y0227957D01*
X0228534Y0226759D02*
X0246101Y0226759D01*
X0246100Y0225560D02*
X0228534Y0225560D01*
X0228534Y0224362D02*
X0246098Y0224362D01*
X0246096Y0223163D02*
X0228534Y0223163D01*
X0228534Y0221965D02*
X0246095Y0221965D01*
X0246093Y0220766D02*
X0228534Y0220766D01*
X0228534Y0219568D02*
X0246092Y0219568D01*
X0246090Y0218369D02*
X0228534Y0218369D01*
X0228191Y0217171D02*
X0246088Y0217171D01*
X0246087Y0215972D02*
X0158900Y0215972D01*
X0158900Y0214774D02*
X0246085Y0214774D01*
X0246083Y0213575D02*
X0158900Y0213575D01*
X0158900Y0212376D02*
X0246082Y0212376D01*
X0246080Y0211178D02*
X0158468Y0211178D01*
X0157648Y0209979D02*
X0246078Y0209979D01*
X0236577Y0232751D02*
X0209023Y0232751D01*
X0208351Y0232363D02*
X0205679Y0231647D01*
X0202913Y0231647D01*
X0200241Y0232363D01*
X0197846Y0233746D01*
X0195890Y0235702D01*
X0194506Y0238098D01*
X0193791Y0240770D01*
X0193791Y0243536D01*
X0194506Y0246208D01*
X0195890Y0248603D01*
X0197846Y0250559D01*
X0200241Y0251942D01*
X0202913Y0252658D01*
X0205679Y0252658D01*
X0208351Y0251942D01*
X0210747Y0250559D01*
X0212703Y0248603D01*
X0214086Y0246208D01*
X0214802Y0243536D01*
X0214802Y0240770D01*
X0214086Y0238098D01*
X0212703Y0235702D01*
X0210747Y0233746D01*
X0208351Y0232363D01*
X0210950Y0233950D02*
X0234650Y0233950D01*
X0233451Y0235148D02*
X0212149Y0235148D01*
X0213075Y0236347D02*
X0232525Y0236347D01*
X0231833Y0237545D02*
X0213767Y0237545D01*
X0214259Y0238744D02*
X0217490Y0238744D01*
X0217386Y0238847D02*
X0217684Y0238550D01*
X0218049Y0238339D01*
X0218455Y0238230D01*
X0222200Y0238230D01*
X0222200Y0243364D01*
X0217066Y0243364D01*
X0217066Y0239619D01*
X0217175Y0239212D01*
X0217386Y0238847D01*
X0217066Y0239942D02*
X0214580Y0239942D01*
X0214802Y0241141D02*
X0217066Y0241141D01*
X0217066Y0242339D02*
X0214802Y0242339D01*
X0214801Y0243538D02*
X0222200Y0243538D01*
X0222200Y0243364D02*
X0222200Y0244564D01*
X0222200Y0249698D01*
X0218455Y0249698D01*
X0218049Y0249589D01*
X0217684Y0249378D01*
X0217386Y0249080D01*
X0217175Y0248715D01*
X0217066Y0248308D01*
X0217066Y0244564D01*
X0222200Y0244564D01*
X0223400Y0244564D01*
X0223400Y0249698D01*
X0227145Y0249698D01*
X0227551Y0249589D01*
X0227916Y0249378D01*
X0228214Y0249080D01*
X0228425Y0248715D01*
X0228534Y0248308D01*
X0228534Y0244564D01*
X0223400Y0244564D01*
X0223400Y0243364D01*
X0228534Y0243364D01*
X0228534Y0239619D01*
X0228425Y0239212D01*
X0228214Y0238847D01*
X0227916Y0238550D01*
X0227551Y0238339D01*
X0227145Y0238230D01*
X0223400Y0238230D01*
X0223400Y0243364D01*
X0222200Y0243364D01*
X0222200Y0242339D02*
X0223400Y0242339D01*
X0223400Y0241141D02*
X0222200Y0241141D01*
X0222200Y0239942D02*
X0223400Y0239942D01*
X0223400Y0238744D02*
X0222200Y0238744D01*
X0223400Y0243538D02*
X0230799Y0243538D01*
X0230798Y0242339D02*
X0228534Y0242339D01*
X0228534Y0241141D02*
X0230798Y0241141D01*
X0231020Y0239942D02*
X0228534Y0239942D01*
X0228110Y0238744D02*
X0231341Y0238744D01*
X0231120Y0244736D02*
X0228534Y0244736D01*
X0228534Y0245935D02*
X0231441Y0245935D01*
X0232049Y0247133D02*
X0228534Y0247133D01*
X0228528Y0248332D02*
X0232741Y0248332D01*
X0233824Y0249530D02*
X0227652Y0249530D01*
X0223400Y0249530D02*
X0222200Y0249530D01*
X0222200Y0248332D02*
X0223400Y0248332D01*
X0223400Y0247133D02*
X0222200Y0247133D01*
X0222200Y0245935D02*
X0223400Y0245935D01*
X0223400Y0244736D02*
X0222200Y0244736D01*
X0217948Y0249530D02*
X0211776Y0249530D01*
X0212859Y0248332D02*
X0217072Y0248332D01*
X0217066Y0247133D02*
X0213551Y0247133D01*
X0214159Y0245935D02*
X0217066Y0245935D01*
X0217066Y0244736D02*
X0214480Y0244736D01*
X0210453Y0250729D02*
X0235147Y0250729D01*
X0237223Y0251927D02*
X0208377Y0251927D01*
X0200215Y0251927D02*
X0160900Y0251927D01*
X0160900Y0250729D02*
X0198139Y0250729D01*
X0196817Y0249530D02*
X0160900Y0249530D01*
X0160900Y0248332D02*
X0195733Y0248332D01*
X0195041Y0247133D02*
X0160863Y0247133D01*
X0160900Y0247222D02*
X0160200Y0245531D01*
X0158906Y0244237D01*
X0157215Y0243537D01*
X0155385Y0243537D01*
X0153694Y0244237D01*
X0152400Y0245531D01*
X0151700Y0247222D01*
X0151700Y0255052D01*
X0152400Y0256743D01*
X0153694Y0258037D01*
X0155385Y0258737D01*
X0157215Y0258737D01*
X0158906Y0258037D01*
X0160200Y0256743D01*
X0160900Y0255052D01*
X0160900Y0247222D01*
X0160367Y0245935D02*
X0194433Y0245935D01*
X0194112Y0244736D02*
X0159405Y0244736D01*
X0157217Y0243538D02*
X0193791Y0243538D01*
X0193791Y0242339D02*
X0006948Y0242339D01*
X0006945Y0241141D02*
X0193791Y0241141D01*
X0194012Y0239942D02*
X0006942Y0239942D01*
X0006938Y0238744D02*
X0194333Y0238744D01*
X0194825Y0237545D02*
X0006935Y0237545D01*
X0006932Y0236347D02*
X0195517Y0236347D01*
X0196444Y0235148D02*
X0006928Y0235148D01*
X0006925Y0233950D02*
X0197642Y0233950D01*
X0199569Y0232751D02*
X0006922Y0232751D01*
X0006951Y0243538D02*
X0135383Y0243538D01*
X0135385Y0243537D02*
X0137215Y0243537D01*
X0138906Y0244237D01*
X0140200Y0245531D01*
X0140900Y0247222D01*
X0140900Y0255052D01*
X0140200Y0256743D01*
X0138906Y0258037D01*
X0137215Y0258737D01*
X0135385Y0258737D01*
X0133694Y0258037D01*
X0132400Y0256743D01*
X0131700Y0255052D01*
X0131700Y0247222D01*
X0132400Y0245531D01*
X0133694Y0244237D01*
X0135385Y0243537D01*
X0137217Y0243538D02*
X0155383Y0243538D01*
X0153195Y0244736D02*
X0139405Y0244736D01*
X0140367Y0245935D02*
X0152233Y0245935D01*
X0151737Y0247133D02*
X0140863Y0247133D01*
X0140900Y0248332D02*
X0151700Y0248332D01*
X0151700Y0249530D02*
X0140900Y0249530D01*
X0140900Y0250729D02*
X0151700Y0250729D01*
X0151700Y0251927D02*
X0140900Y0251927D01*
X0140900Y0253126D02*
X0151700Y0253126D01*
X0151700Y0254324D02*
X0140900Y0254324D01*
X0140705Y0255523D02*
X0151895Y0255523D01*
X0152391Y0256721D02*
X0140209Y0256721D01*
X0139022Y0257920D02*
X0153578Y0257920D01*
X0159022Y0257920D02*
X0246144Y0257920D01*
X0246146Y0259118D02*
X0006994Y0259118D01*
X0006991Y0257920D02*
X0133578Y0257920D01*
X0132391Y0256721D02*
X0006987Y0256721D01*
X0006984Y0255523D02*
X0131895Y0255523D01*
X0131700Y0254324D02*
X0006981Y0254324D01*
X0006978Y0253126D02*
X0131700Y0253126D01*
X0131700Y0251927D02*
X0006974Y0251927D01*
X0006971Y0250729D02*
X0131700Y0250729D01*
X0131700Y0249530D02*
X0006968Y0249530D01*
X0006964Y0248332D02*
X0131700Y0248332D01*
X0131737Y0247133D02*
X0006961Y0247133D01*
X0006958Y0245935D02*
X0132233Y0245935D01*
X0133195Y0244736D02*
X0006955Y0244736D01*
X0006997Y0260317D02*
X0246147Y0260317D01*
X0246149Y0261515D02*
X0007000Y0261515D01*
X0007004Y0262714D02*
X0246151Y0262714D01*
X0246152Y0263912D02*
X0007007Y0263912D01*
X0007010Y0265111D02*
X0246154Y0265111D01*
X0246155Y0266309D02*
X0007014Y0266309D01*
X0007017Y0267508D02*
X0246157Y0267508D01*
X0246159Y0268707D02*
X0007020Y0268707D01*
X0007023Y0269905D02*
X0246160Y0269905D01*
X0246162Y0271104D02*
X0228534Y0271104D01*
X0228534Y0271014D02*
X0227597Y0270076D01*
X0218003Y0270076D01*
X0217066Y0271014D01*
X0217066Y0280607D01*
X0218003Y0281544D01*
X0227597Y0281544D01*
X0228534Y0280607D01*
X0228534Y0271014D01*
X0228534Y0272302D02*
X0246164Y0272302D01*
X0246165Y0273501D02*
X0228534Y0273501D01*
X0228534Y0274699D02*
X0246167Y0274699D01*
X0246169Y0275898D02*
X0228534Y0275898D01*
X0228534Y0277096D02*
X0246170Y0277096D01*
X0246172Y0278295D02*
X0228534Y0278295D01*
X0228534Y0279493D02*
X0246173Y0279493D01*
X0246175Y0280692D02*
X0228449Y0280692D01*
X0234217Y0287883D02*
X0211383Y0287883D01*
X0210747Y0287246D02*
X0212703Y0289202D01*
X0214086Y0291598D01*
X0214802Y0294270D01*
X0214802Y0297036D01*
X0214086Y0299708D01*
X0212703Y0302103D01*
X0210747Y0304059D01*
X0208351Y0305442D01*
X0205679Y0306158D01*
X0202913Y0306158D01*
X0200241Y0305442D01*
X0197846Y0304059D01*
X0195890Y0302103D01*
X0194506Y0299708D01*
X0193791Y0297036D01*
X0193791Y0294270D01*
X0194506Y0291598D01*
X0195890Y0289202D01*
X0197846Y0287246D01*
X0200241Y0285863D01*
X0202913Y0285147D01*
X0205679Y0285147D01*
X0208351Y0285863D01*
X0210747Y0287246D01*
X0209773Y0286684D02*
X0235827Y0286684D01*
X0238658Y0285486D02*
X0206942Y0285486D01*
X0201650Y0285486D02*
X0159900Y0285486D01*
X0159900Y0286684D02*
X0198819Y0286684D01*
X0197209Y0287883D02*
X0159900Y0287883D01*
X0159900Y0288552D02*
X0159200Y0290243D01*
X0157906Y0291537D01*
X0156215Y0292237D01*
X0154385Y0292237D01*
X0152694Y0291537D01*
X0151400Y0290243D01*
X0150700Y0288552D01*
X0150700Y0280722D01*
X0151400Y0279031D01*
X0152694Y0277737D01*
X0154385Y0277037D01*
X0156215Y0277037D01*
X0157906Y0277737D01*
X0159200Y0279031D01*
X0159900Y0280722D01*
X0159900Y0288552D01*
X0159681Y0289081D02*
X0196011Y0289081D01*
X0195267Y0290280D02*
X0159163Y0290280D01*
X0157964Y0291478D02*
X0194575Y0291478D01*
X0194217Y0292677D02*
X0007086Y0292677D01*
X0007089Y0293875D02*
X0193896Y0293875D01*
X0193791Y0295074D02*
X0007092Y0295074D01*
X0007095Y0296272D02*
X0193791Y0296272D01*
X0193907Y0297471D02*
X0007099Y0297471D01*
X0007102Y0298669D02*
X0194228Y0298669D01*
X0194599Y0299868D02*
X0007105Y0299868D01*
X0007109Y0301066D02*
X0195291Y0301066D01*
X0196051Y0302265D02*
X0007112Y0302265D01*
X0007115Y0303463D02*
X0197250Y0303463D01*
X0198889Y0304662D02*
X0007118Y0304662D01*
X0007122Y0305860D02*
X0201801Y0305860D01*
X0202673Y0307092D02*
X0200001Y0307808D01*
X0197605Y0309191D01*
X0195649Y0311147D01*
X0194266Y0313543D01*
X0193550Y0316215D01*
X0193550Y0318981D01*
X0194266Y0321653D01*
X0195649Y0324048D01*
X0197605Y0326004D01*
X0200001Y0327387D01*
X0202673Y0328103D01*
X0205439Y0328103D01*
X0208111Y0327387D01*
X0210506Y0326004D01*
X0212462Y0324048D01*
X0213845Y0321653D01*
X0214561Y0318981D01*
X0214561Y0316215D01*
X0213845Y0313543D01*
X0212462Y0311147D01*
X0210506Y0309191D01*
X0208111Y0307808D01*
X0205439Y0307092D01*
X0202673Y0307092D01*
X0206791Y0305860D02*
X0238809Y0305860D01*
X0235897Y0304662D02*
X0209703Y0304662D01*
X0211342Y0303463D02*
X0234257Y0303463D01*
X0233059Y0302265D02*
X0228396Y0302265D01*
X0228425Y0302215D02*
X0228214Y0302580D01*
X0227916Y0302878D01*
X0227551Y0303089D01*
X0227145Y0303198D01*
X0223400Y0303198D01*
X0223400Y0298064D01*
X0222200Y0298064D01*
X0222200Y0303198D01*
X0218455Y0303198D01*
X0218049Y0303089D01*
X0217684Y0302878D01*
X0217386Y0302580D01*
X0217175Y0302215D01*
X0217066Y0301808D01*
X0217066Y0298064D01*
X0222200Y0298064D01*
X0222200Y0296864D01*
X0217066Y0296864D01*
X0217066Y0293119D01*
X0217175Y0292712D01*
X0217386Y0292347D01*
X0217684Y0292050D01*
X0218049Y0291839D01*
X0218455Y0291730D01*
X0222200Y0291730D01*
X0222200Y0296864D01*
X0223400Y0296864D01*
X0223400Y0298064D01*
X0228534Y0298064D01*
X0228534Y0301808D01*
X0228425Y0302215D01*
X0228534Y0301066D02*
X0232299Y0301066D01*
X0231607Y0299868D02*
X0228534Y0299868D01*
X0228534Y0298669D02*
X0231236Y0298669D01*
X0230915Y0297471D02*
X0223400Y0297471D01*
X0223400Y0296864D02*
X0228534Y0296864D01*
X0228534Y0293119D01*
X0228425Y0292712D01*
X0228214Y0292347D01*
X0227916Y0292050D01*
X0227551Y0291839D01*
X0227145Y0291730D01*
X0223400Y0291730D01*
X0223400Y0296864D01*
X0223400Y0296272D02*
X0222200Y0296272D01*
X0222200Y0295074D02*
X0223400Y0295074D01*
X0223400Y0293875D02*
X0222200Y0293875D01*
X0222200Y0292677D02*
X0223400Y0292677D01*
X0222200Y0297471D02*
X0214685Y0297471D01*
X0214802Y0296272D02*
X0217066Y0296272D01*
X0217066Y0295074D02*
X0214802Y0295074D01*
X0214696Y0293875D02*
X0217066Y0293875D01*
X0217196Y0292677D02*
X0214375Y0292677D01*
X0214017Y0291478D02*
X0231583Y0291478D01*
X0231225Y0292677D02*
X0228404Y0292677D01*
X0228534Y0293875D02*
X0230904Y0293875D01*
X0230798Y0295074D02*
X0228534Y0295074D01*
X0228534Y0296272D02*
X0230798Y0296272D01*
X0232275Y0290280D02*
X0213325Y0290280D01*
X0212582Y0289081D02*
X0233018Y0289081D01*
X0243950Y0285486D02*
X0246182Y0285486D01*
X0246180Y0284287D02*
X0159900Y0284287D01*
X0159900Y0283089D02*
X0246178Y0283089D01*
X0246177Y0281890D02*
X0159900Y0281890D01*
X0159887Y0280692D02*
X0217151Y0280692D01*
X0217066Y0279493D02*
X0159391Y0279493D01*
X0158463Y0278295D02*
X0217066Y0278295D01*
X0217066Y0277096D02*
X0156358Y0277096D01*
X0154242Y0277096D02*
X0136358Y0277096D01*
X0136215Y0277037D02*
X0137906Y0277737D01*
X0139200Y0279031D01*
X0139900Y0280722D01*
X0139900Y0288552D01*
X0139200Y0290243D01*
X0137906Y0291537D01*
X0136215Y0292237D01*
X0134385Y0292237D01*
X0132694Y0291537D01*
X0131400Y0290243D01*
X0130700Y0288552D01*
X0130700Y0280722D01*
X0131400Y0279031D01*
X0132694Y0277737D01*
X0134385Y0277037D01*
X0136215Y0277037D01*
X0134242Y0277096D02*
X0007043Y0277096D01*
X0007040Y0275898D02*
X0217066Y0275898D01*
X0217066Y0274699D02*
X0007036Y0274699D01*
X0007033Y0273501D02*
X0217066Y0273501D01*
X0217066Y0272302D02*
X0007030Y0272302D01*
X0007027Y0271104D02*
X0217066Y0271104D01*
X0217066Y0298669D02*
X0214364Y0298669D01*
X0213993Y0299868D02*
X0217066Y0299868D01*
X0217066Y0301066D02*
X0213301Y0301066D01*
X0212541Y0302265D02*
X0217204Y0302265D01*
X0222200Y0302265D02*
X0223400Y0302265D01*
X0223400Y0301066D02*
X0222200Y0301066D01*
X0222200Y0299868D02*
X0223400Y0299868D01*
X0223400Y0298669D02*
X0222200Y0298669D01*
X0212870Y0311853D02*
X0246218Y0311853D01*
X0246219Y0313051D02*
X0213562Y0313051D01*
X0214035Y0314250D02*
X0246221Y0314250D01*
X0246223Y0315448D02*
X0214356Y0315448D01*
X0214561Y0316647D02*
X0246224Y0316647D01*
X0246226Y0317845D02*
X0214561Y0317845D01*
X0214544Y0319044D02*
X0246227Y0319044D01*
X0246229Y0320243D02*
X0214223Y0320243D01*
X0213902Y0321441D02*
X0246231Y0321441D01*
X0246232Y0322640D02*
X0213276Y0322640D01*
X0212584Y0323838D02*
X0246234Y0323838D01*
X0246236Y0325037D02*
X0211474Y0325037D01*
X0210106Y0326235D02*
X0246237Y0326235D01*
X0246239Y0327434D02*
X0207938Y0327434D01*
X0200174Y0327434D02*
X0015024Y0327434D01*
X0017193Y0326235D02*
X0198005Y0326235D01*
X0196638Y0325037D02*
X0018561Y0325037D01*
X0019670Y0323838D02*
X0195528Y0323838D01*
X0194836Y0322640D02*
X0156303Y0322640D01*
X0155906Y0323037D02*
X0154215Y0323737D01*
X0152385Y0323737D01*
X0150694Y0323037D01*
X0149400Y0321743D01*
X0148700Y0320052D01*
X0148700Y0312222D01*
X0149400Y0310531D01*
X0150694Y0309237D01*
X0152385Y0308537D01*
X0154215Y0308537D01*
X0155906Y0309237D01*
X0157200Y0310531D01*
X0157900Y0312222D01*
X0157900Y0320052D01*
X0157200Y0321743D01*
X0155906Y0323037D01*
X0157325Y0321441D02*
X0194210Y0321441D01*
X0193888Y0320243D02*
X0157821Y0320243D01*
X0157900Y0319044D02*
X0193567Y0319044D01*
X0193550Y0317845D02*
X0157900Y0317845D01*
X0157900Y0316647D02*
X0193550Y0316647D01*
X0193756Y0315448D02*
X0157900Y0315448D01*
X0157900Y0314250D02*
X0194077Y0314250D01*
X0194550Y0313051D02*
X0157900Y0313051D01*
X0157747Y0311853D02*
X0195242Y0311853D01*
X0196142Y0310654D02*
X0157251Y0310654D01*
X0156124Y0309456D02*
X0197341Y0309456D01*
X0199223Y0308257D02*
X0015976Y0308257D01*
X0017858Y0309456D02*
X0130476Y0309456D01*
X0130694Y0309237D02*
X0132385Y0308537D01*
X0134215Y0308537D01*
X0135906Y0309237D01*
X0137200Y0310531D01*
X0137900Y0312222D01*
X0137900Y0320052D01*
X0137200Y0321743D01*
X0135906Y0323037D01*
X0134215Y0323737D01*
X0132385Y0323737D01*
X0130694Y0323037D01*
X0129400Y0321743D01*
X0128700Y0320052D01*
X0128700Y0312222D01*
X0129400Y0310531D01*
X0130694Y0309237D01*
X0129349Y0310654D02*
X0019056Y0310654D01*
X0019957Y0311853D02*
X0128853Y0311853D01*
X0128700Y0313051D02*
X0020648Y0313051D01*
X0021122Y0314250D02*
X0128700Y0314250D01*
X0128700Y0315448D02*
X0021443Y0315448D01*
X0021648Y0316647D02*
X0128700Y0316647D01*
X0128700Y0317845D02*
X0021648Y0317845D01*
X0021631Y0319044D02*
X0128700Y0319044D01*
X0128779Y0320243D02*
X0021310Y0320243D01*
X0020989Y0321441D02*
X0129275Y0321441D01*
X0130297Y0322640D02*
X0020362Y0322640D01*
X0019557Y0346118D02*
X0016797Y0346857D01*
X0014323Y0348286D01*
X0012303Y0350306D01*
X0010874Y0352780D01*
X0010135Y0355539D01*
X0010135Y0358396D01*
X0010874Y0361156D01*
X0012303Y0363630D01*
X0014323Y0365650D01*
X0016797Y0367078D01*
X0019557Y0367818D01*
X0022413Y0367818D01*
X0025173Y0367078D01*
X0027647Y0365650D01*
X0029667Y0363630D01*
X0031096Y0361156D01*
X0031835Y0358396D01*
X0031835Y0355539D01*
X0031096Y0352780D01*
X0029667Y0350306D01*
X0027647Y0348286D01*
X0025173Y0346857D01*
X0022413Y0346118D01*
X0019557Y0346118D01*
X0017720Y0346610D02*
X0007233Y0346610D01*
X0007236Y0347808D02*
X0015150Y0347808D01*
X0013602Y0349007D02*
X0007240Y0349007D01*
X0007243Y0350205D02*
X0012403Y0350205D01*
X0011669Y0351404D02*
X0007246Y0351404D01*
X0007249Y0352602D02*
X0010977Y0352602D01*
X0010601Y0353801D02*
X0007253Y0353801D01*
X0007256Y0354999D02*
X0010280Y0354999D01*
X0010135Y0356198D02*
X0007259Y0356198D01*
X0007262Y0357396D02*
X0010135Y0357396D01*
X0010188Y0358595D02*
X0007266Y0358595D01*
X0007269Y0359793D02*
X0010509Y0359793D01*
X0010831Y0360992D02*
X0007272Y0360992D01*
X0007276Y0362190D02*
X0011472Y0362190D01*
X0012164Y0363389D02*
X0007279Y0363389D01*
X0007282Y0364587D02*
X0013261Y0364587D01*
X0014559Y0365786D02*
X0007285Y0365786D01*
X0007289Y0366984D02*
X0016635Y0366984D01*
X0025336Y0366984D02*
X0040082Y0366984D01*
X0039346Y0366559D02*
X0037390Y0364603D01*
X0036006Y0362208D01*
X0035291Y0359536D01*
X0035291Y0356770D01*
X0036006Y0354098D01*
X0037390Y0351702D01*
X0039346Y0349746D01*
X0041741Y0348363D01*
X0044413Y0347647D01*
X0047179Y0347647D01*
X0049851Y0348363D01*
X0052247Y0349746D01*
X0054203Y0351702D01*
X0055586Y0354098D01*
X0056302Y0356770D01*
X0056302Y0359536D01*
X0055586Y0362208D01*
X0054203Y0364603D01*
X0052247Y0366559D01*
X0049851Y0367942D01*
X0047179Y0368658D01*
X0044413Y0368658D01*
X0041741Y0367942D01*
X0039346Y0366559D01*
X0038572Y0365786D02*
X0027411Y0365786D01*
X0028710Y0364587D02*
X0037380Y0364587D01*
X0036688Y0363389D02*
X0029806Y0363389D01*
X0030498Y0362190D02*
X0036002Y0362190D01*
X0035681Y0360992D02*
X0031140Y0360992D01*
X0031461Y0359793D02*
X0035360Y0359793D01*
X0035291Y0358595D02*
X0031782Y0358595D01*
X0031835Y0357396D02*
X0035291Y0357396D01*
X0035444Y0356198D02*
X0031835Y0356198D01*
X0031690Y0354999D02*
X0035765Y0354999D01*
X0036178Y0353801D02*
X0031369Y0353801D01*
X0030993Y0352602D02*
X0036870Y0352602D01*
X0037688Y0351404D02*
X0030301Y0351404D01*
X0029567Y0350205D02*
X0038886Y0350205D01*
X0040626Y0349007D02*
X0028368Y0349007D01*
X0026820Y0347808D02*
X0043812Y0347808D01*
X0047780Y0347808D02*
X0080820Y0347808D01*
X0081421Y0347647D02*
X0078749Y0348363D01*
X0076353Y0349746D01*
X0074397Y0351702D01*
X0073014Y0354098D01*
X0072298Y0356770D01*
X0072298Y0359536D01*
X0073014Y0362208D01*
X0074397Y0364603D01*
X0076353Y0366559D01*
X0078749Y0367942D01*
X0081421Y0368658D01*
X0084187Y0368658D01*
X0086859Y0367942D01*
X0089254Y0366559D01*
X0091210Y0364603D01*
X0092594Y0362208D01*
X0093309Y0359536D01*
X0093309Y0356770D01*
X0092594Y0354098D01*
X0091210Y0351702D01*
X0089254Y0349746D01*
X0086859Y0348363D01*
X0084187Y0347647D01*
X0081421Y0347647D01*
X0084788Y0347808D02*
X0129200Y0347808D01*
X0129200Y0346610D02*
X0024250Y0346610D01*
X0007230Y0345411D02*
X0129200Y0345411D01*
X0129200Y0344213D02*
X0007226Y0344213D01*
X0007223Y0343014D02*
X0058566Y0343014D01*
X0058566Y0343107D02*
X0058566Y0333514D01*
X0059503Y0332576D01*
X0069097Y0332576D01*
X0070034Y0333514D01*
X0070034Y0343107D01*
X0069097Y0344044D01*
X0059503Y0344044D01*
X0058566Y0343107D01*
X0058566Y0341816D02*
X0007220Y0341816D01*
X0007217Y0340617D02*
X0058566Y0340617D01*
X0058566Y0339419D02*
X0007213Y0339419D01*
X0007210Y0338220D02*
X0058566Y0338220D01*
X0058566Y0337022D02*
X0007207Y0337022D01*
X0007204Y0335823D02*
X0058566Y0335823D01*
X0058566Y0334625D02*
X0007200Y0334625D01*
X0007197Y0333426D02*
X0058654Y0333426D01*
X0069946Y0333426D02*
X0246247Y0333426D01*
X0246245Y0332228D02*
X0007194Y0332228D01*
X0007190Y0331029D02*
X0246244Y0331029D01*
X0246242Y0329831D02*
X0007187Y0329831D01*
X0007184Y0328632D02*
X0246241Y0328632D01*
X0246249Y0334625D02*
X0227645Y0334625D01*
X0227597Y0334576D02*
X0228534Y0335514D01*
X0228534Y0345107D01*
X0227597Y0346044D01*
X0218003Y0346044D01*
X0217066Y0345107D01*
X0217066Y0335514D01*
X0218003Y0334576D01*
X0227597Y0334576D01*
X0228534Y0335823D02*
X0246250Y0335823D01*
X0246252Y0337022D02*
X0228534Y0337022D01*
X0228534Y0338220D02*
X0246254Y0338220D01*
X0246255Y0339419D02*
X0228534Y0339419D01*
X0228534Y0340617D02*
X0246257Y0340617D01*
X0246259Y0341816D02*
X0228534Y0341816D01*
X0228534Y0343014D02*
X0246260Y0343014D01*
X0246262Y0344213D02*
X0228534Y0344213D01*
X0228229Y0345411D02*
X0246263Y0345411D01*
X0246265Y0346610D02*
X0181730Y0346610D01*
X0182653Y0346857D02*
X0179894Y0346118D01*
X0177037Y0346118D01*
X0174277Y0346857D01*
X0171803Y0348286D01*
X0169783Y0350306D01*
X0168355Y0352780D01*
X0167615Y0355539D01*
X0167615Y0358396D01*
X0168355Y0361156D01*
X0169783Y0363630D01*
X0171803Y0365650D01*
X0174277Y0367078D01*
X0177037Y0367818D01*
X0179894Y0367818D01*
X0182653Y0367078D01*
X0185127Y0365650D01*
X0187148Y0363630D01*
X0188576Y0361156D01*
X0189315Y0358396D01*
X0189315Y0355539D01*
X0188576Y0352780D01*
X0187148Y0350306D01*
X0185127Y0348286D01*
X0182653Y0346857D01*
X0184301Y0347808D02*
X0246267Y0347808D01*
X0246268Y0349007D02*
X0185849Y0349007D01*
X0187047Y0350205D02*
X0200830Y0350205D01*
X0200241Y0350363D02*
X0202913Y0349647D01*
X0205679Y0349647D01*
X0208351Y0350363D01*
X0210747Y0351746D01*
X0212703Y0353702D01*
X0214086Y0356098D01*
X0214802Y0358770D01*
X0214802Y0361536D01*
X0214086Y0364208D01*
X0212703Y0366603D01*
X0210747Y0368559D01*
X0208351Y0369942D01*
X0205679Y0370658D01*
X0202913Y0370658D01*
X0200241Y0369942D01*
X0197846Y0368559D01*
X0195890Y0366603D01*
X0194506Y0364208D01*
X0193791Y0361536D01*
X0193791Y0358770D01*
X0194506Y0356098D01*
X0195890Y0353702D01*
X0197846Y0351746D01*
X0200241Y0350363D01*
X0198439Y0351404D02*
X0187782Y0351404D01*
X0188473Y0352602D02*
X0196989Y0352602D01*
X0195833Y0353801D02*
X0188850Y0353801D01*
X0189171Y0354999D02*
X0195141Y0354999D01*
X0194480Y0356198D02*
X0189315Y0356198D01*
X0189315Y0357396D02*
X0194159Y0357396D01*
X0193837Y0358595D02*
X0189262Y0358595D01*
X0188941Y0359793D02*
X0193791Y0359793D01*
X0193791Y0360992D02*
X0188620Y0360992D01*
X0187979Y0362190D02*
X0193966Y0362190D01*
X0194287Y0363389D02*
X0187287Y0363389D01*
X0186190Y0364587D02*
X0194726Y0364587D01*
X0195418Y0365786D02*
X0184892Y0365786D01*
X0182816Y0366984D02*
X0196271Y0366984D01*
X0197469Y0368183D02*
X0132527Y0368183D01*
X0133150Y0367560D02*
X0129723Y0370987D01*
X0124877Y0370987D01*
X0121450Y0367560D01*
X0121450Y0362714D01*
X0124877Y0359287D01*
X0129723Y0359287D01*
X0133150Y0362714D01*
X0133150Y0367560D01*
X0133150Y0366984D02*
X0174115Y0366984D01*
X0172039Y0365786D02*
X0133150Y0365786D01*
X0133150Y0364587D02*
X0170741Y0364587D01*
X0169644Y0363389D02*
X0133150Y0363389D01*
X0132627Y0362190D02*
X0168952Y0362190D01*
X0168311Y0360992D02*
X0131428Y0360992D01*
X0130230Y0359793D02*
X0167990Y0359793D01*
X0167669Y0358595D02*
X0093309Y0358595D01*
X0093309Y0357396D02*
X0167615Y0357396D01*
X0167615Y0356198D02*
X0093156Y0356198D01*
X0092835Y0354999D02*
X0167760Y0354999D01*
X0168081Y0353801D02*
X0155768Y0353801D01*
X0156406Y0353537D02*
X0154715Y0354237D01*
X0152885Y0354237D01*
X0151194Y0353537D01*
X0149900Y0352243D01*
X0149200Y0350552D01*
X0149200Y0342722D01*
X0149900Y0341031D01*
X0151194Y0339737D01*
X0152885Y0339037D01*
X0154715Y0339037D01*
X0156406Y0339737D01*
X0157700Y0341031D01*
X0158400Y0342722D01*
X0158400Y0350552D01*
X0157700Y0352243D01*
X0156406Y0353537D01*
X0157340Y0352602D02*
X0168457Y0352602D01*
X0169149Y0351404D02*
X0158047Y0351404D01*
X0158400Y0350205D02*
X0169884Y0350205D01*
X0171082Y0349007D02*
X0158400Y0349007D01*
X0158400Y0347808D02*
X0172630Y0347808D01*
X0175201Y0346610D02*
X0158400Y0346610D01*
X0158400Y0345411D02*
X0217371Y0345411D01*
X0217066Y0344213D02*
X0158400Y0344213D01*
X0158400Y0343014D02*
X0217066Y0343014D01*
X0217066Y0341816D02*
X0158025Y0341816D01*
X0157286Y0340617D02*
X0217066Y0340617D01*
X0217066Y0339419D02*
X0155636Y0339419D01*
X0151964Y0339419D02*
X0135636Y0339419D01*
X0136406Y0339737D02*
X0134715Y0339037D01*
X0132885Y0339037D01*
X0131194Y0339737D01*
X0129900Y0341031D01*
X0129200Y0342722D01*
X0129200Y0350552D01*
X0129900Y0352243D01*
X0131194Y0353537D01*
X0132885Y0354237D01*
X0134715Y0354237D01*
X0136406Y0353537D01*
X0137700Y0352243D01*
X0138400Y0350552D01*
X0138400Y0342722D01*
X0137700Y0341031D01*
X0136406Y0339737D01*
X0137286Y0340617D02*
X0150314Y0340617D01*
X0149575Y0341816D02*
X0138025Y0341816D01*
X0138400Y0343014D02*
X0149200Y0343014D01*
X0149200Y0344213D02*
X0138400Y0344213D01*
X0138400Y0345411D02*
X0149200Y0345411D01*
X0149200Y0346610D02*
X0138400Y0346610D01*
X0138400Y0347808D02*
X0149200Y0347808D01*
X0149200Y0349007D02*
X0138400Y0349007D01*
X0138400Y0350205D02*
X0149200Y0350205D01*
X0149553Y0351404D02*
X0138047Y0351404D01*
X0137340Y0352602D02*
X0150260Y0352602D01*
X0151832Y0353801D02*
X0135768Y0353801D01*
X0131832Y0353801D02*
X0092422Y0353801D01*
X0091730Y0352602D02*
X0130260Y0352602D01*
X0129553Y0351404D02*
X0090912Y0351404D01*
X0089714Y0350205D02*
X0129200Y0350205D01*
X0129200Y0349007D02*
X0087974Y0349007D01*
X0093240Y0359793D02*
X0124370Y0359793D01*
X0123172Y0360992D02*
X0092919Y0360992D01*
X0092598Y0362190D02*
X0121973Y0362190D01*
X0121450Y0363389D02*
X0091912Y0363389D01*
X0091220Y0364587D02*
X0121450Y0364587D01*
X0121450Y0365786D02*
X0090028Y0365786D01*
X0088518Y0366984D02*
X0121450Y0366984D01*
X0122073Y0368183D02*
X0085961Y0368183D01*
X0079647Y0368183D02*
X0048953Y0368183D01*
X0051510Y0366984D02*
X0077090Y0366984D01*
X0075580Y0365786D02*
X0053020Y0365786D01*
X0054212Y0364587D02*
X0058641Y0364587D01*
X0058675Y0364715D02*
X0058566Y0364308D01*
X0058566Y0360564D01*
X0063700Y0360564D01*
X0063700Y0365698D01*
X0059955Y0365698D01*
X0059549Y0365589D01*
X0059184Y0365378D01*
X0058886Y0365080D01*
X0058675Y0364715D01*
X0058566Y0363389D02*
X0054904Y0363389D01*
X0055590Y0362190D02*
X0058566Y0362190D01*
X0058566Y0360992D02*
X0055911Y0360992D01*
X0056233Y0359793D02*
X0063700Y0359793D01*
X0063700Y0359364D02*
X0058566Y0359364D01*
X0058566Y0355619D01*
X0058675Y0355212D01*
X0058886Y0354847D01*
X0059184Y0354550D01*
X0059549Y0354339D01*
X0059955Y0354230D01*
X0063700Y0354230D01*
X0063700Y0359364D01*
X0063700Y0360564D01*
X0064900Y0360564D01*
X0064900Y0365698D01*
X0068645Y0365698D01*
X0069051Y0365589D01*
X0069416Y0365378D01*
X0069714Y0365080D01*
X0069925Y0364715D01*
X0070034Y0364308D01*
X0070034Y0360564D01*
X0064900Y0360564D01*
X0064900Y0359364D01*
X0070034Y0359364D01*
X0070034Y0355619D01*
X0069925Y0355212D01*
X0069714Y0354847D01*
X0069416Y0354550D01*
X0069051Y0354339D01*
X0068645Y0354230D01*
X0064900Y0354230D01*
X0064900Y0359364D01*
X0063700Y0359364D01*
X0063700Y0358595D02*
X0064900Y0358595D01*
X0064900Y0359793D02*
X0072367Y0359793D01*
X0072298Y0358595D02*
X0070034Y0358595D01*
X0070034Y0357396D02*
X0072298Y0357396D01*
X0072452Y0356198D02*
X0070034Y0356198D01*
X0069802Y0354999D02*
X0072773Y0354999D01*
X0073186Y0353801D02*
X0055414Y0353801D01*
X0055827Y0354999D02*
X0058798Y0354999D01*
X0058566Y0356198D02*
X0056148Y0356198D01*
X0056302Y0357396D02*
X0058566Y0357396D01*
X0058566Y0358595D02*
X0056302Y0358595D01*
X0054722Y0352602D02*
X0073878Y0352602D01*
X0074696Y0351404D02*
X0053904Y0351404D01*
X0052706Y0350205D02*
X0075894Y0350205D01*
X0077634Y0349007D02*
X0050966Y0349007D01*
X0042639Y0368183D02*
X0007292Y0368183D01*
X0007295Y0369381D02*
X0123271Y0369381D01*
X0124470Y0370580D02*
X0007298Y0370580D01*
X0007181Y0327434D02*
X0007261Y0327434D01*
X0007125Y0307059D02*
X0246211Y0307059D01*
X0246213Y0308257D02*
X0208889Y0308257D01*
X0210771Y0309456D02*
X0246214Y0309456D01*
X0246216Y0310654D02*
X0211970Y0310654D01*
X0217955Y0334625D02*
X0070034Y0334625D01*
X0070034Y0335823D02*
X0217066Y0335823D01*
X0217066Y0337022D02*
X0070034Y0337022D01*
X0070034Y0338220D02*
X0217066Y0338220D01*
X0210153Y0351404D02*
X0235447Y0351404D01*
X0233997Y0352602D02*
X0211603Y0352602D01*
X0212759Y0353801D02*
X0232840Y0353801D01*
X0232149Y0354999D02*
X0213451Y0354999D01*
X0214112Y0356198D02*
X0231488Y0356198D01*
X0231166Y0357396D02*
X0228474Y0357396D01*
X0228425Y0357212D02*
X0228534Y0357619D01*
X0228534Y0361364D01*
X0223400Y0361364D01*
X0223400Y0362564D01*
X0222200Y0362564D01*
X0222200Y0367698D01*
X0218455Y0367698D01*
X0218049Y0367589D01*
X0217684Y0367378D01*
X0217386Y0367080D01*
X0217175Y0366715D01*
X0217066Y0366308D01*
X0217066Y0362564D01*
X0222200Y0362564D01*
X0222200Y0361364D01*
X0217066Y0361364D01*
X0217066Y0357619D01*
X0217175Y0357212D01*
X0217386Y0356847D01*
X0217684Y0356550D01*
X0218049Y0356339D01*
X0218455Y0356230D01*
X0222200Y0356230D01*
X0222200Y0361364D01*
X0223400Y0361364D01*
X0223400Y0356230D01*
X0227145Y0356230D01*
X0227551Y0356339D01*
X0227916Y0356550D01*
X0228214Y0356847D01*
X0228425Y0357212D01*
X0228534Y0358595D02*
X0230845Y0358595D01*
X0230798Y0359793D02*
X0228534Y0359793D01*
X0228534Y0360992D02*
X0230798Y0360992D01*
X0230974Y0362190D02*
X0223400Y0362190D01*
X0223400Y0362564D02*
X0228534Y0362564D01*
X0228534Y0366308D01*
X0228425Y0366715D01*
X0228214Y0367080D01*
X0227916Y0367378D01*
X0227551Y0367589D01*
X0227145Y0367698D01*
X0223400Y0367698D01*
X0223400Y0362564D01*
X0223400Y0363389D02*
X0222200Y0363389D01*
X0222200Y0364587D02*
X0223400Y0364587D01*
X0223400Y0365786D02*
X0222200Y0365786D01*
X0222200Y0366984D02*
X0223400Y0366984D01*
X0222200Y0362190D02*
X0214626Y0362190D01*
X0214802Y0360992D02*
X0217066Y0360992D01*
X0217066Y0359793D02*
X0214802Y0359793D01*
X0214755Y0358595D02*
X0217066Y0358595D01*
X0217126Y0357396D02*
X0214434Y0357396D01*
X0214305Y0363389D02*
X0217066Y0363389D01*
X0217066Y0364587D02*
X0213866Y0364587D01*
X0213174Y0365786D02*
X0217066Y0365786D01*
X0217331Y0366984D02*
X0212321Y0366984D01*
X0211123Y0368183D02*
X0234477Y0368183D01*
X0233279Y0366984D02*
X0228269Y0366984D01*
X0228534Y0365786D02*
X0232426Y0365786D01*
X0231734Y0364587D02*
X0228534Y0364587D01*
X0228534Y0363389D02*
X0231295Y0363389D01*
X0236278Y0369381D02*
X0209322Y0369381D01*
X0205971Y0370580D02*
X0239629Y0370580D01*
X0242979Y0370580D02*
X0246298Y0370580D01*
X0246300Y0371778D02*
X0160615Y0371778D01*
X0150297Y0322640D02*
X0136303Y0322640D01*
X0137325Y0321441D02*
X0149275Y0321441D01*
X0148779Y0320243D02*
X0137821Y0320243D01*
X0137900Y0319044D02*
X0148700Y0319044D01*
X0148700Y0317845D02*
X0137900Y0317845D01*
X0137900Y0316647D02*
X0148700Y0316647D01*
X0148700Y0315448D02*
X0137900Y0315448D01*
X0137900Y0314250D02*
X0148700Y0314250D01*
X0148700Y0313051D02*
X0137900Y0313051D01*
X0137747Y0311853D02*
X0148853Y0311853D01*
X0149349Y0310654D02*
X0137251Y0310654D01*
X0136124Y0309456D02*
X0150476Y0309456D01*
X0152636Y0291478D02*
X0137964Y0291478D01*
X0139163Y0290280D02*
X0151437Y0290280D01*
X0150919Y0289081D02*
X0139681Y0289081D01*
X0139900Y0287883D02*
X0150700Y0287883D01*
X0150700Y0286684D02*
X0139900Y0286684D01*
X0139900Y0285486D02*
X0150700Y0285486D01*
X0150700Y0284287D02*
X0139900Y0284287D01*
X0139900Y0283089D02*
X0150700Y0283089D01*
X0150700Y0281890D02*
X0139900Y0281890D01*
X0139887Y0280692D02*
X0150713Y0280692D01*
X0151209Y0279493D02*
X0139391Y0279493D01*
X0138463Y0278295D02*
X0152137Y0278295D01*
X0160209Y0256721D02*
X0246142Y0256721D01*
X0246141Y0255523D02*
X0160705Y0255523D01*
X0160900Y0254324D02*
X0246139Y0254324D01*
X0246137Y0253126D02*
X0160900Y0253126D01*
X0156601Y0223163D02*
X0217066Y0223163D01*
X0217066Y0221965D02*
X0157978Y0221965D01*
X0158604Y0220766D02*
X0217066Y0220766D01*
X0217066Y0219568D02*
X0158900Y0219568D01*
X0158900Y0218369D02*
X0217066Y0218369D01*
X0217409Y0217171D02*
X0158900Y0217171D01*
X0151999Y0223163D02*
X0136601Y0223163D01*
X0137978Y0221965D02*
X0150622Y0221965D01*
X0149996Y0220766D02*
X0138604Y0220766D01*
X0138900Y0219568D02*
X0149700Y0219568D01*
X0149700Y0218369D02*
X0138900Y0218369D01*
X0138900Y0217171D02*
X0149700Y0217171D01*
X0149700Y0215972D02*
X0138900Y0215972D01*
X0138900Y0214774D02*
X0149700Y0214774D01*
X0149700Y0213575D02*
X0138900Y0213575D01*
X0138900Y0212376D02*
X0149700Y0212376D01*
X0150132Y0211178D02*
X0138468Y0211178D01*
X0137648Y0209979D02*
X0150952Y0209979D01*
X0132137Y0278295D02*
X0007046Y0278295D01*
X0007050Y0279493D02*
X0131209Y0279493D01*
X0130713Y0280692D02*
X0007053Y0280692D01*
X0007056Y0281890D02*
X0130700Y0281890D01*
X0130700Y0283089D02*
X0007059Y0283089D01*
X0007063Y0284287D02*
X0130700Y0284287D01*
X0130700Y0285486D02*
X0007066Y0285486D01*
X0007069Y0286684D02*
X0130700Y0286684D01*
X0130700Y0287883D02*
X0007073Y0287883D01*
X0007076Y0289081D02*
X0130919Y0289081D01*
X0131437Y0290280D02*
X0007079Y0290280D01*
X0007082Y0291478D02*
X0132636Y0291478D01*
X0131964Y0339419D02*
X0070034Y0339419D01*
X0070034Y0340617D02*
X0130314Y0340617D01*
X0129575Y0341816D02*
X0070034Y0341816D01*
X0070034Y0343014D02*
X0129200Y0343014D01*
X0131329Y0369381D02*
X0199270Y0369381D01*
X0202621Y0370580D02*
X0130130Y0370580D01*
X0074388Y0364587D02*
X0069959Y0364587D01*
X0070034Y0363389D02*
X0073696Y0363389D01*
X0073010Y0362190D02*
X0070034Y0362190D01*
X0070034Y0360992D02*
X0072689Y0360992D01*
X0064900Y0360992D02*
X0063700Y0360992D01*
X0063700Y0362190D02*
X0064900Y0362190D01*
X0064900Y0363389D02*
X0063700Y0363389D01*
X0063700Y0364587D02*
X0064900Y0364587D01*
X0064900Y0357396D02*
X0063700Y0357396D01*
X0063700Y0356198D02*
X0064900Y0356198D01*
X0064900Y0354999D02*
X0063700Y0354999D01*
X0027395Y0178818D02*
X0006775Y0178818D01*
X0006771Y0177620D02*
X0026196Y0177620D01*
X0025148Y0176421D02*
X0006768Y0176421D01*
X0006765Y0175223D02*
X0024652Y0175223D01*
X0024155Y0174024D02*
X0006761Y0174024D01*
X0006758Y0172826D02*
X0023900Y0172826D01*
X0023900Y0171627D02*
X0006755Y0171627D01*
X0006752Y0170429D02*
X0023900Y0170429D01*
X0024164Y0169230D02*
X0006748Y0169230D01*
X0006745Y0168032D02*
X0024660Y0168032D01*
X0025157Y0166833D02*
X0006742Y0166833D01*
X0006739Y0165635D02*
X0026216Y0165635D01*
X0027414Y0164436D02*
X0006735Y0164436D01*
X0006732Y0163238D02*
X0029821Y0163238D01*
X0029985Y0120091D02*
X0037615Y0120091D01*
X0037891Y0120205D02*
X0036212Y0119510D01*
X0034927Y0118225D01*
X0034231Y0116546D01*
X0034231Y0114728D01*
X0034927Y0113049D01*
X0036212Y0111764D01*
X0037891Y0111069D01*
X0039709Y0111069D01*
X0041388Y0111764D01*
X0042673Y0113049D01*
X0043368Y0114728D01*
X0043368Y0116546D01*
X0042673Y0118225D01*
X0041388Y0119510D01*
X0039709Y0120205D01*
X0037891Y0120205D01*
X0039985Y0120091D02*
X0047615Y0120091D01*
X0045595Y0118893D02*
X0042005Y0118893D01*
X0042893Y0117694D02*
X0044707Y0117694D01*
X0044231Y0116496D02*
X0043368Y0116496D01*
X0043368Y0115297D02*
X0044231Y0115297D01*
X0044492Y0114099D02*
X0043108Y0114099D01*
X0042524Y0112900D02*
X0045076Y0112900D01*
X0046363Y0111702D02*
X0041237Y0111702D01*
X0036363Y0111702D02*
X0031237Y0111702D01*
X0032524Y0112900D02*
X0035076Y0112900D01*
X0034492Y0114099D02*
X0033108Y0114099D01*
X0033368Y0115297D02*
X0034231Y0115297D01*
X0034231Y0116496D02*
X0033368Y0116496D01*
X0032893Y0117694D02*
X0034707Y0117694D01*
X0035595Y0118893D02*
X0032005Y0118893D01*
X0017931Y0097319D02*
X0056893Y0097319D01*
X0056700Y0096121D02*
X0019130Y0096121D01*
X0019999Y0094922D02*
X0056906Y0094922D01*
X0057622Y0093724D02*
X0020691Y0093724D01*
X0021141Y0092525D02*
X0097706Y0092525D01*
X0096368Y0091327D02*
X0021462Y0091327D01*
X0016103Y0098518D02*
X0057590Y0098518D01*
X0059534Y0099716D02*
X0012676Y0099716D01*
X0009609Y0099716D02*
X0006558Y0099716D01*
X0017066Y0080540D02*
X0050919Y0080540D01*
X0050010Y0079342D02*
X0014750Y0079342D01*
X0018361Y0073349D02*
X0027239Y0073349D01*
X0028377Y0074487D02*
X0024950Y0071060D01*
X0024950Y0066214D01*
X0028377Y0062787D01*
X0033223Y0062787D01*
X0036650Y0066214D01*
X0036650Y0071060D01*
X0033223Y0074487D01*
X0028377Y0074487D01*
X0026041Y0072151D02*
X0019559Y0072151D01*
X0020758Y0070952D02*
X0024950Y0070952D01*
X0024950Y0069754D02*
X0021150Y0069754D01*
X0021150Y0068555D02*
X0024950Y0068555D01*
X0024950Y0067357D02*
X0021150Y0067357D01*
X0021150Y0066158D02*
X0025006Y0066158D01*
X0026204Y0064960D02*
X0020396Y0064960D01*
X0019197Y0063761D02*
X0027403Y0063761D01*
X0034197Y0063761D02*
X0041903Y0063761D01*
X0040704Y0064960D02*
X0035396Y0064960D01*
X0036594Y0066158D02*
X0039506Y0066158D01*
X0039450Y0067357D02*
X0036650Y0067357D01*
X0036650Y0068555D02*
X0039450Y0068555D01*
X0039450Y0069754D02*
X0036650Y0069754D01*
X0036650Y0070952D02*
X0039450Y0070952D01*
X0040541Y0072151D02*
X0035559Y0072151D01*
X0034361Y0073349D02*
X0041739Y0073349D01*
X0049896Y0064960D02*
X0056204Y0064960D01*
X0055006Y0066158D02*
X0051094Y0066158D01*
X0051150Y0067357D02*
X0054450Y0067357D01*
X0054450Y0066714D02*
X0057877Y0063287D01*
X0062723Y0063287D01*
X0066150Y0066714D01*
X0066150Y0071560D01*
X0062723Y0074987D01*
X0057877Y0074987D01*
X0054450Y0071560D01*
X0054450Y0066714D01*
X0054450Y0068555D02*
X0051150Y0068555D01*
X0051150Y0069754D02*
X0054450Y0069754D01*
X0054450Y0070952D02*
X0051613Y0070952D01*
X0052523Y0072151D02*
X0055041Y0072151D01*
X0056239Y0073349D02*
X0053433Y0073349D01*
X0054342Y0074548D02*
X0057438Y0074548D01*
X0055252Y0075746D02*
X0198032Y0075746D01*
X0196834Y0074548D02*
X0063162Y0074548D01*
X0064361Y0073349D02*
X0195954Y0073349D01*
X0195262Y0072151D02*
X0065559Y0072151D01*
X0066150Y0070952D02*
X0194804Y0070952D01*
X0194483Y0069754D02*
X0066150Y0069754D01*
X0066150Y0068555D02*
X0194291Y0068555D01*
X0194291Y0067357D02*
X0066150Y0067357D01*
X0065594Y0066158D02*
X0194320Y0066158D01*
X0194642Y0064960D02*
X0064396Y0064960D01*
X0063197Y0063761D02*
X0194963Y0063761D01*
X0195604Y0062563D02*
X0017999Y0062563D01*
X0018223Y0054987D02*
X0013377Y0054987D01*
X0009950Y0051560D01*
X0009950Y0046714D01*
X0013377Y0043287D01*
X0018223Y0043287D01*
X0021650Y0046714D01*
X0021650Y0051560D01*
X0018223Y0054987D01*
X0019037Y0054173D02*
X0096063Y0054173D01*
X0097261Y0055372D02*
X0006437Y0055372D01*
X0006434Y0054173D02*
X0012563Y0054173D01*
X0011364Y0052974D02*
X0006431Y0052974D01*
X0006427Y0051776D02*
X0010166Y0051776D01*
X0009950Y0050577D02*
X0006424Y0050577D01*
X0006421Y0049379D02*
X0009950Y0049379D01*
X0009950Y0048180D02*
X0006418Y0048180D01*
X0006414Y0046982D02*
X0009950Y0046982D01*
X0010880Y0045783D02*
X0006411Y0045783D01*
X0006408Y0044585D02*
X0012079Y0044585D01*
X0013277Y0043386D02*
X0006404Y0043386D01*
X0006401Y0042188D02*
X0218392Y0042188D01*
X0217566Y0043386D02*
X0018323Y0043386D01*
X0019521Y0044585D02*
X0097579Y0044585D01*
X0096380Y0045783D02*
X0020720Y0045783D01*
X0021650Y0046982D02*
X0095182Y0046982D01*
X0094450Y0048180D02*
X0021650Y0048180D01*
X0021650Y0049379D02*
X0094450Y0049379D01*
X0094450Y0050577D02*
X0021650Y0050577D01*
X0021434Y0051776D02*
X0094450Y0051776D01*
X0094864Y0052974D02*
X0020236Y0052974D01*
X0017421Y0032600D02*
X0006375Y0032600D01*
X0006378Y0033798D02*
X0108574Y0033798D01*
X0108518Y0033854D02*
X0109017Y0033355D01*
X0109604Y0032963D01*
X0110255Y0032694D01*
X0110947Y0032556D01*
X0111300Y0032556D01*
X0111300Y0036137D01*
X0111300Y0036137D01*
X0107719Y0036137D01*
X0107719Y0035784D01*
X0107857Y0035092D01*
X0108126Y0034441D01*
X0108518Y0033854D01*
X0107896Y0034997D02*
X0006382Y0034997D01*
X0006385Y0036195D02*
X0107719Y0036195D01*
X0107719Y0036137D02*
X0111300Y0036137D01*
X0111300Y0036137D01*
X0111300Y0039718D01*
X0110947Y0039718D01*
X0110255Y0039580D01*
X0109604Y0039311D01*
X0109017Y0038919D01*
X0108518Y0038420D01*
X0108126Y0037833D01*
X0107857Y0037182D01*
X0107719Y0036490D01*
X0107719Y0036137D01*
X0107944Y0037394D02*
X0006388Y0037394D01*
X0006391Y0038592D02*
X0108691Y0038592D01*
X0111300Y0038592D02*
X0111300Y0038592D01*
X0111300Y0037394D02*
X0111300Y0037394D01*
X0111300Y0036195D02*
X0111300Y0036195D01*
X0111300Y0034997D02*
X0111300Y0034997D01*
X0111300Y0033798D02*
X0111300Y0033798D01*
X0111300Y0032600D02*
X0111300Y0032600D01*
X0110727Y0032600D02*
X0024549Y0032600D01*
X0015011Y0031401D02*
X0006372Y0031401D01*
X0006368Y0030203D02*
X0013522Y0030203D01*
X0012323Y0029004D02*
X0006365Y0029004D01*
X0006362Y0027806D02*
X0011623Y0027806D01*
X0010931Y0026607D02*
X0006359Y0026607D01*
X0006355Y0025409D02*
X0010579Y0025409D01*
X0010258Y0024210D02*
X0006352Y0024210D01*
X0006349Y0023012D02*
X0010135Y0023012D01*
X0010135Y0021813D02*
X0006346Y0021813D01*
X0006342Y0020615D02*
X0010210Y0020615D01*
X0010531Y0019416D02*
X0006339Y0019416D01*
X0006336Y0018218D02*
X0010852Y0018218D01*
X0011518Y0017019D02*
X0006332Y0017019D01*
X0006329Y0015821D02*
X0012210Y0015821D01*
X0013341Y0014622D02*
X0006326Y0014622D01*
X0006323Y0013424D02*
X0014698Y0013424D01*
X0006306Y0007431D02*
X0245802Y0007431D01*
X0225435Y0012225D02*
X0190393Y0012225D01*
X0190205Y0012037D02*
X0192900Y0014732D01*
X0192900Y0016237D01*
X0188700Y0016237D01*
X0188700Y0017037D01*
X0192900Y0017037D01*
X0192900Y0018542D01*
X0190205Y0021237D01*
X0188700Y0021237D01*
X0188700Y0017037D01*
X0187900Y0017037D01*
X0187900Y0016237D01*
X0188700Y0016237D01*
X0188700Y0012037D01*
X0190205Y0012037D01*
X0188700Y0012225D02*
X0187900Y0012225D01*
X0187900Y0012037D02*
X0187900Y0016237D01*
X0183700Y0016237D01*
X0183700Y0014732D01*
X0186395Y0012037D01*
X0187900Y0012037D01*
X0187900Y0013424D02*
X0188700Y0013424D01*
X0188700Y0014622D02*
X0187900Y0014622D01*
X0187900Y0015821D02*
X0188700Y0015821D01*
X0188700Y0017019D02*
X0220180Y0017019D01*
X0219513Y0018218D02*
X0192900Y0018218D01*
X0192026Y0019416D02*
X0219192Y0019416D01*
X0218871Y0020615D02*
X0190828Y0020615D01*
X0190205Y0022037D02*
X0192900Y0024732D01*
X0192900Y0028542D01*
X0190205Y0031237D01*
X0186395Y0031237D01*
X0183700Y0028542D01*
X0183700Y0024732D01*
X0186395Y0022037D01*
X0190205Y0022037D01*
X0191180Y0023012D02*
X0218796Y0023012D01*
X0218796Y0021813D02*
X0087700Y0021813D01*
X0087700Y0021237D02*
X0091900Y0021237D01*
X0091900Y0018275D01*
X0091787Y0017560D01*
X0091563Y0016871D01*
X0091234Y0016226D01*
X0090809Y0015640D01*
X0090297Y0015128D01*
X0089711Y0014703D01*
X0089066Y0014374D01*
X0088377Y0014150D01*
X0087700Y0014043D01*
X0087700Y0021237D01*
X0087700Y0020615D02*
X0086900Y0020615D01*
X0086900Y0021237D02*
X0086900Y0014043D01*
X0086223Y0014150D01*
X0085534Y0014374D01*
X0084889Y0014703D01*
X0084303Y0015128D01*
X0083791Y0015640D01*
X0083366Y0016226D01*
X0083037Y0016871D01*
X0082813Y0017560D01*
X0082700Y0018275D01*
X0082700Y0021237D01*
X0086900Y0021237D01*
X0086900Y0021813D02*
X0081900Y0021813D01*
X0081900Y0020615D02*
X0082700Y0020615D01*
X0082700Y0019416D02*
X0081900Y0019416D01*
X0081900Y0018218D02*
X0082709Y0018218D01*
X0082989Y0017019D02*
X0081609Y0017019D01*
X0080989Y0015821D02*
X0083660Y0015821D01*
X0085047Y0014622D02*
X0079628Y0014622D01*
X0081900Y0023012D02*
X0082700Y0023012D01*
X0082700Y0024210D02*
X0081900Y0024210D01*
X0081900Y0025409D02*
X0082765Y0025409D01*
X0083141Y0026607D02*
X0081463Y0026607D01*
X0080637Y0027806D02*
X0083963Y0027806D01*
X0086900Y0027806D02*
X0087700Y0027806D01*
X0087700Y0026607D02*
X0086900Y0026607D01*
X0086900Y0025409D02*
X0087700Y0025409D01*
X0087700Y0024210D02*
X0086900Y0024210D01*
X0086900Y0023012D02*
X0087700Y0023012D01*
X0087700Y0019416D02*
X0086900Y0019416D01*
X0086900Y0018218D02*
X0087700Y0018218D01*
X0087700Y0017019D02*
X0086900Y0017019D01*
X0086900Y0015821D02*
X0087700Y0015821D01*
X0087700Y0014622D02*
X0086900Y0014622D01*
X0089553Y0014622D02*
X0134721Y0014622D01*
X0137300Y0014622D02*
X0137300Y0014622D01*
X0137300Y0013424D02*
X0137300Y0013424D01*
X0137300Y0012225D02*
X0137300Y0012225D01*
X0137300Y0011027D02*
X0137300Y0011027D01*
X0137300Y0009828D02*
X0137300Y0009828D01*
X0140881Y0012225D02*
X0146207Y0012225D01*
X0146395Y0012037D02*
X0147900Y0012037D01*
X0147900Y0016237D01*
X0148700Y0016237D01*
X0148700Y0017037D01*
X0152900Y0017037D01*
X0152900Y0018542D01*
X0150205Y0021237D01*
X0148700Y0021237D01*
X0148700Y0017037D01*
X0147900Y0017037D01*
X0147900Y0016237D01*
X0143700Y0016237D01*
X0143700Y0014732D01*
X0146395Y0012037D01*
X0147900Y0012225D02*
X0148700Y0012225D01*
X0148700Y0012037D02*
X0150205Y0012037D01*
X0152900Y0014732D01*
X0152900Y0016237D01*
X0148700Y0016237D01*
X0148700Y0012037D01*
X0148700Y0013424D02*
X0147900Y0013424D01*
X0147900Y0014622D02*
X0148700Y0014622D01*
X0148700Y0015821D02*
X0147900Y0015821D01*
X0147900Y0017019D02*
X0091611Y0017019D01*
X0091891Y0018218D02*
X0143700Y0018218D01*
X0143700Y0018542D02*
X0143700Y0017037D01*
X0147900Y0017037D01*
X0147900Y0021237D01*
X0146395Y0021237D01*
X0143700Y0018542D01*
X0144574Y0019416D02*
X0091900Y0019416D01*
X0091900Y0020615D02*
X0145772Y0020615D01*
X0147900Y0020615D02*
X0148700Y0020615D01*
X0148700Y0019416D02*
X0147900Y0019416D01*
X0147900Y0018218D02*
X0148700Y0018218D01*
X0148700Y0017019D02*
X0157900Y0017019D01*
X0157900Y0017037D02*
X0157900Y0016237D01*
X0158700Y0016237D01*
X0158700Y0017037D01*
X0162900Y0017037D01*
X0162900Y0018542D01*
X0160205Y0021237D01*
X0158700Y0021237D01*
X0158700Y0017037D01*
X0157900Y0017037D01*
X0153700Y0017037D01*
X0153700Y0018542D01*
X0156395Y0021237D01*
X0157900Y0021237D01*
X0157900Y0017037D01*
X0157900Y0016237D02*
X0153700Y0016237D01*
X0153700Y0014732D01*
X0156395Y0012037D01*
X0157900Y0012037D01*
X0157900Y0016237D01*
X0157900Y0015821D02*
X0158700Y0015821D01*
X0158700Y0016237D02*
X0158700Y0012037D01*
X0160205Y0012037D01*
X0162900Y0014732D01*
X0162900Y0016237D01*
X0158700Y0016237D01*
X0158700Y0017019D02*
X0167900Y0017019D01*
X0167900Y0017037D02*
X0167900Y0016237D01*
X0168700Y0016237D01*
X0168700Y0017037D01*
X0172900Y0017037D01*
X0172900Y0018542D01*
X0170205Y0021237D01*
X0168700Y0021237D01*
X0168700Y0017037D01*
X0167900Y0017037D01*
X0163700Y0017037D01*
X0163700Y0018542D01*
X0166395Y0021237D01*
X0167900Y0021237D01*
X0167900Y0017037D01*
X0167900Y0016237D02*
X0163700Y0016237D01*
X0163700Y0014732D01*
X0166395Y0012037D01*
X0167900Y0012037D01*
X0167900Y0016237D01*
X0167900Y0015821D02*
X0168700Y0015821D01*
X0168700Y0016237D02*
X0168700Y0012037D01*
X0170205Y0012037D01*
X0172900Y0014732D01*
X0172900Y0016237D01*
X0168700Y0016237D01*
X0168700Y0017019D02*
X0177900Y0017019D01*
X0177900Y0017037D02*
X0177900Y0016237D01*
X0178700Y0016237D01*
X0178700Y0017037D01*
X0182900Y0017037D01*
X0182900Y0018542D01*
X0180205Y0021237D01*
X0178700Y0021237D01*
X0178700Y0017037D01*
X0177900Y0017037D01*
X0173700Y0017037D01*
X0173700Y0018542D01*
X0176395Y0021237D01*
X0177900Y0021237D01*
X0177900Y0017037D01*
X0177900Y0016237D02*
X0173700Y0016237D01*
X0173700Y0014732D01*
X0176395Y0012037D01*
X0177900Y0012037D01*
X0177900Y0016237D01*
X0177900Y0015821D02*
X0178700Y0015821D01*
X0178700Y0016237D02*
X0178700Y0012037D01*
X0180205Y0012037D01*
X0182900Y0014732D01*
X0182900Y0016237D01*
X0178700Y0016237D01*
X0178700Y0017019D02*
X0187900Y0017019D01*
X0187900Y0017037D02*
X0183700Y0017037D01*
X0183700Y0018542D01*
X0186395Y0021237D01*
X0187900Y0021237D01*
X0187900Y0017037D01*
X0187900Y0018218D02*
X0188700Y0018218D01*
X0188700Y0019416D02*
X0187900Y0019416D01*
X0187900Y0020615D02*
X0188700Y0020615D01*
X0185772Y0020615D02*
X0180828Y0020615D01*
X0180205Y0022037D02*
X0182900Y0024732D01*
X0182900Y0028542D01*
X0180205Y0031237D01*
X0176395Y0031237D01*
X0173700Y0028542D01*
X0173700Y0024732D01*
X0176395Y0022037D01*
X0180205Y0022037D01*
X0181180Y0023012D02*
X0185420Y0023012D01*
X0184221Y0024210D02*
X0182379Y0024210D01*
X0182900Y0025409D02*
X0183700Y0025409D01*
X0183700Y0026607D02*
X0182900Y0026607D01*
X0182900Y0027806D02*
X0183700Y0027806D01*
X0184162Y0029004D02*
X0182438Y0029004D01*
X0181240Y0030203D02*
X0185360Y0030203D01*
X0191240Y0030203D02*
X0222183Y0030203D01*
X0220984Y0029004D02*
X0192438Y0029004D01*
X0192900Y0027806D02*
X0220284Y0027806D01*
X0219592Y0026607D02*
X0192900Y0026607D01*
X0192900Y0025409D02*
X0219241Y0025409D01*
X0218920Y0024210D02*
X0192379Y0024210D01*
X0192900Y0015821D02*
X0220872Y0015821D01*
X0222002Y0014622D02*
X0192790Y0014622D01*
X0191592Y0013424D02*
X0223359Y0013424D01*
X0217566Y0044585D02*
X0103021Y0044585D01*
X0104220Y0045783D02*
X0217566Y0045783D01*
X0217566Y0046982D02*
X0105418Y0046982D01*
X0106150Y0048180D02*
X0217566Y0048180D01*
X0217566Y0049379D02*
X0106150Y0049379D01*
X0106150Y0050577D02*
X0217566Y0050577D01*
X0217566Y0051776D02*
X0106150Y0051776D01*
X0105736Y0052974D02*
X0217934Y0052974D01*
X0217665Y0100915D02*
X0174200Y0100915D01*
X0174200Y0102113D02*
X0217566Y0102113D01*
X0217566Y0103312D02*
X0174032Y0103312D01*
X0173536Y0104510D02*
X0217566Y0104510D01*
X0217566Y0105709D02*
X0173040Y0105709D01*
X0172116Y0106907D02*
X0217566Y0106907D01*
X0217566Y0108106D02*
X0170917Y0108106D01*
X0168839Y0109305D02*
X0217566Y0109305D01*
X0175360Y0030203D02*
X0171240Y0030203D01*
X0170205Y0031237D02*
X0166395Y0031237D01*
X0163700Y0028542D01*
X0163700Y0024732D01*
X0166395Y0022037D01*
X0170205Y0022037D01*
X0172900Y0024732D01*
X0172900Y0028542D01*
X0170205Y0031237D01*
X0172438Y0029004D02*
X0174162Y0029004D01*
X0173700Y0027806D02*
X0172900Y0027806D01*
X0172900Y0026607D02*
X0173700Y0026607D01*
X0173700Y0025409D02*
X0172900Y0025409D01*
X0172379Y0024210D02*
X0174221Y0024210D01*
X0175420Y0023012D02*
X0171180Y0023012D01*
X0170828Y0020615D02*
X0175772Y0020615D01*
X0174574Y0019416D02*
X0172026Y0019416D01*
X0172900Y0018218D02*
X0173700Y0018218D01*
X0173700Y0015821D02*
X0172900Y0015821D01*
X0172790Y0014622D02*
X0173809Y0014622D01*
X0175008Y0013424D02*
X0171592Y0013424D01*
X0170393Y0012225D02*
X0176207Y0012225D01*
X0177900Y0012225D02*
X0178700Y0012225D01*
X0178700Y0013424D02*
X0177900Y0013424D01*
X0177900Y0014622D02*
X0178700Y0014622D01*
X0180393Y0012225D02*
X0186207Y0012225D01*
X0185008Y0013424D02*
X0181592Y0013424D01*
X0182790Y0014622D02*
X0183809Y0014622D01*
X0183700Y0015821D02*
X0182900Y0015821D01*
X0182900Y0018218D02*
X0183700Y0018218D01*
X0184574Y0019416D02*
X0182026Y0019416D01*
X0178700Y0019416D02*
X0177900Y0019416D01*
X0177900Y0018218D02*
X0178700Y0018218D01*
X0178700Y0020615D02*
X0177900Y0020615D01*
X0168700Y0020615D02*
X0167900Y0020615D01*
X0167900Y0019416D02*
X0168700Y0019416D01*
X0168700Y0018218D02*
X0167900Y0018218D01*
X0165772Y0020615D02*
X0160828Y0020615D01*
X0160205Y0022037D02*
X0162900Y0024732D01*
X0162900Y0028542D01*
X0160205Y0031237D01*
X0156395Y0031237D01*
X0153700Y0028542D01*
X0153700Y0024732D01*
X0156395Y0022037D01*
X0160205Y0022037D01*
X0161180Y0023012D02*
X0165420Y0023012D01*
X0164221Y0024210D02*
X0162379Y0024210D01*
X0162900Y0025409D02*
X0163700Y0025409D01*
X0163700Y0026607D02*
X0162900Y0026607D01*
X0162900Y0027806D02*
X0163700Y0027806D01*
X0164162Y0029004D02*
X0162438Y0029004D01*
X0161240Y0030203D02*
X0165360Y0030203D01*
X0164574Y0019416D02*
X0162026Y0019416D01*
X0162900Y0018218D02*
X0163700Y0018218D01*
X0163700Y0015821D02*
X0162900Y0015821D01*
X0162790Y0014622D02*
X0163809Y0014622D01*
X0165008Y0013424D02*
X0161592Y0013424D01*
X0160393Y0012225D02*
X0166207Y0012225D01*
X0167900Y0012225D02*
X0168700Y0012225D01*
X0168700Y0013424D02*
X0167900Y0013424D01*
X0167900Y0014622D02*
X0168700Y0014622D01*
X0158700Y0014622D02*
X0157900Y0014622D01*
X0157900Y0013424D02*
X0158700Y0013424D01*
X0158700Y0012225D02*
X0157900Y0012225D01*
X0156207Y0012225D02*
X0150393Y0012225D01*
X0151592Y0013424D02*
X0155008Y0013424D01*
X0153809Y0014622D02*
X0152790Y0014622D01*
X0152900Y0015821D02*
X0153700Y0015821D01*
X0153700Y0018218D02*
X0152900Y0018218D01*
X0152026Y0019416D02*
X0154574Y0019416D01*
X0155772Y0020615D02*
X0150828Y0020615D01*
X0151180Y0023012D02*
X0155420Y0023012D01*
X0154221Y0024210D02*
X0152379Y0024210D01*
X0152900Y0025409D02*
X0153700Y0025409D01*
X0153700Y0026607D02*
X0152900Y0026607D01*
X0152900Y0027806D02*
X0153700Y0027806D01*
X0154162Y0029004D02*
X0152438Y0029004D01*
X0151240Y0030203D02*
X0155360Y0030203D01*
X0157900Y0020615D02*
X0158700Y0020615D01*
X0158700Y0019416D02*
X0157900Y0019416D01*
X0157900Y0018218D02*
X0158700Y0018218D01*
X0145420Y0023012D02*
X0091900Y0023012D01*
X0091900Y0024210D02*
X0144221Y0024210D01*
X0143700Y0025409D02*
X0091835Y0025409D01*
X0091459Y0026607D02*
X0143700Y0026607D01*
X0143700Y0027806D02*
X0090637Y0027806D01*
X0090940Y0015821D02*
X0143700Y0015821D01*
X0143809Y0014622D02*
X0139879Y0014622D01*
X0140643Y0013424D02*
X0145008Y0013424D01*
X0143806Y0093724D02*
X0146252Y0093724D01*
X0145272Y0094922D02*
X0143868Y0094922D01*
X0143868Y0096121D02*
X0144776Y0096121D01*
X0159683Y0108106D02*
X0120183Y0108106D01*
X0122059Y0109305D02*
X0161761Y0109305D01*
X0245385Y0251927D02*
X0246136Y0251927D01*
X0246209Y0305860D02*
X0243799Y0305860D01*
X0244770Y0350205D02*
X0246270Y0350205D01*
X0237838Y0350205D02*
X0207762Y0350205D01*
X0222200Y0357396D02*
X0223400Y0357396D01*
X0223400Y0358595D02*
X0222200Y0358595D01*
X0222200Y0359793D02*
X0223400Y0359793D01*
X0223400Y0360992D02*
X0222200Y0360992D01*
X0057403Y0063761D02*
X0048697Y0063761D01*
D17*
X0060300Y0096137D03*
X0111300Y0036137D03*
X0137300Y0012137D03*
X0119300Y0111637D03*
D18*
X0117800Y0113137D01*
X0105800Y0113137D01*
X0088800Y0096137D01*
X0060300Y0096137D01*
X0111300Y0036137D02*
X0113300Y0036137D01*
X0137300Y0012137D01*
D19*
X0197363Y0433310D03*
X0205792Y0443574D03*
X0082300Y0443637D03*
X0071800Y0434637D03*
D20*
X0197363Y0433310D02*
X0202650Y0438956D01*
X0205792Y0443574D01*
D21*
X0109300Y0097137D02*
X0107599Y0097125D01*
X0088414Y0079940D01*
X0054450Y0079940D01*
X0046576Y0069566D01*
X0045300Y0068637D01*
D22*
X0071800Y0434637D02*
X0073800Y0438637D01*
X0082300Y0443637D01*
M02*
