G75*
%MOIN*%
%OFA0B0*%
%FSLAX25Y25*%
%IPPOS*%
%LPD*%
%AMOC8*
5,1,8,0,0,1.08239X$1,22.5*
%
%ADD10C,0.00000*%
%ADD11C,0.00300*%
%ADD12C,0.09061*%
%ADD13OC8,0.06700*%
%ADD14R,0.04000X0.06100*%
%ADD15R,0.02211X0.06030*%
D10*
X0008237Y0001406D02*
X0057056Y0001406D01*
X0051937Y0021091D02*
X0051939Y0021222D01*
X0051945Y0021354D01*
X0051955Y0021485D01*
X0051969Y0021616D01*
X0051987Y0021746D01*
X0052009Y0021875D01*
X0052034Y0022004D01*
X0052064Y0022132D01*
X0052098Y0022259D01*
X0052135Y0022386D01*
X0052176Y0022510D01*
X0052221Y0022634D01*
X0052270Y0022756D01*
X0052322Y0022877D01*
X0052378Y0022995D01*
X0052438Y0023113D01*
X0052501Y0023228D01*
X0052568Y0023341D01*
X0052638Y0023453D01*
X0052711Y0023562D01*
X0052787Y0023668D01*
X0052867Y0023773D01*
X0052950Y0023875D01*
X0053036Y0023974D01*
X0053125Y0024071D01*
X0053217Y0024165D01*
X0053312Y0024256D01*
X0053409Y0024345D01*
X0053509Y0024430D01*
X0053612Y0024512D01*
X0053717Y0024591D01*
X0053824Y0024667D01*
X0053934Y0024739D01*
X0054046Y0024808D01*
X0054160Y0024874D01*
X0054275Y0024936D01*
X0054393Y0024995D01*
X0054512Y0025050D01*
X0054633Y0025102D01*
X0054756Y0025149D01*
X0054880Y0025193D01*
X0055005Y0025234D01*
X0055131Y0025270D01*
X0055259Y0025303D01*
X0055387Y0025331D01*
X0055516Y0025356D01*
X0055646Y0025377D01*
X0055776Y0025394D01*
X0055907Y0025407D01*
X0056038Y0025416D01*
X0056169Y0025421D01*
X0056301Y0025422D01*
X0056432Y0025419D01*
X0056564Y0025412D01*
X0056695Y0025401D01*
X0056825Y0025386D01*
X0056955Y0025367D01*
X0057085Y0025344D01*
X0057213Y0025318D01*
X0057341Y0025287D01*
X0057468Y0025252D01*
X0057594Y0025214D01*
X0057718Y0025172D01*
X0057842Y0025126D01*
X0057963Y0025076D01*
X0058083Y0025023D01*
X0058202Y0024966D01*
X0058319Y0024906D01*
X0058433Y0024842D01*
X0058546Y0024774D01*
X0058657Y0024703D01*
X0058766Y0024629D01*
X0058872Y0024552D01*
X0058976Y0024471D01*
X0059077Y0024388D01*
X0059176Y0024301D01*
X0059272Y0024211D01*
X0059365Y0024118D01*
X0059456Y0024023D01*
X0059543Y0023925D01*
X0059628Y0023824D01*
X0059709Y0023721D01*
X0059787Y0023615D01*
X0059862Y0023507D01*
X0059934Y0023397D01*
X0060002Y0023285D01*
X0060067Y0023171D01*
X0060128Y0023054D01*
X0060186Y0022936D01*
X0060240Y0022816D01*
X0060291Y0022695D01*
X0060338Y0022572D01*
X0060381Y0022448D01*
X0060420Y0022323D01*
X0060456Y0022196D01*
X0060487Y0022068D01*
X0060515Y0021940D01*
X0060539Y0021811D01*
X0060559Y0021681D01*
X0060575Y0021550D01*
X0060587Y0021419D01*
X0060595Y0021288D01*
X0060599Y0021157D01*
X0060599Y0021025D01*
X0060595Y0020894D01*
X0060587Y0020763D01*
X0060575Y0020632D01*
X0060559Y0020501D01*
X0060539Y0020371D01*
X0060515Y0020242D01*
X0060487Y0020114D01*
X0060456Y0019986D01*
X0060420Y0019859D01*
X0060381Y0019734D01*
X0060338Y0019610D01*
X0060291Y0019487D01*
X0060240Y0019366D01*
X0060186Y0019246D01*
X0060128Y0019128D01*
X0060067Y0019011D01*
X0060002Y0018897D01*
X0059934Y0018785D01*
X0059862Y0018675D01*
X0059787Y0018567D01*
X0059709Y0018461D01*
X0059628Y0018358D01*
X0059543Y0018257D01*
X0059456Y0018159D01*
X0059365Y0018064D01*
X0059272Y0017971D01*
X0059176Y0017881D01*
X0059077Y0017794D01*
X0058976Y0017711D01*
X0058872Y0017630D01*
X0058766Y0017553D01*
X0058657Y0017479D01*
X0058546Y0017408D01*
X0058434Y0017340D01*
X0058319Y0017276D01*
X0058202Y0017216D01*
X0058083Y0017159D01*
X0057963Y0017106D01*
X0057842Y0017056D01*
X0057718Y0017010D01*
X0057594Y0016968D01*
X0057468Y0016930D01*
X0057341Y0016895D01*
X0057213Y0016864D01*
X0057085Y0016838D01*
X0056955Y0016815D01*
X0056825Y0016796D01*
X0056695Y0016781D01*
X0056564Y0016770D01*
X0056432Y0016763D01*
X0056301Y0016760D01*
X0056169Y0016761D01*
X0056038Y0016766D01*
X0055907Y0016775D01*
X0055776Y0016788D01*
X0055646Y0016805D01*
X0055516Y0016826D01*
X0055387Y0016851D01*
X0055259Y0016879D01*
X0055131Y0016912D01*
X0055005Y0016948D01*
X0054880Y0016989D01*
X0054756Y0017033D01*
X0054633Y0017080D01*
X0054512Y0017132D01*
X0054393Y0017187D01*
X0054275Y0017246D01*
X0054160Y0017308D01*
X0054046Y0017374D01*
X0053934Y0017443D01*
X0053824Y0017515D01*
X0053717Y0017591D01*
X0053612Y0017670D01*
X0053509Y0017752D01*
X0053409Y0017837D01*
X0053312Y0017926D01*
X0053217Y0018017D01*
X0053125Y0018111D01*
X0053036Y0018208D01*
X0052950Y0018307D01*
X0052867Y0018409D01*
X0052787Y0018514D01*
X0052711Y0018620D01*
X0052638Y0018729D01*
X0052568Y0018841D01*
X0052501Y0018954D01*
X0052438Y0019069D01*
X0052378Y0019187D01*
X0052322Y0019305D01*
X0052270Y0019426D01*
X0052221Y0019548D01*
X0052176Y0019672D01*
X0052135Y0019796D01*
X0052098Y0019923D01*
X0052064Y0020050D01*
X0052034Y0020178D01*
X0052009Y0020307D01*
X0051987Y0020436D01*
X0051969Y0020566D01*
X0051955Y0020697D01*
X0051945Y0020828D01*
X0051939Y0020960D01*
X0051937Y0021091D01*
X0004693Y0021091D02*
X0004695Y0021222D01*
X0004701Y0021354D01*
X0004711Y0021485D01*
X0004725Y0021616D01*
X0004743Y0021746D01*
X0004765Y0021875D01*
X0004790Y0022004D01*
X0004820Y0022132D01*
X0004854Y0022259D01*
X0004891Y0022386D01*
X0004932Y0022510D01*
X0004977Y0022634D01*
X0005026Y0022756D01*
X0005078Y0022877D01*
X0005134Y0022995D01*
X0005194Y0023113D01*
X0005257Y0023228D01*
X0005324Y0023341D01*
X0005394Y0023453D01*
X0005467Y0023562D01*
X0005543Y0023668D01*
X0005623Y0023773D01*
X0005706Y0023875D01*
X0005792Y0023974D01*
X0005881Y0024071D01*
X0005973Y0024165D01*
X0006068Y0024256D01*
X0006165Y0024345D01*
X0006265Y0024430D01*
X0006368Y0024512D01*
X0006473Y0024591D01*
X0006580Y0024667D01*
X0006690Y0024739D01*
X0006802Y0024808D01*
X0006916Y0024874D01*
X0007031Y0024936D01*
X0007149Y0024995D01*
X0007268Y0025050D01*
X0007389Y0025102D01*
X0007512Y0025149D01*
X0007636Y0025193D01*
X0007761Y0025234D01*
X0007887Y0025270D01*
X0008015Y0025303D01*
X0008143Y0025331D01*
X0008272Y0025356D01*
X0008402Y0025377D01*
X0008532Y0025394D01*
X0008663Y0025407D01*
X0008794Y0025416D01*
X0008925Y0025421D01*
X0009057Y0025422D01*
X0009188Y0025419D01*
X0009320Y0025412D01*
X0009451Y0025401D01*
X0009581Y0025386D01*
X0009711Y0025367D01*
X0009841Y0025344D01*
X0009969Y0025318D01*
X0010097Y0025287D01*
X0010224Y0025252D01*
X0010350Y0025214D01*
X0010474Y0025172D01*
X0010598Y0025126D01*
X0010719Y0025076D01*
X0010839Y0025023D01*
X0010958Y0024966D01*
X0011075Y0024906D01*
X0011189Y0024842D01*
X0011302Y0024774D01*
X0011413Y0024703D01*
X0011522Y0024629D01*
X0011628Y0024552D01*
X0011732Y0024471D01*
X0011833Y0024388D01*
X0011932Y0024301D01*
X0012028Y0024211D01*
X0012121Y0024118D01*
X0012212Y0024023D01*
X0012299Y0023925D01*
X0012384Y0023824D01*
X0012465Y0023721D01*
X0012543Y0023615D01*
X0012618Y0023507D01*
X0012690Y0023397D01*
X0012758Y0023285D01*
X0012823Y0023171D01*
X0012884Y0023054D01*
X0012942Y0022936D01*
X0012996Y0022816D01*
X0013047Y0022695D01*
X0013094Y0022572D01*
X0013137Y0022448D01*
X0013176Y0022323D01*
X0013212Y0022196D01*
X0013243Y0022068D01*
X0013271Y0021940D01*
X0013295Y0021811D01*
X0013315Y0021681D01*
X0013331Y0021550D01*
X0013343Y0021419D01*
X0013351Y0021288D01*
X0013355Y0021157D01*
X0013355Y0021025D01*
X0013351Y0020894D01*
X0013343Y0020763D01*
X0013331Y0020632D01*
X0013315Y0020501D01*
X0013295Y0020371D01*
X0013271Y0020242D01*
X0013243Y0020114D01*
X0013212Y0019986D01*
X0013176Y0019859D01*
X0013137Y0019734D01*
X0013094Y0019610D01*
X0013047Y0019487D01*
X0012996Y0019366D01*
X0012942Y0019246D01*
X0012884Y0019128D01*
X0012823Y0019011D01*
X0012758Y0018897D01*
X0012690Y0018785D01*
X0012618Y0018675D01*
X0012543Y0018567D01*
X0012465Y0018461D01*
X0012384Y0018358D01*
X0012299Y0018257D01*
X0012212Y0018159D01*
X0012121Y0018064D01*
X0012028Y0017971D01*
X0011932Y0017881D01*
X0011833Y0017794D01*
X0011732Y0017711D01*
X0011628Y0017630D01*
X0011522Y0017553D01*
X0011413Y0017479D01*
X0011302Y0017408D01*
X0011190Y0017340D01*
X0011075Y0017276D01*
X0010958Y0017216D01*
X0010839Y0017159D01*
X0010719Y0017106D01*
X0010598Y0017056D01*
X0010474Y0017010D01*
X0010350Y0016968D01*
X0010224Y0016930D01*
X0010097Y0016895D01*
X0009969Y0016864D01*
X0009841Y0016838D01*
X0009711Y0016815D01*
X0009581Y0016796D01*
X0009451Y0016781D01*
X0009320Y0016770D01*
X0009188Y0016763D01*
X0009057Y0016760D01*
X0008925Y0016761D01*
X0008794Y0016766D01*
X0008663Y0016775D01*
X0008532Y0016788D01*
X0008402Y0016805D01*
X0008272Y0016826D01*
X0008143Y0016851D01*
X0008015Y0016879D01*
X0007887Y0016912D01*
X0007761Y0016948D01*
X0007636Y0016989D01*
X0007512Y0017033D01*
X0007389Y0017080D01*
X0007268Y0017132D01*
X0007149Y0017187D01*
X0007031Y0017246D01*
X0006916Y0017308D01*
X0006802Y0017374D01*
X0006690Y0017443D01*
X0006580Y0017515D01*
X0006473Y0017591D01*
X0006368Y0017670D01*
X0006265Y0017752D01*
X0006165Y0017837D01*
X0006068Y0017926D01*
X0005973Y0018017D01*
X0005881Y0018111D01*
X0005792Y0018208D01*
X0005706Y0018307D01*
X0005623Y0018409D01*
X0005543Y0018514D01*
X0005467Y0018620D01*
X0005394Y0018729D01*
X0005324Y0018841D01*
X0005257Y0018954D01*
X0005194Y0019069D01*
X0005134Y0019187D01*
X0005078Y0019305D01*
X0005026Y0019426D01*
X0004977Y0019548D01*
X0004932Y0019672D01*
X0004891Y0019796D01*
X0004854Y0019923D01*
X0004820Y0020050D01*
X0004790Y0020178D01*
X0004765Y0020307D01*
X0004743Y0020436D01*
X0004725Y0020566D01*
X0004711Y0020697D01*
X0004701Y0020828D01*
X0004695Y0020960D01*
X0004693Y0021091D01*
D11*
X0001150Y0021092D02*
X0001159Y0021861D01*
X0001187Y0022630D01*
X0001233Y0023398D01*
X0001298Y0024165D01*
X0001382Y0024930D01*
X0001485Y0025693D01*
X0001606Y0026453D01*
X0001746Y0027210D01*
X0001905Y0027963D01*
X0002082Y0028712D01*
X0002277Y0029456D01*
X0002490Y0030196D01*
X0002722Y0030930D01*
X0002971Y0031658D01*
X0003238Y0032380D01*
X0003522Y0033095D01*
X0003824Y0033802D01*
X0004144Y0034503D01*
X0004480Y0035195D01*
X0004833Y0035879D01*
X0005203Y0036554D01*
X0005589Y0037219D01*
X0005992Y0037875D01*
X0006410Y0038521D01*
X0006844Y0039157D01*
X0007293Y0039781D01*
X0007758Y0040395D01*
X0008238Y0040997D01*
X0008732Y0041587D01*
X0009240Y0042165D01*
X0009762Y0042730D01*
X0010299Y0043282D01*
X0010848Y0043821D01*
X0011410Y0044346D01*
X0011986Y0044857D01*
X0012573Y0045354D01*
X0013173Y0045837D01*
X0013784Y0046305D01*
X0014406Y0046757D01*
X0015040Y0047195D01*
X0015683Y0047616D01*
X0016337Y0048022D01*
X0017001Y0048412D01*
X0017674Y0048785D01*
X0018356Y0049141D01*
X0019047Y0049481D01*
X0019745Y0049804D01*
X0020451Y0050110D01*
X0021165Y0050398D01*
X0021885Y0050668D01*
X0022612Y0050921D01*
X0023345Y0051156D01*
X0024083Y0051374D01*
X0024827Y0051572D01*
X0025575Y0051753D01*
X0026327Y0051915D01*
X0027083Y0052059D01*
X0027843Y0052184D01*
X0028605Y0052291D01*
X0029369Y0052379D01*
X0030136Y0052448D01*
X0030904Y0052498D01*
X0031673Y0052530D01*
X0032442Y0052543D01*
X0033212Y0052537D01*
X0033981Y0052512D01*
X0034749Y0052468D01*
X0035516Y0052405D01*
X0036282Y0052324D01*
X0037045Y0052224D01*
X0037805Y0052105D01*
X0038562Y0051968D01*
X0039316Y0051812D01*
X0040066Y0051638D01*
X0040811Y0051445D01*
X0041551Y0051235D01*
X0042286Y0051006D01*
X0043015Y0050759D01*
X0043737Y0050495D01*
X0044453Y0050213D01*
X0045162Y0049913D01*
X0045864Y0049596D01*
X0046557Y0049262D01*
X0047242Y0048912D01*
X0047918Y0048544D01*
X0048585Y0048160D01*
X0049243Y0047760D01*
X0049890Y0047344D01*
X0050527Y0046912D01*
X0051153Y0046465D01*
X0051769Y0046003D01*
X0052372Y0045525D01*
X0052964Y0045033D01*
X0053544Y0044527D01*
X0054110Y0044006D01*
X0054665Y0043472D01*
X0055205Y0042925D01*
X0055733Y0042364D01*
X0056246Y0041791D01*
X0056745Y0041205D01*
X0057230Y0040607D01*
X0057700Y0039998D01*
X0058154Y0039377D01*
X0058594Y0038745D01*
X0059018Y0038103D01*
X0059426Y0037450D01*
X0059818Y0036788D01*
X0060193Y0036116D01*
X0060552Y0035435D01*
X0060894Y0034746D01*
X0061220Y0034049D01*
X0061528Y0033343D01*
X0061819Y0032631D01*
X0062092Y0031911D01*
X0062347Y0031185D01*
X0062585Y0030453D01*
X0062804Y0029716D01*
X0063006Y0028973D01*
X0063189Y0028226D01*
X0063354Y0027474D01*
X0063501Y0026718D01*
X0063629Y0025959D01*
X0063738Y0025198D01*
X0063828Y0024433D01*
X0063900Y0023667D01*
X0063953Y0022899D01*
X0063988Y0022131D01*
X0064003Y0021361D01*
X0064000Y0020592D01*
X0063977Y0019822D01*
X0063936Y0019054D01*
X0063876Y0018287D01*
X0063798Y0017521D01*
X0063700Y0016758D01*
X0063584Y0015997D01*
X0063450Y0015239D01*
X0063296Y0014485D01*
X0063125Y0013735D01*
X0062935Y0012989D01*
X0062727Y0012248D01*
X0062501Y0011512D01*
X0062257Y0010782D01*
X0061995Y0010059D01*
X0061715Y0009342D01*
X0061418Y0008632D01*
X0061104Y0007929D01*
X0060772Y0007235D01*
X0060424Y0006549D01*
X0060059Y0005871D01*
X0059677Y0005203D01*
X0059279Y0004544D01*
X0058866Y0003895D01*
X0058436Y0003256D01*
X0057991Y0002629D01*
X0057531Y0002012D01*
X0057055Y0001407D01*
X0008236Y0001406D02*
X0007762Y0002002D01*
X0007302Y0002609D01*
X0006856Y0003227D01*
X0006426Y0003856D01*
X0006011Y0004495D01*
X0005612Y0005143D01*
X0005229Y0005802D01*
X0004862Y0006469D01*
X0004511Y0007145D01*
X0004176Y0007829D01*
X0003858Y0008522D01*
X0003557Y0009221D01*
X0003273Y0009928D01*
X0003007Y0010642D01*
X0002757Y0011362D01*
X0002526Y0012087D01*
X0002312Y0012818D01*
X0002115Y0013554D01*
X0001937Y0014295D01*
X0001776Y0015039D01*
X0001634Y0015788D01*
X0001510Y0016539D01*
X0001404Y0017293D01*
X0001316Y0018050D01*
X0001247Y0018809D01*
X0001196Y0019569D01*
X0001164Y0020330D01*
X0001150Y0021091D01*
D12*
X0009024Y0021091D03*
X0056268Y0021091D03*
D13*
X0047056Y0043375D03*
X0039851Y0043335D03*
X0032685Y0043335D03*
X0025363Y0043375D03*
X0018040Y0043335D03*
D14*
X0016200Y0007430D03*
X0009800Y0007430D03*
X0048934Y0007233D03*
X0055334Y0007233D03*
D15*
X0041622Y0006052D03*
X0039063Y0006052D03*
X0036504Y0006052D03*
X0033945Y0006052D03*
X0031386Y0006052D03*
X0028827Y0006052D03*
X0026268Y0006052D03*
X0023709Y0006052D03*
X0023709Y0035934D03*
X0026268Y0035934D03*
X0028827Y0035934D03*
X0031386Y0035934D03*
X0033945Y0035934D03*
X0036504Y0035934D03*
X0039063Y0035934D03*
X0041622Y0035934D03*
M02*
