%
M48
M72
T01C0.02362
T02C0.03150
T03C0.03200
T04C0.03800
T05C0.03937
T06C0.04000
T07C0.06693
T08C0.07874
%
T01
X153375Y96288
X118335Y106131
X114398Y116367
X119910Y126209
X101406Y123060
X84083Y130540
X106918Y147076
X107312Y152587
X119910Y147076
X146682Y147469
X153375Y147469
X221209Y106879
X221209Y87194
X284477Y71091
X292745Y70698
X316761Y79359
X301013Y96288
X291957Y96288
X312430Y99831
X380540Y78965
X382902Y91957
X339595Y47863
X353769Y45501
X372666Y41170
X357312Y193926
X367154Y204556
X372272Y206131
X374635Y211643
X369123Y217154
X363611Y229753
X358099Y248650
X340383Y256131
X322666Y230146
X322666Y218335
X314792Y217942
X320304Y210068
X322272Y204162
X257706Y231328
X201800Y258099
X121485Y225265
X111249Y224872
X111249Y232272
X95894Y221091
X183296Y196288
X191170Y197863
T02
X210678Y197391
X220678Y197391
X230678Y197391
X240678Y197391
X250678Y197391
X260678Y197391
X270678Y197391
X280678Y197391
X290678Y197391
X290678Y187391
X280678Y187391
X270678Y187391
X260678Y187391
X250678Y187391
X240678Y187391
X230678Y187391
X220678Y187391
X210678Y187391
X300678Y47391
X290678Y47391
X280678Y47391
X270678Y47391
X260678Y47391
X250678Y47391
X240678Y47391
X230678Y47391
X220678Y47391
X210678Y47391
X200678Y47391
T03
X200619Y37627
X210855Y37627
X220698Y37627
X230540Y37627
X250619Y37627
X260461Y37627
X270698Y37627
X280540Y37627
X290383Y37627
X300619Y37627
X397076Y62430
X397076Y72666
X171091Y190383
X161249Y190383
X141170Y190383
X191957Y212430
X191957Y222272
X191957Y232115
X191957Y242351
X191957Y252194
X247076Y228178
X80934Y232115
X71091Y232115
T04
X41209Y241603
X51209Y241603
X61209Y241603
X71209Y241603
X81209Y241603
X91209Y241603
X101209Y241603
X111209Y241603
X121209Y241603
X131209Y241603
X141209Y241603
X151209Y241603
X161209Y241603
X171209Y241603
X171209Y181603
X161209Y181603
X151209Y181603
X141209Y181603
X131209Y181603
X121209Y181603
X111209Y181603
X101209Y181603
X91209Y181603
X81209Y181603
X71209Y181603
X61209Y181603
X51209Y181603
X41209Y181603
T05
X329477Y92115
X329477Y102115
X329477Y112115
X329477Y122115
X329477Y132115
X329477Y142115
X329477Y152115
X329477Y162115
X329477Y172115
X329477Y182115
X359477Y182115
X359477Y172115
X359477Y162115
X359477Y152115
X359477Y142115
X359477Y132115
X359477Y122115
X359477Y112115
X359477Y102115
X359477Y92115
T06
X218099Y159438
X218099Y146013
T07
X61446Y54280
X82902Y54280
X82902Y73178
X61446Y73178
X61406Y105619
X83060Y105619
T08
X49044Y230146
X404950Y242351
X405343Y45501
M30
