G75*
%MOIN*%
%OFA0B0*%
%FSLAX25Y25*%
%IPPOS*%
%LPD*%
%AMOC8*
5,1,8,0,0,1.08239X$1,22.5*
%
%ADD10C,0.00000*%
%ADD11C,0.00197*%
%ADD12C,0.00300*%
%ADD13C,0.00600*%
%ADD14C,0.00500*%
%ADD15C,0.00400*%
D10*
X0031328Y0025816D02*
X0031328Y0262036D01*
X0425028Y0262036D01*
X0425028Y0025816D01*
X0031328Y0025816D01*
X0045107Y0230146D02*
X0045109Y0230271D01*
X0045115Y0230396D01*
X0045125Y0230520D01*
X0045139Y0230644D01*
X0045156Y0230768D01*
X0045178Y0230891D01*
X0045204Y0231013D01*
X0045233Y0231135D01*
X0045266Y0231255D01*
X0045304Y0231374D01*
X0045344Y0231493D01*
X0045389Y0231609D01*
X0045437Y0231724D01*
X0045489Y0231838D01*
X0045545Y0231950D01*
X0045604Y0232060D01*
X0045666Y0232168D01*
X0045732Y0232275D01*
X0045801Y0232379D01*
X0045874Y0232480D01*
X0045949Y0232580D01*
X0046028Y0232677D01*
X0046110Y0232771D01*
X0046195Y0232863D01*
X0046282Y0232952D01*
X0046373Y0233038D01*
X0046466Y0233121D01*
X0046562Y0233202D01*
X0046660Y0233279D01*
X0046760Y0233353D01*
X0046863Y0233424D01*
X0046968Y0233491D01*
X0047076Y0233556D01*
X0047185Y0233616D01*
X0047296Y0233674D01*
X0047409Y0233727D01*
X0047523Y0233777D01*
X0047639Y0233824D01*
X0047756Y0233866D01*
X0047875Y0233905D01*
X0047995Y0233941D01*
X0048116Y0233972D01*
X0048238Y0234000D01*
X0048360Y0234023D01*
X0048484Y0234043D01*
X0048608Y0234059D01*
X0048732Y0234071D01*
X0048857Y0234079D01*
X0048982Y0234083D01*
X0049106Y0234083D01*
X0049231Y0234079D01*
X0049356Y0234071D01*
X0049480Y0234059D01*
X0049604Y0234043D01*
X0049728Y0234023D01*
X0049850Y0234000D01*
X0049972Y0233972D01*
X0050093Y0233941D01*
X0050213Y0233905D01*
X0050332Y0233866D01*
X0050449Y0233824D01*
X0050565Y0233777D01*
X0050679Y0233727D01*
X0050792Y0233674D01*
X0050903Y0233616D01*
X0051013Y0233556D01*
X0051120Y0233491D01*
X0051225Y0233424D01*
X0051328Y0233353D01*
X0051428Y0233279D01*
X0051526Y0233202D01*
X0051622Y0233121D01*
X0051715Y0233038D01*
X0051806Y0232952D01*
X0051893Y0232863D01*
X0051978Y0232771D01*
X0052060Y0232677D01*
X0052139Y0232580D01*
X0052214Y0232480D01*
X0052287Y0232379D01*
X0052356Y0232275D01*
X0052422Y0232168D01*
X0052484Y0232060D01*
X0052543Y0231950D01*
X0052599Y0231838D01*
X0052651Y0231724D01*
X0052699Y0231609D01*
X0052744Y0231493D01*
X0052784Y0231374D01*
X0052822Y0231255D01*
X0052855Y0231135D01*
X0052884Y0231013D01*
X0052910Y0230891D01*
X0052932Y0230768D01*
X0052949Y0230644D01*
X0052963Y0230520D01*
X0052973Y0230396D01*
X0052979Y0230271D01*
X0052981Y0230146D01*
X0052979Y0230021D01*
X0052973Y0229896D01*
X0052963Y0229772D01*
X0052949Y0229648D01*
X0052932Y0229524D01*
X0052910Y0229401D01*
X0052884Y0229279D01*
X0052855Y0229157D01*
X0052822Y0229037D01*
X0052784Y0228918D01*
X0052744Y0228799D01*
X0052699Y0228683D01*
X0052651Y0228568D01*
X0052599Y0228454D01*
X0052543Y0228342D01*
X0052484Y0228232D01*
X0052422Y0228124D01*
X0052356Y0228017D01*
X0052287Y0227913D01*
X0052214Y0227812D01*
X0052139Y0227712D01*
X0052060Y0227615D01*
X0051978Y0227521D01*
X0051893Y0227429D01*
X0051806Y0227340D01*
X0051715Y0227254D01*
X0051622Y0227171D01*
X0051526Y0227090D01*
X0051428Y0227013D01*
X0051328Y0226939D01*
X0051225Y0226868D01*
X0051120Y0226801D01*
X0051012Y0226736D01*
X0050903Y0226676D01*
X0050792Y0226618D01*
X0050679Y0226565D01*
X0050565Y0226515D01*
X0050449Y0226468D01*
X0050332Y0226426D01*
X0050213Y0226387D01*
X0050093Y0226351D01*
X0049972Y0226320D01*
X0049850Y0226292D01*
X0049728Y0226269D01*
X0049604Y0226249D01*
X0049480Y0226233D01*
X0049356Y0226221D01*
X0049231Y0226213D01*
X0049106Y0226209D01*
X0048982Y0226209D01*
X0048857Y0226213D01*
X0048732Y0226221D01*
X0048608Y0226233D01*
X0048484Y0226249D01*
X0048360Y0226269D01*
X0048238Y0226292D01*
X0048116Y0226320D01*
X0047995Y0226351D01*
X0047875Y0226387D01*
X0047756Y0226426D01*
X0047639Y0226468D01*
X0047523Y0226515D01*
X0047409Y0226565D01*
X0047296Y0226618D01*
X0047185Y0226676D01*
X0047075Y0226736D01*
X0046968Y0226801D01*
X0046863Y0226868D01*
X0046760Y0226939D01*
X0046660Y0227013D01*
X0046562Y0227090D01*
X0046466Y0227171D01*
X0046373Y0227254D01*
X0046282Y0227340D01*
X0046195Y0227429D01*
X0046110Y0227521D01*
X0046028Y0227615D01*
X0045949Y0227712D01*
X0045874Y0227812D01*
X0045801Y0227913D01*
X0045732Y0228017D01*
X0045666Y0228124D01*
X0045604Y0228232D01*
X0045545Y0228342D01*
X0045489Y0228454D01*
X0045437Y0228568D01*
X0045389Y0228683D01*
X0045344Y0228799D01*
X0045304Y0228918D01*
X0045266Y0229037D01*
X0045233Y0229157D01*
X0045204Y0229279D01*
X0045178Y0229401D01*
X0045156Y0229524D01*
X0045139Y0229648D01*
X0045125Y0229772D01*
X0045115Y0229896D01*
X0045109Y0230021D01*
X0045107Y0230146D01*
X0401013Y0242351D02*
X0401015Y0242476D01*
X0401021Y0242601D01*
X0401031Y0242725D01*
X0401045Y0242849D01*
X0401062Y0242973D01*
X0401084Y0243096D01*
X0401110Y0243218D01*
X0401139Y0243340D01*
X0401172Y0243460D01*
X0401210Y0243579D01*
X0401250Y0243698D01*
X0401295Y0243814D01*
X0401343Y0243929D01*
X0401395Y0244043D01*
X0401451Y0244155D01*
X0401510Y0244265D01*
X0401572Y0244373D01*
X0401638Y0244480D01*
X0401707Y0244584D01*
X0401780Y0244685D01*
X0401855Y0244785D01*
X0401934Y0244882D01*
X0402016Y0244976D01*
X0402101Y0245068D01*
X0402188Y0245157D01*
X0402279Y0245243D01*
X0402372Y0245326D01*
X0402468Y0245407D01*
X0402566Y0245484D01*
X0402666Y0245558D01*
X0402769Y0245629D01*
X0402874Y0245696D01*
X0402982Y0245761D01*
X0403091Y0245821D01*
X0403202Y0245879D01*
X0403315Y0245932D01*
X0403429Y0245982D01*
X0403545Y0246029D01*
X0403662Y0246071D01*
X0403781Y0246110D01*
X0403901Y0246146D01*
X0404022Y0246177D01*
X0404144Y0246205D01*
X0404266Y0246228D01*
X0404390Y0246248D01*
X0404514Y0246264D01*
X0404638Y0246276D01*
X0404763Y0246284D01*
X0404888Y0246288D01*
X0405012Y0246288D01*
X0405137Y0246284D01*
X0405262Y0246276D01*
X0405386Y0246264D01*
X0405510Y0246248D01*
X0405634Y0246228D01*
X0405756Y0246205D01*
X0405878Y0246177D01*
X0405999Y0246146D01*
X0406119Y0246110D01*
X0406238Y0246071D01*
X0406355Y0246029D01*
X0406471Y0245982D01*
X0406585Y0245932D01*
X0406698Y0245879D01*
X0406809Y0245821D01*
X0406919Y0245761D01*
X0407026Y0245696D01*
X0407131Y0245629D01*
X0407234Y0245558D01*
X0407334Y0245484D01*
X0407432Y0245407D01*
X0407528Y0245326D01*
X0407621Y0245243D01*
X0407712Y0245157D01*
X0407799Y0245068D01*
X0407884Y0244976D01*
X0407966Y0244882D01*
X0408045Y0244785D01*
X0408120Y0244685D01*
X0408193Y0244584D01*
X0408262Y0244480D01*
X0408328Y0244373D01*
X0408390Y0244265D01*
X0408449Y0244155D01*
X0408505Y0244043D01*
X0408557Y0243929D01*
X0408605Y0243814D01*
X0408650Y0243698D01*
X0408690Y0243579D01*
X0408728Y0243460D01*
X0408761Y0243340D01*
X0408790Y0243218D01*
X0408816Y0243096D01*
X0408838Y0242973D01*
X0408855Y0242849D01*
X0408869Y0242725D01*
X0408879Y0242601D01*
X0408885Y0242476D01*
X0408887Y0242351D01*
X0408885Y0242226D01*
X0408879Y0242101D01*
X0408869Y0241977D01*
X0408855Y0241853D01*
X0408838Y0241729D01*
X0408816Y0241606D01*
X0408790Y0241484D01*
X0408761Y0241362D01*
X0408728Y0241242D01*
X0408690Y0241123D01*
X0408650Y0241004D01*
X0408605Y0240888D01*
X0408557Y0240773D01*
X0408505Y0240659D01*
X0408449Y0240547D01*
X0408390Y0240437D01*
X0408328Y0240329D01*
X0408262Y0240222D01*
X0408193Y0240118D01*
X0408120Y0240017D01*
X0408045Y0239917D01*
X0407966Y0239820D01*
X0407884Y0239726D01*
X0407799Y0239634D01*
X0407712Y0239545D01*
X0407621Y0239459D01*
X0407528Y0239376D01*
X0407432Y0239295D01*
X0407334Y0239218D01*
X0407234Y0239144D01*
X0407131Y0239073D01*
X0407026Y0239006D01*
X0406918Y0238941D01*
X0406809Y0238881D01*
X0406698Y0238823D01*
X0406585Y0238770D01*
X0406471Y0238720D01*
X0406355Y0238673D01*
X0406238Y0238631D01*
X0406119Y0238592D01*
X0405999Y0238556D01*
X0405878Y0238525D01*
X0405756Y0238497D01*
X0405634Y0238474D01*
X0405510Y0238454D01*
X0405386Y0238438D01*
X0405262Y0238426D01*
X0405137Y0238418D01*
X0405012Y0238414D01*
X0404888Y0238414D01*
X0404763Y0238418D01*
X0404638Y0238426D01*
X0404514Y0238438D01*
X0404390Y0238454D01*
X0404266Y0238474D01*
X0404144Y0238497D01*
X0404022Y0238525D01*
X0403901Y0238556D01*
X0403781Y0238592D01*
X0403662Y0238631D01*
X0403545Y0238673D01*
X0403429Y0238720D01*
X0403315Y0238770D01*
X0403202Y0238823D01*
X0403091Y0238881D01*
X0402981Y0238941D01*
X0402874Y0239006D01*
X0402769Y0239073D01*
X0402666Y0239144D01*
X0402566Y0239218D01*
X0402468Y0239295D01*
X0402372Y0239376D01*
X0402279Y0239459D01*
X0402188Y0239545D01*
X0402101Y0239634D01*
X0402016Y0239726D01*
X0401934Y0239820D01*
X0401855Y0239917D01*
X0401780Y0240017D01*
X0401707Y0240118D01*
X0401638Y0240222D01*
X0401572Y0240329D01*
X0401510Y0240437D01*
X0401451Y0240547D01*
X0401395Y0240659D01*
X0401343Y0240773D01*
X0401295Y0240888D01*
X0401250Y0241004D01*
X0401210Y0241123D01*
X0401172Y0241242D01*
X0401139Y0241362D01*
X0401110Y0241484D01*
X0401084Y0241606D01*
X0401062Y0241729D01*
X0401045Y0241853D01*
X0401031Y0241977D01*
X0401021Y0242101D01*
X0401015Y0242226D01*
X0401013Y0242351D01*
X0401406Y0045501D02*
X0401408Y0045626D01*
X0401414Y0045751D01*
X0401424Y0045875D01*
X0401438Y0045999D01*
X0401455Y0046123D01*
X0401477Y0046246D01*
X0401503Y0046368D01*
X0401532Y0046490D01*
X0401565Y0046610D01*
X0401603Y0046729D01*
X0401643Y0046848D01*
X0401688Y0046964D01*
X0401736Y0047079D01*
X0401788Y0047193D01*
X0401844Y0047305D01*
X0401903Y0047415D01*
X0401965Y0047523D01*
X0402031Y0047630D01*
X0402100Y0047734D01*
X0402173Y0047835D01*
X0402248Y0047935D01*
X0402327Y0048032D01*
X0402409Y0048126D01*
X0402494Y0048218D01*
X0402581Y0048307D01*
X0402672Y0048393D01*
X0402765Y0048476D01*
X0402861Y0048557D01*
X0402959Y0048634D01*
X0403059Y0048708D01*
X0403162Y0048779D01*
X0403267Y0048846D01*
X0403375Y0048911D01*
X0403484Y0048971D01*
X0403595Y0049029D01*
X0403708Y0049082D01*
X0403822Y0049132D01*
X0403938Y0049179D01*
X0404055Y0049221D01*
X0404174Y0049260D01*
X0404294Y0049296D01*
X0404415Y0049327D01*
X0404537Y0049355D01*
X0404659Y0049378D01*
X0404783Y0049398D01*
X0404907Y0049414D01*
X0405031Y0049426D01*
X0405156Y0049434D01*
X0405281Y0049438D01*
X0405405Y0049438D01*
X0405530Y0049434D01*
X0405655Y0049426D01*
X0405779Y0049414D01*
X0405903Y0049398D01*
X0406027Y0049378D01*
X0406149Y0049355D01*
X0406271Y0049327D01*
X0406392Y0049296D01*
X0406512Y0049260D01*
X0406631Y0049221D01*
X0406748Y0049179D01*
X0406864Y0049132D01*
X0406978Y0049082D01*
X0407091Y0049029D01*
X0407202Y0048971D01*
X0407312Y0048911D01*
X0407419Y0048846D01*
X0407524Y0048779D01*
X0407627Y0048708D01*
X0407727Y0048634D01*
X0407825Y0048557D01*
X0407921Y0048476D01*
X0408014Y0048393D01*
X0408105Y0048307D01*
X0408192Y0048218D01*
X0408277Y0048126D01*
X0408359Y0048032D01*
X0408438Y0047935D01*
X0408513Y0047835D01*
X0408586Y0047734D01*
X0408655Y0047630D01*
X0408721Y0047523D01*
X0408783Y0047415D01*
X0408842Y0047305D01*
X0408898Y0047193D01*
X0408950Y0047079D01*
X0408998Y0046964D01*
X0409043Y0046848D01*
X0409083Y0046729D01*
X0409121Y0046610D01*
X0409154Y0046490D01*
X0409183Y0046368D01*
X0409209Y0046246D01*
X0409231Y0046123D01*
X0409248Y0045999D01*
X0409262Y0045875D01*
X0409272Y0045751D01*
X0409278Y0045626D01*
X0409280Y0045501D01*
X0409278Y0045376D01*
X0409272Y0045251D01*
X0409262Y0045127D01*
X0409248Y0045003D01*
X0409231Y0044879D01*
X0409209Y0044756D01*
X0409183Y0044634D01*
X0409154Y0044512D01*
X0409121Y0044392D01*
X0409083Y0044273D01*
X0409043Y0044154D01*
X0408998Y0044038D01*
X0408950Y0043923D01*
X0408898Y0043809D01*
X0408842Y0043697D01*
X0408783Y0043587D01*
X0408721Y0043479D01*
X0408655Y0043372D01*
X0408586Y0043268D01*
X0408513Y0043167D01*
X0408438Y0043067D01*
X0408359Y0042970D01*
X0408277Y0042876D01*
X0408192Y0042784D01*
X0408105Y0042695D01*
X0408014Y0042609D01*
X0407921Y0042526D01*
X0407825Y0042445D01*
X0407727Y0042368D01*
X0407627Y0042294D01*
X0407524Y0042223D01*
X0407419Y0042156D01*
X0407311Y0042091D01*
X0407202Y0042031D01*
X0407091Y0041973D01*
X0406978Y0041920D01*
X0406864Y0041870D01*
X0406748Y0041823D01*
X0406631Y0041781D01*
X0406512Y0041742D01*
X0406392Y0041706D01*
X0406271Y0041675D01*
X0406149Y0041647D01*
X0406027Y0041624D01*
X0405903Y0041604D01*
X0405779Y0041588D01*
X0405655Y0041576D01*
X0405530Y0041568D01*
X0405405Y0041564D01*
X0405281Y0041564D01*
X0405156Y0041568D01*
X0405031Y0041576D01*
X0404907Y0041588D01*
X0404783Y0041604D01*
X0404659Y0041624D01*
X0404537Y0041647D01*
X0404415Y0041675D01*
X0404294Y0041706D01*
X0404174Y0041742D01*
X0404055Y0041781D01*
X0403938Y0041823D01*
X0403822Y0041870D01*
X0403708Y0041920D01*
X0403595Y0041973D01*
X0403484Y0042031D01*
X0403374Y0042091D01*
X0403267Y0042156D01*
X0403162Y0042223D01*
X0403059Y0042294D01*
X0402959Y0042368D01*
X0402861Y0042445D01*
X0402765Y0042526D01*
X0402672Y0042609D01*
X0402581Y0042695D01*
X0402494Y0042784D01*
X0402409Y0042876D01*
X0402327Y0042970D01*
X0402248Y0043067D01*
X0402173Y0043167D01*
X0402100Y0043268D01*
X0402031Y0043372D01*
X0401965Y0043479D01*
X0401903Y0043587D01*
X0401844Y0043697D01*
X0401788Y0043809D01*
X0401736Y0043923D01*
X0401688Y0044038D01*
X0401643Y0044154D01*
X0401603Y0044273D01*
X0401565Y0044392D01*
X0401532Y0044512D01*
X0401503Y0044634D01*
X0401477Y0044756D01*
X0401455Y0044879D01*
X0401438Y0045003D01*
X0401424Y0045127D01*
X0401414Y0045251D01*
X0401408Y0045376D01*
X0401406Y0045501D01*
D11*
X0139556Y0102942D02*
X0139556Y0108847D01*
X0133257Y0108847D01*
X0133257Y0102942D01*
X0139556Y0102942D01*
D12*
X0122887Y0200743D02*
X0122270Y0200743D01*
X0121652Y0201361D01*
X0121652Y0202595D01*
X0121035Y0203212D01*
X0120418Y0203212D01*
X0119801Y0202595D01*
X0119801Y0201361D01*
X0120418Y0200743D01*
X0122887Y0200743D02*
X0123504Y0201361D01*
X0123504Y0202595D01*
X0122887Y0203212D01*
X0123504Y0204427D02*
X0119801Y0204427D01*
X0119801Y0206278D01*
X0120418Y0206895D01*
X0122887Y0206895D01*
X0123504Y0206278D01*
X0123504Y0204427D01*
X0122270Y0208110D02*
X0123504Y0209344D01*
X0122270Y0210579D01*
X0119801Y0210579D01*
X0121652Y0210579D02*
X0121652Y0208110D01*
X0122270Y0208110D02*
X0119801Y0208110D01*
X0112874Y0208110D02*
X0109171Y0208110D01*
X0109171Y0210579D01*
X0109788Y0206895D02*
X0109171Y0206278D01*
X0109171Y0205044D01*
X0109788Y0204427D01*
X0112257Y0204427D01*
X0112874Y0205044D01*
X0112874Y0206278D01*
X0112257Y0206895D01*
X0112257Y0203212D02*
X0112874Y0202595D01*
X0112874Y0201361D01*
X0112257Y0200743D01*
X0111640Y0200743D01*
X0111022Y0201361D01*
X0111022Y0202595D01*
X0110405Y0203212D01*
X0109788Y0203212D01*
X0109171Y0202595D01*
X0109171Y0201361D01*
X0109788Y0200743D01*
D13*
X0188957Y0209430D02*
X0189957Y0209430D01*
X0188957Y0209430D02*
X0188957Y0210430D01*
X0188957Y0214430D02*
X0188957Y0215430D01*
X0189957Y0215430D01*
X0193957Y0215430D02*
X0194957Y0215430D01*
X0194957Y0214430D01*
X0194957Y0210430D02*
X0194957Y0209430D01*
X0193957Y0209430D01*
X0193957Y0219272D02*
X0194957Y0219272D01*
X0194957Y0220272D01*
X0194957Y0224272D02*
X0194957Y0225272D01*
X0193957Y0225272D01*
X0193957Y0229115D02*
X0194957Y0229115D01*
X0194957Y0230115D01*
X0189957Y0229115D02*
X0188957Y0229115D01*
X0188957Y0230115D01*
X0188957Y0225272D02*
X0189957Y0225272D01*
X0188957Y0225272D02*
X0188957Y0224272D01*
X0188957Y0220272D02*
X0188957Y0219272D01*
X0189957Y0219272D01*
X0188957Y0234115D02*
X0188957Y0235115D01*
X0189957Y0235115D01*
X0193957Y0235115D02*
X0194957Y0235115D01*
X0194957Y0234115D01*
X0194957Y0239351D02*
X0194957Y0240351D01*
X0194957Y0239351D02*
X0193957Y0239351D01*
X0189957Y0239351D02*
X0188957Y0239351D01*
X0188957Y0240351D01*
X0188957Y0244351D02*
X0188957Y0245351D01*
X0189957Y0245351D01*
X0193957Y0245351D02*
X0194957Y0245351D01*
X0194957Y0244351D01*
X0194957Y0249194D02*
X0194957Y0250194D01*
X0194957Y0249194D02*
X0193957Y0249194D01*
X0189957Y0249194D02*
X0188957Y0249194D01*
X0188957Y0250194D01*
X0188957Y0254194D02*
X0188957Y0255194D01*
X0189957Y0255194D01*
X0193957Y0255194D02*
X0194957Y0255194D01*
X0194957Y0254194D01*
D14*
X0186440Y0254291D02*
X0186440Y0251289D01*
X0185689Y0250538D01*
X0184188Y0250538D01*
X0183437Y0251289D01*
X0183437Y0252790D01*
X0184938Y0252790D01*
X0183437Y0254291D02*
X0184188Y0255042D01*
X0185689Y0255042D01*
X0186440Y0254291D01*
X0181836Y0255042D02*
X0181836Y0250538D01*
X0178833Y0250538D02*
X0178833Y0255042D01*
X0177232Y0255042D02*
X0174980Y0255042D01*
X0174229Y0254291D01*
X0174229Y0251289D01*
X0174980Y0250538D01*
X0177232Y0250538D01*
X0177232Y0255042D01*
X0181836Y0255042D02*
X0178833Y0250538D01*
X0178440Y0244806D02*
X0178440Y0241803D01*
X0179941Y0240302D01*
X0181442Y0241803D01*
X0181442Y0244806D01*
X0183044Y0244806D02*
X0186046Y0244806D01*
X0186046Y0242554D01*
X0184545Y0243305D01*
X0183794Y0243305D01*
X0183044Y0242554D01*
X0183044Y0241053D01*
X0183794Y0240302D01*
X0185295Y0240302D01*
X0186046Y0241053D01*
X0185689Y0234176D02*
X0186440Y0233425D01*
X0186440Y0230423D01*
X0185689Y0229672D01*
X0184188Y0229672D01*
X0183437Y0230423D01*
X0181836Y0230423D02*
X0181085Y0229672D01*
X0179584Y0229672D01*
X0178833Y0230423D01*
X0178833Y0231173D01*
X0179584Y0231924D01*
X0181085Y0231924D01*
X0181836Y0232675D01*
X0181836Y0233425D01*
X0181085Y0234176D01*
X0179584Y0234176D01*
X0178833Y0233425D01*
X0177232Y0234176D02*
X0174229Y0229672D01*
X0174229Y0234176D01*
X0177232Y0234176D02*
X0177232Y0229672D01*
X0183437Y0233425D02*
X0184188Y0234176D01*
X0185689Y0234176D01*
X0185295Y0224333D02*
X0183794Y0224333D01*
X0183044Y0223583D01*
X0181442Y0224333D02*
X0181442Y0219830D01*
X0178440Y0219830D01*
X0176838Y0219830D02*
X0176838Y0224333D01*
X0176088Y0222081D02*
X0173836Y0219830D01*
X0172234Y0219079D02*
X0169232Y0219079D01*
X0167630Y0219830D02*
X0167630Y0224333D01*
X0165378Y0224333D01*
X0164628Y0223583D01*
X0164628Y0222081D01*
X0165378Y0221331D01*
X0167630Y0221331D01*
X0166129Y0221331D02*
X0164628Y0219830D01*
X0173836Y0224333D02*
X0176838Y0221331D01*
X0183044Y0220580D02*
X0183794Y0219830D01*
X0185295Y0219830D01*
X0186046Y0220580D01*
X0186046Y0223583D01*
X0185295Y0224333D01*
X0186046Y0215278D02*
X0183794Y0215278D01*
X0183044Y0214528D01*
X0183044Y0211525D01*
X0183794Y0210774D01*
X0186046Y0210774D01*
X0186046Y0215278D01*
X0181442Y0214528D02*
X0181442Y0211525D01*
X0180691Y0210774D01*
X0179190Y0210774D01*
X0178440Y0211525D01*
X0178440Y0214528D01*
X0179190Y0215278D01*
X0180691Y0215278D01*
X0181442Y0214528D01*
X0173521Y0199137D02*
X0173521Y0194633D01*
X0175022Y0194633D02*
X0172020Y0194633D01*
X0170419Y0194633D02*
X0167416Y0197635D01*
X0167416Y0198386D01*
X0168167Y0199137D01*
X0169668Y0199137D01*
X0170419Y0198386D01*
X0173521Y0199137D02*
X0175022Y0197635D01*
X0170419Y0194633D02*
X0167416Y0194633D01*
X0164786Y0194633D02*
X0161784Y0194633D01*
X0163285Y0194633D02*
X0163285Y0199137D01*
X0164786Y0197635D01*
X0160182Y0197635D02*
X0158681Y0199137D01*
X0158681Y0194633D01*
X0160182Y0194633D02*
X0157180Y0194633D01*
X0142739Y0195383D02*
X0141988Y0194633D01*
X0140487Y0194633D01*
X0139736Y0195383D01*
X0139736Y0198386D01*
X0140487Y0199137D01*
X0141988Y0199137D01*
X0142739Y0198386D01*
X0142739Y0197635D01*
X0141988Y0196885D01*
X0139736Y0196885D01*
X0084078Y0222192D02*
X0081075Y0225194D01*
X0081075Y0225945D01*
X0081826Y0226696D01*
X0083327Y0226696D01*
X0084078Y0225945D01*
X0084078Y0222192D02*
X0081075Y0222192D01*
X0079474Y0222192D02*
X0076471Y0225194D01*
X0076471Y0225945D01*
X0077222Y0226696D01*
X0078723Y0226696D01*
X0079474Y0225945D01*
X0079474Y0222192D02*
X0076471Y0222192D01*
X0074235Y0222192D02*
X0071232Y0225194D01*
X0071232Y0225945D01*
X0071983Y0226696D01*
X0073484Y0226696D01*
X0074235Y0225945D01*
X0074235Y0222192D02*
X0071232Y0222192D01*
X0069631Y0222942D02*
X0068880Y0222192D01*
X0067379Y0222192D01*
X0066629Y0222942D01*
X0066629Y0223693D01*
X0067379Y0224444D01*
X0068130Y0224444D01*
X0067379Y0224444D02*
X0066629Y0225194D01*
X0066629Y0225945D01*
X0067379Y0226696D01*
X0068880Y0226696D01*
X0069631Y0225945D01*
X0237663Y0223152D02*
X0237663Y0218648D01*
X0240666Y0223152D01*
X0240666Y0218648D01*
X0242234Y0218648D02*
X0243735Y0218648D01*
X0242984Y0218648D02*
X0242984Y0223152D01*
X0242234Y0223152D02*
X0243735Y0223152D01*
X0245336Y0222402D02*
X0245336Y0220900D01*
X0246087Y0220150D01*
X0248339Y0220150D01*
X0248339Y0218648D02*
X0248339Y0223152D01*
X0246087Y0223152D01*
X0245336Y0222402D01*
X0249940Y0217898D02*
X0252943Y0217898D01*
X0254544Y0219399D02*
X0254544Y0222402D01*
X0255295Y0223152D01*
X0257547Y0223152D01*
X0257547Y0218648D01*
X0255295Y0218648D01*
X0254544Y0219399D01*
X0259148Y0218648D02*
X0259148Y0223152D01*
X0262151Y0223152D02*
X0259148Y0218648D01*
X0262151Y0218648D02*
X0262151Y0223152D01*
X0263752Y0222402D02*
X0264503Y0223152D01*
X0266004Y0223152D01*
X0266755Y0222402D01*
X0266755Y0219399D01*
X0266004Y0218648D01*
X0264503Y0218648D01*
X0263752Y0219399D01*
X0263752Y0220900D01*
X0265253Y0220900D01*
D15*
X0348708Y0214281D02*
X0351777Y0214281D01*
X0353312Y0214281D02*
X0353312Y0209677D01*
X0356381Y0214281D01*
X0356381Y0209677D01*
X0357915Y0210444D02*
X0357915Y0214281D01*
X0357168Y0216370D02*
X0357168Y0220974D01*
X0354099Y0216370D01*
X0354099Y0220974D01*
X0352564Y0220974D02*
X0349495Y0220974D01*
X0351030Y0220974D02*
X0351030Y0216370D01*
X0350242Y0214281D02*
X0350242Y0209677D01*
X0350821Y0207981D02*
X0350821Y0203378D01*
X0352356Y0203378D02*
X0349286Y0203378D01*
X0349660Y0201682D02*
X0351195Y0201682D01*
X0351962Y0200915D01*
X0349660Y0201682D02*
X0348893Y0200915D01*
X0348893Y0200148D01*
X0351962Y0197078D01*
X0348893Y0197078D01*
X0353496Y0197078D02*
X0356566Y0197078D01*
X0356566Y0201682D01*
X0358100Y0201682D02*
X0361170Y0201682D01*
X0361170Y0197078D01*
X0358100Y0197078D01*
X0359635Y0199380D02*
X0361170Y0199380D01*
X0362704Y0198613D02*
X0362704Y0197846D01*
X0363472Y0197078D01*
X0365006Y0197078D01*
X0365774Y0197846D01*
X0365006Y0199380D02*
X0363472Y0199380D01*
X0362704Y0198613D01*
X0362704Y0200915D02*
X0363472Y0201682D01*
X0365006Y0201682D01*
X0365774Y0200915D01*
X0365774Y0200148D01*
X0365006Y0199380D01*
X0365400Y0203378D02*
X0366167Y0204145D01*
X0365400Y0203378D02*
X0363865Y0203378D01*
X0363098Y0204145D01*
X0363098Y0204912D01*
X0363865Y0205680D01*
X0365400Y0205680D01*
X0366167Y0206447D01*
X0366167Y0207214D01*
X0365400Y0207981D01*
X0363865Y0207981D01*
X0363098Y0207214D01*
X0361563Y0207981D02*
X0361563Y0203378D01*
X0358494Y0203378D01*
X0356959Y0203378D02*
X0353890Y0203378D01*
X0356959Y0203378D02*
X0356959Y0207981D01*
X0358494Y0207981D02*
X0361563Y0207981D01*
X0360217Y0209677D02*
X0358683Y0209677D01*
X0357915Y0210444D01*
X0360217Y0209677D02*
X0360985Y0210444D01*
X0360985Y0214281D01*
X0362519Y0213513D02*
X0363287Y0214281D01*
X0364821Y0214281D01*
X0365589Y0213513D01*
X0365589Y0210444D01*
X0364821Y0209677D01*
X0363287Y0209677D01*
X0362519Y0210444D01*
X0362519Y0213513D01*
X0361005Y0216370D02*
X0359470Y0216370D01*
X0358703Y0217137D01*
X0358703Y0220974D01*
X0361772Y0220974D02*
X0361772Y0217137D01*
X0361005Y0216370D01*
X0363307Y0217137D02*
X0363307Y0220206D01*
X0364074Y0220974D01*
X0365609Y0220974D01*
X0366376Y0220206D01*
X0366376Y0217137D01*
X0365609Y0216370D01*
X0364074Y0216370D01*
X0363307Y0217137D01*
X0367911Y0217137D02*
X0368678Y0216370D01*
X0370213Y0216370D01*
X0370980Y0217137D01*
X0370980Y0220206D01*
X0370213Y0220974D01*
X0368678Y0220974D01*
X0367911Y0220206D01*
X0367891Y0214281D02*
X0367123Y0213513D01*
X0367891Y0214281D02*
X0369425Y0214281D01*
X0370193Y0213513D01*
X0370193Y0210444D01*
X0369425Y0209677D01*
X0367891Y0209677D01*
X0367123Y0210444D01*
X0371727Y0208909D02*
X0374796Y0208909D01*
X0376331Y0211979D02*
X0379400Y0211979D01*
X0380935Y0214281D02*
X0384004Y0214281D01*
X0384004Y0209677D01*
X0380935Y0209677D01*
X0382470Y0211979D02*
X0384004Y0211979D01*
X0385539Y0210444D02*
X0385539Y0213513D01*
X0386306Y0214281D01*
X0387841Y0214281D01*
X0388608Y0213513D01*
X0388608Y0210444D01*
X0387841Y0209677D01*
X0386306Y0209677D01*
X0385539Y0210444D01*
X0386326Y0216370D02*
X0387861Y0217904D01*
X0387094Y0217904D02*
X0389396Y0217904D01*
X0389396Y0216370D02*
X0389396Y0220974D01*
X0387094Y0220974D01*
X0386326Y0220206D01*
X0386326Y0218672D01*
X0387094Y0217904D01*
X0384792Y0217137D02*
X0384024Y0216370D01*
X0382490Y0216370D01*
X0381722Y0217137D01*
X0381722Y0217904D01*
X0382490Y0218672D01*
X0384024Y0218672D01*
X0384792Y0219439D01*
X0384792Y0220206D01*
X0384024Y0220974D01*
X0382490Y0220974D01*
X0381722Y0220206D01*
X0380188Y0220974D02*
X0377119Y0220974D01*
X0378653Y0220974D02*
X0378653Y0216370D01*
X0375584Y0215602D02*
X0372515Y0215602D01*
X0361563Y0205680D02*
X0360029Y0205680D01*
X0352356Y0206447D02*
X0350821Y0207981D01*
X0106719Y0117844D02*
X0106719Y0114775D01*
X0105951Y0114007D01*
X0104417Y0114007D01*
X0103649Y0114775D01*
X0102115Y0114007D02*
X0102115Y0118611D01*
X0103649Y0117844D02*
X0104417Y0118611D01*
X0105951Y0118611D01*
X0106719Y0117844D01*
X0102115Y0116309D02*
X0099045Y0116309D01*
X0097511Y0116309D02*
X0095209Y0116309D01*
X0094441Y0115542D01*
X0094441Y0114775D01*
X0095209Y0114007D01*
X0097511Y0114007D01*
X0097511Y0118611D01*
X0095209Y0118611D01*
X0094441Y0117844D01*
X0094441Y0117077D01*
X0095209Y0116309D01*
X0099045Y0118611D02*
X0099045Y0114007D01*
X0098652Y0109163D02*
X0098652Y0104559D01*
X0097117Y0104559D02*
X0097117Y0107628D01*
X0095582Y0109163D01*
X0094048Y0107628D01*
X0094048Y0104559D01*
X0094048Y0106861D02*
X0097117Y0106861D01*
X0098652Y0106861D02*
X0101721Y0106861D01*
X0103256Y0108395D02*
X0104023Y0109163D01*
X0105557Y0109163D01*
X0106325Y0108395D01*
X0106325Y0105326D01*
X0105557Y0104559D01*
X0104023Y0104559D01*
X0103256Y0105326D01*
X0101721Y0104559D02*
X0101721Y0109163D01*
M02*
