G75*
%MOIN*%
%OFA0B0*%
%FSLAX25Y25*%
%IPPOS*%
%LPD*%
%AMOC8*
5,1,8,0,0,1.08239X$1,22.5*
%
%ADD10C,0.00000*%
%ADD11C,0.08274*%
%ADD12R,0.20800X0.05600*%
%ADD13R,0.04000X0.06100*%
%ADD14R,0.08983X0.06384*%
%ADD15C,0.05400*%
%ADD16C,0.13100*%
%ADD17R,0.16148X0.12605*%
%ADD18OC8,0.08000*%
%ADD19R,0.05550X0.05550*%
%ADD20R,0.05518X0.12211*%
%ADD21R,0.03400X0.04100*%
%ADD22R,0.08200X0.02600*%
%ADD23R,0.10400X0.14180*%
%ADD24R,0.12211X0.07290*%
%ADD25C,0.06337*%
%ADD26OC8,0.13100*%
%ADD27R,0.20872X0.20085*%
%ADD28R,0.04337X0.04337*%
%ADD29R,0.12211X0.01384*%
%ADD30OC8,0.06700*%
%ADD31R,0.05900X0.04400*%
%ADD32C,0.06200*%
D10*
X0031328Y0025816D02*
X0031328Y0262036D01*
X0425028Y0262036D01*
X0425028Y0025816D01*
X0031328Y0025816D01*
X0045107Y0230146D02*
X0045109Y0230271D01*
X0045115Y0230396D01*
X0045125Y0230520D01*
X0045139Y0230644D01*
X0045156Y0230768D01*
X0045178Y0230891D01*
X0045204Y0231013D01*
X0045233Y0231135D01*
X0045266Y0231255D01*
X0045304Y0231374D01*
X0045344Y0231493D01*
X0045389Y0231609D01*
X0045437Y0231724D01*
X0045489Y0231838D01*
X0045545Y0231950D01*
X0045604Y0232060D01*
X0045666Y0232168D01*
X0045732Y0232275D01*
X0045801Y0232379D01*
X0045874Y0232480D01*
X0045949Y0232580D01*
X0046028Y0232677D01*
X0046110Y0232771D01*
X0046195Y0232863D01*
X0046282Y0232952D01*
X0046373Y0233038D01*
X0046466Y0233121D01*
X0046562Y0233202D01*
X0046660Y0233279D01*
X0046760Y0233353D01*
X0046863Y0233424D01*
X0046968Y0233491D01*
X0047076Y0233556D01*
X0047185Y0233616D01*
X0047296Y0233674D01*
X0047409Y0233727D01*
X0047523Y0233777D01*
X0047639Y0233824D01*
X0047756Y0233866D01*
X0047875Y0233905D01*
X0047995Y0233941D01*
X0048116Y0233972D01*
X0048238Y0234000D01*
X0048360Y0234023D01*
X0048484Y0234043D01*
X0048608Y0234059D01*
X0048732Y0234071D01*
X0048857Y0234079D01*
X0048982Y0234083D01*
X0049106Y0234083D01*
X0049231Y0234079D01*
X0049356Y0234071D01*
X0049480Y0234059D01*
X0049604Y0234043D01*
X0049728Y0234023D01*
X0049850Y0234000D01*
X0049972Y0233972D01*
X0050093Y0233941D01*
X0050213Y0233905D01*
X0050332Y0233866D01*
X0050449Y0233824D01*
X0050565Y0233777D01*
X0050679Y0233727D01*
X0050792Y0233674D01*
X0050903Y0233616D01*
X0051013Y0233556D01*
X0051120Y0233491D01*
X0051225Y0233424D01*
X0051328Y0233353D01*
X0051428Y0233279D01*
X0051526Y0233202D01*
X0051622Y0233121D01*
X0051715Y0233038D01*
X0051806Y0232952D01*
X0051893Y0232863D01*
X0051978Y0232771D01*
X0052060Y0232677D01*
X0052139Y0232580D01*
X0052214Y0232480D01*
X0052287Y0232379D01*
X0052356Y0232275D01*
X0052422Y0232168D01*
X0052484Y0232060D01*
X0052543Y0231950D01*
X0052599Y0231838D01*
X0052651Y0231724D01*
X0052699Y0231609D01*
X0052744Y0231493D01*
X0052784Y0231374D01*
X0052822Y0231255D01*
X0052855Y0231135D01*
X0052884Y0231013D01*
X0052910Y0230891D01*
X0052932Y0230768D01*
X0052949Y0230644D01*
X0052963Y0230520D01*
X0052973Y0230396D01*
X0052979Y0230271D01*
X0052981Y0230146D01*
X0052979Y0230021D01*
X0052973Y0229896D01*
X0052963Y0229772D01*
X0052949Y0229648D01*
X0052932Y0229524D01*
X0052910Y0229401D01*
X0052884Y0229279D01*
X0052855Y0229157D01*
X0052822Y0229037D01*
X0052784Y0228918D01*
X0052744Y0228799D01*
X0052699Y0228683D01*
X0052651Y0228568D01*
X0052599Y0228454D01*
X0052543Y0228342D01*
X0052484Y0228232D01*
X0052422Y0228124D01*
X0052356Y0228017D01*
X0052287Y0227913D01*
X0052214Y0227812D01*
X0052139Y0227712D01*
X0052060Y0227615D01*
X0051978Y0227521D01*
X0051893Y0227429D01*
X0051806Y0227340D01*
X0051715Y0227254D01*
X0051622Y0227171D01*
X0051526Y0227090D01*
X0051428Y0227013D01*
X0051328Y0226939D01*
X0051225Y0226868D01*
X0051120Y0226801D01*
X0051012Y0226736D01*
X0050903Y0226676D01*
X0050792Y0226618D01*
X0050679Y0226565D01*
X0050565Y0226515D01*
X0050449Y0226468D01*
X0050332Y0226426D01*
X0050213Y0226387D01*
X0050093Y0226351D01*
X0049972Y0226320D01*
X0049850Y0226292D01*
X0049728Y0226269D01*
X0049604Y0226249D01*
X0049480Y0226233D01*
X0049356Y0226221D01*
X0049231Y0226213D01*
X0049106Y0226209D01*
X0048982Y0226209D01*
X0048857Y0226213D01*
X0048732Y0226221D01*
X0048608Y0226233D01*
X0048484Y0226249D01*
X0048360Y0226269D01*
X0048238Y0226292D01*
X0048116Y0226320D01*
X0047995Y0226351D01*
X0047875Y0226387D01*
X0047756Y0226426D01*
X0047639Y0226468D01*
X0047523Y0226515D01*
X0047409Y0226565D01*
X0047296Y0226618D01*
X0047185Y0226676D01*
X0047075Y0226736D01*
X0046968Y0226801D01*
X0046863Y0226868D01*
X0046760Y0226939D01*
X0046660Y0227013D01*
X0046562Y0227090D01*
X0046466Y0227171D01*
X0046373Y0227254D01*
X0046282Y0227340D01*
X0046195Y0227429D01*
X0046110Y0227521D01*
X0046028Y0227615D01*
X0045949Y0227712D01*
X0045874Y0227812D01*
X0045801Y0227913D01*
X0045732Y0228017D01*
X0045666Y0228124D01*
X0045604Y0228232D01*
X0045545Y0228342D01*
X0045489Y0228454D01*
X0045437Y0228568D01*
X0045389Y0228683D01*
X0045344Y0228799D01*
X0045304Y0228918D01*
X0045266Y0229037D01*
X0045233Y0229157D01*
X0045204Y0229279D01*
X0045178Y0229401D01*
X0045156Y0229524D01*
X0045139Y0229648D01*
X0045125Y0229772D01*
X0045115Y0229896D01*
X0045109Y0230021D01*
X0045107Y0230146D01*
X0401013Y0242351D02*
X0401015Y0242476D01*
X0401021Y0242601D01*
X0401031Y0242725D01*
X0401045Y0242849D01*
X0401062Y0242973D01*
X0401084Y0243096D01*
X0401110Y0243218D01*
X0401139Y0243340D01*
X0401172Y0243460D01*
X0401210Y0243579D01*
X0401250Y0243698D01*
X0401295Y0243814D01*
X0401343Y0243929D01*
X0401395Y0244043D01*
X0401451Y0244155D01*
X0401510Y0244265D01*
X0401572Y0244373D01*
X0401638Y0244480D01*
X0401707Y0244584D01*
X0401780Y0244685D01*
X0401855Y0244785D01*
X0401934Y0244882D01*
X0402016Y0244976D01*
X0402101Y0245068D01*
X0402188Y0245157D01*
X0402279Y0245243D01*
X0402372Y0245326D01*
X0402468Y0245407D01*
X0402566Y0245484D01*
X0402666Y0245558D01*
X0402769Y0245629D01*
X0402874Y0245696D01*
X0402982Y0245761D01*
X0403091Y0245821D01*
X0403202Y0245879D01*
X0403315Y0245932D01*
X0403429Y0245982D01*
X0403545Y0246029D01*
X0403662Y0246071D01*
X0403781Y0246110D01*
X0403901Y0246146D01*
X0404022Y0246177D01*
X0404144Y0246205D01*
X0404266Y0246228D01*
X0404390Y0246248D01*
X0404514Y0246264D01*
X0404638Y0246276D01*
X0404763Y0246284D01*
X0404888Y0246288D01*
X0405012Y0246288D01*
X0405137Y0246284D01*
X0405262Y0246276D01*
X0405386Y0246264D01*
X0405510Y0246248D01*
X0405634Y0246228D01*
X0405756Y0246205D01*
X0405878Y0246177D01*
X0405999Y0246146D01*
X0406119Y0246110D01*
X0406238Y0246071D01*
X0406355Y0246029D01*
X0406471Y0245982D01*
X0406585Y0245932D01*
X0406698Y0245879D01*
X0406809Y0245821D01*
X0406919Y0245761D01*
X0407026Y0245696D01*
X0407131Y0245629D01*
X0407234Y0245558D01*
X0407334Y0245484D01*
X0407432Y0245407D01*
X0407528Y0245326D01*
X0407621Y0245243D01*
X0407712Y0245157D01*
X0407799Y0245068D01*
X0407884Y0244976D01*
X0407966Y0244882D01*
X0408045Y0244785D01*
X0408120Y0244685D01*
X0408193Y0244584D01*
X0408262Y0244480D01*
X0408328Y0244373D01*
X0408390Y0244265D01*
X0408449Y0244155D01*
X0408505Y0244043D01*
X0408557Y0243929D01*
X0408605Y0243814D01*
X0408650Y0243698D01*
X0408690Y0243579D01*
X0408728Y0243460D01*
X0408761Y0243340D01*
X0408790Y0243218D01*
X0408816Y0243096D01*
X0408838Y0242973D01*
X0408855Y0242849D01*
X0408869Y0242725D01*
X0408879Y0242601D01*
X0408885Y0242476D01*
X0408887Y0242351D01*
X0408885Y0242226D01*
X0408879Y0242101D01*
X0408869Y0241977D01*
X0408855Y0241853D01*
X0408838Y0241729D01*
X0408816Y0241606D01*
X0408790Y0241484D01*
X0408761Y0241362D01*
X0408728Y0241242D01*
X0408690Y0241123D01*
X0408650Y0241004D01*
X0408605Y0240888D01*
X0408557Y0240773D01*
X0408505Y0240659D01*
X0408449Y0240547D01*
X0408390Y0240437D01*
X0408328Y0240329D01*
X0408262Y0240222D01*
X0408193Y0240118D01*
X0408120Y0240017D01*
X0408045Y0239917D01*
X0407966Y0239820D01*
X0407884Y0239726D01*
X0407799Y0239634D01*
X0407712Y0239545D01*
X0407621Y0239459D01*
X0407528Y0239376D01*
X0407432Y0239295D01*
X0407334Y0239218D01*
X0407234Y0239144D01*
X0407131Y0239073D01*
X0407026Y0239006D01*
X0406918Y0238941D01*
X0406809Y0238881D01*
X0406698Y0238823D01*
X0406585Y0238770D01*
X0406471Y0238720D01*
X0406355Y0238673D01*
X0406238Y0238631D01*
X0406119Y0238592D01*
X0405999Y0238556D01*
X0405878Y0238525D01*
X0405756Y0238497D01*
X0405634Y0238474D01*
X0405510Y0238454D01*
X0405386Y0238438D01*
X0405262Y0238426D01*
X0405137Y0238418D01*
X0405012Y0238414D01*
X0404888Y0238414D01*
X0404763Y0238418D01*
X0404638Y0238426D01*
X0404514Y0238438D01*
X0404390Y0238454D01*
X0404266Y0238474D01*
X0404144Y0238497D01*
X0404022Y0238525D01*
X0403901Y0238556D01*
X0403781Y0238592D01*
X0403662Y0238631D01*
X0403545Y0238673D01*
X0403429Y0238720D01*
X0403315Y0238770D01*
X0403202Y0238823D01*
X0403091Y0238881D01*
X0402981Y0238941D01*
X0402874Y0239006D01*
X0402769Y0239073D01*
X0402666Y0239144D01*
X0402566Y0239218D01*
X0402468Y0239295D01*
X0402372Y0239376D01*
X0402279Y0239459D01*
X0402188Y0239545D01*
X0402101Y0239634D01*
X0402016Y0239726D01*
X0401934Y0239820D01*
X0401855Y0239917D01*
X0401780Y0240017D01*
X0401707Y0240118D01*
X0401638Y0240222D01*
X0401572Y0240329D01*
X0401510Y0240437D01*
X0401451Y0240547D01*
X0401395Y0240659D01*
X0401343Y0240773D01*
X0401295Y0240888D01*
X0401250Y0241004D01*
X0401210Y0241123D01*
X0401172Y0241242D01*
X0401139Y0241362D01*
X0401110Y0241484D01*
X0401084Y0241606D01*
X0401062Y0241729D01*
X0401045Y0241853D01*
X0401031Y0241977D01*
X0401021Y0242101D01*
X0401015Y0242226D01*
X0401013Y0242351D01*
X0401406Y0045501D02*
X0401408Y0045626D01*
X0401414Y0045751D01*
X0401424Y0045875D01*
X0401438Y0045999D01*
X0401455Y0046123D01*
X0401477Y0046246D01*
X0401503Y0046368D01*
X0401532Y0046490D01*
X0401565Y0046610D01*
X0401603Y0046729D01*
X0401643Y0046848D01*
X0401688Y0046964D01*
X0401736Y0047079D01*
X0401788Y0047193D01*
X0401844Y0047305D01*
X0401903Y0047415D01*
X0401965Y0047523D01*
X0402031Y0047630D01*
X0402100Y0047734D01*
X0402173Y0047835D01*
X0402248Y0047935D01*
X0402327Y0048032D01*
X0402409Y0048126D01*
X0402494Y0048218D01*
X0402581Y0048307D01*
X0402672Y0048393D01*
X0402765Y0048476D01*
X0402861Y0048557D01*
X0402959Y0048634D01*
X0403059Y0048708D01*
X0403162Y0048779D01*
X0403267Y0048846D01*
X0403375Y0048911D01*
X0403484Y0048971D01*
X0403595Y0049029D01*
X0403708Y0049082D01*
X0403822Y0049132D01*
X0403938Y0049179D01*
X0404055Y0049221D01*
X0404174Y0049260D01*
X0404294Y0049296D01*
X0404415Y0049327D01*
X0404537Y0049355D01*
X0404659Y0049378D01*
X0404783Y0049398D01*
X0404907Y0049414D01*
X0405031Y0049426D01*
X0405156Y0049434D01*
X0405281Y0049438D01*
X0405405Y0049438D01*
X0405530Y0049434D01*
X0405655Y0049426D01*
X0405779Y0049414D01*
X0405903Y0049398D01*
X0406027Y0049378D01*
X0406149Y0049355D01*
X0406271Y0049327D01*
X0406392Y0049296D01*
X0406512Y0049260D01*
X0406631Y0049221D01*
X0406748Y0049179D01*
X0406864Y0049132D01*
X0406978Y0049082D01*
X0407091Y0049029D01*
X0407202Y0048971D01*
X0407312Y0048911D01*
X0407419Y0048846D01*
X0407524Y0048779D01*
X0407627Y0048708D01*
X0407727Y0048634D01*
X0407825Y0048557D01*
X0407921Y0048476D01*
X0408014Y0048393D01*
X0408105Y0048307D01*
X0408192Y0048218D01*
X0408277Y0048126D01*
X0408359Y0048032D01*
X0408438Y0047935D01*
X0408513Y0047835D01*
X0408586Y0047734D01*
X0408655Y0047630D01*
X0408721Y0047523D01*
X0408783Y0047415D01*
X0408842Y0047305D01*
X0408898Y0047193D01*
X0408950Y0047079D01*
X0408998Y0046964D01*
X0409043Y0046848D01*
X0409083Y0046729D01*
X0409121Y0046610D01*
X0409154Y0046490D01*
X0409183Y0046368D01*
X0409209Y0046246D01*
X0409231Y0046123D01*
X0409248Y0045999D01*
X0409262Y0045875D01*
X0409272Y0045751D01*
X0409278Y0045626D01*
X0409280Y0045501D01*
X0409278Y0045376D01*
X0409272Y0045251D01*
X0409262Y0045127D01*
X0409248Y0045003D01*
X0409231Y0044879D01*
X0409209Y0044756D01*
X0409183Y0044634D01*
X0409154Y0044512D01*
X0409121Y0044392D01*
X0409083Y0044273D01*
X0409043Y0044154D01*
X0408998Y0044038D01*
X0408950Y0043923D01*
X0408898Y0043809D01*
X0408842Y0043697D01*
X0408783Y0043587D01*
X0408721Y0043479D01*
X0408655Y0043372D01*
X0408586Y0043268D01*
X0408513Y0043167D01*
X0408438Y0043067D01*
X0408359Y0042970D01*
X0408277Y0042876D01*
X0408192Y0042784D01*
X0408105Y0042695D01*
X0408014Y0042609D01*
X0407921Y0042526D01*
X0407825Y0042445D01*
X0407727Y0042368D01*
X0407627Y0042294D01*
X0407524Y0042223D01*
X0407419Y0042156D01*
X0407311Y0042091D01*
X0407202Y0042031D01*
X0407091Y0041973D01*
X0406978Y0041920D01*
X0406864Y0041870D01*
X0406748Y0041823D01*
X0406631Y0041781D01*
X0406512Y0041742D01*
X0406392Y0041706D01*
X0406271Y0041675D01*
X0406149Y0041647D01*
X0406027Y0041624D01*
X0405903Y0041604D01*
X0405779Y0041588D01*
X0405655Y0041576D01*
X0405530Y0041568D01*
X0405405Y0041564D01*
X0405281Y0041564D01*
X0405156Y0041568D01*
X0405031Y0041576D01*
X0404907Y0041588D01*
X0404783Y0041604D01*
X0404659Y0041624D01*
X0404537Y0041647D01*
X0404415Y0041675D01*
X0404294Y0041706D01*
X0404174Y0041742D01*
X0404055Y0041781D01*
X0403938Y0041823D01*
X0403822Y0041870D01*
X0403708Y0041920D01*
X0403595Y0041973D01*
X0403484Y0042031D01*
X0403374Y0042091D01*
X0403267Y0042156D01*
X0403162Y0042223D01*
X0403059Y0042294D01*
X0402959Y0042368D01*
X0402861Y0042445D01*
X0402765Y0042526D01*
X0402672Y0042609D01*
X0402581Y0042695D01*
X0402494Y0042784D01*
X0402409Y0042876D01*
X0402327Y0042970D01*
X0402248Y0043067D01*
X0402173Y0043167D01*
X0402100Y0043268D01*
X0402031Y0043372D01*
X0401965Y0043479D01*
X0401903Y0043587D01*
X0401844Y0043697D01*
X0401788Y0043809D01*
X0401736Y0043923D01*
X0401688Y0044038D01*
X0401643Y0044154D01*
X0401603Y0044273D01*
X0401565Y0044392D01*
X0401532Y0044512D01*
X0401503Y0044634D01*
X0401477Y0044756D01*
X0401455Y0044879D01*
X0401438Y0045003D01*
X0401424Y0045127D01*
X0401414Y0045251D01*
X0401408Y0045376D01*
X0401406Y0045501D01*
D11*
X0405343Y0045501D03*
X0404950Y0242351D03*
X0049044Y0230146D03*
D12*
X0117455Y0126249D03*
X0117455Y0116249D03*
X0117455Y0106249D03*
X0117455Y0096249D03*
X0117455Y0086249D03*
X0154255Y0086249D03*
X0154255Y0096249D03*
X0154255Y0106249D03*
X0154255Y0116249D03*
X0154255Y0126249D03*
D13*
X0101299Y0121879D03*
X0094899Y0121879D03*
X0094624Y0113020D03*
X0101024Y0113020D03*
X0313639Y0068414D03*
X0320039Y0068414D03*
X0374387Y0092036D03*
X0380787Y0092036D03*
X0380669Y0101800D03*
X0374269Y0101800D03*
X0362480Y0230146D03*
X0356080Y0230146D03*
X0330984Y0230146D03*
X0324584Y0230146D03*
D14*
X0254831Y0144276D03*
X0254831Y0129792D03*
D15*
X0223709Y0106879D02*
X0218709Y0106879D01*
X0218709Y0087194D02*
X0223709Y0087194D01*
D16*
X0082902Y0073178D03*
X0061446Y0073178D03*
X0082902Y0054280D03*
X0083060Y0105619D03*
X0061406Y0105619D03*
D17*
X0254517Y0157194D03*
X0254517Y0174517D03*
D18*
X0218099Y0159438D03*
X0218099Y0146013D03*
D19*
X0220678Y0187391D03*
X0230678Y0187391D03*
X0230678Y0197391D03*
X0220678Y0197391D03*
X0210678Y0197391D03*
X0210678Y0187391D03*
X0240678Y0187391D03*
X0250678Y0187391D03*
X0260678Y0187391D03*
X0270678Y0187391D03*
X0280678Y0187391D03*
X0290678Y0187391D03*
X0290678Y0197391D03*
X0280678Y0197391D03*
X0270678Y0197391D03*
X0260678Y0197391D03*
X0250678Y0197391D03*
X0240678Y0197391D03*
X0240678Y0047391D03*
X0250678Y0047391D03*
X0260678Y0047391D03*
X0270678Y0047391D03*
X0280678Y0047391D03*
X0290678Y0047391D03*
X0300678Y0047391D03*
X0230678Y0047391D03*
X0220678Y0047391D03*
X0210678Y0047391D03*
X0200678Y0047391D03*
D20*
X0341879Y0041288D03*
X0361879Y0041288D03*
X0361879Y0075973D03*
X0341879Y0075934D03*
D21*
X0373933Y0084162D03*
X0380533Y0084162D03*
D22*
X0304098Y0086347D03*
X0304098Y0091347D03*
X0304098Y0081347D03*
X0304098Y0076347D03*
X0284698Y0076347D03*
X0284698Y0081347D03*
X0284698Y0086347D03*
X0284698Y0091347D03*
D23*
X0040973Y0116367D03*
X0040973Y0167548D03*
D24*
X0068335Y0153769D03*
X0084083Y0153769D03*
X0084083Y0141957D03*
X0068335Y0141957D03*
X0068335Y0130146D03*
X0084083Y0130146D03*
D25*
X0326509Y0132115D02*
X0332446Y0132115D01*
X0332446Y0142115D02*
X0326509Y0142115D01*
X0326509Y0152115D02*
X0332446Y0152115D01*
X0332446Y0162115D02*
X0326509Y0162115D01*
X0326509Y0172115D02*
X0332446Y0172115D01*
X0332446Y0182115D02*
X0326509Y0182115D01*
X0356509Y0182115D02*
X0362446Y0182115D01*
X0362446Y0172115D02*
X0356509Y0172115D01*
X0356509Y0162115D02*
X0362446Y0162115D01*
X0362446Y0152115D02*
X0356509Y0152115D01*
X0356509Y0142115D02*
X0362446Y0142115D01*
X0362446Y0132115D02*
X0356509Y0132115D01*
X0356509Y0122115D02*
X0362446Y0122115D01*
X0362446Y0112115D02*
X0356509Y0112115D01*
X0356509Y0102115D02*
X0362446Y0102115D01*
X0362446Y0092115D02*
X0356509Y0092115D01*
X0332446Y0092115D02*
X0326509Y0092115D01*
X0326509Y0102115D02*
X0332446Y0102115D01*
X0332446Y0112115D02*
X0326509Y0112115D01*
X0326509Y0122115D02*
X0332446Y0122115D01*
D26*
X0061446Y0054280D03*
D27*
X0212036Y0128965D03*
X0236446Y0128965D03*
D28*
X0257312Y0228178D03*
X0275422Y0228572D03*
X0283296Y0228572D03*
D29*
X0332509Y0220402D03*
X0332509Y0217843D03*
X0332509Y0215284D03*
X0332509Y0212725D03*
X0332509Y0210166D03*
X0332509Y0207607D03*
X0332509Y0205048D03*
X0332509Y0202489D03*
X0332509Y0199930D03*
X0332509Y0197371D03*
X0356131Y0197371D03*
X0356131Y0199930D03*
X0356131Y0202489D03*
X0356131Y0205048D03*
X0356131Y0207607D03*
X0356131Y0210166D03*
X0356131Y0212725D03*
X0356131Y0215284D03*
X0356131Y0217843D03*
X0356131Y0220402D03*
D30*
X0247076Y0228178D03*
X0191957Y0232115D03*
X0191957Y0222272D03*
X0191957Y0212430D03*
X0171091Y0190383D03*
X0161249Y0190383D03*
X0141170Y0190383D03*
X0080934Y0232115D03*
X0071091Y0232115D03*
X0191957Y0242351D03*
X0191957Y0252194D03*
X0397076Y0072666D03*
X0397076Y0062430D03*
X0300619Y0037627D03*
X0290383Y0037627D03*
X0280540Y0037627D03*
X0270698Y0037627D03*
X0260461Y0037627D03*
X0250619Y0037627D03*
X0230540Y0037627D03*
X0220698Y0037627D03*
X0210855Y0037627D03*
X0200619Y0037627D03*
D31*
X0111249Y0224872D03*
X0121485Y0225265D03*
X0121485Y0232665D03*
X0111249Y0232272D03*
D32*
X0111209Y0241603D03*
X0101209Y0241603D03*
X0091209Y0241603D03*
X0081209Y0241603D03*
X0071209Y0241603D03*
X0061209Y0241603D03*
X0051209Y0241603D03*
X0041209Y0241603D03*
X0121209Y0241603D03*
X0131209Y0241603D03*
X0141209Y0241603D03*
X0151209Y0241603D03*
X0161209Y0241603D03*
X0171209Y0241603D03*
X0171209Y0181603D03*
X0161209Y0181603D03*
X0151209Y0181603D03*
X0141209Y0181603D03*
X0131209Y0181603D03*
X0121209Y0181603D03*
X0111209Y0181603D03*
X0101209Y0181603D03*
X0091209Y0181603D03*
X0081209Y0181603D03*
X0071209Y0181603D03*
X0061209Y0181603D03*
X0051209Y0181603D03*
X0041209Y0181603D03*
M02*
