G75*
%MOIN*%
%OFA0B0*%
%FSLAX25Y25*%
%IPPOS*%
%LPD*%
%AMOC8*
5,1,8,0,0,1.08239X$1,22.5*
%
%ADD10C,0.00000*%
%ADD11R,0.03898X0.01181*%
%ADD12C,0.05000*%
%ADD13C,0.12700*%
%ADD14OC8,0.07600*%
%ADD15R,0.05150X0.05150*%
%ADD16C,0.05937*%
%ADD17OC8,0.12700*%
%ADD18R,0.03937X0.03937*%
%ADD19OC8,0.06300*%
%ADD20C,0.05800*%
%ADD21C,0.01600*%
%ADD22R,0.03562X0.03562*%
%ADD23C,0.01000*%
%ADD24C,0.01200*%
%ADD25C,0.04000*%
%ADD26C,0.10000*%
D10*
X0031328Y0025816D02*
X0031328Y0262036D01*
X0425028Y0262036D01*
X0425028Y0025816D01*
X0031328Y0025816D01*
X0045107Y0230146D02*
X0045109Y0230271D01*
X0045115Y0230396D01*
X0045125Y0230520D01*
X0045139Y0230644D01*
X0045156Y0230768D01*
X0045178Y0230891D01*
X0045204Y0231013D01*
X0045233Y0231135D01*
X0045266Y0231255D01*
X0045304Y0231374D01*
X0045344Y0231493D01*
X0045389Y0231609D01*
X0045437Y0231724D01*
X0045489Y0231838D01*
X0045545Y0231950D01*
X0045604Y0232060D01*
X0045666Y0232168D01*
X0045732Y0232275D01*
X0045801Y0232379D01*
X0045874Y0232480D01*
X0045949Y0232580D01*
X0046028Y0232677D01*
X0046110Y0232771D01*
X0046195Y0232863D01*
X0046282Y0232952D01*
X0046373Y0233038D01*
X0046466Y0233121D01*
X0046562Y0233202D01*
X0046660Y0233279D01*
X0046760Y0233353D01*
X0046863Y0233424D01*
X0046968Y0233491D01*
X0047076Y0233556D01*
X0047185Y0233616D01*
X0047296Y0233674D01*
X0047409Y0233727D01*
X0047523Y0233777D01*
X0047639Y0233824D01*
X0047756Y0233866D01*
X0047875Y0233905D01*
X0047995Y0233941D01*
X0048116Y0233972D01*
X0048238Y0234000D01*
X0048360Y0234023D01*
X0048484Y0234043D01*
X0048608Y0234059D01*
X0048732Y0234071D01*
X0048857Y0234079D01*
X0048982Y0234083D01*
X0049106Y0234083D01*
X0049231Y0234079D01*
X0049356Y0234071D01*
X0049480Y0234059D01*
X0049604Y0234043D01*
X0049728Y0234023D01*
X0049850Y0234000D01*
X0049972Y0233972D01*
X0050093Y0233941D01*
X0050213Y0233905D01*
X0050332Y0233866D01*
X0050449Y0233824D01*
X0050565Y0233777D01*
X0050679Y0233727D01*
X0050792Y0233674D01*
X0050903Y0233616D01*
X0051013Y0233556D01*
X0051120Y0233491D01*
X0051225Y0233424D01*
X0051328Y0233353D01*
X0051428Y0233279D01*
X0051526Y0233202D01*
X0051622Y0233121D01*
X0051715Y0233038D01*
X0051806Y0232952D01*
X0051893Y0232863D01*
X0051978Y0232771D01*
X0052060Y0232677D01*
X0052139Y0232580D01*
X0052214Y0232480D01*
X0052287Y0232379D01*
X0052356Y0232275D01*
X0052422Y0232168D01*
X0052484Y0232060D01*
X0052543Y0231950D01*
X0052599Y0231838D01*
X0052651Y0231724D01*
X0052699Y0231609D01*
X0052744Y0231493D01*
X0052784Y0231374D01*
X0052822Y0231255D01*
X0052855Y0231135D01*
X0052884Y0231013D01*
X0052910Y0230891D01*
X0052932Y0230768D01*
X0052949Y0230644D01*
X0052963Y0230520D01*
X0052973Y0230396D01*
X0052979Y0230271D01*
X0052981Y0230146D01*
X0052979Y0230021D01*
X0052973Y0229896D01*
X0052963Y0229772D01*
X0052949Y0229648D01*
X0052932Y0229524D01*
X0052910Y0229401D01*
X0052884Y0229279D01*
X0052855Y0229157D01*
X0052822Y0229037D01*
X0052784Y0228918D01*
X0052744Y0228799D01*
X0052699Y0228683D01*
X0052651Y0228568D01*
X0052599Y0228454D01*
X0052543Y0228342D01*
X0052484Y0228232D01*
X0052422Y0228124D01*
X0052356Y0228017D01*
X0052287Y0227913D01*
X0052214Y0227812D01*
X0052139Y0227712D01*
X0052060Y0227615D01*
X0051978Y0227521D01*
X0051893Y0227429D01*
X0051806Y0227340D01*
X0051715Y0227254D01*
X0051622Y0227171D01*
X0051526Y0227090D01*
X0051428Y0227013D01*
X0051328Y0226939D01*
X0051225Y0226868D01*
X0051120Y0226801D01*
X0051012Y0226736D01*
X0050903Y0226676D01*
X0050792Y0226618D01*
X0050679Y0226565D01*
X0050565Y0226515D01*
X0050449Y0226468D01*
X0050332Y0226426D01*
X0050213Y0226387D01*
X0050093Y0226351D01*
X0049972Y0226320D01*
X0049850Y0226292D01*
X0049728Y0226269D01*
X0049604Y0226249D01*
X0049480Y0226233D01*
X0049356Y0226221D01*
X0049231Y0226213D01*
X0049106Y0226209D01*
X0048982Y0226209D01*
X0048857Y0226213D01*
X0048732Y0226221D01*
X0048608Y0226233D01*
X0048484Y0226249D01*
X0048360Y0226269D01*
X0048238Y0226292D01*
X0048116Y0226320D01*
X0047995Y0226351D01*
X0047875Y0226387D01*
X0047756Y0226426D01*
X0047639Y0226468D01*
X0047523Y0226515D01*
X0047409Y0226565D01*
X0047296Y0226618D01*
X0047185Y0226676D01*
X0047075Y0226736D01*
X0046968Y0226801D01*
X0046863Y0226868D01*
X0046760Y0226939D01*
X0046660Y0227013D01*
X0046562Y0227090D01*
X0046466Y0227171D01*
X0046373Y0227254D01*
X0046282Y0227340D01*
X0046195Y0227429D01*
X0046110Y0227521D01*
X0046028Y0227615D01*
X0045949Y0227712D01*
X0045874Y0227812D01*
X0045801Y0227913D01*
X0045732Y0228017D01*
X0045666Y0228124D01*
X0045604Y0228232D01*
X0045545Y0228342D01*
X0045489Y0228454D01*
X0045437Y0228568D01*
X0045389Y0228683D01*
X0045344Y0228799D01*
X0045304Y0228918D01*
X0045266Y0229037D01*
X0045233Y0229157D01*
X0045204Y0229279D01*
X0045178Y0229401D01*
X0045156Y0229524D01*
X0045139Y0229648D01*
X0045125Y0229772D01*
X0045115Y0229896D01*
X0045109Y0230021D01*
X0045107Y0230146D01*
X0401013Y0242351D02*
X0401015Y0242476D01*
X0401021Y0242601D01*
X0401031Y0242725D01*
X0401045Y0242849D01*
X0401062Y0242973D01*
X0401084Y0243096D01*
X0401110Y0243218D01*
X0401139Y0243340D01*
X0401172Y0243460D01*
X0401210Y0243579D01*
X0401250Y0243698D01*
X0401295Y0243814D01*
X0401343Y0243929D01*
X0401395Y0244043D01*
X0401451Y0244155D01*
X0401510Y0244265D01*
X0401572Y0244373D01*
X0401638Y0244480D01*
X0401707Y0244584D01*
X0401780Y0244685D01*
X0401855Y0244785D01*
X0401934Y0244882D01*
X0402016Y0244976D01*
X0402101Y0245068D01*
X0402188Y0245157D01*
X0402279Y0245243D01*
X0402372Y0245326D01*
X0402468Y0245407D01*
X0402566Y0245484D01*
X0402666Y0245558D01*
X0402769Y0245629D01*
X0402874Y0245696D01*
X0402982Y0245761D01*
X0403091Y0245821D01*
X0403202Y0245879D01*
X0403315Y0245932D01*
X0403429Y0245982D01*
X0403545Y0246029D01*
X0403662Y0246071D01*
X0403781Y0246110D01*
X0403901Y0246146D01*
X0404022Y0246177D01*
X0404144Y0246205D01*
X0404266Y0246228D01*
X0404390Y0246248D01*
X0404514Y0246264D01*
X0404638Y0246276D01*
X0404763Y0246284D01*
X0404888Y0246288D01*
X0405012Y0246288D01*
X0405137Y0246284D01*
X0405262Y0246276D01*
X0405386Y0246264D01*
X0405510Y0246248D01*
X0405634Y0246228D01*
X0405756Y0246205D01*
X0405878Y0246177D01*
X0405999Y0246146D01*
X0406119Y0246110D01*
X0406238Y0246071D01*
X0406355Y0246029D01*
X0406471Y0245982D01*
X0406585Y0245932D01*
X0406698Y0245879D01*
X0406809Y0245821D01*
X0406919Y0245761D01*
X0407026Y0245696D01*
X0407131Y0245629D01*
X0407234Y0245558D01*
X0407334Y0245484D01*
X0407432Y0245407D01*
X0407528Y0245326D01*
X0407621Y0245243D01*
X0407712Y0245157D01*
X0407799Y0245068D01*
X0407884Y0244976D01*
X0407966Y0244882D01*
X0408045Y0244785D01*
X0408120Y0244685D01*
X0408193Y0244584D01*
X0408262Y0244480D01*
X0408328Y0244373D01*
X0408390Y0244265D01*
X0408449Y0244155D01*
X0408505Y0244043D01*
X0408557Y0243929D01*
X0408605Y0243814D01*
X0408650Y0243698D01*
X0408690Y0243579D01*
X0408728Y0243460D01*
X0408761Y0243340D01*
X0408790Y0243218D01*
X0408816Y0243096D01*
X0408838Y0242973D01*
X0408855Y0242849D01*
X0408869Y0242725D01*
X0408879Y0242601D01*
X0408885Y0242476D01*
X0408887Y0242351D01*
X0408885Y0242226D01*
X0408879Y0242101D01*
X0408869Y0241977D01*
X0408855Y0241853D01*
X0408838Y0241729D01*
X0408816Y0241606D01*
X0408790Y0241484D01*
X0408761Y0241362D01*
X0408728Y0241242D01*
X0408690Y0241123D01*
X0408650Y0241004D01*
X0408605Y0240888D01*
X0408557Y0240773D01*
X0408505Y0240659D01*
X0408449Y0240547D01*
X0408390Y0240437D01*
X0408328Y0240329D01*
X0408262Y0240222D01*
X0408193Y0240118D01*
X0408120Y0240017D01*
X0408045Y0239917D01*
X0407966Y0239820D01*
X0407884Y0239726D01*
X0407799Y0239634D01*
X0407712Y0239545D01*
X0407621Y0239459D01*
X0407528Y0239376D01*
X0407432Y0239295D01*
X0407334Y0239218D01*
X0407234Y0239144D01*
X0407131Y0239073D01*
X0407026Y0239006D01*
X0406918Y0238941D01*
X0406809Y0238881D01*
X0406698Y0238823D01*
X0406585Y0238770D01*
X0406471Y0238720D01*
X0406355Y0238673D01*
X0406238Y0238631D01*
X0406119Y0238592D01*
X0405999Y0238556D01*
X0405878Y0238525D01*
X0405756Y0238497D01*
X0405634Y0238474D01*
X0405510Y0238454D01*
X0405386Y0238438D01*
X0405262Y0238426D01*
X0405137Y0238418D01*
X0405012Y0238414D01*
X0404888Y0238414D01*
X0404763Y0238418D01*
X0404638Y0238426D01*
X0404514Y0238438D01*
X0404390Y0238454D01*
X0404266Y0238474D01*
X0404144Y0238497D01*
X0404022Y0238525D01*
X0403901Y0238556D01*
X0403781Y0238592D01*
X0403662Y0238631D01*
X0403545Y0238673D01*
X0403429Y0238720D01*
X0403315Y0238770D01*
X0403202Y0238823D01*
X0403091Y0238881D01*
X0402981Y0238941D01*
X0402874Y0239006D01*
X0402769Y0239073D01*
X0402666Y0239144D01*
X0402566Y0239218D01*
X0402468Y0239295D01*
X0402372Y0239376D01*
X0402279Y0239459D01*
X0402188Y0239545D01*
X0402101Y0239634D01*
X0402016Y0239726D01*
X0401934Y0239820D01*
X0401855Y0239917D01*
X0401780Y0240017D01*
X0401707Y0240118D01*
X0401638Y0240222D01*
X0401572Y0240329D01*
X0401510Y0240437D01*
X0401451Y0240547D01*
X0401395Y0240659D01*
X0401343Y0240773D01*
X0401295Y0240888D01*
X0401250Y0241004D01*
X0401210Y0241123D01*
X0401172Y0241242D01*
X0401139Y0241362D01*
X0401110Y0241484D01*
X0401084Y0241606D01*
X0401062Y0241729D01*
X0401045Y0241853D01*
X0401031Y0241977D01*
X0401021Y0242101D01*
X0401015Y0242226D01*
X0401013Y0242351D01*
X0401406Y0045501D02*
X0401408Y0045626D01*
X0401414Y0045751D01*
X0401424Y0045875D01*
X0401438Y0045999D01*
X0401455Y0046123D01*
X0401477Y0046246D01*
X0401503Y0046368D01*
X0401532Y0046490D01*
X0401565Y0046610D01*
X0401603Y0046729D01*
X0401643Y0046848D01*
X0401688Y0046964D01*
X0401736Y0047079D01*
X0401788Y0047193D01*
X0401844Y0047305D01*
X0401903Y0047415D01*
X0401965Y0047523D01*
X0402031Y0047630D01*
X0402100Y0047734D01*
X0402173Y0047835D01*
X0402248Y0047935D01*
X0402327Y0048032D01*
X0402409Y0048126D01*
X0402494Y0048218D01*
X0402581Y0048307D01*
X0402672Y0048393D01*
X0402765Y0048476D01*
X0402861Y0048557D01*
X0402959Y0048634D01*
X0403059Y0048708D01*
X0403162Y0048779D01*
X0403267Y0048846D01*
X0403375Y0048911D01*
X0403484Y0048971D01*
X0403595Y0049029D01*
X0403708Y0049082D01*
X0403822Y0049132D01*
X0403938Y0049179D01*
X0404055Y0049221D01*
X0404174Y0049260D01*
X0404294Y0049296D01*
X0404415Y0049327D01*
X0404537Y0049355D01*
X0404659Y0049378D01*
X0404783Y0049398D01*
X0404907Y0049414D01*
X0405031Y0049426D01*
X0405156Y0049434D01*
X0405281Y0049438D01*
X0405405Y0049438D01*
X0405530Y0049434D01*
X0405655Y0049426D01*
X0405779Y0049414D01*
X0405903Y0049398D01*
X0406027Y0049378D01*
X0406149Y0049355D01*
X0406271Y0049327D01*
X0406392Y0049296D01*
X0406512Y0049260D01*
X0406631Y0049221D01*
X0406748Y0049179D01*
X0406864Y0049132D01*
X0406978Y0049082D01*
X0407091Y0049029D01*
X0407202Y0048971D01*
X0407312Y0048911D01*
X0407419Y0048846D01*
X0407524Y0048779D01*
X0407627Y0048708D01*
X0407727Y0048634D01*
X0407825Y0048557D01*
X0407921Y0048476D01*
X0408014Y0048393D01*
X0408105Y0048307D01*
X0408192Y0048218D01*
X0408277Y0048126D01*
X0408359Y0048032D01*
X0408438Y0047935D01*
X0408513Y0047835D01*
X0408586Y0047734D01*
X0408655Y0047630D01*
X0408721Y0047523D01*
X0408783Y0047415D01*
X0408842Y0047305D01*
X0408898Y0047193D01*
X0408950Y0047079D01*
X0408998Y0046964D01*
X0409043Y0046848D01*
X0409083Y0046729D01*
X0409121Y0046610D01*
X0409154Y0046490D01*
X0409183Y0046368D01*
X0409209Y0046246D01*
X0409231Y0046123D01*
X0409248Y0045999D01*
X0409262Y0045875D01*
X0409272Y0045751D01*
X0409278Y0045626D01*
X0409280Y0045501D01*
X0409278Y0045376D01*
X0409272Y0045251D01*
X0409262Y0045127D01*
X0409248Y0045003D01*
X0409231Y0044879D01*
X0409209Y0044756D01*
X0409183Y0044634D01*
X0409154Y0044512D01*
X0409121Y0044392D01*
X0409083Y0044273D01*
X0409043Y0044154D01*
X0408998Y0044038D01*
X0408950Y0043923D01*
X0408898Y0043809D01*
X0408842Y0043697D01*
X0408783Y0043587D01*
X0408721Y0043479D01*
X0408655Y0043372D01*
X0408586Y0043268D01*
X0408513Y0043167D01*
X0408438Y0043067D01*
X0408359Y0042970D01*
X0408277Y0042876D01*
X0408192Y0042784D01*
X0408105Y0042695D01*
X0408014Y0042609D01*
X0407921Y0042526D01*
X0407825Y0042445D01*
X0407727Y0042368D01*
X0407627Y0042294D01*
X0407524Y0042223D01*
X0407419Y0042156D01*
X0407311Y0042091D01*
X0407202Y0042031D01*
X0407091Y0041973D01*
X0406978Y0041920D01*
X0406864Y0041870D01*
X0406748Y0041823D01*
X0406631Y0041781D01*
X0406512Y0041742D01*
X0406392Y0041706D01*
X0406271Y0041675D01*
X0406149Y0041647D01*
X0406027Y0041624D01*
X0405903Y0041604D01*
X0405779Y0041588D01*
X0405655Y0041576D01*
X0405530Y0041568D01*
X0405405Y0041564D01*
X0405281Y0041564D01*
X0405156Y0041568D01*
X0405031Y0041576D01*
X0404907Y0041588D01*
X0404783Y0041604D01*
X0404659Y0041624D01*
X0404537Y0041647D01*
X0404415Y0041675D01*
X0404294Y0041706D01*
X0404174Y0041742D01*
X0404055Y0041781D01*
X0403938Y0041823D01*
X0403822Y0041870D01*
X0403708Y0041920D01*
X0403595Y0041973D01*
X0403484Y0042031D01*
X0403374Y0042091D01*
X0403267Y0042156D01*
X0403162Y0042223D01*
X0403059Y0042294D01*
X0402959Y0042368D01*
X0402861Y0042445D01*
X0402765Y0042526D01*
X0402672Y0042609D01*
X0402581Y0042695D01*
X0402494Y0042784D01*
X0402409Y0042876D01*
X0402327Y0042970D01*
X0402248Y0043067D01*
X0402173Y0043167D01*
X0402100Y0043268D01*
X0402031Y0043372D01*
X0401965Y0043479D01*
X0401903Y0043587D01*
X0401844Y0043697D01*
X0401788Y0043809D01*
X0401736Y0043923D01*
X0401688Y0044038D01*
X0401643Y0044154D01*
X0401603Y0044273D01*
X0401565Y0044392D01*
X0401532Y0044512D01*
X0401503Y0044634D01*
X0401477Y0044756D01*
X0401455Y0044879D01*
X0401438Y0045003D01*
X0401424Y0045127D01*
X0401414Y0045251D01*
X0401408Y0045376D01*
X0401406Y0045501D01*
D11*
X0139556Y0103926D03*
X0139556Y0105894D03*
X0139556Y0107863D03*
X0133217Y0107863D03*
X0133217Y0105894D03*
X0133217Y0103926D03*
D12*
X0218709Y0106879D02*
X0223709Y0106879D01*
X0223709Y0087194D02*
X0218709Y0087194D01*
D13*
X0082902Y0073178D03*
X0061446Y0073178D03*
X0082902Y0054280D03*
X0083060Y0105619D03*
X0061406Y0105619D03*
D14*
X0218099Y0146013D03*
X0218099Y0159438D03*
D15*
X0220678Y0187391D03*
X0230678Y0187391D03*
X0230678Y0197391D03*
X0220678Y0197391D03*
X0210678Y0197391D03*
X0210678Y0187391D03*
X0240678Y0187391D03*
X0250678Y0187391D03*
X0260678Y0187391D03*
X0270678Y0187391D03*
X0280678Y0187391D03*
X0290678Y0187391D03*
X0290678Y0197391D03*
X0280678Y0197391D03*
X0270678Y0197391D03*
X0260678Y0197391D03*
X0250678Y0197391D03*
X0240678Y0197391D03*
X0240678Y0047391D03*
X0250678Y0047391D03*
X0260678Y0047391D03*
X0270678Y0047391D03*
X0280678Y0047391D03*
X0290678Y0047391D03*
X0300678Y0047391D03*
X0230678Y0047391D03*
X0220678Y0047391D03*
X0210678Y0047391D03*
X0200678Y0047391D03*
D16*
X0326509Y0092115D02*
X0332446Y0092115D01*
X0332446Y0102115D02*
X0326509Y0102115D01*
X0326509Y0112115D02*
X0332446Y0112115D01*
X0332446Y0122115D02*
X0326509Y0122115D01*
X0326509Y0132115D02*
X0332446Y0132115D01*
X0332446Y0142115D02*
X0326509Y0142115D01*
X0326509Y0152115D02*
X0332446Y0152115D01*
X0332446Y0162115D02*
X0326509Y0162115D01*
X0326509Y0172115D02*
X0332446Y0172115D01*
X0332446Y0182115D02*
X0326509Y0182115D01*
X0356509Y0182115D02*
X0362446Y0182115D01*
X0362446Y0172115D02*
X0356509Y0172115D01*
X0356509Y0162115D02*
X0362446Y0162115D01*
X0362446Y0152115D02*
X0356509Y0152115D01*
X0356509Y0142115D02*
X0362446Y0142115D01*
X0362446Y0132115D02*
X0356509Y0132115D01*
X0356509Y0122115D02*
X0362446Y0122115D01*
X0362446Y0112115D02*
X0356509Y0112115D01*
X0356509Y0102115D02*
X0362446Y0102115D01*
X0362446Y0092115D02*
X0356509Y0092115D01*
D17*
X0061446Y0054280D03*
D18*
X0109674Y0106131D03*
X0109674Y0116367D03*
X0110855Y0214792D03*
X0121485Y0214792D03*
X0341170Y0212036D03*
X0347076Y0212036D03*
X0347076Y0205737D03*
X0341170Y0205737D03*
X0341170Y0199438D03*
X0347076Y0199438D03*
X0347076Y0218335D03*
X0341170Y0218335D03*
D19*
X0247076Y0228178D03*
X0191957Y0232115D03*
X0191957Y0222272D03*
X0191957Y0212430D03*
X0171091Y0190383D03*
X0161249Y0190383D03*
X0141170Y0190383D03*
X0080934Y0232115D03*
X0071091Y0232115D03*
X0191957Y0242351D03*
X0191957Y0252194D03*
X0397076Y0072666D03*
X0397076Y0062430D03*
X0300619Y0037627D03*
X0290383Y0037627D03*
X0280540Y0037627D03*
X0270698Y0037627D03*
X0260461Y0037627D03*
X0250619Y0037627D03*
X0230540Y0037627D03*
X0220698Y0037627D03*
X0210855Y0037627D03*
X0200619Y0037627D03*
D20*
X0171209Y0181603D03*
X0161209Y0181603D03*
X0151209Y0181603D03*
X0141209Y0181603D03*
X0131209Y0181603D03*
X0121209Y0181603D03*
X0111209Y0181603D03*
X0101209Y0181603D03*
X0091209Y0181603D03*
X0081209Y0181603D03*
X0071209Y0181603D03*
X0061209Y0181603D03*
X0051209Y0181603D03*
X0041209Y0181603D03*
X0041209Y0241603D03*
X0051209Y0241603D03*
X0061209Y0241603D03*
X0071209Y0241603D03*
X0081209Y0241603D03*
X0091209Y0241603D03*
X0101209Y0241603D03*
X0111209Y0241603D03*
X0121209Y0241603D03*
X0131209Y0241603D03*
X0141209Y0241603D03*
X0151209Y0241603D03*
X0161209Y0241603D03*
X0171209Y0241603D03*
D21*
X0181521Y0255899D02*
X0187007Y0250412D01*
X0187007Y0252194D01*
X0191957Y0252194D01*
X0191957Y0252194D01*
X0187007Y0252194D01*
X0187007Y0254244D01*
X0188663Y0255899D01*
X0181521Y0255899D01*
X0183017Y0254403D02*
X0187166Y0254403D01*
X0187007Y0252804D02*
X0184616Y0252804D01*
X0186214Y0251206D02*
X0187007Y0251206D01*
X0191957Y0251206D02*
X0191958Y0251206D01*
X0191958Y0252194D02*
X0191958Y0247244D01*
X0192558Y0247244D01*
X0192215Y0246901D01*
X0190519Y0246901D01*
X0190176Y0247244D01*
X0191957Y0247244D01*
X0191957Y0252194D01*
X0191958Y0252194D01*
X0196907Y0252194D01*
X0196907Y0253581D01*
X0197901Y0252587D01*
X0197631Y0252318D01*
X0196907Y0251594D01*
X0196907Y0252194D01*
X0191958Y0252194D01*
X0191958Y0252194D01*
X0191957Y0249607D02*
X0191958Y0249607D01*
X0191957Y0248009D02*
X0191958Y0248009D01*
X0191957Y0243532D02*
X0199831Y0251406D01*
X0355343Y0251406D01*
X0358099Y0248650D01*
X0358099Y0251013D01*
X0369123Y0251013D01*
X0390383Y0229753D01*
X0390383Y0114162D01*
X0368335Y0092115D01*
X0359477Y0092115D01*
X0355640Y0096483D02*
X0354034Y0095818D01*
X0352805Y0094590D01*
X0352140Y0092984D01*
X0352140Y0091246D01*
X0352805Y0089640D01*
X0354034Y0088412D01*
X0355640Y0087746D01*
X0363315Y0087746D01*
X0364920Y0088412D01*
X0366149Y0089640D01*
X0366263Y0089915D01*
X0369247Y0089915D01*
X0370535Y0091204D01*
X0392583Y0113251D01*
X0392583Y0230664D01*
X0391294Y0231953D01*
X0379124Y0244123D01*
X0380378Y0245377D01*
X0380378Y0247199D01*
X0372504Y0255073D01*
X0371215Y0256362D01*
X0343564Y0256362D01*
X0343564Y0258492D01*
X0342744Y0259312D01*
X0338022Y0259312D01*
X0337202Y0258492D01*
X0337202Y0256362D01*
X0205381Y0256362D01*
X0205381Y0258099D01*
X0201800Y0258099D01*
X0201800Y0258099D01*
X0202194Y0257706D01*
X0201800Y0258099D02*
X0205381Y0258099D01*
X0205381Y0260117D01*
X0205349Y0260236D01*
X0423228Y0260236D01*
X0423228Y0027616D01*
X0033128Y0027616D01*
X0033128Y0260236D01*
X0045314Y0260236D01*
X0035141Y0250063D01*
X0035141Y0250063D01*
X0033852Y0248774D01*
X0033852Y0237897D01*
X0035820Y0235928D01*
X0037109Y0234639D01*
X0045424Y0234639D01*
X0044180Y0233396D01*
X0043307Y0231288D01*
X0043307Y0229005D01*
X0044180Y0226897D01*
X0045794Y0225283D01*
X0047903Y0224409D01*
X0050185Y0224409D01*
X0052294Y0225283D01*
X0053908Y0226897D01*
X0054781Y0229005D01*
X0054781Y0231288D01*
X0053908Y0233396D01*
X0052665Y0234639D01*
X0057357Y0234639D01*
X0059009Y0236292D01*
X0059009Y0228262D01*
X0058261Y0227514D01*
X0058261Y0225692D01*
X0060338Y0223616D01*
X0092877Y0223616D01*
X0092713Y0223452D01*
X0092713Y0222991D01*
X0088021Y0222991D01*
X0086908Y0221878D01*
X0073916Y0208886D01*
X0073916Y0184978D01*
X0073645Y0185248D01*
X0072065Y0185903D01*
X0070354Y0185903D01*
X0068774Y0185248D01*
X0067564Y0184039D01*
X0066909Y0182458D01*
X0066909Y0180748D01*
X0067564Y0179167D01*
X0068774Y0177958D01*
X0070354Y0177303D01*
X0072065Y0177303D01*
X0072601Y0177525D01*
X0082083Y0168043D01*
X0063519Y0168043D01*
X0061167Y0167068D01*
X0059366Y0165268D01*
X0040469Y0146370D01*
X0039494Y0144018D01*
X0039494Y0091078D01*
X0040469Y0088726D01*
X0042269Y0086926D01*
X0053924Y0075271D01*
X0053696Y0074720D01*
X0053696Y0071636D01*
X0054876Y0068788D01*
X0057056Y0066608D01*
X0059904Y0065428D01*
X0062987Y0065428D01*
X0065836Y0066608D01*
X0068016Y0068788D01*
X0069196Y0071636D01*
X0069196Y0074720D01*
X0068016Y0077568D01*
X0067570Y0078014D01*
X0067570Y0078349D01*
X0066596Y0080701D01*
X0052294Y0095002D01*
X0052294Y0140094D01*
X0067443Y0155243D01*
X0104425Y0155243D01*
X0104131Y0154948D01*
X0104131Y0150226D01*
X0104329Y0150028D01*
X0103737Y0149437D01*
X0103737Y0144715D01*
X0104557Y0143894D01*
X0109279Y0143894D01*
X0110099Y0144715D01*
X0110099Y0147570D01*
X0113611Y0151081D01*
X0147607Y0151081D01*
X0147176Y0150650D01*
X0144321Y0150650D01*
X0143501Y0149830D01*
X0143501Y0145108D01*
X0144321Y0144288D01*
X0149043Y0144288D01*
X0149863Y0145108D01*
X0149863Y0147963D01*
X0150194Y0148294D01*
X0150194Y0145108D01*
X0151014Y0144288D01*
X0155736Y0144288D01*
X0156556Y0145108D01*
X0156556Y0146389D01*
X0157311Y0147144D01*
X0168336Y0147144D01*
X0205412Y0110068D01*
X0205412Y0065974D01*
X0206525Y0064861D01*
X0208778Y0062607D01*
X0208778Y0051365D01*
X0207523Y0051365D01*
X0206703Y0050545D01*
X0206703Y0044236D01*
X0207523Y0043416D01*
X0208478Y0043416D01*
X0208478Y0041684D01*
X0206305Y0039511D01*
X0206305Y0035742D01*
X0208970Y0033077D01*
X0212740Y0033077D01*
X0215405Y0035742D01*
X0215405Y0039511D01*
X0212878Y0042039D01*
X0212878Y0043416D01*
X0213833Y0043416D01*
X0214653Y0044236D01*
X0214653Y0050545D01*
X0213833Y0051365D01*
X0212578Y0051365D01*
X0212578Y0061957D01*
X0223170Y0051365D01*
X0217523Y0051365D01*
X0216703Y0050545D01*
X0216703Y0044236D01*
X0217523Y0043416D01*
X0218478Y0043416D01*
X0218478Y0041842D01*
X0216148Y0039511D01*
X0216148Y0035742D01*
X0218813Y0033077D01*
X0222582Y0033077D01*
X0225248Y0035742D01*
X0225248Y0039511D01*
X0222878Y0041881D01*
X0222878Y0043416D01*
X0223833Y0043416D01*
X0224653Y0044236D01*
X0224653Y0049882D01*
X0226703Y0047832D01*
X0226703Y0044236D01*
X0227523Y0043416D01*
X0228778Y0043416D01*
X0228778Y0042177D01*
X0228655Y0042177D01*
X0225990Y0039511D01*
X0225990Y0035742D01*
X0228655Y0033077D01*
X0232425Y0033077D01*
X0235090Y0035742D01*
X0235090Y0039511D01*
X0232578Y0042024D01*
X0232578Y0043416D01*
X0233833Y0043416D01*
X0234653Y0044236D01*
X0234653Y0050545D01*
X0233833Y0051365D01*
X0228544Y0051365D01*
X0211180Y0068729D01*
X0211180Y0112430D01*
X0208355Y0115254D01*
X0256131Y0115254D01*
X0269979Y0101407D01*
X0269979Y0086840D01*
X0271092Y0085727D01*
X0282546Y0074272D01*
X0282116Y0074272D01*
X0281296Y0073452D01*
X0281296Y0068730D01*
X0282116Y0067910D01*
X0286838Y0067910D01*
X0287658Y0068730D01*
X0287658Y0072310D01*
X0289564Y0070404D01*
X0289564Y0068337D01*
X0290384Y0067517D01*
X0295106Y0067517D01*
X0295926Y0068337D01*
X0295926Y0073059D01*
X0295106Y0073879D01*
X0291463Y0073879D01*
X0287265Y0078077D01*
X0304254Y0078077D01*
X0306606Y0079052D01*
X0316055Y0088500D01*
X0317223Y0089668D01*
X0317223Y0089596D01*
X0318336Y0088483D01*
X0321554Y0085265D01*
X0322667Y0084152D01*
X0335658Y0084152D01*
X0336771Y0085265D01*
X0351721Y0100215D01*
X0352567Y0100215D01*
X0352805Y0099640D01*
X0354034Y0098412D01*
X0355640Y0097746D01*
X0363315Y0097746D01*
X0364920Y0098412D01*
X0366149Y0099640D01*
X0366814Y0101246D01*
X0366814Y0102984D01*
X0366149Y0104590D01*
X0365327Y0105412D01*
X0369122Y0105412D01*
X0370235Y0106525D01*
X0384409Y0120698D01*
X0384409Y0204555D01*
X0377816Y0211148D01*
X0377816Y0214004D01*
X0376996Y0214824D01*
X0372304Y0214824D01*
X0372304Y0219515D01*
X0371484Y0220335D01*
X0366762Y0220335D01*
X0365942Y0219515D01*
X0365942Y0219054D01*
X0350444Y0219054D01*
X0350444Y0220884D01*
X0349624Y0221704D01*
X0344527Y0221704D01*
X0344123Y0221300D01*
X0343718Y0221704D01*
X0338622Y0221704D01*
X0337802Y0220884D01*
X0337802Y0220235D01*
X0325847Y0220235D01*
X0325847Y0220696D01*
X0325027Y0221517D01*
X0320305Y0221517D01*
X0319485Y0220696D01*
X0319485Y0216329D01*
X0317973Y0217841D01*
X0317973Y0220303D01*
X0317153Y0221123D01*
X0312431Y0221123D01*
X0311611Y0220303D01*
X0311611Y0215581D01*
X0312431Y0214761D01*
X0315680Y0214761D01*
X0317223Y0213218D01*
X0317567Y0212873D01*
X0317123Y0212429D01*
X0317123Y0207707D01*
X0317943Y0206887D01*
X0319455Y0206887D01*
X0319091Y0206523D01*
X0319091Y0201801D01*
X0319911Y0200981D01*
X0321192Y0200981D01*
X0323522Y0198651D01*
X0324635Y0197538D01*
X0337802Y0197538D01*
X0337802Y0196889D01*
X0338622Y0196069D01*
X0343718Y0196069D01*
X0344123Y0196474D01*
X0344527Y0196069D01*
X0349624Y0196069D01*
X0350444Y0196889D01*
X0350444Y0197538D01*
X0362823Y0197538D01*
X0363936Y0198651D01*
X0366660Y0201375D01*
X0369515Y0201375D01*
X0370335Y0202195D01*
X0370335Y0202950D01*
X0374633Y0202950D01*
X0375078Y0203394D01*
X0377065Y0201407D01*
X0377065Y0136052D01*
X0365876Y0124862D01*
X0364920Y0125818D01*
X0363315Y0126483D01*
X0355640Y0126483D01*
X0354034Y0125818D01*
X0352805Y0124590D01*
X0352140Y0122984D01*
X0352140Y0121246D01*
X0352805Y0119640D01*
X0354034Y0118412D01*
X0355640Y0117746D01*
X0363315Y0117746D01*
X0364920Y0118412D01*
X0366149Y0119640D01*
X0366452Y0120372D01*
X0366760Y0120372D01*
X0380609Y0134221D01*
X0380609Y0122272D01*
X0367548Y0109212D01*
X0365720Y0109212D01*
X0366149Y0109640D01*
X0366814Y0111246D01*
X0366814Y0112984D01*
X0366149Y0114590D01*
X0364920Y0115818D01*
X0363315Y0116483D01*
X0355640Y0116483D01*
X0354034Y0115818D01*
X0352805Y0114590D01*
X0352140Y0112984D01*
X0352140Y0111246D01*
X0352805Y0109640D01*
X0353234Y0109212D01*
X0349831Y0109212D01*
X0344645Y0114398D01*
X0344645Y0124241D01*
X0350225Y0129821D01*
X0352730Y0129821D01*
X0352805Y0129640D01*
X0354034Y0128412D01*
X0355640Y0127746D01*
X0363315Y0127746D01*
X0364920Y0128412D01*
X0366149Y0129640D01*
X0366814Y0131246D01*
X0366814Y0132984D01*
X0366149Y0134590D01*
X0364920Y0135818D01*
X0363315Y0136483D01*
X0355640Y0136483D01*
X0354034Y0135818D01*
X0352805Y0134590D01*
X0352404Y0133621D01*
X0348651Y0133621D01*
X0347538Y0132508D01*
X0340845Y0125815D01*
X0340845Y0112824D01*
X0348257Y0105412D01*
X0353628Y0105412D01*
X0352805Y0104590D01*
X0352567Y0104015D01*
X0350147Y0104015D01*
X0336416Y0090284D01*
X0336814Y0091246D01*
X0336814Y0092984D01*
X0336149Y0094590D01*
X0334920Y0095818D01*
X0333315Y0096483D01*
X0325640Y0096483D01*
X0324034Y0095818D01*
X0322991Y0094776D01*
X0322991Y0099454D01*
X0324034Y0098412D01*
X0325640Y0097746D01*
X0333315Y0097746D01*
X0334920Y0098412D01*
X0336149Y0099640D01*
X0336814Y0101246D01*
X0336814Y0102984D01*
X0336149Y0104590D01*
X0334920Y0105818D01*
X0333315Y0106483D01*
X0325640Y0106483D01*
X0324074Y0105835D01*
X0319694Y0110215D01*
X0322567Y0110215D01*
X0322805Y0109640D01*
X0324034Y0108412D01*
X0325640Y0107746D01*
X0333315Y0107746D01*
X0334920Y0108412D01*
X0336149Y0109640D01*
X0336814Y0111246D01*
X0336814Y0112984D01*
X0336149Y0114590D01*
X0334920Y0115818D01*
X0333315Y0116483D01*
X0325640Y0116483D01*
X0324034Y0115818D01*
X0322805Y0114590D01*
X0322567Y0114015D01*
X0318650Y0114015D01*
X0292450Y0140215D01*
X0322567Y0140215D01*
X0322805Y0139640D01*
X0324034Y0138412D01*
X0325640Y0137746D01*
X0333315Y0137746D01*
X0334920Y0138412D01*
X0336149Y0139640D01*
X0336814Y0141246D01*
X0336814Y0142984D01*
X0336149Y0144590D01*
X0334920Y0145818D01*
X0333315Y0146483D01*
X0325640Y0146483D01*
X0324034Y0145818D01*
X0322805Y0144590D01*
X0322567Y0144015D01*
X0291406Y0144015D01*
X0285206Y0150215D01*
X0322567Y0150215D01*
X0322805Y0149640D01*
X0324034Y0148412D01*
X0325640Y0147746D01*
X0333315Y0147746D01*
X0334920Y0148412D01*
X0336149Y0149640D01*
X0336814Y0151246D01*
X0336814Y0152984D01*
X0336149Y0154590D01*
X0334920Y0155818D01*
X0333315Y0156483D01*
X0325640Y0156483D01*
X0324034Y0155818D01*
X0322805Y0154590D01*
X0322567Y0154015D01*
X0284162Y0154015D01*
X0277962Y0160215D01*
X0322567Y0160215D01*
X0322805Y0159640D01*
X0324034Y0158412D01*
X0325640Y0157746D01*
X0333315Y0157746D01*
X0334920Y0158412D01*
X0335955Y0159446D01*
X0336446Y0158955D01*
X0345186Y0150215D01*
X0352567Y0150215D01*
X0352805Y0149640D01*
X0354034Y0148412D01*
X0355640Y0147746D01*
X0363315Y0147746D01*
X0364920Y0148412D01*
X0366149Y0149640D01*
X0366814Y0151246D01*
X0366814Y0152984D01*
X0366149Y0154590D01*
X0364920Y0155818D01*
X0363315Y0156483D01*
X0355640Y0156483D01*
X0354034Y0155818D01*
X0352805Y0154590D01*
X0352567Y0154015D01*
X0346760Y0154015D01*
X0339133Y0161642D01*
X0339133Y0164792D01*
X0336771Y0167154D01*
X0335658Y0168267D01*
X0335262Y0168267D01*
X0335552Y0168478D01*
X0336083Y0169008D01*
X0336524Y0169616D01*
X0336865Y0170284D01*
X0337097Y0170998D01*
X0337214Y0171740D01*
X0337214Y0171931D01*
X0329661Y0171931D01*
X0329661Y0172299D01*
X0329293Y0172299D01*
X0329293Y0171931D01*
X0321740Y0171931D01*
X0321740Y0171740D01*
X0321858Y0170998D01*
X0322090Y0170284D01*
X0322430Y0169616D01*
X0322871Y0169008D01*
X0323402Y0168478D01*
X0323692Y0168267D01*
X0317411Y0168267D01*
X0321760Y0172616D01*
X0321740Y0172490D01*
X0321740Y0172299D01*
X0329293Y0172299D01*
X0329293Y0176883D01*
X0326133Y0176883D01*
X0325392Y0176766D01*
X0324678Y0176534D01*
X0324009Y0176193D01*
X0323402Y0175752D01*
X0322871Y0175221D01*
X0322598Y0174845D01*
X0322598Y0180142D01*
X0322805Y0179640D01*
X0324034Y0178412D01*
X0325640Y0177746D01*
X0333315Y0177746D01*
X0334920Y0178412D01*
X0336149Y0179640D01*
X0336814Y0181246D01*
X0336814Y0182603D01*
X0349202Y0170215D01*
X0352567Y0170215D01*
X0352805Y0169640D01*
X0354034Y0168412D01*
X0355640Y0167746D01*
X0363315Y0167746D01*
X0364920Y0168412D01*
X0366149Y0169640D01*
X0366814Y0171246D01*
X0366814Y0172984D01*
X0366149Y0174590D01*
X0364920Y0175818D01*
X0363315Y0176483D01*
X0355640Y0176483D01*
X0354034Y0175818D01*
X0352805Y0174590D01*
X0352567Y0174015D01*
X0350776Y0174015D01*
X0344576Y0180215D01*
X0352567Y0180215D01*
X0352805Y0179640D01*
X0354034Y0178412D01*
X0355640Y0177746D01*
X0363315Y0177746D01*
X0364920Y0178412D01*
X0366149Y0179640D01*
X0366814Y0181246D01*
X0366814Y0182984D01*
X0366149Y0184590D01*
X0364920Y0185818D01*
X0363315Y0186483D01*
X0355640Y0186483D01*
X0354034Y0185818D01*
X0352805Y0184590D01*
X0352567Y0184015D01*
X0343532Y0184015D01*
X0337952Y0189595D01*
X0336839Y0190708D01*
X0299044Y0190708D01*
X0296613Y0193138D01*
X0295500Y0194251D01*
X0294653Y0194251D01*
X0294653Y0200545D01*
X0293833Y0201365D01*
X0287523Y0201365D01*
X0286703Y0200545D01*
X0286703Y0194251D01*
X0284653Y0194251D01*
X0284653Y0200545D01*
X0283833Y0201365D01*
X0277523Y0201365D01*
X0276703Y0200545D01*
X0276703Y0194251D01*
X0274653Y0194251D01*
X0274653Y0200545D01*
X0273833Y0201365D01*
X0267523Y0201365D01*
X0266703Y0200545D01*
X0266703Y0194251D01*
X0264653Y0194251D01*
X0264653Y0200545D01*
X0263833Y0201365D01*
X0257523Y0201365D01*
X0256703Y0200545D01*
X0256703Y0194251D01*
X0254965Y0194251D01*
X0255053Y0194579D01*
X0255053Y0197390D01*
X0250678Y0197390D01*
X0250678Y0197391D01*
X0250678Y0197391D01*
X0250678Y0201765D01*
X0253490Y0201765D01*
X0253948Y0201643D01*
X0254358Y0201406D01*
X0254693Y0201071D01*
X0254930Y0200660D01*
X0255053Y0200202D01*
X0255053Y0197391D01*
X0250678Y0197391D01*
X0250678Y0201765D01*
X0247866Y0201765D01*
X0247408Y0201643D01*
X0246998Y0201406D01*
X0246663Y0201071D01*
X0246426Y0200660D01*
X0246303Y0200202D01*
X0246303Y0197391D01*
X0250678Y0197391D01*
X0250678Y0197390D01*
X0246303Y0197390D01*
X0246303Y0194579D01*
X0246391Y0194251D01*
X0244852Y0194251D01*
X0241966Y0191365D01*
X0237523Y0191365D01*
X0236703Y0190545D01*
X0236703Y0184236D01*
X0237318Y0183621D01*
X0234038Y0183621D01*
X0234653Y0184236D01*
X0234653Y0190545D01*
X0233833Y0191365D01*
X0227523Y0191365D01*
X0226703Y0190545D01*
X0226703Y0184236D01*
X0227318Y0183621D01*
X0227134Y0183621D01*
X0224653Y0186103D01*
X0224653Y0190545D01*
X0223833Y0191365D01*
X0217523Y0191365D01*
X0216703Y0190545D01*
X0216703Y0184802D01*
X0214653Y0184802D01*
X0214653Y0190545D01*
X0213833Y0191365D01*
X0207523Y0191365D01*
X0206703Y0190545D01*
X0206703Y0185017D01*
X0194351Y0197369D01*
X0194351Y0200224D01*
X0193531Y0201044D01*
X0188809Y0201044D01*
X0187989Y0200224D01*
X0187989Y0195502D01*
X0188809Y0194682D01*
X0191664Y0194682D01*
X0203512Y0182834D01*
X0181721Y0182834D01*
X0181259Y0183296D01*
X0181259Y0193107D01*
X0185657Y0193107D01*
X0186477Y0193927D01*
X0186477Y0198649D01*
X0185657Y0199469D01*
X0185196Y0199469D01*
X0185196Y0216504D01*
X0187407Y0214293D01*
X0187407Y0210545D01*
X0190073Y0207880D01*
X0193842Y0207880D01*
X0196507Y0210545D01*
X0196507Y0214315D01*
X0193842Y0216980D01*
X0190094Y0216980D01*
X0184802Y0222272D01*
X0184802Y0229103D01*
X0188578Y0225327D01*
X0187407Y0224157D01*
X0187407Y0220388D01*
X0190073Y0217722D01*
X0193842Y0217722D01*
X0196507Y0220388D01*
X0196507Y0224157D01*
X0193842Y0226822D01*
X0192457Y0226822D01*
X0191714Y0227565D01*
X0193842Y0227565D01*
X0196507Y0230230D01*
X0196507Y0234000D01*
X0193842Y0236665D01*
X0193244Y0236665D01*
X0192108Y0237801D01*
X0193842Y0237801D01*
X0196507Y0240467D01*
X0196507Y0244236D01*
X0196140Y0244603D01*
X0200743Y0249206D01*
X0354432Y0249206D01*
X0354918Y0248720D01*
X0354918Y0246289D01*
X0355738Y0245469D01*
X0360460Y0245469D01*
X0361280Y0246289D01*
X0361280Y0248813D01*
X0368212Y0248813D01*
X0388183Y0228841D01*
X0388183Y0115073D01*
X0367424Y0094315D01*
X0366263Y0094315D01*
X0366149Y0094590D01*
X0364920Y0095818D01*
X0363315Y0096483D01*
X0355640Y0096483D01*
X0354835Y0096150D02*
X0347656Y0096150D01*
X0346058Y0094552D02*
X0352790Y0094552D01*
X0352140Y0092953D02*
X0344459Y0092953D01*
X0342861Y0091355D02*
X0352140Y0091355D01*
X0352757Y0089756D02*
X0341262Y0089756D01*
X0339664Y0088158D02*
X0354647Y0088158D01*
X0364307Y0088158D02*
X0423228Y0088158D01*
X0423228Y0089756D02*
X0386434Y0089756D01*
X0386483Y0089939D02*
X0386361Y0089482D01*
X0386124Y0089071D01*
X0385789Y0088736D01*
X0385378Y0088499D01*
X0384920Y0088376D01*
X0382902Y0088376D01*
X0382902Y0091957D01*
X0382902Y0091957D01*
X0379321Y0091957D01*
X0379321Y0089939D01*
X0379444Y0089482D01*
X0379681Y0089071D01*
X0380016Y0088736D01*
X0380426Y0088499D01*
X0380884Y0088376D01*
X0382902Y0088376D01*
X0382902Y0091957D01*
X0382902Y0091958D01*
X0382902Y0095539D01*
X0380884Y0095539D01*
X0380426Y0095416D01*
X0380016Y0095179D01*
X0379681Y0094844D01*
X0379444Y0094433D01*
X0379321Y0093976D01*
X0379321Y0091958D01*
X0382902Y0091958D01*
X0382902Y0091958D01*
X0382902Y0095539D01*
X0384920Y0095539D01*
X0385378Y0095416D01*
X0385789Y0095179D01*
X0386124Y0094844D01*
X0386361Y0094433D01*
X0386483Y0093976D01*
X0386483Y0091958D01*
X0382902Y0091958D01*
X0382902Y0091957D01*
X0386483Y0091957D01*
X0386483Y0089939D01*
X0386483Y0091355D02*
X0423228Y0091355D01*
X0423228Y0092953D02*
X0386483Y0092953D01*
X0386292Y0094552D02*
X0423228Y0094552D01*
X0423228Y0096150D02*
X0375482Y0096150D01*
X0373883Y0094552D02*
X0379512Y0094552D01*
X0379321Y0092953D02*
X0372285Y0092953D01*
X0370686Y0091355D02*
X0379321Y0091355D01*
X0379370Y0089756D02*
X0366197Y0089756D01*
X0366165Y0094552D02*
X0367661Y0094552D01*
X0369259Y0096150D02*
X0364119Y0096150D01*
X0363320Y0097749D02*
X0370858Y0097749D01*
X0372456Y0099347D02*
X0365856Y0099347D01*
X0366690Y0100946D02*
X0374055Y0100946D01*
X0375653Y0102544D02*
X0366814Y0102544D01*
X0366334Y0104143D02*
X0377252Y0104143D01*
X0378851Y0105741D02*
X0369452Y0105741D01*
X0370235Y0106525D02*
X0370235Y0106525D01*
X0371050Y0107340D02*
X0380449Y0107340D01*
X0382048Y0108938D02*
X0372649Y0108938D01*
X0374247Y0110537D02*
X0383646Y0110537D01*
X0385245Y0112135D02*
X0375846Y0112135D01*
X0377444Y0113734D02*
X0386843Y0113734D01*
X0388183Y0115332D02*
X0379043Y0115332D01*
X0380641Y0116931D02*
X0388183Y0116931D01*
X0388183Y0118529D02*
X0382240Y0118529D01*
X0383839Y0120128D02*
X0388183Y0120128D01*
X0388183Y0121726D02*
X0384409Y0121726D01*
X0384409Y0123325D02*
X0388183Y0123325D01*
X0388183Y0124923D02*
X0384409Y0124923D01*
X0384409Y0126522D02*
X0388183Y0126522D01*
X0388183Y0128120D02*
X0384409Y0128120D01*
X0384409Y0129719D02*
X0388183Y0129719D01*
X0388183Y0131317D02*
X0384409Y0131317D01*
X0384409Y0132916D02*
X0388183Y0132916D01*
X0388183Y0134515D02*
X0384409Y0134515D01*
X0384409Y0136113D02*
X0388183Y0136113D01*
X0388183Y0137712D02*
X0384409Y0137712D01*
X0384409Y0139310D02*
X0388183Y0139310D01*
X0388183Y0140909D02*
X0384409Y0140909D01*
X0384409Y0142507D02*
X0388183Y0142507D01*
X0388183Y0144106D02*
X0384409Y0144106D01*
X0384409Y0145704D02*
X0388183Y0145704D01*
X0388183Y0147303D02*
X0384409Y0147303D01*
X0384409Y0148901D02*
X0388183Y0148901D01*
X0388183Y0150500D02*
X0384409Y0150500D01*
X0384409Y0152098D02*
X0388183Y0152098D01*
X0388183Y0153697D02*
X0384409Y0153697D01*
X0384409Y0155295D02*
X0388183Y0155295D01*
X0388183Y0156894D02*
X0384409Y0156894D01*
X0384409Y0158492D02*
X0388183Y0158492D01*
X0388183Y0160091D02*
X0384409Y0160091D01*
X0384409Y0161689D02*
X0388183Y0161689D01*
X0388183Y0163288D02*
X0384409Y0163288D01*
X0384409Y0164886D02*
X0388183Y0164886D01*
X0388183Y0166485D02*
X0384409Y0166485D01*
X0384409Y0168083D02*
X0388183Y0168083D01*
X0388183Y0169682D02*
X0384409Y0169682D01*
X0384409Y0171280D02*
X0388183Y0171280D01*
X0388183Y0172879D02*
X0384409Y0172879D01*
X0384409Y0174477D02*
X0388183Y0174477D01*
X0388183Y0176076D02*
X0384409Y0176076D01*
X0384409Y0177674D02*
X0388183Y0177674D01*
X0388183Y0179273D02*
X0384409Y0179273D01*
X0384409Y0180871D02*
X0388183Y0180871D01*
X0388183Y0182470D02*
X0384409Y0182470D01*
X0384409Y0184068D02*
X0388183Y0184068D01*
X0388183Y0185667D02*
X0384409Y0185667D01*
X0384409Y0187265D02*
X0388183Y0187265D01*
X0388183Y0188864D02*
X0384409Y0188864D01*
X0384409Y0190462D02*
X0388183Y0190462D01*
X0388183Y0192061D02*
X0384409Y0192061D01*
X0384409Y0193659D02*
X0388183Y0193659D01*
X0388183Y0195258D02*
X0384409Y0195258D01*
X0384409Y0196856D02*
X0388183Y0196856D01*
X0388183Y0198455D02*
X0384409Y0198455D01*
X0384409Y0200053D02*
X0388183Y0200053D01*
X0388183Y0201652D02*
X0384409Y0201652D01*
X0384409Y0203251D02*
X0388183Y0203251D01*
X0388183Y0204849D02*
X0384115Y0204849D01*
X0382517Y0206448D02*
X0388183Y0206448D01*
X0388183Y0208046D02*
X0380918Y0208046D01*
X0379320Y0209645D02*
X0388183Y0209645D01*
X0388183Y0211243D02*
X0377816Y0211243D01*
X0377816Y0212842D02*
X0388183Y0212842D01*
X0388183Y0214440D02*
X0377379Y0214440D01*
X0372304Y0216039D02*
X0388183Y0216039D01*
X0388183Y0217637D02*
X0372304Y0217637D01*
X0372304Y0219236D02*
X0388183Y0219236D01*
X0388183Y0220834D02*
X0350444Y0220834D01*
X0350444Y0219236D02*
X0365942Y0219236D01*
X0365629Y0226172D02*
X0366087Y0226294D01*
X0366497Y0226531D01*
X0366832Y0226866D01*
X0367069Y0227277D01*
X0367192Y0227735D01*
X0367192Y0229753D01*
X0367192Y0231771D01*
X0367069Y0232229D01*
X0366832Y0232639D01*
X0366497Y0232974D01*
X0366087Y0233211D01*
X0365629Y0233334D01*
X0363611Y0233334D01*
X0361593Y0233334D01*
X0361135Y0233211D01*
X0360725Y0232974D01*
X0360390Y0232639D01*
X0360153Y0232229D01*
X0360030Y0231771D01*
X0360030Y0229753D01*
X0363611Y0229753D01*
X0363611Y0233334D01*
X0363611Y0229753D01*
X0363611Y0229753D01*
X0363611Y0229753D01*
X0367192Y0229753D01*
X0363611Y0229753D01*
X0363611Y0229753D01*
X0360030Y0229753D01*
X0360030Y0227735D01*
X0360153Y0227277D01*
X0360390Y0226866D01*
X0360725Y0226531D01*
X0361135Y0226294D01*
X0361593Y0226172D01*
X0363611Y0226172D01*
X0365629Y0226172D01*
X0367041Y0227228D02*
X0388183Y0227228D01*
X0388183Y0225630D02*
X0251528Y0225630D01*
X0252026Y0226128D02*
X0252026Y0228178D01*
X0252026Y0230228D01*
X0249126Y0233128D01*
X0247076Y0233128D01*
X0247076Y0228178D01*
X0252026Y0228178D01*
X0247076Y0228178D01*
X0247076Y0228178D01*
X0247076Y0228178D01*
X0247076Y0223228D01*
X0249126Y0223228D01*
X0252026Y0226128D01*
X0252026Y0227228D02*
X0319477Y0227228D01*
X0319445Y0227260D02*
X0319780Y0226925D01*
X0320190Y0226688D01*
X0320648Y0226565D01*
X0322666Y0226565D01*
X0322666Y0230146D01*
X0322666Y0230146D01*
X0322666Y0226565D01*
X0324684Y0226565D01*
X0325142Y0226688D01*
X0325552Y0226925D01*
X0325888Y0227260D01*
X0326125Y0227671D01*
X0326247Y0228128D01*
X0326247Y0230146D01*
X0322666Y0230146D01*
X0319085Y0230146D01*
X0319085Y0228128D01*
X0319208Y0227671D01*
X0319445Y0227260D01*
X0319085Y0228827D02*
X0261150Y0228827D01*
X0261164Y0228852D02*
X0261287Y0229309D01*
X0261287Y0231327D01*
X0257706Y0231327D01*
X0257706Y0231328D01*
X0261287Y0231328D01*
X0261287Y0233346D01*
X0261164Y0233803D01*
X0260927Y0234214D01*
X0260592Y0234549D01*
X0260181Y0234786D01*
X0259724Y0234909D01*
X0257706Y0234909D01*
X0257706Y0231328D01*
X0257705Y0231328D01*
X0257705Y0231327D01*
X0257706Y0231327D01*
X0257706Y0227746D01*
X0259724Y0227746D01*
X0260181Y0227869D01*
X0260592Y0228106D01*
X0260927Y0228441D01*
X0261164Y0228852D01*
X0261287Y0230425D02*
X0319085Y0230425D01*
X0319085Y0230147D02*
X0322666Y0230147D01*
X0322666Y0233728D01*
X0320648Y0233728D01*
X0320190Y0233605D01*
X0319780Y0233368D01*
X0319445Y0233033D01*
X0319208Y0232622D01*
X0319085Y0232165D01*
X0319085Y0230147D01*
X0319085Y0232024D02*
X0261287Y0232024D01*
X0261212Y0233622D02*
X0320255Y0233622D01*
X0322666Y0233622D02*
X0322666Y0233622D01*
X0322666Y0233728D02*
X0324684Y0233728D01*
X0325142Y0233605D01*
X0325552Y0233368D01*
X0325888Y0233033D01*
X0326125Y0232622D01*
X0326247Y0232165D01*
X0326247Y0230147D01*
X0322666Y0230147D01*
X0322666Y0230147D01*
X0322666Y0233728D01*
X0322666Y0232024D02*
X0322666Y0232024D01*
X0322666Y0230425D02*
X0322666Y0230425D01*
X0322666Y0230147D02*
X0322666Y0230146D01*
X0322666Y0230147D01*
X0322666Y0228827D02*
X0322666Y0228827D01*
X0322666Y0227228D02*
X0322666Y0227228D01*
X0325856Y0227228D02*
X0360181Y0227228D01*
X0360030Y0228827D02*
X0326247Y0228827D01*
X0326247Y0230425D02*
X0360030Y0230425D01*
X0360098Y0232024D02*
X0326247Y0232024D01*
X0325077Y0233622D02*
X0383402Y0233622D01*
X0385000Y0232024D02*
X0367124Y0232024D01*
X0367192Y0230425D02*
X0386599Y0230425D01*
X0388183Y0228827D02*
X0367192Y0228827D01*
X0363611Y0228827D02*
X0363611Y0228827D01*
X0363611Y0229753D02*
X0363611Y0226172D01*
X0363611Y0229753D01*
X0363611Y0229753D01*
X0363611Y0230425D02*
X0363611Y0230425D01*
X0363611Y0232024D02*
X0363611Y0232024D01*
X0363611Y0227228D02*
X0363611Y0227228D01*
X0380205Y0236819D02*
X0193090Y0236819D01*
X0194459Y0238418D02*
X0378606Y0238418D01*
X0377008Y0240016D02*
X0196057Y0240016D01*
X0196507Y0241615D02*
X0375409Y0241615D01*
X0373811Y0243213D02*
X0196507Y0243213D01*
X0196348Y0244812D02*
X0372212Y0244812D01*
X0370614Y0246410D02*
X0361280Y0246410D01*
X0361280Y0248009D02*
X0369015Y0248009D01*
X0376372Y0251206D02*
X0423228Y0251206D01*
X0423228Y0252804D02*
X0374773Y0252804D01*
X0373175Y0254403D02*
X0423228Y0254403D01*
X0423228Y0256001D02*
X0371576Y0256001D01*
X0370304Y0254162D02*
X0340383Y0254162D01*
X0340383Y0256131D01*
X0340383Y0254162D02*
X0199438Y0254162D01*
X0195501Y0258099D01*
X0046288Y0258099D01*
X0036052Y0247863D01*
X0036052Y0238808D01*
X0038020Y0236839D01*
X0056446Y0236839D01*
X0061209Y0241603D01*
X0061209Y0227351D01*
X0060461Y0226603D01*
X0061249Y0225816D01*
X0104950Y0225816D01*
X0106328Y0227194D01*
X0106328Y0227351D01*
X0111249Y0232272D01*
X0087462Y0222433D02*
X0033128Y0222433D01*
X0033128Y0224031D02*
X0059922Y0224031D01*
X0058324Y0225630D02*
X0052641Y0225630D01*
X0054045Y0227228D02*
X0058261Y0227228D01*
X0059009Y0228827D02*
X0054707Y0228827D01*
X0054781Y0230425D02*
X0059009Y0230425D01*
X0059009Y0232024D02*
X0054476Y0232024D01*
X0053682Y0233622D02*
X0059009Y0233622D01*
X0059009Y0235221D02*
X0057938Y0235221D01*
X0071091Y0232115D02*
X0071209Y0232233D01*
X0071209Y0241603D01*
X0081209Y0241603D02*
X0081209Y0232391D01*
X0080934Y0232115D01*
X0085864Y0220834D02*
X0033128Y0220834D01*
X0033128Y0219236D02*
X0084265Y0219236D01*
X0082667Y0217637D02*
X0033128Y0217637D01*
X0033128Y0216039D02*
X0081068Y0216039D01*
X0079470Y0214440D02*
X0033128Y0214440D01*
X0033128Y0212842D02*
X0077871Y0212842D01*
X0076273Y0211243D02*
X0033128Y0211243D01*
X0033128Y0209645D02*
X0074674Y0209645D01*
X0073916Y0208046D02*
X0033128Y0208046D01*
X0033128Y0206448D02*
X0073916Y0206448D01*
X0073916Y0204849D02*
X0033128Y0204849D01*
X0033128Y0203251D02*
X0073916Y0203251D01*
X0073916Y0201652D02*
X0033128Y0201652D01*
X0033128Y0200053D02*
X0073916Y0200053D01*
X0073916Y0198455D02*
X0033128Y0198455D01*
X0033128Y0196856D02*
X0073916Y0196856D01*
X0073916Y0195258D02*
X0033128Y0195258D01*
X0033128Y0193659D02*
X0073916Y0193659D01*
X0073916Y0192061D02*
X0033128Y0192061D01*
X0033128Y0190462D02*
X0073916Y0190462D01*
X0073916Y0188864D02*
X0033128Y0188864D01*
X0033128Y0187265D02*
X0073916Y0187265D01*
X0073916Y0185667D02*
X0072635Y0185667D01*
X0069784Y0185667D02*
X0062635Y0185667D01*
X0062065Y0185903D02*
X0060354Y0185903D01*
X0058774Y0185248D01*
X0057564Y0184039D01*
X0056909Y0182458D01*
X0056909Y0180748D01*
X0057564Y0179167D01*
X0058774Y0177958D01*
X0060354Y0177303D01*
X0062065Y0177303D01*
X0063645Y0177958D01*
X0064855Y0179167D01*
X0065509Y0180748D01*
X0065509Y0182458D01*
X0064855Y0184039D01*
X0063645Y0185248D01*
X0062065Y0185903D01*
X0059784Y0185667D02*
X0052635Y0185667D01*
X0052065Y0185903D02*
X0050354Y0185903D01*
X0048774Y0185248D01*
X0047564Y0184039D01*
X0046909Y0182458D01*
X0046909Y0180748D01*
X0047564Y0179167D01*
X0048774Y0177958D01*
X0050354Y0177303D01*
X0052065Y0177303D01*
X0053645Y0177958D01*
X0054855Y0179167D01*
X0055509Y0180748D01*
X0055509Y0182458D01*
X0054855Y0184039D01*
X0053645Y0185248D01*
X0052065Y0185903D01*
X0049784Y0185667D02*
X0043587Y0185667D01*
X0043673Y0185623D02*
X0043014Y0185959D01*
X0042310Y0186187D01*
X0041579Y0186303D01*
X0041359Y0186303D01*
X0041359Y0181753D01*
X0041059Y0181753D01*
X0041059Y0181453D01*
X0036509Y0181453D01*
X0036509Y0181233D01*
X0036625Y0180503D01*
X0036854Y0179799D01*
X0037190Y0179140D01*
X0037624Y0178541D01*
X0038148Y0178018D01*
X0038746Y0177583D01*
X0039405Y0177247D01*
X0040109Y0177019D01*
X0040840Y0176903D01*
X0041059Y0176903D01*
X0041059Y0181453D01*
X0041359Y0181453D01*
X0041359Y0176903D01*
X0041579Y0176903D01*
X0042310Y0177019D01*
X0043014Y0177247D01*
X0043673Y0177583D01*
X0044271Y0178018D01*
X0044794Y0178541D01*
X0045229Y0179140D01*
X0045565Y0179799D01*
X0045794Y0180503D01*
X0045909Y0181233D01*
X0045909Y0181453D01*
X0041360Y0181453D01*
X0041360Y0181753D01*
X0045909Y0181753D01*
X0045909Y0181973D01*
X0045794Y0182704D01*
X0045565Y0183407D01*
X0045229Y0184066D01*
X0044794Y0184665D01*
X0044271Y0185188D01*
X0043673Y0185623D01*
X0045228Y0184068D02*
X0047594Y0184068D01*
X0046914Y0182470D02*
X0045831Y0182470D01*
X0045852Y0180871D02*
X0046909Y0180871D01*
X0047520Y0179273D02*
X0045297Y0179273D01*
X0043798Y0177674D02*
X0049458Y0177674D01*
X0052961Y0177674D02*
X0059458Y0177674D01*
X0057520Y0179273D02*
X0054898Y0179273D01*
X0055509Y0180871D02*
X0056909Y0180871D01*
X0056914Y0182470D02*
X0055505Y0182470D01*
X0054825Y0184068D02*
X0057594Y0184068D01*
X0064825Y0184068D02*
X0067594Y0184068D01*
X0066914Y0182470D02*
X0065505Y0182470D01*
X0065509Y0180871D02*
X0066909Y0180871D01*
X0067520Y0179273D02*
X0064898Y0179273D01*
X0062961Y0177674D02*
X0069458Y0177674D01*
X0074050Y0176076D02*
X0033128Y0176076D01*
X0033128Y0177674D02*
X0038621Y0177674D01*
X0037122Y0179273D02*
X0033128Y0179273D01*
X0033128Y0180871D02*
X0036567Y0180871D01*
X0036509Y0181753D02*
X0041059Y0181753D01*
X0041059Y0186303D01*
X0040840Y0186303D01*
X0040109Y0186187D01*
X0039405Y0185959D01*
X0038746Y0185623D01*
X0038148Y0185188D01*
X0037624Y0184665D01*
X0037190Y0184066D01*
X0036854Y0183407D01*
X0036625Y0182704D01*
X0036509Y0181973D01*
X0036509Y0181753D01*
X0036588Y0182470D02*
X0033128Y0182470D01*
X0033128Y0184068D02*
X0037191Y0184068D01*
X0038832Y0185667D02*
X0033128Y0185667D01*
X0041059Y0185667D02*
X0041359Y0185667D01*
X0041359Y0184068D02*
X0041059Y0184068D01*
X0041059Y0182470D02*
X0041359Y0182470D01*
X0041359Y0180871D02*
X0041059Y0180871D01*
X0041059Y0179273D02*
X0041359Y0179273D01*
X0041359Y0177674D02*
X0041059Y0177674D01*
X0033128Y0174477D02*
X0075648Y0174477D01*
X0077247Y0172879D02*
X0033128Y0172879D01*
X0033128Y0171280D02*
X0078845Y0171280D01*
X0080444Y0169682D02*
X0033128Y0169682D01*
X0033128Y0168083D02*
X0082042Y0168083D01*
X0060583Y0166485D02*
X0033128Y0166485D01*
X0033128Y0164886D02*
X0058985Y0164886D01*
X0057386Y0163288D02*
X0033128Y0163288D01*
X0033128Y0161689D02*
X0055788Y0161689D01*
X0054189Y0160091D02*
X0033128Y0160091D01*
X0033128Y0158492D02*
X0052591Y0158492D01*
X0050992Y0156894D02*
X0033128Y0156894D01*
X0033128Y0155295D02*
X0049394Y0155295D01*
X0047795Y0153697D02*
X0033128Y0153697D01*
X0033128Y0152098D02*
X0046197Y0152098D01*
X0044598Y0150500D02*
X0033128Y0150500D01*
X0033128Y0148901D02*
X0043000Y0148901D01*
X0041401Y0147303D02*
X0033128Y0147303D01*
X0033128Y0145704D02*
X0040193Y0145704D01*
X0039531Y0144106D02*
X0033128Y0144106D01*
X0033128Y0142507D02*
X0039494Y0142507D01*
X0039494Y0140909D02*
X0033128Y0140909D01*
X0033128Y0139310D02*
X0039494Y0139310D01*
X0039494Y0137712D02*
X0033128Y0137712D01*
X0033128Y0136113D02*
X0039494Y0136113D01*
X0039494Y0134515D02*
X0033128Y0134515D01*
X0033128Y0132916D02*
X0039494Y0132916D01*
X0039494Y0131317D02*
X0033128Y0131317D01*
X0033128Y0129719D02*
X0039494Y0129719D01*
X0039494Y0128120D02*
X0033128Y0128120D01*
X0033128Y0126522D02*
X0039494Y0126522D01*
X0039494Y0124923D02*
X0033128Y0124923D01*
X0033128Y0123325D02*
X0039494Y0123325D01*
X0039494Y0121726D02*
X0033128Y0121726D01*
X0033128Y0120128D02*
X0039494Y0120128D01*
X0039494Y0118529D02*
X0033128Y0118529D01*
X0033128Y0116931D02*
X0039494Y0116931D01*
X0039494Y0115332D02*
X0033128Y0115332D01*
X0033128Y0113734D02*
X0039494Y0113734D01*
X0039494Y0112135D02*
X0033128Y0112135D01*
X0033128Y0110537D02*
X0039494Y0110537D01*
X0039494Y0108938D02*
X0033128Y0108938D01*
X0033128Y0107340D02*
X0039494Y0107340D01*
X0039494Y0105741D02*
X0033128Y0105741D01*
X0033128Y0104143D02*
X0039494Y0104143D01*
X0039494Y0102544D02*
X0033128Y0102544D01*
X0033128Y0100946D02*
X0039494Y0100946D01*
X0039494Y0099347D02*
X0033128Y0099347D01*
X0033128Y0097749D02*
X0039494Y0097749D01*
X0039494Y0096150D02*
X0033128Y0096150D01*
X0033128Y0094552D02*
X0039494Y0094552D01*
X0039494Y0092953D02*
X0033128Y0092953D01*
X0033128Y0091355D02*
X0039494Y0091355D01*
X0040042Y0089756D02*
X0033128Y0089756D01*
X0033128Y0088158D02*
X0041037Y0088158D01*
X0042269Y0086926D02*
X0042269Y0086926D01*
X0042636Y0086559D02*
X0033128Y0086559D01*
X0033128Y0084961D02*
X0044234Y0084961D01*
X0045833Y0083362D02*
X0033128Y0083362D01*
X0033128Y0081764D02*
X0047431Y0081764D01*
X0049030Y0080165D02*
X0033128Y0080165D01*
X0033128Y0078567D02*
X0050628Y0078567D01*
X0052227Y0076968D02*
X0033128Y0076968D01*
X0033128Y0075370D02*
X0053825Y0075370D01*
X0053696Y0073771D02*
X0033128Y0073771D01*
X0033128Y0072173D02*
X0053696Y0072173D01*
X0054136Y0070574D02*
X0033128Y0070574D01*
X0033128Y0068976D02*
X0054798Y0068976D01*
X0056286Y0067377D02*
X0033128Y0067377D01*
X0033128Y0065779D02*
X0059058Y0065779D01*
X0063834Y0065779D02*
X0080514Y0065779D01*
X0081361Y0065428D02*
X0084444Y0065428D01*
X0087292Y0066608D01*
X0089472Y0068788D01*
X0090652Y0071636D01*
X0090652Y0074720D01*
X0089472Y0077568D01*
X0087292Y0079748D01*
X0084444Y0080928D01*
X0081361Y0080928D01*
X0078512Y0079748D01*
X0076332Y0077568D01*
X0075152Y0074720D01*
X0075152Y0071636D01*
X0076332Y0068788D01*
X0078512Y0066608D01*
X0081361Y0065428D01*
X0085290Y0065779D02*
X0205607Y0065779D01*
X0205412Y0067377D02*
X0088062Y0067377D01*
X0089550Y0068976D02*
X0205412Y0068976D01*
X0205412Y0070574D02*
X0090212Y0070574D01*
X0090652Y0072173D02*
X0205412Y0072173D01*
X0205412Y0073771D02*
X0090652Y0073771D01*
X0090383Y0075370D02*
X0205412Y0075370D01*
X0205412Y0076968D02*
X0089721Y0076968D01*
X0088474Y0078567D02*
X0205412Y0078567D01*
X0205412Y0080165D02*
X0086286Y0080165D01*
X0079519Y0080165D02*
X0066818Y0080165D01*
X0067480Y0078567D02*
X0077331Y0078567D01*
X0076084Y0076968D02*
X0068264Y0076968D01*
X0068926Y0075370D02*
X0075422Y0075370D01*
X0075152Y0073771D02*
X0069196Y0073771D01*
X0069196Y0072173D02*
X0075152Y0072173D01*
X0075592Y0070574D02*
X0068756Y0070574D01*
X0068094Y0068976D02*
X0076255Y0068976D01*
X0077743Y0067377D02*
X0066605Y0067377D01*
X0064656Y0062030D02*
X0058236Y0062030D01*
X0053696Y0057490D01*
X0053696Y0051070D01*
X0058236Y0046530D01*
X0064656Y0046530D01*
X0069196Y0051070D01*
X0069196Y0057490D01*
X0064656Y0062030D01*
X0065703Y0060983D02*
X0078832Y0060983D01*
X0078512Y0060850D02*
X0076332Y0058670D01*
X0075152Y0055822D01*
X0075152Y0052739D01*
X0076332Y0049890D01*
X0078512Y0047710D01*
X0081361Y0046530D01*
X0084444Y0046530D01*
X0087292Y0047710D01*
X0089472Y0049890D01*
X0090652Y0052739D01*
X0090652Y0055822D01*
X0089472Y0058670D01*
X0087292Y0060850D01*
X0084444Y0062030D01*
X0081361Y0062030D01*
X0078512Y0060850D01*
X0077046Y0059384D02*
X0067302Y0059384D01*
X0068900Y0057786D02*
X0075966Y0057786D01*
X0075304Y0056187D02*
X0069196Y0056187D01*
X0069196Y0054589D02*
X0075152Y0054589D01*
X0075152Y0052990D02*
X0069196Y0052990D01*
X0069196Y0051392D02*
X0075710Y0051392D01*
X0076429Y0049793D02*
X0067919Y0049793D01*
X0066320Y0048195D02*
X0078028Y0048195D01*
X0081201Y0046596D02*
X0064722Y0046596D01*
X0058169Y0046596D02*
X0033128Y0046596D01*
X0033128Y0044998D02*
X0196703Y0044998D01*
X0196703Y0044236D02*
X0197523Y0043416D01*
X0198478Y0043416D01*
X0198478Y0041920D01*
X0196069Y0039511D01*
X0196069Y0035742D01*
X0198734Y0033077D01*
X0202504Y0033077D01*
X0205169Y0035742D01*
X0205169Y0039511D01*
X0202878Y0041802D01*
X0202878Y0043416D01*
X0203833Y0043416D01*
X0204653Y0044236D01*
X0204653Y0050545D01*
X0203833Y0051365D01*
X0197523Y0051365D01*
X0196703Y0050545D01*
X0196703Y0044236D01*
X0198478Y0043399D02*
X0033128Y0043399D01*
X0033128Y0041801D02*
X0198358Y0041801D01*
X0196760Y0040202D02*
X0033128Y0040202D01*
X0033128Y0038604D02*
X0196069Y0038604D01*
X0196069Y0037005D02*
X0033128Y0037005D01*
X0033128Y0035407D02*
X0196404Y0035407D01*
X0198003Y0033808D02*
X0033128Y0033808D01*
X0033128Y0032210D02*
X0423228Y0032210D01*
X0423228Y0033808D02*
X0303235Y0033808D01*
X0302504Y0033077D02*
X0305169Y0035742D01*
X0305169Y0039511D01*
X0302878Y0041802D01*
X0302878Y0043416D01*
X0303833Y0043416D01*
X0304653Y0044236D01*
X0304653Y0050545D01*
X0303833Y0051365D01*
X0297523Y0051365D01*
X0296703Y0050545D01*
X0296703Y0044236D01*
X0297523Y0043416D01*
X0298478Y0043416D01*
X0298478Y0041920D01*
X0296069Y0039511D01*
X0296069Y0035742D01*
X0298734Y0033077D01*
X0302504Y0033077D01*
X0304834Y0035407D02*
X0423228Y0035407D01*
X0423228Y0037005D02*
X0305169Y0037005D01*
X0305169Y0038604D02*
X0369260Y0038604D01*
X0369208Y0038694D02*
X0369445Y0038284D01*
X0369780Y0037949D01*
X0370190Y0037712D01*
X0370648Y0037589D01*
X0372666Y0037589D01*
X0372666Y0041170D01*
X0369085Y0041170D01*
X0369085Y0039152D01*
X0369208Y0038694D01*
X0369085Y0040202D02*
X0304478Y0040202D01*
X0302879Y0041801D02*
X0369085Y0041801D01*
X0369085Y0041170D02*
X0369085Y0043188D01*
X0369208Y0043646D01*
X0369445Y0044056D01*
X0369780Y0044392D01*
X0370190Y0044629D01*
X0370648Y0044751D01*
X0372666Y0044751D01*
X0372666Y0041170D01*
X0372666Y0041170D01*
X0372666Y0041170D01*
X0369085Y0041170D01*
X0369142Y0043399D02*
X0357327Y0043399D01*
X0357350Y0043483D02*
X0357350Y0045501D01*
X0357350Y0047519D01*
X0357227Y0047977D01*
X0356990Y0048387D01*
X0356655Y0048722D01*
X0356244Y0048959D01*
X0355787Y0049082D01*
X0353769Y0049082D01*
X0353769Y0045501D01*
X0357350Y0045501D01*
X0353769Y0045501D01*
X0353769Y0045501D01*
X0353768Y0045501D01*
X0353768Y0045501D01*
X0350187Y0045501D01*
X0350187Y0047519D01*
X0350310Y0047977D01*
X0350547Y0048387D01*
X0350882Y0048722D01*
X0351293Y0048959D01*
X0351750Y0049082D01*
X0353768Y0049082D01*
X0353768Y0045501D01*
X0350187Y0045501D01*
X0350187Y0043483D01*
X0350310Y0043025D01*
X0350547Y0042614D01*
X0350882Y0042279D01*
X0351293Y0042042D01*
X0351750Y0041920D01*
X0353768Y0041920D01*
X0353768Y0045501D01*
X0353769Y0045501D01*
X0353769Y0041920D01*
X0355787Y0041920D01*
X0356244Y0042042D01*
X0356655Y0042279D01*
X0356990Y0042614D01*
X0357227Y0043025D01*
X0357350Y0043483D01*
X0357350Y0044998D02*
X0399606Y0044998D01*
X0399606Y0044360D02*
X0399606Y0046642D01*
X0400480Y0048751D01*
X0402094Y0050364D01*
X0404202Y0051238D01*
X0406484Y0051238D01*
X0408593Y0050364D01*
X0410207Y0048751D01*
X0411080Y0046642D01*
X0411080Y0044360D01*
X0410207Y0042251D01*
X0408593Y0040637D01*
X0406484Y0039764D01*
X0404202Y0039764D01*
X0402094Y0040637D01*
X0400480Y0042251D01*
X0399606Y0044360D01*
X0400004Y0043399D02*
X0376191Y0043399D01*
X0376247Y0043188D02*
X0376125Y0043646D01*
X0375888Y0044056D01*
X0375552Y0044392D01*
X0375142Y0044629D01*
X0374684Y0044751D01*
X0372666Y0044751D01*
X0372666Y0041170D01*
X0372666Y0037589D01*
X0374684Y0037589D01*
X0375142Y0037712D01*
X0375552Y0037949D01*
X0375888Y0038284D01*
X0376125Y0038694D01*
X0376247Y0039152D01*
X0376247Y0041170D01*
X0372666Y0041170D01*
X0372666Y0041170D01*
X0372666Y0041170D01*
X0376247Y0041170D01*
X0376247Y0043188D01*
X0376247Y0041801D02*
X0400930Y0041801D01*
X0403143Y0040202D02*
X0376247Y0040202D01*
X0376072Y0038604D02*
X0423228Y0038604D01*
X0423228Y0040202D02*
X0407543Y0040202D01*
X0409757Y0041801D02*
X0423228Y0041801D01*
X0423228Y0043399D02*
X0410683Y0043399D01*
X0411080Y0044998D02*
X0423228Y0044998D01*
X0423228Y0046596D02*
X0411080Y0046596D01*
X0410437Y0048195D02*
X0423228Y0048195D01*
X0423228Y0049793D02*
X0409164Y0049793D01*
X0401523Y0049793D02*
X0346716Y0049793D01*
X0345118Y0048195D02*
X0350436Y0048195D01*
X0350187Y0046596D02*
X0343519Y0046596D01*
X0342776Y0045853D02*
X0375463Y0078540D01*
X0377359Y0078540D01*
X0377359Y0076604D01*
X0378179Y0075784D01*
X0382901Y0075784D01*
X0383721Y0076604D01*
X0383721Y0081326D01*
X0382901Y0082146D01*
X0380187Y0082146D01*
X0379794Y0082540D01*
X0373806Y0082540D01*
X0372635Y0081369D01*
X0342133Y0050867D01*
X0341956Y0051044D01*
X0337234Y0051044D01*
X0336414Y0050224D01*
X0336414Y0045502D01*
X0337234Y0044682D01*
X0338767Y0044682D01*
X0339161Y0044288D01*
X0341211Y0044288D01*
X0341605Y0044682D01*
X0341956Y0044682D01*
X0342776Y0045502D01*
X0342776Y0045853D01*
X0342272Y0044998D02*
X0350187Y0044998D01*
X0350210Y0043399D02*
X0302878Y0043399D01*
X0304653Y0044998D02*
X0336918Y0044998D01*
X0336414Y0046596D02*
X0304653Y0046596D01*
X0304653Y0048195D02*
X0336414Y0048195D01*
X0336414Y0049793D02*
X0304653Y0049793D01*
X0300678Y0047391D02*
X0300678Y0037686D01*
X0300619Y0037627D01*
X0296069Y0037005D02*
X0294933Y0037005D01*
X0294933Y0035742D02*
X0292267Y0033077D01*
X0288498Y0033077D01*
X0285833Y0035742D01*
X0285833Y0039511D01*
X0288478Y0042157D01*
X0288478Y0043416D01*
X0287523Y0043416D01*
X0286703Y0044236D01*
X0286703Y0050545D01*
X0287523Y0051365D01*
X0293833Y0051365D01*
X0294653Y0050545D01*
X0294653Y0044236D01*
X0293833Y0043416D01*
X0292878Y0043416D01*
X0292878Y0041566D01*
X0294933Y0039511D01*
X0294933Y0035742D01*
X0294597Y0035407D02*
X0296404Y0035407D01*
X0298003Y0033808D02*
X0292999Y0033808D01*
X0290383Y0037627D02*
X0290678Y0037922D01*
X0290678Y0047391D01*
X0294653Y0046596D02*
X0296703Y0046596D01*
X0296703Y0044998D02*
X0294653Y0044998D01*
X0292878Y0043399D02*
X0298478Y0043399D01*
X0298358Y0041801D02*
X0292878Y0041801D01*
X0294242Y0040202D02*
X0296760Y0040202D01*
X0296069Y0038604D02*
X0294933Y0038604D01*
X0288122Y0041801D02*
X0282878Y0041801D01*
X0282878Y0041724D02*
X0282878Y0043416D01*
X0283833Y0043416D01*
X0284653Y0044236D01*
X0284653Y0050545D01*
X0283833Y0051365D01*
X0277523Y0051365D01*
X0276703Y0050545D01*
X0276703Y0044236D01*
X0277523Y0043416D01*
X0278478Y0043416D01*
X0278478Y0041999D01*
X0275990Y0039511D01*
X0275990Y0035742D01*
X0278655Y0033077D01*
X0282425Y0033077D01*
X0285090Y0035742D01*
X0285090Y0039511D01*
X0282878Y0041724D01*
X0282878Y0043399D02*
X0288478Y0043399D01*
X0286703Y0044998D02*
X0284653Y0044998D01*
X0284653Y0046596D02*
X0286703Y0046596D01*
X0286703Y0048195D02*
X0284653Y0048195D01*
X0284653Y0049793D02*
X0286703Y0049793D01*
X0280678Y0047391D02*
X0280678Y0037765D01*
X0280540Y0037627D01*
X0275990Y0037005D02*
X0275248Y0037005D01*
X0275248Y0035742D02*
X0272582Y0033077D01*
X0268813Y0033077D01*
X0266148Y0035742D01*
X0266148Y0039511D01*
X0268478Y0041842D01*
X0268478Y0043416D01*
X0267523Y0043416D01*
X0266703Y0044236D01*
X0266703Y0050545D01*
X0267523Y0051365D01*
X0273833Y0051365D01*
X0274653Y0050545D01*
X0274653Y0044236D01*
X0273833Y0043416D01*
X0272878Y0043416D01*
X0272878Y0041881D01*
X0275248Y0039511D01*
X0275248Y0035742D01*
X0274912Y0035407D02*
X0276325Y0035407D01*
X0277924Y0033808D02*
X0273314Y0033808D01*
X0270698Y0037627D02*
X0270678Y0037646D01*
X0270678Y0047391D01*
X0274653Y0046596D02*
X0276703Y0046596D01*
X0276703Y0044998D02*
X0274653Y0044998D01*
X0272878Y0043399D02*
X0278478Y0043399D01*
X0278280Y0041801D02*
X0272958Y0041801D01*
X0274557Y0040202D02*
X0276681Y0040202D01*
X0275990Y0038604D02*
X0275248Y0038604D01*
X0268437Y0041801D02*
X0262878Y0041801D01*
X0262878Y0041645D02*
X0262878Y0043416D01*
X0263833Y0043416D01*
X0264653Y0044236D01*
X0264653Y0050545D01*
X0263833Y0051365D01*
X0257523Y0051365D01*
X0256703Y0050545D01*
X0256703Y0044236D01*
X0257523Y0043416D01*
X0258478Y0043416D01*
X0258478Y0042078D01*
X0255911Y0039511D01*
X0255911Y0035742D01*
X0258577Y0033077D01*
X0262346Y0033077D01*
X0265011Y0035742D01*
X0265011Y0039511D01*
X0262878Y0041645D01*
X0262878Y0043399D02*
X0268478Y0043399D01*
X0266703Y0044998D02*
X0264653Y0044998D01*
X0264653Y0046596D02*
X0266703Y0046596D01*
X0266703Y0048195D02*
X0264653Y0048195D01*
X0264653Y0049793D02*
X0266703Y0049793D01*
X0260678Y0047391D02*
X0260678Y0037843D01*
X0260461Y0037627D01*
X0255911Y0037005D02*
X0255169Y0037005D01*
X0255169Y0035742D02*
X0252504Y0033077D01*
X0248734Y0033077D01*
X0246069Y0035742D01*
X0246069Y0039511D01*
X0248478Y0041920D01*
X0248478Y0043416D01*
X0247523Y0043416D01*
X0246703Y0044236D01*
X0246703Y0050545D01*
X0247523Y0051365D01*
X0253833Y0051365D01*
X0254653Y0050545D01*
X0254653Y0044236D01*
X0253833Y0043416D01*
X0252878Y0043416D01*
X0252878Y0041802D01*
X0255169Y0039511D01*
X0255169Y0035742D01*
X0254834Y0035407D02*
X0256247Y0035407D01*
X0257845Y0033808D02*
X0253235Y0033808D01*
X0250619Y0037627D02*
X0250678Y0037686D01*
X0250678Y0047391D01*
X0254653Y0046596D02*
X0256703Y0046596D01*
X0256703Y0044998D02*
X0254653Y0044998D01*
X0252878Y0043399D02*
X0258478Y0043399D01*
X0258201Y0041801D02*
X0252879Y0041801D01*
X0254478Y0040202D02*
X0256602Y0040202D01*
X0255911Y0038604D02*
X0255169Y0038604D01*
X0248358Y0041801D02*
X0232801Y0041801D01*
X0232578Y0043399D02*
X0236974Y0043399D01*
X0236998Y0043375D02*
X0237408Y0043138D01*
X0237866Y0043016D01*
X0240678Y0043016D01*
X0243490Y0043016D01*
X0243948Y0043138D01*
X0244358Y0043375D01*
X0244693Y0043711D01*
X0244930Y0044121D01*
X0245053Y0044579D01*
X0245053Y0047390D01*
X0240678Y0047390D01*
X0240678Y0043016D01*
X0240678Y0047390D01*
X0240678Y0047390D01*
X0240678Y0047391D01*
X0240678Y0047391D01*
X0240678Y0051765D01*
X0243490Y0051765D01*
X0243948Y0051643D01*
X0244358Y0051406D01*
X0244693Y0051071D01*
X0244930Y0050660D01*
X0245053Y0050202D01*
X0245053Y0047391D01*
X0240678Y0047391D01*
X0240678Y0051765D01*
X0237866Y0051765D01*
X0237408Y0051643D01*
X0236998Y0051406D01*
X0236663Y0051071D01*
X0236426Y0050660D01*
X0236303Y0050202D01*
X0236303Y0047391D01*
X0240678Y0047391D01*
X0240678Y0047390D01*
X0236303Y0047390D01*
X0236303Y0044579D01*
X0236426Y0044121D01*
X0236663Y0043711D01*
X0236998Y0043375D01*
X0236303Y0044998D02*
X0234653Y0044998D01*
X0234653Y0046596D02*
X0236303Y0046596D01*
X0236303Y0048195D02*
X0234653Y0048195D01*
X0234653Y0049793D02*
X0236303Y0049793D01*
X0236984Y0051392D02*
X0228517Y0051392D01*
X0226919Y0052990D02*
X0344257Y0052990D01*
X0345855Y0054589D02*
X0225320Y0054589D01*
X0223722Y0056187D02*
X0347454Y0056187D01*
X0349052Y0057786D02*
X0222123Y0057786D01*
X0220525Y0059384D02*
X0350651Y0059384D01*
X0352249Y0060983D02*
X0218926Y0060983D01*
X0217328Y0062582D02*
X0353848Y0062582D01*
X0355446Y0064180D02*
X0215729Y0064180D01*
X0214130Y0065779D02*
X0357045Y0065779D01*
X0358643Y0067377D02*
X0212532Y0067377D01*
X0211180Y0068976D02*
X0281296Y0068976D01*
X0281296Y0070574D02*
X0211180Y0070574D01*
X0211180Y0072173D02*
X0281296Y0072173D01*
X0281615Y0073771D02*
X0211180Y0073771D01*
X0211180Y0075370D02*
X0281449Y0075370D01*
X0279850Y0076968D02*
X0211180Y0076968D01*
X0211180Y0078567D02*
X0278252Y0078567D01*
X0276653Y0080165D02*
X0211180Y0080165D01*
X0211180Y0081764D02*
X0275055Y0081764D01*
X0273456Y0083362D02*
X0225661Y0083362D01*
X0225360Y0083209D02*
X0225963Y0083516D01*
X0226511Y0083914D01*
X0226989Y0084392D01*
X0227387Y0084940D01*
X0227694Y0085543D01*
X0227904Y0086187D01*
X0228009Y0086855D01*
X0228009Y0087194D01*
X0228009Y0087532D01*
X0227904Y0088201D01*
X0227694Y0088844D01*
X0227387Y0089447D01*
X0226989Y0089995D01*
X0226511Y0090474D01*
X0225963Y0090871D01*
X0225360Y0091179D01*
X0224716Y0091388D01*
X0224048Y0091494D01*
X0221209Y0091494D01*
X0218371Y0091494D01*
X0217703Y0091388D01*
X0217059Y0091179D01*
X0216456Y0090871D01*
X0215908Y0090474D01*
X0215430Y0089995D01*
X0215032Y0089447D01*
X0214724Y0088844D01*
X0214515Y0088201D01*
X0214409Y0087532D01*
X0214409Y0087194D01*
X0221209Y0087194D01*
X0221209Y0087194D01*
X0221209Y0091494D01*
X0221209Y0087194D01*
X0221209Y0087194D01*
X0214409Y0087194D01*
X0214409Y0086855D01*
X0214515Y0086187D01*
X0214724Y0085543D01*
X0215032Y0084940D01*
X0215430Y0084392D01*
X0215908Y0083914D01*
X0216456Y0083516D01*
X0217059Y0083209D01*
X0217703Y0083000D01*
X0218371Y0082894D01*
X0221209Y0082894D01*
X0221209Y0087194D01*
X0221209Y0087194D01*
X0221210Y0087194D02*
X0228009Y0087194D01*
X0221210Y0087194D01*
X0221210Y0087194D01*
X0221209Y0087194D02*
X0221209Y0082894D01*
X0224048Y0082894D01*
X0224716Y0083000D01*
X0225360Y0083209D01*
X0227398Y0084961D02*
X0271858Y0084961D01*
X0270259Y0086559D02*
X0227963Y0086559D01*
X0227910Y0088158D02*
X0269979Y0088158D01*
X0269979Y0089756D02*
X0227163Y0089756D01*
X0224818Y0091355D02*
X0269979Y0091355D01*
X0269979Y0092953D02*
X0211180Y0092953D01*
X0211180Y0091355D02*
X0217601Y0091355D01*
X0215256Y0089756D02*
X0211180Y0089756D01*
X0211180Y0088158D02*
X0214509Y0088158D01*
X0214456Y0086559D02*
X0211180Y0086559D01*
X0211180Y0084961D02*
X0215021Y0084961D01*
X0216758Y0083362D02*
X0211180Y0083362D01*
X0205412Y0083362D02*
X0063934Y0083362D01*
X0062336Y0084961D02*
X0205412Y0084961D01*
X0205412Y0086559D02*
X0060737Y0086559D01*
X0059139Y0088158D02*
X0205412Y0088158D01*
X0205412Y0089756D02*
X0057540Y0089756D01*
X0055942Y0091355D02*
X0205412Y0091355D01*
X0205412Y0092953D02*
X0156065Y0092953D01*
X0156261Y0093067D02*
X0156596Y0093402D01*
X0156833Y0093812D01*
X0156956Y0094270D01*
X0156956Y0096288D01*
X0153375Y0096288D01*
X0153375Y0096288D01*
X0153375Y0092707D01*
X0155393Y0092707D01*
X0155851Y0092830D01*
X0156261Y0093067D01*
X0156956Y0094552D02*
X0205412Y0094552D01*
X0205412Y0096150D02*
X0156956Y0096150D01*
X0156956Y0096288D02*
X0156956Y0098306D01*
X0156833Y0098764D01*
X0156596Y0099175D01*
X0156261Y0099510D01*
X0155851Y0099747D01*
X0155393Y0099869D01*
X0153375Y0099869D01*
X0153375Y0096288D01*
X0153375Y0096288D01*
X0156956Y0096288D01*
X0156956Y0097749D02*
X0205412Y0097749D01*
X0205412Y0099347D02*
X0156423Y0099347D01*
X0153375Y0099347D02*
X0153375Y0099347D01*
X0153375Y0099869D02*
X0151357Y0099869D01*
X0150899Y0099747D01*
X0150488Y0099510D01*
X0150153Y0099175D01*
X0149916Y0098764D01*
X0149794Y0098306D01*
X0149794Y0096288D01*
X0149794Y0094270D01*
X0149916Y0093812D01*
X0150153Y0093402D01*
X0150488Y0093067D01*
X0150899Y0092830D01*
X0151357Y0092707D01*
X0153375Y0092707D01*
X0153375Y0096288D01*
X0153375Y0096288D01*
X0149794Y0096288D01*
X0153375Y0096288D01*
X0153375Y0096288D01*
X0153375Y0099869D01*
X0153375Y0097749D02*
X0153375Y0097749D01*
X0153375Y0096150D02*
X0153375Y0096150D01*
X0153375Y0094552D02*
X0153375Y0094552D01*
X0153375Y0092953D02*
X0153375Y0092953D01*
X0150685Y0092953D02*
X0054343Y0092953D01*
X0052745Y0094552D02*
X0149794Y0094552D01*
X0149794Y0096150D02*
X0052294Y0096150D01*
X0052294Y0097749D02*
X0080942Y0097749D01*
X0080434Y0097885D02*
X0081466Y0097608D01*
X0082260Y0097504D01*
X0082260Y0104819D01*
X0083860Y0104819D01*
X0083860Y0106419D01*
X0091175Y0106419D01*
X0091070Y0107212D01*
X0090794Y0108244D01*
X0090385Y0109231D01*
X0089851Y0110157D01*
X0089200Y0111004D01*
X0088445Y0111760D01*
X0087597Y0112410D01*
X0086672Y0112944D01*
X0085685Y0113353D01*
X0084653Y0113629D01*
X0083860Y0113734D01*
X0106390Y0113734D01*
X0106306Y0113819D02*
X0107126Y0112998D01*
X0108922Y0112998D01*
X0108998Y0112967D01*
X0114718Y0112967D01*
X0118154Y0109531D01*
X0108998Y0109531D01*
X0108922Y0109499D01*
X0107126Y0109499D01*
X0106306Y0108679D01*
X0106306Y0106883D01*
X0106274Y0106807D01*
X0106274Y0105454D01*
X0106306Y0105378D01*
X0106306Y0103582D01*
X0107126Y0102762D01*
X0108922Y0102762D01*
X0108998Y0102731D01*
X0119012Y0102731D01*
X0119038Y0102741D01*
X0120766Y0101013D01*
X0121879Y0099900D01*
X0138217Y0099900D01*
X0140252Y0101935D01*
X0142085Y0101935D01*
X0142905Y0102756D01*
X0142905Y0104158D01*
X0142945Y0104199D01*
X0143182Y0104609D01*
X0143305Y0105067D01*
X0143305Y0105894D01*
X0142107Y0105894D01*
X0142107Y0105894D01*
X0142107Y0105895D01*
X0143305Y0105895D01*
X0143305Y0106722D01*
X0143182Y0107180D01*
X0142945Y0107590D01*
X0142905Y0107631D01*
X0142905Y0109033D01*
X0142085Y0109854D01*
X0137027Y0109854D01*
X0136387Y0109213D01*
X0135746Y0109854D01*
X0130689Y0109854D01*
X0130598Y0109763D01*
X0126445Y0109763D01*
X0120235Y0115973D01*
X0120235Y0123028D01*
X0122271Y0123028D01*
X0123091Y0123848D01*
X0123091Y0128570D01*
X0122271Y0129391D01*
X0121810Y0129391D01*
X0121810Y0143894D01*
X0122271Y0143894D01*
X0123091Y0144715D01*
X0123091Y0149437D01*
X0122271Y0150257D01*
X0117549Y0150257D01*
X0116729Y0149437D01*
X0116729Y0144715D01*
X0117549Y0143894D01*
X0118010Y0143894D01*
X0118010Y0129391D01*
X0117549Y0129391D01*
X0116729Y0128570D01*
X0116729Y0125715D01*
X0116435Y0125422D01*
X0116435Y0119548D01*
X0115603Y0119548D01*
X0115075Y0119767D01*
X0108998Y0119767D01*
X0108922Y0119735D01*
X0107126Y0119735D01*
X0106306Y0118915D01*
X0106306Y0117119D01*
X0106274Y0117043D01*
X0106274Y0115691D01*
X0106306Y0115615D01*
X0106306Y0113819D01*
X0106306Y0115332D02*
X0052294Y0115332D01*
X0052294Y0113734D02*
X0082260Y0113734D01*
X0081466Y0113629D01*
X0080434Y0113353D01*
X0079447Y0112944D01*
X0078522Y0112410D01*
X0077675Y0111760D01*
X0076919Y0111004D01*
X0076269Y0110157D01*
X0075735Y0109231D01*
X0075326Y0108244D01*
X0075049Y0107212D01*
X0074945Y0106419D01*
X0082260Y0106419D01*
X0082260Y0113734D01*
X0083860Y0113734D01*
X0083860Y0106419D01*
X0082260Y0106419D01*
X0082260Y0104819D01*
X0074945Y0104819D01*
X0075049Y0104025D01*
X0075326Y0102994D01*
X0075735Y0102007D01*
X0076269Y0101081D01*
X0076919Y0100234D01*
X0077675Y0099478D01*
X0078522Y0098828D01*
X0079447Y0098294D01*
X0080434Y0097885D01*
X0082260Y0097749D02*
X0083860Y0097749D01*
X0083860Y0097504D02*
X0084653Y0097608D01*
X0085685Y0097885D01*
X0086672Y0098294D01*
X0087597Y0098828D01*
X0088445Y0099478D01*
X0089200Y0100234D01*
X0089851Y0101081D01*
X0090385Y0102007D01*
X0090794Y0102994D01*
X0091070Y0104025D01*
X0091175Y0104819D01*
X0083860Y0104819D01*
X0083860Y0097504D01*
X0085177Y0097749D02*
X0149794Y0097749D01*
X0150326Y0099347D02*
X0088274Y0099347D01*
X0089747Y0100946D02*
X0120833Y0100946D01*
X0119235Y0102544D02*
X0090608Y0102544D01*
X0091086Y0104143D02*
X0106306Y0104143D01*
X0106274Y0105741D02*
X0083860Y0105741D01*
X0083860Y0104143D02*
X0082260Y0104143D01*
X0082260Y0105741D02*
X0069156Y0105741D01*
X0069156Y0107160D02*
X0069156Y0104077D01*
X0067976Y0101229D01*
X0065796Y0099049D01*
X0062948Y0097869D01*
X0059865Y0097869D01*
X0057016Y0099049D01*
X0054836Y0101229D01*
X0053656Y0104077D01*
X0053656Y0107160D01*
X0054836Y0110009D01*
X0057016Y0112189D01*
X0059865Y0113369D01*
X0062948Y0113369D01*
X0065796Y0112189D01*
X0067976Y0110009D01*
X0069156Y0107160D01*
X0069082Y0107340D02*
X0075083Y0107340D01*
X0075613Y0108938D02*
X0068420Y0108938D01*
X0067448Y0110537D02*
X0076561Y0110537D01*
X0078164Y0112135D02*
X0065850Y0112135D01*
X0056963Y0112135D02*
X0052294Y0112135D01*
X0052294Y0110537D02*
X0055364Y0110537D01*
X0054393Y0108938D02*
X0052294Y0108938D01*
X0052294Y0107340D02*
X0053731Y0107340D01*
X0053656Y0105741D02*
X0052294Y0105741D01*
X0052294Y0104143D02*
X0053656Y0104143D01*
X0054291Y0102544D02*
X0052294Y0102544D01*
X0052294Y0100946D02*
X0055119Y0100946D01*
X0056718Y0099347D02*
X0052294Y0099347D01*
X0066095Y0099347D02*
X0077845Y0099347D01*
X0076373Y0100946D02*
X0067693Y0100946D01*
X0068521Y0102544D02*
X0075512Y0102544D01*
X0075034Y0104143D02*
X0069156Y0104143D01*
X0082260Y0102544D02*
X0083860Y0102544D01*
X0083860Y0100946D02*
X0082260Y0100946D01*
X0082260Y0099347D02*
X0083860Y0099347D01*
X0083860Y0107340D02*
X0082260Y0107340D01*
X0082260Y0108938D02*
X0083860Y0108938D01*
X0083860Y0110537D02*
X0082260Y0110537D01*
X0082260Y0112135D02*
X0083860Y0112135D01*
X0087955Y0112135D02*
X0115549Y0112135D01*
X0117148Y0110537D02*
X0089559Y0110537D01*
X0090506Y0108938D02*
X0106565Y0108938D01*
X0106306Y0107340D02*
X0091036Y0107340D01*
X0106274Y0116931D02*
X0052294Y0116931D01*
X0052294Y0118529D02*
X0106306Y0118529D01*
X0104628Y0120174D02*
X0104865Y0120584D01*
X0104987Y0121042D01*
X0104987Y0123060D01*
X0104987Y0125078D01*
X0104865Y0125536D01*
X0104628Y0125946D01*
X0104293Y0126281D01*
X0103882Y0126518D01*
X0103424Y0126641D01*
X0101406Y0126641D01*
X0099388Y0126641D01*
X0098930Y0126518D01*
X0098520Y0126281D01*
X0098185Y0125946D01*
X0097948Y0125536D01*
X0097825Y0125078D01*
X0097825Y0123060D01*
X0101406Y0123060D01*
X0101406Y0123060D01*
X0101406Y0126641D01*
X0101406Y0123060D01*
X0101406Y0123060D01*
X0097825Y0123060D01*
X0097825Y0121042D01*
X0097948Y0120584D01*
X0098185Y0120174D01*
X0098520Y0119838D01*
X0098930Y0119601D01*
X0099388Y0119479D01*
X0101406Y0119479D01*
X0101406Y0123060D01*
X0101406Y0123060D01*
X0104987Y0123060D01*
X0101406Y0123060D01*
X0101406Y0123060D01*
X0101406Y0119479D01*
X0103424Y0119479D01*
X0103882Y0119601D01*
X0104293Y0119838D01*
X0104628Y0120174D01*
X0104582Y0120128D02*
X0116435Y0120128D01*
X0116435Y0121726D02*
X0104987Y0121726D01*
X0104987Y0123325D02*
X0116435Y0123325D01*
X0116435Y0124923D02*
X0104987Y0124923D01*
X0103868Y0126522D02*
X0116729Y0126522D01*
X0116729Y0128120D02*
X0087557Y0128120D01*
X0087542Y0128064D02*
X0087665Y0128522D01*
X0087665Y0130540D01*
X0084084Y0130540D01*
X0084084Y0130540D01*
X0087665Y0130540D01*
X0087665Y0132558D01*
X0087542Y0133016D01*
X0087305Y0133426D01*
X0086970Y0133762D01*
X0086559Y0133999D01*
X0086102Y0134121D01*
X0084084Y0134121D01*
X0084084Y0130540D01*
X0084084Y0126959D01*
X0086102Y0126959D01*
X0086559Y0127082D01*
X0086970Y0127319D01*
X0087305Y0127654D01*
X0087542Y0128064D01*
X0087665Y0129719D02*
X0118010Y0129719D01*
X0118010Y0131317D02*
X0087665Y0131317D01*
X0087569Y0132916D02*
X0118010Y0132916D01*
X0118010Y0134515D02*
X0052294Y0134515D01*
X0052294Y0136113D02*
X0118010Y0136113D01*
X0118010Y0137712D02*
X0052294Y0137712D01*
X0052294Y0139310D02*
X0118010Y0139310D01*
X0118010Y0140909D02*
X0053109Y0140909D01*
X0054708Y0142507D02*
X0118010Y0142507D01*
X0117338Y0144106D02*
X0109490Y0144106D01*
X0110099Y0145704D02*
X0116729Y0145704D01*
X0116729Y0147303D02*
X0110099Y0147303D01*
X0111431Y0148901D02*
X0116729Y0148901D01*
X0113029Y0150500D02*
X0144170Y0150500D01*
X0143501Y0148901D02*
X0123091Y0148901D01*
X0123091Y0147303D02*
X0143501Y0147303D01*
X0143501Y0145704D02*
X0123091Y0145704D01*
X0122482Y0144106D02*
X0171374Y0144106D01*
X0169776Y0145704D02*
X0156556Y0145704D01*
X0150194Y0145704D02*
X0149863Y0145704D01*
X0149863Y0147303D02*
X0150194Y0147303D01*
X0172973Y0142507D02*
X0121810Y0142507D01*
X0121810Y0140909D02*
X0174571Y0140909D01*
X0176170Y0139310D02*
X0121810Y0139310D01*
X0121810Y0137712D02*
X0177768Y0137712D01*
X0179367Y0136113D02*
X0121810Y0136113D01*
X0121810Y0134515D02*
X0180965Y0134515D01*
X0182564Y0132916D02*
X0121810Y0132916D01*
X0121810Y0131317D02*
X0184162Y0131317D01*
X0185761Y0129719D02*
X0121810Y0129719D01*
X0123091Y0128120D02*
X0187359Y0128120D01*
X0188958Y0126522D02*
X0123091Y0126522D01*
X0123091Y0124923D02*
X0190556Y0124923D01*
X0192155Y0123325D02*
X0122568Y0123325D01*
X0120235Y0121726D02*
X0193753Y0121726D01*
X0195352Y0120128D02*
X0120235Y0120128D01*
X0120235Y0118529D02*
X0196951Y0118529D01*
X0198549Y0116931D02*
X0120235Y0116931D01*
X0120876Y0115332D02*
X0200148Y0115332D01*
X0201746Y0113734D02*
X0122474Y0113734D01*
X0124073Y0112135D02*
X0203345Y0112135D01*
X0204943Y0110537D02*
X0125671Y0110537D01*
X0139263Y0100946D02*
X0205412Y0100946D01*
X0205412Y0102544D02*
X0142693Y0102544D01*
X0142905Y0104143D02*
X0205412Y0104143D01*
X0205412Y0105741D02*
X0143305Y0105741D01*
X0143090Y0107340D02*
X0205412Y0107340D01*
X0205412Y0108938D02*
X0142905Y0108938D01*
X0101406Y0120128D02*
X0101406Y0120128D01*
X0101406Y0121726D02*
X0101406Y0121726D01*
X0101406Y0123325D02*
X0101406Y0123325D01*
X0101406Y0124923D02*
X0101406Y0124923D01*
X0101406Y0126522D02*
X0101406Y0126522D01*
X0098944Y0126522D02*
X0052294Y0126522D01*
X0052294Y0128120D02*
X0080610Y0128120D01*
X0080625Y0128064D02*
X0080862Y0127654D01*
X0081197Y0127319D01*
X0081608Y0127082D01*
X0082065Y0126959D01*
X0084083Y0126959D01*
X0084083Y0130540D01*
X0080502Y0130540D01*
X0080502Y0128522D01*
X0080625Y0128064D01*
X0080502Y0129719D02*
X0052294Y0129719D01*
X0052294Y0131317D02*
X0080502Y0131317D01*
X0080502Y0130540D02*
X0084083Y0130540D01*
X0084083Y0130540D01*
X0084084Y0130540D01*
X0084083Y0130540D01*
X0084083Y0134121D01*
X0082065Y0134121D01*
X0081608Y0133999D01*
X0081197Y0133762D01*
X0080862Y0133426D01*
X0080625Y0133016D01*
X0080502Y0132558D01*
X0080502Y0130540D01*
X0080598Y0132916D02*
X0052294Y0132916D01*
X0052294Y0124923D02*
X0097825Y0124923D01*
X0097825Y0123325D02*
X0052294Y0123325D01*
X0052294Y0121726D02*
X0097825Y0121726D01*
X0098230Y0120128D02*
X0052294Y0120128D01*
X0084083Y0128120D02*
X0084084Y0128120D01*
X0084083Y0129719D02*
X0084084Y0129719D01*
X0084083Y0131317D02*
X0084084Y0131317D01*
X0084083Y0132916D02*
X0084084Y0132916D01*
X0104346Y0144106D02*
X0056306Y0144106D01*
X0057905Y0145704D02*
X0103737Y0145704D01*
X0103737Y0147303D02*
X0059503Y0147303D01*
X0061102Y0148901D02*
X0103737Y0148901D01*
X0104131Y0150500D02*
X0062700Y0150500D01*
X0064299Y0152098D02*
X0104131Y0152098D01*
X0104131Y0153697D02*
X0065897Y0153697D01*
X0141170Y0181643D02*
X0141209Y0181603D01*
X0141170Y0181643D02*
X0141170Y0190383D01*
X0161249Y0190383D02*
X0161249Y0181643D01*
X0161209Y0181603D01*
X0171091Y0181721D02*
X0171209Y0181603D01*
X0171091Y0181721D02*
X0171091Y0190383D01*
X0181259Y0190462D02*
X0195884Y0190462D01*
X0197482Y0188864D02*
X0181259Y0188864D01*
X0181259Y0187265D02*
X0199081Y0187265D01*
X0200679Y0185667D02*
X0181259Y0185667D01*
X0181259Y0184068D02*
X0202278Y0184068D01*
X0204455Y0187265D02*
X0206703Y0187265D01*
X0206703Y0185667D02*
X0206053Y0185667D01*
X0206703Y0188864D02*
X0202856Y0188864D01*
X0201258Y0190462D02*
X0206703Y0190462D01*
X0207523Y0193416D02*
X0206703Y0194236D01*
X0206703Y0200545D01*
X0207523Y0201365D01*
X0213833Y0201365D01*
X0214653Y0200545D01*
X0214653Y0194236D01*
X0213833Y0193416D01*
X0207523Y0193416D01*
X0207280Y0193659D02*
X0198061Y0193659D01*
X0199659Y0192061D02*
X0242661Y0192061D01*
X0243833Y0193416D02*
X0237523Y0193416D01*
X0236703Y0194236D01*
X0236703Y0200545D01*
X0237523Y0201365D01*
X0243833Y0201365D01*
X0244653Y0200545D01*
X0244653Y0194236D01*
X0243833Y0193416D01*
X0244076Y0193659D02*
X0244260Y0193659D01*
X0244653Y0195258D02*
X0246303Y0195258D01*
X0246303Y0196856D02*
X0244653Y0196856D01*
X0244653Y0198455D02*
X0246303Y0198455D01*
X0246303Y0200053D02*
X0244653Y0200053D01*
X0247443Y0201652D02*
X0185196Y0201652D01*
X0185196Y0203251D02*
X0319091Y0203251D01*
X0319091Y0204849D02*
X0185196Y0204849D01*
X0185196Y0206448D02*
X0319091Y0206448D01*
X0317123Y0208046D02*
X0194008Y0208046D01*
X0195607Y0209645D02*
X0317123Y0209645D01*
X0317123Y0211243D02*
X0196507Y0211243D01*
X0196507Y0212842D02*
X0317536Y0212842D01*
X0316000Y0214440D02*
X0196382Y0214440D01*
X0194783Y0216039D02*
X0311611Y0216039D01*
X0311611Y0217637D02*
X0189437Y0217637D01*
X0188560Y0219236D02*
X0187839Y0219236D01*
X0187407Y0220834D02*
X0186240Y0220834D01*
X0187407Y0222433D02*
X0184802Y0222433D01*
X0184802Y0224031D02*
X0187407Y0224031D01*
X0188275Y0225630D02*
X0184802Y0225630D01*
X0184802Y0227228D02*
X0186677Y0227228D01*
X0185078Y0228827D02*
X0184802Y0228827D01*
X0192051Y0227228D02*
X0242126Y0227228D01*
X0242126Y0228178D02*
X0242126Y0226128D01*
X0245025Y0223228D01*
X0247076Y0223228D01*
X0247076Y0228178D01*
X0247076Y0228178D01*
X0247076Y0233128D01*
X0245025Y0233128D01*
X0242126Y0230228D01*
X0242126Y0228178D01*
X0247075Y0228178D01*
X0247075Y0228178D01*
X0242126Y0228178D01*
X0242126Y0228827D02*
X0195104Y0228827D01*
X0196507Y0230425D02*
X0242322Y0230425D01*
X0243921Y0232024D02*
X0196507Y0232024D01*
X0196507Y0233622D02*
X0254199Y0233622D01*
X0254247Y0233803D02*
X0254124Y0233346D01*
X0254124Y0231328D01*
X0257705Y0231328D01*
X0257705Y0234909D01*
X0255687Y0234909D01*
X0255230Y0234786D01*
X0254819Y0234549D01*
X0254484Y0234214D01*
X0254247Y0233803D01*
X0254124Y0232024D02*
X0250230Y0232024D01*
X0251829Y0230425D02*
X0254124Y0230425D01*
X0254124Y0231327D02*
X0254124Y0229309D01*
X0254247Y0228852D01*
X0254484Y0228441D01*
X0254819Y0228106D01*
X0255230Y0227869D01*
X0255687Y0227746D01*
X0257705Y0227746D01*
X0257705Y0231327D01*
X0254124Y0231327D01*
X0254261Y0228827D02*
X0252026Y0228827D01*
X0247076Y0228827D02*
X0247076Y0228827D01*
X0247076Y0230425D02*
X0247076Y0230425D01*
X0247076Y0232024D02*
X0247076Y0232024D01*
X0247076Y0227228D02*
X0247076Y0227228D01*
X0247076Y0225630D02*
X0247076Y0225630D01*
X0247076Y0224031D02*
X0247076Y0224031D01*
X0249929Y0224031D02*
X0388183Y0224031D01*
X0388183Y0222433D02*
X0196507Y0222433D01*
X0196507Y0224031D02*
X0244222Y0224031D01*
X0242624Y0225630D02*
X0195035Y0225630D01*
X0196507Y0220834D02*
X0312142Y0220834D01*
X0311611Y0219236D02*
X0195355Y0219236D01*
X0187260Y0214440D02*
X0185196Y0214440D01*
X0185196Y0212842D02*
X0187407Y0212842D01*
X0187407Y0211243D02*
X0185196Y0211243D01*
X0185196Y0209645D02*
X0188308Y0209645D01*
X0189907Y0208046D02*
X0185196Y0208046D01*
X0185196Y0216039D02*
X0185662Y0216039D01*
X0185196Y0200053D02*
X0187989Y0200053D01*
X0187989Y0198455D02*
X0186477Y0198455D01*
X0186477Y0196856D02*
X0187989Y0196856D01*
X0188233Y0195258D02*
X0186477Y0195258D01*
X0186209Y0193659D02*
X0192687Y0193659D01*
X0194285Y0192061D02*
X0181259Y0192061D01*
X0194864Y0196856D02*
X0206703Y0196856D01*
X0206703Y0195258D02*
X0196462Y0195258D01*
X0194351Y0198455D02*
X0206703Y0198455D01*
X0206703Y0200053D02*
X0194351Y0200053D01*
X0214653Y0200053D02*
X0216703Y0200053D01*
X0216703Y0200545D02*
X0216703Y0194236D01*
X0217523Y0193416D01*
X0223833Y0193416D01*
X0224653Y0194236D01*
X0224653Y0200545D01*
X0223833Y0201365D01*
X0217523Y0201365D01*
X0216703Y0200545D01*
X0216703Y0198455D02*
X0214653Y0198455D01*
X0214653Y0196856D02*
X0216703Y0196856D01*
X0216703Y0195258D02*
X0214653Y0195258D01*
X0214076Y0193659D02*
X0217280Y0193659D01*
X0216703Y0190462D02*
X0214653Y0190462D01*
X0214653Y0188864D02*
X0216703Y0188864D01*
X0216703Y0187265D02*
X0214653Y0187265D01*
X0214653Y0185667D02*
X0216703Y0185667D01*
X0224653Y0187265D02*
X0226703Y0187265D01*
X0226703Y0185667D02*
X0225089Y0185667D01*
X0226687Y0184068D02*
X0226871Y0184068D01*
X0226703Y0188864D02*
X0224653Y0188864D01*
X0224653Y0190462D02*
X0226703Y0190462D01*
X0227523Y0193416D02*
X0226703Y0194236D01*
X0226703Y0200545D01*
X0227523Y0201365D01*
X0233833Y0201365D01*
X0234653Y0200545D01*
X0234653Y0194236D01*
X0233833Y0193416D01*
X0227523Y0193416D01*
X0227280Y0193659D02*
X0224076Y0193659D01*
X0224653Y0195258D02*
X0226703Y0195258D01*
X0226703Y0196856D02*
X0224653Y0196856D01*
X0224653Y0198455D02*
X0226703Y0198455D01*
X0226703Y0200053D02*
X0224653Y0200053D01*
X0234653Y0200053D02*
X0236703Y0200053D01*
X0236703Y0198455D02*
X0234653Y0198455D01*
X0234653Y0196856D02*
X0236703Y0196856D01*
X0236703Y0195258D02*
X0234653Y0195258D01*
X0234076Y0193659D02*
X0237280Y0193659D01*
X0236703Y0190462D02*
X0234653Y0190462D01*
X0234653Y0188864D02*
X0236703Y0188864D01*
X0236703Y0187265D02*
X0234653Y0187265D01*
X0234653Y0185667D02*
X0236703Y0185667D01*
X0236871Y0184068D02*
X0234485Y0184068D01*
X0244038Y0183621D02*
X0244653Y0184236D01*
X0244653Y0188678D01*
X0246349Y0190375D01*
X0246303Y0190202D01*
X0246303Y0187391D01*
X0250678Y0187391D01*
X0255053Y0187391D01*
X0255053Y0190202D01*
X0254986Y0190451D01*
X0256703Y0190451D01*
X0256703Y0184236D01*
X0257318Y0183621D01*
X0254604Y0183621D01*
X0254693Y0183711D01*
X0254930Y0184121D01*
X0255053Y0184579D01*
X0255053Y0187390D01*
X0250678Y0187390D01*
X0250678Y0187391D01*
X0250678Y0187390D01*
X0246303Y0187390D01*
X0246303Y0184579D01*
X0246426Y0184121D01*
X0246663Y0183711D01*
X0246752Y0183621D01*
X0244038Y0183621D01*
X0244485Y0184068D02*
X0246456Y0184068D01*
X0246303Y0185667D02*
X0244653Y0185667D01*
X0244653Y0187265D02*
X0246303Y0187265D01*
X0246303Y0188864D02*
X0244838Y0188864D01*
X0255053Y0188864D02*
X0256703Y0188864D01*
X0256703Y0187265D02*
X0255053Y0187265D01*
X0255053Y0185667D02*
X0256703Y0185667D01*
X0256871Y0184068D02*
X0254900Y0184068D01*
X0255053Y0195258D02*
X0256703Y0195258D01*
X0256703Y0196856D02*
X0255053Y0196856D01*
X0255053Y0198455D02*
X0256703Y0198455D01*
X0256703Y0200053D02*
X0255053Y0200053D01*
X0253913Y0201652D02*
X0319241Y0201652D01*
X0322119Y0200053D02*
X0294653Y0200053D01*
X0294653Y0198455D02*
X0323718Y0198455D01*
X0337834Y0196856D02*
X0294653Y0196856D01*
X0294653Y0195258D02*
X0353731Y0195258D01*
X0353731Y0195944D02*
X0353731Y0193926D01*
X0357312Y0193926D01*
X0360893Y0193926D01*
X0360893Y0195944D01*
X0360770Y0196402D01*
X0360533Y0196812D01*
X0360198Y0197147D01*
X0359788Y0197384D01*
X0359330Y0197507D01*
X0357312Y0197507D01*
X0357312Y0193926D01*
X0357312Y0193926D01*
X0360893Y0193926D01*
X0360893Y0191908D01*
X0360770Y0191450D01*
X0360533Y0191040D01*
X0360198Y0190705D01*
X0359788Y0190468D01*
X0359330Y0190345D01*
X0357312Y0190345D01*
X0357312Y0193926D01*
X0357312Y0193926D01*
X0357312Y0193926D01*
X0357312Y0197507D01*
X0355294Y0197507D01*
X0354836Y0197384D01*
X0354425Y0197147D01*
X0354090Y0196812D01*
X0353853Y0196402D01*
X0353731Y0195944D01*
X0354134Y0196856D02*
X0350411Y0196856D01*
X0353731Y0193926D02*
X0353731Y0191908D01*
X0353853Y0191450D01*
X0354090Y0191040D01*
X0354425Y0190705D01*
X0354836Y0190468D01*
X0355294Y0190345D01*
X0357312Y0190345D01*
X0357312Y0193926D01*
X0353731Y0193926D01*
X0353731Y0193659D02*
X0296092Y0193659D01*
X0297691Y0192061D02*
X0353731Y0192061D01*
X0354855Y0190462D02*
X0337084Y0190462D01*
X0338683Y0188864D02*
X0377065Y0188864D01*
X0377065Y0190462D02*
X0359769Y0190462D01*
X0360893Y0192061D02*
X0377065Y0192061D01*
X0377065Y0193659D02*
X0360893Y0193659D01*
X0360893Y0195258D02*
X0377065Y0195258D01*
X0377065Y0196856D02*
X0360489Y0196856D01*
X0357312Y0196856D02*
X0357312Y0196856D01*
X0357312Y0195258D02*
X0357312Y0195258D01*
X0357312Y0193926D02*
X0357312Y0193926D01*
X0357312Y0193659D02*
X0357312Y0193659D01*
X0357312Y0192061D02*
X0357312Y0192061D01*
X0357312Y0190462D02*
X0357312Y0190462D01*
X0353883Y0185667D02*
X0341880Y0185667D01*
X0340281Y0187265D02*
X0377065Y0187265D01*
X0377065Y0185667D02*
X0365072Y0185667D01*
X0366365Y0184068D02*
X0377065Y0184068D01*
X0377065Y0182470D02*
X0366814Y0182470D01*
X0366659Y0180871D02*
X0377065Y0180871D01*
X0377065Y0179273D02*
X0365782Y0179273D01*
X0364299Y0176076D02*
X0377065Y0176076D01*
X0377065Y0177674D02*
X0347117Y0177674D01*
X0348715Y0176076D02*
X0354656Y0176076D01*
X0352759Y0174477D02*
X0350314Y0174477D01*
X0348137Y0171280D02*
X0337141Y0171280D01*
X0337214Y0172299D02*
X0337214Y0172490D01*
X0337097Y0173232D01*
X0336865Y0173945D01*
X0336524Y0174614D01*
X0336083Y0175221D01*
X0335552Y0175752D01*
X0334945Y0176193D01*
X0334276Y0176534D01*
X0333562Y0176766D01*
X0332821Y0176883D01*
X0329661Y0176883D01*
X0329661Y0172299D01*
X0337214Y0172299D01*
X0337153Y0172879D02*
X0346538Y0172879D01*
X0344940Y0174477D02*
X0336594Y0174477D01*
X0335107Y0176076D02*
X0343341Y0176076D01*
X0341743Y0177674D02*
X0322598Y0177674D01*
X0322598Y0176076D02*
X0323848Y0176076D01*
X0323173Y0179273D02*
X0322598Y0179273D01*
X0329293Y0176076D02*
X0329661Y0176076D01*
X0329661Y0174477D02*
X0329293Y0174477D01*
X0329293Y0172879D02*
X0329661Y0172879D01*
X0322397Y0169682D02*
X0318825Y0169682D01*
X0320424Y0171280D02*
X0321813Y0171280D01*
X0322619Y0160091D02*
X0278086Y0160091D01*
X0279685Y0158492D02*
X0323953Y0158492D01*
X0323511Y0155295D02*
X0282882Y0155295D01*
X0281283Y0156894D02*
X0338508Y0156894D01*
X0340106Y0155295D02*
X0335443Y0155295D01*
X0336519Y0153697D02*
X0341705Y0153697D01*
X0343303Y0152098D02*
X0336814Y0152098D01*
X0336505Y0150500D02*
X0344902Y0150500D01*
X0345480Y0155295D02*
X0353511Y0155295D01*
X0354034Y0158412D02*
X0352805Y0159640D01*
X0352140Y0161246D01*
X0352140Y0162984D01*
X0352805Y0164590D01*
X0354034Y0165818D01*
X0355640Y0166483D01*
X0363315Y0166483D01*
X0364920Y0165818D01*
X0366149Y0164590D01*
X0366814Y0162984D01*
X0366814Y0161246D01*
X0366149Y0159640D01*
X0364920Y0158412D01*
X0363315Y0157746D01*
X0355640Y0157746D01*
X0354034Y0158412D01*
X0353953Y0158492D02*
X0342283Y0158492D01*
X0343881Y0156894D02*
X0377065Y0156894D01*
X0377065Y0158492D02*
X0365001Y0158492D01*
X0366336Y0160091D02*
X0377065Y0160091D01*
X0377065Y0161689D02*
X0366814Y0161689D01*
X0366688Y0163288D02*
X0377065Y0163288D01*
X0377065Y0164886D02*
X0365852Y0164886D01*
X0364128Y0168083D02*
X0377065Y0168083D01*
X0377065Y0166485D02*
X0337440Y0166485D01*
X0335842Y0168083D02*
X0354827Y0168083D01*
X0352788Y0169682D02*
X0336558Y0169682D01*
X0339039Y0164886D02*
X0353102Y0164886D01*
X0352266Y0163288D02*
X0339133Y0163288D01*
X0339133Y0161689D02*
X0352140Y0161689D01*
X0352619Y0160091D02*
X0340684Y0160091D01*
X0336909Y0158492D02*
X0335001Y0158492D01*
X0335410Y0148901D02*
X0353544Y0148901D01*
X0354034Y0145818D02*
X0352805Y0144590D01*
X0352140Y0142984D01*
X0352140Y0141246D01*
X0352805Y0139640D01*
X0354034Y0138412D01*
X0355640Y0137746D01*
X0363315Y0137746D01*
X0364920Y0138412D01*
X0366149Y0139640D01*
X0366814Y0141246D01*
X0366814Y0142984D01*
X0366149Y0144590D01*
X0364920Y0145818D01*
X0363315Y0146483D01*
X0355640Y0146483D01*
X0354034Y0145818D01*
X0353920Y0145704D02*
X0335035Y0145704D01*
X0336350Y0144106D02*
X0352605Y0144106D01*
X0352140Y0142507D02*
X0336814Y0142507D01*
X0336674Y0140909D02*
X0352280Y0140909D01*
X0353136Y0139310D02*
X0335819Y0139310D01*
X0334920Y0135818D02*
X0333315Y0136483D01*
X0325640Y0136483D01*
X0324034Y0135818D01*
X0322805Y0134590D01*
X0322140Y0132984D01*
X0322140Y0131246D01*
X0322805Y0129640D01*
X0324034Y0128412D01*
X0325640Y0127746D01*
X0333315Y0127746D01*
X0334920Y0128412D01*
X0336149Y0129640D01*
X0336814Y0131246D01*
X0336814Y0132984D01*
X0336149Y0134590D01*
X0334920Y0135818D01*
X0334209Y0136113D02*
X0354745Y0136113D01*
X0352774Y0134515D02*
X0336180Y0134515D01*
X0336814Y0132916D02*
X0347946Y0132916D01*
X0347538Y0132508D02*
X0347538Y0132508D01*
X0346347Y0131317D02*
X0336814Y0131317D01*
X0336182Y0129719D02*
X0344749Y0129719D01*
X0343150Y0128120D02*
X0334218Y0128120D01*
X0333315Y0126483D02*
X0325640Y0126483D01*
X0324034Y0125818D01*
X0322805Y0124590D01*
X0322140Y0122984D01*
X0322140Y0121246D01*
X0322805Y0119640D01*
X0324034Y0118412D01*
X0325640Y0117746D01*
X0333315Y0117746D01*
X0334920Y0118412D01*
X0336149Y0119640D01*
X0336814Y0121246D01*
X0336814Y0122984D01*
X0336149Y0124590D01*
X0334920Y0125818D01*
X0333315Y0126483D01*
X0335815Y0124923D02*
X0340845Y0124923D01*
X0340845Y0123325D02*
X0336673Y0123325D01*
X0336814Y0121726D02*
X0340845Y0121726D01*
X0340845Y0120128D02*
X0336351Y0120128D01*
X0335038Y0118529D02*
X0340845Y0118529D01*
X0340845Y0116931D02*
X0315734Y0116931D01*
X0314136Y0118529D02*
X0323916Y0118529D01*
X0322603Y0120128D02*
X0312537Y0120128D01*
X0310939Y0121726D02*
X0322140Y0121726D01*
X0322281Y0123325D02*
X0309340Y0123325D01*
X0307741Y0124923D02*
X0323139Y0124923D01*
X0324737Y0128120D02*
X0304544Y0128120D01*
X0302946Y0129719D02*
X0322773Y0129719D01*
X0322140Y0131317D02*
X0301347Y0131317D01*
X0299749Y0132916D02*
X0322140Y0132916D01*
X0322774Y0134515D02*
X0298150Y0134515D01*
X0296552Y0136113D02*
X0324745Y0136113D01*
X0323136Y0139310D02*
X0293355Y0139310D01*
X0294953Y0137712D02*
X0377065Y0137712D01*
X0377065Y0139310D02*
X0365819Y0139310D01*
X0366674Y0140909D02*
X0377065Y0140909D01*
X0377065Y0142507D02*
X0366814Y0142507D01*
X0366350Y0144106D02*
X0377065Y0144106D01*
X0377065Y0145704D02*
X0365035Y0145704D01*
X0365410Y0148901D02*
X0377065Y0148901D01*
X0377065Y0147303D02*
X0288118Y0147303D01*
X0286520Y0148901D02*
X0323544Y0148901D01*
X0323920Y0145704D02*
X0289717Y0145704D01*
X0291315Y0144106D02*
X0322605Y0144106D01*
X0348524Y0128120D02*
X0354737Y0128120D01*
X0352773Y0129719D02*
X0350123Y0129719D01*
X0346925Y0126522D02*
X0367536Y0126522D01*
X0369134Y0128120D02*
X0364218Y0128120D01*
X0366182Y0129719D02*
X0370733Y0129719D01*
X0372331Y0131317D02*
X0366814Y0131317D01*
X0366814Y0132916D02*
X0373930Y0132916D01*
X0375528Y0134515D02*
X0366180Y0134515D01*
X0364209Y0136113D02*
X0377065Y0136113D01*
X0379304Y0132916D02*
X0380609Y0132916D01*
X0380609Y0131317D02*
X0377705Y0131317D01*
X0376107Y0129719D02*
X0380609Y0129719D01*
X0380609Y0128120D02*
X0374508Y0128120D01*
X0372910Y0126522D02*
X0380609Y0126522D01*
X0380609Y0124923D02*
X0371311Y0124923D01*
X0369713Y0123325D02*
X0380609Y0123325D01*
X0380063Y0121726D02*
X0368114Y0121726D01*
X0366351Y0120128D02*
X0378465Y0120128D01*
X0376866Y0118529D02*
X0365038Y0118529D01*
X0365406Y0115332D02*
X0373669Y0115332D01*
X0372071Y0113734D02*
X0366504Y0113734D01*
X0366814Y0112135D02*
X0370472Y0112135D01*
X0368873Y0110537D02*
X0366520Y0110537D01*
X0375268Y0116931D02*
X0344645Y0116931D01*
X0344645Y0118529D02*
X0353916Y0118529D01*
X0352603Y0120128D02*
X0344645Y0120128D01*
X0344645Y0121726D02*
X0352140Y0121726D01*
X0352281Y0123325D02*
X0344645Y0123325D01*
X0345327Y0124923D02*
X0353139Y0124923D01*
X0341552Y0126522D02*
X0306143Y0126522D01*
X0317333Y0115332D02*
X0323548Y0115332D01*
X0323507Y0108938D02*
X0320971Y0108938D01*
X0322569Y0107340D02*
X0346329Y0107340D01*
X0344731Y0108938D02*
X0335447Y0108938D01*
X0336520Y0110537D02*
X0343132Y0110537D01*
X0341534Y0112135D02*
X0336814Y0112135D01*
X0336504Y0113734D02*
X0340845Y0113734D01*
X0340845Y0115332D02*
X0335406Y0115332D01*
X0344645Y0115332D02*
X0353548Y0115332D01*
X0352451Y0113734D02*
X0345309Y0113734D01*
X0346908Y0112135D02*
X0352140Y0112135D01*
X0352434Y0110537D02*
X0348506Y0110537D01*
X0347928Y0105741D02*
X0334997Y0105741D01*
X0336334Y0104143D02*
X0352620Y0104143D01*
X0348676Y0102544D02*
X0336814Y0102544D01*
X0336690Y0100946D02*
X0347078Y0100946D01*
X0345479Y0099347D02*
X0335856Y0099347D01*
X0333320Y0097749D02*
X0343881Y0097749D01*
X0342282Y0096150D02*
X0334119Y0096150D01*
X0336165Y0094552D02*
X0340684Y0094552D01*
X0339085Y0092953D02*
X0336814Y0092953D01*
X0336814Y0091355D02*
X0337487Y0091355D01*
X0338065Y0086559D02*
X0423228Y0086559D01*
X0423228Y0084961D02*
X0336467Y0084961D01*
X0321858Y0084961D02*
X0312516Y0084961D01*
X0314114Y0086559D02*
X0320259Y0086559D01*
X0321554Y0085265D02*
X0321554Y0085265D01*
X0319647Y0082581D02*
X0319237Y0082817D01*
X0318779Y0082940D01*
X0316761Y0082940D01*
X0316761Y0079359D01*
X0316761Y0079359D01*
X0320342Y0079359D01*
X0320342Y0077341D01*
X0320219Y0076883D01*
X0319982Y0076473D01*
X0319647Y0076138D01*
X0319237Y0075901D01*
X0318779Y0075778D01*
X0316761Y0075778D01*
X0316761Y0079359D01*
X0320342Y0079359D01*
X0320342Y0081377D01*
X0320219Y0081835D01*
X0319982Y0082245D01*
X0319647Y0082581D01*
X0320238Y0081764D02*
X0373030Y0081764D01*
X0371431Y0080165D02*
X0320342Y0080165D01*
X0320342Y0078567D02*
X0369833Y0078567D01*
X0368234Y0076968D02*
X0320242Y0076968D01*
X0316761Y0076968D02*
X0316761Y0076968D01*
X0316761Y0075778D02*
X0316761Y0079359D01*
X0316761Y0079359D01*
X0316761Y0079359D01*
X0316761Y0082940D01*
X0314743Y0082940D01*
X0314285Y0082817D01*
X0313874Y0082581D01*
X0313539Y0082245D01*
X0313302Y0081835D01*
X0313180Y0081377D01*
X0313180Y0079359D01*
X0313180Y0077341D01*
X0313302Y0076883D01*
X0313539Y0076473D01*
X0313874Y0076138D01*
X0314285Y0075901D01*
X0314743Y0075778D01*
X0316761Y0075778D01*
X0316761Y0078567D02*
X0316761Y0078567D01*
X0316760Y0079359D02*
X0313180Y0079359D01*
X0316760Y0079359D01*
X0316760Y0079359D01*
X0316761Y0080165D02*
X0316761Y0080165D01*
X0316761Y0081764D02*
X0316761Y0081764D01*
X0313283Y0081764D02*
X0309319Y0081764D01*
X0310917Y0083362D02*
X0423228Y0083362D01*
X0423228Y0081764D02*
X0383284Y0081764D01*
X0383721Y0080165D02*
X0423228Y0080165D01*
X0423228Y0078567D02*
X0383721Y0078567D01*
X0383721Y0076968D02*
X0394943Y0076968D01*
X0395191Y0077216D02*
X0392526Y0074551D01*
X0392526Y0070781D01*
X0395191Y0068116D01*
X0398960Y0068116D01*
X0401626Y0070781D01*
X0401626Y0074551D01*
X0398960Y0077216D01*
X0395191Y0077216D01*
X0393344Y0075370D02*
X0372293Y0075370D01*
X0373891Y0076968D02*
X0377359Y0076968D01*
X0370694Y0073771D02*
X0392526Y0073771D01*
X0392526Y0072173D02*
X0369095Y0072173D01*
X0367497Y0070574D02*
X0392733Y0070574D01*
X0394332Y0068976D02*
X0365898Y0068976D01*
X0364300Y0067377D02*
X0423228Y0067377D01*
X0423228Y0065779D02*
X0400162Y0065779D01*
X0398960Y0066980D02*
X0395191Y0066980D01*
X0392526Y0064315D01*
X0392526Y0060545D01*
X0395191Y0057880D01*
X0398960Y0057880D01*
X0401626Y0060545D01*
X0401626Y0064315D01*
X0398960Y0066980D01*
X0399820Y0068976D02*
X0423228Y0068976D01*
X0423228Y0070574D02*
X0401418Y0070574D01*
X0401626Y0072173D02*
X0423228Y0072173D01*
X0423228Y0073771D02*
X0401626Y0073771D01*
X0400807Y0075370D02*
X0423228Y0075370D01*
X0423228Y0076968D02*
X0399208Y0076968D01*
X0393990Y0065779D02*
X0362701Y0065779D01*
X0361103Y0064180D02*
X0392526Y0064180D01*
X0392526Y0062582D02*
X0359504Y0062582D01*
X0357906Y0060983D02*
X0392526Y0060983D01*
X0393686Y0059384D02*
X0356307Y0059384D01*
X0354709Y0057786D02*
X0423228Y0057786D01*
X0423228Y0059384D02*
X0400465Y0059384D01*
X0401626Y0060983D02*
X0423228Y0060983D01*
X0423228Y0062582D02*
X0401626Y0062582D01*
X0401626Y0064180D02*
X0423228Y0064180D01*
X0423228Y0056187D02*
X0353110Y0056187D01*
X0351512Y0054589D02*
X0423228Y0054589D01*
X0423228Y0052990D02*
X0349913Y0052990D01*
X0348315Y0051392D02*
X0423228Y0051392D01*
X0400250Y0048195D02*
X0357101Y0048195D01*
X0357350Y0046596D02*
X0399606Y0046596D01*
X0372666Y0043399D02*
X0372666Y0043399D01*
X0372666Y0041801D02*
X0372666Y0041801D01*
X0372666Y0040202D02*
X0372666Y0040202D01*
X0372666Y0038604D02*
X0372666Y0038604D01*
X0353769Y0043399D02*
X0353768Y0043399D01*
X0353768Y0044998D02*
X0353769Y0044998D01*
X0353768Y0046596D02*
X0353769Y0046596D01*
X0353768Y0048195D02*
X0353769Y0048195D01*
X0342658Y0051392D02*
X0244372Y0051392D01*
X0245053Y0049793D02*
X0246703Y0049793D01*
X0246703Y0048195D02*
X0245053Y0048195D01*
X0245053Y0046596D02*
X0246703Y0046596D01*
X0246703Y0044998D02*
X0245053Y0044998D01*
X0244382Y0043399D02*
X0248478Y0043399D01*
X0246760Y0040202D02*
X0234399Y0040202D01*
X0235090Y0038604D02*
X0246069Y0038604D01*
X0246069Y0037005D02*
X0235090Y0037005D01*
X0234755Y0035407D02*
X0246404Y0035407D01*
X0248003Y0033808D02*
X0233156Y0033808D01*
X0230540Y0037627D02*
X0230678Y0037765D01*
X0226681Y0040202D02*
X0224557Y0040202D01*
X0225248Y0038604D02*
X0225990Y0038604D01*
X0225990Y0037005D02*
X0225248Y0037005D01*
X0224912Y0035407D02*
X0226325Y0035407D01*
X0227924Y0033808D02*
X0223314Y0033808D01*
X0220698Y0037627D02*
X0220678Y0037646D01*
X0220678Y0047391D01*
X0224653Y0046596D02*
X0226703Y0046596D01*
X0226703Y0044998D02*
X0224653Y0044998D01*
X0222878Y0043399D02*
X0228778Y0043399D01*
X0228280Y0041801D02*
X0222958Y0041801D01*
X0218437Y0041801D02*
X0213116Y0041801D01*
X0212878Y0043399D02*
X0218478Y0043399D01*
X0216703Y0044998D02*
X0214653Y0044998D01*
X0214653Y0046596D02*
X0216703Y0046596D01*
X0216703Y0048195D02*
X0214653Y0048195D01*
X0214653Y0049793D02*
X0216703Y0049793D01*
X0212578Y0051392D02*
X0223143Y0051392D01*
X0224653Y0049793D02*
X0224742Y0049793D01*
X0224653Y0048195D02*
X0226340Y0048195D01*
X0221545Y0052990D02*
X0212578Y0052990D01*
X0212578Y0054589D02*
X0219946Y0054589D01*
X0218348Y0056187D02*
X0212578Y0056187D01*
X0212578Y0057786D02*
X0216749Y0057786D01*
X0215151Y0059384D02*
X0212578Y0059384D01*
X0212578Y0060983D02*
X0213552Y0060983D01*
X0208778Y0060983D02*
X0086972Y0060983D01*
X0088758Y0059384D02*
X0208778Y0059384D01*
X0208778Y0057786D02*
X0089839Y0057786D01*
X0090501Y0056187D02*
X0208778Y0056187D01*
X0208778Y0054589D02*
X0090652Y0054589D01*
X0090652Y0052990D02*
X0208778Y0052990D01*
X0208778Y0051392D02*
X0090094Y0051392D01*
X0089376Y0049793D02*
X0196703Y0049793D01*
X0196703Y0048195D02*
X0087777Y0048195D01*
X0084603Y0046596D02*
X0196703Y0046596D01*
X0200678Y0047391D02*
X0200678Y0037686D01*
X0200619Y0037627D01*
X0205169Y0037005D02*
X0206305Y0037005D01*
X0206305Y0038604D02*
X0205169Y0038604D01*
X0204478Y0040202D02*
X0206996Y0040202D01*
X0208478Y0041801D02*
X0202879Y0041801D01*
X0202878Y0043399D02*
X0208478Y0043399D01*
X0206703Y0044998D02*
X0204653Y0044998D01*
X0204653Y0046596D02*
X0206703Y0046596D01*
X0206703Y0048195D02*
X0204653Y0048195D01*
X0204653Y0049793D02*
X0206703Y0049793D01*
X0210678Y0047391D02*
X0210678Y0037804D01*
X0210855Y0037627D01*
X0215405Y0037005D02*
X0216148Y0037005D01*
X0216148Y0038604D02*
X0215405Y0038604D01*
X0214714Y0040202D02*
X0216839Y0040202D01*
X0216483Y0035407D02*
X0215070Y0035407D01*
X0213471Y0033808D02*
X0218081Y0033808D01*
X0208239Y0033808D02*
X0203235Y0033808D01*
X0204834Y0035407D02*
X0206640Y0035407D01*
X0240678Y0043399D02*
X0240678Y0043399D01*
X0240678Y0044998D02*
X0240678Y0044998D01*
X0240678Y0046596D02*
X0240678Y0046596D01*
X0240678Y0048195D02*
X0240678Y0048195D01*
X0240678Y0049793D02*
X0240678Y0049793D01*
X0240678Y0051392D02*
X0240678Y0051392D01*
X0254653Y0049793D02*
X0256703Y0049793D01*
X0256703Y0048195D02*
X0254653Y0048195D01*
X0264320Y0040202D02*
X0266839Y0040202D01*
X0266148Y0038604D02*
X0265011Y0038604D01*
X0265011Y0037005D02*
X0266148Y0037005D01*
X0266483Y0035407D02*
X0264676Y0035407D01*
X0263078Y0033808D02*
X0268081Y0033808D01*
X0283156Y0033808D02*
X0287766Y0033808D01*
X0286168Y0035407D02*
X0284755Y0035407D01*
X0285090Y0037005D02*
X0285833Y0037005D01*
X0285833Y0038604D02*
X0285090Y0038604D01*
X0284399Y0040202D02*
X0286524Y0040202D01*
X0294653Y0048195D02*
X0296703Y0048195D01*
X0296703Y0049793D02*
X0294653Y0049793D01*
X0276703Y0049793D02*
X0274653Y0049793D01*
X0274653Y0048195D02*
X0276703Y0048195D01*
X0287658Y0068976D02*
X0289564Y0068976D01*
X0289394Y0070574D02*
X0287658Y0070574D01*
X0287658Y0072173D02*
X0287796Y0072173D01*
X0289973Y0075370D02*
X0366636Y0075370D01*
X0365037Y0073771D02*
X0295214Y0073771D01*
X0295926Y0072173D02*
X0363439Y0072173D01*
X0361840Y0070574D02*
X0295926Y0070574D01*
X0295926Y0068976D02*
X0360242Y0068976D01*
X0382902Y0089756D02*
X0382902Y0089756D01*
X0382902Y0091355D02*
X0382902Y0091355D01*
X0382902Y0092953D02*
X0382902Y0092953D01*
X0382902Y0094552D02*
X0382902Y0094552D01*
X0378679Y0099347D02*
X0423228Y0099347D01*
X0423228Y0097749D02*
X0377080Y0097749D01*
X0380278Y0100946D02*
X0423228Y0100946D01*
X0423228Y0102544D02*
X0381876Y0102544D01*
X0383475Y0104143D02*
X0423228Y0104143D01*
X0423228Y0105741D02*
X0385073Y0105741D01*
X0386672Y0107340D02*
X0423228Y0107340D01*
X0423228Y0108938D02*
X0388270Y0108938D01*
X0389869Y0110537D02*
X0423228Y0110537D01*
X0423228Y0112135D02*
X0391467Y0112135D01*
X0392583Y0113734D02*
X0423228Y0113734D01*
X0423228Y0115332D02*
X0392583Y0115332D01*
X0392583Y0116931D02*
X0423228Y0116931D01*
X0423228Y0118529D02*
X0392583Y0118529D01*
X0392583Y0120128D02*
X0423228Y0120128D01*
X0423228Y0121726D02*
X0392583Y0121726D01*
X0392583Y0123325D02*
X0423228Y0123325D01*
X0423228Y0124923D02*
X0392583Y0124923D01*
X0392583Y0126522D02*
X0423228Y0126522D01*
X0423228Y0128120D02*
X0392583Y0128120D01*
X0392583Y0129719D02*
X0423228Y0129719D01*
X0423228Y0131317D02*
X0392583Y0131317D01*
X0392583Y0132916D02*
X0423228Y0132916D01*
X0423228Y0134515D02*
X0392583Y0134515D01*
X0392583Y0136113D02*
X0423228Y0136113D01*
X0423228Y0137712D02*
X0392583Y0137712D01*
X0392583Y0139310D02*
X0423228Y0139310D01*
X0423228Y0140909D02*
X0392583Y0140909D01*
X0392583Y0142507D02*
X0423228Y0142507D01*
X0423228Y0144106D02*
X0392583Y0144106D01*
X0392583Y0145704D02*
X0423228Y0145704D01*
X0423228Y0147303D02*
X0392583Y0147303D01*
X0392583Y0148901D02*
X0423228Y0148901D01*
X0423228Y0150500D02*
X0392583Y0150500D01*
X0392583Y0152098D02*
X0423228Y0152098D01*
X0423228Y0153697D02*
X0392583Y0153697D01*
X0392583Y0155295D02*
X0423228Y0155295D01*
X0423228Y0156894D02*
X0392583Y0156894D01*
X0392583Y0158492D02*
X0423228Y0158492D01*
X0423228Y0160091D02*
X0392583Y0160091D01*
X0392583Y0161689D02*
X0423228Y0161689D01*
X0423228Y0163288D02*
X0392583Y0163288D01*
X0392583Y0164886D02*
X0423228Y0164886D01*
X0423228Y0166485D02*
X0392583Y0166485D01*
X0392583Y0168083D02*
X0423228Y0168083D01*
X0423228Y0169682D02*
X0392583Y0169682D01*
X0392583Y0171280D02*
X0423228Y0171280D01*
X0423228Y0172879D02*
X0392583Y0172879D01*
X0392583Y0174477D02*
X0423228Y0174477D01*
X0423228Y0176076D02*
X0392583Y0176076D01*
X0392583Y0177674D02*
X0423228Y0177674D01*
X0423228Y0179273D02*
X0392583Y0179273D01*
X0392583Y0180871D02*
X0423228Y0180871D01*
X0423228Y0182470D02*
X0392583Y0182470D01*
X0392583Y0184068D02*
X0423228Y0184068D01*
X0423228Y0185667D02*
X0392583Y0185667D01*
X0392583Y0187265D02*
X0423228Y0187265D01*
X0423228Y0188864D02*
X0392583Y0188864D01*
X0392583Y0190462D02*
X0423228Y0190462D01*
X0423228Y0192061D02*
X0392583Y0192061D01*
X0392583Y0193659D02*
X0423228Y0193659D01*
X0423228Y0195258D02*
X0392583Y0195258D01*
X0392583Y0196856D02*
X0423228Y0196856D01*
X0423228Y0198455D02*
X0392583Y0198455D01*
X0392583Y0200053D02*
X0423228Y0200053D01*
X0423228Y0201652D02*
X0392583Y0201652D01*
X0392583Y0203251D02*
X0423228Y0203251D01*
X0423228Y0204849D02*
X0392583Y0204849D01*
X0392583Y0206448D02*
X0423228Y0206448D01*
X0423228Y0208046D02*
X0392583Y0208046D01*
X0392583Y0209645D02*
X0423228Y0209645D01*
X0423228Y0211243D02*
X0392583Y0211243D01*
X0392583Y0212842D02*
X0423228Y0212842D01*
X0423228Y0214440D02*
X0392583Y0214440D01*
X0392583Y0216039D02*
X0423228Y0216039D01*
X0423228Y0217637D02*
X0392583Y0217637D01*
X0392583Y0219236D02*
X0423228Y0219236D01*
X0423228Y0220834D02*
X0392583Y0220834D01*
X0392583Y0222433D02*
X0423228Y0222433D01*
X0423228Y0224031D02*
X0392583Y0224031D01*
X0392583Y0225630D02*
X0423228Y0225630D01*
X0423228Y0227228D02*
X0392583Y0227228D01*
X0392583Y0228827D02*
X0423228Y0228827D01*
X0423228Y0230425D02*
X0392583Y0230425D01*
X0391223Y0232024D02*
X0423228Y0232024D01*
X0423228Y0233622D02*
X0389624Y0233622D01*
X0388026Y0235221D02*
X0423228Y0235221D01*
X0423228Y0236819D02*
X0406586Y0236819D01*
X0406091Y0236614D02*
X0408199Y0237488D01*
X0409813Y0239101D01*
X0410687Y0241210D01*
X0410687Y0243492D01*
X0409813Y0245601D01*
X0408199Y0247215D01*
X0406091Y0248088D01*
X0403808Y0248088D01*
X0401700Y0247215D01*
X0400086Y0245601D01*
X0399213Y0243492D01*
X0399213Y0241210D01*
X0400086Y0239101D01*
X0401700Y0237488D01*
X0403808Y0236614D01*
X0406091Y0236614D01*
X0403313Y0236819D02*
X0386427Y0236819D01*
X0384829Y0238418D02*
X0400770Y0238418D01*
X0399707Y0240016D02*
X0383230Y0240016D01*
X0381632Y0241615D02*
X0399213Y0241615D01*
X0399213Y0243213D02*
X0380033Y0243213D01*
X0379813Y0244812D02*
X0399759Y0244812D01*
X0400895Y0246410D02*
X0380378Y0246410D01*
X0379569Y0248009D02*
X0403617Y0248009D01*
X0406282Y0248009D02*
X0423228Y0248009D01*
X0423228Y0249607D02*
X0377970Y0249607D01*
X0378178Y0246288D02*
X0370304Y0254162D01*
X0354918Y0248009D02*
X0199545Y0248009D01*
X0197947Y0246410D02*
X0354918Y0246410D01*
X0343564Y0257600D02*
X0423228Y0257600D01*
X0423228Y0259198D02*
X0342857Y0259198D01*
X0337908Y0259198D02*
X0205381Y0259198D01*
X0205381Y0257600D02*
X0337202Y0257600D01*
X0381803Y0235221D02*
X0195286Y0235221D01*
X0191957Y0242351D02*
X0191957Y0243532D01*
X0191957Y0242351D02*
X0178965Y0255343D01*
X0050225Y0255343D01*
X0041209Y0246328D01*
X0041209Y0241603D01*
X0033852Y0241615D02*
X0033128Y0241615D01*
X0033128Y0243213D02*
X0033852Y0243213D01*
X0033852Y0244812D02*
X0033128Y0244812D01*
X0033128Y0246410D02*
X0033852Y0246410D01*
X0033852Y0248009D02*
X0033128Y0248009D01*
X0033128Y0249607D02*
X0034685Y0249607D01*
X0033128Y0251206D02*
X0036284Y0251206D01*
X0037882Y0252804D02*
X0033128Y0252804D01*
X0033128Y0254403D02*
X0039481Y0254403D01*
X0041079Y0256001D02*
X0033128Y0256001D01*
X0033128Y0257600D02*
X0042678Y0257600D01*
X0044276Y0259198D02*
X0033128Y0259198D01*
X0033128Y0240016D02*
X0033852Y0240016D01*
X0033852Y0238418D02*
X0033128Y0238418D01*
X0033128Y0236819D02*
X0034929Y0236819D01*
X0036528Y0235221D02*
X0033128Y0235221D01*
X0033128Y0233622D02*
X0044407Y0233622D01*
X0043612Y0232024D02*
X0033128Y0232024D01*
X0033128Y0230425D02*
X0043307Y0230425D01*
X0043381Y0228827D02*
X0033128Y0228827D01*
X0033128Y0227228D02*
X0044043Y0227228D01*
X0045448Y0225630D02*
X0033128Y0225630D01*
X0196907Y0252804D02*
X0197684Y0252804D01*
X0257705Y0233622D02*
X0257706Y0233622D01*
X0257705Y0232024D02*
X0257706Y0232024D01*
X0257706Y0231328D02*
X0257706Y0229753D01*
X0257312Y0229359D01*
X0257705Y0228827D02*
X0257706Y0228827D01*
X0257705Y0230425D02*
X0257706Y0230425D01*
X0250678Y0201652D02*
X0250678Y0201652D01*
X0250678Y0200053D02*
X0250678Y0200053D01*
X0250678Y0198455D02*
X0250678Y0198455D01*
X0264653Y0198455D02*
X0266703Y0198455D01*
X0266703Y0200053D02*
X0264653Y0200053D01*
X0264653Y0196856D02*
X0266703Y0196856D01*
X0266703Y0195258D02*
X0264653Y0195258D01*
X0274653Y0195258D02*
X0276703Y0195258D01*
X0276703Y0196856D02*
X0274653Y0196856D01*
X0274653Y0198455D02*
X0276703Y0198455D01*
X0276703Y0200053D02*
X0274653Y0200053D01*
X0284653Y0200053D02*
X0286703Y0200053D01*
X0286703Y0198455D02*
X0284653Y0198455D01*
X0284653Y0196856D02*
X0286703Y0196856D01*
X0286703Y0195258D02*
X0284653Y0195258D01*
X0318177Y0217637D02*
X0319485Y0217637D01*
X0319485Y0219236D02*
X0317973Y0219236D01*
X0317442Y0220834D02*
X0319623Y0220834D01*
X0325710Y0220834D02*
X0337802Y0220834D01*
X0363740Y0198455D02*
X0377065Y0198455D01*
X0377065Y0200053D02*
X0365339Y0200053D01*
X0369793Y0201652D02*
X0376820Y0201652D01*
X0375222Y0203251D02*
X0374934Y0203251D01*
X0352589Y0184068D02*
X0343478Y0184068D01*
X0338546Y0180871D02*
X0336659Y0180871D01*
X0336814Y0182470D02*
X0336947Y0182470D01*
X0335782Y0179273D02*
X0340144Y0179273D01*
X0345518Y0179273D02*
X0353173Y0179273D01*
X0366196Y0174477D02*
X0377065Y0174477D01*
X0377065Y0172879D02*
X0366814Y0172879D01*
X0366814Y0171280D02*
X0377065Y0171280D01*
X0377065Y0169682D02*
X0366166Y0169682D01*
X0365443Y0155295D02*
X0377065Y0155295D01*
X0377065Y0153697D02*
X0366519Y0153697D01*
X0366814Y0152098D02*
X0377065Y0152098D01*
X0377065Y0150500D02*
X0366505Y0150500D01*
X0365937Y0124923D02*
X0365815Y0124923D01*
X0353098Y0099347D02*
X0350853Y0099347D01*
X0349255Y0097749D02*
X0355634Y0097749D01*
X0325634Y0097749D02*
X0322991Y0097749D01*
X0322991Y0099347D02*
X0323098Y0099347D01*
X0322991Y0096150D02*
X0324835Y0096150D01*
X0318336Y0088483D02*
X0318336Y0088483D01*
X0318661Y0088158D02*
X0315713Y0088158D01*
X0313180Y0080165D02*
X0307720Y0080165D01*
X0305436Y0078567D02*
X0313180Y0078567D01*
X0313279Y0076968D02*
X0288374Y0076968D01*
X0269979Y0094552D02*
X0211180Y0094552D01*
X0211180Y0096150D02*
X0269979Y0096150D01*
X0269979Y0097749D02*
X0211180Y0097749D01*
X0211180Y0099347D02*
X0269979Y0099347D01*
X0269979Y0100946D02*
X0211180Y0100946D01*
X0211180Y0102544D02*
X0268841Y0102544D01*
X0267243Y0104143D02*
X0226489Y0104143D01*
X0227016Y0104670D02*
X0227609Y0106103D01*
X0227609Y0107654D01*
X0227016Y0109088D01*
X0225919Y0110185D01*
X0224485Y0110779D01*
X0217934Y0110779D01*
X0216500Y0110185D01*
X0215403Y0109088D01*
X0214809Y0107654D01*
X0214809Y0106103D01*
X0215403Y0104670D01*
X0216500Y0103572D01*
X0217934Y0102979D01*
X0224485Y0102979D01*
X0225919Y0103572D01*
X0227016Y0104670D01*
X0227460Y0105741D02*
X0265644Y0105741D01*
X0264046Y0107340D02*
X0227609Y0107340D01*
X0227078Y0108938D02*
X0262447Y0108938D01*
X0260849Y0110537D02*
X0225069Y0110537D01*
X0217350Y0110537D02*
X0211180Y0110537D01*
X0211180Y0112135D02*
X0259250Y0112135D01*
X0257652Y0113734D02*
X0209876Y0113734D01*
X0211180Y0108938D02*
X0215341Y0108938D01*
X0214809Y0107340D02*
X0211180Y0107340D01*
X0211180Y0105741D02*
X0214959Y0105741D01*
X0215930Y0104143D02*
X0211180Y0104143D01*
X0221209Y0091355D02*
X0221209Y0091355D01*
X0221209Y0089756D02*
X0221209Y0089756D01*
X0221209Y0088158D02*
X0221209Y0088158D01*
X0221209Y0086559D02*
X0221209Y0086559D01*
X0221209Y0084961D02*
X0221209Y0084961D01*
X0221209Y0083362D02*
X0221209Y0083362D01*
X0205412Y0081764D02*
X0065533Y0081764D01*
X0033128Y0064180D02*
X0207205Y0064180D01*
X0208778Y0062582D02*
X0033128Y0062582D01*
X0033128Y0060983D02*
X0057188Y0060983D01*
X0055590Y0059384D02*
X0033128Y0059384D01*
X0033128Y0057786D02*
X0053991Y0057786D01*
X0053696Y0056187D02*
X0033128Y0056187D01*
X0033128Y0054589D02*
X0053696Y0054589D01*
X0053696Y0052990D02*
X0033128Y0052990D01*
X0033128Y0051392D02*
X0053696Y0051392D01*
X0054972Y0049793D02*
X0033128Y0049793D01*
X0033128Y0048195D02*
X0056571Y0048195D01*
X0033128Y0030611D02*
X0423228Y0030611D01*
X0423228Y0029013D02*
X0033128Y0029013D01*
X0409130Y0238418D02*
X0423228Y0238418D01*
X0423228Y0240016D02*
X0410192Y0240016D01*
X0410687Y0241615D02*
X0423228Y0241615D01*
X0423228Y0243213D02*
X0410687Y0243213D01*
X0410140Y0244812D02*
X0423228Y0244812D01*
X0423228Y0246410D02*
X0409004Y0246410D01*
D22*
X0363611Y0229753D03*
X0369123Y0217154D03*
X0374635Y0211643D03*
X0372272Y0206131D03*
X0367154Y0204556D03*
X0357312Y0193926D03*
X0322272Y0204162D03*
X0320304Y0210068D03*
X0322666Y0218335D03*
X0314792Y0217942D03*
X0322666Y0230146D03*
X0358099Y0248650D03*
X0340383Y0256131D03*
X0257706Y0231328D03*
X0201800Y0258099D03*
X0121485Y0225265D03*
X0111249Y0224872D03*
X0111249Y0232272D03*
X0095894Y0221091D03*
X0183296Y0196288D03*
X0191170Y0197863D03*
X0153375Y0147469D03*
X0146682Y0147469D03*
X0119910Y0147076D03*
X0106918Y0147076D03*
X0107312Y0152587D03*
X0084083Y0130540D03*
X0101406Y0123060D03*
X0114398Y0116367D03*
X0119910Y0126209D03*
X0118335Y0106131D03*
X0153375Y0096288D03*
X0284477Y0071091D03*
X0292745Y0070698D03*
X0316761Y0079359D03*
X0301013Y0096288D03*
X0291957Y0096288D03*
X0312430Y0099831D03*
X0380540Y0078965D03*
X0382902Y0091957D03*
X0339595Y0047863D03*
X0353769Y0045501D03*
X0372666Y0041170D03*
D23*
X0316645Y0078850D02*
X0316367Y0078572D01*
X0316646Y0078849D02*
X0316672Y0078878D01*
X0316695Y0078909D01*
X0316714Y0078942D01*
X0316731Y0078977D01*
X0316744Y0079014D01*
X0316753Y0079051D01*
X0316759Y0079089D01*
X0316761Y0079128D01*
X0316761Y0079359D01*
X0323454Y0086052D02*
X0319123Y0090383D01*
X0319123Y0102587D01*
X0255737Y0165973D01*
X0216761Y0165973D01*
X0213611Y0169123D01*
X0083690Y0169123D01*
X0071209Y0181603D01*
X0075816Y0179753D02*
X0075816Y0208099D01*
X0088808Y0221091D01*
X0095894Y0221091D01*
X0110855Y0224478D02*
X0110855Y0214792D01*
X0121485Y0214792D02*
X0121485Y0225265D01*
X0127391Y0226603D02*
X0118729Y0235265D01*
X0107548Y0235265D01*
X0101209Y0241603D01*
X0106524Y0243139D02*
X0106524Y0239202D01*
X0108493Y0237233D01*
X0119910Y0237233D01*
X0129359Y0227784D01*
X0129359Y0202981D01*
X0134871Y0197469D01*
X0174241Y0197469D01*
X0179359Y0192351D01*
X0179359Y0182509D01*
X0180934Y0180934D01*
X0221091Y0180934D01*
X0224241Y0177784D01*
X0260461Y0177784D01*
X0276131Y0162115D01*
X0329477Y0162115D01*
X0334871Y0166367D02*
X0274635Y0166367D01*
X0261249Y0179753D01*
X0225028Y0179753D01*
X0221879Y0182902D01*
X0206131Y0182902D01*
X0191170Y0197863D01*
X0183296Y0196288D02*
X0183296Y0218335D01*
X0180934Y0220698D01*
X0180934Y0231879D01*
X0171209Y0241603D01*
X0176603Y0249044D02*
X0182902Y0242745D01*
X0182902Y0221485D01*
X0191957Y0212430D01*
X0191957Y0222272D02*
X0191957Y0224635D01*
X0184871Y0231721D01*
X0184871Y0243532D01*
X0177391Y0251013D01*
X0150619Y0251013D01*
X0141209Y0241603D01*
X0131209Y0241603D02*
X0142587Y0252981D01*
X0178178Y0252981D01*
X0186839Y0244320D01*
X0186839Y0240383D01*
X0191957Y0235265D01*
X0191957Y0232115D01*
X0176603Y0249044D02*
X0158650Y0249044D01*
X0151209Y0241603D01*
X0127391Y0226603D02*
X0127391Y0202194D01*
X0134083Y0195501D01*
X0173060Y0195501D01*
X0177391Y0191170D01*
X0177391Y0181721D01*
X0180146Y0178965D01*
X0219910Y0178965D01*
X0223060Y0175816D01*
X0259674Y0175816D01*
X0283375Y0152115D01*
X0329477Y0152115D01*
X0337233Y0160855D02*
X0337233Y0164005D01*
X0334871Y0166367D01*
X0337233Y0160855D02*
X0345973Y0152115D01*
X0359477Y0152115D01*
X0378965Y0135265D02*
X0365973Y0122272D01*
X0359635Y0122272D01*
X0359477Y0122115D01*
X0359083Y0131721D02*
X0349438Y0131721D01*
X0342745Y0125028D01*
X0342745Y0113611D01*
X0349044Y0107312D01*
X0368335Y0107312D01*
X0382509Y0121485D01*
X0382509Y0203769D01*
X0374635Y0211643D01*
X0347469Y0211643D01*
X0347076Y0212036D01*
X0349831Y0208493D02*
X0347076Y0205737D01*
X0349831Y0208493D02*
X0369910Y0208493D01*
X0372272Y0206131D01*
X0375028Y0206131D01*
X0378965Y0202194D01*
X0378965Y0135265D01*
X0359477Y0132115D02*
X0359083Y0131721D01*
X0329477Y0142115D02*
X0290619Y0142115D01*
X0258887Y0173847D01*
X0221879Y0173847D01*
X0218729Y0176997D01*
X0139595Y0176997D01*
X0136446Y0180146D01*
X0136446Y0182902D01*
X0132902Y0186446D01*
X0116052Y0186446D01*
X0111209Y0181603D01*
X0121209Y0181603D02*
X0129753Y0173060D01*
X0216367Y0173060D01*
X0219517Y0169910D01*
X0257312Y0169910D01*
X0325107Y0102115D01*
X0329477Y0102115D01*
X0321091Y0103375D02*
X0256524Y0167942D01*
X0217942Y0167942D01*
X0214792Y0171091D01*
X0084477Y0171091D01*
X0075816Y0179753D01*
X0107312Y0152587D02*
X0109674Y0154950D01*
X0171485Y0154950D01*
X0207312Y0119123D01*
X0258099Y0119123D01*
X0273847Y0103375D01*
X0273847Y0088808D01*
X0291170Y0071485D01*
X0292351Y0071485D01*
X0292745Y0071091D01*
X0292745Y0070698D01*
X0284477Y0071091D02*
X0284477Y0075028D01*
X0271879Y0087627D01*
X0271879Y0102194D01*
X0256918Y0117154D01*
X0206524Y0117154D01*
X0170698Y0152981D01*
X0112824Y0152981D01*
X0106918Y0147076D01*
X0119910Y0147076D02*
X0119910Y0126209D01*
X0118335Y0124635D01*
X0118335Y0115186D01*
X0125658Y0107863D01*
X0133217Y0107863D01*
X0133217Y0105894D02*
X0139556Y0105894D01*
X0139713Y0105737D01*
X0143139Y0105737D01*
X0152587Y0096288D01*
X0153375Y0096288D01*
X0139556Y0103926D02*
X0137430Y0101800D01*
X0122666Y0101800D01*
X0118335Y0106131D01*
X0126209Y0104162D02*
X0132981Y0104162D01*
X0133217Y0103926D01*
X0126209Y0104162D02*
X0114398Y0115973D01*
X0114398Y0116367D01*
X0101406Y0121485D02*
X0101013Y0121091D01*
X0101406Y0121485D02*
X0101406Y0123060D01*
X0084083Y0129753D02*
X0084083Y0130540D01*
X0146682Y0147469D02*
X0150225Y0151013D01*
X0169910Y0151013D01*
X0209280Y0111643D01*
X0209280Y0067942D01*
X0229831Y0047391D01*
X0230678Y0047391D01*
X0230678Y0037765D01*
X0210678Y0047391D02*
X0210678Y0063394D01*
X0207312Y0066761D01*
X0207312Y0110855D01*
X0169123Y0149044D01*
X0156524Y0149044D01*
X0154950Y0147469D01*
X0153375Y0147469D01*
X0137784Y0175028D02*
X0131209Y0181603D01*
X0137784Y0175028D02*
X0217548Y0175028D01*
X0220698Y0171879D01*
X0258099Y0171879D01*
X0317863Y0112115D01*
X0329477Y0112115D01*
X0321091Y0103375D02*
X0321091Y0093926D01*
X0322902Y0092115D01*
X0329477Y0092115D01*
X0334871Y0086052D02*
X0323454Y0086052D01*
X0334871Y0086052D02*
X0350934Y0102115D01*
X0359477Y0102115D01*
X0315186Y0168729D02*
X0275422Y0168729D01*
X0262430Y0181721D01*
X0226347Y0181721D01*
X0220678Y0187391D01*
X0240678Y0187391D02*
X0245639Y0192351D01*
X0294713Y0192351D01*
X0298257Y0188808D01*
X0336052Y0188808D01*
X0342745Y0182115D01*
X0359477Y0182115D01*
X0359477Y0172115D02*
X0349989Y0172115D01*
X0335265Y0186839D01*
X0323847Y0186839D01*
X0320698Y0183690D01*
X0320698Y0174241D01*
X0315186Y0168729D01*
X0325422Y0199438D02*
X0341170Y0199438D01*
X0347076Y0199438D02*
X0362036Y0199438D01*
X0367154Y0204556D01*
X0369123Y0217154D02*
X0348257Y0217154D01*
X0347076Y0218335D01*
X0341170Y0218335D02*
X0322666Y0218335D01*
X0319123Y0214005D02*
X0339202Y0214005D01*
X0341170Y0212036D01*
X0341170Y0205737D02*
X0331721Y0205737D01*
X0327391Y0210068D01*
X0320304Y0210068D01*
X0319123Y0214005D02*
X0315186Y0217942D01*
X0314792Y0217942D01*
X0322666Y0230146D02*
X0323847Y0230146D01*
X0362824Y0229753D02*
X0363611Y0229753D01*
X0322272Y0204162D02*
X0322272Y0202587D01*
X0325422Y0199438D01*
X0111249Y0224872D02*
X0110855Y0224478D01*
X0091209Y0241603D02*
X0096682Y0247076D01*
X0102587Y0247076D01*
X0106524Y0243139D01*
D24*
X0357312Y0193926D02*
X0357706Y0194320D01*
X0382509Y0091957D02*
X0382902Y0091957D01*
X0378965Y0080540D02*
X0374635Y0080540D01*
X0340383Y0046288D01*
X0339989Y0046288D01*
X0339595Y0046682D01*
X0339595Y0047863D01*
X0353769Y0045501D02*
X0353769Y0045107D01*
X0372666Y0041170D02*
X0373454Y0040383D01*
X0380540Y0078965D02*
X0378965Y0080540D01*
D25*
X0301013Y0095894D02*
X0301013Y0096288D01*
X0301013Y0112036D01*
X0269123Y0143926D01*
X0220186Y0143926D01*
X0218099Y0146013D01*
X0209280Y0141957D02*
X0209280Y0150619D01*
X0218099Y0159438D01*
X0209280Y0141957D02*
X0215186Y0136052D01*
X0221879Y0136052D01*
X0222666Y0136839D01*
X0265580Y0136839D01*
X0292351Y0110068D01*
X0292351Y0096682D01*
X0291957Y0096288D01*
X0118335Y0106131D02*
X0109674Y0106131D01*
X0109674Y0116367D02*
X0114398Y0116367D01*
D26*
X0061170Y0077076D02*
X0045894Y0092351D01*
X0045894Y0142745D01*
X0064792Y0161643D01*
X0174241Y0161643D01*
X0210068Y0125816D01*
X0260855Y0125816D01*
X0280540Y0106131D01*
X0280540Y0091564D01*
X0287627Y0084477D01*
X0302981Y0084477D01*
X0312430Y0093926D01*
X0312430Y0099831D01*
X0061446Y0073178D02*
X0061170Y0073454D01*
X0061170Y0077076D01*
M02*
