G75*
%MOIN*%
%OFA0B0*%
%FSLAX25Y25*%
%IPPOS*%
%LPD*%
%AMOC8*
5,1,8,0,0,1.08239X$1,22.5*
%
%ADD10C,0.14180*%
%ADD11C,0.08000*%
%ADD12R,0.08000X0.08000*%
%ADD13OC8,0.08900*%
%ADD14C,0.06400*%
%ADD15R,0.08668X0.08668*%
%ADD16OC8,0.06400*%
%ADD17C,0.06337*%
%ADD18R,0.06337X0.06337*%
%ADD19C,0.09000*%
%ADD20C,0.10400*%
%ADD21C,0.10900*%
%ADD22C,0.07400*%
D10*
X0026500Y0028269D03*
X0026500Y0438269D03*
X0141500Y0438269D03*
D11*
X0083252Y0428406D03*
D12*
X0102937Y0428406D03*
D13*
X0110768Y0255040D03*
X0105421Y0204312D03*
X0018433Y0187871D03*
D14*
X0131992Y0186091D02*
X0131992Y0180091D01*
X0151992Y0180091D02*
X0151992Y0186091D01*
X0151992Y0230091D02*
X0151992Y0236091D01*
X0131992Y0236091D02*
X0131992Y0230091D01*
X0131992Y0280091D02*
X0131992Y0286091D01*
X0151992Y0286091D02*
X0151992Y0280091D01*
X0151992Y0330091D02*
X0151992Y0336091D01*
X0151992Y0370091D02*
X0151992Y0376091D01*
X0131992Y0376091D02*
X0131992Y0370091D01*
X0131992Y0336091D02*
X0131992Y0330091D01*
X0131992Y0410091D02*
X0131992Y0416091D01*
X0151992Y0416091D02*
X0151992Y0410091D01*
X0151992Y0136091D02*
X0151992Y0130091D01*
X0131992Y0130091D02*
X0131992Y0136091D01*
X0131992Y0086091D02*
X0131992Y0080091D01*
X0151992Y0080091D02*
X0151992Y0086091D01*
X0151992Y0046091D02*
X0151992Y0040091D01*
X0131992Y0040091D02*
X0131992Y0046091D01*
D15*
X0201165Y0033091D03*
X0222819Y0033091D03*
X0222819Y0083091D03*
X0201165Y0083091D03*
X0201165Y0133091D03*
X0222819Y0133091D03*
X0222819Y0183091D03*
X0201165Y0183091D03*
X0201165Y0233091D03*
X0222819Y0233091D03*
X0222819Y0283091D03*
X0201165Y0283091D03*
X0201165Y0333091D03*
X0222819Y0333091D03*
X0222819Y0383091D03*
X0201165Y0383091D03*
X0201165Y0433091D03*
X0222819Y0433091D03*
D16*
X0041992Y0163091D03*
X0041992Y0153091D03*
X0041992Y0143091D03*
X0041992Y0133091D03*
X0041992Y0123091D03*
X0031992Y0123091D03*
X0031992Y0133091D03*
X0031992Y0143091D03*
X0031992Y0153091D03*
X0031992Y0163091D03*
D17*
X0035465Y0216784D03*
X0045465Y0216784D03*
X0075465Y0216784D03*
D18*
X0065465Y0216784D03*
X0055465Y0216784D03*
D19*
X0021465Y0220284D03*
X0074465Y0283284D03*
D20*
X0083524Y0313721D02*
X0083524Y0323721D01*
X0103524Y0323721D02*
X0103524Y0313721D01*
X0041524Y0313721D02*
X0041524Y0323721D01*
X0021524Y0323721D02*
X0021524Y0313721D01*
D21*
X0048744Y0376595D03*
X0048744Y0401595D03*
D22*
X0048744Y0359095D03*
M02*
