%
M48
M72
T01C0.03543
T02C0.03937
T03C0.04000
T04C0.05200
T05C0.05512
T06C0.07000
T07C0.08600
T08C0.13780
%
T01
X82150Y393091
X101835Y393091
X101835Y438091
X82150Y438091
T02
X18724Y12127
X22661Y102678
X66953Y102186
X67937Y83977
X81224Y83977
X77287Y60355
X96972Y48544
X87622Y12619
X70398Y12127
X116657Y102678
X75465Y216784
X65465Y216784
X55465Y216784
X45465Y216784
X35465Y216784
X11343Y231615
X21185Y249331
X32996Y249331
X51205Y261143
X95004Y299036
X95988Y233091
X10850Y298544
T03
X31992Y123091
X31992Y133091
X31992Y143091
X31992Y153091
X31992Y163091
X41992Y163091
X41992Y153091
X41992Y143091
X41992Y133091
X41992Y123091
X131992Y413091
X151992Y413091
X151992Y373091
X131992Y373091
X131992Y333091
X151992Y333091
X151992Y283091
X131992Y283091
X131992Y233091
X151992Y233091
X151992Y183091
X131992Y183091
X131992Y133091
X151992Y133091
X151992Y83091
X131992Y83091
X131992Y43091
X151992Y43091
T04
X18433Y187871
X21524Y318721
X41524Y318721
X83524Y318721
X103524Y318721
X103386Y253564
X105421Y204312
T05
X201165Y433091
X222819Y433091
X222819Y383091
X201165Y383091
X201165Y333091
X222819Y333091
X222819Y283091
X201165Y283091
X201165Y233091
X222819Y233091
X222819Y183091
X201165Y183091
X201165Y133091
X222819Y133091
X222819Y83091
X201165Y83091
X201165Y33091
X222819Y33091
T06
X48744Y351221
X48744Y368721
X48744Y393721
T07
X21465Y220284
X74465Y283284
T08
X26500Y28269
X26500Y438269
X141500Y438269
M30
