G75*
%MOIN*%
%OFA0B0*%
%FSLAX25Y25*%
%IPPOS*%
%LPD*%
%AMOC8*
5,1,8,0,0,1.08239X$1,22.5*
%
%ADD10C,0.00000*%
%ADD11C,0.14180*%
%ADD12C,0.01000*%
%ADD13C,0.08000*%
%ADD14R,0.08000X0.08000*%
%ADD15OC8,0.08900*%
%ADD16C,0.06400*%
%ADD17R,0.08668X0.08668*%
%ADD18OC8,0.06400*%
%ADD19C,0.06337*%
%ADD20R,0.06337X0.06337*%
%ADD21C,0.09000*%
%ADD22C,0.10400*%
%ADD23C,0.10900*%
%ADD24C,0.07400*%
D10*
X0019610Y0028269D02*
X0019612Y0028438D01*
X0019618Y0028607D01*
X0019629Y0028776D01*
X0019643Y0028944D01*
X0019662Y0029112D01*
X0019685Y0029280D01*
X0019711Y0029447D01*
X0019742Y0029613D01*
X0019777Y0029779D01*
X0019816Y0029943D01*
X0019860Y0030107D01*
X0019907Y0030269D01*
X0019958Y0030430D01*
X0020013Y0030590D01*
X0020072Y0030749D01*
X0020134Y0030906D01*
X0020201Y0031061D01*
X0020272Y0031215D01*
X0020346Y0031367D01*
X0020424Y0031517D01*
X0020505Y0031665D01*
X0020590Y0031811D01*
X0020679Y0031955D01*
X0020771Y0032097D01*
X0020867Y0032236D01*
X0020966Y0032373D01*
X0021068Y0032508D01*
X0021174Y0032640D01*
X0021283Y0032769D01*
X0021395Y0032896D01*
X0021510Y0033020D01*
X0021628Y0033141D01*
X0021749Y0033259D01*
X0021873Y0033374D01*
X0022000Y0033486D01*
X0022129Y0033595D01*
X0022261Y0033701D01*
X0022396Y0033803D01*
X0022533Y0033902D01*
X0022672Y0033998D01*
X0022814Y0034090D01*
X0022958Y0034179D01*
X0023104Y0034264D01*
X0023252Y0034345D01*
X0023402Y0034423D01*
X0023554Y0034497D01*
X0023708Y0034568D01*
X0023863Y0034635D01*
X0024020Y0034697D01*
X0024179Y0034756D01*
X0024339Y0034811D01*
X0024500Y0034862D01*
X0024662Y0034909D01*
X0024826Y0034953D01*
X0024990Y0034992D01*
X0025156Y0035027D01*
X0025322Y0035058D01*
X0025489Y0035084D01*
X0025657Y0035107D01*
X0025825Y0035126D01*
X0025993Y0035140D01*
X0026162Y0035151D01*
X0026331Y0035157D01*
X0026500Y0035159D01*
X0026669Y0035157D01*
X0026838Y0035151D01*
X0027007Y0035140D01*
X0027175Y0035126D01*
X0027343Y0035107D01*
X0027511Y0035084D01*
X0027678Y0035058D01*
X0027844Y0035027D01*
X0028010Y0034992D01*
X0028174Y0034953D01*
X0028338Y0034909D01*
X0028500Y0034862D01*
X0028661Y0034811D01*
X0028821Y0034756D01*
X0028980Y0034697D01*
X0029137Y0034635D01*
X0029292Y0034568D01*
X0029446Y0034497D01*
X0029598Y0034423D01*
X0029748Y0034345D01*
X0029896Y0034264D01*
X0030042Y0034179D01*
X0030186Y0034090D01*
X0030328Y0033998D01*
X0030467Y0033902D01*
X0030604Y0033803D01*
X0030739Y0033701D01*
X0030871Y0033595D01*
X0031000Y0033486D01*
X0031127Y0033374D01*
X0031251Y0033259D01*
X0031372Y0033141D01*
X0031490Y0033020D01*
X0031605Y0032896D01*
X0031717Y0032769D01*
X0031826Y0032640D01*
X0031932Y0032508D01*
X0032034Y0032373D01*
X0032133Y0032236D01*
X0032229Y0032097D01*
X0032321Y0031955D01*
X0032410Y0031811D01*
X0032495Y0031665D01*
X0032576Y0031517D01*
X0032654Y0031367D01*
X0032728Y0031215D01*
X0032799Y0031061D01*
X0032866Y0030906D01*
X0032928Y0030749D01*
X0032987Y0030590D01*
X0033042Y0030430D01*
X0033093Y0030269D01*
X0033140Y0030107D01*
X0033184Y0029943D01*
X0033223Y0029779D01*
X0033258Y0029613D01*
X0033289Y0029447D01*
X0033315Y0029280D01*
X0033338Y0029112D01*
X0033357Y0028944D01*
X0033371Y0028776D01*
X0033382Y0028607D01*
X0033388Y0028438D01*
X0033390Y0028269D01*
X0033388Y0028100D01*
X0033382Y0027931D01*
X0033371Y0027762D01*
X0033357Y0027594D01*
X0033338Y0027426D01*
X0033315Y0027258D01*
X0033289Y0027091D01*
X0033258Y0026925D01*
X0033223Y0026759D01*
X0033184Y0026595D01*
X0033140Y0026431D01*
X0033093Y0026269D01*
X0033042Y0026108D01*
X0032987Y0025948D01*
X0032928Y0025789D01*
X0032866Y0025632D01*
X0032799Y0025477D01*
X0032728Y0025323D01*
X0032654Y0025171D01*
X0032576Y0025021D01*
X0032495Y0024873D01*
X0032410Y0024727D01*
X0032321Y0024583D01*
X0032229Y0024441D01*
X0032133Y0024302D01*
X0032034Y0024165D01*
X0031932Y0024030D01*
X0031826Y0023898D01*
X0031717Y0023769D01*
X0031605Y0023642D01*
X0031490Y0023518D01*
X0031372Y0023397D01*
X0031251Y0023279D01*
X0031127Y0023164D01*
X0031000Y0023052D01*
X0030871Y0022943D01*
X0030739Y0022837D01*
X0030604Y0022735D01*
X0030467Y0022636D01*
X0030328Y0022540D01*
X0030186Y0022448D01*
X0030042Y0022359D01*
X0029896Y0022274D01*
X0029748Y0022193D01*
X0029598Y0022115D01*
X0029446Y0022041D01*
X0029292Y0021970D01*
X0029137Y0021903D01*
X0028980Y0021841D01*
X0028821Y0021782D01*
X0028661Y0021727D01*
X0028500Y0021676D01*
X0028338Y0021629D01*
X0028174Y0021585D01*
X0028010Y0021546D01*
X0027844Y0021511D01*
X0027678Y0021480D01*
X0027511Y0021454D01*
X0027343Y0021431D01*
X0027175Y0021412D01*
X0027007Y0021398D01*
X0026838Y0021387D01*
X0026669Y0021381D01*
X0026500Y0021379D01*
X0026331Y0021381D01*
X0026162Y0021387D01*
X0025993Y0021398D01*
X0025825Y0021412D01*
X0025657Y0021431D01*
X0025489Y0021454D01*
X0025322Y0021480D01*
X0025156Y0021511D01*
X0024990Y0021546D01*
X0024826Y0021585D01*
X0024662Y0021629D01*
X0024500Y0021676D01*
X0024339Y0021727D01*
X0024179Y0021782D01*
X0024020Y0021841D01*
X0023863Y0021903D01*
X0023708Y0021970D01*
X0023554Y0022041D01*
X0023402Y0022115D01*
X0023252Y0022193D01*
X0023104Y0022274D01*
X0022958Y0022359D01*
X0022814Y0022448D01*
X0022672Y0022540D01*
X0022533Y0022636D01*
X0022396Y0022735D01*
X0022261Y0022837D01*
X0022129Y0022943D01*
X0022000Y0023052D01*
X0021873Y0023164D01*
X0021749Y0023279D01*
X0021628Y0023397D01*
X0021510Y0023518D01*
X0021395Y0023642D01*
X0021283Y0023769D01*
X0021174Y0023898D01*
X0021068Y0024030D01*
X0020966Y0024165D01*
X0020867Y0024302D01*
X0020771Y0024441D01*
X0020679Y0024583D01*
X0020590Y0024727D01*
X0020505Y0024873D01*
X0020424Y0025021D01*
X0020346Y0025171D01*
X0020272Y0025323D01*
X0020201Y0025477D01*
X0020134Y0025632D01*
X0020072Y0025789D01*
X0020013Y0025948D01*
X0019958Y0026108D01*
X0019907Y0026269D01*
X0019860Y0026431D01*
X0019816Y0026595D01*
X0019777Y0026759D01*
X0019742Y0026925D01*
X0019711Y0027091D01*
X0019685Y0027258D01*
X0019662Y0027426D01*
X0019643Y0027594D01*
X0019629Y0027762D01*
X0019618Y0027931D01*
X0019612Y0028100D01*
X0019610Y0028269D01*
X0017165Y0220284D02*
X0017167Y0220415D01*
X0017173Y0220545D01*
X0017183Y0220675D01*
X0017197Y0220805D01*
X0017214Y0220934D01*
X0017236Y0221063D01*
X0017262Y0221191D01*
X0017291Y0221318D01*
X0017324Y0221444D01*
X0017362Y0221569D01*
X0017402Y0221693D01*
X0017447Y0221816D01*
X0017495Y0221937D01*
X0017547Y0222057D01*
X0017603Y0222175D01*
X0017662Y0222291D01*
X0017725Y0222406D01*
X0017791Y0222518D01*
X0017860Y0222629D01*
X0017933Y0222737D01*
X0018009Y0222843D01*
X0018089Y0222947D01*
X0018171Y0223048D01*
X0018256Y0223147D01*
X0018345Y0223243D01*
X0018436Y0223336D01*
X0018530Y0223427D01*
X0018627Y0223514D01*
X0018726Y0223599D01*
X0018828Y0223680D01*
X0018932Y0223759D01*
X0019039Y0223834D01*
X0019148Y0223906D01*
X0019259Y0223975D01*
X0019372Y0224040D01*
X0019487Y0224102D01*
X0019604Y0224160D01*
X0019722Y0224215D01*
X0019842Y0224266D01*
X0019964Y0224313D01*
X0020087Y0224357D01*
X0020211Y0224397D01*
X0020336Y0224433D01*
X0020463Y0224466D01*
X0020590Y0224494D01*
X0020718Y0224519D01*
X0020847Y0224539D01*
X0020977Y0224556D01*
X0021106Y0224569D01*
X0021237Y0224578D01*
X0021367Y0224583D01*
X0021498Y0224584D01*
X0021628Y0224581D01*
X0021758Y0224574D01*
X0021889Y0224563D01*
X0022018Y0224548D01*
X0022147Y0224530D01*
X0022276Y0224507D01*
X0022404Y0224480D01*
X0022531Y0224450D01*
X0022657Y0224416D01*
X0022781Y0224378D01*
X0022905Y0224336D01*
X0023027Y0224290D01*
X0023148Y0224241D01*
X0023267Y0224188D01*
X0023385Y0224131D01*
X0023501Y0224071D01*
X0023615Y0224008D01*
X0023727Y0223941D01*
X0023837Y0223871D01*
X0023945Y0223797D01*
X0024050Y0223720D01*
X0024153Y0223640D01*
X0024254Y0223557D01*
X0024352Y0223471D01*
X0024447Y0223382D01*
X0024540Y0223290D01*
X0024630Y0223195D01*
X0024717Y0223098D01*
X0024801Y0222998D01*
X0024881Y0222895D01*
X0024959Y0222790D01*
X0025034Y0222683D01*
X0025105Y0222574D01*
X0025172Y0222462D01*
X0025237Y0222349D01*
X0025298Y0222233D01*
X0025355Y0222116D01*
X0025409Y0221997D01*
X0025459Y0221877D01*
X0025506Y0221755D01*
X0025548Y0221631D01*
X0025587Y0221507D01*
X0025623Y0221381D01*
X0025654Y0221254D01*
X0025682Y0221127D01*
X0025705Y0220999D01*
X0025725Y0220870D01*
X0025741Y0220740D01*
X0025753Y0220610D01*
X0025761Y0220480D01*
X0025765Y0220349D01*
X0025765Y0220219D01*
X0025761Y0220088D01*
X0025753Y0219958D01*
X0025741Y0219828D01*
X0025725Y0219698D01*
X0025705Y0219569D01*
X0025682Y0219441D01*
X0025654Y0219314D01*
X0025623Y0219187D01*
X0025587Y0219061D01*
X0025548Y0218937D01*
X0025506Y0218813D01*
X0025459Y0218691D01*
X0025409Y0218571D01*
X0025355Y0218452D01*
X0025298Y0218335D01*
X0025237Y0218219D01*
X0025172Y0218106D01*
X0025105Y0217994D01*
X0025034Y0217885D01*
X0024959Y0217778D01*
X0024881Y0217673D01*
X0024801Y0217570D01*
X0024717Y0217470D01*
X0024630Y0217373D01*
X0024540Y0217278D01*
X0024447Y0217186D01*
X0024352Y0217097D01*
X0024254Y0217011D01*
X0024153Y0216928D01*
X0024050Y0216848D01*
X0023945Y0216771D01*
X0023837Y0216697D01*
X0023727Y0216627D01*
X0023615Y0216560D01*
X0023501Y0216497D01*
X0023385Y0216437D01*
X0023267Y0216380D01*
X0023148Y0216327D01*
X0023027Y0216278D01*
X0022905Y0216232D01*
X0022781Y0216190D01*
X0022657Y0216152D01*
X0022531Y0216118D01*
X0022404Y0216088D01*
X0022276Y0216061D01*
X0022147Y0216038D01*
X0022018Y0216020D01*
X0021889Y0216005D01*
X0021758Y0215994D01*
X0021628Y0215987D01*
X0021498Y0215984D01*
X0021367Y0215985D01*
X0021237Y0215990D01*
X0021106Y0215999D01*
X0020977Y0216012D01*
X0020847Y0216029D01*
X0020718Y0216049D01*
X0020590Y0216074D01*
X0020463Y0216102D01*
X0020336Y0216135D01*
X0020211Y0216171D01*
X0020087Y0216211D01*
X0019964Y0216255D01*
X0019842Y0216302D01*
X0019722Y0216353D01*
X0019604Y0216408D01*
X0019487Y0216466D01*
X0019372Y0216528D01*
X0019259Y0216593D01*
X0019148Y0216662D01*
X0019039Y0216734D01*
X0018932Y0216809D01*
X0018828Y0216888D01*
X0018726Y0216969D01*
X0018627Y0217054D01*
X0018530Y0217141D01*
X0018436Y0217232D01*
X0018345Y0217325D01*
X0018256Y0217421D01*
X0018171Y0217520D01*
X0018089Y0217621D01*
X0018009Y0217725D01*
X0017933Y0217831D01*
X0017860Y0217939D01*
X0017791Y0218050D01*
X0017725Y0218162D01*
X0017662Y0218277D01*
X0017603Y0218393D01*
X0017547Y0218511D01*
X0017495Y0218631D01*
X0017447Y0218752D01*
X0017402Y0218875D01*
X0017362Y0218999D01*
X0017324Y0219124D01*
X0017291Y0219250D01*
X0017262Y0219377D01*
X0017236Y0219505D01*
X0017214Y0219634D01*
X0017197Y0219763D01*
X0017183Y0219893D01*
X0017173Y0220023D01*
X0017167Y0220153D01*
X0017165Y0220284D01*
X0070165Y0283284D02*
X0070167Y0283415D01*
X0070173Y0283545D01*
X0070183Y0283675D01*
X0070197Y0283805D01*
X0070214Y0283934D01*
X0070236Y0284063D01*
X0070262Y0284191D01*
X0070291Y0284318D01*
X0070324Y0284444D01*
X0070362Y0284569D01*
X0070402Y0284693D01*
X0070447Y0284816D01*
X0070495Y0284937D01*
X0070547Y0285057D01*
X0070603Y0285175D01*
X0070662Y0285291D01*
X0070725Y0285406D01*
X0070791Y0285518D01*
X0070860Y0285629D01*
X0070933Y0285737D01*
X0071009Y0285843D01*
X0071089Y0285947D01*
X0071171Y0286048D01*
X0071256Y0286147D01*
X0071345Y0286243D01*
X0071436Y0286336D01*
X0071530Y0286427D01*
X0071627Y0286514D01*
X0071726Y0286599D01*
X0071828Y0286680D01*
X0071932Y0286759D01*
X0072039Y0286834D01*
X0072148Y0286906D01*
X0072259Y0286975D01*
X0072372Y0287040D01*
X0072487Y0287102D01*
X0072604Y0287160D01*
X0072722Y0287215D01*
X0072842Y0287266D01*
X0072964Y0287313D01*
X0073087Y0287357D01*
X0073211Y0287397D01*
X0073336Y0287433D01*
X0073463Y0287466D01*
X0073590Y0287494D01*
X0073718Y0287519D01*
X0073847Y0287539D01*
X0073977Y0287556D01*
X0074106Y0287569D01*
X0074237Y0287578D01*
X0074367Y0287583D01*
X0074498Y0287584D01*
X0074628Y0287581D01*
X0074758Y0287574D01*
X0074889Y0287563D01*
X0075018Y0287548D01*
X0075147Y0287530D01*
X0075276Y0287507D01*
X0075404Y0287480D01*
X0075531Y0287450D01*
X0075657Y0287416D01*
X0075781Y0287378D01*
X0075905Y0287336D01*
X0076027Y0287290D01*
X0076148Y0287241D01*
X0076267Y0287188D01*
X0076385Y0287131D01*
X0076501Y0287071D01*
X0076615Y0287008D01*
X0076727Y0286941D01*
X0076837Y0286871D01*
X0076945Y0286797D01*
X0077050Y0286720D01*
X0077153Y0286640D01*
X0077254Y0286557D01*
X0077352Y0286471D01*
X0077447Y0286382D01*
X0077540Y0286290D01*
X0077630Y0286195D01*
X0077717Y0286098D01*
X0077801Y0285998D01*
X0077881Y0285895D01*
X0077959Y0285790D01*
X0078034Y0285683D01*
X0078105Y0285574D01*
X0078172Y0285462D01*
X0078237Y0285349D01*
X0078298Y0285233D01*
X0078355Y0285116D01*
X0078409Y0284997D01*
X0078459Y0284877D01*
X0078506Y0284755D01*
X0078548Y0284631D01*
X0078587Y0284507D01*
X0078623Y0284381D01*
X0078654Y0284254D01*
X0078682Y0284127D01*
X0078705Y0283999D01*
X0078725Y0283870D01*
X0078741Y0283740D01*
X0078753Y0283610D01*
X0078761Y0283480D01*
X0078765Y0283349D01*
X0078765Y0283219D01*
X0078761Y0283088D01*
X0078753Y0282958D01*
X0078741Y0282828D01*
X0078725Y0282698D01*
X0078705Y0282569D01*
X0078682Y0282441D01*
X0078654Y0282314D01*
X0078623Y0282187D01*
X0078587Y0282061D01*
X0078548Y0281937D01*
X0078506Y0281813D01*
X0078459Y0281691D01*
X0078409Y0281571D01*
X0078355Y0281452D01*
X0078298Y0281335D01*
X0078237Y0281219D01*
X0078172Y0281106D01*
X0078105Y0280994D01*
X0078034Y0280885D01*
X0077959Y0280778D01*
X0077881Y0280673D01*
X0077801Y0280570D01*
X0077717Y0280470D01*
X0077630Y0280373D01*
X0077540Y0280278D01*
X0077447Y0280186D01*
X0077352Y0280097D01*
X0077254Y0280011D01*
X0077153Y0279928D01*
X0077050Y0279848D01*
X0076945Y0279771D01*
X0076837Y0279697D01*
X0076727Y0279627D01*
X0076615Y0279560D01*
X0076501Y0279497D01*
X0076385Y0279437D01*
X0076267Y0279380D01*
X0076148Y0279327D01*
X0076027Y0279278D01*
X0075905Y0279232D01*
X0075781Y0279190D01*
X0075657Y0279152D01*
X0075531Y0279118D01*
X0075404Y0279088D01*
X0075276Y0279061D01*
X0075147Y0279038D01*
X0075018Y0279020D01*
X0074889Y0279005D01*
X0074758Y0278994D01*
X0074628Y0278987D01*
X0074498Y0278984D01*
X0074367Y0278985D01*
X0074237Y0278990D01*
X0074106Y0278999D01*
X0073977Y0279012D01*
X0073847Y0279029D01*
X0073718Y0279049D01*
X0073590Y0279074D01*
X0073463Y0279102D01*
X0073336Y0279135D01*
X0073211Y0279171D01*
X0073087Y0279211D01*
X0072964Y0279255D01*
X0072842Y0279302D01*
X0072722Y0279353D01*
X0072604Y0279408D01*
X0072487Y0279466D01*
X0072372Y0279528D01*
X0072259Y0279593D01*
X0072148Y0279662D01*
X0072039Y0279734D01*
X0071932Y0279809D01*
X0071828Y0279888D01*
X0071726Y0279969D01*
X0071627Y0280054D01*
X0071530Y0280141D01*
X0071436Y0280232D01*
X0071345Y0280325D01*
X0071256Y0280421D01*
X0071171Y0280520D01*
X0071089Y0280621D01*
X0071009Y0280725D01*
X0070933Y0280831D01*
X0070860Y0280939D01*
X0070791Y0281050D01*
X0070725Y0281162D01*
X0070662Y0281277D01*
X0070603Y0281393D01*
X0070547Y0281511D01*
X0070495Y0281631D01*
X0070447Y0281752D01*
X0070402Y0281875D01*
X0070362Y0281999D01*
X0070324Y0282124D01*
X0070291Y0282250D01*
X0070262Y0282377D01*
X0070236Y0282505D01*
X0070214Y0282634D01*
X0070197Y0282763D01*
X0070183Y0282893D01*
X0070173Y0283023D01*
X0070167Y0283153D01*
X0070165Y0283284D01*
X0045244Y0351221D02*
X0045246Y0351339D01*
X0045252Y0351457D01*
X0045262Y0351575D01*
X0045276Y0351692D01*
X0045294Y0351809D01*
X0045316Y0351926D01*
X0045341Y0352041D01*
X0045371Y0352155D01*
X0045405Y0352269D01*
X0045442Y0352381D01*
X0045483Y0352492D01*
X0045528Y0352601D01*
X0045576Y0352709D01*
X0045628Y0352815D01*
X0045684Y0352920D01*
X0045743Y0353022D01*
X0045805Y0353122D01*
X0045871Y0353220D01*
X0045940Y0353316D01*
X0046013Y0353410D01*
X0046088Y0353501D01*
X0046167Y0353589D01*
X0046248Y0353675D01*
X0046333Y0353758D01*
X0046420Y0353838D01*
X0046509Y0353915D01*
X0046602Y0353989D01*
X0046696Y0354059D01*
X0046793Y0354127D01*
X0046893Y0354191D01*
X0046994Y0354252D01*
X0047097Y0354309D01*
X0047203Y0354363D01*
X0047310Y0354414D01*
X0047418Y0354460D01*
X0047528Y0354503D01*
X0047640Y0354542D01*
X0047753Y0354578D01*
X0047867Y0354609D01*
X0047982Y0354637D01*
X0048097Y0354661D01*
X0048214Y0354681D01*
X0048331Y0354697D01*
X0048449Y0354709D01*
X0048567Y0354717D01*
X0048685Y0354721D01*
X0048803Y0354721D01*
X0048921Y0354717D01*
X0049039Y0354709D01*
X0049157Y0354697D01*
X0049274Y0354681D01*
X0049391Y0354661D01*
X0049506Y0354637D01*
X0049621Y0354609D01*
X0049735Y0354578D01*
X0049848Y0354542D01*
X0049960Y0354503D01*
X0050070Y0354460D01*
X0050178Y0354414D01*
X0050285Y0354363D01*
X0050391Y0354309D01*
X0050494Y0354252D01*
X0050595Y0354191D01*
X0050695Y0354127D01*
X0050792Y0354059D01*
X0050886Y0353989D01*
X0050979Y0353915D01*
X0051068Y0353838D01*
X0051155Y0353758D01*
X0051240Y0353675D01*
X0051321Y0353589D01*
X0051400Y0353501D01*
X0051475Y0353410D01*
X0051548Y0353316D01*
X0051617Y0353220D01*
X0051683Y0353122D01*
X0051745Y0353022D01*
X0051804Y0352920D01*
X0051860Y0352815D01*
X0051912Y0352709D01*
X0051960Y0352601D01*
X0052005Y0352492D01*
X0052046Y0352381D01*
X0052083Y0352269D01*
X0052117Y0352155D01*
X0052147Y0352041D01*
X0052172Y0351926D01*
X0052194Y0351809D01*
X0052212Y0351692D01*
X0052226Y0351575D01*
X0052236Y0351457D01*
X0052242Y0351339D01*
X0052244Y0351221D01*
X0052242Y0351103D01*
X0052236Y0350985D01*
X0052226Y0350867D01*
X0052212Y0350750D01*
X0052194Y0350633D01*
X0052172Y0350516D01*
X0052147Y0350401D01*
X0052117Y0350287D01*
X0052083Y0350173D01*
X0052046Y0350061D01*
X0052005Y0349950D01*
X0051960Y0349841D01*
X0051912Y0349733D01*
X0051860Y0349627D01*
X0051804Y0349522D01*
X0051745Y0349420D01*
X0051683Y0349320D01*
X0051617Y0349222D01*
X0051548Y0349126D01*
X0051475Y0349032D01*
X0051400Y0348941D01*
X0051321Y0348853D01*
X0051240Y0348767D01*
X0051155Y0348684D01*
X0051068Y0348604D01*
X0050979Y0348527D01*
X0050886Y0348453D01*
X0050792Y0348383D01*
X0050695Y0348315D01*
X0050595Y0348251D01*
X0050494Y0348190D01*
X0050391Y0348133D01*
X0050285Y0348079D01*
X0050178Y0348028D01*
X0050070Y0347982D01*
X0049960Y0347939D01*
X0049848Y0347900D01*
X0049735Y0347864D01*
X0049621Y0347833D01*
X0049506Y0347805D01*
X0049391Y0347781D01*
X0049274Y0347761D01*
X0049157Y0347745D01*
X0049039Y0347733D01*
X0048921Y0347725D01*
X0048803Y0347721D01*
X0048685Y0347721D01*
X0048567Y0347725D01*
X0048449Y0347733D01*
X0048331Y0347745D01*
X0048214Y0347761D01*
X0048097Y0347781D01*
X0047982Y0347805D01*
X0047867Y0347833D01*
X0047753Y0347864D01*
X0047640Y0347900D01*
X0047528Y0347939D01*
X0047418Y0347982D01*
X0047310Y0348028D01*
X0047203Y0348079D01*
X0047097Y0348133D01*
X0046994Y0348190D01*
X0046893Y0348251D01*
X0046793Y0348315D01*
X0046696Y0348383D01*
X0046602Y0348453D01*
X0046509Y0348527D01*
X0046420Y0348604D01*
X0046333Y0348684D01*
X0046248Y0348767D01*
X0046167Y0348853D01*
X0046088Y0348941D01*
X0046013Y0349032D01*
X0045940Y0349126D01*
X0045871Y0349222D01*
X0045805Y0349320D01*
X0045743Y0349420D01*
X0045684Y0349522D01*
X0045628Y0349627D01*
X0045576Y0349733D01*
X0045528Y0349841D01*
X0045483Y0349950D01*
X0045442Y0350061D01*
X0045405Y0350173D01*
X0045371Y0350287D01*
X0045341Y0350401D01*
X0045316Y0350516D01*
X0045294Y0350633D01*
X0045276Y0350750D01*
X0045262Y0350867D01*
X0045252Y0350985D01*
X0045246Y0351103D01*
X0045244Y0351221D01*
X0019610Y0438269D02*
X0019612Y0438438D01*
X0019618Y0438607D01*
X0019629Y0438776D01*
X0019643Y0438944D01*
X0019662Y0439112D01*
X0019685Y0439280D01*
X0019711Y0439447D01*
X0019742Y0439613D01*
X0019777Y0439779D01*
X0019816Y0439943D01*
X0019860Y0440107D01*
X0019907Y0440269D01*
X0019958Y0440430D01*
X0020013Y0440590D01*
X0020072Y0440749D01*
X0020134Y0440906D01*
X0020201Y0441061D01*
X0020272Y0441215D01*
X0020346Y0441367D01*
X0020424Y0441517D01*
X0020505Y0441665D01*
X0020590Y0441811D01*
X0020679Y0441955D01*
X0020771Y0442097D01*
X0020867Y0442236D01*
X0020966Y0442373D01*
X0021068Y0442508D01*
X0021174Y0442640D01*
X0021283Y0442769D01*
X0021395Y0442896D01*
X0021510Y0443020D01*
X0021628Y0443141D01*
X0021749Y0443259D01*
X0021873Y0443374D01*
X0022000Y0443486D01*
X0022129Y0443595D01*
X0022261Y0443701D01*
X0022396Y0443803D01*
X0022533Y0443902D01*
X0022672Y0443998D01*
X0022814Y0444090D01*
X0022958Y0444179D01*
X0023104Y0444264D01*
X0023252Y0444345D01*
X0023402Y0444423D01*
X0023554Y0444497D01*
X0023708Y0444568D01*
X0023863Y0444635D01*
X0024020Y0444697D01*
X0024179Y0444756D01*
X0024339Y0444811D01*
X0024500Y0444862D01*
X0024662Y0444909D01*
X0024826Y0444953D01*
X0024990Y0444992D01*
X0025156Y0445027D01*
X0025322Y0445058D01*
X0025489Y0445084D01*
X0025657Y0445107D01*
X0025825Y0445126D01*
X0025993Y0445140D01*
X0026162Y0445151D01*
X0026331Y0445157D01*
X0026500Y0445159D01*
X0026669Y0445157D01*
X0026838Y0445151D01*
X0027007Y0445140D01*
X0027175Y0445126D01*
X0027343Y0445107D01*
X0027511Y0445084D01*
X0027678Y0445058D01*
X0027844Y0445027D01*
X0028010Y0444992D01*
X0028174Y0444953D01*
X0028338Y0444909D01*
X0028500Y0444862D01*
X0028661Y0444811D01*
X0028821Y0444756D01*
X0028980Y0444697D01*
X0029137Y0444635D01*
X0029292Y0444568D01*
X0029446Y0444497D01*
X0029598Y0444423D01*
X0029748Y0444345D01*
X0029896Y0444264D01*
X0030042Y0444179D01*
X0030186Y0444090D01*
X0030328Y0443998D01*
X0030467Y0443902D01*
X0030604Y0443803D01*
X0030739Y0443701D01*
X0030871Y0443595D01*
X0031000Y0443486D01*
X0031127Y0443374D01*
X0031251Y0443259D01*
X0031372Y0443141D01*
X0031490Y0443020D01*
X0031605Y0442896D01*
X0031717Y0442769D01*
X0031826Y0442640D01*
X0031932Y0442508D01*
X0032034Y0442373D01*
X0032133Y0442236D01*
X0032229Y0442097D01*
X0032321Y0441955D01*
X0032410Y0441811D01*
X0032495Y0441665D01*
X0032576Y0441517D01*
X0032654Y0441367D01*
X0032728Y0441215D01*
X0032799Y0441061D01*
X0032866Y0440906D01*
X0032928Y0440749D01*
X0032987Y0440590D01*
X0033042Y0440430D01*
X0033093Y0440269D01*
X0033140Y0440107D01*
X0033184Y0439943D01*
X0033223Y0439779D01*
X0033258Y0439613D01*
X0033289Y0439447D01*
X0033315Y0439280D01*
X0033338Y0439112D01*
X0033357Y0438944D01*
X0033371Y0438776D01*
X0033382Y0438607D01*
X0033388Y0438438D01*
X0033390Y0438269D01*
X0033388Y0438100D01*
X0033382Y0437931D01*
X0033371Y0437762D01*
X0033357Y0437594D01*
X0033338Y0437426D01*
X0033315Y0437258D01*
X0033289Y0437091D01*
X0033258Y0436925D01*
X0033223Y0436759D01*
X0033184Y0436595D01*
X0033140Y0436431D01*
X0033093Y0436269D01*
X0033042Y0436108D01*
X0032987Y0435948D01*
X0032928Y0435789D01*
X0032866Y0435632D01*
X0032799Y0435477D01*
X0032728Y0435323D01*
X0032654Y0435171D01*
X0032576Y0435021D01*
X0032495Y0434873D01*
X0032410Y0434727D01*
X0032321Y0434583D01*
X0032229Y0434441D01*
X0032133Y0434302D01*
X0032034Y0434165D01*
X0031932Y0434030D01*
X0031826Y0433898D01*
X0031717Y0433769D01*
X0031605Y0433642D01*
X0031490Y0433518D01*
X0031372Y0433397D01*
X0031251Y0433279D01*
X0031127Y0433164D01*
X0031000Y0433052D01*
X0030871Y0432943D01*
X0030739Y0432837D01*
X0030604Y0432735D01*
X0030467Y0432636D01*
X0030328Y0432540D01*
X0030186Y0432448D01*
X0030042Y0432359D01*
X0029896Y0432274D01*
X0029748Y0432193D01*
X0029598Y0432115D01*
X0029446Y0432041D01*
X0029292Y0431970D01*
X0029137Y0431903D01*
X0028980Y0431841D01*
X0028821Y0431782D01*
X0028661Y0431727D01*
X0028500Y0431676D01*
X0028338Y0431629D01*
X0028174Y0431585D01*
X0028010Y0431546D01*
X0027844Y0431511D01*
X0027678Y0431480D01*
X0027511Y0431454D01*
X0027343Y0431431D01*
X0027175Y0431412D01*
X0027007Y0431398D01*
X0026838Y0431387D01*
X0026669Y0431381D01*
X0026500Y0431379D01*
X0026331Y0431381D01*
X0026162Y0431387D01*
X0025993Y0431398D01*
X0025825Y0431412D01*
X0025657Y0431431D01*
X0025489Y0431454D01*
X0025322Y0431480D01*
X0025156Y0431511D01*
X0024990Y0431546D01*
X0024826Y0431585D01*
X0024662Y0431629D01*
X0024500Y0431676D01*
X0024339Y0431727D01*
X0024179Y0431782D01*
X0024020Y0431841D01*
X0023863Y0431903D01*
X0023708Y0431970D01*
X0023554Y0432041D01*
X0023402Y0432115D01*
X0023252Y0432193D01*
X0023104Y0432274D01*
X0022958Y0432359D01*
X0022814Y0432448D01*
X0022672Y0432540D01*
X0022533Y0432636D01*
X0022396Y0432735D01*
X0022261Y0432837D01*
X0022129Y0432943D01*
X0022000Y0433052D01*
X0021873Y0433164D01*
X0021749Y0433279D01*
X0021628Y0433397D01*
X0021510Y0433518D01*
X0021395Y0433642D01*
X0021283Y0433769D01*
X0021174Y0433898D01*
X0021068Y0434030D01*
X0020966Y0434165D01*
X0020867Y0434302D01*
X0020771Y0434441D01*
X0020679Y0434583D01*
X0020590Y0434727D01*
X0020505Y0434873D01*
X0020424Y0435021D01*
X0020346Y0435171D01*
X0020272Y0435323D01*
X0020201Y0435477D01*
X0020134Y0435632D01*
X0020072Y0435789D01*
X0020013Y0435948D01*
X0019958Y0436108D01*
X0019907Y0436269D01*
X0019860Y0436431D01*
X0019816Y0436595D01*
X0019777Y0436759D01*
X0019742Y0436925D01*
X0019711Y0437091D01*
X0019685Y0437258D01*
X0019662Y0437426D01*
X0019643Y0437594D01*
X0019629Y0437762D01*
X0019618Y0437931D01*
X0019612Y0438100D01*
X0019610Y0438269D01*
X0134610Y0438269D02*
X0134612Y0438438D01*
X0134618Y0438607D01*
X0134629Y0438776D01*
X0134643Y0438944D01*
X0134662Y0439112D01*
X0134685Y0439280D01*
X0134711Y0439447D01*
X0134742Y0439613D01*
X0134777Y0439779D01*
X0134816Y0439943D01*
X0134860Y0440107D01*
X0134907Y0440269D01*
X0134958Y0440430D01*
X0135013Y0440590D01*
X0135072Y0440749D01*
X0135134Y0440906D01*
X0135201Y0441061D01*
X0135272Y0441215D01*
X0135346Y0441367D01*
X0135424Y0441517D01*
X0135505Y0441665D01*
X0135590Y0441811D01*
X0135679Y0441955D01*
X0135771Y0442097D01*
X0135867Y0442236D01*
X0135966Y0442373D01*
X0136068Y0442508D01*
X0136174Y0442640D01*
X0136283Y0442769D01*
X0136395Y0442896D01*
X0136510Y0443020D01*
X0136628Y0443141D01*
X0136749Y0443259D01*
X0136873Y0443374D01*
X0137000Y0443486D01*
X0137129Y0443595D01*
X0137261Y0443701D01*
X0137396Y0443803D01*
X0137533Y0443902D01*
X0137672Y0443998D01*
X0137814Y0444090D01*
X0137958Y0444179D01*
X0138104Y0444264D01*
X0138252Y0444345D01*
X0138402Y0444423D01*
X0138554Y0444497D01*
X0138708Y0444568D01*
X0138863Y0444635D01*
X0139020Y0444697D01*
X0139179Y0444756D01*
X0139339Y0444811D01*
X0139500Y0444862D01*
X0139662Y0444909D01*
X0139826Y0444953D01*
X0139990Y0444992D01*
X0140156Y0445027D01*
X0140322Y0445058D01*
X0140489Y0445084D01*
X0140657Y0445107D01*
X0140825Y0445126D01*
X0140993Y0445140D01*
X0141162Y0445151D01*
X0141331Y0445157D01*
X0141500Y0445159D01*
X0141669Y0445157D01*
X0141838Y0445151D01*
X0142007Y0445140D01*
X0142175Y0445126D01*
X0142343Y0445107D01*
X0142511Y0445084D01*
X0142678Y0445058D01*
X0142844Y0445027D01*
X0143010Y0444992D01*
X0143174Y0444953D01*
X0143338Y0444909D01*
X0143500Y0444862D01*
X0143661Y0444811D01*
X0143821Y0444756D01*
X0143980Y0444697D01*
X0144137Y0444635D01*
X0144292Y0444568D01*
X0144446Y0444497D01*
X0144598Y0444423D01*
X0144748Y0444345D01*
X0144896Y0444264D01*
X0145042Y0444179D01*
X0145186Y0444090D01*
X0145328Y0443998D01*
X0145467Y0443902D01*
X0145604Y0443803D01*
X0145739Y0443701D01*
X0145871Y0443595D01*
X0146000Y0443486D01*
X0146127Y0443374D01*
X0146251Y0443259D01*
X0146372Y0443141D01*
X0146490Y0443020D01*
X0146605Y0442896D01*
X0146717Y0442769D01*
X0146826Y0442640D01*
X0146932Y0442508D01*
X0147034Y0442373D01*
X0147133Y0442236D01*
X0147229Y0442097D01*
X0147321Y0441955D01*
X0147410Y0441811D01*
X0147495Y0441665D01*
X0147576Y0441517D01*
X0147654Y0441367D01*
X0147728Y0441215D01*
X0147799Y0441061D01*
X0147866Y0440906D01*
X0147928Y0440749D01*
X0147987Y0440590D01*
X0148042Y0440430D01*
X0148093Y0440269D01*
X0148140Y0440107D01*
X0148184Y0439943D01*
X0148223Y0439779D01*
X0148258Y0439613D01*
X0148289Y0439447D01*
X0148315Y0439280D01*
X0148338Y0439112D01*
X0148357Y0438944D01*
X0148371Y0438776D01*
X0148382Y0438607D01*
X0148388Y0438438D01*
X0148390Y0438269D01*
X0148388Y0438100D01*
X0148382Y0437931D01*
X0148371Y0437762D01*
X0148357Y0437594D01*
X0148338Y0437426D01*
X0148315Y0437258D01*
X0148289Y0437091D01*
X0148258Y0436925D01*
X0148223Y0436759D01*
X0148184Y0436595D01*
X0148140Y0436431D01*
X0148093Y0436269D01*
X0148042Y0436108D01*
X0147987Y0435948D01*
X0147928Y0435789D01*
X0147866Y0435632D01*
X0147799Y0435477D01*
X0147728Y0435323D01*
X0147654Y0435171D01*
X0147576Y0435021D01*
X0147495Y0434873D01*
X0147410Y0434727D01*
X0147321Y0434583D01*
X0147229Y0434441D01*
X0147133Y0434302D01*
X0147034Y0434165D01*
X0146932Y0434030D01*
X0146826Y0433898D01*
X0146717Y0433769D01*
X0146605Y0433642D01*
X0146490Y0433518D01*
X0146372Y0433397D01*
X0146251Y0433279D01*
X0146127Y0433164D01*
X0146000Y0433052D01*
X0145871Y0432943D01*
X0145739Y0432837D01*
X0145604Y0432735D01*
X0145467Y0432636D01*
X0145328Y0432540D01*
X0145186Y0432448D01*
X0145042Y0432359D01*
X0144896Y0432274D01*
X0144748Y0432193D01*
X0144598Y0432115D01*
X0144446Y0432041D01*
X0144292Y0431970D01*
X0144137Y0431903D01*
X0143980Y0431841D01*
X0143821Y0431782D01*
X0143661Y0431727D01*
X0143500Y0431676D01*
X0143338Y0431629D01*
X0143174Y0431585D01*
X0143010Y0431546D01*
X0142844Y0431511D01*
X0142678Y0431480D01*
X0142511Y0431454D01*
X0142343Y0431431D01*
X0142175Y0431412D01*
X0142007Y0431398D01*
X0141838Y0431387D01*
X0141669Y0431381D01*
X0141500Y0431379D01*
X0141331Y0431381D01*
X0141162Y0431387D01*
X0140993Y0431398D01*
X0140825Y0431412D01*
X0140657Y0431431D01*
X0140489Y0431454D01*
X0140322Y0431480D01*
X0140156Y0431511D01*
X0139990Y0431546D01*
X0139826Y0431585D01*
X0139662Y0431629D01*
X0139500Y0431676D01*
X0139339Y0431727D01*
X0139179Y0431782D01*
X0139020Y0431841D01*
X0138863Y0431903D01*
X0138708Y0431970D01*
X0138554Y0432041D01*
X0138402Y0432115D01*
X0138252Y0432193D01*
X0138104Y0432274D01*
X0137958Y0432359D01*
X0137814Y0432448D01*
X0137672Y0432540D01*
X0137533Y0432636D01*
X0137396Y0432735D01*
X0137261Y0432837D01*
X0137129Y0432943D01*
X0137000Y0433052D01*
X0136873Y0433164D01*
X0136749Y0433279D01*
X0136628Y0433397D01*
X0136510Y0433518D01*
X0136395Y0433642D01*
X0136283Y0433769D01*
X0136174Y0433898D01*
X0136068Y0434030D01*
X0135966Y0434165D01*
X0135867Y0434302D01*
X0135771Y0434441D01*
X0135679Y0434583D01*
X0135590Y0434727D01*
X0135505Y0434873D01*
X0135424Y0435021D01*
X0135346Y0435171D01*
X0135272Y0435323D01*
X0135201Y0435477D01*
X0135134Y0435632D01*
X0135072Y0435789D01*
X0135013Y0435948D01*
X0134958Y0436108D01*
X0134907Y0436269D01*
X0134860Y0436431D01*
X0134816Y0436595D01*
X0134777Y0436759D01*
X0134742Y0436925D01*
X0134711Y0437091D01*
X0134685Y0437258D01*
X0134662Y0437426D01*
X0134643Y0437594D01*
X0134629Y0437762D01*
X0134618Y0437931D01*
X0134612Y0438100D01*
X0134610Y0438269D01*
D11*
X0141500Y0438269D03*
X0026500Y0438269D03*
X0026500Y0028269D03*
D12*
X0001500Y0003269D02*
X0001500Y0463269D01*
X0251500Y0463269D01*
X0251500Y0003269D01*
X0001500Y0003269D01*
D13*
X0101835Y0393091D03*
X0101835Y0438091D03*
D14*
X0082150Y0438091D03*
X0082150Y0393091D03*
D15*
X0103386Y0253564D03*
X0105421Y0204312D03*
X0018433Y0187871D03*
D16*
X0131992Y0186091D02*
X0131992Y0180091D01*
X0151992Y0180091D02*
X0151992Y0186091D01*
X0151992Y0230091D02*
X0151992Y0236091D01*
X0131992Y0236091D02*
X0131992Y0230091D01*
X0131992Y0280091D02*
X0131992Y0286091D01*
X0151992Y0286091D02*
X0151992Y0280091D01*
X0151992Y0330091D02*
X0151992Y0336091D01*
X0151992Y0370091D02*
X0151992Y0376091D01*
X0131992Y0376091D02*
X0131992Y0370091D01*
X0131992Y0336091D02*
X0131992Y0330091D01*
X0131992Y0410091D02*
X0131992Y0416091D01*
X0151992Y0416091D02*
X0151992Y0410091D01*
X0151992Y0136091D02*
X0151992Y0130091D01*
X0131992Y0130091D02*
X0131992Y0136091D01*
X0131992Y0086091D02*
X0131992Y0080091D01*
X0151992Y0080091D02*
X0151992Y0086091D01*
X0151992Y0046091D02*
X0151992Y0040091D01*
X0131992Y0040091D02*
X0131992Y0046091D01*
D17*
X0201165Y0033091D03*
X0222819Y0033091D03*
X0222819Y0083091D03*
X0201165Y0083091D03*
X0201165Y0133091D03*
X0222819Y0133091D03*
X0222819Y0183091D03*
X0201165Y0183091D03*
X0201165Y0233091D03*
X0222819Y0233091D03*
X0222819Y0283091D03*
X0201165Y0283091D03*
X0201165Y0333091D03*
X0222819Y0333091D03*
X0222819Y0383091D03*
X0201165Y0383091D03*
X0201165Y0433091D03*
X0222819Y0433091D03*
D18*
X0041992Y0163091D03*
X0041992Y0153091D03*
X0041992Y0143091D03*
X0041992Y0133091D03*
X0041992Y0123091D03*
X0031992Y0123091D03*
X0031992Y0133091D03*
X0031992Y0143091D03*
X0031992Y0153091D03*
X0031992Y0163091D03*
D19*
X0035465Y0216784D03*
X0045465Y0216784D03*
X0075465Y0216784D03*
D20*
X0065465Y0216784D03*
X0055465Y0216784D03*
D21*
X0021465Y0220284D03*
X0074465Y0283284D03*
D22*
X0083524Y0313721D02*
X0083524Y0323721D01*
X0103524Y0323721D02*
X0103524Y0313721D01*
X0041524Y0313721D02*
X0041524Y0323721D01*
X0021524Y0323721D02*
X0021524Y0313721D01*
D23*
X0048744Y0368721D03*
X0048744Y0393721D03*
D24*
X0048744Y0351221D03*
M02*
