G75*
%MOIN*%
%OFA0B0*%
%FSLAX25Y25*%
%IPPOS*%
%LPD*%
%AMOC8*
5,1,8,0,0,1.08239X$1,22.5*
%
%ADD10C,0.14180*%
%ADD11R,0.08600X0.07400*%
%ADD12R,0.06699X0.11030*%
%ADD13C,0.08000*%
%ADD14R,0.08000X0.08000*%
%ADD15R,0.06306X0.06306*%
%ADD16R,0.07498X0.06699*%
%ADD17OC8,0.08900*%
%ADD18C,0.06400*%
%ADD19R,0.08668X0.08668*%
%ADD20OC8,0.06400*%
%ADD21R,0.06699X0.07498*%
%ADD22C,0.06337*%
%ADD23R,0.06337X0.06337*%
%ADD24C,0.09000*%
%ADD25R,0.08274X0.06699*%
%ADD26R,0.06699X0.08274*%
%ADD27C,0.10400*%
%ADD28C,0.10900*%
%ADD29C,0.07400*%
D10*
X0026500Y0028269D03*
X0026500Y0438269D03*
X0141500Y0438269D03*
D11*
X0099234Y0353662D03*
X0082034Y0353662D03*
D12*
X0082110Y0373839D03*
X0093134Y0373839D03*
X0093075Y0394784D03*
X0082051Y0394784D03*
X0084472Y0185650D03*
X0073449Y0185650D03*
X0059472Y0185650D03*
X0048449Y0185650D03*
D13*
X0083252Y0428406D03*
D14*
X0102937Y0428406D03*
D15*
X0016555Y0405481D03*
X0016555Y0391702D03*
X0011992Y0149981D03*
X0011992Y0136202D03*
X0243992Y0139981D03*
X0243992Y0126202D03*
X0243992Y0089981D03*
X0243992Y0076202D03*
X0243992Y0039981D03*
X0243992Y0026202D03*
X0243992Y0176202D03*
X0243992Y0189981D03*
X0243992Y0226202D03*
X0243992Y0239981D03*
X0243992Y0276202D03*
X0243992Y0289981D03*
X0243992Y0326202D03*
X0243992Y0339981D03*
X0243992Y0376202D03*
X0243992Y0389981D03*
X0243992Y0426202D03*
X0243992Y0439981D03*
D16*
X0176992Y0438690D03*
X0176992Y0427493D03*
X0176992Y0388690D03*
X0176992Y0377493D03*
X0176992Y0338690D03*
X0176992Y0327493D03*
X0176992Y0288690D03*
X0176992Y0277493D03*
X0176992Y0238690D03*
X0176992Y0227493D03*
X0176992Y0188690D03*
X0176992Y0177493D03*
X0176992Y0138690D03*
X0176992Y0127493D03*
X0176992Y0088690D03*
X0176992Y0077493D03*
X0176992Y0038690D03*
X0176992Y0027493D03*
X0016315Y0369095D03*
X0016315Y0380292D03*
D17*
X0110768Y0255040D03*
X0105421Y0204312D03*
X0018433Y0187871D03*
D18*
X0131992Y0186091D02*
X0131992Y0180091D01*
X0151992Y0180091D02*
X0151992Y0186091D01*
X0151992Y0230091D02*
X0151992Y0236091D01*
X0131992Y0236091D02*
X0131992Y0230091D01*
X0131992Y0280091D02*
X0131992Y0286091D01*
X0151992Y0286091D02*
X0151992Y0280091D01*
X0151992Y0330091D02*
X0151992Y0336091D01*
X0151992Y0370091D02*
X0151992Y0376091D01*
X0131992Y0376091D02*
X0131992Y0370091D01*
X0131992Y0336091D02*
X0131992Y0330091D01*
X0131992Y0410091D02*
X0131992Y0416091D01*
X0151992Y0416091D02*
X0151992Y0410091D01*
X0151992Y0136091D02*
X0151992Y0130091D01*
X0131992Y0130091D02*
X0131992Y0136091D01*
X0131992Y0086091D02*
X0131992Y0080091D01*
X0151992Y0080091D02*
X0151992Y0086091D01*
X0151992Y0046091D02*
X0151992Y0040091D01*
X0131992Y0040091D02*
X0131992Y0046091D01*
D19*
X0201165Y0033091D03*
X0222819Y0033091D03*
X0222819Y0083091D03*
X0201165Y0083091D03*
X0201165Y0133091D03*
X0222819Y0133091D03*
X0222819Y0183091D03*
X0201165Y0183091D03*
X0201165Y0233091D03*
X0222819Y0233091D03*
X0222819Y0283091D03*
X0201165Y0283091D03*
X0201165Y0333091D03*
X0222819Y0333091D03*
X0222819Y0383091D03*
X0201165Y0383091D03*
X0201165Y0433091D03*
X0222819Y0433091D03*
D20*
X0041992Y0163091D03*
X0041992Y0153091D03*
X0041992Y0143091D03*
X0041992Y0133091D03*
X0041992Y0123091D03*
X0031992Y0123091D03*
X0031992Y0133091D03*
X0031992Y0143091D03*
X0031992Y0153091D03*
X0031992Y0163091D03*
D21*
X0073362Y0140650D03*
X0084559Y0140650D03*
D22*
X0075465Y0216784D03*
X0045465Y0216784D03*
X0035465Y0216784D03*
D23*
X0055465Y0216784D03*
X0065465Y0216784D03*
D24*
X0074465Y0283284D03*
X0021465Y0220284D03*
D25*
X0176992Y0213603D03*
X0176992Y0202580D03*
X0176992Y0163603D03*
X0176992Y0152580D03*
X0176992Y0113603D03*
X0176992Y0102580D03*
X0176992Y0063603D03*
X0176992Y0052580D03*
X0176992Y0252580D03*
X0176992Y0263603D03*
X0176992Y0302580D03*
X0176992Y0313603D03*
X0176992Y0352580D03*
X0176992Y0363603D03*
X0176992Y0402580D03*
X0176992Y0413603D03*
D26*
X0084472Y0165650D03*
X0073449Y0165650D03*
X0146480Y0018091D03*
X0157504Y0018091D03*
D27*
X0103524Y0313721D02*
X0103524Y0323721D01*
X0083524Y0323721D02*
X0083524Y0313721D01*
X0041524Y0313721D02*
X0041524Y0323721D01*
X0021524Y0323721D02*
X0021524Y0313721D01*
D28*
X0048744Y0376595D03*
X0048744Y0401595D03*
D29*
X0048744Y0359095D03*
M02*
