G75*
%MOIN*%
%OFA0B0*%
%FSLAX25Y25*%
%IPPOS*%
%LPD*%
%AMOC8*
5,1,8,0,0,1.08239X$1,22.5*
%
%ADD10C,0.00000*%
%ADD11C,0.01000*%
%ADD12C,0.07600*%
%ADD13R,0.07600X0.07600*%
%ADD14OC8,0.08500*%
%ADD15C,0.06000*%
%ADD16R,0.08268X0.08268*%
%ADD17OC8,0.06000*%
%ADD18C,0.05937*%
%ADD19R,0.05937X0.05937*%
%ADD20C,0.10000*%
%ADD21C,0.10500*%
%ADD22C,0.00600*%
%ADD23OC8,0.05906*%
%ADD24C,0.07500*%
D10*
X0019610Y0028269D02*
X0019612Y0028438D01*
X0019618Y0028607D01*
X0019629Y0028776D01*
X0019643Y0028944D01*
X0019662Y0029112D01*
X0019685Y0029280D01*
X0019711Y0029447D01*
X0019742Y0029613D01*
X0019777Y0029779D01*
X0019816Y0029943D01*
X0019860Y0030107D01*
X0019907Y0030269D01*
X0019958Y0030430D01*
X0020013Y0030590D01*
X0020072Y0030749D01*
X0020134Y0030906D01*
X0020201Y0031061D01*
X0020272Y0031215D01*
X0020346Y0031367D01*
X0020424Y0031517D01*
X0020505Y0031665D01*
X0020590Y0031811D01*
X0020679Y0031955D01*
X0020771Y0032097D01*
X0020867Y0032236D01*
X0020966Y0032373D01*
X0021068Y0032508D01*
X0021174Y0032640D01*
X0021283Y0032769D01*
X0021395Y0032896D01*
X0021510Y0033020D01*
X0021628Y0033141D01*
X0021749Y0033259D01*
X0021873Y0033374D01*
X0022000Y0033486D01*
X0022129Y0033595D01*
X0022261Y0033701D01*
X0022396Y0033803D01*
X0022533Y0033902D01*
X0022672Y0033998D01*
X0022814Y0034090D01*
X0022958Y0034179D01*
X0023104Y0034264D01*
X0023252Y0034345D01*
X0023402Y0034423D01*
X0023554Y0034497D01*
X0023708Y0034568D01*
X0023863Y0034635D01*
X0024020Y0034697D01*
X0024179Y0034756D01*
X0024339Y0034811D01*
X0024500Y0034862D01*
X0024662Y0034909D01*
X0024826Y0034953D01*
X0024990Y0034992D01*
X0025156Y0035027D01*
X0025322Y0035058D01*
X0025489Y0035084D01*
X0025657Y0035107D01*
X0025825Y0035126D01*
X0025993Y0035140D01*
X0026162Y0035151D01*
X0026331Y0035157D01*
X0026500Y0035159D01*
X0026669Y0035157D01*
X0026838Y0035151D01*
X0027007Y0035140D01*
X0027175Y0035126D01*
X0027343Y0035107D01*
X0027511Y0035084D01*
X0027678Y0035058D01*
X0027844Y0035027D01*
X0028010Y0034992D01*
X0028174Y0034953D01*
X0028338Y0034909D01*
X0028500Y0034862D01*
X0028661Y0034811D01*
X0028821Y0034756D01*
X0028980Y0034697D01*
X0029137Y0034635D01*
X0029292Y0034568D01*
X0029446Y0034497D01*
X0029598Y0034423D01*
X0029748Y0034345D01*
X0029896Y0034264D01*
X0030042Y0034179D01*
X0030186Y0034090D01*
X0030328Y0033998D01*
X0030467Y0033902D01*
X0030604Y0033803D01*
X0030739Y0033701D01*
X0030871Y0033595D01*
X0031000Y0033486D01*
X0031127Y0033374D01*
X0031251Y0033259D01*
X0031372Y0033141D01*
X0031490Y0033020D01*
X0031605Y0032896D01*
X0031717Y0032769D01*
X0031826Y0032640D01*
X0031932Y0032508D01*
X0032034Y0032373D01*
X0032133Y0032236D01*
X0032229Y0032097D01*
X0032321Y0031955D01*
X0032410Y0031811D01*
X0032495Y0031665D01*
X0032576Y0031517D01*
X0032654Y0031367D01*
X0032728Y0031215D01*
X0032799Y0031061D01*
X0032866Y0030906D01*
X0032928Y0030749D01*
X0032987Y0030590D01*
X0033042Y0030430D01*
X0033093Y0030269D01*
X0033140Y0030107D01*
X0033184Y0029943D01*
X0033223Y0029779D01*
X0033258Y0029613D01*
X0033289Y0029447D01*
X0033315Y0029280D01*
X0033338Y0029112D01*
X0033357Y0028944D01*
X0033371Y0028776D01*
X0033382Y0028607D01*
X0033388Y0028438D01*
X0033390Y0028269D01*
X0033388Y0028100D01*
X0033382Y0027931D01*
X0033371Y0027762D01*
X0033357Y0027594D01*
X0033338Y0027426D01*
X0033315Y0027258D01*
X0033289Y0027091D01*
X0033258Y0026925D01*
X0033223Y0026759D01*
X0033184Y0026595D01*
X0033140Y0026431D01*
X0033093Y0026269D01*
X0033042Y0026108D01*
X0032987Y0025948D01*
X0032928Y0025789D01*
X0032866Y0025632D01*
X0032799Y0025477D01*
X0032728Y0025323D01*
X0032654Y0025171D01*
X0032576Y0025021D01*
X0032495Y0024873D01*
X0032410Y0024727D01*
X0032321Y0024583D01*
X0032229Y0024441D01*
X0032133Y0024302D01*
X0032034Y0024165D01*
X0031932Y0024030D01*
X0031826Y0023898D01*
X0031717Y0023769D01*
X0031605Y0023642D01*
X0031490Y0023518D01*
X0031372Y0023397D01*
X0031251Y0023279D01*
X0031127Y0023164D01*
X0031000Y0023052D01*
X0030871Y0022943D01*
X0030739Y0022837D01*
X0030604Y0022735D01*
X0030467Y0022636D01*
X0030328Y0022540D01*
X0030186Y0022448D01*
X0030042Y0022359D01*
X0029896Y0022274D01*
X0029748Y0022193D01*
X0029598Y0022115D01*
X0029446Y0022041D01*
X0029292Y0021970D01*
X0029137Y0021903D01*
X0028980Y0021841D01*
X0028821Y0021782D01*
X0028661Y0021727D01*
X0028500Y0021676D01*
X0028338Y0021629D01*
X0028174Y0021585D01*
X0028010Y0021546D01*
X0027844Y0021511D01*
X0027678Y0021480D01*
X0027511Y0021454D01*
X0027343Y0021431D01*
X0027175Y0021412D01*
X0027007Y0021398D01*
X0026838Y0021387D01*
X0026669Y0021381D01*
X0026500Y0021379D01*
X0026331Y0021381D01*
X0026162Y0021387D01*
X0025993Y0021398D01*
X0025825Y0021412D01*
X0025657Y0021431D01*
X0025489Y0021454D01*
X0025322Y0021480D01*
X0025156Y0021511D01*
X0024990Y0021546D01*
X0024826Y0021585D01*
X0024662Y0021629D01*
X0024500Y0021676D01*
X0024339Y0021727D01*
X0024179Y0021782D01*
X0024020Y0021841D01*
X0023863Y0021903D01*
X0023708Y0021970D01*
X0023554Y0022041D01*
X0023402Y0022115D01*
X0023252Y0022193D01*
X0023104Y0022274D01*
X0022958Y0022359D01*
X0022814Y0022448D01*
X0022672Y0022540D01*
X0022533Y0022636D01*
X0022396Y0022735D01*
X0022261Y0022837D01*
X0022129Y0022943D01*
X0022000Y0023052D01*
X0021873Y0023164D01*
X0021749Y0023279D01*
X0021628Y0023397D01*
X0021510Y0023518D01*
X0021395Y0023642D01*
X0021283Y0023769D01*
X0021174Y0023898D01*
X0021068Y0024030D01*
X0020966Y0024165D01*
X0020867Y0024302D01*
X0020771Y0024441D01*
X0020679Y0024583D01*
X0020590Y0024727D01*
X0020505Y0024873D01*
X0020424Y0025021D01*
X0020346Y0025171D01*
X0020272Y0025323D01*
X0020201Y0025477D01*
X0020134Y0025632D01*
X0020072Y0025789D01*
X0020013Y0025948D01*
X0019958Y0026108D01*
X0019907Y0026269D01*
X0019860Y0026431D01*
X0019816Y0026595D01*
X0019777Y0026759D01*
X0019742Y0026925D01*
X0019711Y0027091D01*
X0019685Y0027258D01*
X0019662Y0027426D01*
X0019643Y0027594D01*
X0019629Y0027762D01*
X0019618Y0027931D01*
X0019612Y0028100D01*
X0019610Y0028269D01*
X0017165Y0220284D02*
X0017167Y0220415D01*
X0017173Y0220545D01*
X0017183Y0220675D01*
X0017197Y0220805D01*
X0017214Y0220934D01*
X0017236Y0221063D01*
X0017262Y0221191D01*
X0017291Y0221318D01*
X0017324Y0221444D01*
X0017362Y0221569D01*
X0017402Y0221693D01*
X0017447Y0221816D01*
X0017495Y0221937D01*
X0017547Y0222057D01*
X0017603Y0222175D01*
X0017662Y0222291D01*
X0017725Y0222406D01*
X0017791Y0222518D01*
X0017860Y0222629D01*
X0017933Y0222737D01*
X0018009Y0222843D01*
X0018089Y0222947D01*
X0018171Y0223048D01*
X0018256Y0223147D01*
X0018345Y0223243D01*
X0018436Y0223336D01*
X0018530Y0223427D01*
X0018627Y0223514D01*
X0018726Y0223599D01*
X0018828Y0223680D01*
X0018932Y0223759D01*
X0019039Y0223834D01*
X0019148Y0223906D01*
X0019259Y0223975D01*
X0019372Y0224040D01*
X0019487Y0224102D01*
X0019604Y0224160D01*
X0019722Y0224215D01*
X0019842Y0224266D01*
X0019964Y0224313D01*
X0020087Y0224357D01*
X0020211Y0224397D01*
X0020336Y0224433D01*
X0020463Y0224466D01*
X0020590Y0224494D01*
X0020718Y0224519D01*
X0020847Y0224539D01*
X0020977Y0224556D01*
X0021106Y0224569D01*
X0021237Y0224578D01*
X0021367Y0224583D01*
X0021498Y0224584D01*
X0021628Y0224581D01*
X0021758Y0224574D01*
X0021889Y0224563D01*
X0022018Y0224548D01*
X0022147Y0224530D01*
X0022276Y0224507D01*
X0022404Y0224480D01*
X0022531Y0224450D01*
X0022657Y0224416D01*
X0022781Y0224378D01*
X0022905Y0224336D01*
X0023027Y0224290D01*
X0023148Y0224241D01*
X0023267Y0224188D01*
X0023385Y0224131D01*
X0023501Y0224071D01*
X0023615Y0224008D01*
X0023727Y0223941D01*
X0023837Y0223871D01*
X0023945Y0223797D01*
X0024050Y0223720D01*
X0024153Y0223640D01*
X0024254Y0223557D01*
X0024352Y0223471D01*
X0024447Y0223382D01*
X0024540Y0223290D01*
X0024630Y0223195D01*
X0024717Y0223098D01*
X0024801Y0222998D01*
X0024881Y0222895D01*
X0024959Y0222790D01*
X0025034Y0222683D01*
X0025105Y0222574D01*
X0025172Y0222462D01*
X0025237Y0222349D01*
X0025298Y0222233D01*
X0025355Y0222116D01*
X0025409Y0221997D01*
X0025459Y0221877D01*
X0025506Y0221755D01*
X0025548Y0221631D01*
X0025587Y0221507D01*
X0025623Y0221381D01*
X0025654Y0221254D01*
X0025682Y0221127D01*
X0025705Y0220999D01*
X0025725Y0220870D01*
X0025741Y0220740D01*
X0025753Y0220610D01*
X0025761Y0220480D01*
X0025765Y0220349D01*
X0025765Y0220219D01*
X0025761Y0220088D01*
X0025753Y0219958D01*
X0025741Y0219828D01*
X0025725Y0219698D01*
X0025705Y0219569D01*
X0025682Y0219441D01*
X0025654Y0219314D01*
X0025623Y0219187D01*
X0025587Y0219061D01*
X0025548Y0218937D01*
X0025506Y0218813D01*
X0025459Y0218691D01*
X0025409Y0218571D01*
X0025355Y0218452D01*
X0025298Y0218335D01*
X0025237Y0218219D01*
X0025172Y0218106D01*
X0025105Y0217994D01*
X0025034Y0217885D01*
X0024959Y0217778D01*
X0024881Y0217673D01*
X0024801Y0217570D01*
X0024717Y0217470D01*
X0024630Y0217373D01*
X0024540Y0217278D01*
X0024447Y0217186D01*
X0024352Y0217097D01*
X0024254Y0217011D01*
X0024153Y0216928D01*
X0024050Y0216848D01*
X0023945Y0216771D01*
X0023837Y0216697D01*
X0023727Y0216627D01*
X0023615Y0216560D01*
X0023501Y0216497D01*
X0023385Y0216437D01*
X0023267Y0216380D01*
X0023148Y0216327D01*
X0023027Y0216278D01*
X0022905Y0216232D01*
X0022781Y0216190D01*
X0022657Y0216152D01*
X0022531Y0216118D01*
X0022404Y0216088D01*
X0022276Y0216061D01*
X0022147Y0216038D01*
X0022018Y0216020D01*
X0021889Y0216005D01*
X0021758Y0215994D01*
X0021628Y0215987D01*
X0021498Y0215984D01*
X0021367Y0215985D01*
X0021237Y0215990D01*
X0021106Y0215999D01*
X0020977Y0216012D01*
X0020847Y0216029D01*
X0020718Y0216049D01*
X0020590Y0216074D01*
X0020463Y0216102D01*
X0020336Y0216135D01*
X0020211Y0216171D01*
X0020087Y0216211D01*
X0019964Y0216255D01*
X0019842Y0216302D01*
X0019722Y0216353D01*
X0019604Y0216408D01*
X0019487Y0216466D01*
X0019372Y0216528D01*
X0019259Y0216593D01*
X0019148Y0216662D01*
X0019039Y0216734D01*
X0018932Y0216809D01*
X0018828Y0216888D01*
X0018726Y0216969D01*
X0018627Y0217054D01*
X0018530Y0217141D01*
X0018436Y0217232D01*
X0018345Y0217325D01*
X0018256Y0217421D01*
X0018171Y0217520D01*
X0018089Y0217621D01*
X0018009Y0217725D01*
X0017933Y0217831D01*
X0017860Y0217939D01*
X0017791Y0218050D01*
X0017725Y0218162D01*
X0017662Y0218277D01*
X0017603Y0218393D01*
X0017547Y0218511D01*
X0017495Y0218631D01*
X0017447Y0218752D01*
X0017402Y0218875D01*
X0017362Y0218999D01*
X0017324Y0219124D01*
X0017291Y0219250D01*
X0017262Y0219377D01*
X0017236Y0219505D01*
X0017214Y0219634D01*
X0017197Y0219763D01*
X0017183Y0219893D01*
X0017173Y0220023D01*
X0017167Y0220153D01*
X0017165Y0220284D01*
X0070165Y0283284D02*
X0070167Y0283415D01*
X0070173Y0283545D01*
X0070183Y0283675D01*
X0070197Y0283805D01*
X0070214Y0283934D01*
X0070236Y0284063D01*
X0070262Y0284191D01*
X0070291Y0284318D01*
X0070324Y0284444D01*
X0070362Y0284569D01*
X0070402Y0284693D01*
X0070447Y0284816D01*
X0070495Y0284937D01*
X0070547Y0285057D01*
X0070603Y0285175D01*
X0070662Y0285291D01*
X0070725Y0285406D01*
X0070791Y0285518D01*
X0070860Y0285629D01*
X0070933Y0285737D01*
X0071009Y0285843D01*
X0071089Y0285947D01*
X0071171Y0286048D01*
X0071256Y0286147D01*
X0071345Y0286243D01*
X0071436Y0286336D01*
X0071530Y0286427D01*
X0071627Y0286514D01*
X0071726Y0286599D01*
X0071828Y0286680D01*
X0071932Y0286759D01*
X0072039Y0286834D01*
X0072148Y0286906D01*
X0072259Y0286975D01*
X0072372Y0287040D01*
X0072487Y0287102D01*
X0072604Y0287160D01*
X0072722Y0287215D01*
X0072842Y0287266D01*
X0072964Y0287313D01*
X0073087Y0287357D01*
X0073211Y0287397D01*
X0073336Y0287433D01*
X0073463Y0287466D01*
X0073590Y0287494D01*
X0073718Y0287519D01*
X0073847Y0287539D01*
X0073977Y0287556D01*
X0074106Y0287569D01*
X0074237Y0287578D01*
X0074367Y0287583D01*
X0074498Y0287584D01*
X0074628Y0287581D01*
X0074758Y0287574D01*
X0074889Y0287563D01*
X0075018Y0287548D01*
X0075147Y0287530D01*
X0075276Y0287507D01*
X0075404Y0287480D01*
X0075531Y0287450D01*
X0075657Y0287416D01*
X0075781Y0287378D01*
X0075905Y0287336D01*
X0076027Y0287290D01*
X0076148Y0287241D01*
X0076267Y0287188D01*
X0076385Y0287131D01*
X0076501Y0287071D01*
X0076615Y0287008D01*
X0076727Y0286941D01*
X0076837Y0286871D01*
X0076945Y0286797D01*
X0077050Y0286720D01*
X0077153Y0286640D01*
X0077254Y0286557D01*
X0077352Y0286471D01*
X0077447Y0286382D01*
X0077540Y0286290D01*
X0077630Y0286195D01*
X0077717Y0286098D01*
X0077801Y0285998D01*
X0077881Y0285895D01*
X0077959Y0285790D01*
X0078034Y0285683D01*
X0078105Y0285574D01*
X0078172Y0285462D01*
X0078237Y0285349D01*
X0078298Y0285233D01*
X0078355Y0285116D01*
X0078409Y0284997D01*
X0078459Y0284877D01*
X0078506Y0284755D01*
X0078548Y0284631D01*
X0078587Y0284507D01*
X0078623Y0284381D01*
X0078654Y0284254D01*
X0078682Y0284127D01*
X0078705Y0283999D01*
X0078725Y0283870D01*
X0078741Y0283740D01*
X0078753Y0283610D01*
X0078761Y0283480D01*
X0078765Y0283349D01*
X0078765Y0283219D01*
X0078761Y0283088D01*
X0078753Y0282958D01*
X0078741Y0282828D01*
X0078725Y0282698D01*
X0078705Y0282569D01*
X0078682Y0282441D01*
X0078654Y0282314D01*
X0078623Y0282187D01*
X0078587Y0282061D01*
X0078548Y0281937D01*
X0078506Y0281813D01*
X0078459Y0281691D01*
X0078409Y0281571D01*
X0078355Y0281452D01*
X0078298Y0281335D01*
X0078237Y0281219D01*
X0078172Y0281106D01*
X0078105Y0280994D01*
X0078034Y0280885D01*
X0077959Y0280778D01*
X0077881Y0280673D01*
X0077801Y0280570D01*
X0077717Y0280470D01*
X0077630Y0280373D01*
X0077540Y0280278D01*
X0077447Y0280186D01*
X0077352Y0280097D01*
X0077254Y0280011D01*
X0077153Y0279928D01*
X0077050Y0279848D01*
X0076945Y0279771D01*
X0076837Y0279697D01*
X0076727Y0279627D01*
X0076615Y0279560D01*
X0076501Y0279497D01*
X0076385Y0279437D01*
X0076267Y0279380D01*
X0076148Y0279327D01*
X0076027Y0279278D01*
X0075905Y0279232D01*
X0075781Y0279190D01*
X0075657Y0279152D01*
X0075531Y0279118D01*
X0075404Y0279088D01*
X0075276Y0279061D01*
X0075147Y0279038D01*
X0075018Y0279020D01*
X0074889Y0279005D01*
X0074758Y0278994D01*
X0074628Y0278987D01*
X0074498Y0278984D01*
X0074367Y0278985D01*
X0074237Y0278990D01*
X0074106Y0278999D01*
X0073977Y0279012D01*
X0073847Y0279029D01*
X0073718Y0279049D01*
X0073590Y0279074D01*
X0073463Y0279102D01*
X0073336Y0279135D01*
X0073211Y0279171D01*
X0073087Y0279211D01*
X0072964Y0279255D01*
X0072842Y0279302D01*
X0072722Y0279353D01*
X0072604Y0279408D01*
X0072487Y0279466D01*
X0072372Y0279528D01*
X0072259Y0279593D01*
X0072148Y0279662D01*
X0072039Y0279734D01*
X0071932Y0279809D01*
X0071828Y0279888D01*
X0071726Y0279969D01*
X0071627Y0280054D01*
X0071530Y0280141D01*
X0071436Y0280232D01*
X0071345Y0280325D01*
X0071256Y0280421D01*
X0071171Y0280520D01*
X0071089Y0280621D01*
X0071009Y0280725D01*
X0070933Y0280831D01*
X0070860Y0280939D01*
X0070791Y0281050D01*
X0070725Y0281162D01*
X0070662Y0281277D01*
X0070603Y0281393D01*
X0070547Y0281511D01*
X0070495Y0281631D01*
X0070447Y0281752D01*
X0070402Y0281875D01*
X0070362Y0281999D01*
X0070324Y0282124D01*
X0070291Y0282250D01*
X0070262Y0282377D01*
X0070236Y0282505D01*
X0070214Y0282634D01*
X0070197Y0282763D01*
X0070183Y0282893D01*
X0070173Y0283023D01*
X0070167Y0283153D01*
X0070165Y0283284D01*
X0045244Y0359095D02*
X0045246Y0359213D01*
X0045252Y0359331D01*
X0045262Y0359449D01*
X0045276Y0359566D01*
X0045294Y0359683D01*
X0045316Y0359800D01*
X0045341Y0359915D01*
X0045371Y0360029D01*
X0045405Y0360143D01*
X0045442Y0360255D01*
X0045483Y0360366D01*
X0045528Y0360475D01*
X0045576Y0360583D01*
X0045628Y0360689D01*
X0045684Y0360794D01*
X0045743Y0360896D01*
X0045805Y0360996D01*
X0045871Y0361094D01*
X0045940Y0361190D01*
X0046013Y0361284D01*
X0046088Y0361375D01*
X0046167Y0361463D01*
X0046248Y0361549D01*
X0046333Y0361632D01*
X0046420Y0361712D01*
X0046509Y0361789D01*
X0046602Y0361863D01*
X0046696Y0361933D01*
X0046793Y0362001D01*
X0046893Y0362065D01*
X0046994Y0362126D01*
X0047097Y0362183D01*
X0047203Y0362237D01*
X0047310Y0362288D01*
X0047418Y0362334D01*
X0047528Y0362377D01*
X0047640Y0362416D01*
X0047753Y0362452D01*
X0047867Y0362483D01*
X0047982Y0362511D01*
X0048097Y0362535D01*
X0048214Y0362555D01*
X0048331Y0362571D01*
X0048449Y0362583D01*
X0048567Y0362591D01*
X0048685Y0362595D01*
X0048803Y0362595D01*
X0048921Y0362591D01*
X0049039Y0362583D01*
X0049157Y0362571D01*
X0049274Y0362555D01*
X0049391Y0362535D01*
X0049506Y0362511D01*
X0049621Y0362483D01*
X0049735Y0362452D01*
X0049848Y0362416D01*
X0049960Y0362377D01*
X0050070Y0362334D01*
X0050178Y0362288D01*
X0050285Y0362237D01*
X0050391Y0362183D01*
X0050494Y0362126D01*
X0050595Y0362065D01*
X0050695Y0362001D01*
X0050792Y0361933D01*
X0050886Y0361863D01*
X0050979Y0361789D01*
X0051068Y0361712D01*
X0051155Y0361632D01*
X0051240Y0361549D01*
X0051321Y0361463D01*
X0051400Y0361375D01*
X0051475Y0361284D01*
X0051548Y0361190D01*
X0051617Y0361094D01*
X0051683Y0360996D01*
X0051745Y0360896D01*
X0051804Y0360794D01*
X0051860Y0360689D01*
X0051912Y0360583D01*
X0051960Y0360475D01*
X0052005Y0360366D01*
X0052046Y0360255D01*
X0052083Y0360143D01*
X0052117Y0360029D01*
X0052147Y0359915D01*
X0052172Y0359800D01*
X0052194Y0359683D01*
X0052212Y0359566D01*
X0052226Y0359449D01*
X0052236Y0359331D01*
X0052242Y0359213D01*
X0052244Y0359095D01*
X0052242Y0358977D01*
X0052236Y0358859D01*
X0052226Y0358741D01*
X0052212Y0358624D01*
X0052194Y0358507D01*
X0052172Y0358390D01*
X0052147Y0358275D01*
X0052117Y0358161D01*
X0052083Y0358047D01*
X0052046Y0357935D01*
X0052005Y0357824D01*
X0051960Y0357715D01*
X0051912Y0357607D01*
X0051860Y0357501D01*
X0051804Y0357396D01*
X0051745Y0357294D01*
X0051683Y0357194D01*
X0051617Y0357096D01*
X0051548Y0357000D01*
X0051475Y0356906D01*
X0051400Y0356815D01*
X0051321Y0356727D01*
X0051240Y0356641D01*
X0051155Y0356558D01*
X0051068Y0356478D01*
X0050979Y0356401D01*
X0050886Y0356327D01*
X0050792Y0356257D01*
X0050695Y0356189D01*
X0050595Y0356125D01*
X0050494Y0356064D01*
X0050391Y0356007D01*
X0050285Y0355953D01*
X0050178Y0355902D01*
X0050070Y0355856D01*
X0049960Y0355813D01*
X0049848Y0355774D01*
X0049735Y0355738D01*
X0049621Y0355707D01*
X0049506Y0355679D01*
X0049391Y0355655D01*
X0049274Y0355635D01*
X0049157Y0355619D01*
X0049039Y0355607D01*
X0048921Y0355599D01*
X0048803Y0355595D01*
X0048685Y0355595D01*
X0048567Y0355599D01*
X0048449Y0355607D01*
X0048331Y0355619D01*
X0048214Y0355635D01*
X0048097Y0355655D01*
X0047982Y0355679D01*
X0047867Y0355707D01*
X0047753Y0355738D01*
X0047640Y0355774D01*
X0047528Y0355813D01*
X0047418Y0355856D01*
X0047310Y0355902D01*
X0047203Y0355953D01*
X0047097Y0356007D01*
X0046994Y0356064D01*
X0046893Y0356125D01*
X0046793Y0356189D01*
X0046696Y0356257D01*
X0046602Y0356327D01*
X0046509Y0356401D01*
X0046420Y0356478D01*
X0046333Y0356558D01*
X0046248Y0356641D01*
X0046167Y0356727D01*
X0046088Y0356815D01*
X0046013Y0356906D01*
X0045940Y0357000D01*
X0045871Y0357096D01*
X0045805Y0357194D01*
X0045743Y0357294D01*
X0045684Y0357396D01*
X0045628Y0357501D01*
X0045576Y0357607D01*
X0045528Y0357715D01*
X0045483Y0357824D01*
X0045442Y0357935D01*
X0045405Y0358047D01*
X0045371Y0358161D01*
X0045341Y0358275D01*
X0045316Y0358390D01*
X0045294Y0358507D01*
X0045276Y0358624D01*
X0045262Y0358741D01*
X0045252Y0358859D01*
X0045246Y0358977D01*
X0045244Y0359095D01*
X0019610Y0438269D02*
X0019612Y0438438D01*
X0019618Y0438607D01*
X0019629Y0438776D01*
X0019643Y0438944D01*
X0019662Y0439112D01*
X0019685Y0439280D01*
X0019711Y0439447D01*
X0019742Y0439613D01*
X0019777Y0439779D01*
X0019816Y0439943D01*
X0019860Y0440107D01*
X0019907Y0440269D01*
X0019958Y0440430D01*
X0020013Y0440590D01*
X0020072Y0440749D01*
X0020134Y0440906D01*
X0020201Y0441061D01*
X0020272Y0441215D01*
X0020346Y0441367D01*
X0020424Y0441517D01*
X0020505Y0441665D01*
X0020590Y0441811D01*
X0020679Y0441955D01*
X0020771Y0442097D01*
X0020867Y0442236D01*
X0020966Y0442373D01*
X0021068Y0442508D01*
X0021174Y0442640D01*
X0021283Y0442769D01*
X0021395Y0442896D01*
X0021510Y0443020D01*
X0021628Y0443141D01*
X0021749Y0443259D01*
X0021873Y0443374D01*
X0022000Y0443486D01*
X0022129Y0443595D01*
X0022261Y0443701D01*
X0022396Y0443803D01*
X0022533Y0443902D01*
X0022672Y0443998D01*
X0022814Y0444090D01*
X0022958Y0444179D01*
X0023104Y0444264D01*
X0023252Y0444345D01*
X0023402Y0444423D01*
X0023554Y0444497D01*
X0023708Y0444568D01*
X0023863Y0444635D01*
X0024020Y0444697D01*
X0024179Y0444756D01*
X0024339Y0444811D01*
X0024500Y0444862D01*
X0024662Y0444909D01*
X0024826Y0444953D01*
X0024990Y0444992D01*
X0025156Y0445027D01*
X0025322Y0445058D01*
X0025489Y0445084D01*
X0025657Y0445107D01*
X0025825Y0445126D01*
X0025993Y0445140D01*
X0026162Y0445151D01*
X0026331Y0445157D01*
X0026500Y0445159D01*
X0026669Y0445157D01*
X0026838Y0445151D01*
X0027007Y0445140D01*
X0027175Y0445126D01*
X0027343Y0445107D01*
X0027511Y0445084D01*
X0027678Y0445058D01*
X0027844Y0445027D01*
X0028010Y0444992D01*
X0028174Y0444953D01*
X0028338Y0444909D01*
X0028500Y0444862D01*
X0028661Y0444811D01*
X0028821Y0444756D01*
X0028980Y0444697D01*
X0029137Y0444635D01*
X0029292Y0444568D01*
X0029446Y0444497D01*
X0029598Y0444423D01*
X0029748Y0444345D01*
X0029896Y0444264D01*
X0030042Y0444179D01*
X0030186Y0444090D01*
X0030328Y0443998D01*
X0030467Y0443902D01*
X0030604Y0443803D01*
X0030739Y0443701D01*
X0030871Y0443595D01*
X0031000Y0443486D01*
X0031127Y0443374D01*
X0031251Y0443259D01*
X0031372Y0443141D01*
X0031490Y0443020D01*
X0031605Y0442896D01*
X0031717Y0442769D01*
X0031826Y0442640D01*
X0031932Y0442508D01*
X0032034Y0442373D01*
X0032133Y0442236D01*
X0032229Y0442097D01*
X0032321Y0441955D01*
X0032410Y0441811D01*
X0032495Y0441665D01*
X0032576Y0441517D01*
X0032654Y0441367D01*
X0032728Y0441215D01*
X0032799Y0441061D01*
X0032866Y0440906D01*
X0032928Y0440749D01*
X0032987Y0440590D01*
X0033042Y0440430D01*
X0033093Y0440269D01*
X0033140Y0440107D01*
X0033184Y0439943D01*
X0033223Y0439779D01*
X0033258Y0439613D01*
X0033289Y0439447D01*
X0033315Y0439280D01*
X0033338Y0439112D01*
X0033357Y0438944D01*
X0033371Y0438776D01*
X0033382Y0438607D01*
X0033388Y0438438D01*
X0033390Y0438269D01*
X0033388Y0438100D01*
X0033382Y0437931D01*
X0033371Y0437762D01*
X0033357Y0437594D01*
X0033338Y0437426D01*
X0033315Y0437258D01*
X0033289Y0437091D01*
X0033258Y0436925D01*
X0033223Y0436759D01*
X0033184Y0436595D01*
X0033140Y0436431D01*
X0033093Y0436269D01*
X0033042Y0436108D01*
X0032987Y0435948D01*
X0032928Y0435789D01*
X0032866Y0435632D01*
X0032799Y0435477D01*
X0032728Y0435323D01*
X0032654Y0435171D01*
X0032576Y0435021D01*
X0032495Y0434873D01*
X0032410Y0434727D01*
X0032321Y0434583D01*
X0032229Y0434441D01*
X0032133Y0434302D01*
X0032034Y0434165D01*
X0031932Y0434030D01*
X0031826Y0433898D01*
X0031717Y0433769D01*
X0031605Y0433642D01*
X0031490Y0433518D01*
X0031372Y0433397D01*
X0031251Y0433279D01*
X0031127Y0433164D01*
X0031000Y0433052D01*
X0030871Y0432943D01*
X0030739Y0432837D01*
X0030604Y0432735D01*
X0030467Y0432636D01*
X0030328Y0432540D01*
X0030186Y0432448D01*
X0030042Y0432359D01*
X0029896Y0432274D01*
X0029748Y0432193D01*
X0029598Y0432115D01*
X0029446Y0432041D01*
X0029292Y0431970D01*
X0029137Y0431903D01*
X0028980Y0431841D01*
X0028821Y0431782D01*
X0028661Y0431727D01*
X0028500Y0431676D01*
X0028338Y0431629D01*
X0028174Y0431585D01*
X0028010Y0431546D01*
X0027844Y0431511D01*
X0027678Y0431480D01*
X0027511Y0431454D01*
X0027343Y0431431D01*
X0027175Y0431412D01*
X0027007Y0431398D01*
X0026838Y0431387D01*
X0026669Y0431381D01*
X0026500Y0431379D01*
X0026331Y0431381D01*
X0026162Y0431387D01*
X0025993Y0431398D01*
X0025825Y0431412D01*
X0025657Y0431431D01*
X0025489Y0431454D01*
X0025322Y0431480D01*
X0025156Y0431511D01*
X0024990Y0431546D01*
X0024826Y0431585D01*
X0024662Y0431629D01*
X0024500Y0431676D01*
X0024339Y0431727D01*
X0024179Y0431782D01*
X0024020Y0431841D01*
X0023863Y0431903D01*
X0023708Y0431970D01*
X0023554Y0432041D01*
X0023402Y0432115D01*
X0023252Y0432193D01*
X0023104Y0432274D01*
X0022958Y0432359D01*
X0022814Y0432448D01*
X0022672Y0432540D01*
X0022533Y0432636D01*
X0022396Y0432735D01*
X0022261Y0432837D01*
X0022129Y0432943D01*
X0022000Y0433052D01*
X0021873Y0433164D01*
X0021749Y0433279D01*
X0021628Y0433397D01*
X0021510Y0433518D01*
X0021395Y0433642D01*
X0021283Y0433769D01*
X0021174Y0433898D01*
X0021068Y0434030D01*
X0020966Y0434165D01*
X0020867Y0434302D01*
X0020771Y0434441D01*
X0020679Y0434583D01*
X0020590Y0434727D01*
X0020505Y0434873D01*
X0020424Y0435021D01*
X0020346Y0435171D01*
X0020272Y0435323D01*
X0020201Y0435477D01*
X0020134Y0435632D01*
X0020072Y0435789D01*
X0020013Y0435948D01*
X0019958Y0436108D01*
X0019907Y0436269D01*
X0019860Y0436431D01*
X0019816Y0436595D01*
X0019777Y0436759D01*
X0019742Y0436925D01*
X0019711Y0437091D01*
X0019685Y0437258D01*
X0019662Y0437426D01*
X0019643Y0437594D01*
X0019629Y0437762D01*
X0019618Y0437931D01*
X0019612Y0438100D01*
X0019610Y0438269D01*
X0134610Y0438269D02*
X0134612Y0438438D01*
X0134618Y0438607D01*
X0134629Y0438776D01*
X0134643Y0438944D01*
X0134662Y0439112D01*
X0134685Y0439280D01*
X0134711Y0439447D01*
X0134742Y0439613D01*
X0134777Y0439779D01*
X0134816Y0439943D01*
X0134860Y0440107D01*
X0134907Y0440269D01*
X0134958Y0440430D01*
X0135013Y0440590D01*
X0135072Y0440749D01*
X0135134Y0440906D01*
X0135201Y0441061D01*
X0135272Y0441215D01*
X0135346Y0441367D01*
X0135424Y0441517D01*
X0135505Y0441665D01*
X0135590Y0441811D01*
X0135679Y0441955D01*
X0135771Y0442097D01*
X0135867Y0442236D01*
X0135966Y0442373D01*
X0136068Y0442508D01*
X0136174Y0442640D01*
X0136283Y0442769D01*
X0136395Y0442896D01*
X0136510Y0443020D01*
X0136628Y0443141D01*
X0136749Y0443259D01*
X0136873Y0443374D01*
X0137000Y0443486D01*
X0137129Y0443595D01*
X0137261Y0443701D01*
X0137396Y0443803D01*
X0137533Y0443902D01*
X0137672Y0443998D01*
X0137814Y0444090D01*
X0137958Y0444179D01*
X0138104Y0444264D01*
X0138252Y0444345D01*
X0138402Y0444423D01*
X0138554Y0444497D01*
X0138708Y0444568D01*
X0138863Y0444635D01*
X0139020Y0444697D01*
X0139179Y0444756D01*
X0139339Y0444811D01*
X0139500Y0444862D01*
X0139662Y0444909D01*
X0139826Y0444953D01*
X0139990Y0444992D01*
X0140156Y0445027D01*
X0140322Y0445058D01*
X0140489Y0445084D01*
X0140657Y0445107D01*
X0140825Y0445126D01*
X0140993Y0445140D01*
X0141162Y0445151D01*
X0141331Y0445157D01*
X0141500Y0445159D01*
X0141669Y0445157D01*
X0141838Y0445151D01*
X0142007Y0445140D01*
X0142175Y0445126D01*
X0142343Y0445107D01*
X0142511Y0445084D01*
X0142678Y0445058D01*
X0142844Y0445027D01*
X0143010Y0444992D01*
X0143174Y0444953D01*
X0143338Y0444909D01*
X0143500Y0444862D01*
X0143661Y0444811D01*
X0143821Y0444756D01*
X0143980Y0444697D01*
X0144137Y0444635D01*
X0144292Y0444568D01*
X0144446Y0444497D01*
X0144598Y0444423D01*
X0144748Y0444345D01*
X0144896Y0444264D01*
X0145042Y0444179D01*
X0145186Y0444090D01*
X0145328Y0443998D01*
X0145467Y0443902D01*
X0145604Y0443803D01*
X0145739Y0443701D01*
X0145871Y0443595D01*
X0146000Y0443486D01*
X0146127Y0443374D01*
X0146251Y0443259D01*
X0146372Y0443141D01*
X0146490Y0443020D01*
X0146605Y0442896D01*
X0146717Y0442769D01*
X0146826Y0442640D01*
X0146932Y0442508D01*
X0147034Y0442373D01*
X0147133Y0442236D01*
X0147229Y0442097D01*
X0147321Y0441955D01*
X0147410Y0441811D01*
X0147495Y0441665D01*
X0147576Y0441517D01*
X0147654Y0441367D01*
X0147728Y0441215D01*
X0147799Y0441061D01*
X0147866Y0440906D01*
X0147928Y0440749D01*
X0147987Y0440590D01*
X0148042Y0440430D01*
X0148093Y0440269D01*
X0148140Y0440107D01*
X0148184Y0439943D01*
X0148223Y0439779D01*
X0148258Y0439613D01*
X0148289Y0439447D01*
X0148315Y0439280D01*
X0148338Y0439112D01*
X0148357Y0438944D01*
X0148371Y0438776D01*
X0148382Y0438607D01*
X0148388Y0438438D01*
X0148390Y0438269D01*
X0148388Y0438100D01*
X0148382Y0437931D01*
X0148371Y0437762D01*
X0148357Y0437594D01*
X0148338Y0437426D01*
X0148315Y0437258D01*
X0148289Y0437091D01*
X0148258Y0436925D01*
X0148223Y0436759D01*
X0148184Y0436595D01*
X0148140Y0436431D01*
X0148093Y0436269D01*
X0148042Y0436108D01*
X0147987Y0435948D01*
X0147928Y0435789D01*
X0147866Y0435632D01*
X0147799Y0435477D01*
X0147728Y0435323D01*
X0147654Y0435171D01*
X0147576Y0435021D01*
X0147495Y0434873D01*
X0147410Y0434727D01*
X0147321Y0434583D01*
X0147229Y0434441D01*
X0147133Y0434302D01*
X0147034Y0434165D01*
X0146932Y0434030D01*
X0146826Y0433898D01*
X0146717Y0433769D01*
X0146605Y0433642D01*
X0146490Y0433518D01*
X0146372Y0433397D01*
X0146251Y0433279D01*
X0146127Y0433164D01*
X0146000Y0433052D01*
X0145871Y0432943D01*
X0145739Y0432837D01*
X0145604Y0432735D01*
X0145467Y0432636D01*
X0145328Y0432540D01*
X0145186Y0432448D01*
X0145042Y0432359D01*
X0144896Y0432274D01*
X0144748Y0432193D01*
X0144598Y0432115D01*
X0144446Y0432041D01*
X0144292Y0431970D01*
X0144137Y0431903D01*
X0143980Y0431841D01*
X0143821Y0431782D01*
X0143661Y0431727D01*
X0143500Y0431676D01*
X0143338Y0431629D01*
X0143174Y0431585D01*
X0143010Y0431546D01*
X0142844Y0431511D01*
X0142678Y0431480D01*
X0142511Y0431454D01*
X0142343Y0431431D01*
X0142175Y0431412D01*
X0142007Y0431398D01*
X0141838Y0431387D01*
X0141669Y0431381D01*
X0141500Y0431379D01*
X0141331Y0431381D01*
X0141162Y0431387D01*
X0140993Y0431398D01*
X0140825Y0431412D01*
X0140657Y0431431D01*
X0140489Y0431454D01*
X0140322Y0431480D01*
X0140156Y0431511D01*
X0139990Y0431546D01*
X0139826Y0431585D01*
X0139662Y0431629D01*
X0139500Y0431676D01*
X0139339Y0431727D01*
X0139179Y0431782D01*
X0139020Y0431841D01*
X0138863Y0431903D01*
X0138708Y0431970D01*
X0138554Y0432041D01*
X0138402Y0432115D01*
X0138252Y0432193D01*
X0138104Y0432274D01*
X0137958Y0432359D01*
X0137814Y0432448D01*
X0137672Y0432540D01*
X0137533Y0432636D01*
X0137396Y0432735D01*
X0137261Y0432837D01*
X0137129Y0432943D01*
X0137000Y0433052D01*
X0136873Y0433164D01*
X0136749Y0433279D01*
X0136628Y0433397D01*
X0136510Y0433518D01*
X0136395Y0433642D01*
X0136283Y0433769D01*
X0136174Y0433898D01*
X0136068Y0434030D01*
X0135966Y0434165D01*
X0135867Y0434302D01*
X0135771Y0434441D01*
X0135679Y0434583D01*
X0135590Y0434727D01*
X0135505Y0434873D01*
X0135424Y0435021D01*
X0135346Y0435171D01*
X0135272Y0435323D01*
X0135201Y0435477D01*
X0135134Y0435632D01*
X0135072Y0435789D01*
X0135013Y0435948D01*
X0134958Y0436108D01*
X0134907Y0436269D01*
X0134860Y0436431D01*
X0134816Y0436595D01*
X0134777Y0436759D01*
X0134742Y0436925D01*
X0134711Y0437091D01*
X0134685Y0437258D01*
X0134662Y0437426D01*
X0134643Y0437594D01*
X0134629Y0437762D01*
X0134618Y0437931D01*
X0134612Y0438100D01*
X0134610Y0438269D01*
D11*
X0001500Y0463269D02*
X0001500Y0003269D01*
X0251500Y0003269D01*
X0251500Y0463269D01*
X0001500Y0463269D01*
D12*
X0083252Y0428406D03*
D13*
X0102937Y0428406D03*
D14*
X0110768Y0255040D03*
X0105421Y0204312D03*
X0018433Y0187871D03*
D15*
X0131992Y0186091D02*
X0131992Y0180091D01*
X0151992Y0180091D02*
X0151992Y0186091D01*
X0151992Y0230091D02*
X0151992Y0236091D01*
X0131992Y0236091D02*
X0131992Y0230091D01*
X0131992Y0280091D02*
X0131992Y0286091D01*
X0151992Y0286091D02*
X0151992Y0280091D01*
X0151992Y0330091D02*
X0151992Y0336091D01*
X0151992Y0370091D02*
X0151992Y0376091D01*
X0131992Y0376091D02*
X0131992Y0370091D01*
X0131992Y0336091D02*
X0131992Y0330091D01*
X0131992Y0410091D02*
X0131992Y0416091D01*
X0151992Y0416091D02*
X0151992Y0410091D01*
X0151992Y0136091D02*
X0151992Y0130091D01*
X0131992Y0130091D02*
X0131992Y0136091D01*
X0131992Y0086091D02*
X0131992Y0080091D01*
X0151992Y0080091D02*
X0151992Y0086091D01*
X0151992Y0046091D02*
X0151992Y0040091D01*
X0131992Y0040091D02*
X0131992Y0046091D01*
D16*
X0201165Y0033091D03*
X0222819Y0033091D03*
X0222819Y0083091D03*
X0201165Y0083091D03*
X0201165Y0133091D03*
X0222819Y0133091D03*
X0222819Y0183091D03*
X0201165Y0183091D03*
X0201165Y0233091D03*
X0222819Y0233091D03*
X0222819Y0283091D03*
X0201165Y0283091D03*
X0201165Y0333091D03*
X0222819Y0333091D03*
X0222819Y0383091D03*
X0201165Y0383091D03*
X0201165Y0433091D03*
X0222819Y0433091D03*
D17*
X0041992Y0163091D03*
X0041992Y0153091D03*
X0041992Y0143091D03*
X0041992Y0133091D03*
X0041992Y0123091D03*
X0031992Y0123091D03*
X0031992Y0133091D03*
X0031992Y0143091D03*
X0031992Y0153091D03*
X0031992Y0163091D03*
D18*
X0035465Y0216784D03*
X0045465Y0216784D03*
X0075465Y0216784D03*
D19*
X0065465Y0216784D03*
X0055465Y0216784D03*
D20*
X0041524Y0313721D02*
X0041524Y0323721D01*
X0021524Y0323721D02*
X0021524Y0313721D01*
X0021524Y0318721D02*
X0021677Y0318875D01*
X0021677Y0348249D01*
X0039886Y0369410D01*
X0048252Y0376792D01*
X0047957Y0376595D01*
X0048744Y0376595D01*
X0048252Y0376792D02*
X0062524Y0384174D01*
X0105831Y0384174D01*
X0103524Y0323721D02*
X0103524Y0313721D01*
X0083524Y0313721D02*
X0083524Y0323721D01*
D21*
X0048744Y0376595D03*
X0048744Y0401595D03*
D22*
X0048444Y0401877D02*
X0003300Y0401877D01*
X0003300Y0401279D02*
X0042194Y0401279D01*
X0042194Y0401295D02*
X0042194Y0401166D01*
X0042306Y0400315D01*
X0042528Y0399485D01*
X0042857Y0398692D01*
X0043286Y0397948D01*
X0043809Y0397267D01*
X0044416Y0396660D01*
X0045097Y0396137D01*
X0045841Y0395708D01*
X0046634Y0395380D01*
X0047463Y0395157D01*
X0048315Y0395045D01*
X0048444Y0395045D01*
X0048444Y0401295D01*
X0049044Y0401295D01*
X0049044Y0395045D01*
X0049173Y0395045D01*
X0050025Y0395157D01*
X0050854Y0395380D01*
X0051647Y0395708D01*
X0052391Y0396137D01*
X0053072Y0396660D01*
X0053679Y0397267D01*
X0054202Y0397948D01*
X0054631Y0398692D01*
X0054960Y0399485D01*
X0055182Y0400315D01*
X0055294Y0401166D01*
X0055294Y0401295D01*
X0049044Y0401295D01*
X0049044Y0401895D01*
X0055294Y0401895D01*
X0055294Y0402025D01*
X0055182Y0402876D01*
X0054960Y0403705D01*
X0054631Y0404498D01*
X0054202Y0405242D01*
X0053679Y0405923D01*
X0053072Y0406530D01*
X0052391Y0407053D01*
X0051647Y0407482D01*
X0050854Y0407811D01*
X0050025Y0408033D01*
X0049173Y0408145D01*
X0049044Y0408145D01*
X0049044Y0401895D01*
X0048444Y0401895D01*
X0048444Y0401295D01*
X0042194Y0401295D01*
X0042194Y0401895D02*
X0048444Y0401895D01*
X0048444Y0408145D01*
X0048315Y0408145D01*
X0047463Y0408033D01*
X0046634Y0407811D01*
X0045841Y0407482D01*
X0045097Y0407053D01*
X0044416Y0406530D01*
X0043809Y0405923D01*
X0043286Y0405242D01*
X0042857Y0404498D01*
X0042528Y0403705D01*
X0042306Y0402876D01*
X0042194Y0402025D01*
X0042194Y0401895D01*
X0042253Y0402476D02*
X0003300Y0402476D01*
X0003300Y0403074D02*
X0042359Y0403074D01*
X0042520Y0403673D02*
X0003300Y0403673D01*
X0003300Y0404271D02*
X0042763Y0404271D01*
X0043071Y0404870D02*
X0003300Y0404870D01*
X0003300Y0405468D02*
X0043460Y0405468D01*
X0043952Y0406067D02*
X0003300Y0406067D01*
X0003300Y0406665D02*
X0044592Y0406665D01*
X0045462Y0407264D02*
X0003300Y0407264D01*
X0003300Y0407862D02*
X0046825Y0407862D01*
X0048444Y0407862D02*
X0049044Y0407862D01*
X0049044Y0407264D02*
X0048444Y0407264D01*
X0048444Y0406665D02*
X0049044Y0406665D01*
X0049044Y0406067D02*
X0048444Y0406067D01*
X0048444Y0405468D02*
X0049044Y0405468D01*
X0049044Y0404870D02*
X0048444Y0404870D01*
X0048444Y0404271D02*
X0049044Y0404271D01*
X0049044Y0403673D02*
X0048444Y0403673D01*
X0048444Y0403074D02*
X0049044Y0403074D01*
X0049044Y0402476D02*
X0048444Y0402476D01*
X0049044Y0401877D02*
X0249700Y0401877D01*
X0249700Y0401279D02*
X0055294Y0401279D01*
X0055230Y0400680D02*
X0249700Y0400680D01*
X0249700Y0400082D02*
X0055120Y0400082D01*
X0054959Y0399483D02*
X0249700Y0399483D01*
X0249700Y0398884D02*
X0054711Y0398884D01*
X0054397Y0398286D02*
X0249700Y0398286D01*
X0249700Y0397687D02*
X0054002Y0397687D01*
X0053501Y0397089D02*
X0249700Y0397089D01*
X0249700Y0396490D02*
X0052851Y0396490D01*
X0051966Y0395892D02*
X0249700Y0395892D01*
X0249700Y0395293D02*
X0050532Y0395293D01*
X0049044Y0395293D02*
X0048444Y0395293D01*
X0048444Y0395892D02*
X0049044Y0395892D01*
X0049044Y0396490D02*
X0048444Y0396490D01*
X0048444Y0397089D02*
X0049044Y0397089D01*
X0049044Y0397687D02*
X0048444Y0397687D01*
X0048444Y0398286D02*
X0049044Y0398286D01*
X0049044Y0398884D02*
X0048444Y0398884D01*
X0048444Y0399483D02*
X0049044Y0399483D01*
X0049044Y0400082D02*
X0048444Y0400082D01*
X0048444Y0400680D02*
X0049044Y0400680D01*
X0049044Y0401279D02*
X0048444Y0401279D01*
X0050663Y0407862D02*
X0128261Y0407862D01*
X0128347Y0407656D02*
X0129556Y0406446D01*
X0131137Y0405791D01*
X0132847Y0405791D01*
X0134428Y0406446D01*
X0135637Y0407656D01*
X0136292Y0409236D01*
X0136292Y0416947D01*
X0135637Y0418527D01*
X0134428Y0419737D01*
X0132847Y0420391D01*
X0131137Y0420391D01*
X0129556Y0419737D01*
X0128347Y0418527D01*
X0127692Y0416947D01*
X0127692Y0409236D01*
X0128347Y0407656D01*
X0128739Y0407264D02*
X0052026Y0407264D01*
X0052896Y0406665D02*
X0129337Y0406665D01*
X0130472Y0406067D02*
X0053536Y0406067D01*
X0054028Y0405468D02*
X0249700Y0405468D01*
X0249700Y0404870D02*
X0054417Y0404870D01*
X0054725Y0404271D02*
X0249700Y0404271D01*
X0249700Y0403673D02*
X0054969Y0403673D01*
X0055129Y0403074D02*
X0249700Y0403074D01*
X0249700Y0402476D02*
X0055235Y0402476D01*
X0046956Y0395293D02*
X0003300Y0395293D01*
X0003300Y0394695D02*
X0249700Y0394695D01*
X0249700Y0394096D02*
X0003300Y0394096D01*
X0003300Y0393498D02*
X0249700Y0393498D01*
X0249700Y0392899D02*
X0003300Y0392899D01*
X0003300Y0392301D02*
X0249700Y0392301D01*
X0249700Y0391702D02*
X0003300Y0391702D01*
X0003300Y0391104D02*
X0249700Y0391104D01*
X0249700Y0390505D02*
X0063403Y0390505D01*
X0063502Y0390474D02*
X0063240Y0390557D01*
X0062257Y0390474D01*
X0061270Y0390474D01*
X0061016Y0390369D01*
X0060742Y0390345D01*
X0059866Y0389892D01*
X0058955Y0389515D01*
X0058760Y0389320D01*
X0046152Y0382799D01*
X0045800Y0382729D01*
X0045437Y0382487D01*
X0045023Y0382345D01*
X0044712Y0382070D01*
X0044388Y0381936D01*
X0044285Y0381833D01*
X0044245Y0381812D01*
X0044139Y0381687D01*
X0043943Y0381491D01*
X0043419Y0381142D01*
X0043072Y0380623D01*
X0036324Y0374669D01*
X0035928Y0374469D01*
X0035393Y0373848D01*
X0034778Y0373305D01*
X0034583Y0372906D01*
X0017056Y0352537D01*
X0016336Y0351817D01*
X0016243Y0351593D01*
X0016084Y0351408D01*
X0015766Y0350442D01*
X0015377Y0349502D01*
X0015377Y0349259D01*
X0015301Y0349027D01*
X0015377Y0348013D01*
X0015377Y0325345D01*
X0015224Y0324974D01*
X0015224Y0312468D01*
X0016183Y0310153D01*
X0017955Y0308380D01*
X0020270Y0307421D01*
X0022777Y0307421D01*
X0025092Y0308380D01*
X0026864Y0310153D01*
X0027824Y0312468D01*
X0027824Y0317251D01*
X0027977Y0317622D01*
X0027977Y0345911D01*
X0044379Y0364973D01*
X0050199Y0370108D01*
X0052454Y0371042D01*
X0054175Y0372763D01*
X0064056Y0377874D01*
X0107084Y0377874D01*
X0109399Y0378833D01*
X0111172Y0380605D01*
X0112131Y0382921D01*
X0112131Y0385427D01*
X0111172Y0387743D01*
X0109399Y0389515D01*
X0107084Y0390474D01*
X0063502Y0390474D01*
X0062626Y0390505D02*
X0003300Y0390505D01*
X0003300Y0389907D02*
X0059894Y0389907D01*
X0058737Y0389308D02*
X0003300Y0389308D01*
X0003300Y0388710D02*
X0057580Y0388710D01*
X0056423Y0388111D02*
X0003300Y0388111D01*
X0003300Y0387513D02*
X0055266Y0387513D01*
X0054109Y0386914D02*
X0003300Y0386914D01*
X0003300Y0386316D02*
X0052951Y0386316D01*
X0051794Y0385717D02*
X0003300Y0385717D01*
X0003300Y0385119D02*
X0050637Y0385119D01*
X0049480Y0384520D02*
X0003300Y0384520D01*
X0003300Y0383922D02*
X0048323Y0383922D01*
X0047166Y0383323D02*
X0003300Y0383323D01*
X0003300Y0382725D02*
X0045793Y0382725D01*
X0044775Y0382126D02*
X0003300Y0382126D01*
X0003300Y0381528D02*
X0043980Y0381528D01*
X0043277Y0380929D02*
X0003300Y0380929D01*
X0003300Y0380331D02*
X0042740Y0380331D01*
X0042062Y0379732D02*
X0003300Y0379732D01*
X0003300Y0379134D02*
X0041384Y0379134D01*
X0040705Y0378535D02*
X0003300Y0378535D01*
X0003300Y0377937D02*
X0040027Y0377937D01*
X0039349Y0377338D02*
X0003300Y0377338D01*
X0003300Y0376740D02*
X0038670Y0376740D01*
X0037992Y0376141D02*
X0003300Y0376141D01*
X0003300Y0375543D02*
X0037314Y0375543D01*
X0036635Y0374944D02*
X0003300Y0374944D01*
X0003300Y0374346D02*
X0035821Y0374346D01*
X0035279Y0373747D02*
X0003300Y0373747D01*
X0003300Y0373148D02*
X0034701Y0373148D01*
X0034276Y0372550D02*
X0003300Y0372550D01*
X0003300Y0371951D02*
X0033761Y0371951D01*
X0033246Y0371353D02*
X0003300Y0371353D01*
X0003300Y0370754D02*
X0032731Y0370754D01*
X0032216Y0370156D02*
X0003300Y0370156D01*
X0003300Y0369557D02*
X0031701Y0369557D01*
X0031186Y0368959D02*
X0003300Y0368959D01*
X0003300Y0368360D02*
X0030671Y0368360D01*
X0030156Y0367762D02*
X0003300Y0367762D01*
X0003300Y0367163D02*
X0029641Y0367163D01*
X0029126Y0366565D02*
X0003300Y0366565D01*
X0003300Y0365966D02*
X0028611Y0365966D01*
X0028096Y0365368D02*
X0003300Y0365368D01*
X0003300Y0364769D02*
X0027581Y0364769D01*
X0027066Y0364171D02*
X0003300Y0364171D01*
X0003300Y0363572D02*
X0026551Y0363572D01*
X0026036Y0362974D02*
X0003300Y0362974D01*
X0003300Y0362375D02*
X0025521Y0362375D01*
X0025006Y0361777D02*
X0003300Y0361777D01*
X0003300Y0361178D02*
X0024491Y0361178D01*
X0023976Y0360580D02*
X0003300Y0360580D01*
X0003300Y0359981D02*
X0023461Y0359981D01*
X0022946Y0359383D02*
X0003300Y0359383D01*
X0003300Y0358784D02*
X0022431Y0358784D01*
X0021916Y0358186D02*
X0003300Y0358186D01*
X0003300Y0357587D02*
X0021401Y0357587D01*
X0020886Y0356989D02*
X0003300Y0356989D01*
X0003300Y0356390D02*
X0020371Y0356390D01*
X0019856Y0355792D02*
X0003300Y0355792D01*
X0003300Y0355193D02*
X0019341Y0355193D01*
X0018826Y0354595D02*
X0003300Y0354595D01*
X0003300Y0353996D02*
X0018311Y0353996D01*
X0017796Y0353398D02*
X0003300Y0353398D01*
X0003300Y0352799D02*
X0017281Y0352799D01*
X0016719Y0352201D02*
X0003300Y0352201D01*
X0003300Y0351602D02*
X0016247Y0351602D01*
X0015951Y0351004D02*
X0003300Y0351004D01*
X0003300Y0350405D02*
X0015751Y0350405D01*
X0015503Y0349807D02*
X0003300Y0349807D01*
X0003300Y0349208D02*
X0015361Y0349208D01*
X0015332Y0348610D02*
X0003300Y0348610D01*
X0003300Y0348011D02*
X0015377Y0348011D01*
X0015377Y0347413D02*
X0003300Y0347413D01*
X0003300Y0346814D02*
X0015377Y0346814D01*
X0015377Y0346215D02*
X0003300Y0346215D01*
X0003300Y0345617D02*
X0015377Y0345617D01*
X0015377Y0345018D02*
X0003300Y0345018D01*
X0003300Y0344420D02*
X0015377Y0344420D01*
X0015377Y0343821D02*
X0003300Y0343821D01*
X0003300Y0343223D02*
X0015377Y0343223D01*
X0015377Y0342624D02*
X0003300Y0342624D01*
X0003300Y0342026D02*
X0015377Y0342026D01*
X0015377Y0341427D02*
X0003300Y0341427D01*
X0003300Y0340829D02*
X0015377Y0340829D01*
X0015377Y0340230D02*
X0003300Y0340230D01*
X0003300Y0339632D02*
X0015377Y0339632D01*
X0015377Y0339033D02*
X0003300Y0339033D01*
X0003300Y0338435D02*
X0015377Y0338435D01*
X0015377Y0337836D02*
X0003300Y0337836D01*
X0003300Y0337238D02*
X0015377Y0337238D01*
X0015377Y0336639D02*
X0003300Y0336639D01*
X0003300Y0336041D02*
X0015377Y0336041D01*
X0015377Y0335442D02*
X0003300Y0335442D01*
X0003300Y0334844D02*
X0015377Y0334844D01*
X0015377Y0334245D02*
X0003300Y0334245D01*
X0003300Y0333647D02*
X0015377Y0333647D01*
X0015377Y0333048D02*
X0003300Y0333048D01*
X0003300Y0332450D02*
X0015377Y0332450D01*
X0015377Y0331851D02*
X0003300Y0331851D01*
X0003300Y0331253D02*
X0015377Y0331253D01*
X0015377Y0330654D02*
X0003300Y0330654D01*
X0003300Y0330056D02*
X0015377Y0330056D01*
X0015377Y0329457D02*
X0003300Y0329457D01*
X0003300Y0328859D02*
X0015377Y0328859D01*
X0015377Y0328260D02*
X0003300Y0328260D01*
X0003300Y0327662D02*
X0015377Y0327662D01*
X0015377Y0327063D02*
X0003300Y0327063D01*
X0003300Y0326465D02*
X0015377Y0326465D01*
X0015377Y0325866D02*
X0003300Y0325866D01*
X0003300Y0325268D02*
X0015345Y0325268D01*
X0015224Y0324669D02*
X0003300Y0324669D01*
X0003300Y0324071D02*
X0015224Y0324071D01*
X0015224Y0323472D02*
X0003300Y0323472D01*
X0003300Y0322874D02*
X0015224Y0322874D01*
X0015224Y0322275D02*
X0003300Y0322275D01*
X0003300Y0321677D02*
X0015224Y0321677D01*
X0015224Y0321078D02*
X0003300Y0321078D01*
X0003300Y0320480D02*
X0015224Y0320480D01*
X0015224Y0319881D02*
X0003300Y0319881D01*
X0003300Y0319282D02*
X0015224Y0319282D01*
X0015224Y0318684D02*
X0003300Y0318684D01*
X0003300Y0318085D02*
X0015224Y0318085D01*
X0015224Y0317487D02*
X0003300Y0317487D01*
X0003300Y0316888D02*
X0015224Y0316888D01*
X0015224Y0316290D02*
X0003300Y0316290D01*
X0003300Y0315691D02*
X0015224Y0315691D01*
X0015224Y0315093D02*
X0003300Y0315093D01*
X0003300Y0314494D02*
X0015224Y0314494D01*
X0015224Y0313896D02*
X0003300Y0313896D01*
X0003300Y0313297D02*
X0015224Y0313297D01*
X0015224Y0312699D02*
X0003300Y0312699D01*
X0003300Y0312100D02*
X0015376Y0312100D01*
X0015624Y0311502D02*
X0003300Y0311502D01*
X0003300Y0310903D02*
X0015872Y0310903D01*
X0016120Y0310305D02*
X0003300Y0310305D01*
X0003300Y0309706D02*
X0016629Y0309706D01*
X0017228Y0309108D02*
X0003300Y0309108D01*
X0003300Y0308509D02*
X0017826Y0308509D01*
X0019089Y0307911D02*
X0003300Y0307911D01*
X0003300Y0307312D02*
X0249700Y0307312D01*
X0249700Y0306714D02*
X0003300Y0306714D01*
X0003300Y0306115D02*
X0249700Y0306115D01*
X0249700Y0305517D02*
X0003300Y0305517D01*
X0003300Y0304918D02*
X0249700Y0304918D01*
X0249700Y0304320D02*
X0003300Y0304320D01*
X0003300Y0303721D02*
X0249700Y0303721D01*
X0249700Y0303123D02*
X0003300Y0303123D01*
X0003300Y0302524D02*
X0249700Y0302524D01*
X0249700Y0301926D02*
X0003300Y0301926D01*
X0003300Y0301327D02*
X0249700Y0301327D01*
X0249700Y0300729D02*
X0003300Y0300729D01*
X0003300Y0300130D02*
X0249700Y0300130D01*
X0249700Y0299532D02*
X0003300Y0299532D01*
X0003300Y0298933D02*
X0249700Y0298933D01*
X0249700Y0298335D02*
X0003300Y0298335D01*
X0003300Y0297736D02*
X0249700Y0297736D01*
X0249700Y0297138D02*
X0003300Y0297138D01*
X0003300Y0296539D02*
X0249700Y0296539D01*
X0249700Y0295941D02*
X0003300Y0295941D01*
X0003300Y0295342D02*
X0249700Y0295342D01*
X0249700Y0294744D02*
X0003300Y0294744D01*
X0003300Y0294145D02*
X0249700Y0294145D01*
X0249700Y0293546D02*
X0003300Y0293546D01*
X0003300Y0292948D02*
X0249700Y0292948D01*
X0249700Y0292349D02*
X0003300Y0292349D01*
X0003300Y0291751D02*
X0249700Y0291751D01*
X0249700Y0291152D02*
X0003300Y0291152D01*
X0003300Y0290554D02*
X0249700Y0290554D01*
X0249700Y0289955D02*
X0153900Y0289955D01*
X0154428Y0289737D02*
X0152847Y0290391D01*
X0151137Y0290391D01*
X0149556Y0289737D01*
X0148347Y0288527D01*
X0147692Y0286947D01*
X0147692Y0279236D01*
X0148347Y0277656D01*
X0149556Y0276446D01*
X0151137Y0275791D01*
X0152847Y0275791D01*
X0154428Y0276446D01*
X0155637Y0277656D01*
X0156292Y0279236D01*
X0156292Y0286947D01*
X0155637Y0288527D01*
X0154428Y0289737D01*
X0154808Y0289357D02*
X0249700Y0289357D01*
X0249700Y0288758D02*
X0155406Y0288758D01*
X0155790Y0288160D02*
X0196128Y0288160D01*
X0196493Y0288525D02*
X0195731Y0287764D01*
X0195731Y0278419D01*
X0196493Y0277657D01*
X0205838Y0277657D01*
X0206599Y0278419D01*
X0206599Y0287764D01*
X0205838Y0288525D01*
X0196493Y0288525D01*
X0195731Y0287561D02*
X0156037Y0287561D01*
X0156285Y0286963D02*
X0195731Y0286963D01*
X0195731Y0286364D02*
X0156292Y0286364D01*
X0156292Y0285766D02*
X0195731Y0285766D01*
X0195731Y0285167D02*
X0156292Y0285167D01*
X0156292Y0284569D02*
X0195731Y0284569D01*
X0195731Y0283970D02*
X0156292Y0283970D01*
X0156292Y0283372D02*
X0195731Y0283372D01*
X0195731Y0282773D02*
X0156292Y0282773D01*
X0156292Y0282175D02*
X0195731Y0282175D01*
X0195731Y0281576D02*
X0156292Y0281576D01*
X0156292Y0280978D02*
X0195731Y0280978D01*
X0195731Y0280379D02*
X0156292Y0280379D01*
X0156292Y0279781D02*
X0195731Y0279781D01*
X0195731Y0279182D02*
X0156270Y0279182D01*
X0156022Y0278584D02*
X0195731Y0278584D01*
X0196165Y0277985D02*
X0155774Y0277985D01*
X0155369Y0277387D02*
X0249700Y0277387D01*
X0249700Y0277985D02*
X0227819Y0277985D01*
X0227751Y0277917D02*
X0227993Y0278159D01*
X0228164Y0278456D01*
X0228253Y0278786D01*
X0228253Y0282791D01*
X0223119Y0282791D01*
X0223119Y0277657D01*
X0227124Y0277657D01*
X0227455Y0277746D01*
X0227751Y0277917D01*
X0228198Y0278584D02*
X0249700Y0278584D01*
X0249700Y0279182D02*
X0228253Y0279182D01*
X0228253Y0279781D02*
X0249700Y0279781D01*
X0249700Y0280379D02*
X0228253Y0280379D01*
X0228253Y0280978D02*
X0249700Y0280978D01*
X0249700Y0281576D02*
X0228253Y0281576D01*
X0228253Y0282175D02*
X0249700Y0282175D01*
X0249700Y0282773D02*
X0228253Y0282773D01*
X0228253Y0283391D02*
X0228253Y0287396D01*
X0228164Y0287727D01*
X0227993Y0288023D01*
X0227751Y0288265D01*
X0227455Y0288437D01*
X0227124Y0288525D01*
X0223119Y0288525D01*
X0223119Y0283391D01*
X0228253Y0283391D01*
X0228253Y0283970D02*
X0249700Y0283970D01*
X0249700Y0283372D02*
X0223119Y0283372D01*
X0223119Y0283391D02*
X0223119Y0282791D01*
X0222519Y0282791D01*
X0222519Y0277657D01*
X0218514Y0277657D01*
X0218183Y0277746D01*
X0217887Y0277917D01*
X0217645Y0278159D01*
X0217474Y0278456D01*
X0217385Y0278786D01*
X0217385Y0282791D01*
X0222519Y0282791D01*
X0222519Y0283391D01*
X0217385Y0283391D01*
X0217385Y0287396D01*
X0217474Y0287727D01*
X0217645Y0288023D01*
X0217887Y0288265D01*
X0218183Y0288437D01*
X0218514Y0288525D01*
X0222519Y0288525D01*
X0222519Y0283391D01*
X0223119Y0283391D01*
X0223119Y0283970D02*
X0222519Y0283970D01*
X0222519Y0283372D02*
X0206599Y0283372D01*
X0206599Y0283970D02*
X0217385Y0283970D01*
X0217385Y0284569D02*
X0206599Y0284569D01*
X0206599Y0285167D02*
X0217385Y0285167D01*
X0217385Y0285766D02*
X0206599Y0285766D01*
X0206599Y0286364D02*
X0217385Y0286364D01*
X0217385Y0286963D02*
X0206599Y0286963D01*
X0206599Y0287561D02*
X0217429Y0287561D01*
X0217781Y0288160D02*
X0206203Y0288160D01*
X0206599Y0282773D02*
X0217385Y0282773D01*
X0217385Y0282175D02*
X0206599Y0282175D01*
X0206599Y0281576D02*
X0217385Y0281576D01*
X0217385Y0280978D02*
X0206599Y0280978D01*
X0206599Y0280379D02*
X0217385Y0280379D01*
X0217385Y0279781D02*
X0206599Y0279781D01*
X0206599Y0279182D02*
X0217385Y0279182D01*
X0217439Y0278584D02*
X0206599Y0278584D01*
X0206165Y0277985D02*
X0217819Y0277985D01*
X0222519Y0277985D02*
X0223119Y0277985D01*
X0223119Y0278584D02*
X0222519Y0278584D01*
X0222519Y0279182D02*
X0223119Y0279182D01*
X0223119Y0279781D02*
X0222519Y0279781D01*
X0222519Y0280379D02*
X0223119Y0280379D01*
X0223119Y0280978D02*
X0222519Y0280978D01*
X0222519Y0281576D02*
X0223119Y0281576D01*
X0223119Y0282175D02*
X0222519Y0282175D01*
X0222519Y0282773D02*
X0223119Y0282773D01*
X0223119Y0284569D02*
X0222519Y0284569D01*
X0222519Y0285167D02*
X0223119Y0285167D01*
X0223119Y0285766D02*
X0222519Y0285766D01*
X0222519Y0286364D02*
X0223119Y0286364D01*
X0223119Y0286963D02*
X0222519Y0286963D01*
X0222519Y0287561D02*
X0223119Y0287561D01*
X0223119Y0288160D02*
X0222519Y0288160D01*
X0227857Y0288160D02*
X0249700Y0288160D01*
X0249700Y0287561D02*
X0228209Y0287561D01*
X0228253Y0286963D02*
X0249700Y0286963D01*
X0249700Y0286364D02*
X0228253Y0286364D01*
X0228253Y0285766D02*
X0249700Y0285766D01*
X0249700Y0285167D02*
X0228253Y0285167D01*
X0228253Y0284569D02*
X0249700Y0284569D01*
X0249700Y0276788D02*
X0154770Y0276788D01*
X0153809Y0276190D02*
X0249700Y0276190D01*
X0249700Y0275591D02*
X0003300Y0275591D01*
X0003300Y0274993D02*
X0249700Y0274993D01*
X0249700Y0274394D02*
X0003300Y0274394D01*
X0003300Y0273796D02*
X0249700Y0273796D01*
X0249700Y0273197D02*
X0003300Y0273197D01*
X0003300Y0272599D02*
X0249700Y0272599D01*
X0249700Y0272000D02*
X0003300Y0272000D01*
X0003300Y0271402D02*
X0249700Y0271402D01*
X0249700Y0270803D02*
X0003300Y0270803D01*
X0003300Y0270205D02*
X0249700Y0270205D01*
X0249700Y0269606D02*
X0003300Y0269606D01*
X0003300Y0269008D02*
X0249700Y0269008D01*
X0249700Y0268409D02*
X0003300Y0268409D01*
X0003300Y0267811D02*
X0249700Y0267811D01*
X0249700Y0267212D02*
X0003300Y0267212D01*
X0003300Y0266613D02*
X0249700Y0266613D01*
X0249700Y0266015D02*
X0003300Y0266015D01*
X0003300Y0265416D02*
X0249700Y0265416D01*
X0249700Y0264818D02*
X0003300Y0264818D01*
X0003300Y0264219D02*
X0249700Y0264219D01*
X0249700Y0263621D02*
X0003300Y0263621D01*
X0003300Y0263022D02*
X0249700Y0263022D01*
X0249700Y0262424D02*
X0003300Y0262424D01*
X0003300Y0261825D02*
X0249700Y0261825D01*
X0249700Y0261227D02*
X0003300Y0261227D01*
X0003300Y0260628D02*
X0249700Y0260628D01*
X0249700Y0260030D02*
X0113627Y0260030D01*
X0113067Y0260590D02*
X0108469Y0260590D01*
X0105218Y0257339D01*
X0105218Y0252741D01*
X0108469Y0249490D01*
X0113067Y0249490D01*
X0116318Y0252741D01*
X0116318Y0257339D01*
X0113067Y0260590D01*
X0114225Y0259431D02*
X0249700Y0259431D01*
X0249700Y0258833D02*
X0114824Y0258833D01*
X0115422Y0258234D02*
X0249700Y0258234D01*
X0249700Y0257636D02*
X0116021Y0257636D01*
X0116318Y0257037D02*
X0249700Y0257037D01*
X0249700Y0256439D02*
X0116318Y0256439D01*
X0116318Y0255840D02*
X0249700Y0255840D01*
X0249700Y0255242D02*
X0116318Y0255242D01*
X0116318Y0254643D02*
X0249700Y0254643D01*
X0249700Y0254045D02*
X0116318Y0254045D01*
X0116318Y0253446D02*
X0249700Y0253446D01*
X0249700Y0252848D02*
X0116318Y0252848D01*
X0115826Y0252249D02*
X0249700Y0252249D01*
X0249700Y0251651D02*
X0115227Y0251651D01*
X0114629Y0251052D02*
X0249700Y0251052D01*
X0249700Y0250454D02*
X0114030Y0250454D01*
X0113432Y0249855D02*
X0249700Y0249855D01*
X0249700Y0249257D02*
X0003300Y0249257D01*
X0003300Y0249855D02*
X0108104Y0249855D01*
X0107505Y0250454D02*
X0003300Y0250454D01*
X0003300Y0251052D02*
X0106907Y0251052D01*
X0106308Y0251651D02*
X0003300Y0251651D01*
X0003300Y0252249D02*
X0105710Y0252249D01*
X0105218Y0252848D02*
X0003300Y0252848D01*
X0003300Y0253446D02*
X0105218Y0253446D01*
X0105218Y0254045D02*
X0003300Y0254045D01*
X0003300Y0254643D02*
X0105218Y0254643D01*
X0105218Y0255242D02*
X0003300Y0255242D01*
X0003300Y0255840D02*
X0105218Y0255840D01*
X0105218Y0256439D02*
X0003300Y0256439D01*
X0003300Y0257037D02*
X0105218Y0257037D01*
X0105515Y0257636D02*
X0003300Y0257636D01*
X0003300Y0258234D02*
X0106113Y0258234D01*
X0106712Y0258833D02*
X0003300Y0258833D01*
X0003300Y0259431D02*
X0107310Y0259431D01*
X0107909Y0260030D02*
X0003300Y0260030D01*
X0003300Y0248658D02*
X0249700Y0248658D01*
X0249700Y0248060D02*
X0003300Y0248060D01*
X0003300Y0247461D02*
X0249700Y0247461D01*
X0249700Y0246863D02*
X0003300Y0246863D01*
X0003300Y0246264D02*
X0249700Y0246264D01*
X0249700Y0245666D02*
X0003300Y0245666D01*
X0003300Y0245067D02*
X0249700Y0245067D01*
X0249700Y0244469D02*
X0003300Y0244469D01*
X0003300Y0243870D02*
X0249700Y0243870D01*
X0249700Y0243272D02*
X0003300Y0243272D01*
X0003300Y0242673D02*
X0249700Y0242673D01*
X0249700Y0242075D02*
X0003300Y0242075D01*
X0003300Y0241476D02*
X0249700Y0241476D01*
X0249700Y0240877D02*
X0003300Y0240877D01*
X0003300Y0240279D02*
X0130866Y0240279D01*
X0131137Y0240391D02*
X0129556Y0239737D01*
X0128347Y0238527D01*
X0127692Y0236947D01*
X0127692Y0229236D01*
X0128347Y0227656D01*
X0129556Y0226446D01*
X0131137Y0225791D01*
X0132847Y0225791D01*
X0134428Y0226446D01*
X0135637Y0227656D01*
X0136292Y0229236D01*
X0136292Y0236947D01*
X0135637Y0238527D01*
X0134428Y0239737D01*
X0132847Y0240391D01*
X0131137Y0240391D01*
X0129500Y0239680D02*
X0003300Y0239680D01*
X0003300Y0239082D02*
X0128902Y0239082D01*
X0128329Y0238483D02*
X0003300Y0238483D01*
X0003300Y0237885D02*
X0128081Y0237885D01*
X0127833Y0237286D02*
X0003300Y0237286D01*
X0003300Y0236688D02*
X0127692Y0236688D01*
X0127692Y0236089D02*
X0003300Y0236089D01*
X0003300Y0235491D02*
X0127692Y0235491D01*
X0127692Y0234892D02*
X0003300Y0234892D01*
X0003300Y0234294D02*
X0127692Y0234294D01*
X0127692Y0233695D02*
X0003300Y0233695D01*
X0003300Y0233097D02*
X0127692Y0233097D01*
X0127692Y0232498D02*
X0003300Y0232498D01*
X0003300Y0231900D02*
X0127692Y0231900D01*
X0127692Y0231301D02*
X0003300Y0231301D01*
X0003300Y0230703D02*
X0127692Y0230703D01*
X0127692Y0230104D02*
X0003300Y0230104D01*
X0003300Y0229506D02*
X0127692Y0229506D01*
X0127828Y0228907D02*
X0003300Y0228907D01*
X0003300Y0228309D02*
X0128076Y0228309D01*
X0128324Y0227710D02*
X0003300Y0227710D01*
X0003300Y0227112D02*
X0128891Y0227112D01*
X0129489Y0226513D02*
X0003300Y0226513D01*
X0003300Y0225915D02*
X0130839Y0225915D01*
X0133145Y0225915D02*
X0150839Y0225915D01*
X0151137Y0225791D02*
X0152847Y0225791D01*
X0154428Y0226446D01*
X0155637Y0227656D01*
X0156292Y0229236D01*
X0156292Y0236947D01*
X0155637Y0238527D01*
X0154428Y0239737D01*
X0152847Y0240391D01*
X0151137Y0240391D01*
X0149556Y0239737D01*
X0148347Y0238527D01*
X0147692Y0236947D01*
X0147692Y0229236D01*
X0148347Y0227656D01*
X0149556Y0226446D01*
X0151137Y0225791D01*
X0149489Y0226513D02*
X0134495Y0226513D01*
X0135094Y0227112D02*
X0148891Y0227112D01*
X0148324Y0227710D02*
X0135660Y0227710D01*
X0135908Y0228309D02*
X0148076Y0228309D01*
X0147828Y0228907D02*
X0136156Y0228907D01*
X0136292Y0229506D02*
X0147692Y0229506D01*
X0147692Y0230104D02*
X0136292Y0230104D01*
X0136292Y0230703D02*
X0147692Y0230703D01*
X0147692Y0231301D02*
X0136292Y0231301D01*
X0136292Y0231900D02*
X0147692Y0231900D01*
X0147692Y0232498D02*
X0136292Y0232498D01*
X0136292Y0233097D02*
X0147692Y0233097D01*
X0147692Y0233695D02*
X0136292Y0233695D01*
X0136292Y0234294D02*
X0147692Y0234294D01*
X0147692Y0234892D02*
X0136292Y0234892D01*
X0136292Y0235491D02*
X0147692Y0235491D01*
X0147692Y0236089D02*
X0136292Y0236089D01*
X0136292Y0236688D02*
X0147692Y0236688D01*
X0147833Y0237286D02*
X0136151Y0237286D01*
X0135903Y0237885D02*
X0148081Y0237885D01*
X0148329Y0238483D02*
X0135656Y0238483D01*
X0135083Y0239082D02*
X0148902Y0239082D01*
X0149500Y0239680D02*
X0134484Y0239680D01*
X0133119Y0240279D02*
X0150866Y0240279D01*
X0153119Y0240279D02*
X0249700Y0240279D01*
X0249700Y0239680D02*
X0154484Y0239680D01*
X0155083Y0239082D02*
X0249700Y0239082D01*
X0249700Y0238483D02*
X0227280Y0238483D01*
X0227124Y0238525D02*
X0223119Y0238525D01*
X0223119Y0233391D01*
X0228253Y0233391D01*
X0228253Y0237396D01*
X0228164Y0237727D01*
X0227993Y0238023D01*
X0227751Y0238265D01*
X0227455Y0238437D01*
X0227124Y0238525D01*
X0228073Y0237885D02*
X0249700Y0237885D01*
X0249700Y0237286D02*
X0228253Y0237286D01*
X0228253Y0236688D02*
X0249700Y0236688D01*
X0249700Y0236089D02*
X0228253Y0236089D01*
X0228253Y0235491D02*
X0249700Y0235491D01*
X0249700Y0234892D02*
X0228253Y0234892D01*
X0228253Y0234294D02*
X0249700Y0234294D01*
X0249700Y0233695D02*
X0228253Y0233695D01*
X0228253Y0232791D02*
X0228253Y0228786D01*
X0228164Y0228456D01*
X0227993Y0228159D01*
X0227751Y0227917D01*
X0227455Y0227746D01*
X0227124Y0227657D01*
X0223119Y0227657D01*
X0223119Y0232791D01*
X0222519Y0232791D01*
X0222519Y0227657D01*
X0218514Y0227657D01*
X0218183Y0227746D01*
X0217887Y0227917D01*
X0217645Y0228159D01*
X0217474Y0228456D01*
X0217385Y0228786D01*
X0217385Y0232791D01*
X0222519Y0232791D01*
X0222519Y0233391D01*
X0217385Y0233391D01*
X0217385Y0237396D01*
X0217474Y0237727D01*
X0217645Y0238023D01*
X0217887Y0238265D01*
X0218183Y0238437D01*
X0218514Y0238525D01*
X0222519Y0238525D01*
X0222519Y0233391D01*
X0223119Y0233391D01*
X0223119Y0232791D01*
X0228253Y0232791D01*
X0228253Y0232498D02*
X0249700Y0232498D01*
X0249700Y0231900D02*
X0228253Y0231900D01*
X0228253Y0231301D02*
X0249700Y0231301D01*
X0249700Y0230703D02*
X0228253Y0230703D01*
X0228253Y0230104D02*
X0249700Y0230104D01*
X0249700Y0229506D02*
X0228253Y0229506D01*
X0228253Y0228907D02*
X0249700Y0228907D01*
X0249700Y0228309D02*
X0228079Y0228309D01*
X0227321Y0227710D02*
X0249700Y0227710D01*
X0249700Y0227112D02*
X0155094Y0227112D01*
X0155660Y0227710D02*
X0196440Y0227710D01*
X0196493Y0227657D02*
X0195731Y0228419D01*
X0195731Y0237764D01*
X0196493Y0238525D01*
X0205838Y0238525D01*
X0206599Y0237764D01*
X0206599Y0228419D01*
X0205838Y0227657D01*
X0196493Y0227657D01*
X0195842Y0228309D02*
X0155908Y0228309D01*
X0156156Y0228907D02*
X0195731Y0228907D01*
X0195731Y0229506D02*
X0156292Y0229506D01*
X0156292Y0230104D02*
X0195731Y0230104D01*
X0195731Y0230703D02*
X0156292Y0230703D01*
X0156292Y0231301D02*
X0195731Y0231301D01*
X0195731Y0231900D02*
X0156292Y0231900D01*
X0156292Y0232498D02*
X0195731Y0232498D01*
X0195731Y0233097D02*
X0156292Y0233097D01*
X0156292Y0233695D02*
X0195731Y0233695D01*
X0195731Y0234294D02*
X0156292Y0234294D01*
X0156292Y0234892D02*
X0195731Y0234892D01*
X0195731Y0235491D02*
X0156292Y0235491D01*
X0156292Y0236089D02*
X0195731Y0236089D01*
X0195731Y0236688D02*
X0156292Y0236688D01*
X0156151Y0237286D02*
X0195731Y0237286D01*
X0195853Y0237885D02*
X0155903Y0237885D01*
X0155656Y0238483D02*
X0196451Y0238483D01*
X0205879Y0238483D02*
X0218358Y0238483D01*
X0217565Y0237885D02*
X0206478Y0237885D01*
X0206599Y0237286D02*
X0217385Y0237286D01*
X0217385Y0236688D02*
X0206599Y0236688D01*
X0206599Y0236089D02*
X0217385Y0236089D01*
X0217385Y0235491D02*
X0206599Y0235491D01*
X0206599Y0234892D02*
X0217385Y0234892D01*
X0217385Y0234294D02*
X0206599Y0234294D01*
X0206599Y0233695D02*
X0217385Y0233695D01*
X0217385Y0232498D02*
X0206599Y0232498D01*
X0206599Y0231900D02*
X0217385Y0231900D01*
X0217385Y0231301D02*
X0206599Y0231301D01*
X0206599Y0230703D02*
X0217385Y0230703D01*
X0217385Y0230104D02*
X0206599Y0230104D01*
X0206599Y0229506D02*
X0217385Y0229506D01*
X0217385Y0228907D02*
X0206599Y0228907D01*
X0206489Y0228309D02*
X0217558Y0228309D01*
X0218317Y0227710D02*
X0205890Y0227710D01*
X0206599Y0233097D02*
X0222519Y0233097D01*
X0222519Y0233695D02*
X0223119Y0233695D01*
X0223119Y0233097D02*
X0249700Y0233097D01*
X0249700Y0226513D02*
X0154495Y0226513D01*
X0153145Y0225915D02*
X0249700Y0225915D01*
X0249700Y0225316D02*
X0023950Y0225316D01*
X0024637Y0225032D02*
X0022578Y0225884D01*
X0020351Y0225884D01*
X0018292Y0225032D01*
X0016717Y0223456D01*
X0015865Y0221398D01*
X0015865Y0219170D01*
X0016717Y0217112D01*
X0018292Y0215537D01*
X0020351Y0214684D01*
X0022578Y0214684D01*
X0024637Y0215537D01*
X0026212Y0217112D01*
X0027065Y0219170D01*
X0027065Y0221398D01*
X0026212Y0223456D01*
X0024637Y0225032D01*
X0024951Y0224718D02*
X0249700Y0224718D01*
X0249700Y0224119D02*
X0025549Y0224119D01*
X0026148Y0223521D02*
X0249700Y0223521D01*
X0249700Y0222922D02*
X0026433Y0222922D01*
X0026681Y0222324D02*
X0249700Y0222324D01*
X0249700Y0221725D02*
X0026929Y0221725D01*
X0027065Y0221127D02*
X0249700Y0221127D01*
X0249700Y0220528D02*
X0077580Y0220528D01*
X0077882Y0220403D02*
X0076314Y0221053D01*
X0074616Y0221053D01*
X0073047Y0220403D01*
X0071846Y0219202D01*
X0071196Y0217633D01*
X0071196Y0215935D01*
X0071846Y0214366D01*
X0073047Y0213166D01*
X0074616Y0212516D01*
X0076314Y0212516D01*
X0077882Y0213166D01*
X0079083Y0214366D01*
X0079733Y0215935D01*
X0079733Y0217633D01*
X0079083Y0219202D01*
X0077882Y0220403D01*
X0078356Y0219930D02*
X0249700Y0219930D01*
X0249700Y0219331D02*
X0078954Y0219331D01*
X0079278Y0218733D02*
X0249700Y0218733D01*
X0249700Y0218134D02*
X0079526Y0218134D01*
X0079733Y0217536D02*
X0249700Y0217536D01*
X0249700Y0216937D02*
X0079733Y0216937D01*
X0079733Y0216339D02*
X0249700Y0216339D01*
X0249700Y0215740D02*
X0079652Y0215740D01*
X0079404Y0215142D02*
X0249700Y0215142D01*
X0249700Y0214543D02*
X0079156Y0214543D01*
X0078661Y0213944D02*
X0249700Y0213944D01*
X0249700Y0213346D02*
X0078063Y0213346D01*
X0076873Y0212747D02*
X0249700Y0212747D01*
X0249700Y0212149D02*
X0003300Y0212149D01*
X0003300Y0212747D02*
X0034056Y0212747D01*
X0034616Y0212516D02*
X0036314Y0212516D01*
X0037882Y0213166D01*
X0039083Y0214366D01*
X0039733Y0215935D01*
X0039733Y0217633D01*
X0039083Y0219202D01*
X0037882Y0220403D01*
X0036314Y0221053D01*
X0034616Y0221053D01*
X0033047Y0220403D01*
X0031846Y0219202D01*
X0031196Y0217633D01*
X0031196Y0215935D01*
X0031846Y0214366D01*
X0033047Y0213166D01*
X0034616Y0212516D01*
X0032866Y0213346D02*
X0003300Y0213346D01*
X0003300Y0213944D02*
X0032268Y0213944D01*
X0031773Y0214543D02*
X0003300Y0214543D01*
X0003300Y0215142D02*
X0019247Y0215142D01*
X0018089Y0215740D02*
X0003300Y0215740D01*
X0003300Y0216339D02*
X0017491Y0216339D01*
X0016892Y0216937D02*
X0003300Y0216937D01*
X0003300Y0217536D02*
X0016542Y0217536D01*
X0016294Y0218134D02*
X0003300Y0218134D01*
X0003300Y0218733D02*
X0016046Y0218733D01*
X0015865Y0219331D02*
X0003300Y0219331D01*
X0003300Y0219930D02*
X0015865Y0219930D01*
X0015865Y0220528D02*
X0003300Y0220528D01*
X0003300Y0221127D02*
X0015865Y0221127D01*
X0016000Y0221725D02*
X0003300Y0221725D01*
X0003300Y0222324D02*
X0016248Y0222324D01*
X0016496Y0222922D02*
X0003300Y0222922D01*
X0003300Y0223521D02*
X0016781Y0223521D01*
X0017380Y0224119D02*
X0003300Y0224119D01*
X0003300Y0224718D02*
X0017978Y0224718D01*
X0018979Y0225316D02*
X0003300Y0225316D01*
X0003300Y0211550D02*
X0249700Y0211550D01*
X0249700Y0210952D02*
X0003300Y0210952D01*
X0003300Y0210353D02*
X0249700Y0210353D01*
X0249700Y0209755D02*
X0107827Y0209755D01*
X0107720Y0209862D02*
X0103122Y0209862D01*
X0099871Y0206611D01*
X0099871Y0202013D01*
X0103122Y0198762D01*
X0107720Y0198762D01*
X0110971Y0202013D01*
X0110971Y0206611D01*
X0107720Y0209862D01*
X0108426Y0209156D02*
X0249700Y0209156D01*
X0249700Y0208558D02*
X0109024Y0208558D01*
X0109623Y0207959D02*
X0249700Y0207959D01*
X0249700Y0207361D02*
X0110221Y0207361D01*
X0110820Y0206762D02*
X0249700Y0206762D01*
X0249700Y0206164D02*
X0110971Y0206164D01*
X0110971Y0205565D02*
X0249700Y0205565D01*
X0249700Y0204967D02*
X0110971Y0204967D01*
X0110971Y0204368D02*
X0249700Y0204368D01*
X0249700Y0203770D02*
X0110971Y0203770D01*
X0110971Y0203171D02*
X0249700Y0203171D01*
X0249700Y0202573D02*
X0110971Y0202573D01*
X0110933Y0201974D02*
X0249700Y0201974D01*
X0249700Y0201376D02*
X0110334Y0201376D01*
X0109736Y0200777D02*
X0249700Y0200777D01*
X0249700Y0200179D02*
X0109137Y0200179D01*
X0108539Y0199580D02*
X0249700Y0199580D01*
X0249700Y0198982D02*
X0107940Y0198982D01*
X0102902Y0198982D02*
X0003300Y0198982D01*
X0003300Y0199580D02*
X0102304Y0199580D01*
X0101705Y0200179D02*
X0003300Y0200179D01*
X0003300Y0200777D02*
X0101107Y0200777D01*
X0100508Y0201376D02*
X0003300Y0201376D01*
X0003300Y0201974D02*
X0099910Y0201974D01*
X0099871Y0202573D02*
X0003300Y0202573D01*
X0003300Y0203171D02*
X0099871Y0203171D01*
X0099871Y0203770D02*
X0003300Y0203770D01*
X0003300Y0204368D02*
X0099871Y0204368D01*
X0099871Y0204967D02*
X0003300Y0204967D01*
X0003300Y0205565D02*
X0099871Y0205565D01*
X0099871Y0206164D02*
X0003300Y0206164D01*
X0003300Y0206762D02*
X0100023Y0206762D01*
X0100621Y0207361D02*
X0003300Y0207361D01*
X0003300Y0207959D02*
X0101220Y0207959D01*
X0101818Y0208558D02*
X0003300Y0208558D01*
X0003300Y0209156D02*
X0102417Y0209156D01*
X0103015Y0209755D02*
X0003300Y0209755D01*
X0003300Y0198383D02*
X0249700Y0198383D01*
X0249700Y0197785D02*
X0003300Y0197785D01*
X0003300Y0197186D02*
X0249700Y0197186D01*
X0249700Y0196588D02*
X0003300Y0196588D01*
X0003300Y0195989D02*
X0249700Y0195989D01*
X0249700Y0195391D02*
X0003300Y0195391D01*
X0003300Y0194792D02*
X0249700Y0194792D01*
X0249700Y0194194D02*
X0003300Y0194194D01*
X0003300Y0193595D02*
X0249700Y0193595D01*
X0249700Y0192997D02*
X0021156Y0192997D01*
X0020732Y0193421D02*
X0016134Y0193421D01*
X0012883Y0190170D01*
X0012883Y0185572D01*
X0016134Y0182321D01*
X0020732Y0182321D01*
X0023983Y0185572D01*
X0023983Y0190170D01*
X0020732Y0193421D01*
X0021755Y0192398D02*
X0249700Y0192398D01*
X0249700Y0191800D02*
X0022353Y0191800D01*
X0022952Y0191201D02*
X0249700Y0191201D01*
X0249700Y0190603D02*
X0023550Y0190603D01*
X0023983Y0190004D02*
X0130202Y0190004D01*
X0129556Y0189737D02*
X0131137Y0190391D01*
X0132847Y0190391D01*
X0134428Y0189737D01*
X0135637Y0188527D01*
X0136292Y0186947D01*
X0136292Y0179236D01*
X0135637Y0177656D01*
X0134428Y0176446D01*
X0132847Y0175791D01*
X0131137Y0175791D01*
X0129556Y0176446D01*
X0128347Y0177656D01*
X0127692Y0179236D01*
X0127692Y0186947D01*
X0128347Y0188527D01*
X0129556Y0189737D01*
X0129225Y0189406D02*
X0023983Y0189406D01*
X0023983Y0188807D02*
X0128627Y0188807D01*
X0128215Y0188209D02*
X0023983Y0188209D01*
X0023983Y0187610D02*
X0127967Y0187610D01*
X0127719Y0187011D02*
X0023983Y0187011D01*
X0023983Y0186413D02*
X0127692Y0186413D01*
X0127692Y0185814D02*
X0023983Y0185814D01*
X0023627Y0185216D02*
X0127692Y0185216D01*
X0127692Y0184617D02*
X0023029Y0184617D01*
X0022430Y0184019D02*
X0127692Y0184019D01*
X0127692Y0183420D02*
X0021831Y0183420D01*
X0021233Y0182822D02*
X0127692Y0182822D01*
X0127692Y0182223D02*
X0003300Y0182223D01*
X0003300Y0181625D02*
X0127692Y0181625D01*
X0127692Y0181026D02*
X0003300Y0181026D01*
X0003300Y0180428D02*
X0127692Y0180428D01*
X0127692Y0179829D02*
X0003300Y0179829D01*
X0003300Y0179231D02*
X0127694Y0179231D01*
X0127942Y0178632D02*
X0003300Y0178632D01*
X0003300Y0178034D02*
X0128190Y0178034D01*
X0128567Y0177435D02*
X0003300Y0177435D01*
X0003300Y0176837D02*
X0129166Y0176837D01*
X0130058Y0176238D02*
X0003300Y0176238D01*
X0003300Y0175640D02*
X0249700Y0175640D01*
X0249700Y0176238D02*
X0153926Y0176238D01*
X0154428Y0176446D02*
X0155637Y0177656D01*
X0156292Y0179236D01*
X0156292Y0186947D01*
X0155637Y0188527D01*
X0154428Y0189737D01*
X0152847Y0190391D01*
X0151137Y0190391D01*
X0149556Y0189737D01*
X0148347Y0188527D01*
X0147692Y0186947D01*
X0147692Y0179236D01*
X0148347Y0177656D01*
X0149556Y0176446D01*
X0151137Y0175791D01*
X0152847Y0175791D01*
X0154428Y0176446D01*
X0154819Y0176837D02*
X0249700Y0176837D01*
X0249700Y0177435D02*
X0155417Y0177435D01*
X0155794Y0178034D02*
X0196117Y0178034D01*
X0196493Y0177657D02*
X0195731Y0178419D01*
X0195731Y0187764D01*
X0196493Y0188525D01*
X0205838Y0188525D01*
X0206599Y0187764D01*
X0206599Y0178419D01*
X0205838Y0177657D01*
X0196493Y0177657D01*
X0195731Y0178632D02*
X0156042Y0178632D01*
X0156290Y0179231D02*
X0195731Y0179231D01*
X0195731Y0179829D02*
X0156292Y0179829D01*
X0156292Y0180428D02*
X0195731Y0180428D01*
X0195731Y0181026D02*
X0156292Y0181026D01*
X0156292Y0181625D02*
X0195731Y0181625D01*
X0195731Y0182223D02*
X0156292Y0182223D01*
X0156292Y0182822D02*
X0195731Y0182822D01*
X0195731Y0183420D02*
X0156292Y0183420D01*
X0156292Y0184019D02*
X0195731Y0184019D01*
X0195731Y0184617D02*
X0156292Y0184617D01*
X0156292Y0185216D02*
X0195731Y0185216D01*
X0195731Y0185814D02*
X0156292Y0185814D01*
X0156292Y0186413D02*
X0195731Y0186413D01*
X0195731Y0187011D02*
X0156265Y0187011D01*
X0156017Y0187610D02*
X0195731Y0187610D01*
X0196176Y0188209D02*
X0155769Y0188209D01*
X0155358Y0188807D02*
X0249700Y0188807D01*
X0249700Y0188209D02*
X0227808Y0188209D01*
X0227751Y0188265D02*
X0227455Y0188437D01*
X0227124Y0188525D01*
X0223119Y0188525D01*
X0223119Y0183391D01*
X0228253Y0183391D01*
X0228253Y0187396D01*
X0228164Y0187727D01*
X0227993Y0188023D01*
X0227751Y0188265D01*
X0228195Y0187610D02*
X0249700Y0187610D01*
X0249700Y0187011D02*
X0228253Y0187011D01*
X0228253Y0186413D02*
X0249700Y0186413D01*
X0249700Y0185814D02*
X0228253Y0185814D01*
X0228253Y0185216D02*
X0249700Y0185216D01*
X0249700Y0184617D02*
X0228253Y0184617D01*
X0228253Y0184019D02*
X0249700Y0184019D01*
X0249700Y0183420D02*
X0228253Y0183420D01*
X0228253Y0182791D02*
X0228253Y0178786D01*
X0228164Y0178456D01*
X0227993Y0178159D01*
X0227751Y0177917D01*
X0227455Y0177746D01*
X0227124Y0177657D01*
X0223119Y0177657D01*
X0223119Y0182791D01*
X0222519Y0182791D01*
X0222519Y0177657D01*
X0218514Y0177657D01*
X0218183Y0177746D01*
X0217887Y0177917D01*
X0217645Y0178159D01*
X0217474Y0178456D01*
X0217385Y0178786D01*
X0217385Y0182791D01*
X0222519Y0182791D01*
X0222519Y0183391D01*
X0217385Y0183391D01*
X0217385Y0187396D01*
X0217474Y0187727D01*
X0217645Y0188023D01*
X0217887Y0188265D01*
X0218183Y0188437D01*
X0218514Y0188525D01*
X0222519Y0188525D01*
X0222519Y0183391D01*
X0223119Y0183391D01*
X0223119Y0182791D01*
X0228253Y0182791D01*
X0228253Y0182223D02*
X0249700Y0182223D01*
X0249700Y0181625D02*
X0228253Y0181625D01*
X0228253Y0181026D02*
X0249700Y0181026D01*
X0249700Y0180428D02*
X0228253Y0180428D01*
X0228253Y0179829D02*
X0249700Y0179829D01*
X0249700Y0179231D02*
X0228253Y0179231D01*
X0228211Y0178632D02*
X0249700Y0178632D01*
X0249700Y0178034D02*
X0227868Y0178034D01*
X0223119Y0178034D02*
X0222519Y0178034D01*
X0222519Y0178632D02*
X0223119Y0178632D01*
X0223119Y0179231D02*
X0222519Y0179231D01*
X0222519Y0179829D02*
X0223119Y0179829D01*
X0223119Y0180428D02*
X0222519Y0180428D01*
X0222519Y0181026D02*
X0223119Y0181026D01*
X0223119Y0181625D02*
X0222519Y0181625D01*
X0222519Y0182223D02*
X0223119Y0182223D01*
X0223119Y0182822D02*
X0249700Y0182822D01*
X0249700Y0189406D02*
X0154759Y0189406D01*
X0153782Y0190004D02*
X0249700Y0190004D01*
X0249700Y0175041D02*
X0003300Y0175041D01*
X0003300Y0174443D02*
X0249700Y0174443D01*
X0249700Y0173844D02*
X0003300Y0173844D01*
X0003300Y0173246D02*
X0249700Y0173246D01*
X0249700Y0172647D02*
X0003300Y0172647D01*
X0003300Y0172049D02*
X0249700Y0172049D01*
X0249700Y0171450D02*
X0003300Y0171450D01*
X0003300Y0170852D02*
X0249700Y0170852D01*
X0249700Y0170253D02*
X0003300Y0170253D01*
X0003300Y0169655D02*
X0249700Y0169655D01*
X0249700Y0169056D02*
X0003300Y0169056D01*
X0003300Y0168458D02*
X0249700Y0168458D01*
X0249700Y0167859D02*
X0003300Y0167859D01*
X0003300Y0167261D02*
X0030080Y0167261D01*
X0030211Y0167391D02*
X0027692Y0164872D01*
X0027692Y0163391D01*
X0031692Y0163391D01*
X0031692Y0162791D01*
X0032292Y0162791D01*
X0032292Y0158791D01*
X0033773Y0158791D01*
X0036292Y0161310D01*
X0036292Y0162791D01*
X0032292Y0162791D01*
X0032292Y0163391D01*
X0036292Y0163391D01*
X0036292Y0164872D01*
X0033773Y0167391D01*
X0032292Y0167391D01*
X0032292Y0163391D01*
X0031692Y0163391D01*
X0031692Y0167391D01*
X0030211Y0167391D01*
X0029482Y0166662D02*
X0003300Y0166662D01*
X0003300Y0166064D02*
X0028883Y0166064D01*
X0028285Y0165465D02*
X0003300Y0165465D01*
X0003300Y0164867D02*
X0027692Y0164867D01*
X0027692Y0164268D02*
X0003300Y0164268D01*
X0003300Y0163670D02*
X0027692Y0163670D01*
X0027692Y0162791D02*
X0027692Y0161310D01*
X0030211Y0158791D01*
X0031692Y0158791D01*
X0031692Y0162791D01*
X0027692Y0162791D01*
X0027692Y0162473D02*
X0003300Y0162473D01*
X0003300Y0163071D02*
X0031692Y0163071D01*
X0031692Y0162473D02*
X0032292Y0162473D01*
X0032292Y0163071D02*
X0037692Y0163071D01*
X0037692Y0162473D02*
X0036292Y0162473D01*
X0036292Y0161874D02*
X0037692Y0161874D01*
X0037692Y0161310D02*
X0040211Y0158791D01*
X0043773Y0158791D01*
X0046292Y0161310D01*
X0046292Y0164872D01*
X0043773Y0167391D01*
X0040211Y0167391D01*
X0037692Y0164872D01*
X0037692Y0161310D01*
X0037727Y0161275D02*
X0036257Y0161275D01*
X0035659Y0160677D02*
X0038325Y0160677D01*
X0038924Y0160078D02*
X0035060Y0160078D01*
X0034462Y0159480D02*
X0039522Y0159480D01*
X0040121Y0158881D02*
X0033863Y0158881D01*
X0033773Y0157391D02*
X0032292Y0157391D01*
X0032292Y0153391D01*
X0036292Y0153391D01*
X0036292Y0154872D01*
X0033773Y0157391D01*
X0034079Y0157086D02*
X0039906Y0157086D01*
X0040211Y0157391D02*
X0037692Y0154872D01*
X0037692Y0151310D01*
X0040211Y0148791D01*
X0043773Y0148791D01*
X0046292Y0151310D01*
X0046292Y0154872D01*
X0043773Y0157391D01*
X0040211Y0157391D01*
X0039307Y0156487D02*
X0034677Y0156487D01*
X0035276Y0155889D02*
X0038709Y0155889D01*
X0038110Y0155290D02*
X0035874Y0155290D01*
X0036292Y0154692D02*
X0037692Y0154692D01*
X0037692Y0154093D02*
X0036292Y0154093D01*
X0036292Y0153495D02*
X0037692Y0153495D01*
X0037692Y0152896D02*
X0032292Y0152896D01*
X0032292Y0152791D02*
X0032292Y0153391D01*
X0031692Y0153391D01*
X0031692Y0152791D01*
X0032292Y0152791D01*
X0032292Y0148791D01*
X0033773Y0148791D01*
X0036292Y0151310D01*
X0036292Y0152791D01*
X0032292Y0152791D01*
X0032292Y0152298D02*
X0031692Y0152298D01*
X0031692Y0152791D02*
X0031692Y0148791D01*
X0030211Y0148791D01*
X0027692Y0151310D01*
X0027692Y0152791D01*
X0031692Y0152791D01*
X0031692Y0152896D02*
X0003300Y0152896D01*
X0003300Y0152298D02*
X0027692Y0152298D01*
X0027692Y0151699D02*
X0003300Y0151699D01*
X0003300Y0151101D02*
X0027902Y0151101D01*
X0028500Y0150502D02*
X0003300Y0150502D01*
X0003300Y0149904D02*
X0029099Y0149904D01*
X0029697Y0149305D02*
X0003300Y0149305D01*
X0003300Y0148707D02*
X0249700Y0148707D01*
X0249700Y0149305D02*
X0044287Y0149305D01*
X0044886Y0149904D02*
X0249700Y0149904D01*
X0249700Y0150502D02*
X0045484Y0150502D01*
X0046083Y0151101D02*
X0249700Y0151101D01*
X0249700Y0151699D02*
X0046292Y0151699D01*
X0046292Y0152298D02*
X0249700Y0152298D01*
X0249700Y0152896D02*
X0046292Y0152896D01*
X0046292Y0153495D02*
X0249700Y0153495D01*
X0249700Y0154093D02*
X0046292Y0154093D01*
X0046292Y0154692D02*
X0249700Y0154692D01*
X0249700Y0155290D02*
X0045874Y0155290D01*
X0045276Y0155889D02*
X0249700Y0155889D01*
X0249700Y0156487D02*
X0044677Y0156487D01*
X0044079Y0157086D02*
X0249700Y0157086D01*
X0249700Y0157684D02*
X0003300Y0157684D01*
X0003300Y0157086D02*
X0029906Y0157086D01*
X0030211Y0157391D02*
X0027692Y0154872D01*
X0027692Y0153391D01*
X0031692Y0153391D01*
X0031692Y0157391D01*
X0030211Y0157391D01*
X0029307Y0156487D02*
X0003300Y0156487D01*
X0003300Y0155889D02*
X0028709Y0155889D01*
X0028110Y0155290D02*
X0003300Y0155290D01*
X0003300Y0154692D02*
X0027692Y0154692D01*
X0027692Y0154093D02*
X0003300Y0154093D01*
X0003300Y0153495D02*
X0027692Y0153495D01*
X0030211Y0147391D02*
X0027692Y0144872D01*
X0027692Y0143391D01*
X0031692Y0143391D01*
X0031692Y0142791D01*
X0032292Y0142791D01*
X0032292Y0138791D01*
X0033773Y0138791D01*
X0036292Y0141310D01*
X0036292Y0142791D01*
X0032292Y0142791D01*
X0032292Y0143391D01*
X0036292Y0143391D01*
X0036292Y0144872D01*
X0033773Y0147391D01*
X0032292Y0147391D01*
X0032292Y0143391D01*
X0031692Y0143391D01*
X0031692Y0147391D01*
X0030211Y0147391D01*
X0029731Y0146911D02*
X0003300Y0146911D01*
X0003300Y0146313D02*
X0029132Y0146313D01*
X0028534Y0145714D02*
X0003300Y0145714D01*
X0003300Y0145116D02*
X0027935Y0145116D01*
X0027692Y0144517D02*
X0003300Y0144517D01*
X0003300Y0143919D02*
X0027692Y0143919D01*
X0027692Y0142791D02*
X0027692Y0141310D01*
X0030211Y0138791D01*
X0031692Y0138791D01*
X0031692Y0142791D01*
X0027692Y0142791D01*
X0027692Y0142722D02*
X0003300Y0142722D01*
X0003300Y0143320D02*
X0031692Y0143320D01*
X0031692Y0142722D02*
X0032292Y0142722D01*
X0032292Y0143320D02*
X0037692Y0143320D01*
X0037692Y0142722D02*
X0036292Y0142722D01*
X0036292Y0142123D02*
X0037692Y0142123D01*
X0037692Y0141525D02*
X0036292Y0141525D01*
X0035908Y0140926D02*
X0038076Y0140926D01*
X0037692Y0141310D02*
X0040211Y0138791D01*
X0043773Y0138791D01*
X0046292Y0141310D01*
X0046292Y0144872D01*
X0043773Y0147391D01*
X0040211Y0147391D01*
X0037692Y0144872D01*
X0037692Y0141310D01*
X0038675Y0140328D02*
X0035309Y0140328D01*
X0034711Y0139729D02*
X0039273Y0139729D01*
X0039872Y0139131D02*
X0034112Y0139131D01*
X0033773Y0137391D02*
X0032292Y0137391D01*
X0032292Y0133391D01*
X0036292Y0133391D01*
X0036292Y0134872D01*
X0033773Y0137391D01*
X0033830Y0137335D02*
X0040155Y0137335D01*
X0040211Y0137391D02*
X0037692Y0134872D01*
X0037692Y0131310D01*
X0040211Y0128791D01*
X0043773Y0128791D01*
X0046292Y0131310D01*
X0046292Y0134872D01*
X0043773Y0137391D01*
X0040211Y0137391D01*
X0039556Y0136737D02*
X0034428Y0136737D01*
X0035027Y0136138D02*
X0038958Y0136138D01*
X0038359Y0135540D02*
X0035625Y0135540D01*
X0036224Y0134941D02*
X0037761Y0134941D01*
X0037692Y0134342D02*
X0036292Y0134342D01*
X0036292Y0133744D02*
X0037692Y0133744D01*
X0037692Y0133145D02*
X0032292Y0133145D01*
X0032292Y0133391D02*
X0032292Y0132791D01*
X0032292Y0128791D01*
X0033773Y0128791D01*
X0036292Y0131310D01*
X0036292Y0132791D01*
X0032292Y0132791D01*
X0031692Y0132791D01*
X0031692Y0128791D01*
X0030211Y0128791D01*
X0027692Y0131310D01*
X0027692Y0132791D01*
X0031692Y0132791D01*
X0031692Y0133391D01*
X0027692Y0133391D01*
X0027692Y0134872D01*
X0030211Y0137391D01*
X0031692Y0137391D01*
X0031692Y0133391D01*
X0032292Y0133391D01*
X0032292Y0133744D02*
X0031692Y0133744D01*
X0031692Y0134342D02*
X0032292Y0134342D01*
X0032292Y0134941D02*
X0031692Y0134941D01*
X0031692Y0135540D02*
X0032292Y0135540D01*
X0032292Y0136138D02*
X0031692Y0136138D01*
X0031692Y0136737D02*
X0032292Y0136737D01*
X0032292Y0137335D02*
X0031692Y0137335D01*
X0030155Y0137335D02*
X0003300Y0137335D01*
X0003300Y0136737D02*
X0029556Y0136737D01*
X0028958Y0136138D02*
X0003300Y0136138D01*
X0003300Y0135540D02*
X0028359Y0135540D01*
X0027761Y0134941D02*
X0003300Y0134941D01*
X0003300Y0134342D02*
X0027692Y0134342D01*
X0027692Y0133744D02*
X0003300Y0133744D01*
X0003300Y0133145D02*
X0031692Y0133145D01*
X0031692Y0132547D02*
X0032292Y0132547D01*
X0032292Y0131948D02*
X0031692Y0131948D01*
X0031692Y0131350D02*
X0032292Y0131350D01*
X0032292Y0130751D02*
X0031692Y0130751D01*
X0031692Y0130153D02*
X0032292Y0130153D01*
X0032292Y0129554D02*
X0031692Y0129554D01*
X0031692Y0128956D02*
X0032292Y0128956D01*
X0032292Y0127391D02*
X0032292Y0123391D01*
X0036292Y0123391D01*
X0036292Y0124872D01*
X0033773Y0127391D01*
X0032292Y0127391D01*
X0032292Y0127160D02*
X0031692Y0127160D01*
X0031692Y0127391D02*
X0030211Y0127391D01*
X0027692Y0124872D01*
X0027692Y0123391D01*
X0031692Y0123391D01*
X0031692Y0122791D01*
X0032292Y0122791D01*
X0032292Y0118791D01*
X0033773Y0118791D01*
X0036292Y0121310D01*
X0036292Y0122791D01*
X0032292Y0122791D01*
X0032292Y0123391D01*
X0031692Y0123391D01*
X0031692Y0127391D01*
X0031692Y0126562D02*
X0032292Y0126562D01*
X0032292Y0125963D02*
X0031692Y0125963D01*
X0031692Y0125365D02*
X0032292Y0125365D01*
X0032292Y0124766D02*
X0031692Y0124766D01*
X0031692Y0124168D02*
X0032292Y0124168D01*
X0032292Y0123569D02*
X0031692Y0123569D01*
X0031692Y0122971D02*
X0003300Y0122971D01*
X0003300Y0123569D02*
X0027692Y0123569D01*
X0027692Y0124168D02*
X0003300Y0124168D01*
X0003300Y0124766D02*
X0027692Y0124766D01*
X0028184Y0125365D02*
X0003300Y0125365D01*
X0003300Y0125963D02*
X0028783Y0125963D01*
X0029382Y0126562D02*
X0003300Y0126562D01*
X0003300Y0127160D02*
X0029980Y0127160D01*
X0030046Y0128956D02*
X0003300Y0128956D01*
X0003300Y0129554D02*
X0029448Y0129554D01*
X0028849Y0130153D02*
X0003300Y0130153D01*
X0003300Y0130751D02*
X0028251Y0130751D01*
X0027692Y0131350D02*
X0003300Y0131350D01*
X0003300Y0131948D02*
X0027692Y0131948D01*
X0027692Y0132547D02*
X0003300Y0132547D01*
X0003300Y0128357D02*
X0128056Y0128357D01*
X0128304Y0127759D02*
X0003300Y0127759D01*
X0003300Y0122372D02*
X0027692Y0122372D01*
X0027692Y0122791D02*
X0027692Y0121310D01*
X0030211Y0118791D01*
X0031692Y0118791D01*
X0031692Y0122791D01*
X0027692Y0122791D01*
X0027692Y0121774D02*
X0003300Y0121774D01*
X0003300Y0121175D02*
X0027827Y0121175D01*
X0028426Y0120577D02*
X0003300Y0120577D01*
X0003300Y0119978D02*
X0029024Y0119978D01*
X0029623Y0119380D02*
X0003300Y0119380D01*
X0003300Y0118781D02*
X0249700Y0118781D01*
X0249700Y0118183D02*
X0003300Y0118183D01*
X0003300Y0117584D02*
X0249700Y0117584D01*
X0249700Y0116986D02*
X0003300Y0116986D01*
X0003300Y0116387D02*
X0249700Y0116387D01*
X0249700Y0115789D02*
X0003300Y0115789D01*
X0003300Y0115190D02*
X0249700Y0115190D01*
X0249700Y0114592D02*
X0003300Y0114592D01*
X0003300Y0113993D02*
X0249700Y0113993D01*
X0249700Y0113395D02*
X0003300Y0113395D01*
X0003300Y0112796D02*
X0249700Y0112796D01*
X0249700Y0112198D02*
X0003300Y0112198D01*
X0003300Y0111599D02*
X0249700Y0111599D01*
X0249700Y0111001D02*
X0003300Y0111001D01*
X0003300Y0110402D02*
X0249700Y0110402D01*
X0249700Y0109804D02*
X0003300Y0109804D01*
X0003300Y0109205D02*
X0249700Y0109205D01*
X0249700Y0108606D02*
X0003300Y0108606D01*
X0003300Y0108008D02*
X0249700Y0108008D01*
X0249700Y0107409D02*
X0003300Y0107409D01*
X0003300Y0106811D02*
X0249700Y0106811D01*
X0249700Y0106212D02*
X0003300Y0106212D01*
X0003300Y0105614D02*
X0249700Y0105614D01*
X0249700Y0105015D02*
X0003300Y0105015D01*
X0003300Y0104417D02*
X0249700Y0104417D01*
X0249700Y0103818D02*
X0003300Y0103818D01*
X0003300Y0103220D02*
X0249700Y0103220D01*
X0249700Y0102621D02*
X0003300Y0102621D01*
X0003300Y0102023D02*
X0249700Y0102023D01*
X0249700Y0101424D02*
X0003300Y0101424D01*
X0003300Y0100826D02*
X0249700Y0100826D01*
X0249700Y0100227D02*
X0003300Y0100227D01*
X0003300Y0099629D02*
X0249700Y0099629D01*
X0249700Y0099030D02*
X0003300Y0099030D01*
X0003300Y0098432D02*
X0249700Y0098432D01*
X0249700Y0097833D02*
X0003300Y0097833D01*
X0003300Y0097235D02*
X0249700Y0097235D01*
X0249700Y0096636D02*
X0003300Y0096636D01*
X0003300Y0096038D02*
X0249700Y0096038D01*
X0249700Y0095439D02*
X0003300Y0095439D01*
X0003300Y0094841D02*
X0249700Y0094841D01*
X0249700Y0094242D02*
X0003300Y0094242D01*
X0003300Y0093644D02*
X0249700Y0093644D01*
X0249700Y0093045D02*
X0003300Y0093045D01*
X0003300Y0092447D02*
X0249700Y0092447D01*
X0249700Y0091848D02*
X0003300Y0091848D01*
X0003300Y0091250D02*
X0249700Y0091250D01*
X0249700Y0090651D02*
X0003300Y0090651D01*
X0003300Y0090053D02*
X0130319Y0090053D01*
X0129556Y0089737D02*
X0131137Y0090391D01*
X0132847Y0090391D01*
X0134428Y0089737D01*
X0135637Y0088527D01*
X0136292Y0086947D01*
X0136292Y0079236D01*
X0135637Y0077656D01*
X0134428Y0076446D01*
X0132847Y0075791D01*
X0131137Y0075791D01*
X0129556Y0076446D01*
X0128347Y0077656D01*
X0127692Y0079236D01*
X0127692Y0086947D01*
X0128347Y0088527D01*
X0129556Y0089737D01*
X0129274Y0089454D02*
X0003300Y0089454D01*
X0003300Y0088856D02*
X0128675Y0088856D01*
X0128235Y0088257D02*
X0003300Y0088257D01*
X0003300Y0087659D02*
X0127987Y0087659D01*
X0127739Y0087060D02*
X0003300Y0087060D01*
X0003300Y0086462D02*
X0127692Y0086462D01*
X0127692Y0085863D02*
X0003300Y0085863D01*
X0003300Y0085265D02*
X0127692Y0085265D01*
X0127692Y0084666D02*
X0003300Y0084666D01*
X0003300Y0084068D02*
X0127692Y0084068D01*
X0127692Y0083469D02*
X0003300Y0083469D01*
X0003300Y0082871D02*
X0127692Y0082871D01*
X0127692Y0082272D02*
X0003300Y0082272D01*
X0003300Y0081673D02*
X0127692Y0081673D01*
X0127692Y0081075D02*
X0003300Y0081075D01*
X0003300Y0080476D02*
X0127692Y0080476D01*
X0127692Y0079878D02*
X0003300Y0079878D01*
X0003300Y0079279D02*
X0127692Y0079279D01*
X0127922Y0078681D02*
X0003300Y0078681D01*
X0003300Y0078082D02*
X0128170Y0078082D01*
X0128518Y0077484D02*
X0003300Y0077484D01*
X0003300Y0076885D02*
X0129117Y0076885D01*
X0129940Y0076287D02*
X0003300Y0076287D01*
X0003300Y0075688D02*
X0249700Y0075688D01*
X0249700Y0075090D02*
X0003300Y0075090D01*
X0003300Y0074491D02*
X0249700Y0074491D01*
X0249700Y0073893D02*
X0003300Y0073893D01*
X0003300Y0073294D02*
X0249700Y0073294D01*
X0249700Y0072696D02*
X0003300Y0072696D01*
X0003300Y0072097D02*
X0249700Y0072097D01*
X0249700Y0071499D02*
X0003300Y0071499D01*
X0003300Y0070900D02*
X0249700Y0070900D01*
X0249700Y0070302D02*
X0003300Y0070302D01*
X0003300Y0069703D02*
X0249700Y0069703D01*
X0249700Y0069105D02*
X0003300Y0069105D01*
X0003300Y0068506D02*
X0249700Y0068506D01*
X0249700Y0067908D02*
X0003300Y0067908D01*
X0003300Y0067309D02*
X0249700Y0067309D01*
X0249700Y0066711D02*
X0003300Y0066711D01*
X0003300Y0066112D02*
X0249700Y0066112D01*
X0249700Y0065514D02*
X0003300Y0065514D01*
X0003300Y0064915D02*
X0249700Y0064915D01*
X0249700Y0064317D02*
X0003300Y0064317D01*
X0003300Y0063718D02*
X0249700Y0063718D01*
X0249700Y0063120D02*
X0003300Y0063120D01*
X0003300Y0062521D02*
X0249700Y0062521D01*
X0249700Y0061923D02*
X0003300Y0061923D01*
X0003300Y0061324D02*
X0249700Y0061324D01*
X0249700Y0060726D02*
X0003300Y0060726D01*
X0003300Y0060127D02*
X0249700Y0060127D01*
X0249700Y0059529D02*
X0003300Y0059529D01*
X0003300Y0058930D02*
X0249700Y0058930D01*
X0249700Y0058332D02*
X0003300Y0058332D01*
X0003300Y0057733D02*
X0249700Y0057733D01*
X0249700Y0057135D02*
X0003300Y0057135D01*
X0003300Y0056536D02*
X0249700Y0056536D01*
X0249700Y0055937D02*
X0003300Y0055937D01*
X0003300Y0055339D02*
X0249700Y0055339D01*
X0249700Y0054740D02*
X0003300Y0054740D01*
X0003300Y0054142D02*
X0249700Y0054142D01*
X0249700Y0053543D02*
X0003300Y0053543D01*
X0003300Y0052945D02*
X0249700Y0052945D01*
X0249700Y0052346D02*
X0003300Y0052346D01*
X0003300Y0051748D02*
X0249700Y0051748D01*
X0249700Y0051149D02*
X0003300Y0051149D01*
X0003300Y0050551D02*
X0249700Y0050551D01*
X0249700Y0049952D02*
X0153907Y0049952D01*
X0154428Y0049737D02*
X0152847Y0050391D01*
X0151137Y0050391D01*
X0149556Y0049737D01*
X0148347Y0048527D01*
X0147692Y0046947D01*
X0147692Y0039236D01*
X0148347Y0037656D01*
X0149556Y0036446D01*
X0151137Y0035791D01*
X0152847Y0035791D01*
X0154428Y0036446D01*
X0155637Y0037656D01*
X0156292Y0039236D01*
X0156292Y0046947D01*
X0155637Y0048527D01*
X0154428Y0049737D01*
X0154811Y0049354D02*
X0249700Y0049354D01*
X0249700Y0048755D02*
X0155409Y0048755D01*
X0155791Y0048157D02*
X0249700Y0048157D01*
X0249700Y0047558D02*
X0156039Y0047558D01*
X0156287Y0046960D02*
X0249700Y0046960D01*
X0249700Y0046361D02*
X0156292Y0046361D01*
X0156292Y0045763D02*
X0249700Y0045763D01*
X0249700Y0045164D02*
X0156292Y0045164D01*
X0156292Y0044566D02*
X0249700Y0044566D01*
X0249700Y0043967D02*
X0156292Y0043967D01*
X0156292Y0043369D02*
X0249700Y0043369D01*
X0249700Y0042770D02*
X0156292Y0042770D01*
X0156292Y0042172D02*
X0249700Y0042172D01*
X0249700Y0041573D02*
X0156292Y0041573D01*
X0156292Y0040975D02*
X0249700Y0040975D01*
X0249700Y0040376D02*
X0156292Y0040376D01*
X0156292Y0039778D02*
X0249700Y0039778D01*
X0249700Y0039179D02*
X0156269Y0039179D01*
X0156021Y0038581D02*
X0249700Y0038581D01*
X0249700Y0037982D02*
X0228017Y0037982D01*
X0227993Y0038023D02*
X0227751Y0038265D01*
X0227455Y0038437D01*
X0227124Y0038525D01*
X0223119Y0038525D01*
X0223119Y0033391D01*
X0228253Y0033391D01*
X0228253Y0037396D01*
X0228164Y0037727D01*
X0227993Y0038023D01*
X0228253Y0037384D02*
X0249700Y0037384D01*
X0249700Y0036785D02*
X0228253Y0036785D01*
X0228253Y0036187D02*
X0249700Y0036187D01*
X0249700Y0035588D02*
X0228253Y0035588D01*
X0228253Y0034990D02*
X0249700Y0034990D01*
X0249700Y0034391D02*
X0228253Y0034391D01*
X0228253Y0033793D02*
X0249700Y0033793D01*
X0249700Y0033194D02*
X0223119Y0033194D01*
X0223119Y0033391D02*
X0223119Y0032791D01*
X0223119Y0027657D01*
X0227124Y0027657D01*
X0227455Y0027746D01*
X0227751Y0027917D01*
X0227993Y0028159D01*
X0228164Y0028456D01*
X0228253Y0028786D01*
X0228253Y0032791D01*
X0223119Y0032791D01*
X0222519Y0032791D01*
X0222519Y0027657D01*
X0218514Y0027657D01*
X0218183Y0027746D01*
X0217887Y0027917D01*
X0217645Y0028159D01*
X0217474Y0028456D01*
X0217385Y0028786D01*
X0217385Y0032791D01*
X0222519Y0032791D01*
X0222519Y0033391D01*
X0217385Y0033391D01*
X0217385Y0037396D01*
X0217474Y0037727D01*
X0217645Y0038023D01*
X0217887Y0038265D01*
X0218183Y0038437D01*
X0218514Y0038525D01*
X0222519Y0038525D01*
X0222519Y0033391D01*
X0223119Y0033391D01*
X0223119Y0033793D02*
X0222519Y0033793D01*
X0222519Y0034391D02*
X0223119Y0034391D01*
X0223119Y0034990D02*
X0222519Y0034990D01*
X0222519Y0035588D02*
X0223119Y0035588D01*
X0223119Y0036187D02*
X0222519Y0036187D01*
X0222519Y0036785D02*
X0223119Y0036785D01*
X0223119Y0037384D02*
X0222519Y0037384D01*
X0222519Y0037982D02*
X0223119Y0037982D01*
X0222519Y0033194D02*
X0206599Y0033194D01*
X0206599Y0032596D02*
X0217385Y0032596D01*
X0217385Y0031997D02*
X0206599Y0031997D01*
X0206599Y0031399D02*
X0217385Y0031399D01*
X0217385Y0030800D02*
X0206599Y0030800D01*
X0206599Y0030202D02*
X0217385Y0030202D01*
X0217385Y0029603D02*
X0206599Y0029603D01*
X0206599Y0029004D02*
X0217385Y0029004D01*
X0217502Y0028406D02*
X0206586Y0028406D01*
X0206599Y0028419D02*
X0206599Y0037764D01*
X0205838Y0038525D01*
X0196493Y0038525D01*
X0195731Y0037764D01*
X0195731Y0028419D01*
X0196493Y0027657D01*
X0205838Y0027657D01*
X0206599Y0028419D01*
X0205988Y0027807D02*
X0218077Y0027807D01*
X0222519Y0027807D02*
X0223119Y0027807D01*
X0223119Y0028406D02*
X0222519Y0028406D01*
X0222519Y0029004D02*
X0223119Y0029004D01*
X0223119Y0029603D02*
X0222519Y0029603D01*
X0222519Y0030202D02*
X0223119Y0030202D01*
X0223119Y0030800D02*
X0222519Y0030800D01*
X0222519Y0031399D02*
X0223119Y0031399D01*
X0223119Y0031997D02*
X0222519Y0031997D01*
X0222519Y0032596D02*
X0223119Y0032596D01*
X0228253Y0032596D02*
X0249700Y0032596D01*
X0249700Y0031997D02*
X0228253Y0031997D01*
X0228253Y0031399D02*
X0249700Y0031399D01*
X0249700Y0030800D02*
X0228253Y0030800D01*
X0228253Y0030202D02*
X0249700Y0030202D01*
X0249700Y0029603D02*
X0228253Y0029603D01*
X0228253Y0029004D02*
X0249700Y0029004D01*
X0249700Y0028406D02*
X0228135Y0028406D01*
X0227561Y0027807D02*
X0249700Y0027807D01*
X0249700Y0027209D02*
X0034690Y0027209D01*
X0034690Y0026639D02*
X0033443Y0023629D01*
X0031139Y0021326D01*
X0028129Y0020079D01*
X0024871Y0020079D01*
X0021861Y0021326D01*
X0019557Y0023629D01*
X0018310Y0026639D01*
X0018310Y0029898D01*
X0019557Y0032908D01*
X0021861Y0035211D01*
X0024871Y0036458D01*
X0028129Y0036458D01*
X0031139Y0035211D01*
X0033443Y0032908D01*
X0034690Y0029898D01*
X0034690Y0026639D01*
X0034678Y0026610D02*
X0249700Y0026610D01*
X0249700Y0026012D02*
X0034430Y0026012D01*
X0034182Y0025413D02*
X0249700Y0025413D01*
X0249700Y0024815D02*
X0033934Y0024815D01*
X0033686Y0024216D02*
X0249700Y0024216D01*
X0249700Y0023618D02*
X0033431Y0023618D01*
X0032833Y0023019D02*
X0249700Y0023019D01*
X0249700Y0022421D02*
X0032234Y0022421D01*
X0031636Y0021822D02*
X0249700Y0021822D01*
X0249700Y0021224D02*
X0030894Y0021224D01*
X0029449Y0020625D02*
X0249700Y0020625D01*
X0249700Y0020027D02*
X0003300Y0020027D01*
X0003300Y0020625D02*
X0023551Y0020625D01*
X0022106Y0021224D02*
X0003300Y0021224D01*
X0003300Y0021822D02*
X0021364Y0021822D01*
X0020766Y0022421D02*
X0003300Y0022421D01*
X0003300Y0023019D02*
X0020167Y0023019D01*
X0019569Y0023618D02*
X0003300Y0023618D01*
X0003300Y0024216D02*
X0019314Y0024216D01*
X0019066Y0024815D02*
X0003300Y0024815D01*
X0003300Y0025413D02*
X0018818Y0025413D01*
X0018570Y0026012D02*
X0003300Y0026012D01*
X0003300Y0026610D02*
X0018322Y0026610D01*
X0018310Y0027209D02*
X0003300Y0027209D01*
X0003300Y0027807D02*
X0018310Y0027807D01*
X0018310Y0028406D02*
X0003300Y0028406D01*
X0003300Y0029004D02*
X0018310Y0029004D01*
X0018310Y0029603D02*
X0003300Y0029603D01*
X0003300Y0030202D02*
X0018436Y0030202D01*
X0018684Y0030800D02*
X0003300Y0030800D01*
X0003300Y0031399D02*
X0018932Y0031399D01*
X0019180Y0031997D02*
X0003300Y0031997D01*
X0003300Y0032596D02*
X0019428Y0032596D01*
X0019843Y0033194D02*
X0003300Y0033194D01*
X0003300Y0033793D02*
X0020442Y0033793D01*
X0021041Y0034391D02*
X0003300Y0034391D01*
X0003300Y0034990D02*
X0021639Y0034990D01*
X0022770Y0035588D02*
X0003300Y0035588D01*
X0003300Y0036187D02*
X0024215Y0036187D01*
X0028785Y0036187D02*
X0130182Y0036187D01*
X0129556Y0036446D02*
X0131137Y0035791D01*
X0132847Y0035791D01*
X0134428Y0036446D01*
X0135637Y0037656D01*
X0136292Y0039236D01*
X0136292Y0046947D01*
X0135637Y0048527D01*
X0134428Y0049737D01*
X0132847Y0050391D01*
X0131137Y0050391D01*
X0129556Y0049737D01*
X0128347Y0048527D01*
X0127692Y0046947D01*
X0127692Y0039236D01*
X0128347Y0037656D01*
X0129556Y0036446D01*
X0129217Y0036785D02*
X0003300Y0036785D01*
X0003300Y0037384D02*
X0128619Y0037384D01*
X0128211Y0037982D02*
X0003300Y0037982D01*
X0003300Y0038581D02*
X0127964Y0038581D01*
X0127716Y0039179D02*
X0003300Y0039179D01*
X0003300Y0039778D02*
X0127692Y0039778D01*
X0127692Y0040376D02*
X0003300Y0040376D01*
X0003300Y0040975D02*
X0127692Y0040975D01*
X0127692Y0041573D02*
X0003300Y0041573D01*
X0003300Y0042172D02*
X0127692Y0042172D01*
X0127692Y0042770D02*
X0003300Y0042770D01*
X0003300Y0043369D02*
X0127692Y0043369D01*
X0127692Y0043967D02*
X0003300Y0043967D01*
X0003300Y0044566D02*
X0127692Y0044566D01*
X0127692Y0045164D02*
X0003300Y0045164D01*
X0003300Y0045763D02*
X0127692Y0045763D01*
X0127692Y0046361D02*
X0003300Y0046361D01*
X0003300Y0046960D02*
X0127698Y0046960D01*
X0127945Y0047558D02*
X0003300Y0047558D01*
X0003300Y0048157D02*
X0128193Y0048157D01*
X0128575Y0048755D02*
X0003300Y0048755D01*
X0003300Y0049354D02*
X0129174Y0049354D01*
X0130077Y0049952D02*
X0003300Y0049952D01*
X0003300Y0019428D02*
X0249700Y0019428D01*
X0249700Y0018830D02*
X0003300Y0018830D01*
X0003300Y0018231D02*
X0249700Y0018231D01*
X0249700Y0017633D02*
X0003300Y0017633D01*
X0003300Y0017034D02*
X0249700Y0017034D01*
X0249700Y0016436D02*
X0003300Y0016436D01*
X0003300Y0015837D02*
X0249700Y0015837D01*
X0249700Y0015239D02*
X0003300Y0015239D01*
X0003300Y0014640D02*
X0249700Y0014640D01*
X0249700Y0014042D02*
X0003300Y0014042D01*
X0003300Y0013443D02*
X0249700Y0013443D01*
X0249700Y0012845D02*
X0003300Y0012845D01*
X0003300Y0012246D02*
X0249700Y0012246D01*
X0249700Y0011648D02*
X0003300Y0011648D01*
X0003300Y0011049D02*
X0249700Y0011049D01*
X0249700Y0010451D02*
X0003300Y0010451D01*
X0003300Y0009852D02*
X0249700Y0009852D01*
X0249700Y0009254D02*
X0003300Y0009254D01*
X0003300Y0008655D02*
X0249700Y0008655D01*
X0249700Y0008057D02*
X0003300Y0008057D01*
X0003300Y0007458D02*
X0249700Y0007458D01*
X0249700Y0006860D02*
X0003300Y0006860D01*
X0003300Y0006261D02*
X0249700Y0006261D01*
X0249700Y0005663D02*
X0003300Y0005663D01*
X0003300Y0005068D02*
X0003300Y0461469D01*
X0249700Y0461469D01*
X0249700Y0005068D01*
X0003300Y0005068D01*
X0030230Y0035588D02*
X0195731Y0035588D01*
X0195731Y0034990D02*
X0031361Y0034990D01*
X0031959Y0034391D02*
X0195731Y0034391D01*
X0195731Y0033793D02*
X0032558Y0033793D01*
X0033156Y0033194D02*
X0195731Y0033194D01*
X0195731Y0032596D02*
X0033572Y0032596D01*
X0033820Y0031997D02*
X0195731Y0031997D01*
X0195731Y0031399D02*
X0034068Y0031399D01*
X0034316Y0030800D02*
X0195731Y0030800D01*
X0195731Y0030202D02*
X0034564Y0030202D01*
X0034690Y0029603D02*
X0195731Y0029603D01*
X0195731Y0029004D02*
X0034690Y0029004D01*
X0034690Y0028406D02*
X0195745Y0028406D01*
X0196343Y0027807D02*
X0034690Y0027807D01*
X0040211Y0118791D02*
X0043773Y0118791D01*
X0046292Y0121310D01*
X0046292Y0124872D01*
X0043773Y0127391D01*
X0040211Y0127391D01*
X0037692Y0124872D01*
X0037692Y0121310D01*
X0040211Y0118791D01*
X0039623Y0119380D02*
X0034362Y0119380D01*
X0034960Y0119978D02*
X0039024Y0119978D01*
X0038426Y0120577D02*
X0035559Y0120577D01*
X0036157Y0121175D02*
X0037827Y0121175D01*
X0037692Y0121774D02*
X0036292Y0121774D01*
X0036292Y0122372D02*
X0037692Y0122372D01*
X0037692Y0122971D02*
X0032292Y0122971D01*
X0032292Y0122372D02*
X0031692Y0122372D01*
X0031692Y0121774D02*
X0032292Y0121774D01*
X0032292Y0121175D02*
X0031692Y0121175D01*
X0031692Y0120577D02*
X0032292Y0120577D01*
X0032292Y0119978D02*
X0031692Y0119978D01*
X0031692Y0119380D02*
X0032292Y0119380D01*
X0036292Y0123569D02*
X0037692Y0123569D01*
X0037692Y0124168D02*
X0036292Y0124168D01*
X0036292Y0124766D02*
X0037692Y0124766D01*
X0038184Y0125365D02*
X0035800Y0125365D01*
X0035201Y0125963D02*
X0038783Y0125963D01*
X0039382Y0126562D02*
X0034603Y0126562D01*
X0034004Y0127160D02*
X0039980Y0127160D01*
X0040046Y0128956D02*
X0033938Y0128956D01*
X0034536Y0129554D02*
X0039448Y0129554D01*
X0038849Y0130153D02*
X0035135Y0130153D01*
X0035733Y0130751D02*
X0038251Y0130751D01*
X0037692Y0131350D02*
X0036292Y0131350D01*
X0036292Y0131948D02*
X0037692Y0131948D01*
X0037692Y0132547D02*
X0036292Y0132547D01*
X0032292Y0139131D02*
X0031692Y0139131D01*
X0031692Y0139729D02*
X0032292Y0139729D01*
X0032292Y0140328D02*
X0031692Y0140328D01*
X0031692Y0140926D02*
X0032292Y0140926D01*
X0032292Y0141525D02*
X0031692Y0141525D01*
X0031692Y0142123D02*
X0032292Y0142123D01*
X0032292Y0143919D02*
X0031692Y0143919D01*
X0031692Y0144517D02*
X0032292Y0144517D01*
X0032292Y0145116D02*
X0031692Y0145116D01*
X0031692Y0145714D02*
X0032292Y0145714D01*
X0032292Y0146313D02*
X0031692Y0146313D01*
X0031692Y0146911D02*
X0032292Y0146911D01*
X0034253Y0146911D02*
X0039731Y0146911D01*
X0039132Y0146313D02*
X0034852Y0146313D01*
X0035450Y0145714D02*
X0038534Y0145714D01*
X0037935Y0145116D02*
X0036049Y0145116D01*
X0036292Y0144517D02*
X0037692Y0144517D01*
X0037692Y0143919D02*
X0036292Y0143919D01*
X0034287Y0149305D02*
X0039697Y0149305D01*
X0039099Y0149904D02*
X0034886Y0149904D01*
X0035484Y0150502D02*
X0038500Y0150502D01*
X0037902Y0151101D02*
X0036083Y0151101D01*
X0036292Y0151699D02*
X0037692Y0151699D01*
X0037692Y0152298D02*
X0036292Y0152298D01*
X0032292Y0151699D02*
X0031692Y0151699D01*
X0031692Y0151101D02*
X0032292Y0151101D01*
X0032292Y0150502D02*
X0031692Y0150502D01*
X0031692Y0149904D02*
X0032292Y0149904D01*
X0032292Y0149305D02*
X0031692Y0149305D01*
X0031692Y0153495D02*
X0032292Y0153495D01*
X0032292Y0154093D02*
X0031692Y0154093D01*
X0031692Y0154692D02*
X0032292Y0154692D01*
X0032292Y0155290D02*
X0031692Y0155290D01*
X0031692Y0155889D02*
X0032292Y0155889D01*
X0032292Y0156487D02*
X0031692Y0156487D01*
X0031692Y0157086D02*
X0032292Y0157086D01*
X0032292Y0158881D02*
X0031692Y0158881D01*
X0031692Y0159480D02*
X0032292Y0159480D01*
X0032292Y0160078D02*
X0031692Y0160078D01*
X0031692Y0160677D02*
X0032292Y0160677D01*
X0032292Y0161275D02*
X0031692Y0161275D01*
X0031692Y0161874D02*
X0032292Y0161874D01*
X0032292Y0163670D02*
X0031692Y0163670D01*
X0031692Y0164268D02*
X0032292Y0164268D01*
X0032292Y0164867D02*
X0031692Y0164867D01*
X0031692Y0165465D02*
X0032292Y0165465D01*
X0032292Y0166064D02*
X0031692Y0166064D01*
X0031692Y0166662D02*
X0032292Y0166662D01*
X0032292Y0167261D02*
X0031692Y0167261D01*
X0033904Y0167261D02*
X0040080Y0167261D01*
X0039482Y0166662D02*
X0034502Y0166662D01*
X0035101Y0166064D02*
X0038883Y0166064D01*
X0038285Y0165465D02*
X0035699Y0165465D01*
X0036292Y0164867D02*
X0037692Y0164867D01*
X0037692Y0164268D02*
X0036292Y0164268D01*
X0036292Y0163670D02*
X0037692Y0163670D01*
X0043904Y0167261D02*
X0249700Y0167261D01*
X0249700Y0166662D02*
X0044502Y0166662D01*
X0045101Y0166064D02*
X0249700Y0166064D01*
X0249700Y0165465D02*
X0045699Y0165465D01*
X0046292Y0164867D02*
X0249700Y0164867D01*
X0249700Y0164268D02*
X0046292Y0164268D01*
X0046292Y0163670D02*
X0249700Y0163670D01*
X0249700Y0163071D02*
X0046292Y0163071D01*
X0046292Y0162473D02*
X0249700Y0162473D01*
X0249700Y0161874D02*
X0046292Y0161874D01*
X0046257Y0161275D02*
X0249700Y0161275D01*
X0249700Y0160677D02*
X0045659Y0160677D01*
X0045060Y0160078D02*
X0249700Y0160078D01*
X0249700Y0159480D02*
X0044462Y0159480D01*
X0043863Y0158881D02*
X0249700Y0158881D01*
X0249700Y0158283D02*
X0003300Y0158283D01*
X0003300Y0158881D02*
X0030121Y0158881D01*
X0029522Y0159480D02*
X0003300Y0159480D01*
X0003300Y0160078D02*
X0028924Y0160078D01*
X0028325Y0160677D02*
X0003300Y0160677D01*
X0003300Y0161275D02*
X0027727Y0161275D01*
X0027692Y0161874D02*
X0003300Y0161874D01*
X0003300Y0148108D02*
X0249700Y0148108D01*
X0249700Y0147510D02*
X0003300Y0147510D01*
X0003300Y0142123D02*
X0027692Y0142123D01*
X0027692Y0141525D02*
X0003300Y0141525D01*
X0003300Y0140926D02*
X0028076Y0140926D01*
X0028675Y0140328D02*
X0003300Y0140328D01*
X0003300Y0139729D02*
X0029273Y0139729D01*
X0029872Y0139131D02*
X0003300Y0139131D01*
X0003300Y0138532D02*
X0128352Y0138532D01*
X0128347Y0138527D02*
X0127692Y0136947D01*
X0127692Y0129236D01*
X0128347Y0127656D01*
X0129556Y0126446D01*
X0131137Y0125791D01*
X0132847Y0125791D01*
X0134428Y0126446D01*
X0135637Y0127656D01*
X0136292Y0129236D01*
X0136292Y0136947D01*
X0135637Y0138527D01*
X0134428Y0139737D01*
X0132847Y0140391D01*
X0131137Y0140391D01*
X0129556Y0139737D01*
X0128347Y0138527D01*
X0128101Y0137934D02*
X0003300Y0137934D01*
X0003300Y0182822D02*
X0015633Y0182822D01*
X0015035Y0183420D02*
X0003300Y0183420D01*
X0003300Y0184019D02*
X0014436Y0184019D01*
X0013838Y0184617D02*
X0003300Y0184617D01*
X0003300Y0185216D02*
X0013239Y0185216D01*
X0012883Y0185814D02*
X0003300Y0185814D01*
X0003300Y0186413D02*
X0012883Y0186413D01*
X0012883Y0187011D02*
X0003300Y0187011D01*
X0003300Y0187610D02*
X0012883Y0187610D01*
X0012883Y0188209D02*
X0003300Y0188209D01*
X0003300Y0188807D02*
X0012883Y0188807D01*
X0012883Y0189406D02*
X0003300Y0189406D01*
X0003300Y0190004D02*
X0012883Y0190004D01*
X0013316Y0190603D02*
X0003300Y0190603D01*
X0003300Y0191201D02*
X0013914Y0191201D01*
X0014513Y0191800D02*
X0003300Y0191800D01*
X0003300Y0192398D02*
X0015111Y0192398D01*
X0015710Y0192997D02*
X0003300Y0192997D01*
X0023682Y0215142D02*
X0031525Y0215142D01*
X0031277Y0215740D02*
X0024840Y0215740D01*
X0025438Y0216339D02*
X0031196Y0216339D01*
X0031196Y0216937D02*
X0026037Y0216937D01*
X0026387Y0217536D02*
X0031196Y0217536D01*
X0031403Y0218134D02*
X0026635Y0218134D01*
X0026883Y0218733D02*
X0031651Y0218733D01*
X0031975Y0219331D02*
X0027065Y0219331D01*
X0027065Y0219930D02*
X0032573Y0219930D01*
X0033349Y0220528D02*
X0027065Y0220528D01*
X0037580Y0220528D02*
X0043349Y0220528D01*
X0043047Y0220403D02*
X0044616Y0221053D01*
X0046314Y0221053D01*
X0047882Y0220403D01*
X0049083Y0219202D01*
X0049733Y0217633D01*
X0049733Y0215935D01*
X0049083Y0214366D01*
X0047882Y0213166D01*
X0046314Y0212516D01*
X0044616Y0212516D01*
X0043047Y0213166D01*
X0041846Y0214366D01*
X0041196Y0215935D01*
X0041196Y0217633D01*
X0041846Y0219202D01*
X0043047Y0220403D01*
X0042573Y0219930D02*
X0038356Y0219930D01*
X0038954Y0219331D02*
X0041975Y0219331D01*
X0041651Y0218733D02*
X0039278Y0218733D01*
X0039526Y0218134D02*
X0041403Y0218134D01*
X0041196Y0217536D02*
X0039733Y0217536D01*
X0039733Y0216937D02*
X0041196Y0216937D01*
X0041196Y0216339D02*
X0039733Y0216339D01*
X0039652Y0215740D02*
X0041277Y0215740D01*
X0041525Y0215142D02*
X0039404Y0215142D01*
X0039156Y0214543D02*
X0041773Y0214543D01*
X0042268Y0213944D02*
X0038661Y0213944D01*
X0038063Y0213346D02*
X0042866Y0213346D01*
X0044056Y0212747D02*
X0036873Y0212747D01*
X0046873Y0212747D02*
X0051746Y0212747D01*
X0051698Y0212775D02*
X0051994Y0212604D01*
X0052325Y0212516D01*
X0055165Y0212516D01*
X0055165Y0216484D01*
X0055765Y0216484D01*
X0055765Y0217084D01*
X0059733Y0217084D01*
X0059733Y0219924D01*
X0059644Y0220255D01*
X0059473Y0220551D01*
X0059231Y0220793D01*
X0058935Y0220964D01*
X0058604Y0221053D01*
X0055765Y0221053D01*
X0055765Y0217084D01*
X0055165Y0217084D01*
X0055165Y0221053D01*
X0052325Y0221053D01*
X0051994Y0220964D01*
X0051698Y0220793D01*
X0051456Y0220551D01*
X0051285Y0220255D01*
X0051196Y0219924D01*
X0051196Y0217084D01*
X0055165Y0217084D01*
X0055165Y0216484D01*
X0051196Y0216484D01*
X0051196Y0213645D01*
X0051285Y0213314D01*
X0051456Y0213018D01*
X0051698Y0212775D01*
X0051276Y0213346D02*
X0048063Y0213346D01*
X0048661Y0213944D02*
X0051196Y0213944D01*
X0051196Y0214543D02*
X0049156Y0214543D01*
X0049404Y0215142D02*
X0051196Y0215142D01*
X0051196Y0215740D02*
X0049652Y0215740D01*
X0049733Y0216339D02*
X0051196Y0216339D01*
X0051196Y0217536D02*
X0049733Y0217536D01*
X0049733Y0216937D02*
X0055165Y0216937D01*
X0055165Y0216339D02*
X0055765Y0216339D01*
X0055765Y0216484D02*
X0055765Y0212516D01*
X0058604Y0212516D01*
X0058935Y0212604D01*
X0059231Y0212775D01*
X0059473Y0213018D01*
X0059644Y0213314D01*
X0059733Y0213645D01*
X0059733Y0216484D01*
X0055765Y0216484D01*
X0055765Y0216937D02*
X0065165Y0216937D01*
X0065165Y0217084D02*
X0065165Y0216484D01*
X0065765Y0216484D01*
X0065765Y0217084D01*
X0069733Y0217084D01*
X0069733Y0219924D01*
X0069644Y0220255D01*
X0069473Y0220551D01*
X0069231Y0220793D01*
X0068935Y0220964D01*
X0068604Y0221053D01*
X0065765Y0221053D01*
X0065765Y0217084D01*
X0065165Y0217084D01*
X0065165Y0221053D01*
X0062325Y0221053D01*
X0061994Y0220964D01*
X0061698Y0220793D01*
X0061456Y0220551D01*
X0061285Y0220255D01*
X0061196Y0219924D01*
X0061196Y0217084D01*
X0065165Y0217084D01*
X0065165Y0217536D02*
X0065765Y0217536D01*
X0065765Y0218134D02*
X0065165Y0218134D01*
X0065165Y0218733D02*
X0065765Y0218733D01*
X0065765Y0219331D02*
X0065165Y0219331D01*
X0065165Y0219930D02*
X0065765Y0219930D01*
X0065765Y0220528D02*
X0065165Y0220528D01*
X0065765Y0216937D02*
X0071196Y0216937D01*
X0071196Y0216339D02*
X0069733Y0216339D01*
X0069733Y0216484D02*
X0065765Y0216484D01*
X0065765Y0212516D01*
X0068604Y0212516D01*
X0068935Y0212604D01*
X0069231Y0212775D01*
X0069473Y0213018D01*
X0069644Y0213314D01*
X0069733Y0213645D01*
X0069733Y0216484D01*
X0069733Y0215740D02*
X0071277Y0215740D01*
X0071525Y0215142D02*
X0069733Y0215142D01*
X0069733Y0214543D02*
X0071773Y0214543D01*
X0072268Y0213944D02*
X0069733Y0213944D01*
X0069653Y0213346D02*
X0072866Y0213346D01*
X0074056Y0212747D02*
X0069183Y0212747D01*
X0069733Y0217536D02*
X0071196Y0217536D01*
X0071403Y0218134D02*
X0069733Y0218134D01*
X0069733Y0218733D02*
X0071651Y0218733D01*
X0071975Y0219331D02*
X0069733Y0219331D01*
X0069732Y0219930D02*
X0072573Y0219930D01*
X0073349Y0220528D02*
X0069487Y0220528D01*
X0065765Y0216339D02*
X0065165Y0216339D01*
X0065165Y0216484D02*
X0065165Y0212516D01*
X0062325Y0212516D01*
X0061994Y0212604D01*
X0061698Y0212775D01*
X0061456Y0213018D01*
X0061285Y0213314D01*
X0061196Y0213645D01*
X0061196Y0216484D01*
X0065165Y0216484D01*
X0065165Y0215740D02*
X0065765Y0215740D01*
X0065765Y0215142D02*
X0065165Y0215142D01*
X0065165Y0214543D02*
X0065765Y0214543D01*
X0065765Y0213944D02*
X0065165Y0213944D01*
X0065165Y0213346D02*
X0065765Y0213346D01*
X0065765Y0212747D02*
X0065165Y0212747D01*
X0061746Y0212747D02*
X0059183Y0212747D01*
X0059653Y0213346D02*
X0061276Y0213346D01*
X0061196Y0213944D02*
X0059733Y0213944D01*
X0059733Y0214543D02*
X0061196Y0214543D01*
X0061196Y0215142D02*
X0059733Y0215142D01*
X0059733Y0215740D02*
X0061196Y0215740D01*
X0061196Y0216339D02*
X0059733Y0216339D01*
X0059733Y0217536D02*
X0061196Y0217536D01*
X0061196Y0218134D02*
X0059733Y0218134D01*
X0059733Y0218733D02*
X0061196Y0218733D01*
X0061196Y0219331D02*
X0059733Y0219331D01*
X0059732Y0219930D02*
X0061198Y0219930D01*
X0061443Y0220528D02*
X0059487Y0220528D01*
X0055765Y0220528D02*
X0055165Y0220528D01*
X0055165Y0219930D02*
X0055765Y0219930D01*
X0055765Y0219331D02*
X0055165Y0219331D01*
X0055165Y0218733D02*
X0055765Y0218733D01*
X0055765Y0218134D02*
X0055165Y0218134D01*
X0055165Y0217536D02*
X0055765Y0217536D01*
X0055765Y0215740D02*
X0055165Y0215740D01*
X0055165Y0215142D02*
X0055765Y0215142D01*
X0055765Y0214543D02*
X0055165Y0214543D01*
X0055165Y0213944D02*
X0055765Y0213944D01*
X0055765Y0213346D02*
X0055165Y0213346D01*
X0055165Y0212747D02*
X0055765Y0212747D01*
X0051196Y0218134D02*
X0049526Y0218134D01*
X0049278Y0218733D02*
X0051196Y0218733D01*
X0051196Y0219331D02*
X0048954Y0219331D01*
X0048356Y0219930D02*
X0051198Y0219930D01*
X0051443Y0220528D02*
X0047580Y0220528D01*
X0071292Y0278537D02*
X0073351Y0277684D01*
X0075578Y0277684D01*
X0077637Y0278537D01*
X0079212Y0280112D01*
X0080065Y0282170D01*
X0080065Y0284398D01*
X0079212Y0286456D01*
X0077637Y0288032D01*
X0075578Y0288884D01*
X0073351Y0288884D01*
X0071292Y0288032D01*
X0069717Y0286456D01*
X0068865Y0284398D01*
X0068865Y0282170D01*
X0069717Y0280112D01*
X0071292Y0278537D01*
X0071246Y0278584D02*
X0003300Y0278584D01*
X0003300Y0279182D02*
X0070647Y0279182D01*
X0070048Y0279781D02*
X0003300Y0279781D01*
X0003300Y0280379D02*
X0069606Y0280379D01*
X0069359Y0280978D02*
X0003300Y0280978D01*
X0003300Y0281576D02*
X0069111Y0281576D01*
X0068865Y0282175D02*
X0003300Y0282175D01*
X0003300Y0282773D02*
X0068865Y0282773D01*
X0068865Y0283372D02*
X0003300Y0283372D01*
X0003300Y0283970D02*
X0068865Y0283970D01*
X0068935Y0284569D02*
X0003300Y0284569D01*
X0003300Y0285167D02*
X0069183Y0285167D01*
X0069431Y0285766D02*
X0003300Y0285766D01*
X0003300Y0286364D02*
X0069679Y0286364D01*
X0070224Y0286963D02*
X0003300Y0286963D01*
X0003300Y0287561D02*
X0070822Y0287561D01*
X0071602Y0288160D02*
X0003300Y0288160D01*
X0003300Y0288758D02*
X0073047Y0288758D01*
X0075882Y0288758D02*
X0128578Y0288758D01*
X0128347Y0288527D02*
X0127692Y0286947D01*
X0127692Y0279236D01*
X0128347Y0277656D01*
X0129556Y0276446D01*
X0131137Y0275791D01*
X0132847Y0275791D01*
X0134428Y0276446D01*
X0135637Y0277656D01*
X0136292Y0279236D01*
X0136292Y0286947D01*
X0135637Y0288527D01*
X0134428Y0289737D01*
X0132847Y0290391D01*
X0131137Y0290391D01*
X0129556Y0289737D01*
X0128347Y0288527D01*
X0128195Y0288160D02*
X0077327Y0288160D01*
X0078107Y0287561D02*
X0127947Y0287561D01*
X0127699Y0286963D02*
X0078706Y0286963D01*
X0079250Y0286364D02*
X0127692Y0286364D01*
X0127692Y0285766D02*
X0079498Y0285766D01*
X0079746Y0285167D02*
X0127692Y0285167D01*
X0127692Y0284569D02*
X0079994Y0284569D01*
X0080065Y0283970D02*
X0127692Y0283970D01*
X0127692Y0283372D02*
X0080065Y0283372D01*
X0080065Y0282773D02*
X0127692Y0282773D01*
X0127692Y0282175D02*
X0080065Y0282175D01*
X0079818Y0281576D02*
X0127692Y0281576D01*
X0127692Y0280978D02*
X0079571Y0280978D01*
X0079323Y0280379D02*
X0127692Y0280379D01*
X0127692Y0279781D02*
X0078881Y0279781D01*
X0078282Y0279182D02*
X0127714Y0279182D01*
X0127962Y0278584D02*
X0077684Y0278584D01*
X0076305Y0277985D02*
X0128210Y0277985D01*
X0128616Y0277387D02*
X0003300Y0277387D01*
X0003300Y0277985D02*
X0072624Y0277985D01*
X0082270Y0307421D02*
X0079955Y0308380D01*
X0078183Y0310153D01*
X0077224Y0312468D01*
X0077224Y0324974D01*
X0078183Y0327290D01*
X0079955Y0329062D01*
X0082270Y0330021D01*
X0084777Y0330021D01*
X0087092Y0329062D01*
X0088864Y0327290D01*
X0089824Y0324974D01*
X0089824Y0312468D01*
X0088864Y0310153D01*
X0087092Y0308380D01*
X0084777Y0307421D01*
X0082270Y0307421D01*
X0081089Y0307911D02*
X0043959Y0307911D01*
X0045092Y0308380D02*
X0046864Y0310153D01*
X0047824Y0312468D01*
X0047824Y0324974D01*
X0046864Y0327290D01*
X0045092Y0329062D01*
X0042777Y0330021D01*
X0040270Y0330021D01*
X0037955Y0329062D01*
X0036183Y0327290D01*
X0035224Y0324974D01*
X0035224Y0312468D01*
X0036183Y0310153D01*
X0037955Y0308380D01*
X0040270Y0307421D01*
X0042777Y0307421D01*
X0045092Y0308380D01*
X0045221Y0308509D02*
X0079826Y0308509D01*
X0079228Y0309108D02*
X0045820Y0309108D01*
X0046418Y0309706D02*
X0078629Y0309706D01*
X0078120Y0310305D02*
X0046928Y0310305D01*
X0047175Y0310903D02*
X0077872Y0310903D01*
X0077624Y0311502D02*
X0047423Y0311502D01*
X0047671Y0312100D02*
X0077376Y0312100D01*
X0077224Y0312699D02*
X0047824Y0312699D01*
X0047824Y0313297D02*
X0077224Y0313297D01*
X0077224Y0313896D02*
X0047824Y0313896D01*
X0047824Y0314494D02*
X0077224Y0314494D01*
X0077224Y0315093D02*
X0047824Y0315093D01*
X0047824Y0315691D02*
X0077224Y0315691D01*
X0077224Y0316290D02*
X0047824Y0316290D01*
X0047824Y0316888D02*
X0077224Y0316888D01*
X0077224Y0317487D02*
X0047824Y0317487D01*
X0047824Y0318085D02*
X0077224Y0318085D01*
X0077224Y0318684D02*
X0047824Y0318684D01*
X0047824Y0319282D02*
X0077224Y0319282D01*
X0077224Y0319881D02*
X0047824Y0319881D01*
X0047824Y0320480D02*
X0077224Y0320480D01*
X0077224Y0321078D02*
X0047824Y0321078D01*
X0047824Y0321677D02*
X0077224Y0321677D01*
X0077224Y0322275D02*
X0047824Y0322275D01*
X0047824Y0322874D02*
X0077224Y0322874D01*
X0077224Y0323472D02*
X0047824Y0323472D01*
X0047824Y0324071D02*
X0077224Y0324071D01*
X0077224Y0324669D02*
X0047824Y0324669D01*
X0047702Y0325268D02*
X0077345Y0325268D01*
X0077593Y0325866D02*
X0047454Y0325866D01*
X0047206Y0326465D02*
X0077841Y0326465D01*
X0078089Y0327063D02*
X0046958Y0327063D01*
X0046493Y0327662D02*
X0078554Y0327662D01*
X0079153Y0328260D02*
X0045894Y0328260D01*
X0045296Y0328859D02*
X0079751Y0328859D01*
X0080909Y0329457D02*
X0044139Y0329457D01*
X0038909Y0329457D02*
X0027977Y0329457D01*
X0027977Y0328859D02*
X0037751Y0328859D01*
X0037153Y0328260D02*
X0027977Y0328260D01*
X0027977Y0327662D02*
X0036554Y0327662D01*
X0036089Y0327063D02*
X0027977Y0327063D01*
X0027977Y0326465D02*
X0035841Y0326465D01*
X0035593Y0325866D02*
X0027977Y0325866D01*
X0027977Y0325268D02*
X0035345Y0325268D01*
X0035224Y0324669D02*
X0027977Y0324669D01*
X0027977Y0324071D02*
X0035224Y0324071D01*
X0035224Y0323472D02*
X0027977Y0323472D01*
X0027977Y0322874D02*
X0035224Y0322874D01*
X0035224Y0322275D02*
X0027977Y0322275D01*
X0027977Y0321677D02*
X0035224Y0321677D01*
X0035224Y0321078D02*
X0027977Y0321078D01*
X0027977Y0320480D02*
X0035224Y0320480D01*
X0035224Y0319881D02*
X0027977Y0319881D01*
X0027977Y0319282D02*
X0035224Y0319282D01*
X0035224Y0318684D02*
X0027977Y0318684D01*
X0027977Y0318085D02*
X0035224Y0318085D01*
X0035224Y0317487D02*
X0027921Y0317487D01*
X0027824Y0316888D02*
X0035224Y0316888D01*
X0035224Y0316290D02*
X0027824Y0316290D01*
X0027824Y0315691D02*
X0035224Y0315691D01*
X0035224Y0315093D02*
X0027824Y0315093D01*
X0027824Y0314494D02*
X0035224Y0314494D01*
X0035224Y0313896D02*
X0027824Y0313896D01*
X0027824Y0313297D02*
X0035224Y0313297D01*
X0035224Y0312699D02*
X0027824Y0312699D01*
X0027671Y0312100D02*
X0035376Y0312100D01*
X0035624Y0311502D02*
X0027423Y0311502D01*
X0027175Y0310903D02*
X0035872Y0310903D01*
X0036120Y0310305D02*
X0026928Y0310305D01*
X0026418Y0309706D02*
X0036629Y0309706D01*
X0037228Y0309108D02*
X0025820Y0309108D01*
X0025221Y0308509D02*
X0037826Y0308509D01*
X0039089Y0307911D02*
X0023959Y0307911D01*
X0027977Y0330056D02*
X0127692Y0330056D01*
X0127692Y0330654D02*
X0027977Y0330654D01*
X0027977Y0331253D02*
X0127692Y0331253D01*
X0127692Y0331851D02*
X0027977Y0331851D01*
X0027977Y0332450D02*
X0127692Y0332450D01*
X0127692Y0333048D02*
X0027977Y0333048D01*
X0027977Y0333647D02*
X0127692Y0333647D01*
X0127692Y0334245D02*
X0027977Y0334245D01*
X0027977Y0334844D02*
X0127692Y0334844D01*
X0127692Y0335442D02*
X0027977Y0335442D01*
X0027977Y0336041D02*
X0127692Y0336041D01*
X0127692Y0336639D02*
X0027977Y0336639D01*
X0027977Y0337238D02*
X0127813Y0337238D01*
X0127692Y0336947D02*
X0127692Y0329236D01*
X0128347Y0327656D01*
X0129556Y0326446D01*
X0131137Y0325791D01*
X0132847Y0325791D01*
X0134428Y0326446D01*
X0135637Y0327656D01*
X0136292Y0329236D01*
X0136292Y0336947D01*
X0135637Y0338527D01*
X0134428Y0339737D01*
X0132847Y0340391D01*
X0131137Y0340391D01*
X0129556Y0339737D01*
X0128347Y0338527D01*
X0127692Y0336947D01*
X0128061Y0337836D02*
X0027977Y0337836D01*
X0027977Y0338435D02*
X0128309Y0338435D01*
X0128853Y0339033D02*
X0027977Y0339033D01*
X0027977Y0339632D02*
X0129452Y0339632D01*
X0130748Y0340230D02*
X0027977Y0340230D01*
X0027977Y0340829D02*
X0249700Y0340829D01*
X0249700Y0341427D02*
X0027977Y0341427D01*
X0027977Y0342026D02*
X0249700Y0342026D01*
X0249700Y0342624D02*
X0027977Y0342624D01*
X0027977Y0343223D02*
X0249700Y0343223D01*
X0249700Y0343821D02*
X0027977Y0343821D01*
X0027977Y0344420D02*
X0249700Y0344420D01*
X0249700Y0345018D02*
X0027977Y0345018D01*
X0027977Y0345617D02*
X0249700Y0345617D01*
X0249700Y0346215D02*
X0028239Y0346215D01*
X0028754Y0346814D02*
X0249700Y0346814D01*
X0249700Y0347413D02*
X0029269Y0347413D01*
X0029784Y0348011D02*
X0249700Y0348011D01*
X0249700Y0348610D02*
X0030299Y0348610D01*
X0030814Y0349208D02*
X0249700Y0349208D01*
X0249700Y0349807D02*
X0031329Y0349807D01*
X0031844Y0350405D02*
X0249700Y0350405D01*
X0249700Y0351004D02*
X0032359Y0351004D01*
X0032874Y0351602D02*
X0249700Y0351602D01*
X0249700Y0352201D02*
X0033389Y0352201D01*
X0033904Y0352799D02*
X0249700Y0352799D01*
X0249700Y0353398D02*
X0034419Y0353398D01*
X0034934Y0353996D02*
X0249700Y0353996D01*
X0249700Y0354595D02*
X0050422Y0354595D01*
X0049699Y0354295D02*
X0051463Y0355026D01*
X0052813Y0356376D01*
X0053544Y0358140D01*
X0053544Y0360050D01*
X0052813Y0361814D01*
X0051463Y0363165D01*
X0049699Y0363895D01*
X0047789Y0363895D01*
X0046025Y0363165D01*
X0044675Y0361814D01*
X0043944Y0360050D01*
X0043944Y0358140D01*
X0044675Y0356376D01*
X0046025Y0355026D01*
X0047789Y0354295D01*
X0049699Y0354295D01*
X0051630Y0355193D02*
X0249700Y0355193D01*
X0249700Y0355792D02*
X0052229Y0355792D01*
X0052819Y0356390D02*
X0249700Y0356390D01*
X0249700Y0356989D02*
X0053067Y0356989D01*
X0053315Y0357587D02*
X0249700Y0357587D01*
X0249700Y0358186D02*
X0053544Y0358186D01*
X0053544Y0358784D02*
X0249700Y0358784D01*
X0249700Y0359383D02*
X0053544Y0359383D01*
X0053544Y0359981D02*
X0249700Y0359981D01*
X0249700Y0360580D02*
X0053325Y0360580D01*
X0053077Y0361178D02*
X0249700Y0361178D01*
X0249700Y0361777D02*
X0052829Y0361777D01*
X0052252Y0362375D02*
X0249700Y0362375D01*
X0249700Y0362974D02*
X0051654Y0362974D01*
X0050479Y0363572D02*
X0249700Y0363572D01*
X0249700Y0364171D02*
X0043689Y0364171D01*
X0044204Y0364769D02*
X0249700Y0364769D01*
X0249700Y0365368D02*
X0044827Y0365368D01*
X0045505Y0365966D02*
X0130714Y0365966D01*
X0131137Y0365791D02*
X0132847Y0365791D01*
X0134428Y0366446D01*
X0135637Y0367656D01*
X0136292Y0369236D01*
X0136292Y0376947D01*
X0135637Y0378527D01*
X0134428Y0379737D01*
X0132847Y0380391D01*
X0131137Y0380391D01*
X0129556Y0379737D01*
X0128347Y0378527D01*
X0127692Y0376947D01*
X0127692Y0369236D01*
X0128347Y0367656D01*
X0129556Y0366446D01*
X0131137Y0365791D01*
X0129437Y0366565D02*
X0046183Y0366565D01*
X0046861Y0367163D02*
X0128839Y0367163D01*
X0128303Y0367762D02*
X0047540Y0367762D01*
X0048218Y0368360D02*
X0128055Y0368360D01*
X0127807Y0368959D02*
X0048896Y0368959D01*
X0049575Y0369557D02*
X0127692Y0369557D01*
X0127692Y0370156D02*
X0050314Y0370156D01*
X0051759Y0370754D02*
X0127692Y0370754D01*
X0127692Y0371353D02*
X0052765Y0371353D01*
X0053363Y0371951D02*
X0127692Y0371951D01*
X0127692Y0372550D02*
X0053962Y0372550D01*
X0054920Y0373148D02*
X0127692Y0373148D01*
X0127692Y0373747D02*
X0056078Y0373747D01*
X0057235Y0374346D02*
X0127692Y0374346D01*
X0127692Y0374944D02*
X0058392Y0374944D01*
X0059549Y0375543D02*
X0127692Y0375543D01*
X0127692Y0376141D02*
X0060706Y0376141D01*
X0061863Y0376740D02*
X0127692Y0376740D01*
X0127854Y0377338D02*
X0063020Y0377338D01*
X0047010Y0363572D02*
X0043174Y0363572D01*
X0042659Y0362974D02*
X0045834Y0362974D01*
X0045236Y0362375D02*
X0042144Y0362375D01*
X0041629Y0361777D02*
X0044659Y0361777D01*
X0044411Y0361178D02*
X0041114Y0361178D01*
X0040599Y0360580D02*
X0044164Y0360580D01*
X0043944Y0359981D02*
X0040084Y0359981D01*
X0039569Y0359383D02*
X0043944Y0359383D01*
X0043944Y0358784D02*
X0039054Y0358784D01*
X0038539Y0358186D02*
X0043944Y0358186D01*
X0044173Y0357587D02*
X0038024Y0357587D01*
X0037509Y0356989D02*
X0044421Y0356989D01*
X0044669Y0356390D02*
X0036994Y0356390D01*
X0036479Y0355792D02*
X0045259Y0355792D01*
X0045858Y0355193D02*
X0035964Y0355193D01*
X0035449Y0354595D02*
X0047067Y0354595D01*
X0045523Y0395892D02*
X0003300Y0395892D01*
X0003300Y0396490D02*
X0044637Y0396490D01*
X0043987Y0397089D02*
X0003300Y0397089D01*
X0003300Y0397687D02*
X0043487Y0397687D01*
X0043091Y0398286D02*
X0003300Y0398286D01*
X0003300Y0398884D02*
X0042777Y0398884D01*
X0042529Y0399483D02*
X0003300Y0399483D01*
X0003300Y0400082D02*
X0042369Y0400082D01*
X0042258Y0400680D02*
X0003300Y0400680D01*
X0003300Y0408461D02*
X0128013Y0408461D01*
X0127765Y0409059D02*
X0003300Y0409059D01*
X0003300Y0409658D02*
X0127692Y0409658D01*
X0127692Y0410256D02*
X0003300Y0410256D01*
X0003300Y0410855D02*
X0127692Y0410855D01*
X0127692Y0411453D02*
X0003300Y0411453D01*
X0003300Y0412052D02*
X0127692Y0412052D01*
X0127692Y0412650D02*
X0003300Y0412650D01*
X0003300Y0413249D02*
X0127692Y0413249D01*
X0127692Y0413847D02*
X0003300Y0413847D01*
X0003300Y0414446D02*
X0127692Y0414446D01*
X0127692Y0415044D02*
X0003300Y0415044D01*
X0003300Y0415643D02*
X0127692Y0415643D01*
X0127692Y0416241D02*
X0003300Y0416241D01*
X0003300Y0416840D02*
X0127692Y0416840D01*
X0127896Y0417438D02*
X0003300Y0417438D01*
X0003300Y0418037D02*
X0128144Y0418037D01*
X0128455Y0418635D02*
X0003300Y0418635D01*
X0003300Y0419234D02*
X0129054Y0419234D01*
X0129787Y0419832D02*
X0003300Y0419832D01*
X0003300Y0420431D02*
X0249700Y0420431D01*
X0249700Y0421029D02*
X0003300Y0421029D01*
X0003300Y0421628D02*
X0249700Y0421628D01*
X0249700Y0422226D02*
X0003300Y0422226D01*
X0003300Y0422825D02*
X0249700Y0422825D01*
X0249700Y0423423D02*
X0107393Y0423423D01*
X0107275Y0423306D02*
X0108037Y0424068D01*
X0108037Y0432745D01*
X0107275Y0433506D01*
X0098599Y0433506D01*
X0097837Y0432745D01*
X0097837Y0424068D01*
X0098599Y0423306D01*
X0107275Y0423306D01*
X0107991Y0424022D02*
X0249700Y0424022D01*
X0249700Y0424620D02*
X0108037Y0424620D01*
X0108037Y0425219D02*
X0249700Y0425219D01*
X0249700Y0425817D02*
X0108037Y0425817D01*
X0108037Y0426416D02*
X0249700Y0426416D01*
X0249700Y0427015D02*
X0108037Y0427015D01*
X0108037Y0427613D02*
X0249700Y0427613D01*
X0249700Y0428212D02*
X0228023Y0428212D01*
X0227993Y0428159D02*
X0228164Y0428456D01*
X0228253Y0428786D01*
X0228253Y0432791D01*
X0223119Y0432791D01*
X0223119Y0427657D01*
X0227124Y0427657D01*
X0227455Y0427746D01*
X0227751Y0427917D01*
X0227993Y0428159D01*
X0228253Y0428810D02*
X0249700Y0428810D01*
X0249700Y0429409D02*
X0228253Y0429409D01*
X0228253Y0430007D02*
X0249700Y0430007D01*
X0249700Y0430606D02*
X0228253Y0430606D01*
X0228253Y0431204D02*
X0249700Y0431204D01*
X0249700Y0431803D02*
X0228253Y0431803D01*
X0228253Y0432401D02*
X0249700Y0432401D01*
X0249700Y0433000D02*
X0223119Y0433000D01*
X0223119Y0432791D02*
X0223119Y0433391D01*
X0228253Y0433391D01*
X0228253Y0437396D01*
X0228164Y0437727D01*
X0227993Y0438023D01*
X0227751Y0438265D01*
X0227455Y0438437D01*
X0227124Y0438525D01*
X0223119Y0438525D01*
X0223119Y0433391D01*
X0222519Y0433391D01*
X0222519Y0432791D01*
X0223119Y0432791D01*
X0223119Y0432401D02*
X0222519Y0432401D01*
X0222519Y0432791D02*
X0222519Y0427657D01*
X0218514Y0427657D01*
X0218183Y0427746D01*
X0217887Y0427917D01*
X0217645Y0428159D01*
X0217474Y0428456D01*
X0217385Y0428786D01*
X0217385Y0432791D01*
X0222519Y0432791D01*
X0222519Y0433000D02*
X0206599Y0433000D01*
X0206599Y0433598D02*
X0217385Y0433598D01*
X0217385Y0433391D02*
X0222519Y0433391D01*
X0222519Y0438525D01*
X0218514Y0438525D01*
X0218183Y0438437D01*
X0217887Y0438265D01*
X0217645Y0438023D01*
X0217474Y0437727D01*
X0217385Y0437396D01*
X0217385Y0433391D01*
X0217385Y0434197D02*
X0206599Y0434197D01*
X0206599Y0434795D02*
X0217385Y0434795D01*
X0217385Y0435394D02*
X0206599Y0435394D01*
X0206599Y0435992D02*
X0217385Y0435992D01*
X0217385Y0436591D02*
X0206599Y0436591D01*
X0206599Y0437189D02*
X0217385Y0437189D01*
X0217509Y0437788D02*
X0206575Y0437788D01*
X0206599Y0437764D02*
X0205838Y0438525D01*
X0196493Y0438525D01*
X0195731Y0437764D01*
X0195731Y0428419D01*
X0196493Y0427657D01*
X0205838Y0427657D01*
X0206599Y0428419D01*
X0206599Y0437764D01*
X0205977Y0438386D02*
X0218096Y0438386D01*
X0222519Y0438386D02*
X0223119Y0438386D01*
X0223119Y0437788D02*
X0222519Y0437788D01*
X0222519Y0437189D02*
X0223119Y0437189D01*
X0223119Y0436591D02*
X0222519Y0436591D01*
X0222519Y0435992D02*
X0223119Y0435992D01*
X0223119Y0435394D02*
X0222519Y0435394D01*
X0222519Y0434795D02*
X0223119Y0434795D01*
X0223119Y0434197D02*
X0222519Y0434197D01*
X0222519Y0433598D02*
X0223119Y0433598D01*
X0223119Y0431803D02*
X0222519Y0431803D01*
X0222519Y0431204D02*
X0223119Y0431204D01*
X0223119Y0430606D02*
X0222519Y0430606D01*
X0222519Y0430007D02*
X0223119Y0430007D01*
X0223119Y0429409D02*
X0222519Y0429409D01*
X0222519Y0428810D02*
X0223119Y0428810D01*
X0223119Y0428212D02*
X0222519Y0428212D01*
X0217615Y0428212D02*
X0206392Y0428212D01*
X0206599Y0428810D02*
X0217385Y0428810D01*
X0217385Y0429409D02*
X0206599Y0429409D01*
X0206599Y0430007D02*
X0217385Y0430007D01*
X0217385Y0430606D02*
X0206599Y0430606D01*
X0206599Y0431204D02*
X0217385Y0431204D01*
X0217385Y0431803D02*
X0206599Y0431803D01*
X0206599Y0432401D02*
X0217385Y0432401D01*
X0228253Y0433598D02*
X0249700Y0433598D01*
X0249700Y0434197D02*
X0228253Y0434197D01*
X0228253Y0434795D02*
X0249700Y0434795D01*
X0249700Y0435394D02*
X0228253Y0435394D01*
X0228253Y0435992D02*
X0249700Y0435992D01*
X0249700Y0436591D02*
X0228253Y0436591D01*
X0228253Y0437189D02*
X0249700Y0437189D01*
X0249700Y0437788D02*
X0228129Y0437788D01*
X0227542Y0438386D02*
X0249700Y0438386D01*
X0249700Y0438985D02*
X0149690Y0438985D01*
X0149690Y0439583D02*
X0249700Y0439583D01*
X0249700Y0440182D02*
X0149572Y0440182D01*
X0149690Y0439898D02*
X0148443Y0442908D01*
X0146139Y0445211D01*
X0143129Y0446458D01*
X0139871Y0446458D01*
X0136861Y0445211D01*
X0134557Y0442908D01*
X0133310Y0439898D01*
X0133310Y0436639D01*
X0134557Y0433629D01*
X0136861Y0431326D01*
X0139871Y0430079D01*
X0143129Y0430079D01*
X0146139Y0431326D01*
X0148443Y0433629D01*
X0149690Y0436639D01*
X0149690Y0439898D01*
X0149324Y0440780D02*
X0249700Y0440780D01*
X0249700Y0441379D02*
X0149076Y0441379D01*
X0148828Y0441977D02*
X0249700Y0441977D01*
X0249700Y0442576D02*
X0148580Y0442576D01*
X0148176Y0443174D02*
X0249700Y0443174D01*
X0249700Y0443773D02*
X0147578Y0443773D01*
X0146979Y0444371D02*
X0249700Y0444371D01*
X0249700Y0444970D02*
X0146381Y0444970D01*
X0145277Y0445568D02*
X0249700Y0445568D01*
X0249700Y0446167D02*
X0143832Y0446167D01*
X0139168Y0446167D02*
X0028832Y0446167D01*
X0028129Y0446458D02*
X0024871Y0446458D01*
X0021861Y0445211D01*
X0019557Y0442908D01*
X0018310Y0439898D01*
X0018310Y0436639D01*
X0019557Y0433629D01*
X0021861Y0431326D01*
X0024871Y0430079D01*
X0028129Y0430079D01*
X0031139Y0431326D01*
X0033443Y0433629D01*
X0034690Y0436639D01*
X0034690Y0439898D01*
X0033443Y0442908D01*
X0031139Y0445211D01*
X0028129Y0446458D01*
X0030277Y0445568D02*
X0137723Y0445568D01*
X0136619Y0444970D02*
X0031381Y0444970D01*
X0031979Y0444371D02*
X0136021Y0444371D01*
X0135422Y0443773D02*
X0032578Y0443773D01*
X0033176Y0443174D02*
X0134824Y0443174D01*
X0134420Y0442576D02*
X0033580Y0442576D01*
X0033828Y0441977D02*
X0134172Y0441977D01*
X0133924Y0441379D02*
X0034076Y0441379D01*
X0034324Y0440780D02*
X0133676Y0440780D01*
X0133428Y0440182D02*
X0034572Y0440182D01*
X0034690Y0439583D02*
X0133310Y0439583D01*
X0133310Y0438985D02*
X0034690Y0438985D01*
X0034690Y0438386D02*
X0133310Y0438386D01*
X0133310Y0437788D02*
X0034690Y0437788D01*
X0034690Y0437189D02*
X0133310Y0437189D01*
X0133330Y0436591D02*
X0034670Y0436591D01*
X0034422Y0435992D02*
X0133578Y0435992D01*
X0133826Y0435394D02*
X0034174Y0435394D01*
X0033926Y0434795D02*
X0134074Y0434795D01*
X0134322Y0434197D02*
X0033678Y0434197D01*
X0033412Y0433598D02*
X0134588Y0433598D01*
X0135187Y0433000D02*
X0107782Y0433000D01*
X0108037Y0432401D02*
X0135785Y0432401D01*
X0136384Y0431803D02*
X0108037Y0431803D01*
X0108037Y0431204D02*
X0137154Y0431204D01*
X0138599Y0430606D02*
X0108037Y0430606D01*
X0108037Y0430007D02*
X0195731Y0430007D01*
X0195731Y0429409D02*
X0108037Y0429409D01*
X0108037Y0428810D02*
X0195731Y0428810D01*
X0195939Y0428212D02*
X0108037Y0428212D01*
X0097837Y0428212D02*
X0083552Y0428212D01*
X0083552Y0428106D02*
X0083552Y0428706D01*
X0088352Y0428706D01*
X0088352Y0428808D01*
X0088226Y0429601D01*
X0087978Y0430364D01*
X0087614Y0431079D01*
X0087142Y0431729D01*
X0086574Y0432296D01*
X0085925Y0432768D01*
X0085210Y0433133D01*
X0084446Y0433381D01*
X0083653Y0433506D01*
X0083552Y0433506D01*
X0083552Y0428706D01*
X0082952Y0428706D01*
X0082952Y0428106D01*
X0083552Y0428106D01*
X0083552Y0423306D01*
X0083653Y0423306D01*
X0084446Y0423432D01*
X0085210Y0423680D01*
X0085925Y0424044D01*
X0086574Y0424516D01*
X0087142Y0425084D01*
X0087614Y0425733D01*
X0087978Y0426449D01*
X0088226Y0427212D01*
X0088352Y0428005D01*
X0088352Y0428106D01*
X0083552Y0428106D01*
X0083552Y0427613D02*
X0082952Y0427613D01*
X0082952Y0428106D02*
X0082952Y0423306D01*
X0082851Y0423306D01*
X0082058Y0423432D01*
X0081294Y0423680D01*
X0080579Y0424044D01*
X0079930Y0424516D01*
X0079362Y0425084D01*
X0078890Y0425733D01*
X0078526Y0426449D01*
X0078278Y0427212D01*
X0078152Y0428005D01*
X0078152Y0428106D01*
X0082952Y0428106D01*
X0082952Y0428212D02*
X0003300Y0428212D01*
X0003300Y0428810D02*
X0078152Y0428810D01*
X0078152Y0428808D02*
X0078152Y0428706D01*
X0082952Y0428706D01*
X0082952Y0433506D01*
X0082851Y0433506D01*
X0082058Y0433381D01*
X0081294Y0433133D01*
X0080579Y0432768D01*
X0079930Y0432296D01*
X0079362Y0431729D01*
X0078890Y0431079D01*
X0078526Y0430364D01*
X0078278Y0429601D01*
X0078152Y0428808D01*
X0078247Y0429409D02*
X0003300Y0429409D01*
X0003300Y0430007D02*
X0078410Y0430007D01*
X0078649Y0430606D02*
X0029401Y0430606D01*
X0030846Y0431204D02*
X0078981Y0431204D01*
X0079436Y0431803D02*
X0031616Y0431803D01*
X0032215Y0432401D02*
X0080074Y0432401D01*
X0081033Y0433000D02*
X0032813Y0433000D01*
X0023599Y0430606D02*
X0003300Y0430606D01*
X0003300Y0431204D02*
X0022154Y0431204D01*
X0021384Y0431803D02*
X0003300Y0431803D01*
X0003300Y0432401D02*
X0020785Y0432401D01*
X0020187Y0433000D02*
X0003300Y0433000D01*
X0003300Y0433598D02*
X0019588Y0433598D01*
X0019322Y0434197D02*
X0003300Y0434197D01*
X0003300Y0434795D02*
X0019074Y0434795D01*
X0018826Y0435394D02*
X0003300Y0435394D01*
X0003300Y0435992D02*
X0018578Y0435992D01*
X0018330Y0436591D02*
X0003300Y0436591D01*
X0003300Y0437189D02*
X0018310Y0437189D01*
X0018310Y0437788D02*
X0003300Y0437788D01*
X0003300Y0438386D02*
X0018310Y0438386D01*
X0018310Y0438985D02*
X0003300Y0438985D01*
X0003300Y0439583D02*
X0018310Y0439583D01*
X0018428Y0440182D02*
X0003300Y0440182D01*
X0003300Y0440780D02*
X0018676Y0440780D01*
X0018924Y0441379D02*
X0003300Y0441379D01*
X0003300Y0441977D02*
X0019172Y0441977D01*
X0019420Y0442576D02*
X0003300Y0442576D01*
X0003300Y0443174D02*
X0019824Y0443174D01*
X0020422Y0443773D02*
X0003300Y0443773D01*
X0003300Y0444371D02*
X0021021Y0444371D01*
X0021619Y0444970D02*
X0003300Y0444970D01*
X0003300Y0445568D02*
X0022723Y0445568D01*
X0024168Y0446167D02*
X0003300Y0446167D01*
X0003300Y0446765D02*
X0249700Y0446765D01*
X0249700Y0447364D02*
X0003300Y0447364D01*
X0003300Y0447962D02*
X0249700Y0447962D01*
X0249700Y0448561D02*
X0003300Y0448561D01*
X0003300Y0449159D02*
X0249700Y0449159D01*
X0249700Y0449758D02*
X0003300Y0449758D01*
X0003300Y0450356D02*
X0249700Y0450356D01*
X0249700Y0450955D02*
X0003300Y0450955D01*
X0003300Y0451553D02*
X0249700Y0451553D01*
X0249700Y0452152D02*
X0003300Y0452152D01*
X0003300Y0452751D02*
X0249700Y0452751D01*
X0249700Y0453349D02*
X0003300Y0453349D01*
X0003300Y0453948D02*
X0249700Y0453948D01*
X0249700Y0454546D02*
X0003300Y0454546D01*
X0003300Y0455145D02*
X0249700Y0455145D01*
X0249700Y0455743D02*
X0003300Y0455743D01*
X0003300Y0456342D02*
X0249700Y0456342D01*
X0249700Y0456940D02*
X0003300Y0456940D01*
X0003300Y0457539D02*
X0249700Y0457539D01*
X0249700Y0458137D02*
X0003300Y0458137D01*
X0003300Y0458736D02*
X0249700Y0458736D01*
X0249700Y0459334D02*
X0003300Y0459334D01*
X0003300Y0459933D02*
X0249700Y0459933D01*
X0249700Y0460531D02*
X0003300Y0460531D01*
X0003300Y0461130D02*
X0249700Y0461130D01*
X0249700Y0419832D02*
X0154197Y0419832D01*
X0154428Y0419737D02*
X0152847Y0420391D01*
X0151137Y0420391D01*
X0149556Y0419737D01*
X0148347Y0418527D01*
X0147692Y0416947D01*
X0147692Y0409236D01*
X0148347Y0407656D01*
X0149556Y0406446D01*
X0151137Y0405791D01*
X0152847Y0405791D01*
X0154428Y0406446D01*
X0155637Y0407656D01*
X0156292Y0409236D01*
X0156292Y0416947D01*
X0155637Y0418527D01*
X0154428Y0419737D01*
X0154931Y0419234D02*
X0249700Y0419234D01*
X0249700Y0418635D02*
X0155529Y0418635D01*
X0155841Y0418037D02*
X0249700Y0418037D01*
X0249700Y0417438D02*
X0156088Y0417438D01*
X0156292Y0416840D02*
X0249700Y0416840D01*
X0249700Y0416241D02*
X0156292Y0416241D01*
X0156292Y0415643D02*
X0249700Y0415643D01*
X0249700Y0415044D02*
X0156292Y0415044D01*
X0156292Y0414446D02*
X0249700Y0414446D01*
X0249700Y0413847D02*
X0156292Y0413847D01*
X0156292Y0413249D02*
X0249700Y0413249D01*
X0249700Y0412650D02*
X0156292Y0412650D01*
X0156292Y0412052D02*
X0249700Y0412052D01*
X0249700Y0411453D02*
X0156292Y0411453D01*
X0156292Y0410855D02*
X0249700Y0410855D01*
X0249700Y0410256D02*
X0156292Y0410256D01*
X0156292Y0409658D02*
X0249700Y0409658D01*
X0249700Y0409059D02*
X0156219Y0409059D01*
X0155971Y0408461D02*
X0249700Y0408461D01*
X0249700Y0407862D02*
X0155723Y0407862D01*
X0155246Y0407264D02*
X0249700Y0407264D01*
X0249700Y0406665D02*
X0154647Y0406665D01*
X0153512Y0406067D02*
X0249700Y0406067D01*
X0249700Y0389907D02*
X0108453Y0389907D01*
X0109606Y0389308D02*
X0249700Y0389308D01*
X0249700Y0388710D02*
X0110204Y0388710D01*
X0110803Y0388111D02*
X0196079Y0388111D01*
X0195731Y0387764D02*
X0196493Y0388525D01*
X0205838Y0388525D01*
X0206599Y0387764D01*
X0206599Y0378419D01*
X0205838Y0377657D01*
X0196493Y0377657D01*
X0195731Y0378419D01*
X0195731Y0387764D01*
X0195731Y0387513D02*
X0111267Y0387513D01*
X0111515Y0386914D02*
X0195731Y0386914D01*
X0195731Y0386316D02*
X0111763Y0386316D01*
X0112011Y0385717D02*
X0195731Y0385717D01*
X0195731Y0385119D02*
X0112131Y0385119D01*
X0112131Y0384520D02*
X0195731Y0384520D01*
X0195731Y0383922D02*
X0112131Y0383922D01*
X0112131Y0383323D02*
X0195731Y0383323D01*
X0195731Y0382725D02*
X0112049Y0382725D01*
X0111802Y0382126D02*
X0195731Y0382126D01*
X0195731Y0381528D02*
X0111554Y0381528D01*
X0111306Y0380929D02*
X0195731Y0380929D01*
X0195731Y0380331D02*
X0152994Y0380331D01*
X0152847Y0380391D02*
X0151137Y0380391D01*
X0149556Y0379737D01*
X0148347Y0378527D01*
X0147692Y0376947D01*
X0147692Y0369236D01*
X0148347Y0367656D01*
X0149556Y0366446D01*
X0151137Y0365791D01*
X0152847Y0365791D01*
X0154428Y0366446D01*
X0155637Y0367656D01*
X0156292Y0369236D01*
X0156292Y0376947D01*
X0155637Y0378527D01*
X0154428Y0379737D01*
X0152847Y0380391D01*
X0154432Y0379732D02*
X0195731Y0379732D01*
X0195731Y0379134D02*
X0155031Y0379134D01*
X0155629Y0378535D02*
X0195731Y0378535D01*
X0196214Y0377937D02*
X0155882Y0377937D01*
X0156130Y0377338D02*
X0249700Y0377338D01*
X0249700Y0376740D02*
X0156292Y0376740D01*
X0156292Y0376141D02*
X0249700Y0376141D01*
X0249700Y0375543D02*
X0156292Y0375543D01*
X0156292Y0374944D02*
X0249700Y0374944D01*
X0249700Y0374346D02*
X0156292Y0374346D01*
X0156292Y0373747D02*
X0249700Y0373747D01*
X0249700Y0373148D02*
X0156292Y0373148D01*
X0156292Y0372550D02*
X0249700Y0372550D01*
X0249700Y0371951D02*
X0156292Y0371951D01*
X0156292Y0371353D02*
X0249700Y0371353D01*
X0249700Y0370754D02*
X0156292Y0370754D01*
X0156292Y0370156D02*
X0249700Y0370156D01*
X0249700Y0369557D02*
X0156292Y0369557D01*
X0156177Y0368959D02*
X0249700Y0368959D01*
X0249700Y0368360D02*
X0155929Y0368360D01*
X0155682Y0367762D02*
X0249700Y0367762D01*
X0249700Y0367163D02*
X0155145Y0367163D01*
X0154547Y0366565D02*
X0249700Y0366565D01*
X0249700Y0365966D02*
X0153270Y0365966D01*
X0150714Y0365966D02*
X0133270Y0365966D01*
X0134547Y0366565D02*
X0149437Y0366565D01*
X0148839Y0367163D02*
X0135145Y0367163D01*
X0135682Y0367762D02*
X0148303Y0367762D01*
X0148055Y0368360D02*
X0135929Y0368360D01*
X0136177Y0368959D02*
X0147807Y0368959D01*
X0147692Y0369557D02*
X0136292Y0369557D01*
X0136292Y0370156D02*
X0147692Y0370156D01*
X0147692Y0370754D02*
X0136292Y0370754D01*
X0136292Y0371353D02*
X0147692Y0371353D01*
X0147692Y0371951D02*
X0136292Y0371951D01*
X0136292Y0372550D02*
X0147692Y0372550D01*
X0147692Y0373148D02*
X0136292Y0373148D01*
X0136292Y0373747D02*
X0147692Y0373747D01*
X0147692Y0374346D02*
X0136292Y0374346D01*
X0136292Y0374944D02*
X0147692Y0374944D01*
X0147692Y0375543D02*
X0136292Y0375543D01*
X0136292Y0376141D02*
X0147692Y0376141D01*
X0147692Y0376740D02*
X0136292Y0376740D01*
X0136130Y0377338D02*
X0147854Y0377338D01*
X0148102Y0377937D02*
X0135882Y0377937D01*
X0135629Y0378535D02*
X0148355Y0378535D01*
X0148953Y0379134D02*
X0135031Y0379134D01*
X0134432Y0379732D02*
X0149552Y0379732D01*
X0150990Y0380331D02*
X0132994Y0380331D01*
X0130990Y0380331D02*
X0110897Y0380331D01*
X0110298Y0379732D02*
X0129552Y0379732D01*
X0128953Y0379134D02*
X0109700Y0379134D01*
X0108680Y0378535D02*
X0128355Y0378535D01*
X0128102Y0377937D02*
X0107235Y0377937D01*
X0133512Y0406067D02*
X0150472Y0406067D01*
X0149337Y0406665D02*
X0134647Y0406665D01*
X0135246Y0407264D02*
X0148739Y0407264D01*
X0148261Y0407862D02*
X0135723Y0407862D01*
X0135971Y0408461D02*
X0148013Y0408461D01*
X0147765Y0409059D02*
X0136219Y0409059D01*
X0136292Y0409658D02*
X0147692Y0409658D01*
X0147692Y0410256D02*
X0136292Y0410256D01*
X0136292Y0410855D02*
X0147692Y0410855D01*
X0147692Y0411453D02*
X0136292Y0411453D01*
X0136292Y0412052D02*
X0147692Y0412052D01*
X0147692Y0412650D02*
X0136292Y0412650D01*
X0136292Y0413249D02*
X0147692Y0413249D01*
X0147692Y0413847D02*
X0136292Y0413847D01*
X0136292Y0414446D02*
X0147692Y0414446D01*
X0147692Y0415044D02*
X0136292Y0415044D01*
X0136292Y0415643D02*
X0147692Y0415643D01*
X0147692Y0416241D02*
X0136292Y0416241D01*
X0136292Y0416840D02*
X0147692Y0416840D01*
X0147896Y0417438D02*
X0136088Y0417438D01*
X0135841Y0418037D02*
X0148144Y0418037D01*
X0148455Y0418635D02*
X0135529Y0418635D01*
X0134931Y0419234D02*
X0149054Y0419234D01*
X0149787Y0419832D02*
X0134197Y0419832D01*
X0144401Y0430606D02*
X0195731Y0430606D01*
X0195731Y0431204D02*
X0145846Y0431204D01*
X0146616Y0431803D02*
X0195731Y0431803D01*
X0195731Y0432401D02*
X0147215Y0432401D01*
X0147813Y0433000D02*
X0195731Y0433000D01*
X0195731Y0433598D02*
X0148412Y0433598D01*
X0148678Y0434197D02*
X0195731Y0434197D01*
X0195731Y0434795D02*
X0148926Y0434795D01*
X0149174Y0435394D02*
X0195731Y0435394D01*
X0195731Y0435992D02*
X0149422Y0435992D01*
X0149670Y0436591D02*
X0195731Y0436591D01*
X0195731Y0437189D02*
X0149690Y0437189D01*
X0149690Y0437788D02*
X0195756Y0437788D01*
X0196354Y0438386D02*
X0149690Y0438386D01*
X0098092Y0433000D02*
X0085471Y0433000D01*
X0086430Y0432401D02*
X0097837Y0432401D01*
X0097837Y0431803D02*
X0087068Y0431803D01*
X0087523Y0431204D02*
X0097837Y0431204D01*
X0097837Y0430606D02*
X0087855Y0430606D01*
X0088094Y0430007D02*
X0097837Y0430007D01*
X0097837Y0429409D02*
X0088257Y0429409D01*
X0088352Y0428810D02*
X0097837Y0428810D01*
X0097837Y0427613D02*
X0088290Y0427613D01*
X0088162Y0427015D02*
X0097837Y0427015D01*
X0097837Y0426416D02*
X0087962Y0426416D01*
X0087657Y0425817D02*
X0097837Y0425817D01*
X0097837Y0425219D02*
X0087240Y0425219D01*
X0086679Y0424620D02*
X0097837Y0424620D01*
X0097883Y0424022D02*
X0085881Y0424022D01*
X0084393Y0423423D02*
X0098481Y0423423D01*
X0083552Y0423423D02*
X0082952Y0423423D01*
X0082952Y0424022D02*
X0083552Y0424022D01*
X0083552Y0424620D02*
X0082952Y0424620D01*
X0082952Y0425219D02*
X0083552Y0425219D01*
X0083552Y0425817D02*
X0082952Y0425817D01*
X0082952Y0426416D02*
X0083552Y0426416D01*
X0083552Y0427015D02*
X0082952Y0427015D01*
X0082952Y0428810D02*
X0083552Y0428810D01*
X0083552Y0429409D02*
X0082952Y0429409D01*
X0082952Y0430007D02*
X0083552Y0430007D01*
X0083552Y0430606D02*
X0082952Y0430606D01*
X0082952Y0431204D02*
X0083552Y0431204D01*
X0083552Y0431803D02*
X0082952Y0431803D01*
X0082952Y0432401D02*
X0083552Y0432401D01*
X0083552Y0433000D02*
X0082952Y0433000D01*
X0078214Y0427613D02*
X0003300Y0427613D01*
X0003300Y0427015D02*
X0078342Y0427015D01*
X0078542Y0426416D02*
X0003300Y0426416D01*
X0003300Y0425817D02*
X0078847Y0425817D01*
X0079264Y0425219D02*
X0003300Y0425219D01*
X0003300Y0424620D02*
X0079825Y0424620D01*
X0080623Y0424022D02*
X0003300Y0424022D01*
X0003300Y0423423D02*
X0082111Y0423423D01*
X0133236Y0340230D02*
X0150748Y0340230D01*
X0151137Y0340391D02*
X0149556Y0339737D01*
X0148347Y0338527D01*
X0147692Y0336947D01*
X0147692Y0329236D01*
X0148347Y0327656D01*
X0149556Y0326446D01*
X0151137Y0325791D01*
X0152847Y0325791D01*
X0154428Y0326446D01*
X0155637Y0327656D01*
X0156292Y0329236D01*
X0156292Y0336947D01*
X0155637Y0338527D01*
X0154428Y0339737D01*
X0152847Y0340391D01*
X0151137Y0340391D01*
X0149452Y0339632D02*
X0134533Y0339632D01*
X0135131Y0339033D02*
X0148853Y0339033D01*
X0148309Y0338435D02*
X0135676Y0338435D01*
X0135924Y0337836D02*
X0148061Y0337836D01*
X0147813Y0337238D02*
X0136172Y0337238D01*
X0136292Y0336639D02*
X0147692Y0336639D01*
X0147692Y0336041D02*
X0136292Y0336041D01*
X0136292Y0335442D02*
X0147692Y0335442D01*
X0147692Y0334844D02*
X0136292Y0334844D01*
X0136292Y0334245D02*
X0147692Y0334245D01*
X0147692Y0333647D02*
X0136292Y0333647D01*
X0136292Y0333048D02*
X0147692Y0333048D01*
X0147692Y0332450D02*
X0136292Y0332450D01*
X0136292Y0331851D02*
X0147692Y0331851D01*
X0147692Y0331253D02*
X0136292Y0331253D01*
X0136292Y0330654D02*
X0147692Y0330654D01*
X0147692Y0330056D02*
X0136292Y0330056D01*
X0136292Y0329457D02*
X0147692Y0329457D01*
X0147848Y0328859D02*
X0136136Y0328859D01*
X0135888Y0328260D02*
X0148096Y0328260D01*
X0148344Y0327662D02*
X0135640Y0327662D01*
X0135045Y0327063D02*
X0148939Y0327063D01*
X0149538Y0326465D02*
X0134447Y0326465D01*
X0133028Y0325866D02*
X0150956Y0325866D01*
X0153028Y0325866D02*
X0249700Y0325866D01*
X0249700Y0325268D02*
X0109702Y0325268D01*
X0109824Y0324974D02*
X0108864Y0327290D01*
X0107092Y0329062D01*
X0104777Y0330021D01*
X0102270Y0330021D01*
X0099955Y0329062D01*
X0098183Y0327290D01*
X0097224Y0324974D01*
X0097224Y0312468D01*
X0098183Y0310153D01*
X0099955Y0308380D01*
X0102270Y0307421D01*
X0104777Y0307421D01*
X0107092Y0308380D01*
X0108864Y0310153D01*
X0109824Y0312468D01*
X0109824Y0324974D01*
X0109824Y0324669D02*
X0249700Y0324669D01*
X0249700Y0324071D02*
X0109824Y0324071D01*
X0109824Y0323472D02*
X0249700Y0323472D01*
X0249700Y0322874D02*
X0109824Y0322874D01*
X0109824Y0322275D02*
X0249700Y0322275D01*
X0249700Y0321677D02*
X0109824Y0321677D01*
X0109824Y0321078D02*
X0249700Y0321078D01*
X0249700Y0320480D02*
X0109824Y0320480D01*
X0109824Y0319881D02*
X0249700Y0319881D01*
X0249700Y0319282D02*
X0109824Y0319282D01*
X0109824Y0318684D02*
X0249700Y0318684D01*
X0249700Y0318085D02*
X0109824Y0318085D01*
X0109824Y0317487D02*
X0249700Y0317487D01*
X0249700Y0316888D02*
X0109824Y0316888D01*
X0109824Y0316290D02*
X0249700Y0316290D01*
X0249700Y0315691D02*
X0109824Y0315691D01*
X0109824Y0315093D02*
X0249700Y0315093D01*
X0249700Y0314494D02*
X0109824Y0314494D01*
X0109824Y0313896D02*
X0249700Y0313896D01*
X0249700Y0313297D02*
X0109824Y0313297D01*
X0109824Y0312699D02*
X0249700Y0312699D01*
X0249700Y0312100D02*
X0109671Y0312100D01*
X0109423Y0311502D02*
X0249700Y0311502D01*
X0249700Y0310903D02*
X0109175Y0310903D01*
X0108928Y0310305D02*
X0249700Y0310305D01*
X0249700Y0309706D02*
X0108418Y0309706D01*
X0107820Y0309108D02*
X0249700Y0309108D01*
X0249700Y0308509D02*
X0107221Y0308509D01*
X0105959Y0307911D02*
X0249700Y0307911D01*
X0249700Y0326465D02*
X0154447Y0326465D01*
X0155045Y0327063D02*
X0249700Y0327063D01*
X0249700Y0327662D02*
X0227139Y0327662D01*
X0227124Y0327657D02*
X0227455Y0327746D01*
X0227751Y0327917D01*
X0227993Y0328159D01*
X0228164Y0328456D01*
X0228253Y0328786D01*
X0228253Y0332791D01*
X0223119Y0332791D01*
X0223119Y0327657D01*
X0227124Y0327657D01*
X0228051Y0328260D02*
X0249700Y0328260D01*
X0249700Y0328859D02*
X0228253Y0328859D01*
X0228253Y0329457D02*
X0249700Y0329457D01*
X0249700Y0330056D02*
X0228253Y0330056D01*
X0228253Y0330654D02*
X0249700Y0330654D01*
X0249700Y0331253D02*
X0228253Y0331253D01*
X0228253Y0331851D02*
X0249700Y0331851D01*
X0249700Y0332450D02*
X0228253Y0332450D01*
X0228253Y0333391D02*
X0228253Y0337396D01*
X0228164Y0337727D01*
X0227993Y0338023D01*
X0227751Y0338265D01*
X0227455Y0338437D01*
X0227124Y0338525D01*
X0223119Y0338525D01*
X0223119Y0333391D01*
X0228253Y0333391D01*
X0228253Y0333647D02*
X0249700Y0333647D01*
X0249700Y0334245D02*
X0228253Y0334245D01*
X0228253Y0334844D02*
X0249700Y0334844D01*
X0249700Y0335442D02*
X0228253Y0335442D01*
X0228253Y0336041D02*
X0249700Y0336041D01*
X0249700Y0336639D02*
X0228253Y0336639D01*
X0228253Y0337238D02*
X0249700Y0337238D01*
X0249700Y0337836D02*
X0228101Y0337836D01*
X0227458Y0338435D02*
X0249700Y0338435D01*
X0249700Y0339033D02*
X0155131Y0339033D01*
X0155676Y0338435D02*
X0196403Y0338435D01*
X0196493Y0338525D02*
X0195731Y0337764D01*
X0195731Y0328419D01*
X0196493Y0327657D01*
X0205838Y0327657D01*
X0206599Y0328419D01*
X0206599Y0337764D01*
X0205838Y0338525D01*
X0196493Y0338525D01*
X0195804Y0337836D02*
X0155924Y0337836D01*
X0156172Y0337238D02*
X0195731Y0337238D01*
X0195731Y0336639D02*
X0156292Y0336639D01*
X0156292Y0336041D02*
X0195731Y0336041D01*
X0195731Y0335442D02*
X0156292Y0335442D01*
X0156292Y0334844D02*
X0195731Y0334844D01*
X0195731Y0334245D02*
X0156292Y0334245D01*
X0156292Y0333647D02*
X0195731Y0333647D01*
X0195731Y0333048D02*
X0156292Y0333048D01*
X0156292Y0332450D02*
X0195731Y0332450D01*
X0195731Y0331851D02*
X0156292Y0331851D01*
X0156292Y0331253D02*
X0195731Y0331253D01*
X0195731Y0330654D02*
X0156292Y0330654D01*
X0156292Y0330056D02*
X0195731Y0330056D01*
X0195731Y0329457D02*
X0156292Y0329457D01*
X0156136Y0328859D02*
X0195731Y0328859D01*
X0195890Y0328260D02*
X0155888Y0328260D01*
X0155640Y0327662D02*
X0196489Y0327662D01*
X0205842Y0327662D02*
X0218498Y0327662D01*
X0218514Y0327657D02*
X0222519Y0327657D01*
X0222519Y0332791D01*
X0223119Y0332791D01*
X0223119Y0333391D01*
X0222519Y0333391D01*
X0222519Y0332791D01*
X0217385Y0332791D01*
X0217385Y0328786D01*
X0217474Y0328456D01*
X0217645Y0328159D01*
X0217887Y0327917D01*
X0218183Y0327746D01*
X0218514Y0327657D01*
X0217587Y0328260D02*
X0206440Y0328260D01*
X0206599Y0328859D02*
X0217385Y0328859D01*
X0217385Y0329457D02*
X0206599Y0329457D01*
X0206599Y0330056D02*
X0217385Y0330056D01*
X0217385Y0330654D02*
X0206599Y0330654D01*
X0206599Y0331253D02*
X0217385Y0331253D01*
X0217385Y0331851D02*
X0206599Y0331851D01*
X0206599Y0332450D02*
X0217385Y0332450D01*
X0217385Y0333391D02*
X0222519Y0333391D01*
X0222519Y0338525D01*
X0218514Y0338525D01*
X0218183Y0338437D01*
X0217887Y0338265D01*
X0217645Y0338023D01*
X0217474Y0337727D01*
X0217385Y0337396D01*
X0217385Y0333391D01*
X0217385Y0333647D02*
X0206599Y0333647D01*
X0206599Y0334245D02*
X0217385Y0334245D01*
X0217385Y0334844D02*
X0206599Y0334844D01*
X0206599Y0335442D02*
X0217385Y0335442D01*
X0217385Y0336041D02*
X0206599Y0336041D01*
X0206599Y0336639D02*
X0217385Y0336639D01*
X0217385Y0337238D02*
X0206599Y0337238D01*
X0206527Y0337836D02*
X0217537Y0337836D01*
X0218180Y0338435D02*
X0205928Y0338435D01*
X0206599Y0333048D02*
X0222519Y0333048D01*
X0222519Y0332450D02*
X0223119Y0332450D01*
X0223119Y0333048D02*
X0249700Y0333048D01*
X0249700Y0339632D02*
X0154533Y0339632D01*
X0153236Y0340230D02*
X0249700Y0340230D01*
X0249700Y0377937D02*
X0227770Y0377937D01*
X0227751Y0377917D02*
X0227993Y0378159D01*
X0228164Y0378456D01*
X0228253Y0378786D01*
X0228253Y0382791D01*
X0223119Y0382791D01*
X0223119Y0377657D01*
X0227124Y0377657D01*
X0227455Y0377746D01*
X0227751Y0377917D01*
X0228185Y0378535D02*
X0249700Y0378535D01*
X0249700Y0379134D02*
X0228253Y0379134D01*
X0228253Y0379732D02*
X0249700Y0379732D01*
X0249700Y0380331D02*
X0228253Y0380331D01*
X0228253Y0380929D02*
X0249700Y0380929D01*
X0249700Y0381528D02*
X0228253Y0381528D01*
X0228253Y0382126D02*
X0249700Y0382126D01*
X0249700Y0382725D02*
X0228253Y0382725D01*
X0228253Y0383391D02*
X0228253Y0387396D01*
X0228164Y0387727D01*
X0227993Y0388023D01*
X0227751Y0388265D01*
X0227455Y0388437D01*
X0227124Y0388525D01*
X0223119Y0388525D01*
X0223119Y0383391D01*
X0228253Y0383391D01*
X0228253Y0383922D02*
X0249700Y0383922D01*
X0249700Y0384520D02*
X0228253Y0384520D01*
X0228253Y0385119D02*
X0249700Y0385119D01*
X0249700Y0385717D02*
X0228253Y0385717D01*
X0228253Y0386316D02*
X0249700Y0386316D01*
X0249700Y0386914D02*
X0228253Y0386914D01*
X0228222Y0387513D02*
X0249700Y0387513D01*
X0249700Y0388111D02*
X0227905Y0388111D01*
X0223119Y0388111D02*
X0222519Y0388111D01*
X0222519Y0388525D02*
X0218514Y0388525D01*
X0218183Y0388437D01*
X0217887Y0388265D01*
X0217645Y0388023D01*
X0217474Y0387727D01*
X0217385Y0387396D01*
X0217385Y0383391D01*
X0222519Y0383391D01*
X0222519Y0382791D01*
X0223119Y0382791D01*
X0223119Y0383391D01*
X0222519Y0383391D01*
X0222519Y0388525D01*
X0222519Y0387513D02*
X0223119Y0387513D01*
X0223119Y0386914D02*
X0222519Y0386914D01*
X0222519Y0386316D02*
X0223119Y0386316D01*
X0223119Y0385717D02*
X0222519Y0385717D01*
X0222519Y0385119D02*
X0223119Y0385119D01*
X0223119Y0384520D02*
X0222519Y0384520D01*
X0222519Y0383922D02*
X0223119Y0383922D01*
X0223119Y0383323D02*
X0249700Y0383323D01*
X0223119Y0382725D02*
X0222519Y0382725D01*
X0222519Y0382791D02*
X0222519Y0377657D01*
X0218514Y0377657D01*
X0218183Y0377746D01*
X0217887Y0377917D01*
X0217645Y0378159D01*
X0217474Y0378456D01*
X0217385Y0378786D01*
X0217385Y0382791D01*
X0222519Y0382791D01*
X0222519Y0383323D02*
X0206599Y0383323D01*
X0206599Y0382725D02*
X0217385Y0382725D01*
X0217385Y0382126D02*
X0206599Y0382126D01*
X0206599Y0381528D02*
X0217385Y0381528D01*
X0217385Y0380929D02*
X0206599Y0380929D01*
X0206599Y0380331D02*
X0217385Y0380331D01*
X0217385Y0379732D02*
X0206599Y0379732D01*
X0206599Y0379134D02*
X0217385Y0379134D01*
X0217452Y0378535D02*
X0206599Y0378535D01*
X0206117Y0377937D02*
X0217867Y0377937D01*
X0217385Y0383922D02*
X0206599Y0383922D01*
X0206599Y0384520D02*
X0217385Y0384520D01*
X0217385Y0385119D02*
X0206599Y0385119D01*
X0206599Y0385717D02*
X0217385Y0385717D01*
X0217385Y0386316D02*
X0206599Y0386316D01*
X0206599Y0386914D02*
X0217385Y0386914D01*
X0217416Y0387513D02*
X0206599Y0387513D01*
X0206252Y0388111D02*
X0217733Y0388111D01*
X0222519Y0382126D02*
X0223119Y0382126D01*
X0223119Y0381528D02*
X0222519Y0381528D01*
X0222519Y0380929D02*
X0223119Y0380929D01*
X0223119Y0380331D02*
X0222519Y0380331D01*
X0222519Y0379732D02*
X0223119Y0379732D01*
X0223119Y0379134D02*
X0222519Y0379134D01*
X0222519Y0378535D02*
X0223119Y0378535D01*
X0223119Y0377937D02*
X0222519Y0377937D01*
X0222519Y0338435D02*
X0223119Y0338435D01*
X0223119Y0337836D02*
X0222519Y0337836D01*
X0222519Y0337238D02*
X0223119Y0337238D01*
X0223119Y0336639D02*
X0222519Y0336639D01*
X0222519Y0336041D02*
X0223119Y0336041D01*
X0223119Y0335442D02*
X0222519Y0335442D01*
X0222519Y0334844D02*
X0223119Y0334844D01*
X0223119Y0334245D02*
X0222519Y0334245D01*
X0222519Y0333647D02*
X0223119Y0333647D01*
X0223119Y0331851D02*
X0222519Y0331851D01*
X0222519Y0331253D02*
X0223119Y0331253D01*
X0223119Y0330654D02*
X0222519Y0330654D01*
X0222519Y0330056D02*
X0223119Y0330056D01*
X0223119Y0329457D02*
X0222519Y0329457D01*
X0222519Y0328859D02*
X0223119Y0328859D01*
X0223119Y0328260D02*
X0222519Y0328260D01*
X0222519Y0327662D02*
X0223119Y0327662D01*
X0223119Y0238483D02*
X0222519Y0238483D01*
X0222519Y0237885D02*
X0223119Y0237885D01*
X0223119Y0237286D02*
X0222519Y0237286D01*
X0222519Y0236688D02*
X0223119Y0236688D01*
X0223119Y0236089D02*
X0222519Y0236089D01*
X0222519Y0235491D02*
X0223119Y0235491D01*
X0223119Y0234892D02*
X0222519Y0234892D01*
X0222519Y0234294D02*
X0223119Y0234294D01*
X0223119Y0232498D02*
X0222519Y0232498D01*
X0222519Y0231900D02*
X0223119Y0231900D01*
X0223119Y0231301D02*
X0222519Y0231301D01*
X0222519Y0230703D02*
X0223119Y0230703D01*
X0223119Y0230104D02*
X0222519Y0230104D01*
X0222519Y0229506D02*
X0223119Y0229506D01*
X0223119Y0228907D02*
X0222519Y0228907D01*
X0222519Y0228309D02*
X0223119Y0228309D01*
X0223119Y0227710D02*
X0222519Y0227710D01*
X0222519Y0188209D02*
X0223119Y0188209D01*
X0223119Y0187610D02*
X0222519Y0187610D01*
X0222519Y0187011D02*
X0223119Y0187011D01*
X0223119Y0186413D02*
X0222519Y0186413D01*
X0222519Y0185814D02*
X0223119Y0185814D01*
X0223119Y0185216D02*
X0222519Y0185216D01*
X0222519Y0184617D02*
X0223119Y0184617D01*
X0223119Y0184019D02*
X0222519Y0184019D01*
X0222519Y0183420D02*
X0223119Y0183420D01*
X0222519Y0182822D02*
X0206599Y0182822D01*
X0206599Y0183420D02*
X0217385Y0183420D01*
X0217385Y0184019D02*
X0206599Y0184019D01*
X0206599Y0184617D02*
X0217385Y0184617D01*
X0217385Y0185216D02*
X0206599Y0185216D01*
X0206599Y0185814D02*
X0217385Y0185814D01*
X0217385Y0186413D02*
X0206599Y0186413D01*
X0206599Y0187011D02*
X0217385Y0187011D01*
X0217442Y0187610D02*
X0206599Y0187610D01*
X0206154Y0188209D02*
X0217830Y0188209D01*
X0217385Y0182223D02*
X0206599Y0182223D01*
X0206599Y0181625D02*
X0217385Y0181625D01*
X0217385Y0181026D02*
X0206599Y0181026D01*
X0206599Y0180428D02*
X0217385Y0180428D01*
X0217385Y0179829D02*
X0206599Y0179829D01*
X0206599Y0179231D02*
X0217385Y0179231D01*
X0217426Y0178632D02*
X0206599Y0178632D01*
X0206214Y0178034D02*
X0217770Y0178034D01*
X0218514Y0138525D02*
X0218183Y0138437D01*
X0217887Y0138265D01*
X0217645Y0138023D01*
X0217474Y0137727D01*
X0217385Y0137396D01*
X0217385Y0133391D01*
X0222519Y0133391D01*
X0222519Y0132791D01*
X0223119Y0132791D01*
X0223119Y0127657D01*
X0227124Y0127657D01*
X0227455Y0127746D01*
X0227751Y0127917D01*
X0227993Y0128159D01*
X0228164Y0128456D01*
X0228253Y0128786D01*
X0228253Y0132791D01*
X0223119Y0132791D01*
X0223119Y0133391D01*
X0228253Y0133391D01*
X0228253Y0137396D01*
X0228164Y0137727D01*
X0227993Y0138023D01*
X0227751Y0138265D01*
X0227455Y0138437D01*
X0227124Y0138525D01*
X0223119Y0138525D01*
X0223119Y0133391D01*
X0222519Y0133391D01*
X0222519Y0138525D01*
X0218514Y0138525D01*
X0217593Y0137934D02*
X0206429Y0137934D01*
X0206599Y0137764D02*
X0205838Y0138525D01*
X0196493Y0138525D01*
X0195731Y0137764D01*
X0195731Y0128419D01*
X0196493Y0127657D01*
X0205838Y0127657D01*
X0206599Y0128419D01*
X0206599Y0137764D01*
X0206599Y0137335D02*
X0217385Y0137335D01*
X0217385Y0136737D02*
X0206599Y0136737D01*
X0206599Y0136138D02*
X0217385Y0136138D01*
X0217385Y0135540D02*
X0206599Y0135540D01*
X0206599Y0134941D02*
X0217385Y0134941D01*
X0217385Y0134342D02*
X0206599Y0134342D01*
X0206599Y0133744D02*
X0217385Y0133744D01*
X0217385Y0132791D02*
X0217385Y0128786D01*
X0217474Y0128456D01*
X0217645Y0128159D01*
X0217887Y0127917D01*
X0218183Y0127746D01*
X0218514Y0127657D01*
X0222519Y0127657D01*
X0222519Y0132791D01*
X0217385Y0132791D01*
X0217385Y0132547D02*
X0206599Y0132547D01*
X0206599Y0133145D02*
X0222519Y0133145D01*
X0222519Y0132547D02*
X0223119Y0132547D01*
X0223119Y0133145D02*
X0249700Y0133145D01*
X0249700Y0132547D02*
X0228253Y0132547D01*
X0228253Y0131948D02*
X0249700Y0131948D01*
X0249700Y0131350D02*
X0228253Y0131350D01*
X0228253Y0130751D02*
X0249700Y0130751D01*
X0249700Y0130153D02*
X0228253Y0130153D01*
X0228253Y0129554D02*
X0249700Y0129554D01*
X0249700Y0128956D02*
X0228253Y0128956D01*
X0228107Y0128357D02*
X0249700Y0128357D01*
X0249700Y0127759D02*
X0227477Y0127759D01*
X0228253Y0133744D02*
X0249700Y0133744D01*
X0249700Y0134342D02*
X0228253Y0134342D01*
X0228253Y0134941D02*
X0249700Y0134941D01*
X0249700Y0135540D02*
X0228253Y0135540D01*
X0228253Y0136138D02*
X0249700Y0136138D01*
X0249700Y0136737D02*
X0228253Y0136737D01*
X0228253Y0137335D02*
X0249700Y0137335D01*
X0249700Y0137934D02*
X0228045Y0137934D01*
X0223119Y0137934D02*
X0222519Y0137934D01*
X0222519Y0137335D02*
X0223119Y0137335D01*
X0223119Y0136737D02*
X0222519Y0136737D01*
X0222519Y0136138D02*
X0223119Y0136138D01*
X0223119Y0135540D02*
X0222519Y0135540D01*
X0222519Y0134941D02*
X0223119Y0134941D01*
X0223119Y0134342D02*
X0222519Y0134342D01*
X0222519Y0133744D02*
X0223119Y0133744D01*
X0223119Y0131948D02*
X0222519Y0131948D01*
X0222519Y0131350D02*
X0223119Y0131350D01*
X0223119Y0130751D02*
X0222519Y0130751D01*
X0222519Y0130153D02*
X0223119Y0130153D01*
X0223119Y0129554D02*
X0222519Y0129554D01*
X0222519Y0128956D02*
X0223119Y0128956D01*
X0223119Y0128357D02*
X0222519Y0128357D01*
X0222519Y0127759D02*
X0223119Y0127759D01*
X0218161Y0127759D02*
X0205939Y0127759D01*
X0206538Y0128357D02*
X0217530Y0128357D01*
X0217385Y0128956D02*
X0206599Y0128956D01*
X0206599Y0129554D02*
X0217385Y0129554D01*
X0217385Y0130153D02*
X0206599Y0130153D01*
X0206599Y0130751D02*
X0217385Y0130751D01*
X0217385Y0131350D02*
X0206599Y0131350D01*
X0206599Y0131948D02*
X0217385Y0131948D01*
X0196392Y0127759D02*
X0155680Y0127759D01*
X0155637Y0127656D02*
X0156292Y0129236D01*
X0156292Y0136947D01*
X0155637Y0138527D01*
X0154428Y0139737D01*
X0152847Y0140391D01*
X0151137Y0140391D01*
X0149556Y0139737D01*
X0148347Y0138527D01*
X0147692Y0136947D01*
X0147692Y0129236D01*
X0148347Y0127656D01*
X0149556Y0126446D01*
X0151137Y0125791D01*
X0152847Y0125791D01*
X0154428Y0126446D01*
X0155637Y0127656D01*
X0155142Y0127160D02*
X0249700Y0127160D01*
X0249700Y0126562D02*
X0154544Y0126562D01*
X0153263Y0125963D02*
X0249700Y0125963D01*
X0249700Y0125365D02*
X0045800Y0125365D01*
X0046292Y0124766D02*
X0249700Y0124766D01*
X0249700Y0124168D02*
X0046292Y0124168D01*
X0046292Y0123569D02*
X0249700Y0123569D01*
X0249700Y0122971D02*
X0046292Y0122971D01*
X0046292Y0122372D02*
X0249700Y0122372D01*
X0249700Y0121774D02*
X0046292Y0121774D01*
X0046157Y0121175D02*
X0249700Y0121175D01*
X0249700Y0120577D02*
X0045559Y0120577D01*
X0044960Y0119978D02*
X0249700Y0119978D01*
X0249700Y0119380D02*
X0044362Y0119380D01*
X0045201Y0125963D02*
X0130722Y0125963D01*
X0129441Y0126562D02*
X0044603Y0126562D01*
X0044004Y0127160D02*
X0128842Y0127160D01*
X0127808Y0128956D02*
X0043938Y0128956D01*
X0044536Y0129554D02*
X0127692Y0129554D01*
X0127692Y0130153D02*
X0045135Y0130153D01*
X0045733Y0130751D02*
X0127692Y0130751D01*
X0127692Y0131350D02*
X0046292Y0131350D01*
X0046292Y0131948D02*
X0127692Y0131948D01*
X0127692Y0132547D02*
X0046292Y0132547D01*
X0046292Y0133145D02*
X0127692Y0133145D01*
X0127692Y0133744D02*
X0046292Y0133744D01*
X0046292Y0134342D02*
X0127692Y0134342D01*
X0127692Y0134941D02*
X0046224Y0134941D01*
X0045625Y0135540D02*
X0127692Y0135540D01*
X0127692Y0136138D02*
X0045027Y0136138D01*
X0044428Y0136737D02*
X0127692Y0136737D01*
X0127853Y0137335D02*
X0043830Y0137335D01*
X0044112Y0139131D02*
X0128950Y0139131D01*
X0129549Y0139729D02*
X0044711Y0139729D01*
X0045309Y0140328D02*
X0130983Y0140328D01*
X0133001Y0140328D02*
X0150983Y0140328D01*
X0149549Y0139729D02*
X0134435Y0139729D01*
X0135034Y0139131D02*
X0148950Y0139131D01*
X0148352Y0138532D02*
X0135633Y0138532D01*
X0135883Y0137934D02*
X0148101Y0137934D01*
X0147853Y0137335D02*
X0136131Y0137335D01*
X0136292Y0136737D02*
X0147692Y0136737D01*
X0147692Y0136138D02*
X0136292Y0136138D01*
X0136292Y0135540D02*
X0147692Y0135540D01*
X0147692Y0134941D02*
X0136292Y0134941D01*
X0136292Y0134342D02*
X0147692Y0134342D01*
X0147692Y0133744D02*
X0136292Y0133744D01*
X0136292Y0133145D02*
X0147692Y0133145D01*
X0147692Y0132547D02*
X0136292Y0132547D01*
X0136292Y0131948D02*
X0147692Y0131948D01*
X0147692Y0131350D02*
X0136292Y0131350D01*
X0136292Y0130751D02*
X0147692Y0130751D01*
X0147692Y0130153D02*
X0136292Y0130153D01*
X0136292Y0129554D02*
X0147692Y0129554D01*
X0147808Y0128956D02*
X0136176Y0128956D01*
X0135928Y0128357D02*
X0148056Y0128357D01*
X0148304Y0127759D02*
X0135680Y0127759D01*
X0135142Y0127160D02*
X0148842Y0127160D01*
X0149441Y0126562D02*
X0134544Y0126562D01*
X0133263Y0125963D02*
X0150722Y0125963D01*
X0155928Y0128357D02*
X0195793Y0128357D01*
X0195731Y0128956D02*
X0156176Y0128956D01*
X0156292Y0129554D02*
X0195731Y0129554D01*
X0195731Y0130153D02*
X0156292Y0130153D01*
X0156292Y0130751D02*
X0195731Y0130751D01*
X0195731Y0131350D02*
X0156292Y0131350D01*
X0156292Y0131948D02*
X0195731Y0131948D01*
X0195731Y0132547D02*
X0156292Y0132547D01*
X0156292Y0133145D02*
X0195731Y0133145D01*
X0195731Y0133744D02*
X0156292Y0133744D01*
X0156292Y0134342D02*
X0195731Y0134342D01*
X0195731Y0134941D02*
X0156292Y0134941D01*
X0156292Y0135540D02*
X0195731Y0135540D01*
X0195731Y0136138D02*
X0156292Y0136138D01*
X0156292Y0136737D02*
X0195731Y0136737D01*
X0195731Y0137335D02*
X0156131Y0137335D01*
X0155883Y0137934D02*
X0195901Y0137934D01*
X0196493Y0088525D02*
X0195731Y0087764D01*
X0195731Y0078419D01*
X0196493Y0077657D01*
X0205838Y0077657D01*
X0206599Y0078419D01*
X0206599Y0087764D01*
X0205838Y0088525D01*
X0196493Y0088525D01*
X0196225Y0088257D02*
X0155749Y0088257D01*
X0155637Y0088527D02*
X0156292Y0086947D01*
X0156292Y0079236D01*
X0155637Y0077656D01*
X0154428Y0076446D01*
X0152847Y0075791D01*
X0151137Y0075791D01*
X0149556Y0076446D01*
X0148347Y0077656D01*
X0147692Y0079236D01*
X0147692Y0086947D01*
X0148347Y0088527D01*
X0149556Y0089737D01*
X0151137Y0090391D01*
X0152847Y0090391D01*
X0154428Y0089737D01*
X0155637Y0088527D01*
X0155309Y0088856D02*
X0249700Y0088856D01*
X0249700Y0089454D02*
X0154710Y0089454D01*
X0153665Y0090053D02*
X0249700Y0090053D01*
X0249700Y0088257D02*
X0227759Y0088257D01*
X0227751Y0088265D02*
X0227455Y0088437D01*
X0227124Y0088525D01*
X0223119Y0088525D01*
X0223119Y0083391D01*
X0228253Y0083391D01*
X0228253Y0087396D01*
X0228164Y0087727D01*
X0227993Y0088023D01*
X0227751Y0088265D01*
X0228182Y0087659D02*
X0249700Y0087659D01*
X0249700Y0087060D02*
X0228253Y0087060D01*
X0228253Y0086462D02*
X0249700Y0086462D01*
X0249700Y0085863D02*
X0228253Y0085863D01*
X0228253Y0085265D02*
X0249700Y0085265D01*
X0249700Y0084666D02*
X0228253Y0084666D01*
X0228253Y0084068D02*
X0249700Y0084068D01*
X0249700Y0083469D02*
X0228253Y0083469D01*
X0228253Y0082791D02*
X0228253Y0078786D01*
X0228164Y0078456D01*
X0227993Y0078159D01*
X0227751Y0077917D01*
X0227455Y0077746D01*
X0227124Y0077657D01*
X0223119Y0077657D01*
X0223119Y0082791D01*
X0222519Y0082791D01*
X0222519Y0077657D01*
X0218514Y0077657D01*
X0218183Y0077746D01*
X0217887Y0077917D01*
X0217645Y0078159D01*
X0217474Y0078456D01*
X0217385Y0078786D01*
X0217385Y0082791D01*
X0222519Y0082791D01*
X0222519Y0083391D01*
X0217385Y0083391D01*
X0217385Y0087396D01*
X0217474Y0087727D01*
X0217645Y0088023D01*
X0217887Y0088265D01*
X0218183Y0088437D01*
X0218514Y0088525D01*
X0222519Y0088525D01*
X0222519Y0083391D01*
X0223119Y0083391D01*
X0223119Y0082791D01*
X0228253Y0082791D01*
X0228253Y0082272D02*
X0249700Y0082272D01*
X0249700Y0082871D02*
X0223119Y0082871D01*
X0223119Y0083469D02*
X0222519Y0083469D01*
X0222519Y0082871D02*
X0206599Y0082871D01*
X0206599Y0083469D02*
X0217385Y0083469D01*
X0217385Y0084068D02*
X0206599Y0084068D01*
X0206599Y0084666D02*
X0217385Y0084666D01*
X0217385Y0085265D02*
X0206599Y0085265D01*
X0206599Y0085863D02*
X0217385Y0085863D01*
X0217385Y0086462D02*
X0206599Y0086462D01*
X0206599Y0087060D02*
X0217385Y0087060D01*
X0217455Y0087659D02*
X0206599Y0087659D01*
X0206106Y0088257D02*
X0217878Y0088257D01*
X0217385Y0082272D02*
X0206599Y0082272D01*
X0206599Y0081673D02*
X0217385Y0081673D01*
X0217385Y0081075D02*
X0206599Y0081075D01*
X0206599Y0080476D02*
X0217385Y0080476D01*
X0217385Y0079878D02*
X0206599Y0079878D01*
X0206599Y0079279D02*
X0217385Y0079279D01*
X0217413Y0078681D02*
X0206599Y0078681D01*
X0206263Y0078082D02*
X0217722Y0078082D01*
X0222519Y0078082D02*
X0223119Y0078082D01*
X0223119Y0078681D02*
X0222519Y0078681D01*
X0222519Y0079279D02*
X0223119Y0079279D01*
X0223119Y0079878D02*
X0222519Y0079878D01*
X0222519Y0080476D02*
X0223119Y0080476D01*
X0223119Y0081075D02*
X0222519Y0081075D01*
X0222519Y0081673D02*
X0223119Y0081673D01*
X0223119Y0082272D02*
X0222519Y0082272D01*
X0222519Y0084068D02*
X0223119Y0084068D01*
X0223119Y0084666D02*
X0222519Y0084666D01*
X0222519Y0085265D02*
X0223119Y0085265D01*
X0223119Y0085863D02*
X0222519Y0085863D01*
X0222519Y0086462D02*
X0223119Y0086462D01*
X0223119Y0087060D02*
X0222519Y0087060D01*
X0222519Y0087659D02*
X0223119Y0087659D01*
X0223119Y0088257D02*
X0222519Y0088257D01*
X0228253Y0081673D02*
X0249700Y0081673D01*
X0249700Y0081075D02*
X0228253Y0081075D01*
X0228253Y0080476D02*
X0249700Y0080476D01*
X0249700Y0079878D02*
X0228253Y0079878D01*
X0228253Y0079279D02*
X0249700Y0079279D01*
X0249700Y0078681D02*
X0228224Y0078681D01*
X0227916Y0078082D02*
X0249700Y0078082D01*
X0249700Y0077484D02*
X0155466Y0077484D01*
X0155814Y0078082D02*
X0196068Y0078082D01*
X0195731Y0078681D02*
X0156062Y0078681D01*
X0156292Y0079279D02*
X0195731Y0079279D01*
X0195731Y0079878D02*
X0156292Y0079878D01*
X0156292Y0080476D02*
X0195731Y0080476D01*
X0195731Y0081075D02*
X0156292Y0081075D01*
X0156292Y0081673D02*
X0195731Y0081673D01*
X0195731Y0082272D02*
X0156292Y0082272D01*
X0156292Y0082871D02*
X0195731Y0082871D01*
X0195731Y0083469D02*
X0156292Y0083469D01*
X0156292Y0084068D02*
X0195731Y0084068D01*
X0195731Y0084666D02*
X0156292Y0084666D01*
X0156292Y0085265D02*
X0195731Y0085265D01*
X0195731Y0085863D02*
X0156292Y0085863D01*
X0156292Y0086462D02*
X0195731Y0086462D01*
X0195731Y0087060D02*
X0156245Y0087060D01*
X0155997Y0087659D02*
X0195731Y0087659D01*
X0195950Y0037982D02*
X0155773Y0037982D01*
X0155366Y0037384D02*
X0195731Y0037384D01*
X0195731Y0036785D02*
X0154767Y0036785D01*
X0153802Y0036187D02*
X0195731Y0036187D01*
X0206381Y0037982D02*
X0217621Y0037982D01*
X0217385Y0037384D02*
X0206599Y0037384D01*
X0206599Y0036785D02*
X0217385Y0036785D01*
X0217385Y0036187D02*
X0206599Y0036187D01*
X0206599Y0035588D02*
X0217385Y0035588D01*
X0217385Y0034990D02*
X0206599Y0034990D01*
X0206599Y0034391D02*
X0217385Y0034391D01*
X0217385Y0033793D02*
X0206599Y0033793D01*
X0249700Y0076287D02*
X0154044Y0076287D01*
X0154867Y0076885D02*
X0249700Y0076885D01*
X0249700Y0138532D02*
X0155633Y0138532D01*
X0155034Y0139131D02*
X0249700Y0139131D01*
X0249700Y0139729D02*
X0154435Y0139729D01*
X0153001Y0140328D02*
X0249700Y0140328D01*
X0249700Y0140926D02*
X0045908Y0140926D01*
X0046292Y0141525D02*
X0249700Y0141525D01*
X0249700Y0142123D02*
X0046292Y0142123D01*
X0046292Y0142722D02*
X0249700Y0142722D01*
X0249700Y0143320D02*
X0046292Y0143320D01*
X0046292Y0143919D02*
X0249700Y0143919D01*
X0249700Y0144517D02*
X0046292Y0144517D01*
X0046049Y0145116D02*
X0249700Y0145116D01*
X0249700Y0145714D02*
X0045450Y0145714D01*
X0044852Y0146313D02*
X0249700Y0146313D01*
X0249700Y0146911D02*
X0044253Y0146911D01*
X0003300Y0276190D02*
X0130175Y0276190D01*
X0129214Y0276788D02*
X0003300Y0276788D01*
X0003300Y0289357D02*
X0129177Y0289357D01*
X0130084Y0289955D02*
X0003300Y0289955D01*
X0085959Y0307911D02*
X0101089Y0307911D01*
X0099826Y0308509D02*
X0087221Y0308509D01*
X0087820Y0309108D02*
X0099228Y0309108D01*
X0098629Y0309706D02*
X0088418Y0309706D01*
X0088928Y0310305D02*
X0098120Y0310305D01*
X0097872Y0310903D02*
X0089175Y0310903D01*
X0089423Y0311502D02*
X0097624Y0311502D01*
X0097376Y0312100D02*
X0089671Y0312100D01*
X0089824Y0312699D02*
X0097224Y0312699D01*
X0097224Y0313297D02*
X0089824Y0313297D01*
X0089824Y0313896D02*
X0097224Y0313896D01*
X0097224Y0314494D02*
X0089824Y0314494D01*
X0089824Y0315093D02*
X0097224Y0315093D01*
X0097224Y0315691D02*
X0089824Y0315691D01*
X0089824Y0316290D02*
X0097224Y0316290D01*
X0097224Y0316888D02*
X0089824Y0316888D01*
X0089824Y0317487D02*
X0097224Y0317487D01*
X0097224Y0318085D02*
X0089824Y0318085D01*
X0089824Y0318684D02*
X0097224Y0318684D01*
X0097224Y0319282D02*
X0089824Y0319282D01*
X0089824Y0319881D02*
X0097224Y0319881D01*
X0097224Y0320480D02*
X0089824Y0320480D01*
X0089824Y0321078D02*
X0097224Y0321078D01*
X0097224Y0321677D02*
X0089824Y0321677D01*
X0089824Y0322275D02*
X0097224Y0322275D01*
X0097224Y0322874D02*
X0089824Y0322874D01*
X0089824Y0323472D02*
X0097224Y0323472D01*
X0097224Y0324071D02*
X0089824Y0324071D01*
X0089824Y0324669D02*
X0097224Y0324669D01*
X0097345Y0325268D02*
X0089702Y0325268D01*
X0089454Y0325866D02*
X0097593Y0325866D01*
X0097841Y0326465D02*
X0089206Y0326465D01*
X0088958Y0327063D02*
X0098089Y0327063D01*
X0098554Y0327662D02*
X0088493Y0327662D01*
X0087894Y0328260D02*
X0099153Y0328260D01*
X0099751Y0328859D02*
X0087296Y0328859D01*
X0086139Y0329457D02*
X0100909Y0329457D01*
X0106139Y0329457D02*
X0127692Y0329457D01*
X0127848Y0328859D02*
X0107296Y0328859D01*
X0107894Y0328260D02*
X0128096Y0328260D01*
X0128344Y0327662D02*
X0108493Y0327662D01*
X0108958Y0327063D02*
X0128939Y0327063D01*
X0129538Y0326465D02*
X0109206Y0326465D01*
X0109454Y0325866D02*
X0130956Y0325866D01*
X0133900Y0289955D02*
X0150084Y0289955D01*
X0149177Y0289357D02*
X0134808Y0289357D01*
X0135406Y0288758D02*
X0148578Y0288758D01*
X0148195Y0288160D02*
X0135790Y0288160D01*
X0136037Y0287561D02*
X0147947Y0287561D01*
X0147699Y0286963D02*
X0136285Y0286963D01*
X0136292Y0286364D02*
X0147692Y0286364D01*
X0147692Y0285766D02*
X0136292Y0285766D01*
X0136292Y0285167D02*
X0147692Y0285167D01*
X0147692Y0284569D02*
X0136292Y0284569D01*
X0136292Y0283970D02*
X0147692Y0283970D01*
X0147692Y0283372D02*
X0136292Y0283372D01*
X0136292Y0282773D02*
X0147692Y0282773D01*
X0147692Y0282175D02*
X0136292Y0282175D01*
X0136292Y0281576D02*
X0147692Y0281576D01*
X0147692Y0280978D02*
X0136292Y0280978D01*
X0136292Y0280379D02*
X0147692Y0280379D01*
X0147692Y0279781D02*
X0136292Y0279781D01*
X0136270Y0279182D02*
X0147714Y0279182D01*
X0147962Y0278584D02*
X0136022Y0278584D01*
X0135774Y0277985D02*
X0148210Y0277985D01*
X0148616Y0277387D02*
X0135369Y0277387D01*
X0134770Y0276788D02*
X0149214Y0276788D01*
X0150175Y0276190D02*
X0133809Y0276190D01*
X0133782Y0190004D02*
X0150202Y0190004D01*
X0149225Y0189406D02*
X0134759Y0189406D01*
X0135358Y0188807D02*
X0148627Y0188807D01*
X0148215Y0188209D02*
X0135769Y0188209D01*
X0136017Y0187610D02*
X0147967Y0187610D01*
X0147719Y0187011D02*
X0136265Y0187011D01*
X0136292Y0186413D02*
X0147692Y0186413D01*
X0147692Y0185814D02*
X0136292Y0185814D01*
X0136292Y0185216D02*
X0147692Y0185216D01*
X0147692Y0184617D02*
X0136292Y0184617D01*
X0136292Y0184019D02*
X0147692Y0184019D01*
X0147692Y0183420D02*
X0136292Y0183420D01*
X0136292Y0182822D02*
X0147692Y0182822D01*
X0147692Y0182223D02*
X0136292Y0182223D01*
X0136292Y0181625D02*
X0147692Y0181625D01*
X0147692Y0181026D02*
X0136292Y0181026D01*
X0136292Y0180428D02*
X0147692Y0180428D01*
X0147692Y0179829D02*
X0136292Y0179829D01*
X0136290Y0179231D02*
X0147694Y0179231D01*
X0147942Y0178632D02*
X0136042Y0178632D01*
X0135794Y0178034D02*
X0148190Y0178034D01*
X0148567Y0177435D02*
X0135417Y0177435D01*
X0134819Y0176837D02*
X0149166Y0176837D01*
X0150058Y0176238D02*
X0133926Y0176238D01*
X0133665Y0090053D02*
X0150319Y0090053D01*
X0149274Y0089454D02*
X0134710Y0089454D01*
X0135309Y0088856D02*
X0148675Y0088856D01*
X0148235Y0088257D02*
X0135749Y0088257D01*
X0135997Y0087659D02*
X0147987Y0087659D01*
X0147739Y0087060D02*
X0136245Y0087060D01*
X0136292Y0086462D02*
X0147692Y0086462D01*
X0147692Y0085863D02*
X0136292Y0085863D01*
X0136292Y0085265D02*
X0147692Y0085265D01*
X0147692Y0084666D02*
X0136292Y0084666D01*
X0136292Y0084068D02*
X0147692Y0084068D01*
X0147692Y0083469D02*
X0136292Y0083469D01*
X0136292Y0082871D02*
X0147692Y0082871D01*
X0147692Y0082272D02*
X0136292Y0082272D01*
X0136292Y0081673D02*
X0147692Y0081673D01*
X0147692Y0081075D02*
X0136292Y0081075D01*
X0136292Y0080476D02*
X0147692Y0080476D01*
X0147692Y0079878D02*
X0136292Y0079878D01*
X0136292Y0079279D02*
X0147692Y0079279D01*
X0147922Y0078681D02*
X0136062Y0078681D01*
X0135814Y0078082D02*
X0148170Y0078082D01*
X0148518Y0077484D02*
X0135466Y0077484D01*
X0134867Y0076885D02*
X0149117Y0076885D01*
X0149940Y0076287D02*
X0134044Y0076287D01*
X0133907Y0049952D02*
X0150077Y0049952D01*
X0149174Y0049354D02*
X0134811Y0049354D01*
X0135409Y0048755D02*
X0148575Y0048755D01*
X0148193Y0048157D02*
X0135791Y0048157D01*
X0136039Y0047558D02*
X0147945Y0047558D01*
X0147698Y0046960D02*
X0136287Y0046960D01*
X0136292Y0046361D02*
X0147692Y0046361D01*
X0147692Y0045763D02*
X0136292Y0045763D01*
X0136292Y0045164D02*
X0147692Y0045164D01*
X0147692Y0044566D02*
X0136292Y0044566D01*
X0136292Y0043967D02*
X0147692Y0043967D01*
X0147692Y0043369D02*
X0136292Y0043369D01*
X0136292Y0042770D02*
X0147692Y0042770D01*
X0147692Y0042172D02*
X0136292Y0042172D01*
X0136292Y0041573D02*
X0147692Y0041573D01*
X0147692Y0040975D02*
X0136292Y0040975D01*
X0136292Y0040376D02*
X0147692Y0040376D01*
X0147692Y0039778D02*
X0136292Y0039778D01*
X0136269Y0039179D02*
X0147716Y0039179D01*
X0147964Y0038581D02*
X0136021Y0038581D01*
X0135773Y0037982D02*
X0148211Y0037982D01*
X0148619Y0037384D02*
X0135366Y0037384D01*
X0134767Y0036785D02*
X0149217Y0036785D01*
X0150182Y0036187D02*
X0133802Y0036187D01*
D23*
X0107799Y0096280D03*
X0096972Y0048544D03*
X0077287Y0060355D03*
X0081224Y0083977D03*
X0070890Y0091359D03*
X0067937Y0083977D03*
X0070398Y0012127D03*
X0087622Y0012619D03*
X0021185Y0094804D03*
X0018724Y0012127D03*
X0011343Y0231615D03*
X0021185Y0249331D03*
X0032996Y0249331D03*
X0051205Y0261143D03*
X0092051Y0233583D03*
X0095004Y0299036D03*
X0010850Y0298544D03*
D24*
X0105831Y0384174D03*
M02*
