%
M48
M72
T01C0.03543
T02C0.03937
T03C0.04000
T04C0.05000
T05C0.05200
T06C0.05512
T07C0.07000
T08C0.08600
T09C0.13780
%
T01
X83252Y428406
X102937Y428406
T02
X18724Y12127
X21185Y94804
X67937Y83977
X70890Y91359
X81224Y83977
X77287Y60355
X96972Y48544
X87622Y12619
X70398Y12127
X107799Y96280
X75465Y216784
X65465Y216784
X55465Y216784
X45465Y216784
X35465Y216784
X32996Y249331
X21185Y249331
X11343Y231615
X10850Y298544
X51205Y261143
X92051Y233583
X95004Y299036
T03
X131992Y283091
X151992Y283091
X151992Y233091
X131992Y233091
X131992Y183091
X151992Y183091
X151992Y133091
X131992Y133091
X131992Y83091
X151992Y83091
X151992Y43091
X131992Y43091
X41992Y123091
X41992Y133091
X41992Y143091
X41992Y153091
X41992Y163091
X31992Y163091
X31992Y153091
X31992Y143091
X31992Y133091
X31992Y123091
X131992Y333091
X151992Y333091
X151992Y373091
X131992Y373091
X131992Y413091
X151992Y413091
T04
X105831Y384174
T05
X103524Y318721
X83524Y318721
X110768Y255040
X105421Y204312
X41524Y318721
X21524Y318721
X18433Y187871
T06
X201165Y183091
X222819Y183091
X222819Y133091
X201165Y133091
X201165Y83091
X222819Y83091
X222819Y33091
X201165Y33091
X201165Y233091
X222819Y233091
X222819Y283091
X201165Y283091
X201165Y333091
X222819Y333091
X222819Y383091
X201165Y383091
X201165Y433091
X222819Y433091
T07
X48744Y401595
X48744Y376595
X48744Y359095
T08
X74465Y283284
X21465Y220284
T09
X26500Y28269
X26500Y438269
X141500Y438269
M30
